<svg xmlns="http://www.w3.org/2000/svg" viewBox="0 0 600 900"><filter id="b"><feGaussianBlur stdDeviation="12" /></filter><path fill="#a69384" d="M0 0h597v900H0z"/><g filter="url(#b)" transform="translate(1.8 1.8) scale(3.51563)" fill-opacity=".5"><ellipse fill="#fff9d7" rx="1" ry="1" transform="matrix(-19.03392 77.49222 -65.15817 -16.00438 83.3 157.3)"/><path fill="#000013" d="M11.2 239.4l164.4-29 9.2 52.2-164.4 29z"/><ellipse rx="1" ry="1" transform="matrix(10.76102 13.46007 -39.8451 31.85525 20.7 12.5)"/><ellipse cx="167" cy="50" rx="25" ry="24"/><ellipse fill="#31171c" rx="1" ry="1" transform="matrix(-10.14542 -13.56166 49.81704 -37.2679 41.1 65.6)"/><ellipse fill="#1f1125" rx="1" ry="1" transform="matrix(17.27285 2.184 -12.357 97.72899 169 185.9)"/><ellipse fill="#fffae5" rx="1" ry="1" transform="rotate(137.8 36.6 84.2) scale(69.06228 22.93919)"/><ellipse fill="#ffffcd" rx="1" ry="1" transform="rotate(-132.1 25.4 14.3) scale(10.83683 65.93837)"/></g></svg>