<svg xmlns="http://www.w3.org/2000/svg" viewBox="0 0 820 547"><filter id="b"><feGaussianBlur stdDeviation="12" /></filter><path fill="#9e8b7b" d="M0 0h820v544H0z"/><g filter="url(#b)" transform="translate(1.6 1.6) scale(3.20313)" fill-opacity=".5"><ellipse fill="#00000b" rx="1" ry="1" transform="matrix(-32.94097 15.16563 -13.66877 -29.68969 183.1 19.1)"/><ellipse fill="#00000c" cx="119" cy="169" rx="255" ry="19"/><ellipse fill="#ffdfb5" cx="146" cy="101" rx="94" ry="53"/><ellipse fill="#060012" rx="1" ry="1" transform="matrix(108.38546 14.4617 -3.15503 23.64587 0 46.4)"/><ellipse fill="#fff8d8" cx="19" cy="113" rx="42" ry="34"/><ellipse fill="#fff7ac" rx="1" ry="1" transform="matrix(53.88023 .7829 -.31368 21.58767 96.1 14.2)"/><ellipse fill="#1d1026" rx="1" ry="1" transform="matrix(32.62686 -26.76269 12.66 15.43403 244.6 136.2)"/><ellipse fill="#fffded" rx="1" ry="1" transform="matrix(15.0737 11.5247 -30.14514 39.42821 246 5.8)"/></g></svg>