<svg xmlns="http://www.w3.org/2000/svg" viewBox="0 0 820 547"><filter id="b"><feGaussianBlur stdDeviation="12" /></filter><path fill="#e4c4a5" d="M0 0h820v544H0z"/><g filter="url(#b)" transform="translate(1.6 1.6) scale(3.20313)" fill-opacity=".5"><ellipse fill="#c54900" rx="1" ry="1" transform="matrix(-1.66557 -49.76741 89.4022 -2.99203 116.8 96.3)"/><ellipse fill="#fff" rx="1" ry="1" transform="matrix(254.17861 20.45073 -3.33476 41.44722 122.1 11.5)"/><ellipse fill="#f7ffff" rx="1" ry="1" transform="matrix(119.12322 103.38076 -20.68623 23.83626 210 41)"/><ellipse fill="#fdffff" rx="1" ry="1" transform="rotate(-8.6 1004.3 -79.6) scale(25.36072 195.34378)"/><ellipse fill="#bc5900" rx="1" ry="1" transform="matrix(-11.69433 -28.2879 56.24426 -23.2516 146.2 102.4)"/><ellipse fill="#e8ac4f" cx="52" cy="96" rx="38" ry="38"/><ellipse fill="#eefdff" cx="211" cy="169" rx="255" ry="15"/><path fill="#f0fbff" d="M189 156l82-70-26-102z"/></g></svg>