<svg xmlns="http://www.w3.org/2000/svg" viewBox="0 0 600 900"><filter id="b"><feGaussianBlur stdDeviation="12" /></filter><path fill="#906e4c" d="M0 0h597v900H0z"/><g filter="url(#b)" transform="translate(1.8 1.8) scale(3.51563)" fill-opacity=".5"><ellipse cx="51" cy="255" rx="169" ry="26"/><ellipse fill="#ffe495" rx="1" ry="1" transform="matrix(-44.80513 -17.98601 10.76954 -26.82811 114.5 104.1)"/><ellipse fill="#fffff5" rx="1" ry="1" transform="matrix(-47.53933 -25.2892 5.01952 -9.43583 123.9 41.8)"/><ellipse fill="#f4d995" rx="1" ry="1" transform="matrix(41.29597 11.45239 -7.15269 25.79176 55 204.4)"/><ellipse fill="#040400" cx="57" cy="89" rx="15" ry="42"/><ellipse fill="#3c1c0f" rx="1" ry="1" transform="rotate(99 -8 150.7) scale(52.53567 28.54722)"/><ellipse rx="1" ry="1" transform="rotate(65.7 -175.3 128.5) scale(61.0031 17.28564)"/><ellipse rx="1" ry="1" transform="matrix(-19.69747 -9.57548 6.05204 -12.44948 121.2 151.8)"/></g></svg>