<svg xmlns="http://www.w3.org/2000/svg" viewBox="0 0 600 900"><filter id="b"><feGaussianBlur stdDeviation="12" /></filter><path fill="#c6bcb7" d="M0 0h597v900H0z"/><g filter="url(#b)" transform="translate(1.8 1.8) scale(3.51563)" fill-opacity=".5"><ellipse fill="#070000" rx="1" ry="1" transform="matrix(48.38183 31.06058 -17.39134 27.08979 89 154.1)"/><ellipse fill="#300000" rx="1" ry="1" transform="rotate(127.3 -6 80.9) scale(24.47949 30.27236)"/><ellipse fill="#f4f2ee" rx="1" ry="1" transform="matrix(4.35948 -61.29268 168.57414 11.98994 94.8 47.2)"/><ellipse fill="#561c00" rx="1" ry="1" transform="matrix(34.98168 -9.38995 5.56967 20.74947 109.2 149.8)"/><ellipse fill="#f7fafa" cx="103" cy="236" rx="169" ry="34"/><path fill="#f9f2e7" d="M127.2 201.6l-11.3-6.3 34.9-63 11.3 6.4z"/><path fill="#4f2312" d="M20 126l109 46-26 32z"/><path fill="#d4d0c8" d="M87 190.9l-37 39.4-57-53.2 36.8-39.4z"/></g></svg>