<svg xmlns="http://www.w3.org/2000/svg" viewBox="0 0 600 900"><filter id="b"><feGaussianBlur stdDeviation="12" /></filter><path fill="#a0948a" d="M0 0h597v900H0z"/><g filter="url(#b)" transform="translate(1.8 1.8) scale(3.51563)" fill-opacity=".5"><ellipse fill="#000002" rx="1" ry="1" transform="matrix(3.7429 31.38894 -64.88667 7.73727 160 31.8)"/><ellipse fill="#f5fdff" cx="83" cy="223" rx="67" ry="67"/><path fill="#360000" d="M71 50L3 109l165 70z"/><ellipse fill="#fff" rx="1" ry="1" transform="matrix(8.33775 -45.31513 32.27623 5.93866 51 17.8)"/><ellipse rx="1" ry="1" transform="matrix(-13.78564 -3.84902 33.88528 -121.36344 169.2 223.6)"/><ellipse fill="#ffc46a" rx="1" ry="1" transform="matrix(-9.01317 31.18652 -59.69569 -17.25255 43 158.3)"/><path fill="#ddf5ff" d="M156 222l19-85L56 241z"/><ellipse fill="#3a1300" cx="128" cy="145" rx="31" ry="24"/></g></svg>