<svg xmlns="http://www.w3.org/2000/svg" viewBox="0 0 820 547"><filter id="b"><feGaussianBlur stdDeviation="12" /></filter><path fill="#887c6f" d="M0 0h820v544H0z"/><g filter="url(#b)" transform="translate(1.6 1.6) scale(3.20313)" fill-opacity=".5"><ellipse fill="#fff" rx="1" ry="1" transform="matrix(-106.94749 -.98188 .36506 -39.76275 119 103.6)"/><ellipse rx="1" ry="1" transform="matrix(-254.43167 17.01547 -1.87348 -28.01408 124 169)"/><path fill="#190f13" d="M6 14L111-9-5 116z"/><ellipse fill="#dfeff7" cx="204" cy="19" rx="39" ry="39"/><path fill="#190000" d="M194 167l62 18 15-156z"/><path fill="#040100" d="M147.4 215.4L-30.4 154l15-43.5L162.4 172z"/><ellipse fill="#a99300" rx="1" ry="1" transform="matrix(-26.78235 14.84692 -9.6129 -17.3407 127.5 96.1)"/><ellipse fill="#480400" rx="1" ry="1" transform="matrix(121.33675 27.34442 -1.74041 7.7228 212 71.5)"/></g></svg>