<svg xmlns="http://www.w3.org/2000/svg" viewBox="0 0 820 547"><filter id="b"><feGaussianBlur stdDeviation="12" /></filter><path fill="#866559" d="M0 0h820v544H0z"/><g filter="url(#b)" transform="translate(1.6 1.6) scale(3.20313)" fill-opacity=".5"><path fill="#f8fdeb" d="M215.5 61.3l10.3 98.4-123.3 13-10.3-98.4z"/><ellipse fill="#150000" rx="1" ry="1" transform="matrix(-15.45074 51.39828 -129.10429 -38.8098 200.6 0)"/><ellipse fill="#060c08" rx="1" ry="1" transform="rotate(86.4 -70.1 89.7) scale(43.32505 73.06312)"/><ellipse fill="#f8ecdd" cx="61" cy="107" rx="12" ry="55"/><ellipse rx="1" ry="1" transform="matrix(-14.83484 -138.81308 16.30185 -1.74217 251.7 85.6)"/><ellipse fill="#4b0400" rx="1" ry="1" transform="matrix(-50.45058 -10.22526 7.49863 -36.99761 26.8 27.9)"/><ellipse fill="#ff6046" rx="1" ry="1" transform="matrix(45.6018 -4.35294 2.03674 21.33704 96.9 49.9)"/><path fill="#1b1b1d" d="M192.2 167.3l.6-35 25 .4-.6 35z"/></g></svg>