<svg xmlns="http://www.w3.org/2000/svg" viewBox="0 0 820 547"><filter id="b"><feGaussianBlur stdDeviation="12" /></filter><path fill="#938584" d="M0 0h820v544H0z"/><g filter="url(#b)" transform="translate(1.6 1.6) scale(3.20313)" fill-opacity=".5"><ellipse fill="#5a1800" rx="1" ry="1" transform="matrix(70.78859 71.63401 -45.4855 44.94869 196 133.3)"/><ellipse fill="#ecffff" rx="1" ry="1" transform="matrix(-81.07368 26.49896 -17.91153 -54.8004 46.4 44.2)"/><ellipse fill="#e3f9ff" rx="1" ry="1" transform="matrix(80.3984 -12.55792 3.61118 23.11952 236 11.8)"/><ellipse fill="#587186" rx="1" ry="1" transform="matrix(.63306 -38.68126 58.1864 .95229 216 68.4)"/><ellipse fill="#39495b" rx="1" ry="1" transform="matrix(60.17828 -1.05042 .37765 21.6353 48 165.5)"/><ellipse fill="#f6ae83" rx="1" ry="1" transform="matrix(-13.6906 4.94089 -16.89333 -46.80938 117 137)"/><ellipse fill="#1b242c" rx="1" ry="1" transform="matrix(-18.80368 50.29272 -18.17892 -6.79682 251.8 84)"/><ellipse fill="#9baac1" cx="40" cy="87" rx="52" ry="52"/></g></svg>