<svg xmlns="http://www.w3.org/2000/svg" viewBox="0 0 600 900"><filter id="b"><feGaussianBlur stdDeviation="12" /></filter><path fill="#4b3621" d="M0 0h597v900H0z"/><g filter="url(#b)" transform="translate(1.8 1.8) scale(3.51563)" fill-opacity=".5"><ellipse fill="#e0a461" cx="117" cy="94" rx="19" ry="129"/><ellipse fill="#dfb576" rx="1" ry="1" transform="matrix(33.60214 -5.38219 3.9452 24.63072 48 168.5)"/><ellipse rx="1" ry="1" transform="matrix(166.73558 27.5726 -5.8731 35.51553 72.1 238.5)"/><ellipse fill="#ffd285" rx="1" ry="1" transform="matrix(-25.71493 -9.83566 4.67004 -12.20963 42 85.2)"/><path d="M191.7 253.1l-41 .7-4.4-255 41-.6z"/><ellipse cy="93" rx="19" ry="169"/><ellipse fill="#e0d5bd" rx="1" ry="1" transform="matrix(7.46086 -23.58517 4.05567 1.28296 76.7 142.3)"/><ellipse fill="#deb17d" rx="1" ry="1" transform="rotate(-170 62.4 81.4) scale(12.26715 31.46041)"/></g></svg>