<svg xmlns="http://www.w3.org/2000/svg" viewBox="0 0 600 900"><filter id="b"><feGaussianBlur stdDeviation="12" /></filter><path fill="#dfcec2" d="M0 0h597v900H0z"/><g filter="url(#b)" transform="translate(1.8 1.8) scale(3.51563)" fill-opacity=".5"><ellipse fill="#a74603" rx="1" ry="1" transform="rotate(-38.2 315.4 -40.9) scale(40.35292 81.07115)"/><ellipse fill="#fcffff" rx="1" ry="1" transform="rotate(-161.8 62.6 19.7) scale(169 71.50509)"/><ellipse fill="#983b05" cx="107" cy="206" rx="43" ry="24"/><ellipse fill="#f4fbfb" rx="1" ry="1" transform="rotate(74.9 -36.3 162.4) scale(9.66156 100.37107)"/><path fill="#e8f5f9" d="M102.6 253.8l58.3-49-19-214L185 253.3z"/><ellipse fill="#c66220" rx="1" ry="1" transform="rotate(152.6 16.5 77) scale(29.69788 24.02202)"/><ellipse fill="#eef6fd" rx="1" ry="1" transform="matrix(17.63273 22.65024 -82.59449 64.29806 0 125)"/><ellipse fill="#c6c2bf" rx="1" ry="1" transform="matrix(-4.72181 -22.00123 23.84258 -5.117 38.5 184.6)"/></g></svg>