<svg xmlns="http://www.w3.org/2000/svg" viewBox="0 0 600 900"><filter id="b"><feGaussianBlur stdDeviation="12" /></filter><path fill="#8a623e" d="M0 0h597v900H0z"/><g filter="url(#b)" transform="translate(1.8 1.8) scale(3.51563)" fill-opacity=".5"><ellipse rx="1" ry="1" transform="matrix(-13.50607 35.55498 -86.57766 -32.88777 99.4 227.2)"/><ellipse fill="#d5d5c4" rx="1" ry="1" transform="matrix(-116.43454 10.81325 -3.77983 -40.70032 112.4 35.3)"/><ellipse fill="#f87309" rx="1" ry="1" transform="matrix(-30.07953 -32.49087 38.34952 -35.50338 42.4 135.7)"/><ellipse fill="#772400" rx="1" ry="1" transform="rotate(127.1 13.8 101) scale(42.37076 58.62473)"/><ellipse fill="#46230a" cx="143" cy="24" rx="39" ry="11"/><ellipse fill="#f4d2ac" rx="1" ry="1" transform="matrix(-23.68571 -21.04258 17.78796 -20.02229 .8 142.6)"/><ellipse fill="#ebe8d6" rx="1" ry="1" transform="rotate(-175.3 40 9.8) scale(25.51806 33.15055)"/><ellipse fill="#fff1d4" cx="169" cy="54" rx="55" ry="19"/></g></svg>