<svg xmlns="http://www.w3.org/2000/svg" viewBox="0 0 960 960"><filter id="c"><feGaussianBlur stdDeviation="55" /></filter><path fill="#97786d" d="M0 0h960v960H0z"/><g filter='url(#c)' fill-opacity='.5'><ellipse fill="#f8ffeb" fill-opacity=".5" rx="1" ry="1" transform="matrix(47.13199 -91.31656 449.9456 232.23424 221 689.6)"/><path fill="#3d0000" fill-opacity=".5" d="M583.5 954.3L497 1206.1l-709.2-244.2 86.7-251.7z"/><ellipse fill="#662c2f" fill-opacity=".5" rx="1" ry="1" transform="matrix(-49.28179 531.24152 -148.32424 -13.75962 918.2 552.7)"/><ellipse fill="#2f0b2f" fill-opacity=".5" rx="1" ry="1" transform="matrix(-42.06402 -136.0758 94.06044 -29.07615 556.3 400.1)"/><path fill="#0c0011" fill-opacity=".5" d="M174.4 356.3l-163.8 119L-73.2 360 90.7 241z"/><ellipse fill="#1b0d3c" fill-opacity=".5" rx="1" ry="1" transform="rotate(-146.5 183.7 -54.3) scale(107.03178 222.13891)"/><ellipse fill="#ffe797" fill-opacity=".5" rx="1" ry="1" transform="matrix(209.89882 92.13914 -23.1572 52.7536 519.9 602.3)"/><ellipse fill="#9e5a26" fill-opacity=".5" rx="1" ry="1" transform="matrix(107.63431 80.95533 -44.534 59.21028 422 672.6)"/></g></svg>