<svg xmlns="http://www.w3.org/2000/svg" viewBox="0 0 640 640"><filter id="c"><feGaussianBlur stdDeviation="55" /></filter><path fill="#5c544d" d="M0 0h640v640H0z"/><g filter='url(#c)' fill-opacity='.5'><ellipse fill="#f6f3e4" fill-opacity=".5" rx="1" ry="1" transform="matrix(-625.51164 -64.26187 9.5308 -92.77075 473 1.3)"/><ellipse fill="#fffffd" fill-opacity=".5" rx="1" ry="1" transform="matrix(-421.85891 -29.49925 2.5493 -36.45658 186.6 612.5)"/><ellipse fill-opacity=".5" rx="1" ry="1" transform="rotate(-81.5 474.5 89.1) scale(41.4288 420.32081)"/><ellipse fill-opacity=".5" rx="1" ry="1" transform="matrix(532.42543 80.49726 -6.06372 40.10668 311.5 114.1)"/><path fill="#fff" fill-opacity=".5" d="M233.2 330.4l-49.5-7 15.6-111.3 49.5 7z"/><ellipse fill-opacity=".5" rx="1" ry="1" transform="matrix(-38.01727 -4.69623 28.54018 -231.04068 5.1 266.5)"/><path fill="#f5e5e1" fill-opacity=".5" d="M590 451.2l13-91.8-28.6-118-31.6 145.7z"/><path fill="#fffffb" fill-opacity=".5" d="M434.2 469.3l-7 44.5-98.9-15.6 7-44.5z"/></g></svg>