<svg xmlns="http://www.w3.org/2000/svg" viewBox="0 0 640 640"><filter id="b"><feGaussianBlur stdDeviation="12" /></filter><path fill="#b5ada6" d="M0 0h640v640H0z"/><g filter="url(#b)" transform="matrix(2.5 0 0 2.5 1.3 1.3)" fill-opacity=".5"><ellipse fill="#3c2709" rx="1" ry="1" transform="matrix(167.1253 -43.10432 9.78654 37.94464 54.7 0)"/><ellipse fill="#fff" cx="249" cy="28" rx="23" ry="88"/><ellipse fill="#fff" rx="1" ry="1" transform="rotate(163.5 59.1 26.9) scale(136.8776 15.89662)"/><ellipse fill="#fff" rx="1" ry="1" transform="matrix(5.11637 15.84058 -140.04406 45.233 150.4 205.8)"/><ellipse fill="#2b181e" rx="1" ry="1" transform="matrix(-18.4672 -22.96855 16.2271 -13.04692 25 107.4)"/><ellipse fill="#482c0e" cx="76" cy="155" rx="27" ry="27"/><path fill="#4e3a35" d="M142 149l17 39 111-42z"/><path fill="#fff" d="M48 271l-64-44L9 103z"/></g></svg>