<svg xmlns="http://www.w3.org/2000/svg" viewBox="0 0 750 750"><filter id="b"><feGaussianBlur stdDeviation="12" /></filter><path fill="#a96f5a" d="M0 0h750v750H0z"/><g filter="url(#b)" transform="translate(1.5 1.5) scale(2.92969)" fill-opacity=".5"><ellipse fill="#c3e0d3" rx="1" ry="1" transform="rotate(15.9 -61.5 606) scale(108.10861 38.38558)"/><ellipse fill="#720e24" rx="1" ry="1" transform="rotate(-75.3 115 26.9) scale(49.8841 137.31649)"/><path fill="#fff" d="M164.9 199l.3-18 114 2-.4 18z"/><ellipse fill="#e57d0c" rx="1" ry="1" transform="rotate(-176.9 85.3 116.3) scale(182.01908 31.09184)"/><ellipse fill="#002c4b" rx="1" ry="1" transform="rotate(22.2 -420 431.6) scale(36.67711 23.35126)"/><path fill="#012434" d="M94 26L46 55l104 83z"/><ellipse fill="#f7fffd" cx="164" cy="69" rx="42" ry="16"/><path fill="#000005" d="M216 84l-74 2 54 19z"/></g></svg>