<svg xmlns="http://www.w3.org/2000/svg" viewBox="0 0 750 750"><filter id="b"><feGaussianBlur stdDeviation="12" /></filter><path fill="#8b5e31" d="M0 0h750v750H0z"/><g filter="url(#b)" transform="translate(1.5 1.5) scale(2.92969)" fill-opacity=".5"><ellipse fill="#000008" cx="167" cy="224" rx="53" ry="47"/><ellipse fill="#000918" rx="1" ry="1" transform="matrix(-133.42751 68.4786 -30.19941 -58.84222 40.2 36.6)"/><ellipse fill="#ffc953" cx="209" cy="66" rx="60" ry="60"/><ellipse fill="#fff" rx="1" ry="1" transform="matrix(14.6098 13.52663 -56.3742 60.88847 228.8 255)"/><ellipse fill="#ff9231" rx="1" ry="1" transform="matrix(34.6733 47.74492 -151.79922 110.23955 97 150)"/><ellipse fill="#040d19" rx="1" ry="1" transform="matrix(-25.59494 -31.40961 197.67898 -161.0839 183.4 204.2)"/><path fill="#ffffeb" d="M44.4 54.7v2.8l52.4 53.3-50.1-64.4z"/><path fill="#fff" d="M247 212.2l25 28.7-31 26.9-25-28.7z"/></g></svg>