<svg xmlns="http://www.w3.org/2000/svg" viewBox="0 0 960 640"><filter id="c"><feGaussianBlur stdDeviation="55" /></filter><path fill="#816a54" d="M0 0h960v637H0z"/><g filter='url(#c)' fill-opacity='.5'><ellipse fill="#000025" fill-opacity=".5" rx="1" ry="1" transform="matrix(27.38901 146.82075 -340.18736 63.46103 481.8 72)"/><ellipse fill="#ffcb80" fill-opacity=".5" rx="1" ry="1" transform="rotate(-170.5 385.2 152.8) scale(497.74455 120.09555)"/><ellipse fill="#ffffb6" fill-opacity=".5" rx="1" ry="1" transform="matrix(-89.41272 -61.21236 68.80436 -100.50234 825 577.6)"/><path fill="#00002b" fill-opacity=".5" d="M673.1 695.6l56.3-251.2L211.9 628z"/><ellipse fill="#ffe0a1" fill-opacity=".5" rx="1" ry="1" transform="rotate(-89.1 549.7 -417) scale(261.91773 81.5562)"/><ellipse fill="#fac776" fill-opacity=".5" rx="1" ry="1" transform="matrix(-34.48912 53.21355 -112.48214 -72.90269 345.9 486.6)"/><ellipse fill="#001739" fill-opacity=".5" rx="1" ry="1" transform="rotate(64.5 161.4 364) scale(140.00541 280.29904)"/><path fill="#ff914c" fill-opacity=".5" d="M140.9 322.5l-89.5-9.4L87.8-33.7l89.6 9.4z"/></g></svg>