<svg xmlns="http://www.w3.org/2000/svg" viewBox="0 0 750 750"><filter id="b"><feGaussianBlur stdDeviation="12" /></filter><path fill="#766265" d="M0 0h750v750H0z"/><g filter="url(#b)" transform="translate(1.5 1.5) scale(2.92969)" fill-opacity=".5"><ellipse fill="#fff" rx="1" ry="1" transform="rotate(173.6 102.4 49.9) scale(46.41892 41.60852)"/><ellipse fill="#0a0000" cx="121" cy="154" rx="51" ry="101"/><ellipse fill="#fffff8" rx="1" ry="1" transform="matrix(-38.35183 -43.3614 21.6927 -19.18653 48 149.1)"/><ellipse rx="1" ry="1" transform="matrix(18.52948 27.78379 -67.89736 45.2819 228.3 194.2)"/><ellipse fill="#ffbcbf" rx="1" ry="1" transform="matrix(22.949 -52.9343 74.53337 32.31301 83 5.7)"/><ellipse fill="#fff" cx="205" cy="83" rx="40" ry="38"/><ellipse fill="#240000" rx="1" ry="1" transform="matrix(-15.1494 -37.12246 21.67327 -8.8447 61.4 216.4)"/><ellipse fill="#080000" rx="1" ry="1" transform="matrix(8.59723 -34.85076 28.51707 7.0348 80 110.3)"/></g></svg>