<svg xmlns="http://www.w3.org/2000/svg" viewBox="0 0 1600 1066"><filter id="b"><feGaussianBlur stdDeviation="12" /></filter><path fill="#86563b" d="M0 0h1600v1062H0z"/><g filter="url(#b)" transform="matrix(6.25 0 0 6.25 3.1 3.1)" fill-opacity=".5"><ellipse fill="#d59f71" rx="1" ry="1" transform="matrix(-52.13268 -25.26793 36.0032 -74.28164 136.1 40.8)"/><path fill="#100000" d="M53.4 34.3L32.7 181.8l-86.1-12 20.7-147.6z"/><path fill="#fddec8" d="M115.7 27.4L46.2-16l-58.4 49.3L132-13.9z"/><ellipse fill="#401504" rx="1" ry="1" transform="rotate(-16.6 639.7 -322.9) scale(28.73332 50.49627)"/><ellipse fill="#0e1a24" rx="1" ry="1" transform="matrix(-13.57594 23.61917 -47.14116 -27.09603 255 11.8)"/><ellipse fill="#935129" rx="1" ry="1" transform="rotate(-114.3 57.8 24.9) scale(34.78588 39.02118)"/><ellipse fill="#000006" cx="3" cy="123" rx="18" ry="49"/><ellipse fill="#6c3615" cx="220" cy="153" rx="55" ry="55"/></g></svg>