<svg xmlns="http://www.w3.org/2000/svg" viewBox="0 0 1080 1080"><filter id="b"><feGaussianBlur stdDeviation="12" /></filter><path fill="#d7c4ad" d="M0 0h1080v1080H0z"/><g filter="url(#b)" transform="translate(2.1 2.1) scale(4.21875)" fill-opacity=".5"><ellipse fill="#180000" rx="1" ry="1" transform="matrix(-25.49362 10.70759 -28.07313 -66.83912 171.1 133.4)"/><ellipse fill="#fff" cx="49" cy="31" rx="159" ry="56"/><ellipse fill="#995200" rx="1" ry="1" transform="rotate(66.1 -70.5 155.2) scale(47.63913 21.45564)"/><ellipse fill="#fffff8" rx="1" ry="1" transform="matrix(5.71457 -42.98528 175.93756 23.38957 74.5 238.7)"/><path fill="#532f00" d="M109.3 54.5l96 54.7-17 70-72.8-89z"/><path fill="#945c10" d="M203.4 19.6l29.2-46.7 28 17.5-29.2 46.7z"/><ellipse fill="#fff" rx="1" ry="1" transform="matrix(4.88751 65.2665 -106.28198 7.95897 73 0)"/><ellipse fill="#fff" rx="1" ry="1" transform="matrix(13.52453 41.1351 -15.69146 5.15909 147.7 175)"/></g></svg>