<svg xmlns="http://www.w3.org/2000/svg" viewBox="0 0 600 900"><filter id="b"><feGaussianBlur stdDeviation="12" /></filter><path fill="#d8cfc5" d="M0 0h597v900H0z"/><g filter="url(#b)" transform="translate(1.8 1.8) scale(3.51563)" fill-opacity=".5"><ellipse fill="#3d0000" rx="1" ry="1" transform="matrix(46.64977 34.63738 -10.87266 14.64334 93.6 171)"/><ellipse fill="#6f1b00" rx="1" ry="1" transform="matrix(-2.28923 -25.03812 54.88946 -5.01852 169 51.3)"/><path fill="#fff" d="M89.8 103.1L-22.5 55.4 14.2-31l112.3 47.7z"/><ellipse fill="#fff" cx="130" cy="128" rx="45" ry="45"/><ellipse fill="#98784d" rx="1" ry="1" transform="rotate(52.9 -143.2 168.3) scale(65.43891 33.18828)"/><ellipse fill="#fff" rx="1" ry="1" transform="matrix(58.35454 113.53805 -28.40504 14.59918 20.6 224)"/><ellipse fill="#fff" rx="1" ry="1" transform="matrix(.64961 -16.6162 106.5007 4.16366 85 248.2)"/><ellipse cx="116" cy="182" rx="16" ry="10"/></g></svg>