<svg xmlns="http://www.w3.org/2000/svg" viewBox="0 0 600 898"><filter id="b"><feGaussianBlur stdDeviation="12" /></filter><path fill="#6a432b" d="M0 0h599v898H0z"/><g filter="url(#b)" transform="translate(1.8 1.8) scale(3.50781)" fill-opacity=".5"><ellipse fill="#ffff27" rx="1" ry="1" transform="matrix(44.87692 -3.0594 2.19054 32.13196 88.9 84)"/><path d="M186 187l-72-80L2 165z"/><ellipse fill="#ffb645" rx="1" ry="1" transform="matrix(11.05917 14.46479 -27.1325 20.74437 117.8 209.7)"/><ellipse fill="#1c0000" rx="1" ry="1" transform="matrix(10.77518 -40.4961 137.0305 36.461 98.6 0)"/><ellipse fill="#ae8b8e" rx="1" ry="1" transform="matrix(-31.80682 93.81371 -23.61588 -8.00678 0 130.2)"/><path fill="#fff" d="M94 67.7l1.8 16.9L60 88.3l-1.8-16.9z"/><ellipse cx="111" cy="151" rx="61" ry="23"/><ellipse fill="#a0787b" cx="149" cy="93" rx="25" ry="32"/></g></svg>