<svg xmlns="http://www.w3.org/2000/svg" viewBox="0 0 600 757"><filter id="b"><feGaussianBlur stdDeviation="12" /></filter><path fill="#7b5332" d="M0 0h600v757H0z"/><g filter="url(#b)" transform="translate(1.5 1.5) scale(2.95703)" fill-opacity=".5"><ellipse fill="#fff3bd" rx="1" ry="1" transform="matrix(98.74685 -2.58578 .44362 16.941 126.4 227)"/><ellipse rx="1" ry="1" transform="matrix(-7.99863 199.1484 -23.00397 -.92393 11.2 125)"/><ellipse fill="#e7ae6c" rx="1" ry="1" transform="matrix(-25.319 -15.24068 34.43967 -57.21386 103.1 156.3)"/><ellipse fill="#ffd068" rx="1" ry="1" transform="matrix(-34.10252 -12.89244 6.9524 -18.39017 187.5 44.8)"/><ellipse fill="#000009" cx="135" cy="255" rx="202" ry="20"/><path d="M-10 201l81 13-87-113z"/><ellipse fill="#0b0000" cx="151" cy="169" rx="14" ry="43"/><path fill="#ffe378" d="M110 14l25 5-40 87z"/></g></svg>