<svg xmlns="http://www.w3.org/2000/svg" viewBox="0 0 600 900"><filter id="b"><feGaussianBlur stdDeviation="12" /></filter><path fill="#b19d81" d="M0 0h597v900H0z"/><g filter="url(#b)" transform="translate(1.8 1.8) scale(3.51563)" fill-opacity=".5"><path d="M20.3 167l-5-35.7L173.7 109l5 35.7z"/><ellipse fill="#ffeb9f" cx="136" cy="53" rx="117" ry="56"/><path fill="#231c28" d="M-14 69l53 129L23 70z"/><ellipse fill="#f4f4ff" rx="1" ry="1" transform="rotate(27.5 40.5 315) scale(114.91844 23.14018)"/><ellipse fill="#ffb44b" rx="1" ry="1" transform="matrix(6.48023 32.72756 -59.99357 11.87905 98.4 66.8)"/><ellipse fill="#cbced7" rx="1" ry="1" transform="matrix(-29.8066 -67.2624 21.43805 -9.50004 155 227.8)"/><ellipse fill="#ffc449" rx="1" ry="1" transform="matrix(28.14096 -4.98754 2.97587 16.79061 43.8 222.5)"/><ellipse fill="#100000" cx="62" cy="141" rx="37" ry="12"/></g></svg>