<svg xmlns="http://www.w3.org/2000/svg" viewBox="0 0 600 900"><filter id="b"><feGaussianBlur stdDeviation="12" /></filter><path fill="#805333" d="M0 0h597v900H0z"/><g filter="url(#b)" transform="translate(1.8 1.8) scale(3.51563)" fill-opacity=".5"><path d="M-5 271l70-13L-1 15z"/><ellipse fill="#ffffc7" rx="1" ry="1" transform="rotate(131.8 2.5 108.6) scale(21.12387 39.80406)"/><ellipse fill="#ffea97" cx="61" cy="92" rx="45" ry="28"/><ellipse fill="#de9f72" rx="1" ry="1" transform="rotate(147 78.2 44.5) scale(77.8384 45.65141)"/><ellipse fill="#2c0000" rx="1" ry="1" transform="matrix(35.27145 9.29884 -11.82895 44.8684 21.3 36.2)"/><ellipse rx="1" ry="1" transform="matrix(-6.40192 15.62683 -38.89276 -15.9334 33.5 130.4)"/><ellipse fill="#0d0000" rx="1" ry="1" transform="matrix(-4.59906 -18.70448 34.51613 -8.48683 122.4 145)"/><path fill="#0e0000" d="M-4 189l44 82 83-51z"/></g></svg>