<svg xmlns="http://www.w3.org/2000/svg" viewBox="0 0 820 547"><filter id="c"><feGaussianBlur stdDeviation="55" /></filter><path fill="#675459" d="M0 0h820v544H0z"/><g filter='url(#c)' fill-opacity='.5'><path fill="#ffdddf" fill-opacity=".5" d="M744.7 421.2L639 46.4 318.7 437.2z"/><ellipse fill-opacity=".5" rx="1" ry="1" transform="matrix(92.1368 2.25178 -17.01688 696.2866 22.8 368)"/><ellipse fill="#fce9eb" fill-opacity=".5" rx="1" ry="1" transform="matrix(9.9892 -35.14307 182.52148 51.88063 523.2 94)"/><ellipse fill-opacity=".5" rx="1" ry="1" transform="rotate(-4.9 6347.4 -3269.1) scale(173.48801 75.01717)"/><path fill="#fff" fill-opacity=".5" d="M68.9 203.4L219.4 43.2h125z"/><ellipse fill-opacity=".5" rx="1" ry="1" transform="matrix(221.79581 193.79893 -67.63238 77.4028 736.7 48.3)"/><ellipse fill="#1f0000" fill-opacity=".5" rx="1" ry="1" transform="matrix(127.34578 52.18929 -31.3138 76.408 291 228.6)"/><path fill="#fff" fill-opacity=".5" d="M104.3 171.3l15.2-22.2 127.3 204.5L99.4 218.2z"/></g></svg>