<svg xmlns="http://www.w3.org/2000/svg" viewBox="0 0 600 900"><filter id="b"><feGaussianBlur stdDeviation="12" /></filter><path fill="#bfc395" d="M0 0h597v900H0z"/><g filter="url(#b)" transform="translate(1.8 1.8) scale(3.51563)" fill-opacity=".5"><ellipse fill="#497400" rx="1" ry="1" transform="matrix(2.56399 50.37029 -90.01553 4.58204 111 82.9)"/><ellipse fill="#fff" rx="1" ry="1" transform="matrix(-8.3252 33.39055 -151.1292 -37.68074 147.1 177.8)"/><ellipse fill="#fbeaf3" rx="1" ry="1" transform="rotate(-152.2 56.2 113.6) scale(131.06899 36.27537)"/><ellipse fill="#faf0fb" rx="1" ry="1" transform="matrix(-165.96753 31.8713 -4.32636 -22.5292 86.6 6.9)"/><ellipse fill="#566b00" cx="110" cy="97" rx="38" ry="38"/><ellipse fill="#fff" cx="147" cy="170" rx="45" ry="45"/><path fill="#725e3c" d="M-6 208l59 44-19-44z"/><ellipse fill="#b9d324" rx="1" ry="1" transform="matrix(-10.28471 21.56235 -55.5551 -26.49842 137 59.6)"/></g></svg>