<svg xmlns="http://www.w3.org/2000/svg" viewBox="0 0 600 900"><filter id="c"><feGaussianBlur stdDeviation="55" /></filter><path fill="#baa179" d="M0 0h597v900H0z"/><g filter='url(#c)' fill-opacity='.5'><ellipse fill="#0c0000" fill-opacity=".5" rx="1" ry="1" transform="matrix(533.79935 -22.37282 2.4616 58.7321 340 43)"/><ellipse fill="#fff" fill-opacity=".5" rx="1" ry="1" transform="matrix(-205.83116 136.67186 -51.62423 -77.74736 173.1 263.7)"/><ellipse fill-opacity=".5" rx="1" ry="1" transform="matrix(210.50983 149.25318 -48.0235 67.73334 45.2 866.8)"/><ellipse fill="#5e1e00" fill-opacity=".5" rx="1" ry="1" transform="matrix(73.45221 64.13417 -186.7547 213.88826 27.6 116.7)"/><ellipse fill="#fff" fill-opacity=".5" rx="1" ry="1" transform="rotate(165.6 222 462.6) scale(243.15862 94.1342)"/><ellipse fill="#fedc9a" fill-opacity=".5" rx="1" ry="1" transform="rotate(104.4 69.6 375) scale(319.60695 142.62317)"/><path fill="#fff" fill-opacity=".5" d="M153.8 405.4L17.2 294.8l177-218.6 136.6 110.6z"/><ellipse fill="#725a37" fill-opacity=".5" rx="1" ry="1" transform="matrix(55.0196 -38.95596 117.90201 166.51936 164 634.3)"/></g></svg>