<svg xmlns="http://www.w3.org/2000/svg" viewBox="0 0 600 900"><filter id="c"><feGaussianBlur stdDeviation="55" /></filter><path fill="#ece0d3" d="M0 0h597v900H0z"/><g filter='url(#c)' fill-opacity='.5'><ellipse fill="#9f571a" fill-opacity=".5" rx="1" ry="1" transform="matrix(81.67245 56.37897 -22.35915 32.3902 349.3 689.3)"/><path fill="#a24100" fill-opacity=".5" d="M9.6 273.9l33.2-41 133.9 108.4-33.2 41z"/><ellipse fill="#8a0000" fill-opacity=".5" rx="1" ry="1" transform="matrix(-50.99444 49.39832 -14.56389 -15.03447 492.3 160.5)"/><path fill="#8c0000" fill-opacity=".5" d="M107.2 789.3h42.2V835h-42.2z"/><ellipse fill="#fff" fill-opacity=".5" rx="1" ry="1" transform="matrix(-12.609 156.71519 -68.4202 -5.50496 275.2 439)"/><path fill="#880512" fill-opacity=".5" d="M55.9 710.2l49.6-3.9-83.7 81.3 41 52.2z"/><path fill="#ab505b" fill-opacity=".5" d="M219.9 662.7L276.5 803l-35.8 14.5L184 677.2z"/><ellipse fill="#edc887" fill-opacity=".5" rx="1" ry="1" transform="matrix(-18.29736 76.4781 -137.57785 -32.91547 467.8 453.5)"/></g></svg>