<svg xmlns="http://www.w3.org/2000/svg" viewBox="0 0 600 900"><filter id="c"><feGaussianBlur stdDeviation="55" /></filter><path fill="#bbd3cd" d="M0 0h597v900H0z"/><g filter='url(#c)' fill-opacity='.5'><ellipse fill="#357800" fill-opacity=".5" rx="1" ry="1" transform="matrix(-32.54688 -54.37543 78.24774 -46.83586 152.5 181)"/><ellipse fill="#003c3e" fill-opacity=".5" rx="1" ry="1" transform="matrix(-192.33635 -106.61378 23.27418 -41.98773 166 867.4)"/><ellipse fill="#fbfeff" fill-opacity=".5" rx="1" ry="1" transform="matrix(-157.49288 62.00138 -127.05074 -322.72812 464 461.2)"/><ellipse fill="#6edefa" fill-opacity=".5" rx="1" ry="1" transform="matrix(67.02097 -79.0541 385.66568 326.962 179.6 685.7)"/><ellipse fill="#fde5c5" fill-opacity=".5" rx="1" ry="1" transform="rotate(119.8 10.1 299.6) scale(199.05833 181.86518)"/><ellipse fill="#4e7900" fill-opacity=".5" rx="1" ry="1" transform="matrix(-103.01832 -41.50594 12.09715 -30.0253 135.8 221.8)"/><ellipse fill="#bb9b97" fill-opacity=".5" rx="1" ry="1" transform="matrix(-31.08079 102.94453 -568.78239 -171.72553 402.9 48.8)"/><path fill="#007c92" fill-opacity=".5" d="M507.3 802l-75 42-198.8-87 218.8 41z"/></g></svg>