<svg xmlns="http://www.w3.org/2000/svg" viewBox="0 0 600 900"><filter id="b"><feGaussianBlur stdDeviation="12" /></filter><path fill="#7f6942" d="M0 0h597v900H0z"/><g filter="url(#b)" transform="translate(1.8 1.8) scale(3.51563)" fill-opacity=".5"><ellipse fill="#fff" rx="1" ry="1" transform="rotate(-72.4 205.7 -27) scale(109.37621 36.96539)"/><ellipse fill="#f69200" rx="1" ry="1" transform="matrix(-49.9373 16.22561 -18.74902 -57.70354 103.7 124.4)"/><ellipse rx="1" ry="1" transform="rotate(-174.6 7.2 100.3) scale(36.83363 102.79996)"/><ellipse fill="#1d2a38" cx="62" cy="9" rx="112" ry="47"/><ellipse fill="#210000" rx="1" ry="1" transform="matrix(-17.70188 38.08896 -13.16736 -6.11954 84.3 167)"/><ellipse fill="#ffee0b" rx="1" ry="1" transform="matrix(27.8823 -57.42132 15.06794 7.3166 82.5 108.5)"/><ellipse fill="#f6ffff" rx="1" ry="1" transform="matrix(-20.09633 -1.0532 5.08393 -97.00715 165.2 207.3)"/><ellipse fill="#410600" rx="1" ry="1" transform="rotate(36.3 -134.4 123.9) scale(13.21485 65.02236)"/></g></svg>