<svg xmlns="http://www.w3.org/2000/svg" viewBox="0 0 600 600"><filter id="c"><feGaussianBlur stdDeviation="55" /></filter><path fill="#8c5d72" d="M0 0h600v600H0z"/><g filter='url(#c)' fill-opacity='.5'><ellipse fill="#fff" fill-opacity=".5" rx="1" ry="1" transform="matrix(-10.18713 129.93622 -219.94188 -17.24366 306.7 327.4)"/><ellipse fill-opacity=".5" rx="1" ry="1" transform="matrix(62.52854 -79.39776 469.5324 369.77333 119.9 548.3)"/><ellipse fill="#fff" fill-opacity=".5" rx="1" ry="1" transform="matrix(-72.4916 26.48898 -24.83034 -67.95246 531.5 98.4)"/><path fill="#3c0004" fill-opacity=".5" d="M167.6 41l468.7 363.3-293-440.6z"/><ellipse fill="#001" fill-opacity=".5" rx="1" ry="1" transform="matrix(48.15316 -43.9529 83.0037 90.93574 346.3 536.8)"/><ellipse fill="#7b001d" fill-opacity=".5" rx="1" ry="1" transform="matrix(-331.48526 155.999 -28.50788 -60.57694 185.4 124.9)"/><ellipse fill="#fff" fill-opacity=".5" rx="1" ry="1" transform="rotate(-168.3 163.5 104.4) scale(121.73389 61.84995)"/><ellipse fill="#f8fffb" fill-opacity=".5" rx="1" ry="1" transform="matrix(-64.5086 -73.17065 33.29865 -29.35671 181.3 419.3)"/></g></svg>