<svg xmlns="http://www.w3.org/2000/svg" viewBox="0 0 600 900"><filter id="b"><feGaussianBlur stdDeviation="12" /></filter><path fill="#615d51" d="M0 0h597v900H0z"/><g filter="url(#b)" transform="translate(1.8 1.8) scale(3.51563)" fill-opacity=".5"><path fill="#fceac9" d="M65 203l120 26-76-198z"/><ellipse rx="1" ry="1" transform="matrix(153.81491 -70.0141 20.73093 45.54406 53.4 30.4)"/><ellipse rx="1" ry="1" transform="matrix(-20.93363 -8.12627 16.46139 -42.40525 154.2 107.8)"/><ellipse fill="#ffe7bb" rx="1" ry="1" transform="matrix(-7.7637 18.55973 -44.20872 -18.4929 107.2 60.7)"/><ellipse rx="1" ry="1" transform="rotate(-39.2 115.2 -193) scale(22.31357 95.58288)"/><ellipse fill="#f6fbfa" rx="1" ry="1" transform="rotate(92.2 -7.1 171.1) scale(27.56082 44.20684)"/><ellipse cx="34" cy="227" rx="31" ry="11"/><ellipse rx="1" ry="1" transform="rotate(121.9 -13.9 32.2) scale(138.68845 35.87001)"/></g></svg>