<svg xmlns="http://www.w3.org/2000/svg" viewBox="0 0 600 900"><filter id="c"><feGaussianBlur stdDeviation="55" /></filter><path fill="#d6b596" d="M0 0h597v900H0z"/><g filter='url(#c)' fill-opacity='.5'><ellipse fill-opacity=".5" rx="1" ry="1" transform="matrix(-47.26182 19.51133 -44.66127 -108.18191 92.2 674.6)"/><ellipse fill="#290000" fill-opacity=".5" rx="1" ry="1" transform="rotate(.5 -85306 29812) scale(101.66089 50.42352)"/><ellipse fill="#390000" fill-opacity=".5" rx="1" ry="1" transform="matrix(-154.63863 -94.69675 16.82891 -27.48141 436 346.4)"/><path fill="#220700" fill-opacity=".5" d="M377.3 54.6l-29.6 81.5L392 274.4l42.9-34.8z"/><ellipse fill="#faf4ef" fill-opacity=".5" rx="1" ry="1" transform="matrix(-29.81268 -226.4498 122.606 -16.14139 535.3 154.7)"/><ellipse fill="#feeeec" fill-opacity=".5" rx="1" ry="1" transform="matrix(-105.59294 -29.95942 113.10232 -398.63278 546.3 767.9)"/><path fill="#060000" fill-opacity=".5" d="M143.8 485l57-117 31.6 15.4-57 117z"/><ellipse fill="#f0ddd5" fill-opacity=".5" rx="1" ry="1" transform="matrix(140.55325 101.46377 -347.75806 481.73376 147.5 129.6)"/></g></svg>