<svg xmlns="http://www.w3.org/2000/svg" viewBox="0 0 600 900"><filter id="b"><feGaussianBlur stdDeviation="12" /></filter><path fill="#87755b" d="M0 0h597v900H0z"/><g filter="url(#b)" transform="translate(1.8 1.8) scale(3.51563)" fill-opacity=".5"><ellipse fill="#fff" cx="71" cy="247" rx="169" ry="19"/><ellipse fill="#fff695" rx="1" ry="1" transform="matrix(39.70848 -10.78856 17.4835 64.34997 105 114.8)"/><ellipse fill="#030601" rx="1" ry="1" transform="matrix(9.17337 -27.6993 134.83975 44.65582 0 180)"/><ellipse fill="#0d131c" rx="1" ry="1" transform="matrix(37.66995 28.58736 -102.16435 134.62335 5.4 53.5)"/><path d="M177.3 159.2l-13 45.2-33.6-9.6 13-45.2z"/><path fill="#24272c" d="M181 145L66-16 185-1z"/><path fill="#fff7ca" d="M118 147l59 5L90 21z"/><ellipse fill="#df9246" rx="1" ry="1" transform="matrix(-37.08576 7.06214 -14.98629 -78.69819 78.2 122.8)"/></g></svg>