<svg xmlns="http://www.w3.org/2000/svg" viewBox="0 0 820 547"><filter id="b"><feGaussianBlur stdDeviation="12" /></filter><path fill="#9c8356" d="M0 0h820v544H0z"/><g filter="url(#b)" transform="translate(1.6 1.6) scale(3.20313)" fill-opacity=".5"><ellipse fill="#ffd00d" cx="165" cy="86" rx="60" ry="60"/><ellipse fill="#fff24c" rx="1" ry="1" transform="matrix(30.34072 14.4631 -20.73528 43.4985 18.9 25)"/><ellipse fill="#25355d" cx="246" cy="91" rx="23" ry="255"/><ellipse fill="#213c63" rx="1" ry="1" transform="matrix(66.5149 -1.20895 .82392 45.33102 71.6 169)"/><ellipse fill="#dfeee0" rx="1" ry="1" transform="matrix(48.4357 -38.66572 6.55226 8.20787 33.6 124)"/><path fill="#333f54" d="M85 102l-101-6 163-85z"/><ellipse fill="#7290b9" rx="1" ry="1" transform="matrix(-53.33743 35.97655 -13.72121 -20.34253 104.8 11.2)"/><ellipse fill="#ffc96a" rx="1" ry="1" transform="matrix(3.11207 -26.62304 45.93616 5.36966 163 124)"/></g></svg>