<svg xmlns="http://www.w3.org/2000/svg" viewBox="0 0 600 900"><filter id="b"><feGaussianBlur stdDeviation="12" /></filter><path fill="#f2ede4" d="M0 0h597v900H0z"/><g filter="url(#b)" transform="translate(1.8 1.8) scale(3.51563)" fill-opacity=".5"><ellipse fill="#e5ae4c" cx="98" cy="126" rx="28" ry="32"/><ellipse fill="#484040" rx="1" ry="1" transform="matrix(-2.45304 16.2638 -11.49982 -1.7345 131.3 182.7)"/><path fill="#5c5964" d="M177 95l-39 55 18-55z"/><ellipse fill="#dac29b" rx="1" ry="1" transform="matrix(-74.54207 -19.97349 5.91079 -22.05937 21.6 142.6)"/><ellipse fill="#fff" rx="1" ry="1" transform="matrix(-163.7361 -17.53455 6.93233 -64.73349 103.2 25.3)"/><ellipse fill="#fff" rx="1" ry="1" transform="rotate(-76 194.1 47.6) scale(31.20859 124.85542)"/><path fill="#d7950a" d="M126.6 121.3l-5.8 4.8-29.6 18.5 24 14.4z"/><ellipse fill="#eedcd4" rx="1" ry="1" transform="rotate(31 -155.8 213) scale(29.09058 19.87966)"/></g></svg>