<svg xmlns="http://www.w3.org/2000/svg" viewBox="0 0 600 900"><filter id="b"><feGaussianBlur stdDeviation="12" /></filter><path fill="#c7bfbb" d="M0 0h597v900H0z"/><g filter="url(#b)" transform="translate(1.8 1.8) scale(3.51563)" fill-opacity=".5"><ellipse fill="#100000" rx="1" ry="1" transform="rotate(61.6 -62.8 131.9) scale(53.70699 45.75396)"/><ellipse fill="#fff" rx="1" ry="1" transform="matrix(168.9722 -3.06546 .73909 40.73953 82.2 34.9)"/><ellipse fill="#f2ffff" cx="2" cy="162" rx="63" ry="63"/><path fill="#300" d="M134 191l-75-61 42 64z"/><ellipse fill="#570f01" cx="74" cy="99" rx="41" ry="26"/><path fill="#110004" d="M112.3 163.4l-49 9.4-23.5-19 86.7-26.5z"/><ellipse fill="#fdfffe" rx="1" ry="1" transform="matrix(157.3264 -11.67926 1.49262 20.1065 85.5 244.7)"/><ellipse fill="#eae9ea" rx="1" ry="1" transform="matrix(128.7164 -32.20918 1.13614 4.5403 131.8 165.3)"/></g></svg>