<svg xmlns="http://www.w3.org/2000/svg" viewBox="0 0 600 900"><filter id="c"><feGaussianBlur stdDeviation="55" /></filter><path fill="#6f6052" d="M0 0h597v900H0z"/><g filter='url(#c)' fill-opacity='.5'><ellipse fill="#fff" fill-opacity=".5" rx="1" ry="1" transform="rotate(-92 295.3 133) scale(252.38774 140.03973)"/><ellipse fill-opacity=".5" rx="1" ry="1" transform="matrix(-106.18383 -129.27031 459.1124 -377.11917 456.4 787.8)"/><ellipse fill="#f9ffff" fill-opacity=".5" rx="1" ry="1" transform="matrix(-57.83163 24.1396 -84.82212 -203.20978 133 480.5)"/><ellipse fill="#452013" fill-opacity=".5" rx="1" ry="1" transform="matrix(593.96327 14.51615 -2.6966 110.33786 342.8 89.3)"/><ellipse fill="#c1cacc" fill-opacity=".5" rx="1" ry="1" transform="matrix(73.71901 162.85586 -112.04057 50.71675 112.2 592.1)"/><ellipse fill="#87855b" fill-opacity=".5" rx="1" ry="1" transform="matrix(70.60243 -7.34089 31.34741 301.48992 308.2 425)"/><ellipse fill-opacity=".5" rx="1" ry="1" transform="matrix(-279.25668 70.5799 -13.97537 -55.29498 396.7 769)"/><path fill="#f4ffff" fill-opacity=".5" d="M244.1 397.1L114.6 608.3-1.6 510.5l148-124.5z"/></g></svg>