<svg xmlns="http://www.w3.org/2000/svg" viewBox="0 0 600 900"><filter id="b"><feGaussianBlur stdDeviation="12" /></filter><path fill="#603829" d="M0 0h597v900H0z"/><g filter="url(#b)" transform="translate(1.8 1.8) scale(3.51563)" fill-opacity=".5"><ellipse rx="1" ry="1" transform="matrix(-164.1844 -40.05599 8.62806 -35.36533 112.5 190.4)"/><ellipse fill="#bd6743" cx="121" cy="41" rx="169" ry="49"/><ellipse fill="#e5a086" rx="1" ry="1" transform="matrix(-43.30955 38.75324 -11.35465 -12.68964 93.9 126.5)"/><ellipse rx="1" ry="1" transform="matrix(-28.4126 -2.6692 6.58858 -70.13281 161.8 154.7)"/><ellipse fill="#ffbf96" cx="122" cy="142" rx="10" ry="33"/><path fill="#e8f0e0" d="M-16 115l45 13-2-39z"/><ellipse fill="#2d1203" rx="1" ry="1" transform="rotate(55.4 -30.1 115) scale(23.00703 58.78831)"/><path fill="#fff" d="M82.6 130.4L94 107l13.4 6.6L96 137z"/></g></svg>