<svg xmlns="http://www.w3.org/2000/svg" viewBox="0 0 600 900"><filter id="b"><feGaussianBlur stdDeviation="12" /></filter><path fill="#857957" d="M0 0h597v900H0z"/><g filter="url(#b)" transform="translate(1.8 1.8) scale(3.51563)" fill-opacity=".5"><ellipse fill="#fff9a1" rx="1" ry="1" transform="matrix(64.064 -39.25847 27.61682 45.06656 110.5 114.5)"/><ellipse fill="#1a0900" cx="15" cy="90" rx="32" ry="154"/><ellipse fill="#00000a" rx="1" ry="1" transform="matrix(154.63638 47.01127 -7.39567 24.32692 122.1 9)"/><ellipse fill="#e4c986" rx="1" ry="1" transform="matrix(44.05942 36.78444 -17.75225 21.26317 74 171)"/><ellipse fill="#060000" rx="1" ry="1" transform="matrix(-2.30778 14.16387 -32.5416 -5.30214 144.7 168.6)"/><ellipse fill="#ffed90" rx="1" ry="1" transform="rotate(-152.5 50.6 26.6) scale(15.84985 52.73454)"/><ellipse rx="1" ry="1" transform="matrix(-13.8437 24.44078 -43.47883 -24.6272 7 180.9)"/><path fill="#c5d5db" d="M82 182h83v26H82z"/></g></svg>