<svg xmlns="http://www.w3.org/2000/svg" viewBox="0 0 600 900"><filter id="b"><feGaussianBlur stdDeviation="12" /></filter><path fill="#c9b18e" d="M0 0h597v900H0z"/><g filter="url(#b)" transform="translate(1.8 1.8) scale(3.51563)" fill-opacity=".5"><ellipse fill="#410700" rx="1" ry="1" transform="matrix(13.16835 -21.44312 35.78006 21.97276 114.1 105.1)"/><ellipse fill="#9a5913" rx="1" ry="1" transform="matrix(93.57247 20.53221 -5.30157 24.1611 57.7 190.3)"/><ellipse fill="#f4f2df" rx="1" ry="1" transform="rotate(-59.5 92.3 15) scale(90.44549 37.23112)"/><ellipse fill="#ddedf7" cx="53" cy="242" rx="169" ry="18"/><ellipse fill="#f99b2e" cx="72" cy="162" rx="55" ry="22"/><path fill="#fff6cc" d="M176 214l-4-82-85 26z"/><ellipse fill="#ffd478" rx="1" ry="1" transform="rotate(-138 104.8 20.4) scale(63.6711 22.04028)"/><ellipse fill="#221600" rx="1" ry="1" transform="matrix(4.32508 -6.53448 37.37554 24.73833 110.8 112.2)"/></g></svg>