<svg xmlns="http://www.w3.org/2000/svg" viewBox="0 0 600 600"><filter id="b"><feGaussianBlur stdDeviation="12" /></filter><path fill="#b5869f" d="M0 0h600v600H0z"/><g filter="url(#b)" transform="translate(1.2 1.2) scale(2.34375)" fill-opacity=".5"><ellipse fill="#330b08" rx="1" ry="1" transform="matrix(85.32516 -21.74911 18.61683 73.03675 132.6 141)"/><ellipse fill="#fffbff" rx="1" ry="1" transform="matrix(43.06488 13.3308 -75.40556 243.596 217.9 224.7)"/><ellipse fill="#fff" cx="7" cy="142" rx="48" ry="29"/><ellipse fill="#fff" rx="1" ry="1" transform="matrix(-3.08706 -18.33709 143.23638 -24.11394 58.8 255)"/><path fill="#fff" d="M170 23l101 60v100z"/><path fill="#410e0f" d="M13 105l87-38-11 89z"/><ellipse fill="#724758" rx="1" ry="1" transform="matrix(.19034 -48.63201 38.50081 .1507 185.6 144.3)"/><ellipse fill="#f189da" rx="1" ry="1" transform="matrix(1.16583 52.3871 -147.1905 3.2756 124 20.1)"/></g></svg>