<svg xmlns="http://www.w3.org/2000/svg" viewBox="0 0 700 394"><filter id="b"><feGaussianBlur stdDeviation="12" /></filter><path fill="#9f9888" d="M0 0h700v393H0z"/><g filter="url(#b)" transform="translate(1.4 1.4) scale(2.73438)" fill-opacity=".5"><ellipse rx="1" ry="1" transform="rotate(-124 29.8 -4.4) scale(44.86791 73.68241)"/><ellipse fill="#fff" rx="1" ry="1" transform="matrix(-84.66698 5.52011 -3.83733 -58.85659 50.9 134.2)"/><ellipse fill="#fff" rx="1" ry="1" transform="matrix(32.86694 -9.56038 12.13048 41.7025 234.2 116.7)"/><ellipse rx="1" ry="1" transform="matrix(21.08795 -7.8154 59.61749 160.86307 254 15.8)"/><ellipse fill="#000002" cx="36" cy="29" rx="64" ry="36"/><ellipse fill="#ffffef" rx="1" ry="1" transform="matrix(-17.09649 -7.7087 42.20323 -93.59909 103.7 78.7)"/><path d="M200 0h56v22h-56z"/><ellipse fill="#fff" cx="94" cy="142" rx="234" ry="10"/></g></svg>