<svg xmlns="http://www.w3.org/2000/svg" viewBox="0 0 600 900"><filter id="b"><feGaussianBlur stdDeviation="12" /></filter><path fill="#664a2f" d="M0 0h597v900H0z"/><g filter="url(#b)" transform="translate(1.8 1.8) scale(3.51563)" fill-opacity=".5"><ellipse fill="#ffca7c" rx="1" ry="1" transform="matrix(63.97368 -9.94517 7.26956 46.76246 126.8 134.4)"/><ellipse rx="1" ry="1" transform="matrix(-1.80146 -45.42583 168.86726 -6.69681 86.3 28.7)"/><ellipse fill="#cbac7f" cx="63" cy="241" rx="95" ry="26"/><ellipse fill="#140600" rx="1" ry="1" transform="rotate(-104.6 56 57.7) scale(58.34099 28.47893)"/><ellipse rx="1" ry="1" transform="matrix(.92373 -35.27583 168.94208 4.4239 98 22)"/><ellipse fill="#dbc3a8" rx="1" ry="1" transform="matrix(-50.40553 -1.496 .38996 -13.139 111.6 159.7)"/><ellipse fill="#bf6623" rx="1" ry="1" transform="rotate(-104.3 93.2 9.1) scale(29.45633 55.06388)"/><ellipse fill="#aa9178" rx="1" ry="1" transform="matrix(-10.72941 -5.49932 11.47763 -22.39335 138.6 196.8)"/></g></svg>