<svg xmlns="http://www.w3.org/2000/svg" viewBox="0 0 600 900"><filter id="b"><feGaussianBlur stdDeviation="12" /></filter><path fill="#aa875f" d="M0 0h597v900H0z"/><g filter="url(#b)" transform="translate(1.8 1.8) scale(3.51563)" fill-opacity=".5"><path fill="#200" d="M172 127L56 232l123-11z"/><ellipse fill="#ddfcff" cx="158" cy="85" rx="26" ry="52"/><ellipse fill="#e7b872" rx="1" ry="1" transform="matrix(-74.29698 50.3132 -60.5422 -89.40204 18 64.3)"/><ellipse fill="#571800" rx="1" ry="1" transform="matrix(-47.83738 -2.02912 .56245 -13.26006 36.3 176)"/><ellipse fill="#caf9ff" rx="1" ry="1" transform="matrix(.6716 -9.98281 48.89447 3.2894 59.5 4.4)"/><ellipse fill="#311f1b" rx="1" ry="1" transform="matrix(-1.28782 -13.37427 41.72067 -4.01732 25.6 226.8)"/><path fill="#5a2e19" d="M108.7-8.3l55.1-9.7 7.5 42.3-55.1 9.7z"/><path fill="#bec4c7" d="M126 178l-51 34-91-12z"/></g></svg>