<svg xmlns="http://www.w3.org/2000/svg" viewBox="0 0 1200 800"><filter id="c"><feGaussianBlur stdDeviation="55" /></filter><path fill="#bfb6b0" d="M0 0h1200v796H0z"/><g filter='url(#c)' fill-opacity='.5'><ellipse fill="#0d0000" fill-opacity=".5" rx="1" ry="1" transform="rotate(-99.9 274.5 136) scale(85.86097 239.2342)"/><ellipse fill="#1a0c00" fill-opacity=".5" rx="1" ry="1" transform="rotate(-51.1 1070 -976.7) scale(82.40502 332.88299)"/><ellipse fill="#fff" fill-opacity=".5" rx="1" ry="1" transform="rotate(-82.2 334.4 -380.7) scale(233.00452 460.37678)"/><ellipse fill="#431917" fill-opacity=".5" rx="1" ry="1" transform="rotate(-76.4 628.9 -268.4) scale(91.51839 206.86512)"/><path fill-opacity=".5" d="M219 400.5l-40.8 230.8-83-14.6 40.6-230.8z"/><ellipse fill="#f4f0ef" fill-opacity=".5" rx="1" ry="1" transform="matrix(-323.09157 -37.23496 21.12441 -183.2987 493.4 678)"/><path fill="#fff" fill-opacity=".5" d="M489.3 44.7l342-230.7 212.3 314.8-342 230.6z"/><ellipse fill-opacity=".5" rx="1" ry="1" transform="matrix(-4.1557 -140.0203 23.76119 -.70522 773.2 477.6)"/></g></svg>