<svg xmlns="http://www.w3.org/2000/svg" viewBox="0 0 600 900"><filter id="b"><feGaussianBlur stdDeviation="12" /></filter><path fill="#e3be9f" d="M0 0h597v900H0z"/><g filter="url(#b)" transform="translate(1.8 1.8) scale(3.51563)" fill-opacity=".5"><ellipse fill="#c15000" rx="1" ry="1" transform="matrix(6.23669 72.23407 -67.2958 5.81032 85.6 96.3)"/><ellipse fill="#f9ffff" rx="1" ry="1" transform="matrix(22.09361 50.31365 -154.73853 67.94843 121.8 217.6)"/><ellipse fill="#fff" cx="97" cy="7" rx="169" ry="11"/><ellipse fill="#f2faff" cx="2" cy="100" rx="16" ry="169"/><ellipse fill="#fff" rx="1" ry="1" transform="matrix(-7.78502 168.8206 -13.46786 -.62106 167.3 118.3)"/><ellipse fill="#b14700" rx="1" ry="1" transform="matrix(49.12916 8.3978 -3.9924 23.3565 83 142.2)"/><ellipse fill="#f8cf8a" rx="1" ry="1" transform="matrix(-16.12445 10.36485 -33.86958 -52.69039 75.3 76.3)"/><ellipse fill="#9a4522" rx="1" ry="1" transform="rotate(162.1 56 41) scale(33.0165 18.31298)"/></g></svg>