<svg xmlns="http://www.w3.org/2000/svg" viewBox="0 0 600 900"><filter id="b"><feGaussianBlur stdDeviation="12" /></filter><path fill="#c8b98a" d="M0 0h597v900H0z"/><g filter="url(#b)" transform="translate(1.8 1.8) scale(3.51563)" fill-opacity=".5"><ellipse fill="#181b00" cx="102" cy="121" rx="56" ry="56"/><ellipse fill="#fff" rx="1" ry="1" transform="matrix(-103.25252 -8.44093 5.36728 -65.65458 102.2 245)"/><ellipse fill="#fff" rx="1" ry="1" transform="rotate(45 -175 133) scale(169.00001 16.45715)"/><ellipse fill="#b3780e" rx="1" ry="1" transform="matrix(-42.08049 -25.74298 13.8188 -22.58876 113 67.2)"/><path fill="#ffedc2" d="M85 54L-6 191-4 2z"/><ellipse fill="#2e2f00" rx="1" ry="1" transform="matrix(34.53887 -29.69796 17.60858 20.47886 85.8 125.6)"/><ellipse fill="#6ea200" rx="1" ry="1" transform="rotate(-61.6 173 87.4) scale(10.42614 33.08049)"/><path fill="#fff287" d="M30 49l82 41-70-2z"/></g></svg>