<svg xmlns="http://www.w3.org/2000/svg" viewBox="0 0 600 900"><filter id="b"><feGaussianBlur stdDeviation="12" /></filter><path fill="#1e1c14" d="M0 0h597v900H0z"/><g filter="url(#b)" transform="translate(1.8 1.8) scale(3.51563)" fill-opacity=".5"><ellipse fill="#fff16e" cx="93" cy="161" rx="56" ry="27"/><ellipse fill="#ffe98b" rx="1" ry="1" transform="matrix(-32.38922 -11.14937 4.69103 -13.62758 115.6 154.9)"/><ellipse fill="#5e430c" rx="1" ry="1" transform="matrix(4.31278 -22.18734 31.47975 6.11904 55.2 164.2)"/><ellipse fill="#000001" rx="1" ry="1" transform="rotate(-69 79.5 -32.6) scale(73.90027 161.14339)"/><ellipse fill="#000003" rx="1" ry="1" transform="matrix(141.52013 21.15033 -2.93743 19.65478 40.3 203.7)"/><path fill="#4c5155" d="M151.7 155.1l49.4 16.1-14.8 45.7-49.4-16.1z"/><path fill="#e1ca6e" d="M78 129l43 14 6 45z"/><ellipse fill="#000005" rx="1" ry="1" transform="rotate(-11.4 624 -93.8) scale(69.076 24.18769)"/></g></svg>