<svg xmlns="http://www.w3.org/2000/svg" viewBox="0 0 600 900"><filter id="b"><feGaussianBlur stdDeviation="12" /></filter><path fill="#e2d1cc" d="M0 0h597v900H0z"/><g filter="url(#b)" transform="translate(1.8 1.8) scale(3.51563)" fill-opacity=".5"><ellipse fill="#ac5429" rx="1" ry="1" transform="rotate(138.3 16.4 78.5) scale(72.89891 48.54155)"/><ellipse fill="#fff" cx="32" cy="46" rx="54" ry="54"/><path fill="#281423" d="M79 134l77-7-51 34z"/><ellipse fill="#f0fdff" rx="1" ry="1" transform="matrix(146.04839 -85.03451 26.28328 45.14203 130.7 209.2)"/><ellipse fill="#fff" rx="1" ry="1" transform="matrix(27.63135 -37.22426 103.7004 76.9762 158.6 38.2)"/><ellipse fill="#ab3805" cx="102" cy="76" rx="25" ry="14"/><ellipse fill="#f7a472" rx="1" ry="1" transform="matrix(30.28467 13.28504 -10.5986 24.16066 50.6 168)"/><ellipse fill="#f9ffff" rx="1" ry="1" transform="matrix(-10.69038 -118.35796 20.19295 -1.82388 0 182)"/></g></svg>