<svg xmlns="http://www.w3.org/2000/svg" viewBox="0 0 600 900"><filter id="c"><feGaussianBlur stdDeviation="55" /></filter><path fill="#e0c5b4" d="M0 0h597v900H0z"/><g filter='url(#c)' fill-opacity='.5'><ellipse fill="#710c00" fill-opacity=".5" rx="1" ry="1" transform="matrix(-129.3807 -68.44443 36.06294 -68.16989 24.6 406.3)"/><ellipse fill="#b75c29" fill-opacity=".5" rx="1" ry="1" transform="rotate(99 172.6 345.4) scale(101.71037 229.58669)"/><ellipse fill="#fff" fill-opacity=".5" rx="1" ry="1" transform="matrix(-156.71469 -82.58265 186.76294 -354.4146 517.1 670.7)"/><ellipse fill="#bb7a46" fill-opacity=".5" rx="1" ry="1" transform="rotate(-88.1 391.3 376.9) scale(90.01244 256.31325)"/><ellipse fill="#f9ffff" fill-opacity=".5" rx="1" ry="1" transform="rotate(8.6 127.2 1843.5) scale(144.36964 223.08602)"/><path fill="#470700" fill-opacity=".5" d="M-33.4 293.6l235.5 137-256.6-49.2z"/><ellipse fill="#e29c6d" fill-opacity=".5" rx="1" ry="1" transform="matrix(323.64325 -63.07693 11.6278 59.66144 81.3 514.2)"/><ellipse fill="#fffae6" fill-opacity=".5" rx="1" ry="1" transform="matrix(-32.05516 61.195 -157.36119 -82.42893 402.7 372.2)"/></g></svg>