<svg xmlns="http://www.w3.org/2000/svg" viewBox="0 0 640 360"><filter id="b"><feGaussianBlur stdDeviation="12" /></filter><path fill="#8d7d63" d="M0 0h640v360H0z"/><g filter="url(#b)" transform="matrix(2.5 0 0 2.5 1.3 1.3)" fill-opacity=".5"><ellipse fill="#fff" rx="1" ry="1" transform="rotate(38.2 -.7 344.5) scale(61.21341 111.04405)"/><ellipse rx="1" ry="1" transform="matrix(-14.30426 -51.15267 118.18915 -33.05024 57 38.5)"/><ellipse cx="15" cy="86" rx="32" ry="255"/><ellipse fill="#ff8" cx="73" cy="100" rx="49" ry="24"/><ellipse fill="#fffffc" rx="1" ry="1" transform="rotate(-115.8 123.7 -47.2) scale(103.34347 32.60389)"/><ellipse fill="#090000" rx="1" ry="1" transform="rotate(-8.1 318.7 -521.3) scale(85.10615 40.57742)"/><ellipse fill="#854400" rx="1" ry="1" transform="matrix(7.84894 -11.3353 30.8884 21.38814 207.4 112.1)"/><ellipse rx="1" ry="1" transform="matrix(14.19425 -24.55737 81.52503 47.12177 19.3 136.1)"/></g></svg>