<svg xmlns="http://www.w3.org/2000/svg" viewBox="0 0 600 900"><filter id="c"><feGaussianBlur stdDeviation="55" /></filter><path fill="#edd9c6" d="M0 0h597v900H0z"/><g filter='url(#c)' fill-opacity='.5'><ellipse fill="#df963b" fill-opacity=".5" rx="1" ry="1" transform="rotate(-76.3 441.4 70) scale(328.93025 176.07845)"/><path fill="#02001a" fill-opacity=".5" d="M61.5 722.5h460.6v45.7H61.5z"/><ellipse fill="#fff" fill-opacity=".5" rx="1" ry="1" transform="matrix(20.84892 -153.7497 588.75224 79.83656 345.8 100.8)"/><ellipse fill="#fff" fill-opacity=".5" rx="1" ry="1" transform="rotate(-5.1 4489.5 -5974.5) scale(87.90692 594.1406)"/><ellipse fill="#f8ffff" fill-opacity=".5" rx="1" ry="1" transform="matrix(-1.54104 81.48387 -576.58796 -10.90457 94.8 847.3)"/><ellipse fill="#fff" fill-opacity=".5" rx="1" ry="1" transform="rotate(-85 209.7 164.4) scale(594.14063 67.63399)"/><ellipse fill="#780f00" fill-opacity=".5" rx="1" ry="1" transform="matrix(-.55048 16.63885 -88.8316 -2.9389 367 285.6)"/><ellipse fill="#e6a459" fill-opacity=".5" rx="1" ry="1" transform="matrix(-83.49028 29.47423 -19.86592 -56.27327 217.1 217.7)"/></g></svg>