<svg xmlns="http://www.w3.org/2000/svg" viewBox="0 0 600 900"><filter id="b"><feGaussianBlur stdDeviation="12" /></filter><path fill="#caa37a" d="M0 0h597v900H0z"/><g filter="url(#b)" transform="translate(1.8 1.8) scale(3.51563)" fill-opacity=".5"><ellipse fill="#93562f" rx="1" ry="1" transform="matrix(20.64218 63.6601 -77.38788 25.09349 126.1 183.2)"/><ellipse fill="#f2f1d7" rx="1" ry="1" transform="matrix(-30.18054 -49.12213 86.28308 -53.01215 41.4 37)"/><ellipse fill="#ddddca" rx="1" ry="1" transform="matrix(-63.92741 -41.67376 14.19326 -21.77242 28.4 236.8)"/><ellipse fill="#e6ba88" rx="1" ry="1" transform="matrix(-6.08832 16.02527 -65.49569 -24.88314 114.8 214.8)"/><path fill="#602d1c" d="M126 184l-51-4 73-68z"/><path fill="#202133" d="M145.8 251.3L64 233.7l1.5-23.4 70.8 60.7z"/><ellipse fill="#fdc564" cx="73" cy="107" rx="46" ry="36"/><path fill="#892000" d="M33.8 137.4l7-23 13.4 4.2-7 23z"/></g></svg>