<svg xmlns="http://www.w3.org/2000/svg" viewBox="0 0 600 900"><filter id="c"><feGaussianBlur stdDeviation="55" /></filter><path fill="#b4afbb" d="M0 0h597v900H0z"/><g filter='url(#c)' fill-opacity='.5'><ellipse fill="#ff7300" fill-opacity=".5" rx="1" ry="1" transform="matrix(60.71713 -118.07103 163.71375 84.18855 88.8 865.2)"/><ellipse fill="#ffc" fill-opacity=".5" rx="1" ry="1" transform="matrix(-17.34182 219.96946 -592.3028 -46.69562 250.4 102.2)"/><ellipse fill="#ff9807" fill-opacity=".5" rx="1" ry="1" transform="rotate(-164.9 150.1 114.3) scale(175.3238 110.00085)"/><ellipse fill="#5276df" fill-opacity=".5" rx="1" ry="1" transform="rotate(-87 421.2 142) scale(191.7191 405.20793)"/><ellipse fill="#eef9ff" fill-opacity=".5" rx="1" ry="1" transform="rotate(84.8 103 193.6) scale(90.96003 548.59622)"/><ellipse fill="#f80" fill-opacity=".5" rx="1" ry="1" transform="matrix(187.65274 35.79667 -20.79782 109.026 51.4 850.7)"/><ellipse fill="#dbf0ff" fill-opacity=".5" rx="1" ry="1" transform="matrix(-82.46715 -21.48108 62.82203 -241.17748 33.6 201.3)"/><ellipse fill="#a1b7f9" fill-opacity=".5" rx="1" ry="1" transform="rotate(40.6 -300.6 930.5) scale(85.96782 286.93343)"/></g></svg>