<svg xmlns="http://www.w3.org/2000/svg" viewBox="0 0 820 547"><filter id="b"><feGaussianBlur stdDeviation="12" /></filter><path fill="#d5cfd7" d="M0 0h820v544H0z"/><g filter="url(#b)" transform="translate(1.6 1.6) scale(3.20313)" fill-opacity=".5"><ellipse fill="#d20000" cx="106" cy="84" rx="23" ry="29"/><ellipse fill="#71717d" rx="1" ry="1" transform="matrix(-16.98487 -70.58636 37.08958 -8.9247 233.3 87.9)"/><ellipse fill="#fdffff" rx="1" ry="1" transform="matrix(50.06344 26.6192 -43.39436 81.61292 35 37.3)"/><path fill="#94002e" d="M104 94.4l-82.5 38.5-3.4-7.3 82.4-38.5z"/><ellipse fill="#fff" rx="1" ry="1" transform="matrix(105.29364 -32.59383 7.0572 22.79815 88 141)"/><ellipse fill="#fff" rx="1" ry="1" transform="matrix(27.01128 29.16953 -17.61343 16.31021 160 69.6)"/><path fill="#c2000d" d="M95 52l15 57 31-21z"/><path fill="#c82a35" d="M237.2 42.7l-31.4 6.1-5-25.5 31.4-6.1z"/></g></svg>