<svg xmlns="http://www.w3.org/2000/svg" viewBox="0 0 650 975"><filter id="b"><feGaussianBlur stdDeviation="12" /></filter><path fill="#c29a92" d="M0 0h647v975H0z"/><g filter="url(#b)" transform="translate(1.9 1.9) scale(3.8086)" fill-opacity=".5"><ellipse fill="#e9ffff" rx="1" ry="1" transform="matrix(-38.52277 -1.95148 2.40181 -47.4125 78 104)"/><ellipse fill="azure" rx="1" ry="1" transform="rotate(103.6 -59 140) scale(29.14189 71.06946)"/><ellipse fill="#c30600" cx="20" cy="174" rx="96" ry="23"/><path fill="#a41b13" d="M33.5 15.7l9.9 141.7-70.9 4.9-9.9-141.7z"/><ellipse fill="#320000" rx="1" ry="1" transform="rotate(-90.1 171 42.2) scale(14.20263 23.89333)"/><ellipse fill="#700e00" rx="1" ry="1" transform="matrix(14.98068 4.49442 -7.88864 26.29422 126.5 123.2)"/><ellipse fill="#fff" rx="1" ry="1" transform="matrix(1.407 11.79944 -30.12769 3.5925 79.4 204.8)"/><ellipse fill="#ff5b4d" cx="62" cy="41" rx="46" ry="20"/></g></svg>