<svg xmlns="http://www.w3.org/2000/svg" viewBox="0 0 600 934"><filter id="c"><feGaussianBlur stdDeviation="55" /></filter><path fill="#d5c59d" d="M0 0h598v934H0z"/><g filter='url(#c)' fill-opacity='.5'><ellipse fill="#726961" fill-opacity=".5" rx="1" ry="1" transform="rotate(13.9 -3650.8 1778.7) scale(594.69539 123.85302)"/><ellipse fill="#f5f5e7" fill-opacity=".5" rx="1" ry="1" transform="matrix(-137.88236 252.34105 -177.71025 -97.10314 389.3 92.6)"/><ellipse fill="#cf4600" fill-opacity=".5" rx="1" ry="1" transform="matrix(-79.24572 -46.69666 23.45698 -39.80724 424.7 731.8)"/><path fill="#e9b306" fill-opacity=".5" d="M204.7 686.9l-71.9-92 169.6-132.5 72 92z"/><ellipse fill="#fff" fill-opacity=".5" rx="1" ry="1" transform="rotate(90.8 17.8 464.6) scale(56.30745 165.0188)"/><ellipse fill="#e3bc1a" fill-opacity=".5" rx="1" ry="1" transform="matrix(-123.50662 135.257 -49.04482 -44.78408 596.5 259.7)"/><ellipse fill="#a5abb2" fill-opacity=".5" rx="1" ry="1" transform="rotate(139.9 52.4 58.3) scale(262.69525 133.02583)"/><ellipse fill="#e7f8ff" fill-opacity=".5" rx="1" ry="1" transform="matrix(10.26443 -22.94642 181.71338 81.28432 359.2 786.1)"/></g></svg>