<svg xmlns="http://www.w3.org/2000/svg" viewBox="0 0 600 900"><filter id="c"><feGaussianBlur stdDeviation="55" /></filter><path fill="#c6c3bc" d="M0 0h597v900H0z"/><g filter='url(#c)' fill-opacity='.5'><ellipse fill="#c86000" fill-opacity=".5" rx="1" ry="1" transform="matrix(159.87171 23.20035 -12.23225 84.2914 385.8 513.5)"/><ellipse fill="#f3f8ff" fill-opacity=".5" rx="1" ry="1" transform="matrix(391.19078 150.67014 -79.78728 207.15484 332 103.7)"/><ellipse fill="#4d6273" fill-opacity=".5" rx="1" ry="1" transform="matrix(196.16857 201.0214 -30.35465 29.62187 192.7 670.6)"/><ellipse fill="#0b7600" fill-opacity=".5" rx="1" ry="1" transform="matrix(-24.94478 33.46599 -53.0992 -39.57893 82.2 268.2)"/><ellipse fill="#62706d" fill-opacity=".5" rx="1" ry="1" transform="matrix(214.96034 -76.70694 20.87747 58.50617 551.9 747)"/><path fill="#e17601" fill-opacity=".5" d="M436.2 706.5L435 332.8l85 58.5L327.6 667z"/><ellipse fill="#f2fdff" fill-opacity=".5" rx="1" ry="1" transform="matrix(54.22402 -47.86111 90.1893 102.17955 98.3 408.8)"/><path fill="#dd8300" fill-opacity=".5" d="M286.3 547.3l293.4-65.8-19.5 63-263.6 37.4z"/></g></svg>