<svg xmlns="http://www.w3.org/2000/svg" viewBox="0 0 600 900"><filter id="b"><feGaussianBlur stdDeviation="12" /></filter><path fill="#eae6e3" d="M0 0h597v900H0z"/><g filter="url(#b)" transform="translate(1.8 1.8) scale(3.51563)" fill-opacity=".5"><ellipse fill="#5f2300" rx="1" ry="1" transform="matrix(-3.41895 -23.74545 30.68011 -4.41743 105.4 205)"/><ellipse fill="#a97e52" rx="1" ry="1" transform="matrix(48.27576 -11.4119 4.67537 19.7782 39 93)"/><ellipse fill="#fff" cx="151" cy="66" rx="80" ry="80"/><path fill="#5b0a00" d="M99.8 167.3L91.2 146l13-5.3 8.6 21.3z"/><ellipse fill="#fff" cx="126" cy="15" rx="142" ry="56"/><path fill="#9a6622" d="M68 183h66v11H68z"/><path fill="#a68970" d="M89.9 98.2L47.3 114 39 64.2 68.8 67z"/><ellipse fill="#f9ffff" rx="1" ry="1" transform="matrix(48.38464 -23.84588 16.44686 33.37161 44.8 147)"/></g></svg>