<svg xmlns="http://www.w3.org/2000/svg" viewBox="0 0 600 900"><filter id="c"><feGaussianBlur stdDeviation="55" /></filter><path fill="#c4c3b2" d="M0 0h597v900H0z"/><g filter='url(#c)' fill-opacity='.5'><ellipse fill="#4a9ea7" fill-opacity=".5" rx="1" ry="1" transform="rotate(39.7 -732.7 286.1) scale(492.32988 133.18323)"/><ellipse fill="#c24f35" fill-opacity=".5" rx="1" ry="1" transform="rotate(71.4 -242.5 397.3) scale(124.47262 67.83127)"/><path fill="#6c0f15" fill-opacity=".5" d="M212.7 233.8h116v95h-116z"/><ellipse fill="#c5f3ea" fill-opacity=".5" rx="1" ry="1" transform="matrix(-348.37187 -112.96435 27.86835 -85.94349 337 716)"/><path fill="#00acb4" fill-opacity=".5" d="M308.4 655.6l171.7 12.7 11-7.7-72.5-77.3z"/><ellipse fill="#004f70" fill-opacity=".5" rx="1" ry="1" transform="matrix(7.59059 -18.30318 266.04895 110.3343 137.5 749.6)"/><ellipse fill="#fff5e3" fill-opacity=".5" rx="1" ry="1" transform="matrix(-60.98254 -2.023 19.65361 -592.45073 554.5 571.2)"/><ellipse fill="#00a5ae" fill-opacity=".5" rx="1" ry="1" transform="matrix(-16.8594 91.71052 -23.52735 -4.3251 470.6 480)"/></g></svg>