<svg xmlns="http://www.w3.org/2000/svg" viewBox="0 0 600 900"><filter id="c"><feGaussianBlur stdDeviation="55" /></filter><path fill="#d1c4b2" d="M0 0h597v900H0z"/><g filter='url(#c)' fill-opacity='.5'><ellipse fill="#664017" fill-opacity=".5" rx="1" ry="1" transform="matrix(-263.83023 -59.45671 33.58096 -149.01048 319.6 712)"/><ellipse fill="#fff" fill-opacity=".5" rx="1" ry="1" transform="matrix(143.08083 205.26217 -487.41036 339.75613 151.8 222.7)"/><ellipse fill="#120000" fill-opacity=".5" rx="1" ry="1" transform="matrix(1.8308 34.93366 -88.69988 4.64856 532.8 385.7)"/><path fill="#2f3440" fill-opacity=".5" d="M381.4 835l182.9-179.3-618.8 119.5z"/><path fill="#ffffb9" fill-opacity=".5" d="M1.8 634.6h439.4v56.2H1.8z"/><ellipse fill="#1b2738" fill-opacity=".5" rx="1" ry="1" transform="matrix(-120.86389 -10.7656 3.10325 -34.83968 539.8 827.8)"/><ellipse fill="#d59f44" fill-opacity=".5" rx="1" ry="1" transform="rotate(-105.4 139.6 59) scale(61.83104 95.68973)"/><ellipse fill="#b85400" fill-opacity=".5" rx="1" ry="1" transform="rotate(4.4 -7564.6 3260.2) scale(122.39276 59.13928)"/></g></svg>