<svg xmlns="http://www.w3.org/2000/svg" viewBox="0 0 600 900"><filter id="b"><feGaussianBlur stdDeviation="12" /></filter><path fill="#ddd4ca" d="M0 0h597v900H0z"/><g filter="url(#b)" transform="translate(1.8 1.8) scale(3.51563)" fill-opacity=".5"><ellipse fill="#573a27" rx="1" ry="1" transform="matrix(.35152 -33.56653 125.01422 1.3092 124.8 197.1)"/><ellipse fill="#fff" rx="1" ry="1" transform="rotate(3.6 -766.6 1704) scale(169 57.55159)"/><ellipse fill="#1d0500" rx="1" ry="1" transform="matrix(-49.98134 -15.77963 2.13682 -6.7683 110.2 223)"/><ellipse fill="#fff" rx="1" ry="1" transform="matrix(13.9781 -12.8689 18.0141 19.56676 26.6 175.4)"/><ellipse fill="#c57a0f" cx="87" cy="119" rx="17" ry="16"/><path fill="#050000" d="M-5.2 192.9l16.1-.3 91.7 28L-5.7 205z"/><ellipse fill="#fff" rx="1" ry="1" transform="matrix(126.331 29.51631 -4.9938 21.37367 63.9 243.9)"/><ellipse fill="#fdf6eb" rx="1" ry="1" transform="matrix(4.37672 15.14458 -35.28231 10.19644 166.4 208)"/></g></svg>