<svg xmlns="http://www.w3.org/2000/svg" viewBox="0 0 600 900"><filter id="c"><feGaussianBlur stdDeviation="55" /></filter><path fill="#181418" d="M0 0h597v900H0z"/><g filter='url(#c)' fill-opacity='.5'><ellipse fill="#eba777" fill-opacity=".5" rx="1" ry="1" transform="rotate(73.3 -151 349.7) scale(41.19086 74.44193)"/><ellipse fill="#30323d" fill-opacity=".5" rx="1" ry="1" transform="matrix(264.67318 181.90484 -113.98747 165.8528 1.6 670.9)"/><path fill-opacity=".5" d="M-43.6 36l165.3-298.2L764.3 94 599 392.3z"/><ellipse fill="#70463f" fill-opacity=".5" rx="1" ry="1" transform="matrix(9.19757 38.45326 -94.48431 22.59954 232.9 327.8)"/><ellipse fill="#110300" fill-opacity=".5" rx="1" ry="1" transform="matrix(-55.41573 -49.54738 122.30538 -136.79112 303.4 467.7)"/><ellipse fill="#090200" fill-opacity=".5" rx="1" ry="1" transform="matrix(219.26752 231.05975 -54.26561 51.49614 394.8 699.6)"/><path fill="#845539" fill-opacity=".5" d="M154.3 635.4l109 106.7 55.1-102.6-25.3 48.3z"/><path fill="#fcc991" fill-opacity=".5" d="M227 451.8l2.9-86.1-63 1.2 84.8 23.5z"/></g></svg>