<svg xmlns="http://www.w3.org/2000/svg" viewBox="0 0 600 900"><filter id="b"><feGaussianBlur stdDeviation="12" /></filter><path fill="#e8dad5" d="M0 0h597v900H0z"/><g filter="url(#b)" transform="translate(1.8 1.8) scale(3.51563)" fill-opacity=".5"><ellipse fill="#c15d0c" cx="77" cy="155" rx="47" ry="44"/><ellipse fill="#8f7287" cx="102" cy="208" rx="75" ry="16"/><ellipse fill="#fff" cx="85" cy="58" rx="169" ry="57"/><path fill="#f7ffff" d="M118.6 177.6l-3.5 33.8-47.7-5 3.5-33.8z"/><path fill="#ad510b" d="M118.6 179.8l-5.6-26.4 24.4-5.2 5.6 26.4z"/><path fill="#fcffff" d="M-7.1 198.4L52.3 177l-1.4-7.3-66.9-55.2z"/><path fill="#8c4921" d="M83.2 203.8l-53.7-53.6 67.7 11.5-70.1 26.7z"/><ellipse fill="#fbffff" rx="1" ry="1" transform="matrix(58.49307 45.93035 -18.61251 23.70335 150.3 123.5)"/></g></svg>