<svg xmlns="http://www.w3.org/2000/svg" viewBox="0 0 600 900"><filter id="b"><feGaussianBlur stdDeviation="12" /></filter><path fill="#d9dfd2" d="M0 0h597v900H0z"/><g filter="url(#b)" transform="translate(1.8 1.8) scale(3.51563)" fill-opacity=".5"><ellipse fill="#041000" rx="1" ry="1" transform="matrix(-6.0976 -9.64546 34.78706 -21.99146 138.1 179.5)"/><ellipse fill="#a5b130" cx="83" cy="100" rx="41" ry="50"/><ellipse fill="#002577" rx="1" ry="1" transform="rotate(80.2 -102.6 179.3) scale(6.35599 88.08764)"/><ellipse fill="#fff" rx="1" ry="1" transform="matrix(67.10575 29.79636 -13.5139 30.43529 40.3 201.3)"/><ellipse fill="#fff" rx="1" ry="1" transform="matrix(38.09485 -12.3043 39.6056 122.6213 127.7 0)"/><path fill="#fff" d="M.9 157.3l-5.7-163 48-1.6 5.6 163z"/><ellipse fill="#c3ca65" rx="1" ry="1" transform="rotate(-38.3 326.7 -70.9) scale(22.33557 14.81192)"/><path fill="#000008" d="M185 147.6l-15 21-32.3 16.2-9.4-15z"/></g></svg>