<svg xmlns="http://www.w3.org/2000/svg" viewBox="0 0 966 1449"><filter id="b"><feGaussianBlur stdDeviation="12" /></filter><path fill="#b9a595" d="M0 0h962v1449H0z"/><g filter="url(#b)" transform="translate(2.8 2.8) scale(5.66016)" fill-opacity=".5"><ellipse fill="#fff" cx="78" rx="94" ry="94"/><ellipse fill="#9f2400" rx="1" ry="1" transform="rotate(26.6 -403.5 140.6) scale(71.91702 50.44591)"/><ellipse rx="1" ry="1" transform="rotate(171.3 66.7 79.5) scale(24.63146 39.16582)"/><ellipse fill="#57675a" rx="1" ry="1" transform="rotate(81 -56.7 78.9) scale(41.02842 79.38691)"/><ellipse fill="#dee8f0" rx="1" ry="1" transform="matrix(-27.7253 -43.50986 32.28157 -20.57042 123 230)"/><ellipse fill="#fff" rx="1" ry="1" transform="matrix(-11.14627 -46.4885 108.6863 -26.05906 67.8 16.7)"/><path fill="#39230d" d="M85 138l100 6-58 33z"/><ellipse fill="#350f00" rx="1" ry="1" transform="matrix(52.04155 -15.50904 3.2322 10.84587 0 161.2)"/></g></svg>