<svg xmlns="http://www.w3.org/2000/svg" viewBox="0 0 820 547"><filter id="b"><feGaussianBlur stdDeviation="12" /></filter><path fill="#e8d8c9" d="M0 0h820v544H0z"/><g filter="url(#b)" transform="translate(1.6 1.6) scale(3.20313)" fill-opacity=".5"><ellipse fill="#a94d06" rx="1" ry="1" transform="matrix(27.69807 33.11054 -43.97044 36.78273 86 101)"/><path fill="#4c0100" d="M93.1 130.7l-64.7-17.3L35 89.3l64.7 17.3z"/><ellipse fill="#fff" rx="1" ry="1" transform="matrix(15.42872 -50.76465 40.04687 12.1713 166.4 131.4)"/><ellipse fill="#fff2e2" cx="87" cy="38" rx="59" ry="59"/><ellipse fill="#664632" rx="1" ry="1" transform="matrix(58.18448 10.96567 -1.08008 5.73096 234.6 86.8)"/><path fill="#fff" d="M-8 199.5v-211h40v211z"/><ellipse fill="#f7fdff" rx="1" ry="1" transform="rotate(98.1 57.3 68.4) scale(32.52049 113.34736)"/><ellipse fill="#e7aa70" cx="83" cy="71" rx="52" ry="26"/></g></svg>