<svg xmlns="http://www.w3.org/2000/svg" viewBox="0 0 600 900"><filter id="b"><feGaussianBlur stdDeviation="12" /></filter><path fill="#eae3cd" d="M0 0h597v900H0z"/><g filter="url(#b)" transform="translate(1.8 1.8) scale(3.51563)" fill-opacity=".5"><ellipse fill="#d7a749" rx="1" ry="1" transform="rotate(93.1 -29.8 128) scale(96.58823 37.02495)"/><ellipse fill="#f8ffff" rx="1" ry="1" transform="matrix(33.00518 -.0952 .48747 168.9993 19.7 124.4)"/><ellipse fill="#fff" rx="1" ry="1" transform="matrix(26.86153 -.0394 .12126 82.6869 163.7 152.6)"/><ellipse fill="#fade56" cx="89" cy="106" rx="53" ry="26"/><ellipse fill="#f7feff" cx="103" cy="25" rx="162" ry="51"/><ellipse fill="#b0afc1" rx="1" ry="1" transform="rotate(96.4 -53.1 180.1) scale(43.6929 56.73759)"/><path fill="#faffff" d="M121.6 197.8L155 80l27.2 131.3-92.5 10.2z"/><path fill="#8fcb00" d="M83 72l40 18-9 10z"/></g></svg>