<svg xmlns="http://www.w3.org/2000/svg" viewBox="0 0 600 900"><filter id="b"><feGaussianBlur stdDeviation="12" /></filter><path fill="#c6bfb3" d="M0 0h597v900H0z"/><g filter="url(#b)" transform="translate(1.8 1.8) scale(3.51563)" fill-opacity=".5"><ellipse fill="#161a13" rx="1" ry="1" transform="matrix(-155.79487 65.49013 -17.8385 -42.43613 131.8 255)"/><ellipse rx="1" ry="1" transform="rotate(89.8 -81.9 173.7) scale(8.116 128.19024)"/><ellipse fill="#fffff2" rx="1" ry="1" transform="matrix(17.45447 -51.12604 84.14097 28.7258 29.8 183.8)"/><ellipse fill="#cd7200" rx="1" ry="1" transform="matrix(33.4032 -5.38519 2.15274 13.353 123.2 171.8)"/><ellipse fill="#ffeee7" cx="121" cy="129" rx="66" ry="31"/><ellipse fill="#e08c2b" cx="30" cy="87" rx="18" ry="36"/><path fill="#9a0000" d="M122.6 136.7l-3 12.7-26.2-6.1 3-12.7z"/><path fill="#fff" d="M183 237l1-24-66 24z"/></g></svg>