<svg xmlns="http://www.w3.org/2000/svg" viewBox="0 0 600 900"><filter id="b"><feGaussianBlur stdDeviation="12" /></filter><path fill="#e0d6cb" d="M0 0h597v900H0z"/><g filter="url(#b)" transform="translate(1.8 1.8) scale(3.51563)" fill-opacity=".5"><ellipse fill="#460e00" rx="1" ry="1" transform="matrix(-25.88466 27.46813 -46.619 -43.93153 74 169.6)"/><ellipse fill="#310700" rx="1" ry="1" transform="matrix(10.44684 12.88293 -32.25941 26.15935 84.9 157.4)"/><ellipse fill="#fff" rx="1" ry="1" transform="matrix(-31.14281 27.239 -14.7978 -16.91858 131.2 169)"/><ellipse fill="#fff" cx="85" cy="37" rx="167" ry="94"/><path fill="#c08c60" d="M77.8 116l33.2 5.3L68.7 80 3 146.7z"/><ellipse fill="#f9ffff" rx="1" ry="1" transform="matrix(23.91875 -40.2164 60.74138 36.12601 30.5 231.8)"/><path fill="#5c340d" d="M105.5 125l6 33.5-71 12.5-6-33.5z"/><ellipse fill="#fffffa" cx="148" cy="131" rx="33" ry="156"/></g></svg>