<svg xmlns="http://www.w3.org/2000/svg" viewBox="0 0 600 900"><filter id="b"><feGaussianBlur stdDeviation="12" /></filter><path fill="#e8dec3" d="M0 0h597v900H0z"/><g filter="url(#b)" transform="translate(1.8 1.8) scale(3.51563)" fill-opacity=".5"><ellipse fill="#c7a452" rx="1" ry="1" transform="matrix(-25.56003 67.08874 -62.74408 -23.90477 84 174.6)"/><ellipse fill="#fff" rx="1" ry="1" transform="rotate(-165.5 58.6 12.5) scale(169 57.75242)"/><path fill="#bdb747" d="M130 232l-96-99 151 78z"/><ellipse fill="#fff" rx="1" ry="1" transform="matrix(9.36441 43.75607 -165.2578 35.36749 44.5 38.1)"/><path fill="#ebfef7" d="M18 169l73 30-107-86z"/><ellipse fill="#f9e1e0" cx="130" cy="121" rx="51" ry="28"/><path fill="#8f831e" d="M57.7 187.6L47 206.8l-36.7-20.4L21 167.2z"/><ellipse fill="#df8e63" rx="1" ry="1" transform="matrix(-5.46603 -53.81208 16.04289 -1.62958 61 125.7)"/></g></svg>