<svg xmlns="http://www.w3.org/2000/svg" viewBox="0 0 1024 1536"><filter id="b"><feGaussianBlur stdDeviation="12" /></filter><path fill="#92928c" d="M0 0h1020v1536H0z"/><g filter="url(#b)" transform="matrix(6 0 0 6 3 3)" fill-opacity=".5"><ellipse fill="#0049e3" rx="1" ry="1" transform="rotate(-14.2 282.7 -522.7) scale(49.58949 79.78331)"/><ellipse cx="13" cy="31" rx="28" ry="69"/><ellipse fill="#ffefa1" rx="1" ry="1" transform="matrix(3.96928 -59.76045 125.99446 8.36854 83 181.1)"/><ellipse fill="#ff992a" rx="1" ry="1" transform="matrix(65.7947 4.88161 -2.6642 35.90814 78 180.4)"/><ellipse rx="1" ry="1" transform="matrix(2.70469 -13.91442 51.90956 10.0902 47 .9)"/><ellipse fill="#fffff1" rx="1" ry="1" transform="matrix(-8.94678 32.41499 -18.8276 -5.19656 60.7 49.2)"/><ellipse fill="#481d08" rx="1" ry="1" transform="rotate(-138.2 62 29.1) scale(27.20289 24.1125)"/><ellipse fill="#0073c9" cx="150" cy="51" rx="64" ry="64"/></g></svg>