<svg xmlns="http://www.w3.org/2000/svg" viewBox="0 0 600 900"><filter id="b"><feGaussianBlur stdDeviation="12" /></filter><path fill="#46464b" d="M0 0h597v900H0z"/><g filter="url(#b)" transform="translate(1.8 1.8) scale(3.51563)" fill-opacity=".5"><ellipse fill="#ffffe9" cx="98" cy="97" rx="66" ry="43"/><ellipse rx="1" ry="1" transform="rotate(48.7 -177 250.3) scale(61.30591 168.99999)"/><ellipse fill="#83859f" rx="1" ry="1" transform="rotate(1.9 -5013.2 696) scale(59.12606 55.01006)"/><ellipse fill="#000003" rx="1" ry="1" transform="matrix(9.52292 -33.43047 87.8073 25.01257 149.5 30)"/><ellipse rx="1" ry="1" transform="matrix(-144.67677 82.95907 -21.12715 -36.84477 102.5 230)"/><ellipse fill="#f3f3d8" rx="1" ry="1" transform="matrix(-24.91016 26.89157 -14.69403 -13.61135 66.3 106)"/><ellipse fill="#72747c" rx="1" ry="1" transform="matrix(2.97167 -10.64332 30.80464 8.6008 74.9 193.6)"/><path fill="#2f2d31" d="M-16 88L98 57l-75 48z"/></g></svg>