<svg xmlns="http://www.w3.org/2000/svg" viewBox="0 0 600 900"><filter id="c"><feGaussianBlur stdDeviation="55" /></filter><path fill="#cdc7ca" d="M0 0h597v900H0z"/><g filter='url(#c)' fill-opacity='.5'><ellipse fill="#ff1802" fill-opacity=".5" rx="1" ry="1" transform="rotate(104.3 -51.4 339.1) scale(60.06471 68.26336)"/><ellipse fill="#183a4e" fill-opacity=".5" rx="1" ry="1" transform="matrix(-5.45192 27.53419 -152.08215 -30.11308 170.6 722.9)"/><ellipse fill="#ae9800" fill-opacity=".5" rx="1" ry="1" transform="matrix(43.29226 -4.1804 12.9263 133.86486 44.3 29.4)"/><ellipse fill="#ff1a06" fill-opacity=".5" rx="1" ry="1" transform="matrix(-51.86059 -14.53998 11.29767 -40.29605 453.8 202.5)"/><ellipse fill="#ecf3f9" fill-opacity=".5" rx="1" ry="1" transform="rotate(40.7 -152.1 414.7) scale(121.46985 594.14062)"/><path fill="#002944" fill-opacity=".5" d="M472.9 420.1L311 371h256.7z"/><ellipse fill="#d6f7ff" fill-opacity=".5" rx="1" ry="1" transform="rotate(-133.7 353 169) scale(119.00211 150.58339)"/><ellipse fill="#828995" fill-opacity=".5" rx="1" ry="1" transform="matrix(31.60848 -204.17837 118.67544 18.37193 1.7 823.4)"/></g></svg>