<svg xmlns="http://www.w3.org/2000/svg" viewBox="0 0 1018 1528"><filter id="b"><feGaussianBlur stdDeviation="12" /></filter><path fill="#a59c8a" d="M0 0h1014v1528H0z"/><g filter="url(#b)" transform="translate(3 3) scale(5.96875)" fill-opacity=".5"><path d="M98 135l-88 74 165 57z"/><path fill="#fff" d="M101.7 93.8l67.9-3.5 4.7 89.9-67.9 3.5z"/><ellipse fill="#ffffef" rx="1" ry="1" transform="matrix(54.9838 7.4341 -14.33092 105.99376 3.8 48.8)"/><path d="M100.5 219.4l-131 66.8-10-19.6 131-66.8z"/><ellipse fill="#f6e9da" cx="150" cy="42" rx="56" ry="162"/><ellipse fill="#995a00" rx="1" ry="1" transform="matrix(19.807 1.20987 -3.46735 56.76459 79.4 71)"/><ellipse fill="#000006" rx="1" ry="1" transform="rotate(130.6 24.8 148.4) scale(39.47266 17.71846)"/><ellipse rx="1" ry="1" transform="matrix(-32.3448 -26.01316 9.30423 -11.5689 82.7 174.6)"/></g></svg>