<svg xmlns="http://www.w3.org/2000/svg" viewBox="0 0 600 900"><filter id="b"><feGaussianBlur stdDeviation="12" /></filter><path fill="#d8c1a5" d="M0 0h597v900H0z"/><g filter="url(#b)" transform="translate(1.8 1.8) scale(3.51563)" fill-opacity=".5"><ellipse fill="#511500" rx="1" ry="1" transform="matrix(-2.7165 -18.00072 71.06955 -10.72515 40 15)"/><ellipse fill="#540800" rx="1" ry="1" transform="matrix(.34391 10.58317 -67.71069 2.20033 76.7 212.5)"/><ellipse fill="#fff9ee" rx="1" ry="1" transform="matrix(13.13543 28.23212 -142.68508 66.38644 72 68.8)"/><ellipse fill="#400000" cx="137" cy="106" rx="66" ry="6"/><ellipse fill="#faffe7" cx="96" cy="162" rx="72" ry="39"/><ellipse fill="#632e05" rx="1" ry="1" transform="matrix(102.827 44.9301 -2.22789 5.09875 25.9 207.5)"/><ellipse fill="#89000d" rx="1" ry="1" transform="matrix(-3.01356 13.39568 -24.52093 -5.51635 74.8 14.2)"/><ellipse fill="#f4efd8" cx="133" cy="75" rx="140" ry="25"/></g></svg>