<svg xmlns="http://www.w3.org/2000/svg" viewBox="0 0 600 900"><filter id="b"><feGaussianBlur stdDeviation="12" /></filter><path fill="#e8e1cb" d="M0 0h597v900H0z"/><g filter="url(#b)" transform="translate(1.8 1.8) scale(3.51563)" fill-opacity=".5"><ellipse fill="#b47c00" rx="1" ry="1" transform="matrix(-30.13876 -2.6315 7.15415 -81.93683 113.1 147.4)"/><ellipse fill="#c99400" rx="1" ry="1" transform="matrix(25.80376 39.31334 -25.93727 17.02422 119 152.8)"/><ellipse fill="#fff" cx="19" cy="69" rx="83" ry="83"/><path fill="#e8f4ff" d="M-15.5 167.8L185 252.2l-6.1-59.5-85.2 2.4z"/><ellipse fill="#fff" rx="1" ry="1" transform="matrix(-35.78354 14.72511 -58.97625 -143.31839 169 80.6)"/><path fill="#c39600" d="M100 68h30v127h-30z"/><path fill="#786951" d="M97 212.6l19.5 8.2-21 14.1L33 218.2z"/><ellipse fill="#f7fbff" rx="1" ry="1" transform="rotate(-169.1 28.3 29.4) scale(46.98851 161.24445)"/></g></svg>