<svg xmlns="http://www.w3.org/2000/svg" viewBox="0 0 600 900"><filter id="b"><feGaussianBlur stdDeviation="12" /></filter><path fill="#342419" d="M0 0h597v900H0z"/><g filter="url(#b)" transform="translate(1.8 1.8) scale(3.51563)" fill-opacity=".5"><ellipse fill="#fe7e0f" cx="101" cy="114" rx="44" ry="43"/><ellipse rx="1" ry="1" transform="matrix(-22.37448 127.56666 -35.44516 -6.21689 153.5 192.8)"/><path fill="#f5f7f5" d="M25.7 176.6l31.6 23.1-45.9-56.4L28 177.9z"/><path fill="#ff820d" d="M125.3 176.5l-26.4-5.6 5.8-27.4 26.4 5.6z"/><path d="M119.4 113.3l-27-5.5 3 34.8L72 214z"/><ellipse fill="#ebf1f1" rx="1" ry="1" transform="rotate(90.6 -53.8 68.8) scale(24.47663 2.94177)"/><ellipse fill="#040811" rx="1" ry="1" transform="matrix(5.47589 35.46008 -98.017 15.13618 128.8 33.2)"/><path fill="#cccac9" d="M46 146l12-4 18 29z"/></g></svg>