<svg xmlns="http://www.w3.org/2000/svg" viewBox="0 0 600 900"><filter id="b"><feGaussianBlur stdDeviation="12" /></filter><path fill="#1b1911" d="M0 0h597v900H0z"/><g filter="url(#b)" transform="translate(1.8 1.8) scale(3.51563)" fill-opacity=".5"><ellipse fill="#aeb32e" rx="1" ry="1" transform="matrix(63.30506 15.77542 -4.60557 18.48166 85.8 125.3)"/><ellipse rx="1" ry="1" transform="matrix(22.49088 20.89982 -18.4943 19.90225 65.3 151)"/><path fill="#bec46b" d="M103.7 138.6l-15.4-37.2 61.7 57-54-26.3z"/><path fill="#bcbb3d" d="M31 109.4l34.3-11L37.6 129l-15.2-4.6z"/><ellipse fill="#090710" rx="1" ry="1" transform="rotate(-81.3 68.7 -35) scale(69.11165 107.575)"/><ellipse fill="#0c0a0e" cx="113" cy="203" rx="169" ry="50"/><path fill="#e9fb87" d="M97.5 136.3l6.7 7.2 7.4-18.2-1.6-8.1z"/><path fill="#7d7b22" d="M102.7 149.1l26.8 7 8.9.1 17.2-9.5z"/></g></svg>