<svg xmlns="http://www.w3.org/2000/svg" viewBox="0 0 600 900"><filter id="c"><feGaussianBlur stdDeviation="55" /></filter><path fill="#d3d5d3" d="M0 0h597v900H0z"/><g filter='url(#c)' fill-opacity='.5'><ellipse fill="#0b1224" fill-opacity=".5" rx="1" ry="1" transform="matrix(-93.65902 11.45094 -21.78295 -178.16613 226 568)"/><ellipse fill="#fff" fill-opacity=".5" rx="1" ry="1" transform="matrix(-32.67747 199.2509 -586.30811 -96.15549 382 163)"/><ellipse fill="#717b52" fill-opacity=".5" rx="1" ry="1" transform="matrix(-121.19978 22.02573 -8.1754 -44.98634 344 654.8)"/><path fill="#999492" fill-opacity=".5" d="M22.9 761.1v154.7l358.5-84.4z"/><ellipse fill="#fff" fill-opacity=".5" rx="1" ry="1" transform="rotate(76.7 -256.5 204.7) scale(285.86851 93.43999)"/><path fill="#98a094" fill-opacity=".5" d="M314.5 403.3l-189.4 65.2-42.4-123 189.5-65.2z"/><ellipse fill="#f4f5ec" fill-opacity=".5" rx="1" ry="1" transform="matrix(-337.49408 -488.97937 129.65185 -89.48584 410.6 279)"/><path fill="#668300" fill-opacity=".5" d="M469 576.6l16.2 13.6-85.9 102.3-16.1-13.5z"/></g></svg>