<svg xmlns="http://www.w3.org/2000/svg" viewBox="0 0 600 900"><filter id="b"><feGaussianBlur stdDeviation="12" /></filter><path fill="#dddfd1" d="M0 0h597v900H0z"/><g filter="url(#b)" transform="translate(1.8 1.8) scale(3.51563)" fill-opacity=".5"><ellipse fill="#835500" cx="83" cy="154" rx="65" ry="49"/><ellipse fill="#fff" rx="1" ry="1" transform="matrix(2.88657 -57.83704 168.78991 8.42407 103.2 52)"/><ellipse fill="#e8ffff" rx="1" ry="1" transform="matrix(-5.82932 -33.05972 166.43248 -29.34654 116 231.4)"/><path fill="#ad7232" d="M143 150.7L90 101l-60 .5L71.1 162z"/><ellipse fill="#fbffff" rx="1" ry="1" transform="matrix(-53.62243 155.73085 -21.25431 -7.31845 19 99.5)"/><path fill="#dceacf" d="M6.6 73L36 156l115.7 20.9L31 173.2z"/><ellipse fill="#faffff" rx="1" ry="1" transform="matrix(-3.8483 -141.2837 28.28931 -.77055 166 108.3)"/><path fill="#665710" d="M129.6 185.9l-9.3-7.2-83-8 58 28.7z"/></g></svg>