<svg xmlns="http://www.w3.org/2000/svg" viewBox="0 0 600 900"><filter id="b"><feGaussianBlur stdDeviation="12" /></filter><path fill="#c6d2ce" d="M0 0h597v900H0z"/><g filter="url(#b)" transform="translate(1.8 1.8) scale(3.51563)" fill-opacity=".5"><ellipse cx="110" cy="182" rx="58" ry="37"/><ellipse fill="#fff" rx="1" ry="1" transform="rotate(-65.1 71.5 -33.1) scale(96.74565 141.09978)"/><ellipse fill="#191b19" rx="1" ry="1" transform="matrix(-44.64637 33.15732 -14.96198 -20.14632 128.4 183.7)"/><ellipse fill="#fff" rx="1" ry="1" transform="rotate(-87.5 71.9 58.1) scale(169 23.52127)"/><ellipse fill="#294040" rx="1" ry="1" transform="matrix(-15.0785 16.45418 -26.25139 -24.05659 70 170.8)"/><path fill="#00827f" d="M22 232l54-3-32 17z"/><ellipse fill="#feffff" rx="1" ry="1" transform="matrix(13.46936 55.7443 -102.48288 24.7627 74.2 28.5)"/><ellipse fill="#d4ffff" rx="1" ry="1" transform="matrix(.36424 -22.72837 30.67854 .49164 41 209.9)"/></g></svg>