<svg xmlns="http://www.w3.org/2000/svg" viewBox="0 0 1600 900"><filter id="b"><feGaussianBlur stdDeviation="12" /></filter><path fill="#737239" d="M0 0h1600v900H0z"/><g filter="url(#b)" transform="matrix(6.25 0 0 6.25 3.1 3.1)" fill-opacity=".5"><ellipse fill="#090b14" rx="1" ry="1" transform="matrix(-14.06762 79.78145 -31.62973 -5.57717 25.9 74.5)"/><ellipse fill="#c1bd59" cx="192" cy="46" rx="116" ry="54"/><ellipse fill="#252d1e" rx="1" ry="1" transform="matrix(-86.02395 4.64134 -1.51232 -28.02974 96.8 134.2)"/><path fill="#fffff6" d="M242-1l-64-15 50 36z"/><ellipse fill="#271f12" rx="1" ry="1" transform="matrix(38.81469 -32.80095 19.23099 22.7568 239 143)"/><path fill="#2e3412" d="M170.3 50.1l.2-36 29.8 31L200-1z"/><path fill="#bdbb50" d="M81 39h50v61H81z"/><path fill="#fff2be" d="M70.8-3.9L57.3 25.7l.6-34 19 24.2z"/></g></svg>