<svg xmlns="http://www.w3.org/2000/svg" viewBox="0 0 600 900"><filter id="c"><feGaussianBlur stdDeviation="55" /></filter><path fill="#634731" d="M0 0h597v900H0z"/><g filter='url(#c)' fill-opacity='.5'><ellipse fill="#b58d68" fill-opacity=".5" rx="1" ry="1" transform="matrix(145.6304 66.47957 -128.20748 280.85177 430.5 445.2)"/><ellipse fill="#180a00" fill-opacity=".5" rx="1" ry="1" transform="matrix(-151.32215 -128.44701 329.24982 -387.88595 116.4 83.4)"/><ellipse fill-opacity=".5" rx="1" ry="1" transform="matrix(-91.3824 27.41603 -85.11005 -283.68657 95 883)"/><path fill="#ffe6c8" fill-opacity=".5" d="M373.2 80.4L426 39.3l41 52.6-52.6 41.1z"/><ellipse fill="#927660" fill-opacity=".5" rx="1" ry="1" transform="rotate(-126.4 180.4 186.3) scale(78.43244 136.75137)"/><path fill="#ffffab" fill-opacity=".5" d="M280.6 612.1l14-46.6 57.2 26.6-16.9 65.2z"/><ellipse fill="#150200" fill-opacity=".5" rx="1" ry="1" transform="matrix(376.38335 -12.48592 1.00208 30.20733 292.2 875.7)"/><ellipse fill="#614b38" fill-opacity=".5" rx="1" ry="1" transform="rotate(61.5 -24.8 386.5) scale(180.73888 69.68902)"/></g></svg>