<svg xmlns="http://www.w3.org/2000/svg" viewBox="0 0 210 144"><filter id="c"><feGaussianBlur stdDeviation="55" /></filter><path fill="#474748" d="M0 0h210v144H0z"/><g filter='url(#c)' fill-opacity='.5'><ellipse fill="#fff" fill-opacity=".5" rx="1" ry="1" transform="rotate(-176.2 59.7 -1.7) scale(197.64993 14.84036)"/><ellipse fill="#fff" fill-opacity=".5" rx="1" ry="1" transform="matrix(.97661 -13.15478 66.10036 4.90729 15.3 141.5)"/><ellipse fill-opacity=".5" rx="1" ry="1" transform="matrix(-56.6551 -44.7435 28.27458 -35.80183 137.7 72.2)"/><path fill="#fff" fill-opacity=".5" d="M205-15.5v144.3l-15 27.1 35.5-18.6z"/><ellipse fill="#fff" fill-opacity=".5" rx="1" ry="1" transform="matrix(-138.9308 -6.55181 .63345 -13.43224 152 .8)"/><ellipse fill="#0f0d0c" fill-opacity=".5" rx="1" ry="1" transform="matrix(-28.5876 -17.79422 37.2833 -59.89814 48.5 68.3)"/><path fill="#fff" fill-opacity=".5" d="M-15.5-.5L3 159.5l.6-132.6L21-.5z"/><path fill="#fff" fill-opacity=".5" d="M-16 152.2l2.3-24.9 84.6 7.5-2.2 24.9z"/></g></svg>