<svg xmlns="http://www.w3.org/2000/svg" viewBox="0 0 450 450"><filter id="b"><feGaussianBlur stdDeviation="12" /></filter><path fill="#775647" d="M0 0h450v450H0z"/><g filter="url(#b)" transform="translate(.9 .9) scale(1.75781)" fill-opacity=".5"><ellipse fill="#fff" rx="1" ry="1" transform="matrix(-7.90128 -31.63256 247.39895 -61.79612 221.6 232.2)"/><path d="M12.3-40.2L264.8-4.7l-15 107L-2.9 66.6z"/><ellipse fill="#fff" rx="1" ry="1" transform="matrix(.4609 -18.8589 136.80733 3.3435 53 97.5)"/><ellipse fill="#fff" cx="216" cy="255" rx="129" ry="40"/><ellipse fill="#fff" cx="13" cy="255" rx="35" ry="24"/><ellipse fill="#e47d3c" cx="55" cy="141" rx="216" ry="41"/><ellipse fill="#fff" rx="1" ry="1" transform="matrix(39.1564 -124.1939 17.15277 5.408 239.3 222)"/><ellipse rx="1" ry="1" transform="matrix(-248.44142 -57.46183 10.77626 -46.59215 182 47)"/></g></svg>