<svg xmlns="http://www.w3.org/2000/svg" viewBox="0 0 640 640"><filter id="b"><feGaussianBlur stdDeviation="12" /></filter><path fill="#866359" d="M0 0h640v640H0z"/><g filter="url(#b)" transform="matrix(2.5 0 0 2.5 1.3 1.3)" fill-opacity=".5"><ellipse fill="#f8fff9" cx="14" cy="25" rx="35" ry="113"/><ellipse fill="#ddf3d8" rx="1" ry="1" transform="matrix(1.71071 -11.7906 102.66557 14.89586 115.5 57)"/><ellipse fill="#120021" cx="130" cy="96" rx="43" ry="26"/><ellipse rx="1" ry="1" transform="matrix(5.63664 -20.56913 34.94449 9.57598 245.9 212.7)"/><ellipse fill="#671c16" rx="1" ry="1" transform="matrix(79.3213 -49.1813 24.94158 40.22665 113.8 227.1)"/><ellipse fill="#200016" rx="1" ry="1" transform="matrix(11.78359 -21.25816 39.90113 22.11756 212 20.4)"/><ellipse cx="224" cy="125" rx="55" ry="9"/><ellipse fill="#aebbbf" rx="1" ry="1" transform="matrix(.75818 19.7361 -87.46718 3.36015 90.7 0)"/></g></svg>