<svg xmlns="http://www.w3.org/2000/svg" viewBox="0 0 1062 627"><filter id="c"><feGaussianBlur stdDeviation="55" /></filter><path fill="#7e865c" d="M0 0h1062v626H0z"/><g filter='url(#c)' fill-opacity='.5'><ellipse fill="#342735" fill-opacity=".5" rx="1" ry="1" transform="matrix(-458.81026 -811.32024 79.97961 -45.22932 717.3 328.8)"/><ellipse fill="#ddf791" fill-opacity=".5" rx="1" ry="1" transform="matrix(-87.97336 -12.20731 55.6077 -400.74316 230.5 166)"/><ellipse fill="#c3e589" fill-opacity=".5" rx="1" ry="1" transform="matrix(-137.43194 27.7832 -117.21625 -579.82 1001.4 188)"/><ellipse fill="#1c1221" fill-opacity=".5" rx="1" ry="1" transform="matrix(133.01984 63.36464 -42.1496 88.48362 487.6 589.5)"/><ellipse fill="#4f1318" fill-opacity=".5" rx="1" ry="1" transform="matrix(96.9256 -2.47043 3.2893 129.0534 379.7 272.2)"/><ellipse fill="#313d24" fill-opacity=".5" rx="1" ry="1" transform="matrix(-130.12446 -26.82603 17.23354 -83.59439 724.3 89.7)"/><ellipse fill="#ae9851" fill-opacity=".5" rx="1" ry="1" transform="matrix(-18.90477 105.25478 -207.73084 -37.31046 685.4 267.4)"/><ellipse fill="#30324d" fill-opacity=".5" rx="1" ry="1" transform="matrix(4.67603 -140.95714 131.44464 4.36047 827.7 497)"/></g></svg>