<svg xmlns="http://www.w3.org/2000/svg" viewBox="0 0 960 640"><filter id="b"><feGaussianBlur stdDeviation="12" /></filter><path fill="#869190" d="M0 0h960v637H0z"/><g filter="url(#b)" transform="matrix(3.75 0 0 3.75 1.9 1.9)" fill-opacity=".5"><path d="M-16 148l178 2L6-16z"/><ellipse fill="#fff" rx="1" ry="1" transform="matrix(21.27976 -83.77744 84.42402 21.444 169.5 47)"/><ellipse fill="#000200" rx="1" ry="1" transform="matrix(-32.02766 42.9684 -66.35919 -49.46261 22.2 61.8)"/><ellipse fill="#fff" rx="1" ry="1" transform="rotate(-8.7 428.5 -1168.4) scale(47.59279 79.47407)"/><ellipse fill="#eff3fd" cx="146" cy="169" rx="71" ry="21"/><ellipse fill="#031710" rx="1" ry="1" transform="matrix(-65.41649 -32.38325 3.70597 -7.48632 216.6 147.7)"/><ellipse fill="#000401" rx="1" ry="1" transform="matrix(15.11824 -.46253 4.0606 132.72381 8.3 110.7)"/><ellipse rx="1" ry="1" transform="rotate(-140.7 143.2 -1.7) scale(7.33072 60.97992)"/></g></svg>