<svg xmlns="http://www.w3.org/2000/svg" viewBox="0 0 1350 900"><filter id="b"><feGaussianBlur stdDeviation="12" /></filter><path fill="#e7e9eb" d="M0 0h1350v896H0z"/><g filter="url(#b)" transform="translate(2.6 2.6) scale(5.27344)" fill-opacity=".5"><path fill="#6c3a4c" d="M54 90h39v23H54z"/><ellipse fill="#a1aeab" rx="1" ry="1" transform="matrix(99.47948 196.36878 -29.08902 14.73636 9.5 154.7)"/><ellipse fill="#fdffff" rx="1" ry="1" transform="matrix(-62.77965 4.94087 -7.28894 -92.61473 144.5 69)"/><ellipse fill="#fff" rx="1" ry="1" transform="rotate(-88.9 174.2 -75.5) scale(177.15172 20.89377)"/><ellipse fill="#abbcb9" cy="118" rx="11" ry="231"/><path fill="#3b2633" d="M90.2 89l.5 7-15 1-.4-7z"/><ellipse fill="#d7dce0" rx="1" ry="1" transform="matrix(-16.36175 12.90632 -76.38077 -96.83034 45.9 131.5)"/><path fill="#000003" d="M53 90h17v3H53z"/></g></svg>