<svg xmlns="http://www.w3.org/2000/svg" viewBox="0 0 1350 900"><filter id="b"><feGaussianBlur stdDeviation="12" /></filter><path fill="#a8a2a1" d="M0 0h1350v896H0z"/><g filter="url(#b)" transform="translate(2.6 2.6) scale(5.27344)" fill-opacity=".5"><ellipse fill="#0a0000" rx="1" ry="1" transform="rotate(-150.4 138.1 34.9) scale(48.67905 69.07684)"/><ellipse fill="#310000" rx="1" ry="1" transform="matrix(-4.27202 -72.94652 48.28841 -2.82795 24.3 138.7)"/><ellipse fill="#fcffff" rx="1" ry="1" transform="matrix(58.35863 .11427 -.41856 213.75601 128.3 89.9)"/><ellipse fill="#200" cx="245" cy="140" rx="60" ry="31"/><ellipse fill="#e3f3fe" cx="127" cy="34" rx="113" ry="43"/><ellipse fill="#21374a" rx="1" ry="1" transform="matrix(.61174 -9.21015 30.52403 2.0274 127.4 89.8)"/><path d="M207.5 69.4l-1 30-20-.8 1-30z"/><ellipse fill="#3d0000" rx="1" ry="1" transform="matrix(37.32711 -.68876 .4774 25.87282 33.7 161.7)"/></g></svg>