<svg xmlns="http://www.w3.org/2000/svg" viewBox="0 0 900 600"><filter id="b"><feGaussianBlur stdDeviation="12" /></filter><path fill="#823f15" d="M0 0h900v597H0z"/><g filter="url(#b)" transform="translate(1.8 1.8) scale(3.51563)" fill-opacity=".5"><ellipse fill="#f8bf80" rx="1" ry="1" transform="matrix(-17.58486 25.97913 -53.91502 -36.49422 252.5 114.7)"/><ellipse fill="#e59e36" cx="43" cy="62" rx="84" ry="35"/><ellipse rx="1" ry="1" transform="matrix(30.99796 -5.73059 8.45185 45.71784 219.8 169)"/><ellipse fill="#ff993a" rx="1" ry="1" transform="rotate(138.2 62.6 88) scale(15.14803 34.66276)"/><ellipse fill="#510500" rx="1" ry="1" transform="rotate(99.3 79.7 80.7) scale(29.76383 255.00003)"/><ellipse fill="#3e120b" rx="1" ry="1" transform="matrix(-122.52556 -50.10934 13.6487 -33.3733 108.3 165.2)"/><ellipse fill="#fff" rx="1" ry="1" transform="matrix(70.52798 -1.11639 .03246 2.0509 51.1 45.9)"/><ellipse fill="#530a00" cx="101" cy="53" rx="179" ry="5"/></g></svg>