<svg xmlns="http://www.w3.org/2000/svg" viewBox="0 0 900 1350"><filter id="b"><feGaussianBlur stdDeviation="12" /></filter><path fill="#b1afa8" d="M0 0h896v1350H0z"/><g filter="url(#b)" transform="translate(2.6 2.6) scale(5.27344)" fill-opacity=".5"><path d="M167.8 215l-127-22.4L56.2 105l127 22.4z"/><ellipse fill="#fff" rx="1" ry="1" transform="rotate(48.3 -27.6 77.3) scale(69.69111 169.00001)"/><ellipse rx="1" ry="1" transform="matrix(1.21736 25.81402 -107.44377 5.06692 125.6 174.4)"/><ellipse rx="1" ry="1" transform="matrix(-37.56354 20.07087 -26.85633 -50.26283 105.6 152)"/><ellipse fill="#ffe" rx="1" ry="1" transform="matrix(-2.01815 31.20833 -114.96256 -7.4343 92.4 233)"/><ellipse fill="#fbf2e4" cx="169" cy="84" rx="55" ry="55"/><path fill="#fff" d="M-16 197L16-16l48 160z"/><path d="M-5 189l114-68 11 67z"/></g></svg>