<svg xmlns="http://www.w3.org/2000/svg" viewBox="0 0 900 600"><filter id="b"><feGaussianBlur stdDeviation="12" /></filter><path fill="#29332d" d="M0 0h900v597H0z"/><g filter="url(#b)" transform="translate(1.8 1.8) scale(3.51563)" fill-opacity=".5"><ellipse fill="#f5ffff" rx="1" ry="1" transform="matrix(2.19094 -33.4149 99.82542 6.54534 122 148.9)"/><path d="M1-16l-17 170L271 27z"/><ellipse fill="#ceffeb" rx="1" ry="1" transform="rotate(-64.9 198.6 -49.7) scale(18.81352 98.27854)"/><ellipse cx="153" cy="58" rx="255" ry="55"/><ellipse fill="#47875c" rx="1" ry="1" transform="matrix(-6.07748 17.00134 -43.06954 -15.39609 225.2 152.4)"/><path fill="#00251b" d="M90.2 161.8l-76 21.8-4.4-15.4 76-21.8z"/><ellipse fill="#f6ffff" rx="1" ry="1" transform="rotate(-142.4 111.9 49.8) scale(51.47612 12.93575)"/><ellipse fill="#528d6b" cx="116" cy="113" rx="63" ry="8"/></g></svg>