<svg xmlns="http://www.w3.org/2000/svg" viewBox="0 0 1350 900"><filter id="b"><feGaussianBlur stdDeviation="12" /></filter><path fill="#c8a589" d="M0 0h1350v896H0z"/><g filter="url(#b)" transform="translate(2.6 2.6) scale(5.27344)" fill-opacity=".5"><ellipse fill="#400000" rx="1" ry="1" transform="matrix(-35.69931 -1.02745 3.1277 -108.67364 242.6 73.8)"/><path fill="#470000" d="M-47.5 139L6 91l41.5 46L-6 185.1z"/><ellipse fill="#fff7e8" rx="1" ry="1" transform="rotate(89.9 14.1 109) scale(144.28872 73.4645)"/><path fill="#821400" d="M74 115h48v15H74z"/><ellipse fill="#ffa224" rx="1" ry="1" transform="matrix(18.11481 -2.66177 6.84754 46.6012 213.7 61.1)"/><ellipse fill="#090000" rx="1" ry="1" transform="matrix(15.62562 112.73921 -20.09781 2.78555 254.8 0)"/><path fill="#5d2400" d="M281.6 185.7l-88-41 20.8-44.4 88 41z"/><ellipse fill="#81370a" cx="49" cy="20" rx="9" ry="53"/></g></svg>