<svg xmlns="http://www.w3.org/2000/svg" viewBox="0 0 900 1350"><filter id="b"><feGaussianBlur stdDeviation="12" /></filter><path fill="#aba69d" d="M0 0h896v1350H0z"/><g filter="url(#b)" transform="translate(2.6 2.6) scale(5.27344)" fill-opacity=".5"><ellipse rx="1" ry="1" transform="matrix(55.31168 -12.06158 6.98863 32.0483 103.5 187)"/><ellipse rx="1" ry="1" transform="rotate(-4.2 1549 -974.5) scale(36.96153 22.0055)"/><ellipse fill="#fff" rx="1" ry="1" transform="matrix(-15.4467 -75.92292 28.53738 -5.806 165.5 115.9)"/><path fill="#fff" d="M-3.5 46.1l45 .8-2 111-45-.8z"/><ellipse rx="1" ry="1" transform="matrix(17.98337 -11.28221 13.66059 21.7744 32 181.9)"/><ellipse rx="1" ry="1" transform="rotate(-121.5 114.8 53.2) scale(23.8794 28.26456)"/><ellipse fill="#fffef5" cx="112" cy="6" rx="119" ry="20"/><path d="M113 89l-77 1 39 40z"/></g></svg>