<svg xmlns="http://www.w3.org/2000/svg" viewBox="0 0 600 900"><filter id="b"><feGaussianBlur stdDeviation="12" /></filter><path fill="#e3e4d8" d="M0 0h597v900H0z"/><g filter="url(#b)" transform="translate(1.8 1.8) scale(3.51563)" fill-opacity=".5"><ellipse fill="#cfa445" cx="70" cy="128" rx="35" ry="69"/><ellipse fill="#a5915d" rx="1" ry="1" transform="rotate(109.5 -9.3 132.6) scale(14.07252 49.47283)"/><ellipse fill="#fbffff" rx="1" ry="1" transform="rotate(75.8 45 106.8) scale(159.62584 46.91118)"/><ellipse fill="#f3ffff" rx="1" ry="1" transform="matrix(-32.91229 -3.80808 4.72668 -40.85154 15 136)"/><ellipse fill="#573f14" cx="74" cy="226" rx="17" ry="6"/><ellipse fill="#f4ffff" rx="1" ry="1" transform="matrix(-69.43016 44.38094 -22.38125 -35.01355 43.3 32.2)"/><ellipse fill="#3c545e" rx="1" ry="1" transform="matrix(-25.79525 -6.30633 1.20057 -4.91079 64.3 184)"/><path fill="#cd8625" d="M97.2 59.9l1.3 7.5 7.7 13.5-43 12.7z"/></g></svg>