<svg xmlns="http://www.w3.org/2000/svg" viewBox="0 0 600 900"><filter id="b"><feGaussianBlur stdDeviation="12" /></filter><path fill="#5e4f39" d="M0 0h597v900H0z"/><g filter="url(#b)" transform="translate(1.8 1.8) scale(3.51563)" fill-opacity=".5"><ellipse fill="#ffb677" rx="1" ry="1" transform="rotate(90.8 -67.7 172.2) scale(19.05399 134.88567)"/><ellipse fill="#ffffea" cx="38" cy="136" rx="6" ry="89"/><ellipse fill="#fff" rx="1" ry="1" transform="matrix(-38.91565 1.15499 -.33692 -11.35207 95.3 142)"/><ellipse fill="#130000" cx="106" cy="21" rx="148" ry="40"/><ellipse fill="#100" rx="1" ry="1" transform="matrix(6.45834 85.572 -14.33837 1.08215 14.3 104.3)"/><path fill="#ffcb86" d="M39 230l-46.8 4.9L-11 204l46.8-4.9z"/><path fill="#14201e" d="M181 97l-39 131-110-9z"/><path fill="#d8cca2" d="M29.8 108.9l-.2-54.1 44.7 11-44.7 57.7z"/></g></svg>