<svg xmlns="http://www.w3.org/2000/svg" viewBox="0 0 820 547"><filter id="c"><feGaussianBlur stdDeviation="55" /></filter><path fill="#baa077" d="M0 0h820v544H0z"/><g filter='url(#c)' fill-opacity='.5'><ellipse fill="#fff" fill-opacity=".5" rx="1" ry="1" transform="rotate(-34.3 857.7 -433.4) scale(221.73409 331.10358)"/><ellipse fill="#270300" fill-opacity=".5" rx="1" ry="1" transform="rotate(-64.7 153.5 21) scale(788.8918 120.6161)"/><ellipse fill="#653803" fill-opacity=".5" rx="1" ry="1" transform="matrix(140.77353 804.57439 -89.11255 15.5917 761.2 90.3)"/><ellipse fill="#733100" fill-opacity=".5" rx="1" ry="1" transform="matrix(-76.92331 34.72074 -113.67855 -251.85322 84.6 465)"/><ellipse fill="#371d08" fill-opacity=".5" rx="1" ry="1" transform="rotate(-22.8 139.7 -671.6) scale(345.80472 69.35122)"/><ellipse fill="#ffffdb" fill-opacity=".5" rx="1" ry="1" transform="rotate(133.8 86 274.4) scale(154.27249 298.34676)"/><path fill="#4c3510" fill-opacity=".5" d="M255.3 256.6l-9.6-16.7L523 79.8l9.6 16.6z"/><ellipse fill="#b68e4d" fill-opacity=".5" rx="1" ry="1" transform="rotate(-109.2 417.5 -128) scale(319.37861 59.66304)"/></g></svg>