<svg xmlns="http://www.w3.org/2000/svg" viewBox="0 0 1280 853"><filter id="b"><feGaussianBlur stdDeviation="12" /></filter><path fill="#84866a" d="M0 0h1280v850H0z"/><g filter="url(#b)" transform="matrix(5 0 0 5 2.5 2.5)" fill-opacity=".5"><ellipse fill="#a48a0d" rx="1" ry="1" transform="rotate(-4.4 1506.4 -1634.8) scale(88.06616 41.59265)"/><path fill="#000160" d="M55 102l135-8-14 33z"/><path fill="#ffea6c" d="M51 73h94v25H51z"/><path fill="#000b4c" d="M101 80l-42 27 46 32z"/><ellipse fill="#dbe7f6" rx="1" ry="1" transform="rotate(-52.2 205 -201.6) scale(33.7005 14.75271)"/><ellipse fill="#b5bcbc" cx="128" cy="31" rx="33" ry="27"/><ellipse fill="#2d3c58" rx="1" ry="1" transform="matrix(-113.62731 8.34427 -.99274 -13.5185 81.5 160)"/><ellipse fill="#96a7c0" rx="1" ry="1" transform="matrix(-30.90792 15.9815 -24.88849 -48.13388 7.2 106.8)"/></g></svg>