<svg xmlns="http://www.w3.org/2000/svg" viewBox="0 0 1000 667"><filter id="b"><feGaussianBlur stdDeviation="12" /></filter><path fill="#a4937d" d="M0 0h1000v664H0z"/><g filter="url(#b)" transform="translate(2 2) scale(3.90625)" fill-opacity=".5"><ellipse fill="#231600" rx="1" ry="1" transform="matrix(-89.50218 -45.58307 13.15248 -25.82483 238.6 160.9)"/><ellipse fill="#f0e4d8" rx="1" ry="1" transform="matrix(-130.79682 10.52366 -2.47368 -30.74492 66.5 82.3)"/><ellipse cx="133" cy="20" rx="76" ry="9"/><ellipse fill="#fff" rx="1" ry="1" transform="matrix(-26.70488 -1.16735 2.04022 -46.67318 129.2 162.2)"/><ellipse fill="#342511" rx="1" ry="1" transform="matrix(-19.08388 -7.17316 25.94282 -69.01976 54 164.2)"/><ellipse fill="#1d0a00" cx="71" cy="59" rx="6" ry="49"/><ellipse fill="#ffffe7" rx="1" ry="1" transform="matrix(26.85985 10.74998 -6.69003 16.7157 230.3 97)"/><path fill="#fff" d="M76 28h113v16H76z"/></g></svg>