<svg xmlns="http://www.w3.org/2000/svg" viewBox="0 0 1000 667"><filter id="b"><feGaussianBlur stdDeviation="12" /></filter><path fill="#bcaa93" d="M0 0h1000v664H0z"/><g filter="url(#b)" transform="translate(2 2) scale(3.90625)" fill-opacity=".5"><ellipse cx="246" cy="115" rx="27" ry="50"/><ellipse rx="1" ry="1" transform="rotate(-97.7 85.7 47.8) scale(22.42109 51.19212)"/><ellipse fill="#fff" rx="1" ry="1" transform="matrix(22.9006 -42.889 94.78436 50.61014 133.8 9.1)"/><ellipse fill="#010000" rx="1" ry="1" transform="matrix(132.96834 -15.7435 1.11253 9.39637 222 141.1)"/><ellipse fill="#fff" rx="1" ry="1" transform="rotate(79.4 -38.4 32) scale(71.15055 37.34093)"/><path fill="#ffefe1" d="M100 72h59v77h-59z"/><ellipse rx="1" ry="1" transform="matrix(13.36975 -1.57058 3.71451 31.62012 49 126.6)"/><path fill="#fff9d9" d="M64 37h28v97H64z"/></g></svg>