<svg xmlns="http://www.w3.org/2000/svg" viewBox="0 0 1000 667"><filter id="c"><feGaussianBlur stdDeviation="55" /></filter><path fill="#c4ac8c" d="M0 0h1000v664H0z"/><g filter='url(#c)' fill-opacity='.5'><ellipse fill-opacity=".5" rx="1" ry="1" transform="rotate(77.7 -147.4 644.1) scale(53.18426 373.16819)"/><ellipse fill="#844000" fill-opacity=".5" rx="1" ry="1" transform="rotate(105.3 118.6 404.7) scale(121.83444 186.27728)"/><ellipse fill="#fff" fill-opacity=".5" rx="1" ry="1" transform="matrix(-47.21425 77.89646 -192.97336 -116.96415 244 455)"/><ellipse fill="#f4e9d1" fill-opacity=".5" rx="1" ry="1" transform="rotate(-17.7 422.6 -951.8) scale(449.60588 228.72486)"/><path fill="#2f0b00" fill-opacity=".5" d="M513.3 709.5L144 624.3l18.4-80 369.2 85.3z"/><ellipse fill="#4b1e00" fill-opacity=".5" rx="1" ry="1" transform="matrix(-271.66138 200.28917 -29.1557 -39.5452 996.6 426.3)"/><ellipse fill="#fff" fill-opacity=".5" rx="1" ry="1" transform="rotate(-69.7 703 -344) scale(110.08735 83.11651)"/><path fill="#653100" fill-opacity=".5" d="M658.8 203.2l151-4L1021 490.3 655.8 242.2z"/></g></svg>