<svg xmlns="http://www.w3.org/2000/svg" viewBox="0 0 1000 667"><filter id="b"><feGaussianBlur stdDeviation="12" /></filter><path fill="#aa9781" d="M0 0h1000v664H0z"/><g filter="url(#b)" transform="translate(2 2) scale(3.90625)" fill-opacity=".5"><ellipse cx="238" cy="124" rx="38" ry="138"/><ellipse fill="#fffff7" rx="1" ry="1" transform="matrix(-102.4547 21.4039 -13.70156 -65.58566 107.5 24.3)"/><ellipse cx="219" cy="148" rx="42" ry="38"/><path fill="#ffffe8" d="M156 57l79 24-33 32z"/><path fill="#fff" d="M-16 162l13-42 70 48z"/><path fill="#9c2f00" d="M25.4 114.9l53.5 7.5-4.3 30.7-53.5-7.5z"/><ellipse fill="#e2ad58" rx="1" ry="1" transform="matrix(90.46348 1.73699 -.52102 27.13493 119.7 99.8)"/><path d="M270.5-7.8l-44.1 79.6-28.9-16 44.1-79.6z"/></g></svg>