<svg xmlns="http://www.w3.org/2000/svg" viewBox="0 0 1000 1500"><filter id="c"><feGaussianBlur stdDeviation="55" /></filter><path fill="#bda78a" d="M0 0h996v1500H0z"/><g filter='url(#c)' fill-opacity='.5'><path fill="#280000" fill-opacity=".5" d="M1040 1236.3V1418H231.4v-181.7z"/><ellipse fill="#fff" fill-opacity=".5" rx="1" ry="1" transform="matrix(263.21906 246.39973 -81.00507 86.5345 228.2 979)"/><path fill="#003191" fill-opacity=".5" d="M840 1069.4l-393.6 62.3-26.6-167.8 393.6-62.4z"/><path fill="#ffffed" fill-opacity=".5" d="M1087 846.7L313.4 483.4l773.4-216.8z"/><path fill="#893900" fill-opacity=".5" d="M24.9 1202.7l76.1-132L801.3 1475l-76.2 132z"/><path fill="#fff" fill-opacity=".5" d="M993.2 1174.8l-386.8 87.9 427.8-562.5z"/><ellipse fill="#ffbb25" fill-opacity=".5" rx="1" ry="1" transform="matrix(-288.10789 -32.82575 15.4918 -135.9698 587.3 770.3)"/><path fill="#1a0000" fill-opacity=".5" d="M1087 1151.4l-146.6 234.3-439.4-64.4z"/></g></svg>