<svg xmlns="http://www.w3.org/2000/svg" viewBox="0 0 1000 667"><filter id="b"><feGaussianBlur stdDeviation="12" /></filter><path fill="#c9ac86" d="M0 0h1000v664H0z"/><g filter="url(#b)" transform="translate(2 2) scale(3.90625)" fill-opacity=".5"><ellipse fill="#894b00" cx="153" cy="158" rx="78" ry="47"/><ellipse fill="#3f1200" rx="1" ry="1" transform="matrix(40.77369 -26.99327 9.73448 14.70406 219 79.9)"/><ellipse fill="#fff" rx="1" ry="1" transform="matrix(-21.21543 12.89918 -32.74005 -53.84793 139.2 54.2)"/><ellipse fill="#fff" rx="1" ry="1" transform="matrix(4.26477 38.65343 -25.88582 2.85608 245.7 123)"/><ellipse fill="#fff8cd" cx="234" cy="8" rx="62" ry="43"/><ellipse fill="#e1d4c0" cx="25" cy="45" rx="110" ry="57"/><ellipse fill="#ffffeb" rx="1" ry="1" transform="matrix(-29.33008 -1.70267 .48329 -8.32506 98.5 138.4)"/><ellipse fill="#4d1f00" rx="1" ry="1" transform="matrix(2.97105 10.29167 -36.2984 10.47879 138.1 152.1)"/></g></svg>