<svg xmlns="http://www.w3.org/2000/svg" viewBox="0 0 1000 667"><filter id="c"><feGaussianBlur stdDeviation="55" /></filter><path fill="#ada69a" d="M0 0h1000v664H0z"/><g filter='url(#c)' fill-opacity='.5'><ellipse fill-opacity=".5" rx="1" ry="1" transform="rotate(130.4 343.8 460.3) scale(102.59106 137.83967)"/><path fill="#fff" fill-opacity=".5" d="M1073.6 86.8L238.2 57.6 242.8-75l835.4 29.2z"/><ellipse fill="#fff" fill-opacity=".5" rx="1" ry="1" transform="matrix(178.14068 -3.9402 1.45691 65.86879 651.7 600)"/><path fill="#050300" fill-opacity=".5" d="M337.9 77.7l-21.7 66.8-119-38.6L219 39z"/><path fill="#fffffe" fill-opacity=".5" d="M721.6 238L814 369.7l81.6-6.6L812 109.8z"/><ellipse fill="#111109" fill-opacity=".5" rx="1" ry="1" transform="rotate(39.5 -211.5 1478.5) scale(209.00409 42.59206)"/><ellipse fill="#7d7b72" fill-opacity=".5" rx="1" ry="1" transform="matrix(-16.7589 128.2113 -262.21282 -34.27466 523 340.5)"/><path fill="#0a0700" fill-opacity=".5" d="M2 443.4h187.5v35.1H2z"/></g></svg>