<svg xmlns="http://www.w3.org/2000/svg" viewBox="0 0 900 600"><filter id="b"><feGaussianBlur stdDeviation="12" /></filter><path fill="#aa8978" d="M0 0h900v597H0z"/><g filter="url(#b)" transform="translate(1.8 1.8) scale(3.51563)" fill-opacity=".5"><ellipse rx="1" ry="1" transform="matrix(-32.3228 24.80438 -51.00503 -66.4651 14.8 150.5)"/><ellipse fill="#000006" rx="1" ry="1" transform="rotate(23.6 -146.5 476.1) scale(31.52784 39.98467)"/><ellipse fill="#fffff8" rx="1" ry="1" transform="matrix(-21.27313 60.40834 -20.10116 -7.07874 116.6 64.7)"/><ellipse fill="#fdbe93" rx="1" ry="1" transform="matrix(-8.6502 -62.14861 41.05913 -5.71484 47.4 66.4)"/><ellipse fill="#fff" cx="185" cy="17" rx="64" ry="10"/><ellipse fill="#fff" rx="1" ry="1" transform="matrix(-10.8346 16.9363 -23.63739 -15.12147 239.1 165.2)"/><ellipse fill="#e0221a" rx="1" ry="1" transform="rotate(94.1 -16 101.4) scale(17.95529 49.97303)"/><ellipse fill="#000003" rx="1" ry="1" transform="matrix(6.37561 33.1081 -8.68925 1.67329 12 11.8)"/></g></svg>