<svg xmlns="http://www.w3.org/2000/svg" viewBox="0 0 900 600"><filter id="b"><feGaussianBlur stdDeviation="12" /></filter><path fill="#a7aea2" d="M0 0h900v597H0z"/><g filter="url(#b)" transform="translate(1.8 1.8) scale(3.51563)" fill-opacity=".5"><ellipse fill="#030d00" rx="1" ry="1" transform="matrix(-53.2836 61.339 -41.08033 -35.68542 170 52.5)"/><path fill="#fff" d="M120.6-8.1l-4.4 84.9L-10.6 70l4.4-84.9z"/><ellipse fill="#fff" rx="1" ry="1" transform="matrix(-203.8092 3.01999 -.44196 -29.82631 112.1 149.1)"/><ellipse fill="#0c2100" rx="1" ry="1" transform="rotate(-62.8 127.8 -28.5) scale(14.88315 38.18871)"/><ellipse fill="#030f01" cx="188" cy="96" rx="36" ry="22"/><ellipse fill="#fff" rx="1" ry="1" transform="rotate(-117 37.8 -5.8) scale(44.0225 72.15322)"/><path fill="#fff4f7" d="M271 40l-51-2.5 10.8 108.4L264.6 72z"/><ellipse fill="#fff" rx="1" ry="1" transform="matrix(3.43207 -42.65665 103.0185 8.28867 53 169)"/></g></svg>