<svg xmlns="http://www.w3.org/2000/svg" viewBox="0 0 900 600"><filter id="b"><feGaussianBlur stdDeviation="12" /></filter><path fill="#caaf9e" d="M0 0h900v597H0z"/><g filter="url(#b)" transform="translate(1.8 1.8) scale(3.51563)" fill-opacity=".5"><path fill="#591d0d" d="M-3-16l-13 193 173-11z"/><ellipse fill="#fff" rx="1" ry="1" transform="rotate(-159.8 111 8.5) scale(109.73263 83.90145)"/><ellipse fill="#0c141e" rx="1" ry="1" transform="matrix(25.5891 -18.01457 12.23998 17.38649 78 84.3)"/><path fill="#fff" d="M69 133h46v11H69z"/><path fill="#fff9ed" d="M168 60L35 57 28-3z"/><ellipse fill="#fffffd" rx="1" ry="1" transform="matrix(2.7957 -84.27517 53.9283 1.78899 222.3 57.8)"/><ellipse fill="#503e35" cx="96" cy="67" rx="67" ry="8"/><ellipse fill="#ffcb66" rx="1" ry="1" transform="matrix(2.76246 -32.55973 72.09494 6.11673 211.2 169)"/></g></svg>