<svg xmlns="http://www.w3.org/2000/svg" viewBox="0 0 900 600"><filter id="b"><feGaussianBlur stdDeviation="12" /></filter><path fill="#b29b91" d="M0 0h900v597H0z"/><g filter="url(#b)" transform="translate(1.8 1.8) scale(3.51563)" fill-opacity=".5"><ellipse fill="#2f0e09" rx="1" ry="1" transform="matrix(86.04707 52.64446 -35.02667 57.2509 30.4 115)"/><ellipse fill="#fff" rx="1" ry="1" transform="rotate(-68.7 85.2 -88.2) scale(54.5171 254.99998)"/><path fill="#000001" d="M95 78h60v25H95z"/><ellipse fill="#100c0e" rx="1" ry="1" transform="matrix(-52.3547 -56.73625 7.38283 -6.81268 198.4 158.9)"/><path fill="#ffd7c3" d="M28 61h36v54H28z"/><ellipse fill="#ffce87" rx="1" ry="1" transform="rotate(-113.3 106.5 28.3) scale(23.17587 34.8264)"/><ellipse fill="#0b141c" rx="1" ry="1" transform="matrix(-53.7226 20.193 -10.17267 -27.06395 27.3 153.6)"/><ellipse fill="#fffcf4" cx="193" cy="57" rx="57" ry="57"/></g></svg>