<svg xmlns="http://www.w3.org/2000/svg" viewBox="0 0 900 600"><filter id="c"><feGaussianBlur stdDeviation="55" /></filter><path fill="#a47f70" d="M0 0h900v597H0z"/><g filter='url(#c)' fill-opacity='.5'><path fill="#f8f9e7" fill-opacity=".5" d="M311.1 578.3L107.2-54.5l657.4 80.9z"/><ellipse fill="#56321c" fill-opacity=".5" rx="1" ry="1" transform="matrix(270.5918 79.12658 -251.61331 860.45043 859.2 512.3)"/><ellipse fill="#5d000e" fill-opacity=".5" rx="1" ry="1" transform="rotate(-87.5 225 182.6) scale(358.55858 94.34154)"/><ellipse fill="#bf4c1a" fill-opacity=".5" rx="1" ry="1" transform="matrix(-26.10864 118.7489 -189.19026 -41.59618 531.4 468)"/><ellipse fill="#fff" fill-opacity=".5" rx="1" ry="1" transform="matrix(28.4498 .58315 -3.45432 168.5237 600.4 199.5)"/><path fill="#000004" fill-opacity=".5" d="M529.1 114.3h31.6v193.3h-31.6z"/><ellipse fill="#ff0b21" fill-opacity=".5" rx="1" ry="1" transform="rotate(27.1 -269.5 151.9) scale(57.25104 129.92013)"/><ellipse fill="#ecf3f8" fill-opacity=".5" rx="1" ry="1" transform="matrix(-94.93116 -209.4752 80.75534 -36.59717 255.2 63.5)"/></g></svg>