<svg xmlns="http://www.w3.org/2000/svg" viewBox="0 0 600 900"><filter id="b"><feGaussianBlur stdDeviation="12" /></filter><path fill="#cbad84" d="M0 0h597v900H0z"/><g filter="url(#b)" transform="translate(1.8 1.8) scale(3.51563)" fill-opacity=".5"><ellipse fill="#79422e" rx="1" ry="1" transform="matrix(8.05097 -34.74805 74.34317 17.22498 150 26.5)"/><path fill="#5d322f" d="M101 194L7 175l76 64z"/><ellipse fill="#ccfdfe" rx="1" ry="1" transform="rotate(-36.1 394.1 -98.4) scale(31.46283 25.50785)"/><ellipse fill="#fee6a8" rx="1" ry="1" transform="matrix(-35.56923 55.93855 -69.0104 -43.88113 132.5 136.6)"/><ellipse fill="#eba015" rx="1" ry="1" transform="rotate(134 33.1 102.1) scale(24.75674 32.84405)"/><ellipse fill="#ffefc0" cy="43" rx="55" ry="31"/><path fill="#a06b4d" d="M30 154L60 37l75-53z"/><ellipse fill="#c3d9e4" rx="1" ry="1" transform="matrix(-28.01802 -51.97876 21.18579 -11.41974 169 117.4)"/></g></svg>