<svg xmlns="http://www.w3.org/2000/svg" viewBox="0 0 900 1350"><filter id="c"><feGaussianBlur stdDeviation="55" /></filter><path fill="#4d3b29" d="M0 0h896v1350H0z"/><g filter='url(#c)' fill-opacity='.5'><ellipse fill="#ffd397" fill-opacity=".5" rx="1" ry="1" transform="rotate(-2 23333.3 -9891.7) scale(355.98651 177.67593)"/><ellipse fill-opacity=".5" rx="1" ry="1" transform="matrix(196.85533 -.8077 1.81983 443.53209 739.5 273.2)"/><ellipse fill-opacity=".5" rx="1" ry="1" transform="matrix(-885.75576 -98.45719 17.63928 -158.68918 306.4 1347.4)"/><ellipse fill="#e4b895" fill-opacity=".5" rx="1" ry="1" transform="matrix(-64.93629 -81.34428 62.1361 -49.6026 478.8 334.5)"/><path fill="#ffe4b1" fill-opacity=".5" d="M255.8 572.2h152.9v195h-153z"/><path fill="#fff9c8" fill-opacity=".5" d="M121 1031.1l62.8 57.7-37.5-234.2-61.4 71z"/><ellipse fill="#030000" fill-opacity=".5" rx="1" ry="1" transform="matrix(-263.74184 125.63157 -53.42011 -112.14633 212 2.6)"/><ellipse fill="#1b0700" fill-opacity=".5" rx="1" ry="1" transform="rotate(-161.9 290.7 486.2) scale(153.93966 94.36984)"/></g></svg>