<svg xmlns="http://www.w3.org/2000/svg" viewBox="0 0 900 1350"><filter id="b"><feGaussianBlur stdDeviation="12" /></filter><path fill="#32261b" d="M0 0h896v1350H0z"/><g filter="url(#b)" transform="translate(2.6 2.6) scale(5.27344)" fill-opacity=".5"><ellipse fill="#d3b393" rx="1" ry="1" transform="matrix(55.50085 5.40631 -3.41738 35.08262 35 155.3)"/><ellipse rx="1" ry="1" transform="matrix(49.89265 -1.64843 5.58062 168.90783 160.4 104.4)"/><ellipse fill="#f4d4a2" rx="1" ry="1" transform="rotate(-7.2 1355 -401.6) scale(26.98441 16.92973)"/><ellipse fill="#b69b69" rx="1" ry="1" transform="matrix(46.15246 11.5071 -1.60774 6.4483 60.5 214)"/><ellipse fill="#fac69d" rx="1" ry="1" transform="matrix(-8.46624 -3.63046 4.8568 -11.32608 90.2 118.1)"/><ellipse fill="#140500" cx="34" cy="44" rx="64" ry="64"/><ellipse rx="1" ry="1" transform="matrix(5.10088 -15.69177 78.79698 25.6143 89.4 247.5)"/><path fill="#bb9c67" d="M74 207l41-4-3 21z"/></g></svg>