<svg xmlns="http://www.w3.org/2000/svg" viewBox="0 0 600 900"><filter id="b"><feGaussianBlur stdDeviation="12" /></filter><path fill="#5a453a" d="M0 0h597v900H0z"/><g filter="url(#b)" transform="translate(1.8 1.8) scale(3.51563)" fill-opacity=".5"><ellipse fill="#f8b879" cx="97" cy="128" rx="50" ry="58"/><ellipse fill="#00001d" rx="1" ry="1" transform="matrix(-38.53615 66.74658 -18.79884 -10.85351 16.7 115.6)"/><ellipse fill="#080e21" cx="13" cy="237" rx="44" ry="44"/><ellipse fill="#1e151e" rx="1" ry="1" transform="matrix(-156.03723 -52.6436 7.05524 -20.91193 75.3 13.2)"/><path fill="#232129" d="M66 271l112-6-21-142z"/><ellipse fill="#c0944a" rx="1" ry="1" transform="matrix(4.7608 9.9465 -24.13636 11.55265 37.4 36.7)"/><path fill="#131623" d="M49 172L-1-16l-15 165z"/><ellipse fill="#b17a5b" rx="1" ry="1" transform="matrix(-13.9215 8.1407 -10.8914 -18.62549 69 223)"/></g></svg>