<svg xmlns="http://www.w3.org/2000/svg" viewBox="0 0 600 900"><filter id="c"><feGaussianBlur stdDeviation="55" /></filter><path fill="#bba383" d="M0 0h597v900H0z"/><g filter='url(#c)' fill-opacity='.5'><ellipse fill-opacity=".5" rx="1" ry="1" transform="matrix(31.93418 107.50208 -206.4359 61.3231 158.3 93.4)"/><ellipse fill="#3a0d00" fill-opacity=".5" rx="1" ry="1" transform="matrix(36.63949 -187.005 140.71613 27.5702 535 829.4)"/><ellipse fill="#fff6d9" fill-opacity=".5" rx="1" ry="1" transform="matrix(-57.24872 -427.31533 214.97622 -28.80101 95.4 655.6)"/><ellipse fill="#f7fcff" fill-opacity=".5" rx="1" ry="1" transform="rotate(51.8 160.4 591) scale(285.79632 63.08707)"/><path fill="#371600" fill-opacity=".5" d="M406 522l207.5 337.6L349.8 617z"/><path fill="#edc67e" fill-opacity=".5" d="M142.4 455.3L536 272.5l-281 559z"/><ellipse fill="#fff4f2" fill-opacity=".5" rx="1" ry="1" transform="matrix(63.30995 -36.25795 232.17676 405.40347 72.4 669.8)"/><path fill="#e0e1e6" fill-opacity=".5" d="M245.8 544.8l56.3 13.2 175.3-266.6-249.2 141z"/></g></svg>