<svg xmlns="http://www.w3.org/2000/svg" viewBox="0 0 820 547"><filter id="b"><feGaussianBlur stdDeviation="12" /></filter><path fill="#b1a08d" d="M0 0h820v544H0z"/><g filter="url(#b)" transform="translate(1.6 1.6) scale(3.20313)" fill-opacity=".5"><ellipse rx="1" ry="1" transform="matrix(37.09383 -61.02327 34.65774 21.06718 235.6 30.2)"/><ellipse fill="#200000" rx="1" ry="1" transform="matrix(-8.67857 -18.12948 32.59053 -15.60106 129.6 115.4)"/><ellipse fill="#fff" rx="1" ry="1" transform="matrix(-28.815 -16.23642 12.58574 -22.3361 128.7 59.2)"/><ellipse fill="#e9edea" cx="16" cy="169" rx="48" ry="149"/><ellipse fill="#3a0000" cx="78" cy="75" rx="30" ry="12"/><ellipse fill="#fefef3" rx="1" ry="1" transform="rotate(66.7 -3.2 243.4) scale(26.89685 175.05592)"/><path fill="#130f00" d="M80.7 128.8l-9 16.7-34.4-18.3 9-16.7z"/><path fill="#1a1102" d="M61.6 129L14.5 67 28 58l-4.8 1z"/></g></svg>