<svg xmlns="http://www.w3.org/2000/svg" viewBox="0 0 900 506"><filter id="c"><feGaussianBlur stdDeviation="55" /></filter><path fill="#9a7658" d="M0 0h900v502H0z"/><g filter='url(#c)' fill-opacity='.5'><ellipse fill="#fff" fill-opacity=".5" rx="1" ry="1" transform="rotate(-142.3 336.4 131) scale(313.90854 175.39311)"/><ellipse fill-opacity=".5" rx="1" ry="1" transform="matrix(18.65657 -87.12744 339.89016 72.78058 665.4 50.8)"/><ellipse fill="#020000" fill-opacity=".5" rx="1" ry="1" transform="rotate(110.6 -.6 105.2) scale(265.94538 130.95704)"/><ellipse fill="#ffffe3" fill-opacity=".5" rx="1" ry="1" transform="rotate(-111.6 325.9 21.9) scale(391.19993 65.78655)"/><ellipse fill="#ff4600" fill-opacity=".5" rx="1" ry="1" transform="matrix(-65.43729 -27.50713 59.65878 -141.92351 236.7 236.1)"/><ellipse fill-opacity=".5" rx="1" ry="1" transform="matrix(70.77455 -148.82365 72.90283 34.66966 709 82.9)"/><path fill="#fffdec" fill-opacity=".5" d="M283 335.7h481.6v161.8H283z"/><ellipse fill="#fff" fill-opacity=".5" rx="1" ry="1" transform="matrix(-90.3261 30.92554 -8.45752 -24.7024 714.2 236.5)"/></g></svg>