<svg xmlns="http://www.w3.org/2000/svg" viewBox="0 0 600 900"><filter id="b"><feGaussianBlur stdDeviation="12" /></filter><path fill="#775436" d="M0 0h597v900H0z"/><g filter="url(#b)" transform="translate(1.8 1.8) scale(3.51563)" fill-opacity=".5"><ellipse fill="#ffe7cc" rx="1" ry="1" transform="matrix(19.70201 -31.5811 55.65635 34.72146 135.2 211)"/><ellipse fill="#fff" rx="1" ry="1" transform="matrix(5.02328 14.30754 -29.58587 10.3874 44 182)"/><ellipse fill="#0c0000" rx="1" ry="1" transform="matrix(4.27686 47.92133 -53.7643 4.79834 22 124.5)"/><ellipse fill="#160e00" rx="1" ry="1" transform="rotate(-98.7 105 -24.6) scale(104.4492 44.37905)"/><ellipse fill="#c51600" cx="85" cy="189" rx="32" ry="18"/><ellipse fill="#f29d52" rx="1" ry="1" transform="matrix(29.47702 47.1731 -14.21146 8.8803 62.4 38.5)"/><ellipse fill="#b4c5db" cx="85" cy="255" rx="100" ry="9"/><ellipse fill="#fffffc" rx="1" ry="1" transform="matrix(17.1647 2.90967 -3.05943 18.04819 41 185.9)"/></g></svg>