<svg xmlns="http://www.w3.org/2000/svg" viewBox="0 0 820 547"><filter id="c"><feGaussianBlur stdDeviation="55" /></filter><path fill="#59463c" d="M0 0h820v544H0z"/><g filter='url(#c)' fill-opacity='.5'><ellipse fill="#cdad97" fill-opacity=".5" rx="1" ry="1" transform="matrix(-85.73817 48.11402 -118.67424 -211.47501 646.8 258.7)"/><ellipse fill-opacity=".5" rx="1" ry="1" transform="matrix(-147.81947 117.9445 -144.92516 -181.63425 458.4 543)"/><path fill="#fff2ee" fill-opacity=".5" d="M-39 185.7L389-32.4 413.9 16-14.3 234.2z"/><ellipse fill="#d2b5a0" fill-opacity=".5" rx="1" ry="1" transform="matrix(3.19194 -88.2796 156.37544 5.6541 75.1 478)"/><ellipse fill-opacity=".5" rx="1" ry="1" transform="matrix(-38.78866 -56.32906 269.34515 -185.47328 168.9 225.3)"/><ellipse fill-opacity=".5" rx="1" ry="1" transform="matrix(-394.36458 118.51639 -21.84101 -72.67621 1.6 52.8)"/><ellipse fill-opacity=".5" rx="1" ry="1" transform="matrix(-4.57028 41.3971 -293.64125 -32.4183 708 20.7)"/><path fill="#e2bca6" fill-opacity=".5" d="M472.5 88L575 203.5 296.3 181z"/></g></svg>