<svg xmlns="http://www.w3.org/2000/svg" viewBox="0 0 820 547"><filter id="b"><feGaussianBlur stdDeviation="12" /></filter><path fill="#d6c9bb" d="M0 0h820v544H0z"/><g filter="url(#b)" transform="translate(1.6 1.6) scale(3.20313)" fill-opacity=".5"><ellipse fill="#8c7a64" rx="1" ry="1" transform="matrix(45.71845 -33.11056 49.77577 68.72946 90.1 113)"/><ellipse fill="#fff" rx="1" ry="1" transform="matrix(46.02648 -6.8787 13.354 89.35368 204.5 122)"/><ellipse fill="#866558" rx="1" ry="1" transform="matrix(29.47331 -8.73947 12.83685 43.29145 234.1 25.2)"/><ellipse fill="#fff" cx="87" cy="19" rx="116" ry="22"/><ellipse fill="#fff" rx="1" ry="1" transform="rotate(-92 51.5 47.8) scale(83.23487 17.81264)"/><path fill="#2b3539" d="M25.4 62.3l2.5-20.9 34.7 4.3-2.5 20.9z"/><ellipse fill="#596552" cx="92" cy="143" rx="40" ry="16"/><path fill="#f8d4ba" d="M104.3 97.4l-21.1 6L53.7.7l21.1-6z"/></g></svg>