<svg xmlns="http://www.w3.org/2000/svg" viewBox="0 0 820 547"><filter id="b"><feGaussianBlur stdDeviation="12" /></filter><path fill="#a7afa3" d="M0 0h820v544H0z"/><g filter="url(#b)" transform="translate(1.6 1.6) scale(3.20313)" fill-opacity=".5"><ellipse rx="1" ry="1" transform="matrix(6.41517 53.99486 -66.0046 7.84206 201.4 79.9)"/><ellipse fill="#fff" rx="1" ry="1" transform="matrix(7.6534 35.10165 -249.14661 54.32275 73.7 20.7)"/><ellipse fill="#ffffef" rx="1" ry="1" transform="matrix(-87.24845 -26.83916 16.23801 -52.78636 9.9 138)"/><ellipse fill="#00bf95" cx="69" cy="83" rx="25" ry="24"/><path fill="#ffffe5" d="M219 92h16v78h-16z"/><ellipse fill="#000720" rx="1" ry="1" transform="rotate(-37.6 218.3 -262.8) scale(44.71419 23.71921)"/><ellipse fill="#008c5a" cx="112" cy="85" rx="4" ry="77"/><ellipse fill="#000002" rx="1" ry="1" transform="matrix(11.97783 5.8074 -6.09042 12.56154 135.3 109.2)"/></g></svg>