<svg xmlns="http://www.w3.org/2000/svg" viewBox="0 0 2456 3680"><filter id="b"><feGaussianBlur stdDeviation="12" /></filter><path fill="#4f4945" d="M0 0h2458v3680H0z"/><g filter="url(#b)" transform="translate(7.2 7.2) scale(14.375)" fill-opacity=".5"><ellipse fill="#f9ccb2" cx="72" cy="157" rx="54" ry="54"/><ellipse fill="#000004" cx="26" cy="238" rx="161" ry="29"/><ellipse fill="#cdc3b6" rx="1" ry="1" transform="matrix(15.67335 -5.75886 15.46694 42.09494 155.8 174.4)"/><ellipse rx="1" ry="1" transform="rotate(126.6 41.8 86.2) scale(14.35739 51.03597)"/><path fill="#211603" d="M44.3 185.9l-1.5-28 35-1.8 1.4 28z"/><ellipse fill="#142028" rx="1" ry="1" transform="rotate(-64.3 72 18.6) scale(140.31544 29.36539)"/><ellipse fill="#ffbb86" rx="1" ry="1" transform="matrix(3.8485 -9.8676 23.39535 9.1245 160.6 94)"/><ellipse fill="#03090d" rx="1" ry="1" transform="rotate(-23 136 -382.8) scale(19.36344 93.25424)"/></g></svg>