<svg xmlns="http://www.w3.org/2000/svg" viewBox="0 0 900 600"><filter id="b"><feGaussianBlur stdDeviation="12" /></filter><path fill="#9f6234" d="M0 0h900v597H0z"/><g filter="url(#b)" transform="translate(1.8 1.8) scale(3.51563)" fill-opacity=".5"><ellipse cx="239" cy="88" rx="34" ry="255"/><ellipse fill="#e6a56c" rx="1" ry="1" transform="matrix(67.27669 53.32285 -42.58495 53.72884 75.4 93.6)"/><ellipse fill="#2a0000" cx="213" cy="153" rx="57" ry="27"/><path fill="#fff" d="M61.8 124l78.7 7.2 70.4-18.8-60.3 31.2z"/><path fill="#fffbcb" d="M210 76l-2 36-35-69z"/><path fill="#591100" d="M182-45.2L293.4 97.4 250 131.2 138.6-11.4z"/><path fill="#fffff4" d="M68 63l-8 34 65-65z"/><path fill="#fff4c1" d="M195.5 68.8l-57-31.7-37.7 6.8 47-22.8z"/></g></svg>