<svg xmlns="http://www.w3.org/2000/svg" viewBox="0 0 900 600"><filter id="b"><feGaussianBlur stdDeviation="12" /></filter><path fill="#a98a70" d="M0 0h900v597H0z"/><g filter="url(#b)" transform="translate(1.8 1.8) scale(3.51563)" fill-opacity=".5"><ellipse fill="#fffffd" rx="1" ry="1" transform="rotate(174.2 58.6 42.5) scale(79.65565 41.4371)"/><ellipse fill="#350e00" cx="180" cy="150" rx="134" ry="23"/><path fill="#010000" d="M173.8-5.2l25.7-38.1 98.7 66.5-25.7 38.1z"/><ellipse fill="#d8dce3" cx="224" cy="137" rx="12" ry="29"/><ellipse fill="#3d1900" rx="1" ry="1" transform="matrix(54.84518 -66.53252 10.0994 8.3253 168 152.3)"/><path fill="#260000" d="M73 145l-21-27 92 31z"/><ellipse fill="#52332a" rx="1" ry="1" transform="matrix(51.0512 30.35707 -7.52096 12.64792 234 64.6)"/><ellipse fill="#88430f" rx="1" ry="1" transform="matrix(87.75672 -66.92931 19.00824 24.92333 23.3 0)"/></g></svg>