<svg xmlns="http://www.w3.org/2000/svg" viewBox="0 0 900 600"><filter id="c"><feGaussianBlur stdDeviation="55" /></filter><path fill="#97592b" d="M0 0h900v597H0z"/><g filter='url(#c)' fill-opacity='.5'><ellipse fill="#200" fill-opacity=".5" rx="1" ry="1" transform="matrix(-202.45348 -2.12017 6.1962 -591.67202 828.2 341.7)"/><ellipse fill="#ecb37c" fill-opacity=".5" rx="1" ry="1" transform="matrix(-43.80748 182.4577 -351.39909 -84.36974 288.2 333.5)"/><path fill="#fff0c5" fill-opacity=".5" d="M523.2 109.7L448.9 262 188 410.8 479 98.1z"/><ellipse fill="#863300" fill-opacity=".5" rx="1" ry="1" transform="rotate(-161.2 256.6 151.5) scale(131.64507 83.26506)"/><path fill="#fff" fill-opacity=".5" d="M203.6 463.8l181 69.8L642.3 458l-245.7 21.5z"/><path fill="#390500" fill-opacity=".5" d="M954.5 648.6V455.3l-689 94.9z"/><ellipse fill="#813000" fill-opacity=".5" rx="1" ry="1" transform="matrix(6.2158 108.95294 -190.51334 10.86886 668.5 191.8)"/><path fill="#ffffed" fill-opacity=".5" d="M465.8 202.1l-154.7-98.4 3.5 70.3z"/></g></svg>