<svg xmlns="http://www.w3.org/2000/svg" viewBox="0 0 600 900"><filter id="c"><feGaussianBlur stdDeviation="55" /></filter><path fill="#7c593a" d="M0 0h597v900H0z"/><g filter='url(#c)' fill-opacity='.5'><path fill="#ffffc3" fill-opacity=".5" d="M517.1 293.2l-18.7 358-379.2-19.8 18.8-358z"/><ellipse fill="#000001" fill-opacity=".5" rx="1" ry="1" transform="matrix(26.44056 -154.68365 585.64649 100.10639 192.5 862.8)"/><ellipse fill="#0b0008" fill-opacity=".5" rx="1" ry="1" transform="rotate(169.1 115.4 54.7) scale(594.14063 142.74564)"/><ellipse fill="#ffffc6" fill-opacity=".5" rx="1" ry="1" transform="matrix(215.62739 -38.12657 20.79899 117.63009 307.3 496.5)"/><ellipse fill="#060000" fill-opacity=".5" rx="1" ry="1" transform="matrix(73.85655 -.88851 7.14713 594.09764 21.7 524.8)"/><ellipse fill="#e25d00" fill-opacity=".5" rx="1" ry="1" transform="matrix(128.86054 -95.9966 47.23606 63.40708 213.6 310.5)"/><ellipse fill="#ed7c24" fill-opacity=".5" rx="1" ry="1" transform="matrix(-349.41976 47.64679 -9.33606 -68.46638 488.7 645)"/><ellipse fill="#ffa242" fill-opacity=".5" rx="1" ry="1" transform="matrix(79.2103 77.804 -44.45906 45.26266 424.5 306.8)"/></g></svg>