<svg xmlns="http://www.w3.org/2000/svg" viewBox="0 0 820 547"><filter id="b"><feGaussianBlur stdDeviation="12" /></filter><path fill="#b19b7b" d="M0 0h820v544H0z"/><g filter="url(#b)" transform="translate(1.6 1.6) scale(3.20313)" fill-opacity=".5"><ellipse fill="#fff" rx="1" ry="1" transform="matrix(29.82104 81.67656 -40.42273 14.7588 232.7 167)"/><ellipse fill="#ffffd5" rx="1" ry="1" transform="matrix(68.29097 -21.66317 9.58546 30.21721 103.1 78.2)"/><path fill="#641a00" d="M48.1-38.1L36.7 92.4-12.1 88-.7-42.4z"/><ellipse fill="#783305" cx="217" rx="149" ry="40"/><ellipse fill="#2a3429" cx="96" cy="136" rx="70" ry="18"/><path fill="#0a0f00" d="M204.3 134.1l-53.8-38 42.2 13.7 8.9 14.7z"/><path fill="#ffffe2" d="M152.1 69.6l76 17.5-6.2 27.3-76-17.5z"/><path fill="#6d3d19" d="M219 0h37v67h-37z"/></g></svg>