<svg xmlns="http://www.w3.org/2000/svg" viewBox="0 0 600 900"><filter id="c"><feGaussianBlur stdDeviation="55" /></filter><path fill="#b99669" d="M0 0h597v900H0z"/><g filter='url(#c)' fill-opacity='.5'><ellipse fill="#240000" fill-opacity=".5" rx="1" ry="1" transform="matrix(2.32152 384.05472 -204.84654 1.23825 206.9 859.5)"/><ellipse fill="#fff" fill-opacity=".5" rx="1" ry="1" transform="matrix(211.76948 -551.67836 128.72172 49.41164 76.8 216.4)"/><ellipse fill="#ffffdb" fill-opacity=".5" rx="1" ry="1" transform="matrix(-421.5848 -418.65181 122.1867 -123.04272 497.1 126.3)"/><ellipse fill="#872700" fill-opacity=".5" rx="1" ry="1" transform="rotate(-77.9 352.5 -29.9) scale(91.69798 139.75634)"/><ellipse fill="#fff" fill-opacity=".5" rx="1" ry="1" transform="matrix(108.7926 -72.8303 36.04463 53.84283 464.8 473.8)"/><ellipse fill="#2b1e00" fill-opacity=".5" rx="1" ry="1" transform="matrix(8.95435 -121.0348 377.91084 27.95845 231.9 861.8)"/><ellipse fill="#fffffb" fill-opacity=".5" rx="1" ry="1" transform="rotate(161.5 230.2 383) scale(115.6918 51.21956)"/><ellipse fill="#cb7411" fill-opacity=".5" rx="1" ry="1" transform="matrix(-44.95434 31.59444 -153.7622 -218.78147 325.3 639.5)"/></g></svg>