<svg xmlns="http://www.w3.org/2000/svg" viewBox="0 0 600 900"><filter id="b"><feGaussianBlur stdDeviation="12" /></filter><path fill="#664627" d="M0 0h597v900H0z"/><g filter="url(#b)" transform="translate(1.8 1.8) scale(3.51563)" fill-opacity=".5"><ellipse fill="#ffbc63" rx="1" ry="1" transform="matrix(-9.54623 -69.68916 61.88078 -8.47661 169 166.6)"/><ellipse fill="#ffffef" rx="1" ry="1" transform="matrix(58.4667 23.74087 -3.87989 9.55501 31.4 195.9)"/><ellipse fill="#000003" rx="1" ry="1" transform="matrix(-164.87801 37.09772 -13.9219 -61.87485 50 47.4)"/><ellipse fill="#fede8c" rx="1" ry="1" transform="matrix(9.14107 3.27106 -24.94254 69.70253 32 181.1)"/><path fill="#ffb85f" d="M126 222.7l-74.6-6.5 2.5-29 74.7 6.6z"/><path fill="#fff" d="M83 76h7v32h-7z"/><ellipse cx="136" cy="255" rx="55" ry="20"/><ellipse fill="#08010d" rx="1" ry="1" transform="rotate(121.6 -27 62.7) scale(60.24959 31.78232)"/></g></svg>