<svg xmlns="http://www.w3.org/2000/svg" viewBox="0 0 600 812"><filter id="b"><feGaussianBlur stdDeviation="12" /></filter><path fill="#c5c1b5" d="M0 0h599v812H0z"/><g filter="url(#b)" transform="translate(1.6 1.6) scale(3.17188)" fill-opacity=".5"><ellipse fill="#956736" rx="1" ry="1" transform="matrix(-5.1458 94.8289 -56.3436 -3.05743 87 153.8)"/><ellipse fill="#fff" rx="1" ry="1" transform="matrix(30.31742 0 0 188.00002 173.8 131.2)"/><ellipse fill="#f5ffff" rx="1" ry="1" transform="matrix(-49.88073 -10.60248 14.32105 -67.37524 22 25)"/><ellipse fill="#7fb3e1" cx="21" cy="170" rx="30" ry="92"/><ellipse fill="#434e50" rx="1" ry="1" transform="matrix(49.8624 6.88033 -2.65246 19.22262 62 226)"/><ellipse fill="#fbd5a4" cx="119" cy="72" rx="30" ry="78"/><path fill="#c05412" d="M56 130h98v49H56z"/><ellipse fill="#efffff" rx="1" ry="1" transform="matrix(27.5639 13.5262 -51.49764 104.94272 158.3 209.2)"/></g></svg>