<svg xmlns="http://www.w3.org/2000/svg" viewBox="0 0 600 900"><filter id="b"><feGaussianBlur stdDeviation="12" /></filter><path fill="#9b7157" d="M0 0h597v900H0z"/><g filter="url(#b)" transform="translate(1.8 1.8) scale(3.51563)" fill-opacity=".5"><ellipse fill="#00000a" rx="1" ry="1" transform="rotate(-79.4 140.4 101.2) scale(26.31231 63.91594)"/><ellipse fill="#ecc589" rx="1" ry="1" transform="matrix(57.21096 -55.86489 27.2023 27.85774 134.8 101.2)"/><ellipse fill="#ffe09f" cx="96" cy="190" rx="55" ry="23"/><path fill="#fdffff" d="M-19.6 61.2l42.8-34.6 16.4 20.2-42.8 34.6z"/><ellipse fill="#471b28" rx="1" ry="1" transform="matrix(3.49888 -39.99244 151.9022 13.28972 89.8 1.1)"/><ellipse fill="#1b0218" rx="1" ry="1" transform="matrix(67.93162 -6.67694 1.26902 12.9111 142.1 223)"/><path fill="#471d26" d="M9 69h28v83H9z"/><ellipse fill="#d48646" cx="78" cy="102" rx="46" ry="62"/></g></svg>