<svg xmlns="http://www.w3.org/2000/svg" viewBox="0 0 600 900"><filter id="b"><feGaussianBlur stdDeviation="12" /></filter><path fill="#1c1915" d="M0 0h597v900H0z"/><g filter="url(#b)" transform="translate(1.8 1.8) scale(3.51563)" fill-opacity=".5"><ellipse fill="#df9028" rx="1" ry="1" transform="rotate(44.6 -179.3 172.8) scale(43.38797 25.19925)"/><path fill="#c66410" d="M110 183.7l49.5 12.3-5.5 22.3-49.5-12.3z"/><path fill="#ac8235" d="M46.2 156.6l50.1-.3L91 191l-51.7 12.4z"/><ellipse fill="#000d1c" rx="1" ry="1" transform="matrix(-64.87579 51.05221 -104.51102 -132.80981 82 37.6)"/><path fill="#281606" d="M39.9 231.5l67.3-62.7 10.9 11.7-67.3 62.7z"/><ellipse fill="#080609" cx="18" cy="158" rx="24" ry="169"/><ellipse fill="#000005" rx="1" ry="1" transform="matrix(.21 17.1884 -168.98734 2.06467 42 254.5)"/><ellipse fill="#151d25" cx="76" cy="94" rx="83" ry="45"/></g></svg>