<svg xmlns="http://www.w3.org/2000/svg" viewBox="0 0 1192 1192"><filter id="b"><feGaussianBlur stdDeviation="12" /></filter><path fill="#d8caba" d="M0 0h1192v1192H0z"/><g filter="url(#b)" transform="translate(2.3 2.3) scale(4.65625)" fill-opacity=".5"><ellipse rx="1" ry="1" transform="matrix(16.93909 10.66711 -20.43936 32.45715 45.1 68.2)"/><ellipse rx="1" ry="1" transform="rotate(-73.2 191.7 -80.7) scale(40.61639 11.85595)"/><ellipse fill="#cc8031" rx="1" ry="1" transform="rotate(1.7 -7786.5 2332.6) scale(255 30.06249)"/><ellipse fill="#fff" cx="117" cy="131" rx="79" ry="79"/><ellipse fill="#7d541f" rx="1" ry="1" transform="matrix(-9.9759 -52.79594 30.59298 -5.7806 110.6 32.3)"/><ellipse fill="#fff" rx="1" ry="1" transform="matrix(-54.77055 36.87458 -32.85423 -48.79905 197.5 34.5)"/><path fill="#00000c" d="M32 119L17 34l51 22z"/><ellipse fill="#131229" cx="218" cy="137" rx="17" ry="27"/></g></svg>