<svg xmlns="http://www.w3.org/2000/svg" viewBox="0 0 598 795"><filter id="b"><feGaussianBlur stdDeviation="12" /></filter><path fill="#f2f0f4" d="M0 0h596v795H0z"/><g filter="url(#b)" transform="translate(1.6 1.6) scale(3.10547)" fill-opacity=".5"><ellipse fill="#9c97a3" rx="1" ry="1" transform="matrix(6.25048 -.49192 9.02133 114.62684 51.5 126.6)"/><path fill="#7b7584" d="M94.7 217.4l6.8 20.9 18.6 7.5-77.8-7.8z"/><ellipse fill="#c7c4cf" rx="1" ry="1" transform="rotate(90.6 30.9 110.1) scale(48.77149 36.26733)"/><path fill="#4f4758" d="M57 195l-13 13 31 2z"/><path fill="#fff" d="M207 271L141 48l-40 215z"/><path fill="#7b7482" d="M39 150.3l17.6-6.9-16.7 43 21.6-5.6z"/><ellipse fill="#fff" cx="81" cy="52" rx="29" ry="169"/><path fill="#605868" d="M42.3 115l-.5 18 13.2-6.6-4.4-10.7z"/></g></svg>