<svg xmlns="http://www.w3.org/2000/svg" viewBox="0 0 1018 883"><filter id="b"><feGaussianBlur stdDeviation="12" /></filter><path fill="#a19791" d="M0 0h1018v882H0z"/><g filter="url(#b)" transform="translate(2 2) scale(3.97656)" fill-opacity=".5"><ellipse fill="#0f0000" rx="1" ry="1" transform="matrix(199.33387 -10.79554 2.66169 49.1467 70.2 77.3)"/><ellipse fill="#fff" cx="150" cy="179" rx="255" ry="53"/><ellipse fill="#fff" cx="151" cy="12" rx="255" ry="16"/><ellipse fill="#fff87e" rx="1" ry="1" transform="rotate(-164.4 52.8 22.7) scale(31.3762 22.2196)"/><ellipse rx="1" ry="1" transform="matrix(46.7539 1.0283 -.92676 42.13697 22 68.2)"/><ellipse fill="#c2cff1" rx="1" ry="1" transform="rotate(-25.9 267 -377) scale(16.10666 42.85293)"/><path d="M136.1 177.4l-.2-12 50-.8.2 12z"/><ellipse rx="1" ry="1" transform="rotate(88.3 -58.5 115.6) scale(81.3314 5.61176)"/></g></svg>