<svg xmlns="http://www.w3.org/2000/svg" viewBox="0 0 300 164"><filter id="c"><feGaussianBlur stdDeviation="55" /></filter><path fill="#f0e7cf" d="M0 0h300v162H0z"/><g filter='url(#c)' fill-opacity='.5'><path fill="#c0962f" fill-opacity=".5" d="M239.6 151.8L162.3 13.5 58 150.5z"/><ellipse fill="#fff" fill-opacity=".5" rx="1" ry="1" transform="rotate(111.9 -11 43) scale(148.86685 46.11039)"/><ellipse fill="#fff" fill-opacity=".5" rx="1" ry="1" transform="matrix(-51.24556 8.94378 -31.8803 -182.66584 264.8 57.9)"/><path fill="#be6d12" fill-opacity=".5" d="M236 106.8l10.5 24.8-59.4 25.2-10.5-24.8z"/><ellipse fill="#f0f7f0" fill-opacity=".5" rx="1" ry="1" transform="matrix(-12.91781 -22.18936 33.478 -19.48963 192.5 102.1)"/><ellipse fill="#c9812f" fill-opacity=".5" rx="1" ry="1" transform="matrix(-3.99928 12.23583 -47.37185 -15.4835 93.8 134.8)"/><path fill="#fff" fill-opacity=".5" d="M-18.2-15.7L1 86.8 121.2 132 112 79.9z"/><ellipse fill="#fff" fill-opacity=".5" rx="1" ry="1" transform="matrix(2.78856 23.92983 -103.00037 12.0027 123.3 6.8)"/></g></svg>