<svg xmlns="http://www.w3.org/2000/svg" viewBox="0 0 1000 631"><filter id="b"><feGaussianBlur stdDeviation="12" /></filter><path fill="#dfe2cf" d="M0 0h1000v628H0z"/><g filter="url(#b)" transform="translate(2 2) scale(3.90625)" fill-opacity=".5"><ellipse fill="#6bb6ff" rx="1" ry="1" transform="matrix(64.48206 -34.65206 11.13668 20.72362 38 1.8)"/><ellipse fill="#fbf3e7" cx="25" cy="99" rx="49" ry="34"/><ellipse fill="#b0b796" rx="1" ry="1" transform="matrix(-76.14786 -45.6224 1.79223 -2.99139 201 140.4)"/><ellipse fill="#f5f4e7" cx="86" cy="146" rx="46" ry="46"/><path fill="#dbde9a" d="M18 172l-28-25 60-28z"/><path fill="#c2dd96" d="M117.7 96.1l-20 10.4 1.1 5.1-55.4-59.3z"/><ellipse fill="#9fcbff" rx="1" ry="1" transform="matrix(-11.92854 -19.9217 37.48536 -22.44516 28.1 7.9)"/><path fill="#b7da74" d="M-16 64.7l45.5-13.1-12.1-6.2-33.4-3z"/></g></svg>