<svg xmlns="http://www.w3.org/2000/svg" viewBox="0 0 600 900"><filter id="c"><feGaussianBlur stdDeviation="55" /></filter><path fill="#7f6851" d="M0 0h597v900H0z"/><g filter='url(#c)' fill-opacity='.5'><ellipse fill="#ffffce" fill-opacity=".5" rx="1" ry="1" transform="matrix(41.88435 -160.3176 321.73805 84.05683 297.6 581.7)"/><ellipse fill="#010000" fill-opacity=".5" rx="1" ry="1" transform="matrix(565.06132 183.59955 -68.55833 211.00086 396 185.5)"/><path fill="#fff" fill-opacity=".5" d="M593.5 654.6l137.1 85.7L598.3 952l-137.1-85.7z"/><ellipse fill="#fffaff" fill-opacity=".5" rx="1" ry="1" transform="matrix(227.46785 -113.41129 28.30875 56.77856 186.3 526)"/><ellipse fill="#120000" fill-opacity=".5" rx="1" ry="1" transform="matrix(-127.68185 -98.80786 45.41275 -58.68343 573.1 483.3)"/><path fill="#350400" fill-opacity=".5" d="M33 691l359.7 83-21.4 92.5-359.7-83z"/><ellipse fill="#ba7217" fill-opacity=".5" rx="1" ry="1" transform="matrix(-24.42713 57.6336 -159.07713 -67.42244 415.8 580.4)"/><path fill="#f7ffff" fill-opacity=".5" d="M174.5 326.4l-1 56.3L33 380.2l1-56.2z"/></g></svg>