<svg xmlns="http://www.w3.org/2000/svg" viewBox="0 0 600 900"><filter id="b"><feGaussianBlur stdDeviation="12" /></filter><path fill="#d5a852" d="M0 0h597v900H0z"/><g filter="url(#b)" transform="translate(1.8 1.8) scale(3.51563)" fill-opacity=".5"><ellipse fill="#feffb9" rx="1" ry="1" transform="rotate(-7.9 1806.3 -698.4) scale(169 24.79885)"/><ellipse fill="#c35112" rx="1" ry="1" transform="matrix(43.30898 -46.4432 31.09562 28.99714 68.8 162.4)"/><ellipse fill="#5c882d" rx="1" ry="1" transform="rotate(-79.5 51.5 -62) scale(14.75751 122.7982)"/><ellipse fill="#f2faac" rx="1" ry="1" transform="matrix(-14.87883 -5.98243 39.92694 -99.3019 169 173.4)"/><ellipse fill="#f4892a" cx="73" cy="74" rx="53" ry="53"/><ellipse fill="#ff9f39" rx="1" ry="1" transform="rotate(141.1 16 114.7) scale(68.81496 25.36067)"/><ellipse fill="#d2f295" cx="11" cy="16" rx="52" ry="21"/><path fill="#e40100" d="M60.8 130.8l57.3-14.2 3.1 12.6-57.3 14.2z"/></g></svg>