<svg xmlns="http://www.w3.org/2000/svg" viewBox="0 0 900 600"><filter id="b"><feGaussianBlur stdDeviation="12" /></filter><path fill="#af8f7a" d="M0 0h900v597H0z"/><g filter="url(#b)" transform="translate(1.8 1.8) scale(3.51563)" fill-opacity=".5"><ellipse fill="#080f1e" rx="1" ry="1" transform="matrix(49.35024 43.4495 -19.3827 22.01501 0 37.6)"/><ellipse fill="#2f313c" rx="1" ry="1" transform="matrix(-40.57468 -251.68424 37.52972 -6.05027 255 79.6)"/><ellipse fill="#ffcda4" rx="1" ry="1" transform="matrix(-57.1048 -59.1751 35.31291 -34.07745 161 80.8)"/><ellipse fill="#fffff9" rx="1" ry="1" transform="matrix(-6.6107 -9.47622 52.4069 -36.55955 94.8 108.9)"/><path fill="#000002" d="M49 68l84-4-32 23z"/><ellipse fill="#ffd0a8" cx="94" cy="37" rx="55" ry="25"/><ellipse fill="#e8d9c9" rx="1" ry="1" transform="rotate(-134.9 46.3 74.4) scale(49.18534 34.71056)"/><ellipse fill="#44484c" cx="229" rx="177" ry="17"/></g></svg>