<svg xmlns="http://www.w3.org/2000/svg" viewBox="0 0 900 600"><filter id="b"><feGaussianBlur stdDeviation="12" /></filter><path fill="#af7247" d="M0 0h900v597H0z"/><g filter="url(#b)" transform="translate(1.8 1.8) scale(3.51563)" fill-opacity=".5"><ellipse fill="#00153b" rx="1" ry="1" transform="matrix(185.71125 -11.25888 1.55297 25.61565 123.6 0)"/><ellipse fill="#f5b26a" rx="1" ry="1" transform="rotate(12.3 -512.4 392.8) scale(23.11316 102.79702)"/><path fill="#190b22" d="M138 174l40-38-98 25z"/><ellipse fill="#e48d47" cx="197" cy="80" rx="70" ry="70"/><path fill="#00072d" d="M168 13h25v22h-25z"/><ellipse fill="#ffffeb" rx="1" ry="1" transform="matrix(4.846 -1.67404 6.93087 20.06353 86.6 9)"/><ellipse fill="#2e081e" rx="1" ry="1" transform="matrix(32.45989 8.45517 -1.87673 7.20487 32.5 80)"/><ellipse fill="#fc9943" rx="1" ry="1" transform="matrix(16.25843 -15.66338 22.01438 22.8507 109.7 133.8)"/></g></svg>