<svg xmlns="http://www.w3.org/2000/svg" viewBox="0 0 900 600"><filter id="b"><feGaussianBlur stdDeviation="12" /></filter><path fill="#816a60" d="M0 0h900v597H0z"/><g filter="url(#b)" transform="translate(1.8 1.8) scale(3.51563)" fill-opacity=".5"><ellipse fill="#fffacd" rx="1" ry="1" transform="rotate(94.3 26.4 24.5) scale(69.25482 75.3844)"/><ellipse fill="#000010" rx="1" ry="1" transform="matrix(-55.37565 4.40739 -3.03119 -38.0847 165.2 141.7)"/><ellipse fill="#321820" rx="1" ry="1" transform="rotate(-111.7 70.3 21.6) scale(25.37042 43.36215)"/><ellipse fill="#fca342" cx="83" cy="55" rx="60" ry="13"/><ellipse fill="#c6d3c2" rx="1" ry="1" transform="rotate(23.2 -145.3 55.4) scale(21.39794 152.23936)"/><ellipse fill="#6a4042" cx="180" cy="98" rx="136" ry="23"/><ellipse fill="#00192a" rx="1" ry="1" transform="matrix(.455 28.96439 -48.26365 .75819 169 149.6)"/><ellipse fill="#b28f7b" rx="1" ry="1" transform="rotate(26.2 51.1 331.7) scale(35.84491 71.64297)"/></g></svg>