<svg xmlns="http://www.w3.org/2000/svg" viewBox="0 0 900 600"><filter id="c"><feGaussianBlur stdDeviation="55" /></filter><path fill="#735644" d="M0 0h900v597H0z"/><g filter='url(#c)' fill-opacity='.5'><ellipse fill="#f6a969" fill-opacity=".5" rx="1" ry="1" transform="matrix(608.44013 -2.9106 .33235 69.4755 638.2 327)"/><ellipse fill="#001028" fill-opacity=".5" rx="1" ry="1" transform="rotate(176.7 222 105.5) scale(792.15047 49.14397)"/><ellipse fill="#001029" fill-opacity=".5" rx="1" ry="1" transform="matrix(-792.62723 -67.95212 4.39424 -51.25658 457 460.8)"/><ellipse fill="#fd9e61" fill-opacity=".5" rx="1" ry="1" transform="matrix(-2.93358 57.73549 -504.29609 -25.62365 515.3 595.9)"/><ellipse fill="#ff9f5c" fill-opacity=".5" rx="1" ry="1" transform="matrix(-3.17997 -32.0485 688.38554 -68.30413 778.9 53)"/><ellipse fill="#000a27" fill-opacity=".5" rx="1" ry="1" transform="matrix(4.54295 -46.49853 199.89654 19.53008 183.4 16)"/><ellipse fill="#98735a" fill-opacity=".5" rx="1" ry="1" transform="matrix(-87.02287 76.40505 -44.99976 -51.25326 565.8 269.2)"/><path fill="#001a2f" fill-opacity=".5" d="M859.6 131.8L592.4 146l239 133.6z"/></g></svg>