<svg xmlns="http://www.w3.org/2000/svg" viewBox="0 0 900 600"><filter id="b"><feGaussianBlur stdDeviation="12" /></filter><path fill="#9a6e55" d="M0 0h900v597H0z"/><g filter="url(#b)" transform="translate(1.8 1.8) scale(3.51563)" fill-opacity=".5"><ellipse fill="#00001c" rx="1" ry="1" transform="matrix(-2.9059 -29.20077 253.74665 -25.25151 104 0)"/><ellipse fill="#ffeaa6" cx="124" cy="128" rx="113" ry="27"/><ellipse fill="#000120" rx="1" ry="1" transform="rotate(-58 45.8 12) scale(101.65454 22.84866)"/><ellipse fill="#ffc887" cx="165" cy="45" rx="45" ry="28"/><path fill="#000a22" d="M190 86l57-102 24 50z"/><ellipse fill="#0d071b" rx="1" ry="1" transform="matrix(-25.084 35.17758 -11.40558 -8.13295 99.8 44.5)"/><ellipse fill="#ffd095" rx="1" ry="1" transform="rotate(69.8 14.5 204.7) scale(30.39016 37.76048)"/><path fill="#71271c" d="M94.5 163l38-56-95.7-51.2 148 18.4z"/></g></svg>