<svg xmlns="http://www.w3.org/2000/svg" viewBox="0 0 900 600"><filter id="c"><feGaussianBlur stdDeviation="55" /></filter><path fill="#806b68" d="M0 0h900v597H0z"/><g filter='url(#c)' fill-opacity='.5'><ellipse fill="#f8e6dc" fill-opacity=".5" rx="1" ry="1" transform="matrix(100.19856 -75.83378 541.0125 714.83544 884 396.5)"/><ellipse fill="#031320" fill-opacity=".5" rx="1" ry="1" transform="matrix(-56.17139 -733.56293 169.03596 -12.94365 146.5 365)"/><ellipse fill="#f5ffff" fill-opacity=".5" rx="1" ry="1" transform="matrix(243.05634 38.45237 -10.4606 66.1212 464 7)"/><path fill="#bf6658" fill-opacity=".5" d="M806.8 652.1L655.7 61.5-54.5 226.8z"/><path fill="#00020d" fill-opacity=".5" d="M641.6 487l-246 80.8-218-119.6z"/><path fill="#fffff9" fill-opacity=".5" d="M624 553.7L778.7 480l59.8-242.6z"/><path fill="#000006" fill-opacity=".5" d="M1049 252.3l-28.7 30.8L691.2-23.8l28.7-30.8z"/><ellipse fill="#000c22" fill-opacity=".5" rx="1" ry="1" transform="matrix(-80.8941 -273.80483 74.2916 -21.94904 37.4 442)"/></g></svg>