<svg xmlns="http://www.w3.org/2000/svg" viewBox="0 0 900 600"><filter id="b"><feGaussianBlur stdDeviation="12" /></filter><path fill="#a88773" d="M0 0h900v597H0z"/><g filter="url(#b)" transform="translate(1.8 1.8) scale(3.51563)" fill-opacity=".5"><ellipse fill="#ffffdc" rx="1" ry="1" transform="matrix(-148.96914 -93.81088 14.036 -22.28878 61.4 142.1)"/><ellipse fill="#5d4e4c" rx="1" ry="1" transform="matrix(116.87928 11.04577 -3.88214 41.07828 208.3 128.2)"/><ellipse fill="#ffd3b1" rx="1" ry="1" transform="rotate(-55.4 128.6 -145) scale(66.30543 21.29668)"/><ellipse fill="#443135" rx="1" ry="1" transform="rotate(-40.5 157 -329.3) scale(22.3367 78.51541)"/><ellipse fill="#2c2630" rx="1" ry="1" transform="matrix(62.40137 24.01544 -3.0237 7.85672 59 93.3)"/><ellipse fill="#5d473f" rx="1" ry="1" transform="matrix(-15.19375 12.24296 -31.47461 -39.0606 66.2 20.2)"/><ellipse fill="#fb9" cx="126" cy="74" rx="65" ry="16"/><ellipse fill="#d8ad6f" cx="20" cy="169" rx="47" ry="45"/></g></svg>