<svg xmlns="http://www.w3.org/2000/svg" viewBox="0 0 1200 800"><filter id="b"><feGaussianBlur stdDeviation="12" /></filter><path fill="#bab5b9" d="M0 0h1200v796H0z"/><g filter="url(#b)" transform="translate(2.3 2.3) scale(4.6875)" fill-opacity=".5"><ellipse fill="#4a4f64" cx="239" cy="98" rx="115" ry="28"/><path fill="#49261d" d="M-15 50l6 100 82-65z"/><ellipse fill="#fff" rx="1" ry="1" transform="matrix(.25662 47.03478 -110.94409 .6053 179 21.2)"/><ellipse fill="#2e0000" rx="1" ry="1" transform="matrix(-165.0035 .6832 -.0545 -13.16452 127.6 168.7)"/><ellipse fill="#fff" rx="1" ry="1" transform="matrix(-58.85163 23.30101 -8.06717 -20.37535 69 126)"/><ellipse fill="#fff" rx="1" ry="1" transform="matrix(-12.51086 -23.32306 16.31519 -8.75173 218 134.7)"/><ellipse fill="#29303c" rx="1" ry="1" transform="rotate(69.7 -12.5 180) scale(7.36336 49.73555)"/><ellipse fill="#fff" rx="1" ry="1" transform="matrix(-94.1737 6.9824 -1.01625 -13.70643 117.7 46.7)"/></g></svg>