<svg xmlns="http://www.w3.org/2000/svg" viewBox="0 0 821 547"><filter id="b"><feGaussianBlur stdDeviation="12" /></filter><path fill="#d7d6db" d="M0 0h821v545H0z"/><g filter="url(#b)" transform="translate(1.6 1.6) scale(3.20703)" fill-opacity=".5"><ellipse fill="#1f0000" cx="223" cy="143" rx="28" ry="28"/><path fill="#6b0000" d="M83 51.4l26.7 29.7L77 110.6 50.3 80.9z"/><ellipse fill="#740000" cx="221" cy="143" rx="27" ry="27"/><ellipse fill="#fff" rx="1" ry="1" transform="rotate(153.9 73.3 33.8) scale(63.7263 89.87933)"/><ellipse fill="#4f84a4" rx="1" ry="1" transform="matrix(41.18047 22.92075 -7.83641 14.07926 255 115.2)"/><path fill="#faffff" d="M61.8 184.2l-35 .6-2.6-155 35-.6z"/><ellipse fill="#fff" rx="1" ry="1" transform="matrix(-72.70779 -17.05346 5.22603 -22.2813 119 135.4)"/><ellipse fill="#0b2a2f" rx="1" ry="1" transform="matrix(-1.70251 3.63134 -25.41235 -11.9143 5.2 107.9)"/></g></svg>