<svg xmlns="http://www.w3.org/2000/svg" viewBox="0 0 821 547"><filter id="b"><feGaussianBlur stdDeviation="12" /></filter><path fill="#d6dade" d="M0 0h821v545H0z"/><g filter="url(#b)" transform="translate(1.6 1.6) scale(3.20703)" fill-opacity=".5"><ellipse fill="#7a0000" cx="110" cy="66" rx="28" ry="14"/><path fill="#6d0000" d="M93 101h48v14H93z"/><ellipse rx="1" ry="1" transform="matrix(18.33157 -93.43678 2.63599 .51716 7.4 141.7)"/><path fill="#445752" d="M216 112l-66 45-30-18z"/><path fill="#fff" d="M164 7.1L198.5-6 258 149l-34.5 13.2z"/><ellipse fill="#fff" rx="1" ry="1" transform="matrix(31.57672 2.55633 -6.16082 76.1007 49.3 110.8)"/><ellipse fill="#395f60" rx="1" ry="1" transform="rotate(61.2 41.4 266) scale(87.72448 4.70777)"/><path d="M214.6 171.6l-4.2-27-9.7-28.7-4.1 2.3z"/></g></svg>