<svg xmlns="http://www.w3.org/2000/svg" viewBox="0 0 600 800"><filter id="b"><feGaussianBlur stdDeviation="12" /></filter><path fill="#3e322e" d="M0 0h600v800H0z"/><g filter="url(#b)" transform="translate(1.6 1.6) scale(3.125)" fill-opacity=".5"><ellipse fill="#ffefe0" rx="1" ry="1" transform="rotate(-10.5 554.5 -659.5) scale(82.54238 46.9799)"/><ellipse fill="#fff" rx="1" ry="1" transform="rotate(-66 183 -85.1) scale(26.32744 35.50691)"/><path d="M145 92l62 173-223-16z"/><ellipse rx="1" ry="1" transform="matrix(21.8214 35.66945 -132.11232 80.82199 51.2 30.8)"/><ellipse fill="#fff" cx="72" cy="108" rx="20" ry="28"/><path fill="#ffe9da" d="M107.9 36l22.9-7L207 131 104.6 57.4z"/><ellipse rx="1" ry="1" transform="matrix(32.99216 -2.77043 11.51557 137.13521 21.5 118.8)"/><path fill="#c00000" d="M68.8 81.1l6.7-29.2 47.7 11-6.7 29.2z"/></g></svg>