<svg xmlns="http://www.w3.org/2000/svg" viewBox="0 0 900 600"><filter id="b"><feGaussianBlur stdDeviation="12" /></filter><path fill="#ae8f4d" d="M0 0h900v597H0z"/><g filter="url(#b)" transform="translate(1.8 1.8) scale(3.51563)" fill-opacity=".5"><ellipse rx="1" ry="1" transform="rotate(-59.1 245 -110.6) scale(106.15272 55.45264)"/><ellipse fill="#ffffb3" rx="1" ry="1" transform="matrix(85.0543 -5.01523 3.67504 62.32576 114.2 71.3)"/><ellipse rx="1" ry="1" transform="matrix(-38.7007 -27.40163 50.04387 -70.6795 210.7 152.4)"/><ellipse cx="165" cy="5" rx="42" ry="11"/><ellipse rx="1" ry="1" transform="matrix(-9.97516 1.94764 -10.11196 -51.79006 31.1 7.5)"/><ellipse fill="#faa500" rx="1" ry="1" transform="matrix(-112.00104 -1.1538 .50333 -48.85895 39.1 147.3)"/><ellipse fill="#feddbb" cx="242" cy="36" rx="181" ry="22"/><path d="M113.5 58.3l24.8 13.2 5 1.2L118 83z"/></g></svg>