<svg xmlns="http://www.w3.org/2000/svg" viewBox="0 0 900 600"><filter id="b"><feGaussianBlur stdDeviation="12" /></filter><path fill="#98846b" d="M0 0h900v597H0z"/><g filter="url(#b)" transform="translate(1.8 1.8) scale(3.51563)" fill-opacity=".5"><ellipse rx="1" ry="1" transform="matrix(7.9592 114.27448 -23.2331 1.61818 152.7 29.5)"/><ellipse fill="#fffdc4" cx="218" cy="65" rx="44" ry="140"/><ellipse rx="1" ry="1" transform="rotate(-85.4 58.5 -53) scale(30.78247 71.39428)"/><ellipse rx="1" ry="1" transform="rotate(101.8 -27.2 83.9) scale(32.45369 16.32403)"/><ellipse fill="#fffff6" rx="1" ry="1" transform="matrix(-5.54543 21.72082 -58.37824 -14.90425 86 65.5)"/><ellipse cx="237" cy="34" rx="4" ry="95"/><ellipse fill="#fffcff" rx="1" ry="1" transform="matrix(-28.48222 -1.21951 3.23377 -75.52613 206.2 32.7)"/><ellipse fill="#5c2800" rx="1" ry="1" transform="matrix(76.01691 -28.94722 4.70761 12.36243 142.8 140.6)"/></g></svg>