<svg xmlns="http://www.w3.org/2000/svg" viewBox="0 0 900 600"><filter id="b"><feGaussianBlur stdDeviation="12" /></filter><path fill="#44423e" d="M0 0h900v597H0z"/><g filter="url(#b)" transform="translate(1.8 1.8) scale(3.51563)" fill-opacity=".5"><ellipse fill="#fff" rx="1" ry="1" transform="matrix(-9.93593 40.15412 -101.72777 -25.172 208.5 0)"/><ellipse fill="#fff9d4" rx="1" ry="1" transform="matrix(-28.38126 12.74606 -15.65337 -34.85487 80.3 7.7)"/><ellipse fill="#fff" rx="1" ry="1" transform="matrix(8.6298 -24.66258 81.20102 28.41342 208.6 9.5)"/><ellipse rx="1" ry="1" transform="matrix(-110.2898 -161.1931 51.5816 -35.2926 24.1 98)"/><ellipse rx="1" ry="1" transform="matrix(12.28743 -23.2341 87.72707 46.39473 195.4 70)"/><ellipse fill="#afa7a5" rx="1" ry="1" transform="matrix(-27.20519 -38.14027 14.43827 -10.29872 116 82.1)"/><ellipse fill="#fff" rx="1" ry="1" transform="matrix(12.3594 -22.389 83.12776 45.889 199.4 0)"/><ellipse cx="226" cy="78" rx="41" ry="34"/></g></svg>