<svg xmlns="http://www.w3.org/2000/svg" viewBox="0 0 900 600"><filter id="c"><feGaussianBlur stdDeviation="55" /></filter><path fill="#dcd7d4" d="M0 0h900v597H0z"/><g filter='url(#c)' fill-opacity='.5'><ellipse fill="#8b6356" fill-opacity=".5" rx="1" ry="1" transform="rotate(77.5 53.9 663) scale(103.5927 222.54132)"/><ellipse fill="#fff" fill-opacity=".5" rx="1" ry="1" transform="rotate(43.7 -297.9 216.2) scale(223.15326 585.69343)"/><path fill="#600000" fill-opacity=".5" d="M189.6 515L166 566l-64-29.9 23.8-51z"/><path fill="#f9ffff" fill-opacity=".5" d="M741.7 428.6L317.7 652l257.6-64.6L738.5 519z"/><path fill="#550300" fill-opacity=".5" d="M566.3 522.6l93.1-55.6-162.7-8.2.8 90z"/><path fill="#682701" fill-opacity=".5" d="M888.9 469.4L829 372.8l-153.3 7.4 37.8 49.5z"/><path fill="#7e7139" fill-opacity=".5" d="M354.1 527.8L337 384l-92 147 78.2 19z"/><path fill="#f1f6f9" fill-opacity=".5" d="M722.5 237.3L557.2 458.8-54.5 290z"/></g></svg>