<svg xmlns="http://www.w3.org/2000/svg" viewBox="0 0 600 900"><filter id="b"><feGaussianBlur stdDeviation="12" /></filter><path fill="#4a321b" d="M0 0h597v900H0z"/><g filter="url(#b)" transform="translate(1.8 1.8) scale(3.51563)" fill-opacity=".5"><ellipse fill="#ffca63" rx="1" ry="1" transform="matrix(17.1214 20.538 -56.40557 47.02222 135.2 142.3)"/><ellipse fill="#000008" cx="125" cy="32" rx="45" ry="91"/><ellipse fill="#fff761" rx="1" ry="1" transform="rotate(-110 97.4 29.7) scale(36.7402 10.20235)"/><ellipse fill="#fff" rx="1" ry="1" transform="matrix(-19.29723 10.97308 -4.9057 -8.62716 162.8 118)"/><ellipse fill="#00000b" rx="1" ry="1" transform="matrix(32.95264 39.49251 -129.76116 108.273 142.9 248.3)"/><ellipse fill="#9f592f" rx="1" ry="1" transform="matrix(-1.78326 -18.73777 90.684 -8.63032 37.2 191.5)"/><ellipse fill="#000008" rx="1" ry="1" transform="matrix(-6.79867 79.9315 -22.15183 -1.88415 11.8 55.4)"/><ellipse fill="#eabe5d" rx="1" ry="1" transform="matrix(-6.0148 2.07106 -10.23219 -29.71644 51.6 89.8)"/></g></svg>