<svg xmlns="http://www.w3.org/2000/svg" viewBox="0 0 600 841"><filter id="b"><feGaussianBlur stdDeviation="12" /></filter><path fill="#5c5248" d="M0 0h601v841H0z"/><g filter="url(#b)" transform="translate(1.6 1.6) scale(3.28516)" fill-opacity=".5"><ellipse fill="#e2bc9f" cx="97" cy="124" rx="69" ry="69"/><ellipse cx="69" cy="25" rx="182" ry="30"/><ellipse fill="#421200" rx="1" ry="1" transform="rotate(108 -13.7 58.6) scale(27.61745 67.56582)"/><path fill="#fff" d="M125.7 72.7l20-6.5 18.6 57-20 6.6z"/><path fill="#ffc03d" d="M111.8 234.2l3.5-50.9 35 2.5-3.6 50.9z"/><ellipse fill="#d1eeff" rx="1" ry="1" transform="matrix(11.63715 -5.57559 17.44752 36.41579 64.5 175)"/><path fill="#fff" d="M124 64.8l-7.6-2.6 17.6-51 7.6 2.6z"/><ellipse rx="1" ry="1" transform="rotate(-164.6 100 105.4) scale(25.29053 56.58467)"/></g></svg>