<svg xmlns="http://www.w3.org/2000/svg" viewBox="0 0 900 600"><filter id="b"><feGaussianBlur stdDeviation="12" /></filter><path fill="#402b1c" d="M0 0h900v597H0z"/><g filter="url(#b)" transform="translate(1.8 1.8) scale(3.51563)" fill-opacity=".5"><path fill="#f1a65a" d="M95 147L271 47l-10 69z"/><ellipse fill="#f68650" rx="1" ry="1" transform="rotate(-9.1 550.3 -778) scale(34.03876 18.46123)"/><ellipse fill="#03080b" rx="1" ry="1" transform="matrix(-46.40354 -64.61638 74.98277 -53.84805 24 62)"/><ellipse fill="#000008" rx="1" ry="1" transform="matrix(-72.10145 25.7866 -16.47073 -46.0535 208 13)"/><path fill="#ffec83" d="M263 95l-58 6 64-60z"/><ellipse fill="#ff9a24" cx="68" cy="33" rx="6" ry="23"/><ellipse fill="#230c07" rx="1" ry="1" transform="matrix(15.22258 -23.44072 19.30982 12.53994 195.4 86.3)"/><ellipse fill="#865435" rx="1" ry="1" transform="rotate(-104.8 131.5 -1) scale(26.40924 70.5995)"/></g></svg>