<svg xmlns="http://www.w3.org/2000/svg" viewBox="0 0 600 900"><filter id="b"><feGaussianBlur stdDeviation="12" /></filter><path fill="#5a432f" d="M0 0h597v900H0z"/><g filter="url(#b)" transform="translate(1.8 1.8) scale(3.51563)" fill-opacity=".5"><ellipse fill="#bbac77" rx="1" ry="1" transform="matrix(108.23335 -79.67944 20.25903 27.51906 101.9 220)"/><ellipse fill="#f1b796" rx="1" ry="1" transform="rotate(9.1 -399.7 145.6) scale(41.43732 24.6373)"/><ellipse fill="#000003" rx="1" ry="1" transform="matrix(156.9141 62.76116 -15.83057 39.57925 106.8 16.5)"/><ellipse fill="#060100" cx="35" cy="176" rx="94" ry="27"/><ellipse fill="#f3e5bf" rx="1" ry="1" transform="matrix(-8.16168 -24.11266 6.30512 -2.13417 54.5 103.3)"/><ellipse fill="#a78838" rx="1" ry="1" transform="matrix(-17.53003 16.17623 -34.14694 -37.00472 124.8 162.5)"/><ellipse fill="#150002" cx="148" cy="105" rx="30" ry="33"/><path fill="#fff" d="M12 137l15 1-11 11z"/></g></svg>