<svg xmlns="http://www.w3.org/2000/svg" viewBox="0 0 600 900"><filter id="b"><feGaussianBlur stdDeviation="12" /></filter><path fill="#2e2620" d="M0 0h597v900H0z"/><g filter="url(#b)" transform="translate(1.8 1.8) scale(3.51563)" fill-opacity=".5"><ellipse fill="#ffcb82" rx="1" ry="1" transform="matrix(30.29422 22.09093 -11.92601 16.35464 98.7 181.7)"/><path fill="#6a635e" d="M44.6 263.9l-5.4-34.6L185.4 206l5.4 34.6z"/><ellipse fill="#8d643f" rx="1" ry="1" transform="matrix(-30.9985 -20.75168 12.51351 -18.69246 70.1 182)"/><ellipse fill="#0d0b0d" rx="1" ry="1" transform="matrix(-57.83688 74.75575 -133.66565 -103.41419 110.3 52.3)"/><path fill="#e5bc88" d="M95 206l-4-55 38 46z"/><ellipse fill="#fff" cx="49" cy="172" rx="5" ry="5"/><path fill="#aa968b" d="M152 221l-55 13 55-30z"/><ellipse fill="#b59883" cx="64" cy="230" rx="50" ry="3"/></g></svg>