<svg xmlns="http://www.w3.org/2000/svg" viewBox="0 0 900 600"><filter id="b"><feGaussianBlur stdDeviation="12" /></filter><path fill="#d4a189" d="M0 0h900v597H0z"/><g filter="url(#b)" transform="translate(1.8 1.8) scale(3.51563)" fill-opacity=".5"><ellipse fill="#fff" rx="1" ry="1" transform="matrix(-55.01626 -119.25825 30.17144 -13.9187 242.3 100)"/><ellipse fill="#b86f53" cx="112" cy="98" rx="95" ry="95"/><ellipse fill="#fff" rx="1" ry="1" transform="matrix(26.61648 6.34679 -36.10922 151.431 .3 66.7)"/><ellipse fill="#000027" rx="1" ry="1" transform="matrix(224.0392 6.64933 -.21315 7.1817 121.5 173.5)"/><ellipse fill="#fff" cx="177" cy="149" rx="183" ry="8"/><ellipse fill="#953d2b" rx="1" ry="1" transform="matrix(15.99782 -2.93615 12.79593 69.71954 103.2 83.7)"/><ellipse fill="#ffcea4" rx="1" ry="1" transform="matrix(11.6846 77.99909 -16.75452 2.5099 136.6 53.9)"/><ellipse fill="#ffd59b" rx="1" ry="1" transform="matrix(11.60493 -55.36817 17.92291 3.75657 65.2 65.3)"/></g></svg>