<svg xmlns="http://www.w3.org/2000/svg" viewBox="0 0 821 547"><filter id="b"><feGaussianBlur stdDeviation="12" /></filter><path fill="#c7b5a5" d="M0 0h821v545H0z"/><g filter="url(#b)" transform="translate(1.6 1.6) scale(3.20703)" fill-opacity=".5"><ellipse fill="#7f0000" cx="95" cy="95" rx="29" ry="25"/><ellipse fill="#1f0e02" rx="1" ry="1" transform="matrix(.8708 11.0061 -53.94706 4.2683 30 151.8)"/><ellipse fill="#fffff4" rx="1" ry="1" transform="matrix(18.6785 154.13523 -40.15599 4.8662 151.6 26.4)"/><path fill="#4b2a0c" d="M264.2 94.7l3.3 16.7-71.7 14-3.3-16.8z"/><ellipse fill="#3b2008" rx="1" ry="1" transform="matrix(-56.84956 13.27404 -1.94843 -8.34465 255 46)"/><path fill="#060000" d="M277.8 180l-34.2 11.2-11.4-35.2 34.2-11.2z"/><path fill="#4b0300" d="M84 126l-24-14.5 20-33.4 24 14.4z"/><path fill="#fff" d="M99 116h30v44H99z"/></g></svg>