<svg xmlns="http://www.w3.org/2000/svg" viewBox="0 0 900 600"><filter id="b"><feGaussianBlur stdDeviation="12" /></filter><path fill="#d8c5bc" d="M0 0h900v597H0z"/><g filter="url(#b)" transform="translate(1.8 1.8) scale(3.51563)" fill-opacity=".5"><ellipse fill="#69282b" rx="1" ry="1" transform="rotate(155.3 84.7 89.9) scale(31.93492 120.60977)"/><ellipse fill="#fffffd" cx="84" cy="57" rx="65" ry="120"/><ellipse fill="#62413c" rx="1" ry="1" transform="matrix(-3.05888 -10.46054 88.31467 -25.82502 22.7 149)"/><path fill="#3c0a21" d="M136 144l56-28 79 23z"/><ellipse fill="#fff" rx="1" ry="1" transform="matrix(26.3101 -10.14007 22.49263 58.36087 214.8 53)"/><ellipse fill="#2f161d" rx="1" ry="1" transform="rotate(13.5 -38.3 33.6) scale(26.79053 9.56828)"/><path fill="#ac5532" d="M100.5 127l-32.6-5.2L71.5 99l32.6 5.1z"/><path fill="#e74e3b" d="M228 0h28v37h-28z"/></g></svg>