<svg xmlns="http://www.w3.org/2000/svg" viewBox="0 0 900 600"><filter id="b"><feGaussianBlur stdDeviation="12" /></filter><path fill="#cba295" d="M0 0h900v597H0z"/><g filter="url(#b)" transform="translate(1.8 1.8) scale(3.51563)" fill-opacity=".5"><ellipse fill="#000004" rx="1" ry="1" transform="matrix(27.30504 2.7254 -3.94191 39.49287 147.8 151.4)"/><ellipse fill="#fff" cx="140" cy="17" rx="250" ry="23"/><ellipse fill="#000f2f" rx="1" ry="1" transform="rotate(-85.6 111.1 57.6) scale(58.33002 18.48424)"/><ellipse fill="#f58d5f" rx="1" ry="1" transform="rotate(94.8 38.9 109.4) scale(50.08239 109.12911)"/><path fill="#000002" d="M227.4 182l6.3-51.6 13 1.6-6.4 51.6z"/><path fill="#00072e" d="M120 185l3-64 94 64z"/><path fill="#000829" d="M0 166h256v4H0z"/><path fill="#cadaff" d="M221.8 168.2l-50.8-4.5 3.2-35.9 50.8 4.5z"/></g></svg>