<svg xmlns="http://www.w3.org/2000/svg" viewBox="0 0 900 600"><filter id="b"><feGaussianBlur stdDeviation="12" /></filter><path fill="#bb9584" d="M0 0h900v597H0z"/><g filter="url(#b)" transform="translate(1.8 1.8) scale(3.51563)" fill-opacity=".5"><ellipse fill="#170009" rx="1" ry="1" transform="matrix(-.64404 -33.03872 70.31829 -1.37076 150.5 143.7)"/><ellipse fill="#ffffea" cx="219" cy="59" rx="119" ry="51"/><ellipse rx="1" ry="1" transform="matrix(.8237 -15.20911 61.74724 3.34411 42.5 67.3)"/><path d="M81.5 58.7l20 .7-3 84-20-.8z"/><path fill="#fff" d="M0 85h80v31H0z"/><ellipse fill="#ffffce" cx="94" cy="37" rx="29" ry="22"/><ellipse fill="#591b1e" rx="1" ry="1" transform="matrix(-10.40648 -1.6289 4.9092 -31.36341 9.2 141.4)"/><ellipse fill="#120d25" rx="1" ry="1" transform="rotate(-40.4 280.2 -197.3) scale(31.90941 15.15251)"/></g></svg>