<svg xmlns="http://www.w3.org/2000/svg" viewBox="0 0 900 600"><filter id="b"><feGaussianBlur stdDeviation="12" /></filter><path fill="#f3e3d3" d="M0 0h900v597H0z"/><g filter="url(#b)" transform="translate(1.8 1.8) scale(3.51563)" fill-opacity=".5"><ellipse fill="#d78f47" rx="1" ry="1" transform="matrix(-2.71753 -22.37305 69.71782 -8.46824 110.9 133.6)"/><ellipse fill="#fffffc" cx="182" cy="31" rx="92" ry="92"/><ellipse fill="#eea453" rx="1" ry="1" transform="rotate(-13.8 603.2 -472) scale(22.8442 32.11455)"/><ellipse fill="#9f4f21" rx="1" ry="1" transform="matrix(.94263 5.3984 -24.82646 4.335 72.1 147)"/><path fill="#f1e7dd" d="M-16 79l87 65 50-21z"/><path fill="#fefdf7" d="M148.5 133.6l-5.6-2.6 9-66 91.5 5.8z"/><ellipse fill="#efd7c2" rx="1" ry="1" transform="matrix(-72.25852 30.92295 -11.98234 -27.99946 255 22.7)"/><path fill="#e3b57b" d="M92.6 142.3l-61.3 7.3-34.8-31.1L49.9 131z"/></g></svg>