<svg xmlns="http://www.w3.org/2000/svg" viewBox="0 0 900 600"><filter id="b"><feGaussianBlur stdDeviation="12" /></filter><path fill="#d59683" d="M0 0h900v597H0z"/><g filter="url(#b)" transform="translate(1.8 1.8) scale(3.51563)" fill-opacity=".5"><ellipse fill="#001f4f" rx="1" ry="1" transform="rotate(61.6 37.4 62.8) scale(17.22185 130.2062)"/><ellipse fill="#fff" rx="1" ry="1" transform="rotate(-61.2 257.6 -121.4) scale(15.70694 59.87728)"/><path fill="#fff" d="M271 125V79l-90-19z"/><ellipse fill="#d25d3c" rx="1" ry="1" transform="matrix(120.90423 41.87418 -8.70187 25.12509 135.7 87)"/><ellipse fill="#f3ffff" cx="232" cy="46" rx="51" ry="8"/><ellipse fill="#fff8f0" rx="1" ry="1" transform="rotate(-163.8 74.3 51.1) scale(225.78957 8.2382)"/><ellipse fill="#8bcfea" rx="1" ry="1" transform="matrix(7.93963 -21.96637 17.39336 6.28674 18.5 7.2)"/><ellipse fill="#fffce8" rx="1" ry="1" transform="rotate(109.4 -4.4 101.6) scale(6.60839 132.49706)"/></g></svg>