<svg xmlns="http://www.w3.org/2000/svg" viewBox="0 0 600 900"><filter id="b"><feGaussianBlur stdDeviation="12" /></filter><path fill="#3a2c22" d="M0 0h597v900H0z"/><g filter="url(#b)" transform="translate(1.8 1.8) scale(3.51563)" fill-opacity=".5"><ellipse fill="#dca57e" rx="1" ry="1" transform="matrix(-33.13187 -22.09187 53.74073 -80.59664 36.6 200.9)"/><path d="M5.1 249.8l-19.4-10.4 27.2-51.2 19.4 10.4z"/><ellipse cx="77" cy="11" rx="112" ry="112"/><path fill="#ffeeda" d="M48.8 152l4.4 16.4-58 15.6-4.4-16.4z"/><ellipse fill="#ffdab3" rx="1" ry="1" transform="matrix(9.72883 6.47298 -28.09198 42.222 29.8 232)"/><ellipse fill="#000003" rx="1" ry="1" transform="matrix(-21.89549 11.41725 -16.58563 -31.80717 17.7 128.1)"/><ellipse fill="#754020" rx="1" ry="1" transform="matrix(19.77693 21.88757 -38.87264 35.12413 100.3 180.1)"/><ellipse fill="#ba876a" rx="1" ry="1" transform="matrix(-6.52478 8.10365 -28.55429 -22.99092 105.4 143)"/></g></svg>