<svg xmlns="http://www.w3.org/2000/svg" viewBox="0 0 1800 1200"><filter id="b"><feGaussianBlur stdDeviation="12" /></filter><path fill="#717e8b" d="M0 0h1800v1195H0z"/><g filter="url(#b)" transform="translate(3.5 3.5) scale(7.03125)" fill-opacity=".5"><ellipse rx="1" ry="1" transform="matrix(240.0249 -71.7732 7.38072 24.6827 115 87.6)"/><ellipse fill="#fff" rx="1" ry="1" transform="matrix(95.8287 -22.26016 8.21174 35.35105 35.3 47.8)"/><ellipse fill="#fffcec" rx="1" ry="1" transform="rotate(-96.8 146.3 12.5) scale(28.06758 184.57523)"/><ellipse fill="#072a54" cx="242" cy="30" rx="42" ry="85"/><path fill="#fff" d="M66.7 72.3L14.1 84.5 3.3 37.7l52.6-12.2z"/><ellipse fill="#3d699e" rx="1" ry="1" transform="matrix(-184.6407 59.63732 -5.98196 -18.52051 212 88.6)"/><path fill="#010000" d="M132 52l139-17L18 140z"/><path fill="#b8d4e4" d="M175 45L64 66l25-77z"/></g></svg>