<svg xmlns="http://www.w3.org/2000/svg" viewBox="0 0 1200 1800"><filter id="b"><feGaussianBlur stdDeviation="12" /></filter><path fill="#615950" d="M0 0h1195v1800H0z"/><g filter="url(#b)" transform="translate(3.5 3.5) scale(7.03125)" fill-opacity=".5"><ellipse fill="#fff" rx="1" ry="1" transform="matrix(50.44487 -.27177 .29266 54.32128 84.7 20.8)"/><ellipse fill="#d8ffff" rx="1" ry="1" transform="matrix(1.05866 -22.44878 107.23043 5.05686 55.4 2.5)"/><ellipse fill="#362c1f" cx="101" cy="240" rx="168" ry="168"/><path fill="#ffffd7" d="M61.1 165L56 106.3l14.9-1.3 5.1 58.7z"/><ellipse fill="#4c0000" cx="147" cy="51" rx="30" ry="34"/><path fill="#eaffff" d="M14-16l43 87 71 5z"/><ellipse fill="#caa679" rx="1" ry="1" transform="rotate(132.2 12.5 94.2) scale(27.90775 9.77667)"/><ellipse fill="#572900" rx="1" ry="1" transform="matrix(.95584 33.21291 -24.17803 .69583 20 53.8)"/></g></svg>