<svg xmlns="http://www.w3.org/2000/svg" viewBox="0 0 1200 800"><filter id="b"><feGaussianBlur stdDeviation="12" /></filter><path fill="#8b4f23" d="M0 0h1200v796H0z"/><g filter="url(#b)" transform="translate(2.3 2.3) scale(4.6875)" fill-opacity=".5"><ellipse fill="#ffcd7d" rx="1" ry="1" transform="matrix(-2.96461 -33.08507 103.15978 -9.24371 137.5 73.4)"/><ellipse fill="#130000" rx="1" ry="1" transform="matrix(-70.60891 -9.7978 4.57152 -32.94514 60.4 153.8)"/><ellipse fill="#100" rx="1" ry="1" transform="rotate(-69.5 198.4 -72.5) scale(60.44083 28.6561)"/><ellipse fill="#ffffe6" cx="149" cy="74" rx="92" ry="7"/><ellipse fill="#f1830b" rx="1" ry="1" transform="rotate(84.2 17.5 80) scale(18.96245 177.6176)"/><path fill="#561400" d="M-1-16l-9 64L234 0z"/><path fill="#e7c59f" d="M148 110l-50 34 72-4z"/><path fill="#280000" d="M12.9 85.7l33.5-5.9 6.7 38.5-33.5 5.9z"/></g></svg>