<svg xmlns="http://www.w3.org/2000/svg" viewBox="0 0 1800 1200"><filter id="c"><feGaussianBlur stdDeviation="55" /></filter><path fill="#585550" d="M0 0h1800v1195H0z"/><g filter='url(#c)' fill-opacity='.5'><ellipse fill-opacity=".5" rx="1" ry="1" transform="rotate(2.5 -21319.3 40694.6) scale(737.93677 273.71678)"/><ellipse fill="#5a9ee2" fill-opacity=".5" rx="1" ry="1" transform="matrix(-1016.14038 265.21376 -60.67035 -232.45248 197.8 252)"/><ellipse fill-opacity=".5" rx="1" ry="1" transform="matrix(508.7565 -215.0205 45.72584 108.19117 215 625.2)"/><path fill="#aad9ff" fill-opacity=".5" d="M980.9 193.4L1466 812 1191.8 52.7z"/><ellipse fill="#f7be78" fill-opacity=".5" rx="1" ry="1" transform="matrix(79.99407 17.00326 -63.87176 300.49303 741.4 674.7)"/><ellipse fill="#7fa3d2" fill-opacity=".5" rx="1" ry="1" transform="rotate(-17.8 1686.8 -4805) scale(92.44455 433.45547)"/><path fill="#a67931" fill-opacity=".5" d="M1550.4 1009L45.7 826.2l154.7 478.1z"/><ellipse fill="#040000" fill-opacity=".5" rx="1" ry="1" transform="matrix(30.47815 -91.53787 278.05152 92.57913 1030.3 885)"/></g></svg>