<svg xmlns="http://www.w3.org/2000/svg" viewBox="0 0 1200 800"><filter id="b"><feGaussianBlur stdDeviation="12" /></filter><path fill="#be894e" d="M0 0h1200v796H0z"/><g filter="url(#b)" transform="translate(2.3 2.3) scale(4.6875)" fill-opacity=".5"><ellipse cx="36" cy="156" rx="138" ry="34"/><ellipse fill="#ffea9f" rx="1" ry="1" transform="matrix(-2.95103 61.1604 -125.14619 -6.03838 178.5 72.4)"/><ellipse fill="#fff" rx="1" ry="1" transform="rotate(-169.4 104.5 15.6) scale(51.28004 18.71588)"/><ellipse fill="#d76700" rx="1" ry="1" transform="matrix(.05487 37.00096 -23.05476 .03419 145.2 86.2)"/><ellipse cx="71" cy="167" rx="101" ry="27"/><ellipse fill="#702900" rx="1" ry="1" transform="matrix(-29.64962 35.48397 -26.11735 -21.82308 16.4 25.8)"/><ellipse fill="#2c0000" rx="1" ry="1" transform="matrix(-15.53602 -27.96135 16.22504 -9.01504 244 161.3)"/><path fill="#fff" d="M168 19h23v116h-23z"/></g></svg>