<svg xmlns="http://www.w3.org/2000/svg" viewBox="0 0 1800 1200"><filter id="c"><feGaussianBlur stdDeviation="55" /></filter><path fill="#467da5" d="M0 0h1800v1195H0z"/><g filter='url(#c)' fill-opacity='.5'><ellipse fill="#d9ffff" fill-opacity=".5" rx="1" ry="1" transform="matrix(477.84633 -289.36006 157.49629 260.0878 1572.2 352.3)"/><ellipse fill="#004" fill-opacity=".5" rx="1" ry="1" transform="matrix(-7.74017 -295.5853 563.85813 -14.76514 415.4 182.7)"/><ellipse fill-opacity=".5" rx="1" ry="1" transform="matrix(-446.37976 -73.18118 25.95314 -158.30517 494.7 924.7)"/><ellipse fill="#fff1b7" fill-opacity=".5" rx="1" ry="1" transform="matrix(385.31892 36.49719 -14.04716 148.30284 168.4 605.6)"/><ellipse fill="#0074ce" fill-opacity=".5" rx="1" ry="1" transform="matrix(123.1342 196.49529 -469.79463 294.39784 943.5 261.9)"/><ellipse fill="#68c5ff" fill-opacity=".5" rx="1" ry="1" transform="matrix(44.74468 -232.35582 262.64954 50.57833 1296.3 1028.7)"/><ellipse fill="#cff5ff" fill-opacity=".5" rx="1" ry="1" transform="matrix(67.33527 192.40486 -249.12566 87.18565 1588.5 399.1)"/><ellipse fill="#001955" fill-opacity=".5" rx="1" ry="1" transform="matrix(-133.64966 -330.79453 565.55113 -228.49749 477.2 3.9)"/></g></svg>