<svg xmlns="http://www.w3.org/2000/svg" viewBox="0 0 2700 1800"><filter id="b"><feGaussianBlur stdDeviation="12" /></filter><path fill="#2d74a7" d="M0 0h2700v1792H0z"/><g filter="url(#b)" transform="translate(5.3 5.3) scale(10.54688)" fill-opacity=".5"><ellipse fill="#d4b6a1" rx="1" ry="1" transform="matrix(-70.27413 39.58457 -23.72896 -42.1258 48 122.6)"/><ellipse fill="#00346a" rx="1" ry="1" transform="matrix(22.4537 43.00024 -81.68998 42.65658 194.8 104.2)"/><ellipse fill="#008fee" rx="1" ry="1" transform="matrix(5.68115 33.09184 -159.6941 27.416 167 24.5)"/><ellipse fill="#092c48" cx="36" cy="114" rx="46" ry="12"/><ellipse fill="#fffef8" rx="1" ry="1" transform="matrix(.29166 -6.45303 32.12854 1.45212 228.3 161.2)"/><ellipse fill="#004bad" rx="1" ry="1" transform="matrix(15.50136 37.0619 -105.46987 44.1134 28.5 29.6)"/><path fill="#00203e" d="M101 72l130-18-103 44z"/><path fill="#e4e4de" d="M1.4 160.6L-3.4 136l106-20.6 4.8 24.6z"/></g></svg>