<svg xmlns="http://www.w3.org/2000/svg" viewBox="0 0 1800 1200"><filter id="b"><feGaussianBlur stdDeviation="12" /></filter><path fill="#92908e" d="M0 0h1800v1195H0z"/><g filter="url(#b)" transform="translate(3.5 3.5) scale(7.03125)" fill-opacity=".5"><ellipse cx="108" cy="129" rx="255" ry="31"/><ellipse fill="#fff" rx="1" ry="1" transform="matrix(-127.96366 11.70175 -6.2757 -68.6275 154.4 33.6)"/><ellipse rx="1" ry="1" transform="matrix(-64.00907 25.39881 -5.38625 -13.57422 239.3 96.4)"/><ellipse rx="1" ry="1" transform="matrix(-15.09923 -1.44263 2.9981 -31.3795 58.2 107)"/><ellipse fill="#fffffa" cx="156" cy="58" rx="95" ry="40"/><ellipse fill="#1a0802" cx="25" cy="131" rx="169" ry="29"/><ellipse fill="#eff" rx="1" ry="1" transform="matrix(7.21045 26.32352 -32.79944 8.98431 22 72.4)"/><ellipse fill="#1a0000" rx="1" ry="1" transform="matrix(-14.9254 38.93554 -29.7176 -11.39183 241.6 118.5)"/></g></svg>