<svg xmlns="http://www.w3.org/2000/svg" viewBox="0 0 1800 1200"><filter id="c"><feGaussianBlur stdDeviation="55" /></filter><path fill="#476a82" d="M0 0h1800v1195H0z"/><g filter='url(#c)' fill-opacity='.5'><ellipse fill="#fff" fill-opacity=".5" rx="1" ry="1" transform="matrix(-10.88538 -147.6867 1115.58169 -82.22492 1031.4 1141.2)"/><ellipse fill="#d6ffff" fill-opacity=".5" rx="1" ry="1" transform="matrix(-33.80588 174.09945 -750.6536 -145.75867 209.2 408.8)"/><ellipse fill-opacity=".5" rx="1" ry="1" transform="matrix(-1791.2529 78.42173 -8.07045 -184.3395 714.5 810.5)"/><ellipse fill="#001f7d" fill-opacity=".5" rx="1" ry="1" transform="rotate(12.5 570.1 5374.2) scale(955.75764 461.34872)"/><ellipse fill="#fff" fill-opacity=".5" rx="1" ry="1" transform="matrix(-8.90305 -137.16294 1224.06519 -79.45235 1180.3 1143.3)"/><ellipse fill="#0094e8" fill-opacity=".5" rx="1" ry="1" transform="matrix(-871.29334 -421.93952 88.70284 -183.1689 422.4 142)"/><ellipse fill="#00163e" fill-opacity=".5" rx="1" ry="1" transform="matrix(-525.83214 -134.0405 67.39505 -264.38641 1566.3 162.8)"/><ellipse fill="#e1feff" fill-opacity=".5" rx="1" ry="1" transform="rotate(-170.9 193.7 258) scale(429.59691 82.22463)"/></g></svg>