<svg xmlns="http://www.w3.org/2000/svg" viewBox="0 0 2689 1800"><filter id="c"><feGaussianBlur stdDeviation="55" /></filter><path fill="#3c8ec6" d="M0 0h2689v1796H0z"/><g filter='url(#c)' fill-opacity='.5'><ellipse fill="#ffffe2" fill-opacity=".5" rx="1" ry="1" transform="matrix(-2.00501 -574.3911 1378.36305 -4.81141 2166 1697.9)"/><ellipse fill="#0061c6" fill-opacity=".5" rx="1" ry="1" transform="rotate(-166.1 1024.7 79.3) scale(2442.89622 640.50489)"/><ellipse fill="#ffece2" fill-opacity=".5" rx="1" ry="1" transform="matrix(614.8277 -245.55093 52.7784 132.15025 42.7 1161.9)"/><ellipse fill="#003483" fill-opacity=".5" rx="1" ry="1" transform="matrix(-433.73267 341.31396 -182.2509 -231.59958 434.4 1609.6)"/><ellipse fill="#0077c6" fill-opacity=".5" rx="1" ry="1" transform="rotate(-78.1 1280.8 -1165.8) scale(752.93767 2431.27444)"/><ellipse fill="#0047a2" fill-opacity=".5" rx="1" ry="1" transform="rotate(-54.3 1163.2 -2255.2) scale(575.69303 2388.93393)"/><ellipse fill="#fbe7e4" fill-opacity=".5" rx="1" ry="1" transform="matrix(226.16179 -144.0253 234.77532 368.6658 2505 1538.7)"/><path fill="#003a8f" fill-opacity=".5" d="M1087.2 1097.7l105-273.1 976.9 399.1z"/></g></svg>