<svg xmlns="http://www.w3.org/2000/svg" viewBox="0 0 1200 1800"><filter id="c"><feGaussianBlur stdDeviation="55" /></filter><path fill="#5a6062" d="M0 0h1195v1800H0z"/><g filter='url(#c)' fill-opacity='.5'><ellipse fill="#57b7ff" fill-opacity=".5" rx="1" ry="1" transform="rotate(74.5 167.7 430.3) scale(404.75322 1188.28126)"/><ellipse fill="#240700" fill-opacity=".5" rx="1" ry="1" transform="matrix(224.18556 -633.0805 316.638 112.1274 653.2 1101.7)"/><ellipse fill="#d4fdff" fill-opacity=".5" rx="1" ry="1" transform="matrix(-150.47534 14.2241 -34.28809 -362.73007 3.3 875)"/><ellipse fill="#a17427" fill-opacity=".5" rx="1" ry="1" transform="matrix(-243.71098 1163.02076 -294.82852 -61.78131 1191.8 1433.9)"/><path fill="#b8a67c" fill-opacity=".5" d="M798 1768.4l-274.2-618.8-147.6 112.5z"/><path fill="#422807" fill-opacity=".5" d="M193.4 566h759.3v632.8H193.4z"/><ellipse fill="#000200" fill-opacity=".5" rx="1" ry="1" transform="matrix(85.47069 -91.44327 202.08342 188.88442 599.2 1761.3)"/><path fill="#020000" fill-opacity=".5" d="M1380 407.2l-720 262-36-99L1344 308z"/></g></svg>