<svg xmlns="http://www.w3.org/2000/svg" viewBox="0 0 1200 800"><filter id="c"><feGaussianBlur stdDeviation="55" /></filter><path fill="#475f5e" d="M0 0h1200v796H0z"/><g filter='url(#c)' fill-opacity='.5'><ellipse fill="#b3dbff" fill-opacity=".5" rx="1" ry="1" transform="matrix(-1110.28254 -33.28227 5.0468 -168.35889 525.8 2.3)"/><path fill="#fff" fill-opacity=".5" d="M189.8 518L-72.7 307-2.3-39.8z"/><ellipse fill="#120000" fill-opacity=".5" rx="1" ry="1" transform="matrix(-719.8295 -34.90062 4.87728 -100.59451 790.7 266.3)"/><ellipse fill="#080000" fill-opacity=".5" rx="1" ry="1" transform="matrix(8.5536 -125.87437 297.46435 20.21372 1042.2 585.9)"/><ellipse fill="#0083c9" fill-opacity=".5" rx="1" ry="1" transform="rotate(85 -256.3 407.6) scale(114.43011 449.29401)"/><path fill="#1c0000" fill-opacity=".5" d="M164 510.2l-4.4-248.4 450-7.9 4.3 248.4z"/><path fill="#fff" fill-opacity=".5" d="M-214.4 140L214-194.7 341-32.2-87.5 302.6z"/><ellipse fill="#fff" fill-opacity=".5" rx="1" ry="1" transform="matrix(122.43762 126.34583 -40.51456 39.26134 48.6 337.3)"/></g></svg>