<svg xmlns="http://www.w3.org/2000/svg" viewBox="0 0 1800 1200"><filter id="b"><feGaussianBlur stdDeviation="12" /></filter><path fill="#927b60" d="M0 0h1800v1195H0z"/><g filter="url(#b)" transform="translate(3.5 3.5) scale(7.03125)" fill-opacity=".5"><ellipse fill="#000628" rx="1" ry="1" transform="matrix(-62.56872 51.57767 -34.84622 -42.27185 197.2 4.6)"/><ellipse fill="#d7c6b3" cx="198" cy="41" rx="19" ry="23"/><ellipse fill="#cf9f61" rx="1" ry="1" transform="matrix(9.74172 -58.2142 202.02732 33.80778 73 126.2)"/><ellipse fill="#e3effe" rx="1" ry="1" transform="matrix(1.25396 6.24484 -68.14827 13.68412 189.7 83)"/><ellipse fill="#0c0f12" cx="150" rx="46" ry="41"/><path fill="#0d1e2b" d="M103-12l2 40-42 4z"/><path d="M268.3 6l-47.5 41.3L205.7 30l47.5-41.3z"/><path fill="#ddfeff" d="M104.8 52.7l-23 8.4L85.3 86 112 48.2z"/></g></svg>