<svg xmlns="http://www.w3.org/2000/svg" viewBox="0 0 2700 1800"><filter id="b"><feGaussianBlur stdDeviation="12" /></filter><path fill="#465452" d="M0 0h2700v1792H0z"/><g filter="url(#b)" transform="translate(5.3 5.3) scale(10.54688)" fill-opacity=".5"><ellipse rx="1" ry="1" transform="rotate(-12 244 -370.4) scale(118.91605 44.05216)"/><ellipse fill="#a9c2b7" rx="1" ry="1" transform="matrix(-79.41383 1.75637 -2.78044 -125.71635 244 128.2)"/><path fill="#8794a7" d="M10 114.7L70.3 77l97.4 68.3-170.9-9.8z"/><ellipse rx="1" ry="1" transform="matrix(-1.70314 -47.98874 80.8307 -2.86871 119.4 30.7)"/><ellipse fill="#79c5f5" rx="1" ry="1" transform="rotate(66.8 -108.2 101) scale(13.59601 28.90175)"/><path fill="#000800" d="M72 120l82-3-28-51z"/><ellipse fill="#d0d3bc" cx="127" cy="132" rx="50" ry="8"/><path fill="#c2dde4" d="M153 95h54v20h-54z"/></g></svg>