<svg xmlns="http://www.w3.org/2000/svg" viewBox="0 0 1800 1200"><filter id="b"><feGaussianBlur stdDeviation="12" /></filter><path fill="#335d63" d="M0 0h1800v1195H0z"/><g filter="url(#b)" transform="translate(3.5 3.5) scale(7.03125)" fill-opacity=".5"><ellipse fill="#0f96ff" rx="1" ry="1" transform="matrix(-254.64715 -13.40996 2.8167 -53.48739 149.6 18.8)"/><ellipse fill="#4e2800" rx="1" ry="1" transform="matrix(-18.81314 62.80301 -244.2754 -73.17462 82.4 152.2)"/><path fill="#fec" d="M-16 52.1l9-6.7 229.2 19.7-151.3 5.8z"/><ellipse fill="#71b0d0" cx="232" cy="65" rx="78" ry="18"/><path fill="#fff" d="M60.7 80.6l-1.4-13.8L60 52l29.8 28z"/><ellipse fill="#504700" rx="1" ry="1" transform="matrix(15.9799 -49.18105 88.85915 28.87209 17.3 115)"/><ellipse fill="#0052bd" rx="1" ry="1" transform="rotate(-179.9 50.8 7) scale(133.54718 39.40333)"/><ellipse fill="#2d3400" rx="1" ry="1" transform="matrix(43.4206 -40.20792 46.04541 49.72452 178.6 153)"/></g></svg>