<svg xmlns="http://www.w3.org/2000/svg" viewBox="0 0 1200 1800"><filter id="c"><feGaussianBlur stdDeviation="55" /></filter><path fill="#82867c" d="M0 0h1195v1800H0z"/><g filter='url(#c)' fill-opacity='.5'><ellipse fill="#7ad4ff" fill-opacity=".5" rx="1" ry="1" transform="rotate(-102.6 310.7 -6.6) scale(303.70856 1074.66525)"/><ellipse fill="#ffffd3" fill-opacity=".5" rx="1" ry="1" transform="rotate(-88 1148 174.8) scale(210.65413 384.75338)"/><ellipse fill="#5d3801" fill-opacity=".5" rx="1" ry="1" transform="matrix(-97.52755 -305.59419 588.56362 -187.83461 1052.5 737.1)"/><ellipse fill="#6c3e05" fill-opacity=".5" rx="1" ry="1" transform="matrix(202.8486 722.72273 -293.8797 82.48403 258.5 1527.6)"/><path fill="#effbff" fill-opacity=".5" d="M-80.9 910.5l-28-604.6 534.3 161.7z"/><ellipse fill="#46331e" fill-opacity=".5" rx="1" ry="1" transform="matrix(550.89382 -62.61076 19.75805 173.8453 799.2 1715.4)"/><path fill="#ffffed" fill-opacity=".5" d="M151.2 1409.8l35.1 161.7-203.9-7z"/><path fill="#1d698e" fill-opacity=".5" d="M488.7 200.4L334 762.9l309.4 386.7z"/></g></svg>