<svg xmlns="http://www.w3.org/2000/svg" viewBox="0 0 900 600"><filter id="b"><feGaussianBlur stdDeviation="12" /></filter><path fill="#caa88f" d="M0 0h900v597H0z"/><g filter="url(#b)" transform="translate(1.8 1.8) scale(3.51563)" fill-opacity=".5"><ellipse fill="#e9f0fc" cx="108" cy="45" rx="68" ry="81"/><ellipse fill="#84411a" rx="1" ry="1" transform="matrix(40.00857 35.64634 -140.06246 157.20266 237 136.4)"/><ellipse fill="#9e592b" rx="1" ry="1" transform="matrix(8.93833 -34.1116 99.55364 26.08623 23.2 156.3)"/><ellipse fill="#f7b976" rx="1" ry="1" transform="matrix(-46.83795 26.47446 -39.63246 -70.11676 35.5 60.8)"/><ellipse fill="#d4e2fc" rx="1" ry="1" transform="matrix(-22.7992 59.79228 -42.19239 -16.08824 133.2 11.4)"/><path fill="#fff" d="M33.7 180.2l-7-.4 1.6-30 7 .4z"/><ellipse fill="#ffff8a" cx="228" cy="169" rx="8" ry="27"/><ellipse fill="#f5e3d1" rx="1" ry="1" transform="matrix(-14.16251 6.78554 -22.21055 -46.35699 44 44.6)"/></g></svg>