<svg xmlns="http://www.w3.org/2000/svg" viewBox="0 0 900 600"><filter id="b"><feGaussianBlur stdDeviation="12" /></filter><path fill="#dfc3af" d="M0 0h900v597H0z"/><g filter="url(#b)" transform="translate(1.8 1.8) scale(3.51563)" fill-opacity=".5"><ellipse fill="#973704" rx="1" ry="1" transform="matrix(135.79454 35.11773 -12.91518 49.9409 48.3 138.1)"/><ellipse fill="#fff" rx="1" ry="1" transform="matrix(143.98758 52.36609 -19.152 52.66099 97.7 21.6)"/><ellipse fill="#282430" rx="1" ry="1" transform="rotate(-103.7 84.2 39.8) scale(18.78263 42.07194)"/><path fill="#ff000a" d="M228 23h28v37h-28z"/><ellipse fill="#fff" cx="217" cy="155" rx="34" ry="26"/><path fill="#adb7cd" d="M44 68h81v41H44z"/><ellipse fill="#fcffff" rx="1" ry="1" transform="matrix(-87.77558 6.25795 -4.0511 -56.82187 143.9 25.3)"/><ellipse fill="#cc2332" rx="1" ry="1" transform="matrix(-14.76671 -1.5431 2.60675 -24.94527 137.7 135.8)"/></g></svg>