<svg xmlns="http://www.w3.org/2000/svg" viewBox="0 0 900 600"><filter id="c"><feGaussianBlur stdDeviation="55" /></filter><path fill="#dfc7a7" d="M0 0h900v597H0z"/><g filter='url(#c)' fill-opacity='.5'><ellipse fill="#af4700" fill-opacity=".5" rx="1" ry="1" transform="rotate(-157.2 209.6 267.8) scale(380.17426 140.1079)"/><ellipse fill="#fdfffe" fill-opacity=".5" rx="1" ry="1" transform="matrix(-260.52686 131.78152 -103.97941 -205.5632 515.3 236.6)"/><ellipse fill="#742610" fill-opacity=".5" rx="1" ry="1" transform="matrix(11.6327 -30.34684 60.6543 23.25031 182.9 82.9)"/><ellipse fill="#a06039" fill-opacity=".5" rx="1" ry="1" transform="matrix(-45.60603 53.01931 -37.67054 -32.40336 839.2 160.4)"/><ellipse fill="#b99144" fill-opacity=".5" rx="1" ry="1" transform="rotate(79.8 135.2 798.5) scale(77.97401 126.91929)"/><path fill="#936447" fill-opacity=".5" d="M117.8 128.3h52.7v204h-52.7z"/><ellipse fill="#c7803f" fill-opacity=".5" rx="1" ry="1" transform="matrix(20.68412 -44.93127 95.0472 43.75501 160.7 423.4)"/><ellipse fill="#fff" fill-opacity=".5" rx="1" ry="1" transform="matrix(163.56554 3.71182 -.73482 32.38046 767 300)"/></g></svg>