<svg xmlns="http://www.w3.org/2000/svg" viewBox="0 0 900 600"><filter id="b"><feGaussianBlur stdDeviation="12" /></filter><path fill="#b0d6a9" d="M0 0h900v597H0z"/><g filter="url(#b)" transform="translate(1.8 1.8) scale(3.51563)" fill-opacity=".5"><ellipse fill="#fff" rx="1" ry="1" transform="matrix(-108.76015 29.68793 -14.70914 -53.88616 129 145.5)"/><ellipse fill="#56ad54" rx="1" ry="1" transform="matrix(61.76875 .29737 -.3868 80.3439 22.5 59.4)"/><ellipse fill="#173700" rx="1" ry="1" transform="rotate(-152.1 142 38.8) scale(15.64447 63.09261)"/><path fill="#fffcf2" d="M70 85h145v85H70z"/><ellipse fill="#7ace8d" cx="196" cy="20" rx="74" ry="74"/><ellipse fill="#fffff8" rx="1" ry="1" transform="rotate(-18.8 519.3 28.3) scale(60.84689 29.24732)"/><ellipse fill="#73c478" rx="1" ry="1" transform="matrix(2.24171 -24.42571 47.09692 4.3224 105.1 57.3)"/><path fill="#57a74c" d="M53.1 106.4l20.9-2.6 2.9 23.8-20.9 2.6z"/></g></svg>