<svg xmlns="http://www.w3.org/2000/svg" viewBox="0 0 900 600"><filter id="c"><feGaussianBlur stdDeviation="55" /></filter><path fill="#caa57d" d="M0 0h900v597H0z"/><g filter='url(#c)' fill-opacity='.5'><ellipse fill="#3f1f27" fill-opacity=".5" rx="1" ry="1" transform="rotate(-107.9 342.4 77.2) scale(118.41067 264.17014)"/><ellipse fill="#fff" fill-opacity=".5" rx="1" ry="1" transform="rotate(81.3 339 519.8) scale(104.35334 88.80053)"/><ellipse fill="#fffdd1" fill-opacity=".5" rx="1" ry="1" transform="rotate(95 -188.7 258.4) scale(268.69976 85.37128)"/><path fill="#364083" fill-opacity=".5" d="M599.4 360.4H849v123H599.4z"/><ellipse fill="#fff5c0" fill-opacity=".5" rx="1" ry="1" transform="matrix(-163.18635 -97.66501 65.25112 -109.02668 251.8 75.2)"/><path fill="#4f3c46" fill-opacity=".5" d="M224 229.4l-18.9 32L169 584.6l289.7-135.8z"/><path fill="#ffb820" fill-opacity=".5" d="M712 195.1h175.7V371H711.9z"/><ellipse fill="#fffff9" fill-opacity=".5" rx="1" ry="1" transform="matrix(102.72507 -8.73684 3.14973 37.0336 580.5 155.7)"/></g></svg>