<svg xmlns="http://www.w3.org/2000/svg" viewBox="0 0 900 600"><filter id="b"><feGaussianBlur stdDeviation="12" /></filter><path fill="#e1c389" d="M0 0h900v597H0z"/><g filter="url(#b)" transform="translate(1.8 1.8) scale(3.51563)" fill-opacity=".5"><ellipse fill="#d09500" cx="155" cy="91" rx="76" ry="40"/><ellipse fill="#fff" cx="228" cy="167" rx="62" ry="62"/><path fill="#440002" d="M161.2 4.8l2.4 26.9-62.8 5.5-2.4-26.9z"/><ellipse fill="#fff" rx="1" ry="1" transform="matrix(8.6409 -19.51035 74.90134 33.17293 95.6 136.6)"/><ellipse fill="#bc4d0e" rx="1" ry="1" transform="matrix(9.9193 -17.26754 103.8401 59.65073 66 169)"/><ellipse fill="#546928" rx="1" ry="1" transform="rotate(-116.7 123.4 -29) scale(37.57357 20.96775)"/><ellipse fill="#fff" rx="1" ry="1" transform="matrix(-57.86014 10.93279 -1.62607 -8.60575 110.2 46.5)"/><ellipse fill="#fff" rx="1" ry="1" transform="rotate(-167.4 24.7 43.1) scale(15.89758 29.35528)"/></g></svg>