<svg xmlns="http://www.w3.org/2000/svg" viewBox="0 0 900 600"><filter id="b"><feGaussianBlur stdDeviation="12" /></filter><path fill="#d9c3a7" d="M0 0h900v597H0z"/><g filter="url(#b)" transform="translate(1.8 1.8) scale(3.51563)" fill-opacity=".5"><ellipse fill="#744317" rx="1" ry="1" transform="rotate(55 -45.9 219.4) scale(58.49926 37.66468)"/><ellipse fill="#973600" rx="1" ry="1" transform="matrix(134.93396 42.98652 -6.33698 19.89167 70.1 161.8)"/><ellipse fill="#fff" rx="1" ry="1" transform="matrix(-90.95775 .63502 -.28683 -41.08505 36.6 66)"/><ellipse fill="#fbffff" rx="1" ry="1" transform="rotate(-118.5 126.2 -47) scale(117.75032 61.30175)"/><path fill="#6e1d00" d="M114.5 39.3l-26.2-16 119.3 24 19.6 5.7z"/><ellipse fill="#ffe8ab" cx="134" cy="141" rx="66" ry="16"/><ellipse fill="#fffffb" rx="1" ry="1" transform="rotate(8.6 43.5 579.8) scale(123.95669 23.54257)"/><path fill="#410000" d="M220.8 57.3l8.2 6.3 19.2-9.7-19.7-11.6z"/></g></svg>