<svg xmlns="http://www.w3.org/2000/svg" viewBox="0 0 547 821"><filter id="b"><feGaussianBlur stdDeviation="12" /></filter><path fill="#775a3d" d="M0 0h545v821H0z"/><g filter="url(#b)" transform="translate(1.6 1.6) scale(3.20703)" fill-opacity=".5"><ellipse fill="#ffedad" rx="1" ry="1" transform="matrix(-48.36508 47.57257 -19.84316 -20.17373 67.6 81.2)"/><ellipse fill="#fff" cx="128" cy="151" rx="28" ry="28"/><ellipse rx="1" ry="1" transform="rotate(-44.8 347 -55.4) scale(101.34739 40.67333)"/><path fill="#ffffc2" d="M43 173h42v68H43z"/><ellipse fill="#040000" rx="1" ry="1" transform="matrix(-10.02537 -97.01348 39.95223 -4.12866 169 62)"/><ellipse fill="#fffedf" rx="1" ry="1" transform="matrix(1.27213 19.67204 -27.54825 1.78147 105.5 66)"/><path fill="#260400" d="M71 88l-2 70 88-75z"/><ellipse fill="#060000" rx="1" ry="1" transform="rotate(-15.5 882 -314.3) scale(21.73087 51.69251)"/></g></svg>