<svg xmlns="http://www.w3.org/2000/svg" viewBox="0 0 600 900"><filter id="b"><feGaussianBlur stdDeviation="12" /></filter><path fill="#53341b" d="M0 0h597v900H0z"/><g filter="url(#b)" transform="translate(1.8 1.8) scale(3.51563)" fill-opacity=".5"><ellipse fill="#fc9029" rx="1" ry="1" transform="rotate(40.4 -89.6 197) scale(49.16325 30.06186)"/><ellipse fill="#ffdd56" rx="1" ry="1" transform="matrix(1.8783 22.73596 -26.44148 2.18443 48 166)"/><ellipse rx="1" ry="1" transform="matrix(35.05338 165.32471 -22.4577 4.76165 9.6 201.6)"/><path fill="#fffff8" d="M95 168h22v15H95z"/><ellipse fill="#010606" cx="96" cy="255" rx="169" ry="31"/><ellipse fill="#9e9080" rx="1" ry="1" transform="rotate(-108.8 59.2 5.6) scale(36.87337 10.83785)"/><path fill="#ffefb4" d="M45 192l38-43-56 33z"/><ellipse fill="#0a0000" rx="1" ry="1" transform="matrix(7.80216 -17.12028 35.53763 16.19543 33.4 121)"/></g></svg>