<svg xmlns="http://www.w3.org/2000/svg" viewBox="0 0 600 900"><filter id="b"><feGaussianBlur stdDeviation="12" /></filter><path fill="#e4c7a3" d="M0 0h597v900H0z"/><g filter="url(#b)" transform="translate(1.8 1.8) scale(3.51563)" fill-opacity=".5"><ellipse fill="#c07628" rx="1" ry="1" transform="matrix(39.46718 -74.67093 33.9528 17.94569 125.8 143.1)"/><ellipse fill="#fff" cx="100" cy="4" rx="107" ry="69"/><ellipse fill="#cd7d27" rx="1" ry="1" transform="matrix(42.07864 -47.30221 21.51608 19.14006 22.7 112.2)"/><path fill="#f9ffff" d="M98.2 158l-40.5 6.3-9.9-62.2 40.5-6.4z"/><ellipse fill="#5b1c00" cx="72" cy="185" rx="11" ry="17"/><ellipse fill="#fff" cx="39" cy="208" rx="41" ry="16"/><path fill="#702f00" d="M122.1 148l-28.8-3 2.6-25 28.8 3z"/><path fill="#faffff" d="M86.3 71.4L110 68l5.7 40.6L92 112z"/></g></svg>