<svg xmlns="http://www.w3.org/2000/svg" viewBox="0 0 600 669"><filter id="b"><feGaussianBlur stdDeviation="12" /></filter><path fill="#a1794e" d="M0 0h598v669H0z"/><g filter="url(#b)" transform="translate(1.3 1.3) scale(2.61328)" fill-opacity=".5"><ellipse fill="#fdd7b3" rx="1" ry="1" transform="matrix(-67.00587 -12.8486 9.70584 -50.61631 183.8 123)"/><ellipse fill="#173d00" rx="1" ry="1" transform="matrix(-129.2402 1.10655 -.27828 -32.5021 203.5 23.2)"/><ellipse fill="#4c0000" rx="1" ry="1" transform="rotate(163.8 8.9 78.5) scale(60.39557 32.74406)"/><ellipse fill="#ffdf90" rx="1" ry="1" transform="matrix(74.72018 13.30442 -4.4095 24.7646 109 212.8)"/><path d="M150 189l94 63-4-52z"/><ellipse fill="#ecc5ad" cx="45" cy="37" rx="32" ry="32"/><ellipse fill="#3e0000" rx="1" ry="1" transform="rotate(156.4 44 101.4) scale(19.0916 26.08216)"/><ellipse fill="#7c2000" cx="90" cy="61" rx="15" ry="103"/></g></svg>