<svg xmlns="http://www.w3.org/2000/svg" viewBox="0 0 600 900"><filter id="b"><feGaussianBlur stdDeviation="12" /></filter><path fill="#ccaa87" d="M0 0h597v900H0z"/><g filter="url(#b)" transform="translate(1.8 1.8) scale(3.51563)" fill-opacity=".5"><path fill="#0f1002" d="M185 196L167-16l-64 167z"/><ellipse fill="#fffef7" rx="1" ry="1" transform="rotate(19.3 -677.3 263) scale(169 41.06022)"/><ellipse fill="#ffeeda" rx="1" ry="1" transform="matrix(-21.07117 -23.5273 49.8773 -44.67036 38.2 153)"/><path fill="#040000" d="M151-16l34 45-57 1z"/><ellipse fill="#fff" cx="169" cy="99" rx="21" ry="14"/><ellipse fill="#e1641e" rx="1" ry="1" transform="matrix(23.00956 -22.17273 14.35312 14.89483 70.7 193.6)"/><ellipse fill="#230d05" rx="1" ry="1" transform="matrix(-17.0685 7.47851 -15.64194 -35.7002 151.5 138.6)"/><ellipse fill="#333511" rx="1" ry="1" transform="matrix(8.40303 -4.07762 8.70412 17.93715 117.5 65)"/></g></svg>