<svg xmlns="http://www.w3.org/2000/svg" viewBox="0 0 600 900"><filter id="c"><feGaussianBlur stdDeviation="55" /></filter><path fill="#e8c19c" d="M0 0h597v900H0z"/><g filter='url(#c)' fill-opacity='.5'><path fill="#a23006" fill-opacity=".5" d="M448.2 708.4L648.6 733l-94.9-365.6z"/><ellipse fill="#7f541e" fill-opacity=".5" rx="1" ry="1" transform="rotate(76.8 221.7 332.9) scale(87.10662 233.81494)"/><ellipse fill="#de6506" fill-opacity=".5" rx="1" ry="1" transform="matrix(-110.05658 -37.88318 29.12691 -84.61824 186.1 720.6)"/><ellipse fill="#fff9ff" fill-opacity=".5" rx="1" ry="1" transform="matrix(-560.26112 149.07396 -26.21123 -98.50906 262 898.1)"/><ellipse fill="#fff" fill-opacity=".5" rx="1" ry="1" transform="matrix(15.05174 58.62264 -297.70668 76.43808 95.5 417.5)"/><path fill="#ff9e00" fill-opacity=".5" d="M348.8 243.4l105.4 5.5-5 94.8-105.3-5.5z"/><ellipse fill="#db7d28" fill-opacity=".5" rx="1" ry="1" transform="rotate(-20.2 685.7 -230.4) scale(60.92969 127.53307)"/><path fill="#fdffff" fill-opacity=".5" d="M546.7 402.5L416.6 181.1l158.2-63.3z"/></g></svg>