<svg xmlns="http://www.w3.org/2000/svg" viewBox="0 0 600 900"><filter id="b"><feGaussianBlur stdDeviation="12" /></filter><path fill="#e5bb97" d="M0 0h597v900H0z"/><g filter="url(#b)" transform="translate(1.8 1.8) scale(3.51563)" fill-opacity=".5"><ellipse fill="#c03300" rx="1" ry="1" transform="matrix(16.21423 24.4749 -33.86034 22.43192 116.6 198.3)"/><ellipse fill="#3c4227" rx="1" ry="1" transform="matrix(-23.05502 34.24323 -25.52343 -17.18422 167.7 49.2)"/><ellipse fill="#fff" cx="43" cy="151" rx="92" ry="21"/><ellipse fill="#de5601" rx="1" ry="1" transform="matrix(34.70982 -9.49553 4.37166 15.9801 55.6 226.8)"/><ellipse fill="#fafff3" rx="1" ry="1" transform="rotate(-103.7 61.6 9.8) scale(68.42837 20.15595)"/><ellipse fill="#fff" rx="1" ry="1" transform="matrix(-4.72038 -17.61668 30.38926 -8.14278 139.7 105)"/><ellipse fill="#d4994b" cx="110" cy="27" rx="23" ry="71"/><ellipse fill="#fffefa" rx="1" ry="1" transform="matrix(-54.11466 54.78538 -9.06418 -8.9532 20.7 200)"/></g></svg>