<svg xmlns="http://www.w3.org/2000/svg" viewBox="0 0 600 814"><filter id="b"><feGaussianBlur stdDeviation="12" /></filter><path fill="#f1eade" d="M0 0h597v814H0z"/><g filter="url(#b)" transform="translate(1.6 1.6) scale(3.17969)" fill-opacity=".5"><ellipse fill="#a94800" rx="1" ry="1" transform="rotate(163.8 7.2 114.1) scale(21.87877 19.95357)"/><ellipse fill="#b64600" cx="94" cy="119" rx="35" ry="12"/><ellipse fill="#674f30" rx="1" ry="1" transform="matrix(.89514 5.84978 -31.7047 4.8515 94.1 213.8)"/><ellipse fill="#fff" rx="1" ry="1" transform="matrix(20.82847 64.36229 -156.21269 50.55246 61.7 48.8)"/><ellipse fill="#f0df97" rx="1" ry="1" transform="matrix(55.22009 .91982 -.57783 34.68945 91.4 162.8)"/><ellipse fill="#fdffff" rx="1" ry="1" transform="matrix(115.02662 -147.4377 36.11054 28.1724 155.6 255)"/><ellipse fill="#e9cd85" cx="187" cy="115" rx="32" ry="32"/><path fill="#8e9190" d="M0 205h72v9H0z"/></g></svg>