<svg xmlns="http://www.w3.org/2000/svg" viewBox="0 0 600 900"><filter id="b"><feGaussianBlur stdDeviation="12" /></filter><path fill="#706353" d="M0 0h597v900H0z"/><g filter="url(#b)" transform="translate(1.8 1.8) scale(3.51563)" fill-opacity=".5"><ellipse fill="#f8d1aa" rx="1" ry="1" transform="rotate(29.9 -322.4 165.9) scale(55.09747 94.26878)"/><ellipse fill="#00070b" rx="1" ry="1" transform="rotate(-4.6 542.5 -1174.8) scale(169 55.77446)"/><ellipse fill="#ffebc2" cx="128" cy="250" rx="77" ry="14"/><ellipse fill="#000007" rx="1" ry="1" transform="matrix(-28.06955 17.57648 -14.97384 -23.91314 154 113.3)"/><ellipse fill="#fffff5" rx="1" ry="1" transform="matrix(-9.63333 14.99705 -57.95017 -37.2242 0 212.2)"/><ellipse fill="#1e333f" rx="1" ry="1" transform="matrix(-7.20542 10.45963 -41.69931 -28.7258 59 212.8)"/><ellipse fill="#01232c" rx="1" ry="1" transform="matrix(-2.75102 -23.07075 54.18267 -6.4609 156 207)"/><ellipse fill="#da9d68" cx="90" cy="159" rx="105" ry="22"/></g></svg>