<svg xmlns="http://www.w3.org/2000/svg" viewBox="0 0 600 900"><filter id="b"><feGaussianBlur stdDeviation="12" /></filter><path fill="#f1e2c5" d="M0 0h597v900H0z"/><g filter="url(#b)" transform="translate(1.8 1.8) scale(3.51563)" fill-opacity=".5"><ellipse fill="#f9be20" cx="69" cy="157" rx="35" ry="35"/><ellipse fill="#f8c026" rx="1" ry="1" transform="matrix(27.0956 19.18475 -20.71636 29.25876 122.3 85.9)"/><ellipse fill="#fbc935" rx="1" ry="1" transform="matrix(-12.38742 28.76326 -37.25689 -16.04535 .1 30.5)"/><ellipse fill="#fff" rx="1" ry="1" transform="rotate(-155.6 48 -10.4) scale(131.10492 37.71134)"/><ellipse fill="#fcfdff" rx="1" ry="1" transform="matrix(32.6603 -12.66652 61.10793 157.5653 15 201)"/><ellipse fill="#f8faff" rx="1" ry="1" transform="matrix(-25.10256 66.13244 -16.92695 -6.42513 78.2 59.4)"/><ellipse fill="#c2aca2" rx="1" ry="1" transform="rotate(-117.4 113 74.2) scale(17.55323 27.60044)"/><path fill="#fcfdff" d="M-7.1 122.5l92-33.5 8.2 22.5-92 33.5z"/></g></svg>