<svg xmlns="http://www.w3.org/2000/svg" viewBox="0 0 600 900"><filter id="b"><feGaussianBlur stdDeviation="12" /></filter><path fill="#ceb990" d="M0 0h597v900H0z"/><g filter="url(#b)" transform="translate(1.8 1.8) scale(3.51563)" fill-opacity=".5"><ellipse fill="#7a4200" rx="1" ry="1" transform="matrix(15.22054 -50.7327 92.52305 27.75824 101 200.6)"/><ellipse fill="#fff" rx="1" ry="1" transform="matrix(-3.79357 61.6691 -128.68323 -7.91595 46 67.4)"/><ellipse fill="#120000" rx="1" ry="1" transform="matrix(6.18467 20.5231 -97.62913 29.42067 168.8 216)"/><ellipse fill="#ffd335" cx="99" cy="174" rx="59" ry="31"/><ellipse fill="#fff" rx="1" ry="1" transform="matrix(-21.01715 9.4169 -42.41541 -94.665 0 214)"/><path fill="#190000" d="M159 154h11v76h-11z"/><ellipse fill="#fbfff9" rx="1" ry="1" transform="matrix(-18.346 -25.90342 137.91378 -97.67696 73.5 33.7)"/><path fill="#680000" d="M94 77.9L84 93.7l15.3 6.7 10.8-9.3z"/></g></svg>