<svg xmlns="http://www.w3.org/2000/svg" viewBox="0 0 600 900"><filter id="b"><feGaussianBlur stdDeviation="12" /></filter><path fill="#f3eadc" d="M0 0h597v900H0z"/><g filter="url(#b)" transform="translate(1.8 1.8) scale(3.51563)" fill-opacity=".5"><ellipse fill="#eeb83f" rx="1" ry="1" transform="matrix(-31.90048 .89106 -.44405 -15.8971 52.4 125.7)"/><ellipse fill="#fff" cx="63" cy="27" rx="169" ry="45"/><ellipse fill="#c8b39f" rx="1" ry="1" transform="matrix(2.582 -11.36473 84.15825 19.12028 93.3 188.1)"/><path fill="#f5be45" d="M113.1 106.7L76.6 84.3l48.9-7.5 3.8 18.6z"/><path fill="#c6a076" d="M12 240.3l62.4-31.8 3.6 7.2-62.4 31.8z"/><ellipse fill="#f4ca67" rx="1" ry="1" transform="matrix(2.96183 12.947 -16.1932 3.70446 4.9 67.5)"/><ellipse fill="#fff" cx="165" cy="70" rx="29" ry="57"/><path fill="#d5b89a" d="M69 209.2l27.8 6.4 88.2-22-43.2-7.3z"/></g></svg>