<svg xmlns="http://www.w3.org/2000/svg" viewBox="0 0 600 900"><filter id="b"><feGaussianBlur stdDeviation="12" /></filter><path fill="#685545" d="M0 0h597v900H0z"/><g filter="url(#b)" transform="translate(1.8 1.8) scale(3.51563)" fill-opacity=".5"><ellipse fill="#ffb580" cx="50" cy="169" rx="62" ry="64"/><ellipse fill="#000510" cx="96" cy="38" rx="169" ry="47"/><ellipse fill="#ffd89b" rx="1" ry="1" transform="matrix(20.72187 14.15489 -10.69697 15.6597 148.4 138.6)"/><ellipse fill="#171016" rx="1" ry="1" transform="matrix(55.62943 36.45962 -9.22772 14.07949 127 174.3)"/><path fill="#ffad62" d="M121.2 125l-54.3-8.5 6-37.6 54.2 8.6z"/><ellipse fill="#000813" rx="1" ry="1" transform="matrix(-7.38005 23.98922 -43.28882 -13.31738 169 102.4)"/><ellipse fill="#e3c8a0" rx="1" ry="1" transform="matrix(10.903 -19.71296 34.9324 19.32068 63 213.3)"/><path fill="#001528" d="M73.6 271l25.7-14 85.7-21-59.6-43z"/></g></svg>