<svg xmlns="http://www.w3.org/2000/svg" viewBox="0 0 600 900"><filter id="b"><feGaussianBlur stdDeviation="12" /></filter><path fill="#f0e4d3" d="M0 0h597v900H0z"/><g filter="url(#b)" transform="translate(1.8 1.8) scale(3.51563)" fill-opacity=".5"><ellipse fill="#e69a13" rx="1" ry="1" transform="matrix(-43.4579 -12.46135 5.66541 -19.75764 113.7 125.6)"/><ellipse fill="#fff" rx="1" ry="1" transform="matrix(105.3352 -46.048 22.0076 50.34258 66.5 16.8)"/><path fill="#a48b72" d="M219.1 236.5l-168 3-.2-16 168-3z"/><ellipse fill="#eeb74b" cx="169" cy="55" rx="63" ry="17"/><ellipse fill="#fff" rx="1" ry="1" transform="matrix(-25.3039 73.09957 -34.2452 -11.8542 24.2 204)"/><path fill="#cfa65e" d="M31.6 132.7l91.7-48.3 31.7 23.5-18.4.1z"/><path fill="#c28645" d="M7.5 101.3l19.8 17.2 4.7-11.7L1 76.4z"/><ellipse fill="#fff" cx="52" cy="46" rx="53" ry="53"/></g></svg>