<svg xmlns="http://www.w3.org/2000/svg" viewBox="0 0 600 900"><filter id="b"><feGaussianBlur stdDeviation="12" /></filter><path fill="#ddcfca" d="M0 0h597v900H0z"/><g filter="url(#b)" transform="translate(1.8 1.8) scale(3.51563)" fill-opacity=".5"><ellipse fill="#a63b02" rx="1" ry="1" transform="matrix(20.3201 29.34595 -35.63946 24.67793 82.5 174.2)"/><ellipse cx="57" cy="63" rx="15" ry="15"/><ellipse fill="#a72700" rx="1" ry="1" transform="matrix(-15.6113 -7.37943 7.8598 -16.62753 122.1 97.4)"/><ellipse fill="#fff" rx="1" ry="1" transform="matrix(-30.98767 .51836 -2.82662 -168.97636 17.8 139.2)"/><path fill="#f5ffff" d="M-16 18l181-34 20 113z"/><path fill="#1e0014" d="M122 150l-44 20 35 15z"/><ellipse fill="#002" cx="57" cy="64" rx="14" ry="14"/><ellipse fill="#c3a395" rx="1" ry="1" transform="matrix(-12.66338 23.91697 -38.1381 -20.19309 109.4 215)"/></g></svg>