<svg xmlns="http://www.w3.org/2000/svg" viewBox="0 0 600 900"><filter id="b"><feGaussianBlur stdDeviation="12" /></filter><path fill="#ddd9d1" d="M0 0h597v900H0z"/><g filter="url(#b)" transform="translate(1.8 1.8) scale(3.51563)" fill-opacity=".5"><path d="M27 45l6 29 74-26z"/><ellipse fill="#080000" rx="1" ry="1" transform="matrix(-8.68349 11.59198 -13.1679 -9.864 72 230.2)"/><ellipse cx="146" cy="106" rx="13" ry="13"/><ellipse fill="#974e00" rx="1" ry="1" transform="rotate(-140.1 44.3 77.5) scale(24.59859 12.76818)"/><ellipse fill="#fff" rx="1" ry="1" transform="matrix(-164.28563 39.63875 -5.96761 -24.7332 60 16.4)"/><ellipse fill="#d26200" rx="1" ry="1" transform="matrix(12.58287 -7.6505 8.23082 13.53733 141.6 39.2)"/><ellipse fill="#180000" cx="80" cy="53" rx="9" ry="15"/><ellipse fill="#c7a673" rx="1" ry="1" transform="rotate(74.2 -49.4 137.4) scale(30.37573 33.87929)"/></g></svg>