<svg xmlns="http://www.w3.org/2000/svg" viewBox="0 0 820 546"><filter id="c"><feGaussianBlur stdDeviation="55" /></filter><path fill="#cfd3c4" d="M0 0h820v544H0z"/><g filter='url(#c)' fill-opacity='.5'><ellipse fill="#6c6b29" fill-opacity=".5" rx="1" ry="1" transform="matrix(-46.90692 48.04384 -79.42858 -77.54896 387.3 396.8)"/><path fill="#4a9ea7" fill-opacity=".5" d="M475.7 120.1h160.1v192.2H475.7z"/><ellipse fill="#fff" fill-opacity=".5" rx="1" ry="1" transform="matrix(373.7585 43.50856 -11.55901 99.29723 213 543)"/><ellipse fill="#554c1e" fill-opacity=".5" rx="1" ry="1" transform="matrix(8.62702 -142.7041 23.91144 1.44554 349.6 263.7)"/><ellipse fill="#fff" fill-opacity=".5" rx="1" ry="1" transform="matrix(67.88407 88.53963 -349.7189 268.13236 674.6 542.8)"/><ellipse fill="#00add8" fill-opacity=".5" rx="1" ry="1" transform="matrix(167.77926 .2016 -.01938 16.12937 573.4 133.3)"/><path fill="#4f6900" fill-opacity=".5" d="M350.3 401l-2.8 32-124.4-10.9 2.8-31.9z"/><path fill="#a49087" fill-opacity=".5" d="M-49.6 389.2L20.8-49.6l73.7 365.1z"/></g></svg>