<svg xmlns="http://www.w3.org/2000/svg" viewBox="0 0 600 900"><filter id="b"><feGaussianBlur stdDeviation="12" /></filter><path fill="#c795a0" d="M0 0h597v900H0z"/><g filter="url(#b)" transform="translate(1.8 1.8) scale(3.51563)" fill-opacity=".5"><ellipse fill="#830000" rx="1" ry="1" transform="matrix(57.2374 -32.38336 34.51004 60.99629 90 152.2)"/><ellipse fill="#fff" rx="1" ry="1" transform="matrix(-21.18475 -14.45125 80.20813 -117.58073 34.1 71)"/><ellipse fill="#fff" rx="1" ry="1" transform="rotate(-105.1 107.6 -29.7) scale(118.63732 30.3568)"/><ellipse fill="#fcffff" cx="99" cy="241" rx="169" ry="25"/><path fill="#2f0000" d="M21 36L-16 4l82-20z"/><ellipse fill="#371c1c" rx="1" ry="1" transform="rotate(49.6 3 145.8) scale(36.62808 15.9032)"/><ellipse fill="#fcffff" rx="1" ry="1" transform="matrix(24.13616 -40.64992 24.44743 14.51582 159 220)"/><ellipse fill="#f9ffff" cx="59" cy="69" rx="62" ry="17"/></g></svg>