<svg xmlns="http://www.w3.org/2000/svg" viewBox="0 0 600 900"><filter id="b"><feGaussianBlur stdDeviation="12" /></filter><path fill="#dccec5" d="M0 0h597v900H0z"/><g filter="url(#b)" transform="translate(1.8 1.8) scale(3.51563)" fill-opacity=".5"><ellipse fill="#b13900" rx="1" ry="1" transform="rotate(118.7 -13.2 103.4) scale(34.23267 46.81044)"/><ellipse fill="#f2f8f2" rx="1" ry="1" transform="matrix(44.05591 -15.6876 56.69131 159.2077 152.9 104)"/><path fill="#6b221c" d="M99.2 123.1l-49.4 12.7L72 171.2l11.7-30z"/><ellipse fill="#eaefeb" rx="1" ry="1" transform="matrix(-29.99597 -12.8641 28.26344 -65.90353 40.4 61.7)"/><path fill="#cc7836" d="M44 174h80v24H44z"/><ellipse fill="#e2e6e1" cx="117" cy="228" rx="93" ry="32"/><ellipse fill="#aca9c1" cx="82" cy="91" rx="22" ry="37"/><path fill="#fffada" d="M94.2 166.6l15-27 10.6 5.8-15 27z"/></g></svg>