<svg xmlns="http://www.w3.org/2000/svg" viewBox="0 0 820 547"><filter id="b"><feGaussianBlur stdDeviation="12" /></filter><path fill="#c6c3ac" d="M0 0h820v544H0z"/><g filter="url(#b)" transform="translate(1.6 1.6) scale(3.20313)" fill-opacity=".5"><ellipse fill="#946226" cx="103" cy="111" rx="57" ry="57"/><ellipse fill="#4e7e00" rx="1" ry="1" transform="matrix(-8.38476 -30.44069 15.78015 -4.34658 190.6 38)"/><ellipse fill="#feffff" rx="1" ry="1" transform="matrix(81.9788 -44.91689 18.09697 33.02917 198.5 149.3)"/><ellipse fill="#f1f2fa" rx="1" ry="1" transform="matrix(139.72969 -169.50567 51.79818 42.69912 22.3 25.2)"/><ellipse fill="#803200" rx="1" ry="1" transform="matrix(19.1098 -26.30481 16.33482 11.86685 74 106.5)"/><ellipse fill="#1180f2" rx="1" ry="1" transform="rotate(134.3 42.6 98.7) scale(55.91367 6.20897)"/><ellipse fill="#2591cf" rx="1" ry="1" transform="matrix(13.4726 -6.06369 14.18562 31.51831 155.4 39.1)"/><path fill="#743200" d="M92.4 55.4L111 34.6l24.5 22L117 77.4z"/></g></svg>