<svg xmlns="http://www.w3.org/2000/svg" viewBox="0 0 600 900"><filter id="b"><feGaussianBlur stdDeviation="12" /></filter><path fill="#916841" d="M0 0h597v900H0z"/><g filter="url(#b)" transform="translate(1.8 1.8) scale(3.51563)" fill-opacity=".5"><ellipse fill="#2b0505" cx="82" cy="201" rx="44" ry="44"/><path fill="#c9b384" d="M-16 195L15-7l118-6z"/><ellipse fill="#a95107" rx="1" ry="1" transform="matrix(-35.22345 -28.71933 23.62387 -28.97401 118.7 109.7)"/><ellipse fill="#a5aab1" rx="1" ry="1" transform="matrix(-61.1595 2.54119 -.2854 -6.86876 129.7 61.6)"/><path fill="#58250c" d="M-1 200l43-98-1 124z"/><ellipse fill="#ba5c28" rx="1" ry="1" transform="matrix(1.99761 -26.56737 32.00264 2.4063 61.1 166)"/><ellipse fill="#cc9857" rx="1" ry="1" transform="rotate(33.2 -389 175.3) scale(50.82749 16.88656)"/><ellipse fill="#15221e" rx="1" ry="1" transform="matrix(-31.22608 14.03687 -4.02056 -8.94404 104.8 226.4)"/></g></svg>