<svg xmlns="http://www.w3.org/2000/svg" viewBox="0 0 600 900"><filter id="b"><feGaussianBlur stdDeviation="12" /></filter><path fill="#3f3725" d="M0 0h597v900H0z"/><g filter="url(#b)" transform="translate(1.8 1.8) scale(3.51563)" fill-opacity=".5"><ellipse fill="#ffc483" rx="1" ry="1" transform="matrix(14.28819 .5076 -6.00002 168.89346 8.3 94)"/><ellipse fill="#ffb33a" rx="1" ry="1" transform="rotate(84.5 -23 190.6) scale(91.77401 15.55933)"/><ellipse fill="#000d0d" rx="1" ry="1" transform="matrix(-56.61117 -41.84292 43.69658 -59.11908 85.5 229.3)"/><ellipse fill="#040f0d" rx="1" ry="1" transform="rotate(-53.7 85.1 -99.4) scale(57.31952 104.12705)"/><path fill="#f6ffff" d="M169.1 170l-4.8-21.4L185 107l-6.8 84.6z"/><ellipse fill="#d4875a" cy="164" rx="15" ry="148"/><path d="M164 120h6v19h-6z"/><ellipse fill="#2e3429" rx="1" ry="1" transform="matrix(18.2639 -78.78318 62.1759 14.41392 82 137)"/></g></svg>