<svg xmlns="http://www.w3.org/2000/svg" viewBox="0 0 820 547"><filter id="b"><feGaussianBlur stdDeviation="12" /></filter><path fill="#e9ddd2" d="M0 0h820v544H0z"/><g filter="url(#b)" transform="translate(1.6 1.6) scale(3.20313)" fill-opacity=".5"><ellipse fill="#824c25" rx="1" ry="1" transform="matrix(61.81335 7.42976 -2.9179 24.2761 114 86)"/><ellipse fill="#fff" rx="1" ry="1" transform="rotate(19.4 -437.6 413.4) scale(255 56.85823)"/><ellipse fill="#fff" cx="238" cy="132" rx="37" ry="98"/><path fill="#68321e" d="M126.8 63.3L75.4 80.6l35.8 24.5 14.6 13.4z"/><ellipse fill="#ba8758" rx="1" ry="1" transform="matrix(.12559 -12.18391 28.07045 .28935 176.9 119.3)"/><path fill="#e2c39e" d="M99.6 102.3l64.8 48L27 113.1l21.5-51.3z"/><ellipse fill="#fff" rx="1" ry="1" transform="matrix(11.31573 22.51456 -54.50768 27.39535 13.5 68.7)"/><ellipse fill="#d5beac" cx="133" cy="39" rx="52" ry="52"/></g></svg>