<svg xmlns="http://www.w3.org/2000/svg" viewBox="0 0 900 600"><filter id="b"><feGaussianBlur stdDeviation="12" /></filter><path fill="#dec2a3" d="M0 0h900v597H0z"/><g filter="url(#b)" transform="translate(1.8 1.8) scale(3.51563)" fill-opacity=".5"><ellipse fill="#4e1409" rx="1" ry="1" transform="matrix(-2.32757 20.76392 -57.75465 -6.47412 173 0)"/><ellipse fill="#fff" rx="1" ry="1" transform="matrix(6.38015 30.48263 -74.15428 15.52083 62.6 73.7)"/><ellipse fill="#6a3e2d" rx="1" ry="1" transform="rotate(116.4 48.5 85.5) scale(31.73797 22.15038)"/><ellipse fill="#6f2811" cx="147" cy="154" rx="59" ry="8"/><ellipse fill="#924715" rx="1" ry="1" transform="matrix(4.78328 11.19424 -19.79609 8.45883 64.8 36.7)"/><path fill="#7a3f1e" d="M-3 147l59-47 8 24z"/><ellipse fill="#fff" cx="40" rx="35" ry="29"/><ellipse fill="#fffffc" rx="1" ry="1" transform="matrix(-64.396 -12.65779 2.23248 -11.35767 164.6 43.2)"/></g></svg>