<svg xmlns="http://www.w3.org/2000/svg" viewBox="0 0 600 900"><filter id="b"><feGaussianBlur stdDeviation="12" /></filter><path fill="#311a0b" d="M0 0h597v900H0z"/><g filter="url(#b)" transform="translate(1.8 1.8) scale(3.51563)" fill-opacity=".5"><ellipse fill="#b3662d" rx="1" ry="1" transform="rotate(102.5 -31.3 98.2) scale(15.28045 80.84436)"/><ellipse fill="#ffeb8e" cx="169" cy="199" rx="39" ry="8"/><ellipse rx="1" ry="1" transform="matrix(-12.75513 49.21976 -163.59595 -42.39533 75.9 19.3)"/><ellipse fill="#9f6831" rx="1" ry="1" transform="matrix(1.97685 12.07842 -63.13286 10.3328 66.4 241)"/><ellipse fill="#845121" cx="47" cy="98" rx="34" ry="37"/><path fill="#f0cca3" d="M41.2 118.3L33 107l18.5 67.8L29 138.6z"/><path fill="#ffac4c" d="M162 141.1l13-.2 1 62-13 .2z"/><ellipse fill="#020000" rx="1" ry="1" transform="matrix(54.43127 -6.5869 3.66256 30.26575 126.4 121.2)"/></g></svg>