<svg xmlns="http://www.w3.org/2000/svg" viewBox="0 0 820 547"><filter id="c"><feGaussianBlur stdDeviation="55" /></filter><path fill="#d19283" d="M0 0h820v544H0z"/><g filter='url(#c)' fill-opacity='.5'><ellipse fill="#fff" fill-opacity=".5" rx="1" ry="1" transform="matrix(-223.3354 -27.7941 15.30197 -122.95678 436.9 166)"/><ellipse fill="#e34707" fill-opacity=".5" rx="1" ry="1" transform="matrix(-131.24595 233.87753 -135.1183 -75.82485 743.5 391.3)"/><ellipse fill="#250726" fill-opacity=".5" rx="1" ry="1" transform="rotate(74.4 -81 427.7) scale(43.9449 198.14023)"/><path fill-opacity=".5" d="M664.6 123.3l128.2-67.2L514 30.4z"/><ellipse fill="#ffff58" fill-opacity=".5" rx="1" ry="1" transform="matrix(109.15016 -125.5282 78.08042 67.89303 169.7 39.7)"/><ellipse fill="#7f232e" fill-opacity=".5" rx="1" ry="1" transform="matrix(-91.77975 -40.6608 70.47197 -159.0697 1.6 349.5)"/><path fill="#000018" fill-opacity=".5" d="M667.9 190.6h153.7v44.8H667.9z"/><ellipse fill="#fef3ff" fill-opacity=".5" rx="1" ry="1" transform="matrix(24.04132 98.62145 -203.98101 49.72521 368.4 149)"/></g></svg>