<svg xmlns="http://www.w3.org/2000/svg" viewBox="0 0 820 547"><filter id="b"><feGaussianBlur stdDeviation="12" /></filter><path fill="#432813" d="M0 0h820v544H0z"/><g filter="url(#b)" transform="translate(1.6 1.6) scale(3.20313)" fill-opacity=".5"><ellipse fill="#b68057" rx="1" ry="1" transform="matrix(66.55298 -5.32301 1.6044 20.05953 125.8 78.8)"/><ellipse fill="#fdac60" cx="225" cy="128" rx="38" ry="9"/><ellipse cx="138" cy="161" rx="127" ry="21"/><ellipse fill="#010000" cx="32" cy="18" rx="86" ry="25"/><ellipse fill="#7f512b" rx="1" ry="1" transform="matrix(-60.2763 7.72157 -3.31329 -25.86425 50.3 83.8)"/><ellipse fill="#030000" rx="1" ry="1" transform="matrix(3.904 25.09935 -68.82105 10.70456 230.6 13)"/><path fill="#bb7d4d" d="M222.6 76l-21-1 1.8-35 21 1z"/><path fill="#8f5d33" d="M111.9 58.5l15.4 69.9 59.7-3.5-25.7-38.3z"/></g></svg>