<svg xmlns="http://www.w3.org/2000/svg" viewBox="0 0 900 600"><filter id="c"><feGaussianBlur stdDeviation="55" /></filter><path fill="#b4a59a" d="M0 0h900v597H0z"/><g filter='url(#c)' fill-opacity='.5'><ellipse fill="#000015" fill-opacity=".5" rx="1" ry="1" transform="matrix(-181.85866 -164.01766 89.16256 -98.8612 550.6 212.8)"/><ellipse fill="#ffffe6" fill-opacity=".5" rx="1" ry="1" transform="rotate(-172.9 145.4 260.5) scale(856.11973 150.24393)"/><ellipse fill="#fffffd" fill-opacity=".5" rx="1" ry="1" transform="matrix(-79.01324 -1.93104 9.72834 -398.05864 819.3 89.6)"/><ellipse fill="#000738" fill-opacity=".5" rx="1" ry="1" transform="matrix(-100.12876 -48.14995 64.34843 -133.81381 598 257)"/><ellipse fill="#a1613f" fill-opacity=".5" rx="1" ry="1" transform="matrix(-204.77818 -1.42964 .96543 -138.28497 261.3 95)"/><ellipse fill="#fff" fill-opacity=".5" rx="1" ry="1" transform="rotate(-176.1 338 17.1) scale(149.14916 59.82322)"/><ellipse fill="#fff" fill-opacity=".5" rx="1" ry="1" transform="matrix(-1.8246 -55.00203 88.62662 -2.94005 395.3 295)"/><path fill="#000013" fill-opacity=".5" d="M954.5 476.4H856l59.7-348z"/></g></svg>