<svg xmlns="http://www.w3.org/2000/svg" viewBox="0 0 900 600"><filter id="b"><feGaussianBlur stdDeviation="12" /></filter><path fill="#3e454e" d="M0 0h900v597H0z"/><g filter="url(#b)" transform="translate(1.8 1.8) scale(3.51563)" fill-opacity=".5"><ellipse fill="#bde8ff" rx="1" ry="1" transform="rotate(-71 193.3 -89.9) scale(54.90211 27.23069)"/><ellipse fill="#ffecaa" rx="1" ry="1" transform="matrix(21.83826 25.06181 -14.81352 12.90814 124.7 75.3)"/><ellipse fill="#ffa196" cx="55" cy="81" rx="19" ry="19"/><ellipse fill="#000018" rx="1" ry="1" transform="rotate(-18.4 346.7 -37) scale(21.70488 111.08641)"/><path fill="#00081a" d="M188.6 67.8l-94.7-29 15.5-50.6 94.7 29z"/><ellipse fill="#000f1f" rx="1" ry="1" transform="matrix(-23.8344 -23.51889 28.33753 -28.71769 76.9 130.2)"/><path fill="#ffdd93" d="M237 15.6l-37-1.3 1-30 37 1.4z"/><ellipse fill="#001523" rx="1" ry="1" transform="rotate(-172.5 81.8 73.6) scale(28.81945 74.06605)"/></g></svg>