<svg xmlns="http://www.w3.org/2000/svg" viewBox="0 0 900 600"><filter id="b"><feGaussianBlur stdDeviation="12" /></filter><path fill="#d2b7a9" d="M0 0h900v597H0z"/><g filter="url(#b)" transform="translate(1.8 1.8) scale(3.51563)" fill-opacity=".5"><ellipse fill="#163447" rx="1" ry="1" transform="matrix(-45.63941 8.21183 -6.42683 -35.71883 255 103.2)"/><ellipse fill="#c05559" cx="12" cy="65" rx="35" ry="125"/><ellipse fill="#ffffe4" rx="1" ry="1" transform="matrix(2.89144 -172.47956 31.39977 .52638 172.2 89.2)"/><ellipse fill="#ffd" cx="97" cy="139" rx="77" ry="21"/><path fill="#051738" d="M45 171l-58-61 2 75z"/><ellipse fill="#9a715e" rx="1" ry="1" transform="matrix(71.45594 14.34654 -3.423 17.04894 83.2 92.5)"/><path fill="#fff" d="M251.6 141l-33.8-8.1L223 185l48-22.1z"/><ellipse fill="#e4dcde" rx="1" ry="1" transform="matrix(-29.83018 -48.75918 24.99116 -15.28924 90.3 39.5)"/></g></svg>