<svg xmlns="http://www.w3.org/2000/svg" viewBox="0 0 900 600"><filter id="b"><feGaussianBlur stdDeviation="12" /></filter><path fill="#798799" d="M0 0h900v597H0z"/><g filter="url(#b)" transform="translate(1.8 1.8) scale(3.51563)" fill-opacity=".5"><ellipse fill="#ffffda" cx="141" cy="89" rx="73" ry="73"/><ellipse fill="#000041" rx="1" ry="1" transform="matrix(45.51536 -39.40163 142.73784 164.88567 26.3 152.6)"/><ellipse fill="#00004b" rx="1" ry="1" transform="matrix(221.46862 -40.3732 3.0421 16.68752 172 169)"/><ellipse fill="#5d2d00" cx="150" cy="63" rx="21" ry="22"/><ellipse fill="#ffffe0" rx="1" ry="1" transform="matrix(-5.87933 22.80742 -38.84584 -10.01373 226 4.2)"/><ellipse fill="#124183" rx="1" ry="1" transform="matrix(-10.63028 -40.234 104.45623 -27.59853 24.4 15.8)"/><path fill="#093f8d" d="M214 30h42v140h-42z"/><path fill="#ffcaa4" d="M78.8 77.1l-19-31.5L33 64.3l14 26.5z"/></g></svg>