<svg xmlns="http://www.w3.org/2000/svg" viewBox="0 0 600 900"><filter id="b"><feGaussianBlur stdDeviation="12" /></filter><path fill="#a76043" d="M0 0h597v900H0z"/><g filter="url(#b)" transform="translate(1.8 1.8) scale(3.51563)" fill-opacity=".5"><ellipse fill="#2b1400" rx="1" ry="1" transform="matrix(-23.75385 44.90683 -149.38814 -79.02014 57.2 228.1)"/><ellipse fill="#fb9e7f" rx="1" ry="1" transform="matrix(-30.63726 74.03026 -108.23279 -44.7919 127.6 102)"/><ellipse fill="#ff0006" rx="1" ry="1" transform="matrix(144.40537 1.09483 -.08428 11.11657 75 54.6)"/><path fill="#3c2411" d="M-16 77l62 47-1 147z"/><ellipse fill="#3a1400" cx="75" cy="5" rx="169" ry="11"/><ellipse fill="#6f390e" rx="1" ry="1" transform="matrix(14.21772 -2.88423 15.69528 77.36933 136.3 197)"/><ellipse fill="#ffb076" cx="27" cy="33" rx="130" ry="12"/><ellipse fill="#f2b994" rx="1" ry="1" transform="rotate(51.1 -118.3 167.4) scale(23.54355 34.40914)"/></g></svg>