<svg xmlns="http://www.w3.org/2000/svg" viewBox="0 0 820 547"><filter id="c"><feGaussianBlur stdDeviation="55" /></filter><path fill="#855e38" d="M0 0h820v544H0z"/><g filter='url(#c)' fill-opacity='.5'><ellipse fill="#ffedaf" fill-opacity=".5" rx="1" ry="1" transform="matrix(-28.87256 140.46458 -399.46412 -82.11003 364.2 449.6)"/><ellipse fill-opacity=".5" rx="1" ry="1" transform="matrix(-57.82687 181.79874 -261.20581 -83.08482 715.5 108.1)"/><ellipse fill-opacity=".5" rx="1" ry="1" transform="matrix(-234.28147 -103.33044 69.30468 -157.13475 157.7 36.6)"/><ellipse fill="#ce8527" fill-opacity=".5" rx="1" ry="1" transform="matrix(446.19263 101.37248 -20.77497 91.44138 561 355.4)"/><path fill-opacity=".5" d="M492.5 129.4l231.6-248.3 260 242.5L752.6 372z"/><ellipse fill="#ffcba9" fill-opacity=".5" rx="1" ry="1" transform="matrix(-295.4263 -49.10566 19.98718 -120.2456 355.8 506)"/><ellipse fill="#060000" fill-opacity=".5" rx="1" ry="1" transform="matrix(59.96173 -121.85832 188.87745 92.93923 177.6 38.9)"/><ellipse fill="#ff7914" fill-opacity=".5" rx="1" ry="1" transform="matrix(37.16996 -5.813 19.11727 122.2411 428.7 160.4)"/></g></svg>