<svg xmlns="http://www.w3.org/2000/svg" viewBox="0 0 900 600"><filter id="b"><feGaussianBlur stdDeviation="12" /></filter><path fill="#efece6" d="M0 0h900v597H0z"/><g filter="url(#b)" transform="translate(1.8 1.8) scale(3.51563)" fill-opacity=".5"><ellipse fill="#a56810" rx="1" ry="1" transform="matrix(23.52634 -3.97918 7.3631 43.53322 118.5 82)"/><ellipse fill="#feffff" cx="213" cy="6" rx="101" ry="101"/><path fill="#94010a" d="M103.1 107.7l13-11 14.8 17.6-13 11z"/><ellipse fill="#fafbfd" cx="34" cy="117" rx="71" ry="71"/><path fill="#b5b15f" d="M144.8 79.2l11.4 28.3L83 82.8l18-37.4z"/><path fill="#ffebd4" d="M126.7 64.5l15.8 2.5-5.2 32.5-15.8-2.5z"/><path fill="#5c5208" d="M120 80.1L99.7 61l2 2.8 26.2-5.3z"/><ellipse fill="#dad8d7" rx="1" ry="1" transform="matrix(-77.9865 63.83121 -17.67836 -21.59874 130.1 148.1)"/></g></svg>