<svg xmlns="http://www.w3.org/2000/svg" viewBox="0 0 900 600"><filter id="b"><feGaussianBlur stdDeviation="12" /></filter><path fill="#b17971" d="M0 0h900v597H0z"/><g filter="url(#b)" transform="translate(1.8 1.8) scale(3.51563)" fill-opacity=".5"><ellipse fill="#000046" rx="1" ry="1" transform="matrix(-33.07714 -63.31885 35.41469 -18.50028 207.8 138.3)"/><ellipse fill="#00003e" rx="1" ry="1" transform="matrix(22.62991 1.51242 -6.11384 91.47955 38.1 139)"/><ellipse fill="#ffd49f" cx="115" cy="45" rx="56" ry="108"/><ellipse fill="#ff9855" rx="1" ry="1" transform="matrix(-16.82424 -62.1984 178.00675 -48.14959 135.3 0)"/><path fill="#ffffc4" d="M229 70h21v67h-21z"/><ellipse fill="#e2b0f1" rx="1" ry="1" transform="matrix(-7.40756 -84.66876 28.2666 -2.473 129.6 145.2)"/><path fill="#30144c" d="M8 136h93v34H8z"/><ellipse fill="#000035" rx="1" ry="1" transform="rotate(-78 157.4 -133.2) scale(25.50325 16.33657)"/></g></svg>