<svg xmlns="http://www.w3.org/2000/svg" viewBox="0 0 820 547"><filter id="b"><feGaussianBlur stdDeviation="12" /></filter><path fill="#7e5562" d="M0 0h820v544H0z"/><g filter="url(#b)" transform="translate(1.6 1.6) scale(3.20313)" fill-opacity=".5"><ellipse fill="#dbb682" rx="1" ry="1" transform="matrix(160.98244 -18.05707 3.77314 33.63829 106.5 168.6)"/><ellipse fill="#00082a" rx="1" ry="1" transform="matrix(.39557 75.5482 -14.11437 .0739 113 60.7)"/><ellipse fill="#4b2535" rx="1" ry="1" transform="matrix(15.71996 27.51841 -44.25508 25.28083 232 97.3)"/><ellipse fill="#d97a99" cx="88" cy="43" rx="9" ry="80"/><ellipse fill="#ba7fed" rx="1" ry="1" transform="matrix(.17023 -6.09444 47.9308 1.33883 32.4 21.2)"/><ellipse fill="#1f2623" rx="1" ry="1" transform="matrix(-8.03618 -10.74219 28.74442 -21.50358 25.4 128.7)"/><path fill="#341c70" d="M37 33h43v50H37z"/><path fill="#b5a5ff" d="M63 135h85v9H63z"/></g></svg>