<svg xmlns="http://www.w3.org/2000/svg" viewBox="0 0 900 600"><filter id="b"><feGaussianBlur stdDeviation="12" /></filter><path fill="#d6b18b" d="M0 0h900v597H0z"/><g filter="url(#b)" transform="translate(1.8 1.8) scale(3.51563)" fill-opacity=".5"><ellipse fill="#441a1e" rx="1" ry="1" transform="matrix(-3.75788 23.99735 -31.35383 -4.90988 148.2 86.2)"/><ellipse fill="#fbf2d5" rx="1" ry="1" transform="matrix(16.95614 58.97828 -42.46912 12.2098 212.6 16.4)"/><ellipse fill="#c46931" rx="1" ry="1" transform="matrix(-.03688 -59.54451 31.32845 -.0194 7 82.9)"/><ellipse fill="#fff0cb" cx="76" cy="110" rx="30" ry="48"/><ellipse fill="#80402c" rx="1" ry="1" transform="matrix(-4.8209 -17.74383 51.96137 -14.1176 170.4 169)"/><path fill="#e4ffff" d="M222 173.5l-1-52 63-1 1 52z"/><path fill="#793c36" d="M134 103.8l-35.5 47.4 34.2-4 6.2-21z"/><path fill="#fffffd" d="M70 27l1-31 33 1-1 31z"/></g></svg>