<svg xmlns="http://www.w3.org/2000/svg" viewBox="0 0 777 547"><filter id="b"><feGaussianBlur stdDeviation="12" /></filter><path fill="#8e5e46" d="M0 0h777v546H0z"/><g filter="url(#b)" transform="translate(1.5 1.5) scale(3.03516)" fill-opacity=".5"><ellipse rx="1" ry="1" transform="matrix(-28.05702 32.28379 -60.43644 -52.52378 54.8 11.7)"/><path fill="#ffdeb2" d="M119.7 90l2.7-76 167.9 6-2.7 76z"/><ellipse fill="#090000" rx="1" ry="1" transform="matrix(-3.568 -17.8374 106.13982 -21.23103 156 117.5)"/><ellipse fill="#af0b00" cx="184" cy="55" rx="45" ry="25"/><ellipse fill="#ffd4a0" rx="1" ry="1" transform="rotate(66.7 -15 231.4) scale(20.54092 109.2699)"/><ellipse fill="#efb58b" rx="1" ry="1" transform="rotate(-122.5 80 64) scale(112.138 25.14413)"/><ellipse rx="1" ry="1" transform="matrix(-12.34565 -22.57248 72.67819 -39.75017 99.7 15.9)"/><ellipse fill="#150000" cx="8" cy="158" rx="29" ry="36"/></g></svg>