<svg xmlns="http://www.w3.org/2000/svg" viewBox="0 0 900 600"><filter id="b"><feGaussianBlur stdDeviation="12" /></filter><path fill="#b6a08a" d="M0 0h900v597H0z"/><g filter="url(#b)" transform="translate(1.8 1.8) scale(3.51563)" fill-opacity=".5"><ellipse fill="#3f262b" rx="1" ry="1" transform="matrix(-2.03416 -42.24619 97.55282 -4.69719 61 33.1)"/><ellipse fill="#000012" rx="1" ry="1" transform="matrix(5.12806 11.9634 -56.90391 24.39161 200.6 54.3)"/><ellipse fill="#ffeec2" cx="78" cy="134" rx="89" ry="89"/><ellipse fill="#fff2c8" rx="1" ry="1" transform="matrix(-69.7392 -35.08074 16.33033 -32.4641 222.6 132.8)"/><path fill="#000005" d="M161 20l-25 43-57 12z"/><ellipse fill="#000422" rx="1" ry="1" transform="matrix(-16.5712 33.11933 -11.6123 -5.8102 195.4 54.8)"/><ellipse fill="#00001c" cx="120" rx="33" ry="29"/><ellipse fill="#ffb07f" rx="1" ry="1" transform="matrix(6.50275 -11.11487 72.84512 42.61804 51.5 10)"/></g></svg>