<svg xmlns="http://www.w3.org/2000/svg" viewBox="0 0 900 600"><filter id="b"><feGaussianBlur stdDeviation="12" /></filter><path fill="#d1cfc6" d="M0 0h900v597H0z"/><g filter="url(#b)" transform="translate(1.8 1.8) scale(3.51563)" fill-opacity=".5"><ellipse fill="#7a796e" rx="1" ry="1" transform="rotate(151.4 113.3 88) scale(33.13298 181.06009)"/><ellipse rx="1" ry="1" transform="matrix(-5.08647 .30842 -2.53056 -41.73408 39.9 131.6)"/><ellipse fill="#f9f7ef" rx="1" ry="1" transform="rotate(62.5 -8.5 101.8) scale(248.99468 55.64979)"/><path d="M192.8 26.2l4.4 44.3-9.5-29 1.4-57.5z"/><ellipse fill="#443f37" rx="1" ry="1" transform="matrix(-14.06918 -50.1102 4.2959 -1.20614 234.7 146.6)"/><ellipse fill="#cacac1" rx="1" ry="1" transform="matrix(-27.2543 -44.43821 21.35383 -13.09647 226.6 27.3)"/><ellipse fill="#070000" cx="39" cy="128" rx="5" ry="35"/><path fill="#413227" d="M241 92h7v48h-7z"/></g></svg>