<svg xmlns="http://www.w3.org/2000/svg" viewBox="0 0 900 600"><filter id="c"><feGaussianBlur stdDeviation="55" /></filter><path fill="#cdcbc2" d="M0 0h900v597H0z"/><g filter='url(#c)' fill-opacity='.5'><ellipse fill="#89897d" fill-opacity=".5" rx="1" ry="1" transform="matrix(135.6812 -37.62772 174.68309 629.88686 757.7 171)"/><path fill-opacity=".5" d="M146.7 652.1l-28-156.8L112 142l32.4 118.2z"/><ellipse fill="#faf9f2" fill-opacity=".5" rx="1" ry="1" transform="matrix(-204.93944 102.12033 -212.02516 -425.50113 416.4 334.3)"/><path fill="#4a4839" fill-opacity=".5" d="M657.2 545.9l-250.5 85.5 136.2.8 244.9-120z"/><path fill="#050100" fill-opacity=".5" d="M683.8 346.3l73.8 172.3-59.7-56.3z"/><path fill="#cdcec5" fill-opacity=".5" d="M760 157l199.5 391.5L846.7 606 647.2 214.4z"/><path fill="#332e24" fill-opacity=".5" d="M650.3 214L555.1-36 630 218.7l56 169.6z"/><path fill="#010000" fill-opacity=".5" d="M117.8 223.2h24.6v211h-24.6z"/></g></svg>