<svg xmlns="http://www.w3.org/2000/svg" viewBox="0 0 900 600"><filter id="b"><feGaussianBlur stdDeviation="12" /></filter><path fill="#d6d4cd" d="M0 0h900v597H0z"/><g filter="url(#b)" transform="translate(1.8 1.8) scale(3.51563)" fill-opacity=".5"><ellipse rx="1" ry="1" transform="matrix(89.82035 12.74818 -1.4025 9.8816 240 64.5)"/><ellipse fill="#fff" rx="1" ry="1" transform="matrix(-33.24415 76.10785 -42.74174 -18.66972 105 95.5)"/><ellipse fill="#9a9483" rx="1" ry="1" transform="matrix(-92.68103 18.1418 -6.5931 -33.68217 205.5 150.4)"/><ellipse rx="1" ry="1" transform="matrix(-61.60715 -10.199 1.23922 -7.4855 210.1 59)"/><ellipse fill="#fff" cx="144" cy="92" rx="80" ry="32"/><ellipse fill="#b2ac98" rx="1" ry="1" transform="matrix(3.50944 -18.90077 35.9852 6.68162 33 92)"/><ellipse fill="#fff" cx="82" cy="53" rx="50" ry="17"/><path d="M202 54h61l8 34z"/></g></svg>