<svg xmlns="http://www.w3.org/2000/svg" viewBox="0 0 900 600"><filter id="b"><feGaussianBlur stdDeviation="12" /></filter><path fill="#c8c8c0" d="M0 0h900v597H0z"/><g filter="url(#b)" transform="translate(1.8 1.8) scale(3.51563)" fill-opacity=".5"><ellipse fill="#343024" rx="1" ry="1" transform="matrix(-40.53354 .66252 -.95214 -58.25252 159.7 162.4)"/><ellipse fill="#fffffe" cx="70" cy="112" rx="52" ry="255"/><ellipse fill="#6c6a60" cx="243" cy="95" rx="21" ry="249"/><path d="M172 121l7.9 9-68 59-7.8-9z"/><ellipse fill="#fdfcfd" rx="1" ry="1" transform="matrix(5.80602 -22.94516 41.94117 10.61275 171.3 60)"/><path fill="#fff" d="M190.1 141.3l-19.8 19.8-8.4-8.4 19.8-19.8zM148 111h22l-22 27z"/><ellipse fill="#0f0300" rx="1" ry="1" transform="matrix(.07361 -10.54435 2.78463 .01944 55.4 8.2)"/></g></svg>