<svg xmlns="http://www.w3.org/2000/svg" viewBox="0 0 900 600"><filter id="b"><feGaussianBlur stdDeviation="12" /></filter><path fill="#bcb3a5" d="M0 0h900v597H0z"/><g filter="url(#b)" transform="translate(1.8 1.8) scale(3.51563)" fill-opacity=".5"><ellipse fill="#1e0000" rx="1" ry="1" transform="rotate(-69.8 110 -133.7) scale(48.65751 84.91135)"/><ellipse fill="#f0f7f2" rx="1" ry="1" transform="matrix(28.7783 -84.09558 157.45202 53.88156 38.4 91)"/><ellipse fill="#775842" rx="1" ry="1" transform="matrix(-19.9125 -3.57052 6.19514 -34.54979 81 107)"/><ellipse fill="#640800" rx="1" ry="1" transform="matrix(4.35843 -44.30604 73.68255 7.24822 187.5 2.8)"/><ellipse rx="1" ry="1" transform="matrix(-.2808 -98.05476 2.59832 -.00744 203 120.8)"/><path d="M71 0h5v61h-5z"/><ellipse fill="#ebf1eb" cx="148" cy="104" rx="49" ry="48"/><ellipse fill="#51594b" cx="252" cy="97" rx="4" ry="109"/></g></svg>