<svg xmlns="http://www.w3.org/2000/svg" viewBox="0 0 600 800"><filter id="b"><feGaussianBlur stdDeviation="12" /></filter><path fill="#3f3a32" d="M0 0h600v800H0z"/><g filter="url(#b)" transform="translate(1.6 1.6) scale(3.125)" fill-opacity=".5"><ellipse fill="#f5d1bc" rx="1" ry="1" transform="rotate(95.9 -27.7 129.4) scale(72.61951 18.76053)"/><ellipse fill="#040403" rx="1" ry="1" transform="matrix(41.31557 -9.08193 19.96824 90.83966 29.7 195.5)"/><ellipse cx="172" cy="211" rx="49" ry="49"/><ellipse fill="#cbb5a8" rx="1" ry="1" transform="matrix(-7.97571 -1.55032 8.52263 -43.84513 53.8 20.8)"/><ellipse fill="#000404" cx="191" cy="79" rx="30" ry="103"/><ellipse fill="#c9b7ac" rx="1" ry="1" transform="matrix(24.19251 53.83078 -10.33618 4.64526 90.3 177)"/><path fill="#fff" d="M86 222l-13 42 12-12z"/><ellipse fill="#6b5f53" rx="1" ry="1" transform="rotate(141.8 31.8 66.4) scale(27.76368 95.48712)"/></g></svg>