<svg xmlns="http://www.w3.org/2000/svg" viewBox="0 0 900 600"><filter id="b"><feGaussianBlur stdDeviation="12" /></filter><path fill="#c8c7c0" d="M0 0h900v597H0z"/><g filter="url(#b)" transform="translate(1.8 1.8) scale(3.51563)" fill-opacity=".5"><ellipse rx="1" ry="1" transform="matrix(73.91275 91.4277 -7.48873 6.0541 238 150)"/><ellipse fill="#f4f1e8" cx="35" cy="131" rx="145" ry="145"/><path d="M55 107h7v63h-7z"/><ellipse fill="#918f80" rx="1" ry="1" transform="matrix(40.79799 114.57406 -49.59954 17.6616 255.2 59)"/><ellipse fill="#00053f" rx="1" ry="1" transform="rotate(52.7 -25.4 293.6) scale(80.20725 8.34888)"/><path d="M194 156.8L165.7 185l6.3-12 44-54.4z"/><path fill="#050000" d="M172 0h5v53h-5z"/><ellipse fill="#9d9e92" rx="1" ry="1" transform="rotate(-178.6 1.3 56.8) scale(16.957 48.36587)"/></g></svg>