<svg xmlns="http://www.w3.org/2000/svg" viewBox="0 0 900 600"><filter id="b"><feGaussianBlur stdDeviation="12" /></filter><path fill="#d2d3cb" d="M0 0h900v597H0z"/><g filter="url(#b)" transform="translate(1.8 1.8) scale(3.51563)" fill-opacity=".5"><ellipse fill="#73746d" rx="1" ry="1" transform="matrix(9.09617 -163.63735 30.36847 1.6881 253.2 59)"/><ellipse fill="#f8faf5" rx="1" ry="1" transform="matrix(-55.7341 74.9834 -46.03 -34.21345 155.2 129.7)"/><path fill="#937e6e" d="M119 35.3l1 65-27 .4-1-65z"/><ellipse fill="#fffff7" rx="1" ry="1" transform="matrix(-21.46004 59.60756 -30.91144 -11.1288 49.9 92.3)"/><ellipse fill="#736f67" rx="1" ry="1" transform="matrix(45.14682 -21.7277 7.08627 14.72418 0 14.3)"/><ellipse cx="78" cy="143" rx="2" ry="34"/><path d="M75.8-7.6l2.5 41 6-46-1 10.2z"/><path fill="#fff" d="M235.4 133l-6-.3 7.2-101.8 6 .4z"/></g></svg>