<svg xmlns="http://www.w3.org/2000/svg" viewBox="0 0 600 800"><filter id="b"><feGaussianBlur stdDeviation="12" /></filter><path fill="#6b3832" d="M0 0h600v800H0z"/><g filter="url(#b)" transform="translate(1.6 1.6) scale(3.125)" fill-opacity=".5"><ellipse fill="#946b68" rx="1" ry="1" transform="matrix(31.42715 41.32904 -64.93756 49.3794 1.6 84.4)"/><ellipse fill="#ab6a6b" rx="1" ry="1" transform="matrix(34.16001 3.98618 -10.0564 86.1794 191 71.2)"/><ellipse fill="#410c03" cx="140" cy="230" rx="35" ry="76"/><ellipse fill="#391b21" rx="1" ry="1" transform="matrix(-20.9471 68.08964 -35.96468 -11.06418 15.1 223.8)"/><ellipse fill="#65180e" cx="102" cy="57" rx="32" ry="94"/><path fill="#e9a94f" d="M55.4 32.6l12-.2 1.2 67-12 .2z"/><ellipse fill="#4b242f" cx="35" cy="62" rx="10" ry="98"/><path fill="#8a7a92" d="M-20 135l-9.5-60.2L20 67l9.6 60.2z"/></g></svg>