<svg xmlns="http://www.w3.org/2000/svg" viewBox="0 0 820 547"><filter id="b"><feGaussianBlur stdDeviation="12" /></filter><path fill="#bcad80" d="M0 0h820v544H0z"/><g filter="url(#b)" transform="translate(1.6 1.6) scale(3.20313)" fill-opacity=".5"><ellipse fill="#474934" rx="1" ry="1" transform="matrix(-58.09212 73.5151 -28.84259 -22.7916 180.9 111.4)"/><ellipse fill="#fff" rx="1" ry="1" transform="rotate(82.7 -30.3 26.7) scale(252.81143 28.45945)"/><ellipse fill="#fff1f3" rx="1" ry="1" transform="matrix(-20.80033 59.39642 -24.06795 -8.42848 243.3 153)"/><ellipse fill="#fbd048" cx="103" cy="72" rx="66" ry="66"/><ellipse fill="#fff" rx="1" ry="1" transform="matrix(-132.47018 -110.52065 22.22282 -26.6363 28 169)"/><ellipse fill="#ebf7fb" rx="1" ry="1" transform="rotate(-77.4 63.8 -69.9) scale(15.07795 39.06699)"/><path fill="#4d6e6d" d="M95 170l100-24-171-34z"/><path fill="#ffffde" d="M117.7 56.6L51.8 90.2l-9.5-18.8 65.9-33.6z"/></g></svg>