<svg xmlns="http://www.w3.org/2000/svg" viewBox="0 0 900 600"><filter id="c"><feGaussianBlur stdDeviation="55" /></filter><path fill="#f3e8dd" d="M0 0h900v597H0z"/><g filter='url(#c)' fill-opacity='.5'><ellipse fill="#d2945c" fill-opacity=".5" rx="1" ry="1" transform="matrix(39.953 278.30579 -116.50944 16.72585 415.7 363.4)"/><path fill="#e8540c" fill-opacity=".5" d="M545.7 270.6L250 138.6l93.9-8.4L616 226z"/><ellipse fill="#cd5a17" fill-opacity=".5" rx="1" ry="1" transform="matrix(-54.65701 10.58194 -17.56752 -90.73836 377.5 419)"/><path fill="#fefffd" fill-opacity=".5" d="M933.4 413l-668-228.4 355.1 404.3z"/><ellipse fill="#fff" fill-opacity=".5" rx="1" ry="1" transform="matrix(9.48087 -480.57566 257.2681 5.07542 53.8 391.2)"/><ellipse fill="#47494a" fill-opacity=".5" rx="1" ry="1" transform="matrix(-79.66173 -99.99843 12.34612 -9.83529 344.6 295.2)"/><ellipse fill="#fff" fill-opacity=".5" rx="1" ry="1" transform="matrix(-40.1361 -260.50032 180.11181 -27.7504 738.3 127.6)"/><path fill="#f60000" fill-opacity=".5" d="M368.9 425l22.4-35-47.1-24.8-67 43.4z"/></g></svg>