<svg xmlns="http://www.w3.org/2000/svg" viewBox="0 0 600 900"><filter id="b"><feGaussianBlur stdDeviation="12" /></filter><path fill="#e3ded8" d="M0 0h597v900H0z"/><g filter="url(#b)" transform="translate(1.8 1.8) scale(3.51563)" fill-opacity=".5"><ellipse rx="1" ry="1" transform="rotate(94.8 -24.8 125.9) scale(15.30433 92.66773)"/><ellipse fill="#0b0000" rx="1" ry="1" transform="matrix(-4.80145 10.75887 -44.54712 -19.8804 63 156)"/><ellipse fill="#fff" cx="108" cy="43" rx="113" ry="113"/><ellipse fill="#380000" cx="128" cy="163" rx="106" ry="12"/><path fill="#bd903e" d="M85.7 177.2l-5.9 22.2-69.5-18.6 5.9-22.2z"/><ellipse fill="#fff" rx="1" ry="1" transform="matrix(116.61994 5.49966 -1.30742 27.7237 113.1 226.8)"/><path fill="#fbfdff" d="M0 0h21v197H0z"/><path fill="#e6e6c3" d="M135 96.5l-76 4.4 46.9 56.5 50.7-2.8z"/></g></svg>