<svg xmlns="http://www.w3.org/2000/svg" viewBox="0 0 600 900"><filter id="b"><feGaussianBlur stdDeviation="12" /></filter><path fill="#f8f4ef" d="M0 0h597v900H0z"/><g filter="url(#b)" transform="translate(1.8 1.8) scale(3.51563)" fill-opacity=".5"><ellipse fill="#dd8d43" rx="1" ry="1" transform="matrix(-1.29745 -59.5175 13.48427 -.29395 62.5 139.9)"/><ellipse fill="#eb6920" rx="1" ry="1" transform="matrix(-20.39207 -7.79606 2.52847 -6.61369 69.1 99.7)"/><path fill="#d4885c" d="M55.8 113.2l31 34.8 2.3 19-38-20.6z"/><path fill="#d94300" d="M65.7 167l6.7 6-16 18-6.8-6z"/><path fill="#feffff" d="M75 140.3l-91 39 19.6 13L83.2 150z"/><path fill="#fff" d="M47 97l44.9 58-15.6 28 40-41.9z"/><ellipse fill="#fbffff" cx="86" cy="39" rx="154" ry="49"/><path fill="#fafeff" d="M0 188h170v68H0z"/></g></svg>