<svg xmlns="http://www.w3.org/2000/svg" viewBox="0 0 1253 530"><filter id="c"><feGaussianBlur stdDeviation="55" /></filter><path fill="#6d614d" d="M0 0h1253v528H0z"/><g filter='url(#c)' fill-opacity='.5'><ellipse fill-opacity=".5" rx="1" ry="1" transform="matrix(5.19714 -175.10987 129.35814 3.83926 193.1 410)"/><ellipse fill="#b9d0d5" fill-opacity=".5" rx="1" ry="1" transform="matrix(134.28616 52.89673 -44.34994 112.58888 1206.7 82.5)"/><ellipse fill-opacity=".5" rx="1" ry="1" transform="matrix(23.99458 -62.95577 324.86948 123.81877 689.4 2.4)"/><ellipse fill="#a08d73" fill-opacity=".5" rx="1" ry="1" transform="rotate(-162.9 336.9 66.4) scale(435.84495 168.03872)"/><path fill-opacity=".5" d="M225.1 76.1l-324 172.4-92-172.9L133.2-96.7z"/><ellipse fill-opacity=".5" rx="1" ry="1" transform="matrix(-68.67093 167.43703 -19.06902 -7.82077 609 429.7)"/><path fill-opacity=".5" d="M1221.2 261.9l-34.3 342.6-112.6-14.7z"/><path fill="#190d04" fill-opacity=".5" d="M421.8 162.2l129 17 40.7-43.7-106-18.4z"/></g></svg>