<svg xmlns="http://www.w3.org/2000/svg" viewBox="0 0 900 1352"><filter id="b"><feGaussianBlur stdDeviation="12" /></filter><path fill="#e4dfda" d="M0 0h897v1352H0z"/><g filter="url(#b)" transform="translate(2.6 2.6) scale(5.28125)" fill-opacity=".5"><ellipse fill="#8f715d" rx="1" ry="1" transform="matrix(-18.46659 39.34152 -67.94917 -31.89478 81.2 126.5)"/><ellipse fill="#fff" rx="1" ry="1" transform="matrix(-23.2956 52.17377 -129.76623 -57.94067 56.6 217)"/><ellipse fill="#667177" rx="1" ry="1" transform="matrix(-2.4723 -42.1463 28.415 -1.66683 101.5 118.8)"/><ellipse fill="#fff" cx="63" cy="35" rx="169" ry="47"/><path fill="#f2fefb" d="M74 126L60 53 14 216z"/><path fill="#903204" d="M43 124l-27 20 23-54z"/><ellipse fill="#feffff" rx="1" ry="1" transform="matrix(21.24814 167.65893 -27.10206 3.43476 160.5 93.5)"/><path fill="#e8966d" d="M48 166l81 13 24-31z"/></g></svg>