<svg xmlns="http://www.w3.org/2000/svg" viewBox="0 0 820 547"><filter id="c"><feGaussianBlur stdDeviation="55" /></filter><path fill="#3d2a11" d="M0 0h820v544H0z"/><g filter='url(#c)' fill-opacity='.5'><ellipse fill="#ffdd6f" fill-opacity=".5" rx="1" ry="1" transform="matrix(-251.73093 -157.60222 58.70682 -93.76975 461.4 334.2)"/><path fill-opacity=".5" d="M440.4 1.6h381.2v297.9H440.4z"/><ellipse fill="#fffffa" fill-opacity=".5" rx="1" ry="1" transform="matrix(-80.82454 30.37995 -24.54094 -65.2901 358.5 231.5)"/><ellipse fill="#ffea5c" fill-opacity=".5" rx="1" ry="1" transform="matrix(-21.8336 -52.15955 152.0035 -63.62753 595.5 422.6)"/><path fill-opacity=".5" d="M325.1-49.6L-49.6 1.6l60.8 592.6z"/><ellipse fill="#f66d00" fill-opacity=".5" rx="1" ry="1" transform="matrix(-155.08045 -13.02247 8.34559 -99.38497 475.9 380.3)"/><ellipse fill-opacity=".5" rx="1" ry="1" transform="matrix(-.2865 -93.29026 537.4403 -1.65057 401 68.1)"/><ellipse fill-opacity=".5" rx="1" ry="1" transform="matrix(26.98453 -94.1383 411.60987 117.98704 194 513)"/></g></svg>