<svg xmlns="http://www.w3.org/2000/svg" viewBox="0 0 800 1200"><filter id="b"><feGaussianBlur stdDeviation="12" /></filter><path fill="#dfcfbc" d="M0 0h796v1200H0z"/><g filter="url(#b)" transform="translate(2.3 2.3) scale(4.6875)" fill-opacity=".5"><ellipse fill="#c07d39" rx="1" ry="1" transform="matrix(-62.02293 -12.38532 16.26355 -81.44423 91 130.6)"/><ellipse fill="#fff" cx="118" cy="23" rx="168" ry="34"/><ellipse fill="#fff" rx="1" ry="1" transform="matrix(-24.06873 -.18624 1.30763 -168.99494 2.7 122.5)"/><path fill="#dfffff" d="M185 249L78 189l-92 82z"/><path fill="#8c4a1a" d="M75.5 173.7l-13.7 37.6-41.3-15 13.7-37.6z"/><ellipse fill="#fff" cx="70" cy="106" rx="65" ry="8"/><ellipse fill="#bb4d00" rx="1" ry="1" transform="rotate(-79.4 56.5 12.7) scale(23.08412 8.42332)"/><path fill="#935621" d="M153.7 201.1l-33 11.4-14.4-41.6 33-11.4z"/></g></svg>