<svg xmlns="http://www.w3.org/2000/svg" viewBox="0 0 800 1200"><filter id="b"><feGaussianBlur stdDeviation="12" /></filter><path fill="#d9b998" d="M0 0h796v1200H0z"/><g filter="url(#b)" transform="translate(2.3 2.3) scale(4.6875)" fill-opacity=".5"><ellipse fill="#aa601d" cx="124" cy="205" rx="98" ry="44"/><ellipse fill="#fff" rx="1" ry="1" transform="matrix(.71419 -23.03537 168.91883 5.23717 98.2 14.8)"/><ellipse fill="#fff" cx="12" cy="140" rx="17" ry="169"/><ellipse fill="#b75e0e" rx="1" ry="1" transform="matrix(-7.16502 39.03912 -71.62467 -13.14559 143.5 82.4)"/><ellipse fill="#b44600" rx="1" ry="1" transform="matrix(-14.50722 -3.26934 9.2902 -41.22386 40.1 70.9)"/><ellipse fill="#fff" rx="1" ry="1" transform="matrix(14.05586 47.44619 -9.0196 2.67204 101.3 181.1)"/><ellipse fill="#fbffff" rx="1" ry="1" transform="matrix(-10.08172 -56.03187 11.81614 -2.12606 67.4 240.6)"/><ellipse fill="#fff" cx="83" cy="139" rx="117" ry="15"/></g></svg>