<svg xmlns="http://www.w3.org/2000/svg" viewBox="0 0 900 600"><filter id="b"><feGaussianBlur stdDeviation="12" /></filter><path fill="#a58152" d="M0 0h900v597H0z"/><g filter="url(#b)" transform="translate(1.8 1.8) scale(3.51563)" fill-opacity=".5"><ellipse fill="#fffcbc" rx="1" ry="1" transform="matrix(-107.85974 -17.65324 8.28461 -50.61824 124.5 81)"/><ellipse rx="1" ry="1" transform="matrix(59.17724 -70.75274 12.18153 10.18857 62.7 129.8)"/><ellipse fill="#280000" cx="238" cy="169" rx="255" ry="37"/><ellipse fill="#060000" rx="1" ry="1" transform="matrix(21.03195 174.44743 -24.10046 2.90563 252.6 83.4)"/><ellipse fill="#290000" cx="219" cy="13" rx="62" ry="21"/><ellipse fill="#ffe9a2" rx="1" ry="1" transform="matrix(58.3248 -.88065 .44171 29.25414 178.2 64.3)"/><ellipse fill="#fff4b7" rx="1" ry="1" transform="matrix(19.12106 -54.2972 20.5826 7.24828 50.7 70.3)"/><ellipse fill="#ffe8b0" rx="1" ry="1" transform="matrix(-6.72865 -18.80979 46.54813 -16.65123 127.4 114.2)"/></g></svg>