<svg xmlns="http://www.w3.org/2000/svg" viewBox="0 0 5616 3744"><filter id="c"><feGaussianBlur stdDeviation="55" /></filter><path fill="#a54a1f" d="M0 0h5616v3729H0z"/><g filter='url(#c)' fill-opacity='.5'><path fill="#ffda8f" fill-opacity=".5" d="M160.1 893.8l-33-942.7 3464.1-121 33 942.8z"/><ellipse fill="#2d0e00" fill-opacity=".5" rx="1" ry="1" transform="matrix(1032.18244 284.21502 -1190.29138 4322.77603 5605 1323.2)"/><ellipse fill="#f22100" fill-opacity=".5" rx="1" ry="1" transform="rotate(141.8 1295.3 1471.9) scale(1593.11422 1007.91073)"/><path fill-opacity=".5" d="M1039.1 3885.6L678.4 3725l936.9-2104.3 360.7 160.6z"/><path fill="#a5a378" fill-opacity=".5" d="M33.2-497l629 4475.2-673.5 94.6-629-4475.1z"/><ellipse fill="#ff4d0b" fill-opacity=".5" rx="1" ry="1" transform="matrix(-1726.45702 88.34262 -17.50661 -342.12716 1870 992.9)"/><ellipse fill="#c10" fill-opacity=".5" rx="1" ry="1" transform="matrix(-324.25634 935.35637 -576.14198 -199.72889 917.8 1751.9)"/><ellipse fill="#9f1100" fill-opacity=".5" rx="1" ry="1" transform="matrix(339.34935 -1153.0102 692.87557 203.92437 4353 1960.7)"/></g></svg>