<svg xmlns="http://www.w3.org/2000/svg" viewBox="0 0 1200 800"><filter id="b"><feGaussianBlur stdDeviation="12" /></filter><path fill="#cdc1ce" d="M0 0h1200v796H0z"/><g filter="url(#b)" transform="translate(2.3 2.3) scale(4.6875)" fill-opacity=".5"><ellipse fill="#0f1c17" rx="1" ry="1" transform="matrix(-6.62027 19.01083 -53.67276 -18.69083 132.5 115.2)"/><ellipse fill="#1e180a" rx="1" ry="1" transform="matrix(1.76879 14.0701 -64.78995 8.14491 146.7 165.8)"/><ellipse fill="#f3ffff" rx="1" ry="1" transform="matrix(221.39443 9.57625 -1.84286 42.6054 195.4 22.6)"/><path d="M203.6 109.5l5.1-36.6 25.7 3.6-5.1 36.6z"/><ellipse fill="#ffb0ff" cx="12" cy="107" rx="66" ry="66"/><path fill="#000312" d="M74.6 90.8l10.3-12 37.5 37.6-38.6 7.5z"/><path fill="#89d9e6" d="M36 19l82 95 72-75z"/><path fill="#1d1200" d="M176.8 149.9l34.4 1.5-32.2-28.3 31.5 4.6z"/></g></svg>