<svg xmlns="http://www.w3.org/2000/svg" viewBox="0 0 600 900"><filter id="c"><feGaussianBlur stdDeviation="55" /></filter><path fill="#593922" d="M0 0h597v900H0z"/><g filter='url(#c)' fill-opacity='.5'><ellipse fill="#ffbd6e" fill-opacity=".5" rx="1" ry="1" transform="matrix(197.65042 55.47295 -73.08383 260.3981 227 505)"/><ellipse fill-opacity=".5" rx="1" ry="1" transform="matrix(580.7225 125.55665 -36.47136 168.68672 391.4 125.6)"/><ellipse fill-opacity=".5" rx="1" ry="1" transform="matrix(42.5931 111.84352 -555.24018 211.45076 386.3 850.4)"/><ellipse fill-opacity=".5" rx="1" ry="1" transform="rotate(-74.6 175.8 99.2) scale(297.93244 65.9488)"/><ellipse fill-opacity=".5" rx="1" ry="1" transform="rotate(-26.1 1698.3 357.3) scale(80.72719 257.38709)"/><ellipse fill-opacity=".5" rx="1" ry="1" transform="rotate(32.4 -915.2 1377.4) scale(120.55472 362.26681)"/><ellipse fill="#d9975e" fill-opacity=".5" rx="1" ry="1" transform="rotate(92.5 -151.7 337.3) scale(308.5189 85.89329)"/><path fill="#ac6938" fill-opacity=".5" d="M356.8 107.2h95v376.2h-95z"/></g></svg>