<svg xmlns="http://www.w3.org/2000/svg" viewBox="0 0 1200 800"><filter id="c"><feGaussianBlur stdDeviation="55" /></filter><path fill="#f6f8f8" d="M0 0h1200v796H0z"/><g filter='url(#c)' fill-opacity='.5'><ellipse fill="#b49977" fill-opacity=".5" rx="1" ry="1" transform="rotate(-145.5 251.2 92) scale(136.35934 67.37727)"/><ellipse fill="#ab9071" fill-opacity=".5" rx="1" ry="1" transform="matrix(-29.2734 32.56032 -73.495 -66.07577 836.7 551.9)"/><ellipse fill="#877e80" fill-opacity=".5" rx="1" ry="1" transform="rotate(-158.3 190.2 181) scale(4.6875 207.58468)"/><path fill="#bea182" fill-opacity=".5" d="M217.2 261.4L183 226.8l268.8 31-13.2 85.3z"/><path fill="#fff" fill-opacity=".5" d="M471 2.3h731.3v497H471.1z"/><path fill="#a7793a" fill-opacity=".5" d="M879.4 518.4l24.1 41.3 6.6 80.5-30.5-35.4z"/><path fill="#c09f74" fill-opacity=".5" d="M369.8 270l81.8-37-58.8 124.3L583.3 482z"/><path fill="#fcffff" fill-opacity=".5" d="M368 260.2L911.7-72.7 35.2 39.8z"/></g></svg>