<svg xmlns="http://www.w3.org/2000/svg" viewBox="0 0 900 600"><filter id="b"><feGaussianBlur stdDeviation="12" /></filter><path fill="#d4ad5d" d="M0 0h900v597H0z"/><g filter="url(#b)" transform="translate(1.8 1.8) scale(3.51563)" fill-opacity=".5"><ellipse fill="#fff1f2" rx="1" ry="1" transform="matrix(14.82299 94.27866 -35.7643 5.62305 22.5 147.6)"/><ellipse fill="#fff9e0" rx="1" ry="1" transform="matrix(-6.89533 15.22507 -78.54367 -35.57186 113.8 87.8)"/><ellipse fill="#37220b" rx="1" ry="1" transform="rotate(124.6 59.9 39.8) scale(14.65296 37.39294)"/><ellipse fill="#ac910f" rx="1" ry="1" transform="matrix(-106.58491 -231.65633 40.5538 -18.65878 255 92.2)"/><ellipse fill="#d45e42" cx="93" cy="129" rx="42" ry="42"/><ellipse fill="#fffaed" rx="1" ry="1" transform="matrix(-9.10965 -8.14376 32.11134 -35.91992 164 127.3)"/><ellipse fill="#b79f0d" rx="1" ry="1" transform="matrix(20.27758 32.20025 -138.45574 87.19023 33.1 0)"/><ellipse fill="#fff" rx="1" ry="1" transform="matrix(.01097 -13.1462 28.70496 .02396 85.5 71.3)"/></g></svg>