<svg xmlns="http://www.w3.org/2000/svg" viewBox="0 0 900 600"><filter id="b"><feGaussianBlur stdDeviation="12" /></filter><path fill="#f1d8bc" d="M0 0h900v597H0z"/><g filter="url(#b)" transform="translate(1.8 1.8) scale(3.51563)" fill-opacity=".5"><ellipse fill="#bd8b60" rx="1" ry="1" transform="rotate(151.1 13.4 17.8) scale(33.23074 109.03718)"/><ellipse fill="#fff" rx="1" ry="1" transform="matrix(68.36733 67.93476 -48.97572 49.28757 228.3 97)"/><ellipse fill="#b19851" rx="1" ry="1" transform="rotate(-97.4 69.5 -56.6) scale(14.94243 168.43951)"/><ellipse fill="#e98d61" cx="42" cy="129" rx="21" ry="41"/><ellipse fill="#fffffe" rx="1" ry="1" transform="matrix(40.77768 9.22023 -4.93379 21.82033 107.4 55.6)"/><path fill="#e86c3f" d="M181.2 132.2l-28.5 58.4-18-8.8 28.6-58.4z"/><path fill="#fffffc" d="M-16 157L14 41l31 31z"/><ellipse fill="#fff" cx="84" cy="151" rx="25" ry="33"/></g></svg>