<svg xmlns="http://www.w3.org/2000/svg" viewBox="0 0 900 600"><filter id="b"><feGaussianBlur stdDeviation="12" /></filter><path fill="#d9a879" d="M0 0h900v597H0z"/><g filter="url(#b)" transform="translate(1.8 1.8) scale(3.51563)" fill-opacity=".5"><ellipse fill="#fff" rx="1" ry="1" transform="matrix(-3.59646 -49.8239 35.19534 -2.54052 111.7 144.2)"/><ellipse fill="#512518" rx="1" ry="1" transform="matrix(-25.76584 3.36243 -8.40902 -64.4372 255 109.7)"/><path fill="#fff" d="M0 91h40v30H0z"/><path fill="#5a2c27" d="M161.5 104.4l-9.6 7.4 64.9 49.2-66.8-7z"/><ellipse fill="#e6e206" cx="25" cy="72" rx="109" ry="16"/><ellipse fill="#68537c" rx="1" ry="1" transform="matrix(28.43013 -59.87371 15.83314 7.51813 45 169.1)"/><ellipse fill="#8b2817" cx="142" cy="56" rx="56" ry="7"/><ellipse fill="#ffdb92" rx="1" ry="1" transform="matrix(-46.50429 9.29247 -6.47702 -32.4143 87.2 21.8)"/></g></svg>