<svg xmlns="http://www.w3.org/2000/svg" viewBox="0 0 900 600"><filter id="b"><feGaussianBlur stdDeviation="12" /></filter><path fill="#dfb380" d="M0 0h900v597H0z"/><g filter="url(#b)" transform="translate(1.8 1.8) scale(3.51563)" fill-opacity=".5"><ellipse fill="#693f4d" rx="1" ry="1" transform="rotate(152.3 -8.3 79.1) scale(94.02875 18.19139)"/><ellipse fill="#8a6c25" cx="208" cy="6" rx="102" ry="24"/><ellipse fill="#cc541e" rx="1" ry="1" transform="matrix(16.70477 -25.52756 34.3607 22.48502 174.5 106.3)"/><ellipse fill="#fff5e3" cx="21" cy="88" rx="34" ry="34"/><path fill="#ffffe5" d="M107 78l16-44 123 34z"/><ellipse fill="#ffe6ec" rx="1" ry="1" transform="matrix(-2.70775 27.08592 -56.06753 -5.605 51 2.2)"/><path fill="#56393e" d="M110.3 183.6L84.6 177l-3.3-23.5 27.7-8.9z"/><ellipse fill="#fee876" rx="1" ry="1" transform="rotate(-14.5 708.4 -702.1) scale(94.38586 26.97874)"/></g></svg>