<svg xmlns="http://www.w3.org/2000/svg" viewBox="0 0 900 600"><filter id="b"><feGaussianBlur stdDeviation="12" /></filter><path fill="#bbab8b" d="M0 0h900v597H0z"/><g filter="url(#b)" transform="translate(1.8 1.8) scale(3.51563)" fill-opacity=".5"><ellipse fill="#340500" cx="171" cy="76" rx="34" ry="37"/><path fill="#efffff" d="M111.8-36.2L122.9-2-37.8 50.2-48.9 16z"/><ellipse fill="#fffff4" rx="1" ry="1" transform="matrix(-19.22909 5.44444 -11.8734 -41.93539 228.7 117.5)"/><ellipse fill="#fff6e2" cx="117" cy="76" rx="20" ry="59"/><ellipse fill="#fffff7" rx="1" ry="1" transform="matrix(48.54157 23.24481 -8.14383 17.00656 35.4 167.3)"/><ellipse fill="#c88033" rx="1" ry="1" transform="matrix(11.39633 -27.64957 40.03526 16.50134 168 22.3)"/><ellipse fill="#9e6c0e" rx="1" ry="1" transform="matrix(-35.53739 30.03142 -10.00596 -11.84046 62.1 45)"/><path fill="#fffff7" d="M209 4h38v41h-38z"/></g></svg>