<svg xmlns="http://www.w3.org/2000/svg" viewBox="0 0 533 800"><filter id="b"><feGaussianBlur stdDeviation="12" /></filter><path fill="#35231d" d="M0 0h531v800H0z"/><g filter="url(#b)" transform="translate(1.6 1.6) scale(3.125)" fill-opacity=".5"><ellipse fill="#a5694b" rx="1" ry="1" transform="matrix(70.46479 -30.49284 14.73193 34.0435 65.2 122.5)"/><ellipse fill="#ffffc0" cx="31" cy="62" rx="10" ry="17"/><ellipse rx="1" ry="1" transform="rotate(-81.8 59.4 -48.4) scale(44.21183 114.0122)"/><ellipse fill="#000008" rx="1" ry="1" transform="matrix(34.15034 49.50374 -56.21634 38.78105 20.4 248.4)"/><path fill="#905940" d="M158 196.6l-65.7 32-16.2-33.2 65.6-32z"/><ellipse fill="#c08058" rx="1" ry="1" transform="matrix(51.81151 19.6987 -3.58027 9.41681 48.4 125.2)"/><ellipse fill="#000511" cx="164" cy="119" rx="40" ry="51"/><path fill="#dbb7aa" d="M108 73h17v24h-17z"/></g></svg>