<svg xmlns="http://www.w3.org/2000/svg" viewBox="0 0 533 800"><filter id="c"><feGaussianBlur stdDeviation="55" /></filter><path fill="#382520" d="M0 0h531v800H0z"/><g filter='url(#c)' fill-opacity='.5'><ellipse fill="#e3b49b" fill-opacity=".5" rx="1" ry="1" transform="matrix(23.77154 -27.73473 125.78948 107.81462 307.9 464.4)"/><ellipse fill="#000002" fill-opacity=".5" rx="1" ry="1" transform="matrix(-3.14659 90.10646 -523.1906 -18.27022 371.6 797.2)"/><ellipse fill="#954624" fill-opacity=".5" rx="1" ry="1" transform="rotate(174.2 216.8 216.4) scale(101.08989 124.61965)"/><ellipse fill="#674e3f" fill-opacity=".5" rx="1" ry="1" transform="matrix(-73.7164 81.02105 -129.96966 -118.25193 215.4 572.8)"/><path fill="#0b0a0d" fill-opacity=".5" d="M245.3 36h287.5v256.2H245.3z"/><path fill="#a9370d" fill-opacity=".5" d="M198.4 92l56.3 97.3-81.2 47-56.3-97.5z"/><path fill="#d1926f" fill-opacity=".5" d="M180.8 358.8l136.1 189.7-85.1-228-35 13.8z"/><path fill="#090f14" fill-opacity=".5" d="M376.6 551.6h156.2v250H376.6z"/></g></svg>