<svg xmlns="http://www.w3.org/2000/svg" viewBox="0 0 821 547"><filter id="b"><feGaussianBlur stdDeviation="12" /></filter><path fill="#2e201c" d="M0 0h821v545H0z"/><g filter="url(#b)" transform="translate(1.6 1.6) scale(3.20703)" fill-opacity=".5"><path fill="#9c6853" d="M106 164l9-100-94 26z"/><ellipse fill="#9b5a30" rx="1" ry="1" transform="matrix(-27.87534 -28.02293 14.84643 -14.76824 185.2 79.5)"/><ellipse rx="1" ry="1" transform="matrix(183.19628 101.96574 -26.58577 47.7652 235.7 11)"/><path fill="#844e34" d="M98 104h93v34H98z"/><ellipse rx="1" ry="1" transform="matrix(-121.8896 64.226 -16.15044 -30.65067 8.5 36.6)"/><ellipse fill="#000003" cx="216" cy="161" rx="94" ry="25"/><path fill="#ba744f" d="M34 96l59-2-44-44z"/><ellipse fill="#a16c5b" rx="1" ry="1" transform="matrix(17.13884 -10.56539 6.48262 10.5159 102.5 34.2)"/></g></svg>