<svg xmlns="http://www.w3.org/2000/svg" viewBox="0 0 900 600"><filter id="b"><feGaussianBlur stdDeviation="12" /></filter><path fill="#d1d4b9" d="M0 0h900v597H0z"/><g filter="url(#b)" transform="translate(1.8 1.8) scale(3.51563)" fill-opacity=".5"><ellipse rx="1" ry="1" transform="matrix(40.8035 -23.9397 15.04952 25.65083 255 60.7)"/><ellipse fill="#67a100" rx="1" ry="1" transform="rotate(-135.1 96.7 40.1) scale(51.60892 15.70919)"/><ellipse fill="#fff" cx="141" cy="26" rx="78" ry="78"/><ellipse fill="#34b008" rx="1" ry="1" transform="matrix(-21.08221 10.57922 -19.96348 -39.78311 19.9 155.6)"/><path fill="#8b4e22" d="M279.7 136.2l6 42.6-163.4 23-6-42.6z"/><path fill="#fbf9ff" d="M1-16l-9 136 245-70z"/><ellipse fill="#390800" rx="1" ry="1" transform="matrix(-13.5445 -.34854 1.4413 -56.0091 252.6 45.1)"/><path fill="#fff" d="M219 163l22-74-135-15z"/></g></svg>