<svg xmlns="http://www.w3.org/2000/svg" viewBox="0 0 900 600"><filter id="c"><feGaussianBlur stdDeviation="55" /></filter><path fill="#cfc7ac" d="M0 0h900v597H0z"/><g filter='url(#c)' fill-opacity='.5'><ellipse fill="#332400" fill-opacity=".5" rx="1" ry="1" transform="matrix(-90.9036 -142.57005 110.28455 -70.31816 700.3 187)"/><ellipse fill="#6e3d00" fill-opacity=".5" rx="1" ry="1" transform="matrix(11.96364 80.05058 -181.69108 27.15391 776.8 561.3)"/><ellipse fill="#fff" fill-opacity=".5" rx="1" ry="1" transform="rotate(32.2 -259.5 598.3) scale(373.20137 293.79859)"/><ellipse fill="#2e4c00" fill-opacity=".5" rx="1" ry="1" transform="matrix(8.82676 75.74874 -159.30311 18.56309 700.9 247.4)"/><ellipse fill="#b88955" fill-opacity=".5" rx="1" ry="1" transform="matrix(42.03336 -240.84032 41.2653 7.20195 189.8 469)"/><path fill="#434000" fill-opacity=".5" d="M641.6 216.2L954.5 378 733 54.5z"/><path fill-opacity=".5" d="M209.5-54.5L182.1 63l51.4-8.2L224.2-3z"/><ellipse fill="#d0912f" fill-opacity=".5" rx="1" ry="1" transform="matrix(45.37333 43.3253 -161.91475 169.5686 682.5 87)"/></g></svg>