<svg xmlns="http://www.w3.org/2000/svg" viewBox="0 0 900 600"><filter id="b"><feGaussianBlur stdDeviation="12" /></filter><path fill="#cbd3b4" d="M0 0h900v597H0z"/><g filter="url(#b)" transform="translate(1.8 1.8) scale(3.51563)" fill-opacity=".5"><ellipse fill="#001800" rx="1" ry="1" transform="matrix(-2.04306 -25.03482 60.34 -4.92427 237.6 65.4)"/><ellipse fill="#1ade00" rx="1" ry="1" transform="matrix(-17.3935 13.32701 -27.42112 -35.78818 59.3 138.3)"/><ellipse fill="#fffeff" cx="75" cy="47" rx="106" ry="59"/><ellipse fill="#275b18" rx="1" ry="1" transform="rotate(83.5 85.9 136.8) scale(60.95659 15.91031)"/><ellipse fill="#b45116" rx="1" ry="1" transform="matrix(.17343 -70.3039 5.89511 .01454 78.1 77.5)"/><ellipse fill="#fff" rx="1" ry="1" transform="rotate(104.2 47.3 124.4) scale(24.9751 41.11434)"/><ellipse fill="#af621d" rx="1" ry="1" transform="rotate(-98.4 182 -37) scale(15.22537 37.00308)"/><ellipse fill="#326a00" cx="225" cy="67" rx="54" ry="20"/></g></svg>