<svg xmlns="http://www.w3.org/2000/svg" viewBox="0 0 900 600"><filter id="b"><feGaussianBlur stdDeviation="12" /></filter><path fill="#af987b" d="M0 0h900v597H0z"/><g filter="url(#b)" transform="translate(1.8 1.8) scale(3.51563)" fill-opacity=".5"><ellipse fill="#fffff2" cx="120" cy="18" rx="95" ry="51"/><ellipse fill="#403320" rx="1" ry="1" transform="rotate(69.8 1.4 227.3) scale(40.58135 187.94557)"/><path d="M217.6 76.8l-2.2-64 49-1.6 2.2 64z"/><path fill="#f7d8b3" d="M149 91L2 145l162 2z"/><ellipse fill="#4d2a1e" rx="1" ry="1" transform="rotate(12.1 -354.4 835.2) scale(14.64204 37.34056)"/><ellipse fill="#181900" rx="1" ry="1" transform="rotate(-9.3 1051.8 -97.2) scale(24.17155 15.58131)"/><ellipse fill="#ffef9c" rx="1" ry="1" transform="matrix(54.00475 41.31752 -17.347 22.67368 16.2 13.2)"/><ellipse fill="#492719" rx="1" ry="1" transform="rotate(101.6 -10 61.4) scale(5.45471 61.3098)"/></g></svg>