<svg xmlns="http://www.w3.org/2000/svg" viewBox="0 0 900 600"><filter id="c"><feGaussianBlur stdDeviation="55" /></filter><path fill="#bab88c" d="M0 0h900v597H0z"/><g filter='url(#c)' fill-opacity='.5'><ellipse fill-opacity=".5" rx="1" ry="1" transform="matrix(101.17494 88.19247 -258.91631 297.03038 765.4 573)"/><path fill="#0a7900" fill-opacity=".5" d="M443 192.4L175.7 340.6 115.9 233 383.4 84.7z"/><ellipse fill="#faffef" fill-opacity=".5" rx="1" ry="1" transform="matrix(-117.55482 -108.47647 432.96073 -469.19505 559 292.5)"/><ellipse fill="#353e00" fill-opacity=".5" rx="1" ry="1" transform="rotate(-78.8 277.3 226) scale(105.55616 153.63926)"/><path fill="#fff" fill-opacity=".5" d="M283-54.5L712 167 188 93.2z"/><ellipse fill="#558100" fill-opacity=".5" rx="1" ry="1" transform="matrix(-107.18556 -124.61472 40.31368 -34.67523 229.7 372)"/><ellipse fill="#470000" fill-opacity=".5" rx="1" ry="1" transform="rotate(-21.7 1872.8 -1908.5) scale(250.35578 162.10804)"/><ellipse fill="#fff" fill-opacity=".5" rx="1" ry="1" transform="rotate(-71.3 222.6 46.5) scale(109.46443 50.19566)"/></g></svg>