<svg xmlns="http://www.w3.org/2000/svg" viewBox="0 0 900 600"><filter id="b"><feGaussianBlur stdDeviation="12" /></filter><path fill="#897968" d="M0 0h900v597H0z"/><g filter="url(#b)" transform="translate(1.8 1.8) scale(3.51563)" fill-opacity=".5"><ellipse fill="#000002" rx="1" ry="1" transform="matrix(.27096 22.17707 -229.35871 2.80228 167.8 160.2)"/><ellipse fill="#f4d0b8" rx="1" ry="1" transform="matrix(-182.38173 -39.09926 5.21635 -24.3321 151.5 12.7)"/><ellipse fill="#e1d8c0" rx="1" ry="1" transform="matrix(-.04455 9.60843 -80.00178 -.37096 143.8 63)"/><ellipse fill="#a8c3c0" rx="1" ry="1" transform="matrix(-13.4984 -18.92405 31.58325 -22.52812 37.6 35.4)"/><path fill="#00040a" d="M64 69h30v26H64z"/><ellipse fill="#412c24" cx="233" cy="110" rx="15" ry="49"/><ellipse fill="#613f33" rx="1" ry="1" transform="matrix(8.93141 -1.32277 9.81409 66.26514 191.6 20.5)"/><ellipse fill="#e4ffff" rx="1" ry="1" transform="rotate(30.9 79.7 288) scale(22.65665 30.59452)"/></g></svg>