<svg xmlns="http://www.w3.org/2000/svg" viewBox="0 0 900 600"><filter id="b"><feGaussianBlur stdDeviation="12" /></filter><path fill="#a8b276" d="M0 0h900v597H0z"/><g filter="url(#b)" transform="translate(1.8 1.8) scale(3.51563)" fill-opacity=".5"><ellipse fill="#170000" rx="1" ry="1" transform="matrix(36.0977 -11.59723 22.039 68.59888 242.6 91.8)"/><ellipse fill="#fff" cx="159" cy="91" rx="45" ry="68"/><ellipse fill="#003b00" rx="1" ry="1" transform="rotate(75.1 10.3 31.6) scale(28.49554 55.1352)"/><ellipse fill="#0de84a" cx="22" cy="112" rx="49" ry="49"/><ellipse fill="#ffff9f" rx="1" ry="1" transform="matrix(-58.32007 12.28997 -15.10623 -71.68419 119.6 79)"/><ellipse fill="#ffc200" rx="1" ry="1" transform="matrix(7.21775 48.87851 -23.93263 3.53406 101.4 89.8)"/><path fill="#f3feff" d="M9.5 133l-17.6-10 64 29.2-20.3-78.7z"/><ellipse fill="#320500" rx="1" ry="1" transform="matrix(16.74085 -13.531 35.67806 44.14168 229.7 75.5)"/></g></svg>