<svg xmlns="http://www.w3.org/2000/svg" viewBox="0 0 600 900"><filter id="b"><feGaussianBlur stdDeviation="12" /></filter><path fill="#835f48" d="M0 0h597v900H0z"/><g filter="url(#b)" transform="translate(1.8 1.8) scale(3.51563)" fill-opacity=".5"><ellipse fill="#f7c393" cx="92" cy="221" rx="112" ry="112"/><ellipse rx="1" ry="1" transform="matrix(153.84507 39.46239 -19.44498 75.8067 106.4 36.3)"/><ellipse fill="#fff3d4" rx="1" ry="1" transform="matrix(41.80028 -21.2983 18.80823 36.91322 143 215.8)"/><ellipse fill="#913900" rx="1" ry="1" transform="matrix(-49.58559 21.35493 -12.13141 -28.16882 57.3 173.4)"/><ellipse fill="#e4ebe3" cx="33" cy="104" rx="14" ry="50"/><path fill="#0c0000" d="M105.3 236.1l-3.8 16.6-46.8-10.8 3.8-16.6z"/><ellipse fill="#2a0201" rx="1" ry="1" transform="matrix(-18.50077 87.79245 -163.52482 -34.46008 86 12.3)"/><path fill="#fff" d="M121 96l-21 41 26 5z"/></g></svg>