<svg xmlns="http://www.w3.org/2000/svg" viewBox="0 0 600 900"><filter id="b"><feGaussianBlur stdDeviation="12" /></filter><path fill="#986e50" d="M0 0h597v900H0z"/><g filter="url(#b)" transform="translate(1.8 1.8) scale(3.51563)" fill-opacity=".5"><ellipse fill="#ffffd3" rx="1" ry="1" transform="rotate(-1.2 9982.7 -5385.8) scale(67.26814 71.6618)"/><ellipse rx="1" ry="1" transform="rotate(95 45.4 59.8) scale(41.59929 168.99998)"/><ellipse fill="#fff" rx="1" ry="1" transform="rotate(111 18.5 68.7) scale(28.52299 13.488)"/><ellipse cx="8" cy="253" rx="55" ry="30"/><path fill="#fff" d="M61 45.3l-11.8-4.6-33.1 61.6 34-30.5z"/><ellipse fill="#020000" rx="1" ry="1" transform="matrix(10.71674 -43.12254 164.0111 40.75974 67.9 0)"/><path fill="#fff" d="M89 244l47-36H7z"/><ellipse fill="#e87725" rx="1" ry="1" transform="matrix(-19.46699 29.68544 -59.7764 -39.1999 60.8 158.9)"/></g></svg>