<svg xmlns="http://www.w3.org/2000/svg" viewBox="0 0 600 800"><filter id="b"><feGaussianBlur stdDeviation="12" /></filter><path fill="#41372e" d="M0 0h600v800H0z"/><g filter="url(#b)" transform="translate(1.6 1.6) scale(3.125)" fill-opacity=".5"><ellipse fill="#ffffb7" rx="1" ry="1" transform="matrix(54.68308 19.72857 -13.8299 38.33333 131.4 106.7)"/><ellipse fill="#ffd790" cx="65" cy="139" rx="18" ry="38"/><ellipse rx="1" ry="1" transform="rotate(103.9 -41 169) scale(51.02404 191)"/><ellipse rx="1" ry="1" transform="matrix(-2.02657 -33.49816 190.65143 -11.534 103 21.4)"/><ellipse fill="#ffb87a" rx="1" ry="1" transform="matrix(14.90539 -30.87523 50.45616 24.35831 134 103.7)"/><ellipse rx="1" ry="1" transform="matrix(.35269 28.31383 -175.98674 2.19215 74.9 240.3)"/><path fill="#fffff3" d="M95 171l21-3-22-15z"/><path fill="#000001" d="M-6 109l1-125L118-2z"/></g></svg>