<svg xmlns="http://www.w3.org/2000/svg" viewBox="0 0 600 900"><filter id="b"><feGaussianBlur stdDeviation="12" /></filter><path fill="#efe2c9" d="M0 0h597v900H0z"/><g filter="url(#b)" transform="translate(1.8 1.8) scale(3.51563)" fill-opacity=".5"><ellipse fill="#d6a848" rx="1" ry="1" transform="matrix(54.95733 6.66715 -7.35977 60.66657 85.5 112.2)"/><ellipse fill="#fff" rx="1" ry="1" transform="matrix(111.89218 -110.89786 28.38639 28.6409 26.4 39)"/><ellipse fill="#fff" rx="1" ry="1" transform="matrix(128.00643 110.34198 -22.48469 26.08422 31.5 244.4)"/><ellipse fill="#ff4471" cx="142" cy="229" rx="19" ry="16"/><path fill="#2c5d60" d="M102.2 231.7l-25.5 29.8 30.8-16.2-2.5-11.2z"/><ellipse fill="#fef8f6" cx="147" cy="86" rx="25" ry="85"/><ellipse fill="#fff" rx="1" ry="1" transform="rotate(129.3 19.2 120.8) scale(163.38043 12.40925)"/><ellipse fill="#d9f66a" rx="1" ry="1" transform="rotate(-86 135.7 65.3) scale(22.8517 25.27303)"/></g></svg>