<svg xmlns="http://www.w3.org/2000/svg" viewBox="0 0 500 281"><filter id="b"><feGaussianBlur stdDeviation="12" /></filter><path fill="#7e8d7e" d="M0 0h500v279H0z"/><g filter="url(#b)" transform="translate(1 1) scale(1.95313)" fill-opacity=".5"><ellipse fill="#0f2800" rx="1" ry="1" transform="matrix(168.38638 -32.53585 6.83353 35.3663 203.8 95)"/><ellipse fill="#fff" rx="1" ry="1" transform="matrix(-29.72242 -19.21437 90.88936 -140.59534 20.4 68)"/><ellipse fill="#edffff" rx="1" ry="1" transform="matrix(-51.44774 43.86775 -26.2741 -30.81404 193.8 10.6)"/><path fill="#426704" d="M41 61h101v82H41z"/><ellipse fill="#040000" cx="255" cy="87" rx="53" ry="53"/><ellipse fill="#fff" rx="1" ry="1" transform="rotate(-26.7 182.2 21.9) scale(28.70517 47.35504)"/><ellipse fill="#170000" rx="1" ry="1" transform="matrix(-17.36687 5.57583 -7.59828 -23.66614 119.4 40.8)"/><ellipse fill="#b4e0ff" cx="210" cy="11" rx="189" ry="19"/></g></svg>