<svg xmlns="http://www.w3.org/2000/svg" viewBox="0 0 512 288"><filter id="b"><feGaussianBlur stdDeviation="12" /></filter><path fill="#543727" d="M0 0h512v288H0z"/><g filter="url(#b)" transform="matrix(2 0 0 2 1 1)" fill-opacity=".5"><ellipse fill="#000006" cx="170" cy="125" rx="53" ry="35"/><ellipse fill="#ba8450" rx="1" ry="1" transform="matrix(-27.51105 35.32484 -16.93039 -13.18542 65.7 57)"/><ellipse fill="#dd9856" rx="1" ry="1" transform="matrix(-9.0068 -31.1068 19.22151 -5.56548 0 106.7)"/><ellipse fill="#d48d58" rx="1" ry="1" transform="matrix(10.37616 -11.27139 12.83603 11.81653 143 51.6)"/><path fill="#ffc874" d="M196.5 80.8l-1-10.2 17-4 12.2 9z"/><ellipse fill="#1c0603" rx="1" ry="1" transform="matrix(21.58464 -44.05973 36.21656 17.74231 0 14.4)"/><ellipse fill="#07070a" rx="1" ry="1" transform="matrix(165.77862 -92.27102 5.9976 10.77557 255 83)"/><path fill="#cd8a54" d="M67 19l87 13.2-48.8-23.4-52.2 41z"/></g></svg>