<svg xmlns="http://www.w3.org/2000/svg" viewBox="0 0 400 225"><filter id="b"><feGaussianBlur stdDeviation="12" /></filter><path fill="#686658" d="M0 0h400v225H0z"/><g filter="url(#b)" transform="translate(.8 .8) scale(1.5625)" fill-opacity=".5"><ellipse fill="#ece2c7" rx="1" ry="1" transform="matrix(-71.67213 7.66864 -2.53354 -23.67882 78 94.1)"/><ellipse fill="#060000" rx="1" ry="1" transform="matrix(-28.09891 -6.22938 8.86083 -39.96864 199.5 40.7)"/><ellipse fill="#1a1913" cx="30" cy="22" rx="70" ry="38"/><ellipse fill="#dcdcd2" cx="39" cy="102" rx="21" ry="38"/><ellipse fill="#000108" cx="225" cy="115" rx="24" ry="25"/><ellipse fill="#e5ebe3" rx="1" ry="1" transform="matrix(9.49242 16.17945 -12.79327 7.50577 240.3 72.7)"/><path fill="#fff" d="M189.7 125.5l11.6 33.5-59.1-3 33.2-32.7z"/><ellipse fill="#e4e8e0" rx="1" ry="1" transform="matrix(-29.77921 -4.90315 1.3755 -8.35405 177.5 92.9)"/></g></svg>