<svg xmlns="http://www.w3.org/2000/svg" viewBox="0 0 400 225"><filter id="b"><feGaussianBlur stdDeviation="12" /></filter><path fill="#343125" d="M0 0h400v225H0z"/><g filter="url(#b)" transform="translate(.8 .8) scale(1.5625)" fill-opacity=".5"><ellipse fill="#9f7655" cx="120" cy="90" rx="17" ry="61"/><ellipse fill="#09080e" rx="1" ry="1" transform="matrix(30.60716 204.15537 -15.63035 2.34332 186.2 103.3)"/><ellipse fill="#5e422d" cx="142" cy="94" rx="27" ry="57"/><ellipse fill="#5e6230" rx="1" ry="1" transform="matrix(-11.78123 36.98848 -11.21714 -3.57278 10.2 118.1)"/><ellipse fill="#191b1a" rx="1" ry="1" transform="matrix(13.04858 -30.34452 41.14565 17.69322 169.9 19.4)"/><path fill="#baa78e" d="M116 37l-8 36-2-28z"/><ellipse fill="#9d8261" rx="1" ry="1" transform="rotate(100.2 2.7 117.3) scale(20.35928 8.58473)"/><ellipse fill="#1b261b" rx="1" ry="1" transform="matrix(44.15453 30.34657 -10.96595 15.95555 63.9 93.1)"/></g></svg>