<svg xmlns="http://www.w3.org/2000/svg" viewBox="0 0 600 250"><filter id="b"><feGaussianBlur stdDeviation="12" /></filter><path fill="#2c1a0a" d="M0 0h600v248H0z"/><g filter="url(#b)" transform="translate(1.2 1.2) scale(2.34375)" fill-opacity=".5"><ellipse fill="#dc7920" rx="1" ry="1" transform="matrix(-6.87002 -51.05992 27.92575 -3.75736 143.3 68.7)"/><ellipse fill="#00010d" rx="1" ry="1" transform="matrix(-27.45754 -47.75013 80.9077 -46.524 45.8 30)"/><ellipse rx="1" ry="1" transform="matrix(90.44916 170.82874 -22.34036 11.82861 231.7 6.7)"/><ellipse fill="#cd6e1b" cx="216" cy="44" rx="12" ry="12"/><ellipse fill="#6c3005" rx="1" ry="1" transform="rotate(77.8 -6.1 114.5) scale(31.82269 29.41325)"/><path fill="#000003" d="M120-8l45-8 75 112z"/><path fill="#b06a23" d="M175 111l-41-95-1 70z"/><ellipse rx="1" ry="1" transform="matrix(-3.0197 -30.09084 33.85886 -3.39782 227 2.6)"/></g></svg>