<svg xmlns="http://www.w3.org/2000/svg" viewBox="0 0 820 547"><filter id="b"><feGaussianBlur stdDeviation="12" /></filter><path fill="#745d4b" d="M0 0h820v544H0z"/><g filter="url(#b)" transform="translate(1.6 1.6) scale(3.20313)" fill-opacity=".5"><ellipse fill="#f9e99e" cx="39" cy="81" rx="88" ry="22"/><ellipse rx="1" ry="1" transform="matrix(-30.38616 12.83562 -16.8581 -39.9087 186.8 126.6)"/><ellipse fill="#170405" rx="1" ry="1" transform="matrix(16.76186 -35.54372 77.93822 36.75444 236.5 29.8)"/><ellipse rx="1" ry="1" transform="matrix(37.12453 9.87857 -6.13785 23.06658 82.2 131.3)"/><ellipse fill="#cbafa2" rx="1" ry="1" transform="rotate(-101.6 123.9 13.8) scale(81.77419 19.85282)"/><ellipse fill="#b3948c" rx="1" ry="1" transform="matrix(-1.8021 105.1142 -26.67636 -.45734 19.7 135.6)"/><path fill="#e3d7c8" d="M33 158h109v12H33z"/><path fill="#180400" d="M72.6 57l5.2-7 33.8-56.4L98.2 72z"/></g></svg>