<svg xmlns="http://www.w3.org/2000/svg" viewBox="0 0 984 722"><filter id="b"><feGaussianBlur stdDeviation="12" /></filter><path fill="#5b5b5b" d="M0 0h984v718H0z"/><g filter="url(#b)" transform="translate(2 2) scale(3.84375)" fill-opacity=".5"><ellipse fill="#fff" cx="201" cy="52" rx="51" ry="51"/><ellipse fill="#fff" rx="1" ry="1" transform="matrix(34.61544 11.31407 -10.59635 32.41956 101.2 98.3)"/><path fill="#fff" d="M5.6 169L19 110.4 82.4 125 69 183.5z"/><ellipse rx="1" ry="1" transform="rotate(-119.3 42.6 -14.5) scale(51.9742 154.04523)"/><ellipse rx="1" ry="1" transform="matrix(-10.25849 -55.8941 131.38444 -24.11356 191.3 164)"/><ellipse fill="#fff" cx="199" cy="53" rx="50" ry="50"/><path fill="#fff" d="M187 152.7l-2.4 8.3L53.3 78l52.3-15z"/><ellipse fill="#fff" rx="1" ry="1" transform="matrix(-44.02725 42.68348 -11.21043 -11.56336 64.7 138.3)"/></g></svg>