<svg xmlns="http://www.w3.org/2000/svg" viewBox="0 0 600 900"><filter id="b"><feGaussianBlur stdDeviation="12" /></filter><path fill="#6a5f57" d="M0 0h597v900H0z"/><g filter="url(#b)" transform="translate(1.8 1.8) scale(3.51563)" fill-opacity=".5"><ellipse fill="#a09483" rx="1" ry="1" transform="rotate(15.7 -378.4 179) scale(53.31016 84.33096)"/><ellipse fill="#373536" rx="1" ry="1" transform="matrix(9.43501 35.14461 -163.2205 43.8186 116.3 236.7)"/><ellipse fill="#383737" rx="1" ry="1" transform="matrix(117.3447 28.17197 -8.03074 33.45046 97.7 12.5)"/><ellipse fill="#c5b2a1" rx="1" ry="1" transform="matrix(-5.61034 8.82535 -22.08905 -14.04218 105.2 64)"/><ellipse fill="#bec4a3" rx="1" ry="1" transform="rotate(-133.7 82.7 60.6) scale(6.92581 26.45581)"/><ellipse fill="#733c2f" rx="1" ry="1" transform="matrix(19.40015 -32.20734 11.1945 6.74302 76.6 98.1)"/><ellipse fill="#b8ae9f" cx="23" cy="103" rx="24" ry="20"/><ellipse fill="#4d433e" rx="1" ry="1" transform="rotate(-107.1 132.9 10.7) scale(93.72032 26.07248)"/></g></svg>