<svg xmlns="http://www.w3.org/2000/svg" viewBox="0 0 900 600"><filter id="c"><feGaussianBlur stdDeviation="55" /></filter><path fill="#464440" d="M0 0h900v597H0z"/><g filter='url(#c)' fill-opacity='.5'><path fill="#fff" fill-opacity=".5" d="M585.1 124.4L553 492l-255.7-22.3L329.5 102z"/><ellipse fill-opacity=".5" rx="1" ry="1" transform="matrix(-1.17832 -606.92676 84.4279 -.16391 72.9 347)"/><ellipse fill="#fff" fill-opacity=".5" rx="1" ry="1" transform="matrix(65.6802 -124.0483 105.083 55.63859 444.6 244)"/><ellipse fill-opacity=".5" rx="1" ry="1" transform="rotate(-179.5 435.4 170.7) scale(101.41444 480.76075)"/><ellipse fill-opacity=".5" rx="1" ry="1" transform="matrix(670.40521 36.36638 -4.36864 80.53487 424.7 584.3)"/><path fill="#cee6e7" fill-opacity=".5" d="M184.6 416.6h478.1v73.8H184.6z"/><ellipse fill="#fff" fill-opacity=".5" rx="1" ry="1" transform="matrix(82.59721 104.96233 -83.05848 65.36058 451.8 239.1)"/><ellipse fill="#080000" fill-opacity=".5" rx="1" ry="1" transform="matrix(39.55792 462.87328 -47.96375 4.09906 671.2 179.6)"/></g></svg>