<svg xmlns="http://www.w3.org/2000/svg" viewBox="0 0 900 600"><filter id="b"><feGaussianBlur stdDeviation="12" /></filter><path fill="#5a4f45" d="M0 0h900v597H0z"/><g filter="url(#b)" transform="translate(1.8 1.8) scale(3.51563)" fill-opacity=".5"><ellipse fill="#f3f8ff" rx="1" ry="1" transform="matrix(-48.99815 27.60904 -11.88694 -21.09592 206.5 146.6)"/><path fill="#fff" d="M163 26h18v49h-18z"/><ellipse rx="1" ry="1" transform="matrix(.23838 27.3154 -254.99026 2.22527 140.6 0)"/><ellipse fill="#fff" cx="75" cy="49" rx="10" ry="27"/><path fill="#fff" d="M226.6 25.9l.8 46-16 .2-.8-46z"/><ellipse fill="#e9e3e2" rx="1" ry="1" transform="matrix(-10.37645 9.49751 -23.91898 -26.13255 116.5 150.7)"/><path fill="#fff" d="M117 28h14v46h-14z"/><ellipse rx="1" ry="1" transform="matrix(-5.27186 -23.58493 46.40633 -10.37304 251 88.7)"/></g></svg>