<svg xmlns="http://www.w3.org/2000/svg" viewBox="0 0 820 547"><filter id="b"><feGaussianBlur stdDeviation="12" /></filter><path fill="#d1cbc9" d="M0 0h820v544H0z"/><g filter="url(#b)" transform="translate(1.6 1.6) scale(3.20313)" fill-opacity=".5"><ellipse fill="#6e5249" rx="1" ry="1" transform="matrix(-112.00764 21.77208 -8.1604 -41.98166 78.4 91.5)"/><ellipse fill="#fff" rx="1" ry="1" transform="matrix(18.87801 254.30026 -42.43335 3.15004 225.3 75)"/><ellipse fill="#4f2512" rx="1" ry="1" transform="matrix(27.23023 .37865 -.42677 30.69026 101 89.7)"/><ellipse fill="#fff" cx="59" cy="7" rx="255" ry="30"/><ellipse fill="#fff" rx="1" ry="1" transform="matrix(-152.16432 20.28646 -4.82727 -36.20827 140.1 164.1)"/><path fill="#fff" d="M271 51.8L120.6 25 59.5 96.3 87.8-16z"/><ellipse fill="#dacbc0" rx="1" ry="1" transform="rotate(76.9 21.9 129) scale(67.95867 17.3342)"/><path fill="#fff" d="M61 65.7l40 89.3-29.4-34.6-5.9-16.2z"/></g></svg>