<svg xmlns="http://www.w3.org/2000/svg" viewBox="0 0 820 547"><filter id="b"><feGaussianBlur stdDeviation="12" /></filter><path fill="#d4d1d1" d="M0 0h820v544H0z"/><g filter="url(#b)" transform="translate(1.6 1.6) scale(3.20313)" fill-opacity=".5"><path fill="#6d5d5a" d="M-16 126l61 59L178 77z"/><path fill="#3f2d29" d="M31 31h38v53H31z"/><ellipse fill="#fff" rx="1" ry="1" transform="matrix(-49.6375 13.22681 -22.91868 -86.00907 215.1 167.6)"/><ellipse fill="#fff" rx="1" ry="1" transform="matrix(19.72705 45.96223 -62.83333 26.96814 140.3 24.1)"/><ellipse fill="#866354" cx="129" cy="104" rx="43" ry="16"/><path fill="#fff" d="M63 125l208 60-19-79z"/><path fill="#a36354" d="M267.5 114.2L199 74.7l7.5-13 68.5 39.6z"/><ellipse fill="#fff" rx="1" ry="1" transform="rotate(89.3 86.3 133.4) scale(15.63955 130.83337)"/></g></svg>