<svg xmlns="http://www.w3.org/2000/svg" viewBox="0 0 1127 222"><filter id="c"><feGaussianBlur stdDeviation="55" /></filter><path fill="#d9cdc8" d="M0 0h1127v220H0z"/><g filter='url(#c)' fill-opacity='.5'><path fill="#7b0d00" fill-opacity=".5" d="M663 152.2l94.3 47 48.5 89.2-91.5-182.5z"/><path fill="#890000" fill-opacity=".5" d="M260 96.7l62-34.2-52.8-21-33.7 15z"/><path fill="#b37358" fill-opacity=".5" d="M585.4 154.8l-119 12.5-19.1-183.7 107 122.8z"/><ellipse fill="#f3f9f9" fill-opacity=".5" rx="1" ry="1" transform="rotate(-51.4 699.6 -1038.6) scale(576.41085 95.24976)"/><path fill="#754f3e" fill-opacity=".5" d="M212 124.7l55.2 7.5 76.8 36.2-2.3-52z"/><path fill="#c06703" fill-opacity=".5" d="M77 99h61.7v57.3H77z"/><path fill="#880800" fill-opacity=".5" d="M394 151.9L363.2 231l44-17.6z"/><path fill="#820000" fill-opacity=".5" d="M455.6 50.6h52.9v30.8h-52.9z"/></g></svg>