<svg xmlns="http://www.w3.org/2000/svg" viewBox="0 0 1024 683"><filter id="b"><feGaussianBlur stdDeviation="12" /></filter><path fill="#7a625a" d="M0 0h1024v680H0z"/><g filter="url(#b)" transform="matrix(4 0 0 4 2 2)" fill-opacity=".5"><ellipse cx="135" cy="156" rx="124" ry="53"/><ellipse fill="#f8f2e5" rx="1" ry="1" transform="matrix(10.21906 -39.91417 116.6339 29.86128 45.4 27.8)"/><ellipse fill="#f0d7bd" rx="1" ry="1" transform="rotate(-116.4 138 -57.5) scale(138.016 47.8758)"/><ellipse fill="#fff" rx="1" ry="1" transform="matrix(-22.14538 -8.71802 44.15785 -112.16917 0 42.5)"/><ellipse fill="#240000" rx="1" ry="1" transform="matrix(19.69387 45.29757 -29.22408 12.70565 203.7 119.5)"/><path fill="#000012" d="M4.1 76.7l46-2.4 1.8 35-46 2.4z"/><ellipse fill="#1c0000" cx="92" cy="154" rx="51" ry="51"/><ellipse fill="#fff" cx="189" cy="59" rx="16" ry="12"/></g></svg>