<svg xmlns="http://www.w3.org/2000/svg" viewBox="0 0 1024 683"><filter id="b"><feGaussianBlur stdDeviation="12" /></filter><path fill="#937e66" d="M0 0h1024v680H0z"/><g filter="url(#b)" transform="matrix(4 0 0 4 2 2)" fill-opacity=".5"><ellipse rx="1" ry="1" transform="matrix(-31.41828 -76.07418 105.57554 -43.6022 127.8 164)"/><ellipse fill="#ffffe4" cx="143" cy="6" rx="138" ry="39"/><ellipse fill="#fffffc" rx="1" ry="1" transform="rotate(167.7 49.3 47.8) scale(20.03402 36.37099)"/><ellipse fill="#fffffb" rx="1" ry="1" transform="matrix(-27.74444 1.82583 -2.6378 -40.08272 27 87)"/><ellipse fill="#fff8c5" rx="1" ry="1" transform="matrix(-19.89257 3.99652 -17.28218 -86.02164 237.9 53.4)"/><ellipse rx="1" ry="1" transform="rotate(-3.6 1894 -1093.5) scale(17.55702 47.96417)"/><ellipse fill="#fff" cx="169" rx="106" ry="12"/><path fill="#060100" d="M187 77h39v93h-39z"/></g></svg>