<svg xmlns="http://www.w3.org/2000/svg" viewBox="0 0 1024 682"><filter id="b"><feGaussianBlur stdDeviation="12" /></filter><path fill="#a9917b" d="M0 0h1024v680H0z"/><g filter="url(#b)" transform="matrix(4 0 0 4 2 2)" fill-opacity=".5"><ellipse cx="132" cy="169" rx="119" ry="36"/><ellipse fill="#0e0000" rx="1" ry="1" transform="matrix(28.95889 1.3569 -3.00645 64.1636 153.4 120)"/><ellipse fill="#fae7cb" rx="1" ry="1" transform="matrix(-53.0089 -3.70674 6.82415 -97.58993 49.5 54)"/><ellipse fill="#fffdd8" rx="1" ry="1" transform="matrix(-27.57992 -5.03216 16.17051 -88.62622 224.2 55.7)"/><ellipse fill="#010000" rx="1" ry="1" transform="matrix(52.82383 -28.55464 7.62171 14.09956 127.5 146.4)"/><ellipse fill="#dfc4b6" cx="102" cy="104" rx="36" ry="32"/><path fill="#fff3c3" d="M92 27L-1-16 235-4z"/><path fill="#0b1007" d="M-35.7 174l4.3-30.8 91.1 12.9-4.3 30.7z"/></g></svg>