<svg xmlns="http://www.w3.org/2000/svg" viewBox="0 0 600 900"><filter id="b"><feGaussianBlur stdDeviation="12" /></filter><path fill="#47362c" d="M0 0h597v900H0z"/><g filter="url(#b)" transform="translate(1.8 1.8) scale(3.51563)" fill-opacity=".5"><ellipse fill="#dddce1" rx="1" ry="1" transform="matrix(-31.45583 26.09657 -13.22767 -15.94414 117.6 185.6)"/><ellipse fill="#bdb5a1" rx="1" ry="1" transform="matrix(7.18863 -48.6813 18.01456 2.66016 100.4 76)"/><ellipse fill="#ffa54e" rx="1" ry="1" transform="matrix(27.91264 -19.6902 12.34407 17.49883 36 140.1)"/><ellipse fill="#0c0000" rx="1" ry="1" transform="matrix(102.97528 -113.50232 31.96035 28.99611 41.8 26.7)"/><ellipse fill="#21120f" cx="149" cy="96" rx="46" ry="41"/><ellipse fill="#afa8aa" cx="123" cy="197" rx="23" ry="23"/><ellipse fill="#0a0305" rx="1" ry="1" transform="matrix(82.21353 -65.86546 17.08302 21.3231 145.6 238.1)"/><path fill="#0c0000" d="M70 133h49v40H70z"/></g></svg>