<svg xmlns="http://www.w3.org/2000/svg" viewBox="0 0 600 900"><filter id="b"><feGaussianBlur stdDeviation="12" /></filter><path fill="#352422" d="M0 0h597v900H0z"/><g filter="url(#b)" transform="translate(1.8 1.8) scale(3.51563)" fill-opacity=".5"><ellipse fill="#b18f7f" cx="76" cy="147" rx="47" ry="47"/><path fill="#aa8475" d="M101.5 42l22 37L50 180.7 77.3 62.2z"/><ellipse fill="#000004" cx="158" cy="255" rx="96" ry="81"/><path fill="#b7b0b0" d="M44.8 109.6l9.7-7.5 27.2 33.6L29 181z"/><path fill="#070003" d="M77-9L0 271-16-3z"/><ellipse fill="#d19f7f" rx="1" ry="1" transform="matrix(20.74874 -54.64663 4.23621 1.60844 51 241.1)"/><path fill="#160100" d="M95.6 133.7L33.5 21.1 70.7 124 185 74.7z"/><ellipse fill="#120708" rx="1" ry="1" transform="rotate(80.3 47.4 114.2) scale(169 39.41413)"/></g></svg>