<svg xmlns="http://www.w3.org/2000/svg" viewBox="0 0 1350 900"><filter id="b"><feGaussianBlur stdDeviation="12" /></filter><path fill="#5e3b50" d="M0 0h1350v896H0z"/><g filter="url(#b)" transform="translate(2.6 2.6) scale(5.27344)" fill-opacity=".5"><ellipse cx="147" cy="154" rx="255" ry="41"/><ellipse fill="#df91bf" rx="1" ry="1" transform="matrix(-13.62471 97.27674 -55.86828 -7.82499 67.5 15.2)"/><ellipse fill="#b87edb" rx="1" ry="1" transform="matrix(31.42186 17.04267 -46.75525 86.20344 216.2 25.4)"/><ellipse fill="#918aff" cx="101" cy="4" rx="211" ry="14"/><path fill="#ba6700" d="M181.5 20.3l-1 55-90-1.6 1-55z"/><ellipse rx="1" ry="1" transform="matrix(-4.84928 40.66731 -241.38089 -28.78293 162.4 161.2)"/><path fill="#f3a286" d="M162 17h26v99h-26z"/><ellipse fill="#04000e" rx="1" ry="1" transform="rotate(176 108 52.4) scale(8.91629 72.07365)"/></g></svg>