<svg xmlns="http://www.w3.org/2000/svg" viewBox="0 0 900 1350"><filter id="b"><feGaussianBlur stdDeviation="12" /></filter><path fill="#80633f" d="M0 0h896v1350H0z"/><g filter="url(#b)" transform="translate(2.6 2.6) scale(5.27344)" fill-opacity=".5"><ellipse fill="#ffdb92" rx="1" ry="1" transform="matrix(46.33353 -17.14556 19.60434 52.97804 36.3 50.1)"/><ellipse fill="#1d1101" rx="1" ry="1" transform="matrix(30.8344 38.18992 -117.75068 95.07143 169 169.3)"/><ellipse fill="#fffee0" cx="35" cy="57" rx="23" ry="26"/><ellipse fill="#310800" rx="1" ry="1" transform="matrix(-2.17541 -12.8618 78.31346 -13.24573 150.8 46.4)"/><ellipse fill="#d6cdb6" rx="1" ry="1" transform="rotate(-30.9 271 -61.8) scale(37.96547 8.67664)"/><path d="M0 235h22v21H0z"/><path fill="#a58360" d="M103 181.1l-11.2 45.8 48.5-54-41.6-28.8z"/><path fill="#c07f43" d="M-16 160L108-16l-2 105z"/></g></svg>