<svg xmlns="http://www.w3.org/2000/svg" viewBox="0 0 1350 900"><filter id="b"><feGaussianBlur stdDeviation="12" /></filter><path fill="#7f5120" d="M0 0h1350v896H0z"/><g filter="url(#b)" transform="translate(2.6 2.6) scale(5.27344)" fill-opacity=".5"><ellipse fill="#ca9152" rx="1" ry="1" transform="matrix(43.30748 -.7257 .93873 56.02049 187.7 68.6)"/><ellipse fill="#0a0000" rx="1" ry="1" transform="rotate(178.8 56 63.3) scale(15.96663 93.06092)"/><ellipse fill="#cb903d" cx="73" cy="79" rx="27" ry="61"/><path fill="#160300" d="M-15.7 135.2l54.9-26.8 28.5 58.4-54.9 26.8z"/><ellipse fill="#2c0a00" rx="1" ry="1" transform="matrix(-15.50003 -34.16963 13.4575 -6.1046 199.5 148.5)"/><ellipse fill="#3a1800" rx="1" ry="1" transform="matrix(50.32786 -177.50723 23.8532 6.763 1.7 21.3)"/><path fill="#fffb91" d="M36 100h33v10H36z"/><ellipse rx="1" ry="1" transform="matrix(9.29437 1.4662 -2.13088 13.50778 144 44.5)"/></g></svg>