<svg xmlns="http://www.w3.org/2000/svg" viewBox="0 0 1350 900"><filter id="b"><feGaussianBlur stdDeviation="12" /></filter><path fill="#3e2c17" d="M0 0h1350v896H0z"/><g filter="url(#b)" transform="translate(2.6 2.6) scale(5.27344)" fill-opacity=".5"><ellipse fill="#7e5b2f" rx="1" ry="1" transform="matrix(85.07795 30.96584 -15.28776 42.00278 144.9 35)"/><ellipse cx="248" cy="88" rx="16" ry="255"/><ellipse rx="1" ry="1" transform="matrix(-44.82712 27.31892 -4.14998 -6.80962 153.9 54.4)"/><ellipse fill="#070201" cx="35" cy="159" rx="44" ry="44"/><ellipse rx="1" ry="1" transform="rotate(94.1 -14.5 15.6) scale(110.06302 23.52461)"/><ellipse rx="1" ry="1" transform="rotate(179.4 79.6 48.3) scale(71.2925 8.35768)"/><path fill="#aa8a52" d="M139.3 19.5l48.8 4-73.3 43.4-22.2 24z"/><path d="M125.4 30.8l6.4 12.4-39.2 20-6.4-12.4z"/></g></svg>