<svg xmlns="http://www.w3.org/2000/svg" viewBox="0 0 1350 900"><filter id="b"><feGaussianBlur stdDeviation="12" /></filter><path fill="#e2e3e7" d="M0 0h1350v896H0z"/><g filter="url(#b)" transform="translate(2.6 2.6) scale(5.27344)" fill-opacity=".5"><path d="M60 186.7l-41.4-20.1 7.5-15.3 41.3 20.1z"/><ellipse fill="#b7b9be" rx="1" ry="1" transform="rotate(78.9 -14.6 33.5) scale(39.92006 74.22922)"/><ellipse fill="#fff" cx="139" cy="124" rx="107" ry="75"/><ellipse fill="#a8a8b6" rx="1" ry="1" transform="matrix(7.35629 68.78794 -25.03884 2.6777 0 143)"/><path d="M67 183l-40-35-2 37z"/><ellipse fill="#c8c8ca" rx="1" ry="1" transform="rotate(144.9 115.8 40.1) scale(38.78342 160.37927)"/><path fill="#888a93" d="M36.4 47.3l8.8-49.8 11 53.7 15.3-7z"/><ellipse fill="#f9fdff" cx="141" cy="127" rx="72" ry="72"/></g></svg>