<svg xmlns="http://www.w3.org/2000/svg" viewBox="0 0 1350 900"><filter id="b"><feGaussianBlur stdDeviation="12" /></filter><path fill="#7f4528" d="M0 0h1350v896H0z"/><g filter="url(#b)" transform="translate(2.6 2.6) scale(5.27344)" fill-opacity=".5"><ellipse fill="#fffac5" rx="1" ry="1" transform="matrix(.8056 32.36729 -43.35315 1.07902 55.6 52)"/><ellipse fill="#070000" rx="1" ry="1" transform="matrix(-1.95334 31.04738 -85.47394 -5.37756 69.4 120.4)"/><ellipse fill="#ec8c35" cx="190" cy="60" rx="82" ry="36"/><ellipse fill="#0e0005" rx="1" ry="1" transform="rotate(-136 133.4 30) scale(47.59238 41.93763)"/><ellipse fill="#3f0000" rx="1" ry="1" transform="matrix(-5.77118 -20.76903 88.37471 -24.55706 186.9 6.8)"/><path fill="#ffeffc" d="M160 41h18v52h-18z"/><ellipse fill="#170400" rx="1" ry="1" transform="rotate(118.7 -10.4 96.4) scale(38.07397 33.51897)"/><path fill="#ffd5b2" d="M58 24h39v55H58z"/></g></svg>