<svg xmlns="http://www.w3.org/2000/svg" viewBox="0 0 1350 900"><filter id="b"><feGaussianBlur stdDeviation="12" /></filter><path fill="#ae9291" d="M0 0h1350v896H0z"/><g filter="url(#b)" transform="translate(2.6 2.6) scale(5.27344)" fill-opacity=".5"><ellipse fill="#fff" rx="1" ry="1" transform="matrix(-9.61662 130.95348 -43.41887 -3.18848 97.3 89.6)"/><ellipse fill="#783335" cx="255" cy="93" rx="122" ry="122"/><ellipse rx="1" ry="1" transform="rotate(-20.3 310.6 52.1) scale(31.64034 25.01421)"/><ellipse fill="#141311" cx="12" cy="45" rx="29" ry="27"/><ellipse fill="#feffff" rx="1" ry="1" transform="matrix(43.03578 -24.54718 32.46368 56.91488 86.4 106)"/><ellipse fill="#1b232e" rx="1" ry="1" transform="rotate(110.8 113 109) scale(131.22215 18.09566)"/><path fill="#eef4f6" d="M179-2l9 105 23-119z"/><ellipse rx="1" ry="1" transform="matrix(-36.17593 59.2657 -15.8222 -9.6579 255 151.5)"/></g></svg>