<svg xmlns="http://www.w3.org/2000/svg" viewBox="0 0 900 1350"><filter id="c"><feGaussianBlur stdDeviation="55" /></filter><path fill="#837f64" d="M0 0h896v1350H0z"/><g filter='url(#c)' fill-opacity='.5'><ellipse fill="#fff" fill-opacity=".5" rx="1" ry="1" transform="matrix(0 -211.13809 618.93615 0 682.8 71)"/><ellipse fill="#001" fill-opacity=".5" rx="1" ry="1" transform="matrix(-557.58613 -14.11883 4.44509 -175.54714 637 710)"/><ellipse fill="#fff" fill-opacity=".5" rx="1" ry="1" transform="matrix(61.8065 -148.4806 110.766 46.10743 474.6 1140.3)"/><ellipse fill="#000026" fill-opacity=".5" rx="1" ry="1" transform="rotate(-142.6 308 487.1) scale(141.06339 207.92557)"/><ellipse fill="#fff" fill-opacity=".5" rx="1" ry="1" transform="matrix(-371.22351 14.95712 -5.03766 -125.03065 485 50)"/><ellipse fill="#a0ac17" fill-opacity=".5" rx="1" ry="1" transform="rotate(3.9 -5260.8 7892.6) scale(444.28744 149.22742)"/><ellipse fill="#68a500" fill-opacity=".5" rx="1" ry="1" transform="matrix(-862.66818 182.32525 -19.48621 -92.1986 577.6 1347.4)"/><ellipse fill="#170000" fill-opacity=".5" rx="1" ry="1" transform="matrix(-171.81232 -103.64382 34.3656 -56.96851 598.8 969)"/></g></svg>