<svg xmlns="http://www.w3.org/2000/svg" viewBox="0 0 600 900"><filter id="b"><feGaussianBlur stdDeviation="12" /></filter><path fill="#24211a" d="M0 0h597v900H0z"/><g filter="url(#b)" transform="translate(1.8 1.8) scale(3.51563)" fill-opacity=".5"><ellipse fill="#ffe17f" rx="1" ry="1" transform="rotate(-34.4 269.2 -83) scale(53.50476 29.48222)"/><ellipse fill="#ffd77a" rx="1" ry="1" transform="rotate(42.5 -179.4 174.4) scale(15.8342 24.94972)"/><ellipse fill="#000008" rx="1" ry="1" transform="rotate(-28.1 128.5 -50) scale(169 64.01959)"/><ellipse rx="1" ry="1" transform="matrix(-168.81126 -7.98499 1.59774 -33.77788 49.2 231.2)"/><ellipse fill="#1b212b" rx="1" ry="1" transform="matrix(-3.88827 -3.9583 74.37904 -73.06321 118.9 146.3)"/><ellipse fill="#e7be84" rx="1" ry="1" transform="rotate(49.1 -94.5 194.9) scale(26.09898 11.75946)"/><path fill="#cc9d6c" d="M28 162l12-37 45 25z"/><ellipse cx="9" cy="131" rx="17" ry="169"/></g></svg>