<svg xmlns="http://www.w3.org/2000/svg" viewBox="0 0 600 645"><filter id="b"><feGaussianBlur stdDeviation="12" /></filter><path fill="#915c41" d="M0 0h599v645H0z"/><g filter="url(#b)" transform="translate(1.3 1.3) scale(2.51953)" fill-opacity=".5"><ellipse fill="#140000" rx="1" ry="1" transform="matrix(-25.24397 -35.1307 98.20382 -70.5666 190.6 158)"/><ellipse fill="#e0a989" rx="1" ry="1" transform="matrix(203.11611 -74.60307 24.18654 65.85085 81.3 9)"/><ellipse fill="#dca790" rx="1" ry="1" transform="matrix(26.81072 -28.61282 123.47408 115.6974 45.9 231)"/><ellipse fill="#100" rx="1" ry="1" transform="matrix(-6.4412 47.83303 -17.80725 -2.39792 79 137.2)"/><ellipse fill="#ffd04f" rx="1" ry="1" transform="matrix(8.74285 -13.16015 34.7466 23.08365 171.5 48)"/><ellipse fill="#1d0000" cx="197" cy="161" rx="97" ry="20"/><ellipse fill="#cf937c" rx="1" ry="1" transform="rotate(-18 865.6 -514) scale(63.81311 24.22942)"/><ellipse fill="#310700" rx="1" ry="1" transform="matrix(8.73204 -10.91815 53.2999 42.6278 237 67.5)"/></g></svg>