<svg xmlns="http://www.w3.org/2000/svg" viewBox="0 0 600 900"><filter id="b"><feGaussianBlur stdDeviation="12" /></filter><path fill="#ced8c0" d="M0 0h597v900H0z"/><g filter="url(#b)" transform="translate(1.8 1.8) scale(3.51563)" fill-opacity=".5"><ellipse fill="#058500" rx="1" ry="1" transform="matrix(-29.14847 -22.23887 11.43696 -14.99042 95.7 104.4)"/><ellipse fill="#fff8ff" cx="98" cy="5" rx="75" ry="75"/><ellipse fill="#768445" rx="1" ry="1" transform="rotate(-20 483.7 -46.3) scale(21.05142 25.38339)"/><ellipse fill="#c9d039" rx="1" ry="1" transform="rotate(46.1 -115.7 200.9) scale(26.52643 21.0493)"/><ellipse fill="#7f9367" rx="1" ry="1" transform="matrix(-3.47798 18.40669 -26.57706 -5.02179 106.7 214.4)"/><path fill="#cdb705" d="M51 119l-21.8-8 3.2-9.6L66.2 82z"/><ellipse fill="#ebebf4" cx="42" cy="38" rx="166" ry="39"/><path fill="#fcc900" d="M116 76.3l17-.6 1 26-17 .6z"/></g></svg>