<svg xmlns="http://www.w3.org/2000/svg" viewBox="0 0 663 903"><filter id="b"><feGaussianBlur stdDeviation="12" /></filter><path fill="#eabea7" d="M0 0h663v903H0z"/><g filter="url(#b)" transform="translate(1.8 1.8) scale(3.52734)" fill-opacity=".5"><ellipse fill="#b25755" rx="1" ry="1" transform="matrix(-77.72106 52.81918 -21.64679 -31.85228 148.6 43.7)"/><ellipse fill="#fff" rx="1" ry="1" transform="matrix(-30.1668 35.4797 -142.4647 -121.13136 42.2 227.2)"/><path fill="#a50000" d="M157.6 163.5l-17-12.4 65.8-90.6 17 12.4z"/><ellipse fill="#fff" cx="32" cy="20" rx="62" ry="62"/><ellipse fill="#c91b00" rx="1" ry="1" transform="matrix(14.80529 -7.54367 11.76239 23.08499 101.2 181.5)"/><path fill="#a00" d="M13 108.6l27-7.3 7 26.1-27 7.3z"/><ellipse fill="#793a18" cx="155" cy="42" rx="26" ry="23"/><ellipse fill="#fff" rx="1" ry="1" transform="matrix(-64.8698 54.03537 -17.39583 -20.8838 171.3 233.5)"/></g></svg>