<svg xmlns="http://www.w3.org/2000/svg" viewBox="0 0 1200 900"><filter id="b"><feGaussianBlur stdDeviation="12" /></filter><path fill="#c79463" d="M0 0h1200v900H0z"/><g filter="url(#b)" transform="translate(2.3 2.3) scale(4.6875)" fill-opacity=".5"><ellipse fill="#1e0000" cx="76" cy="132" rx="23" ry="27"/><ellipse rx="1" ry="1" transform="matrix(-17.80446 1.83575 -2.0443 -19.82718 30 84.6)"/><ellipse fill="#ffecba" rx="1" ry="1" transform="matrix(11.04253 160.12409 -16.47875 1.13641 115 40.6)"/><ellipse fill="#ffdfa8" rx="1" ry="1" transform="matrix(109.84237 -63.33942 16.91262 29.32964 30.4 26)"/><ellipse fill="#ffe6b0" rx="1" ry="1" transform="matrix(12.11918 -34.9981 125.6423 43.50755 12.6 172.9)"/><path d="M66.5 40.3L93 36l4.4 27.6L71 68z"/><ellipse fill="#b56e3a" rx="1" ry="1" transform="matrix(-86.93372 -23.61937 29.8626 -109.91266 224 131.9)"/><ellipse fill="#ffdba7" rx="1" ry="1" transform="matrix(-8.02511 12.84981 -36.28461 -22.66088 79.6 80.7)"/></g></svg>