<svg xmlns="http://www.w3.org/2000/svg" viewBox="0 0 900 1350"><filter id="b"><feGaussianBlur stdDeviation="12" /></filter><path fill="#d2cecc" d="M0 0h896v1350H0z"/><g filter="url(#b)" transform="translate(2.6 2.6) scale(5.27344)" fill-opacity=".5"><ellipse rx="1" ry="1" transform="matrix(-9.9857 18.62326 -18.50213 -9.92075 143.5 97.7)"/><ellipse fill="#6f1d02" rx="1" ry="1" transform="matrix(15.21572 29.08385 -22.4661 11.75353 58.7 90.8)"/><path fill="#000800" d="M101.3 257l31.9-42.3 21.5 16.3-31.9 42.3z"/><ellipse fill="#500" rx="1" ry="1" transform="matrix(19.3588 -6.75068 6.77256 19.42152 142 98.7)"/><ellipse fill="#fff" rx="1" ry="1" transform="matrix(6.87134 -39.78084 166.53392 28.7654 128.6 36.2)"/><ellipse fill="#775848" rx="1" ry="1" transform="matrix(-9.23321 -30.65462 26.189 -7.88816 55.2 255)"/><ellipse fill="#f6feff" cx="80" cy="159" rx="156" ry="26"/><path fill="#354804" d="M134 265l8-76-26-6z"/></g></svg>