<svg xmlns="http://www.w3.org/2000/svg" viewBox="0 0 900 1350"><filter id="b"><feGaussianBlur stdDeviation="12" /></filter><path fill="#856c38" d="M0 0h896v1350H0z"/><g filter="url(#b)" transform="translate(2.6 2.6) scale(5.27344)" fill-opacity=".5"><ellipse fill="#ffffb8" rx="1" ry="1" transform="rotate(-110.2 111 100) scale(45.39496 89.74769)"/><ellipse fill="#001300" cx="153" cy="45" rx="166" ry="48"/><ellipse fill="#fff5a2" rx="1" ry="1" transform="matrix(25.89215 19.22046 -35.34668 47.616 29.6 133.3)"/><ellipse rx="1" ry="1" transform="matrix(-1.52653 -80.04897 15.74501 -.30026 142.4 94.6)"/><ellipse fill="#080000" rx="1" ry="1" transform="matrix(-11.70022 -10.35148 48.98565 -55.3682 94.3 132.3)"/><ellipse rx="1" ry="1" transform="matrix(43.6165 -33.95452 10.94917 14.06482 23.2 74.6)"/><ellipse fill="#ffbc7b" rx="1" ry="1" transform="matrix(-82.7029 -9.1347 4.20913 -38.10818 56.6 228.6)"/><ellipse fill="#a22400" rx="1" ry="1" transform="rotate(76.6 -69.5 205) scale(19.25603 34.47322)"/></g></svg>