<svg xmlns="http://www.w3.org/2000/svg" viewBox="0 0 900 1350"><filter id="c"><feGaussianBlur stdDeviation="55" /></filter><path fill="#614e1b" d="M0 0h896v1350H0z"/><g filter='url(#c)' fill-opacity='.5'><ellipse fill="#ffff94" fill-opacity=".5" rx="1" ry="1" transform="matrix(292.20031 -64.88699 51.21662 230.63965 315 493.3)"/><ellipse fill-opacity=".5" rx="1" ry="1" transform="matrix(37.32004 -890.42928 184.9238 7.7506 894.5 817.4)"/><ellipse fill-opacity=".5" rx="1" ry="1" transform="matrix(-113.85029 386.24755 -187.60551 -55.29858 2.6 1048.2)"/><ellipse fill="#fff761" fill-opacity=".5" rx="1" ry="1" transform="matrix(62.2898 283.31028 -165.88827 36.4729 389.3 501.6)"/><ellipse fill="#ffab0f" fill-opacity=".5" rx="1" ry="1" transform="matrix(-77.55402 100.54402 -88.58277 -68.32777 316.3 1024.7)"/><path fill-opacity=".5" d="M551 1431.7l427.2-68.5-10.5-1445z"/><ellipse fill="#21100d" fill-opacity=".5" rx="1" ry="1" transform="rotate(165.2 125.7 44.5) scale(807.76473 220.49232)"/><ellipse fill="#f8ff9a" fill-opacity=".5" rx="1" ry="1" transform="matrix(130.41664 -139.91429 84.43015 78.69887 156.4 459.6)"/></g></svg>