<svg xmlns="http://www.w3.org/2000/svg" viewBox="0 0 900 600"><filter id="b"><feGaussianBlur stdDeviation="12" /></filter><path fill="#b27c63" d="M0 0h900v597H0z"/><g filter="url(#b)" transform="translate(1.8 1.8) scale(3.51563)" fill-opacity=".5"><ellipse fill="#00000b" rx="1" ry="1" transform="rotate(28.7 -146.7 568.3) scale(16.24255 106.87839)"/><ellipse fill="#000012" rx="1" ry="1" transform="matrix(-68.70307 -89.87315 15.21374 -11.63006 19.2 160.4)"/><ellipse fill="#ffb277" cx="144" cy="79" rx="61" ry="61"/><path fill="#050d22" d="M72 12l-88 101V35z"/><path fill="#fff" d="M58 148l-35-15.1 28 34.7 80 17.5z"/><ellipse fill="#ffffef" rx="1" ry="1" transform="matrix(14.27847 -30.40311 11.04427 5.18682 227.5 134)"/><path fill="#fff" d="M209.6 43.8l-3 9.6-82.2-25.2 3-9.6z"/><ellipse fill="#e8f5eb" rx="1" ry="1" transform="matrix(32.3831 -18.51532 10.42367 18.23088 23.7 0)"/></g></svg>