<svg xmlns="http://www.w3.org/2000/svg" viewBox="0 0 900 600"><filter id="b"><feGaussianBlur stdDeviation="12" /></filter><path fill="#d8a482" d="M0 0h900v597H0z"/><g filter="url(#b)" transform="translate(1.8 1.8) scale(3.51563)" fill-opacity=".5"><ellipse fill="#882a16" rx="1" ry="1" transform="rotate(-178.4 49.6 83.8) scale(255 45.03052)"/><ellipse fill="#fff" rx="1" ry="1" transform="rotate(-80.3 113.4 -93.6) scale(49.31799 63.18799)"/><ellipse fill="#ffffe6" cx="6" cy="42" rx="224" ry="20"/><ellipse fill="#c65929" cx="17" cy="133" rx="54" ry="54"/><ellipse fill="#ffa922" rx="1" ry="1" transform="matrix(54.15575 .78902 -.2712 18.615 121.4 80.1)"/><ellipse fill="#3d1927" rx="1" ry="1" transform="matrix(-44.51606 12.60992 -5.69566 -20.10705 128.6 168.4)"/><ellipse fill="#fae7c6" rx="1" ry="1" transform="matrix(33.23375 33.48765 -10.11788 10.04116 88.1 114.7)"/><ellipse fill="#fef8e7" rx="1" ry="1" transform="matrix(7.43969 -12.63008 66.2372 39.0167 14.7 1.5)"/></g></svg>