<svg xmlns="http://www.w3.org/2000/svg" viewBox="0 0 900 600"><filter id="c"><feGaussianBlur stdDeviation="55" /></filter><path fill="#986d5c" d="M0 0h900v597H0z"/><g filter='url(#c)' fill-opacity='.5'><ellipse fill="#fff" fill-opacity=".5" rx="1" ry="1" transform="rotate(50.5 140.6 672.8) scale(136.3989 121.70791)"/><ellipse fill="#fff" fill-opacity=".5" rx="1" ry="1" transform="rotate(159 31 32.2) scale(220.76865 115.01217)"/><ellipse fill="#111126" fill-opacity=".5" rx="1" ry="1" transform="rotate(-74.9 418.3 223.8) scale(176.58365 483.99935)"/><path fill="#13142b" fill-opacity=".5" d="M810.4 198.6l144 344.6-450-256.7z"/><ellipse fill="#ff8944" fill-opacity=".5" rx="1" ry="1" transform="matrix(-296.1641 -168.92902 35.62387 -62.4553 523.9 409.3)"/><ellipse fill="#ffffd5" fill-opacity=".5" rx="1" ry="1" transform="matrix(98.70352 144.39266 -57.81705 39.52242 576.4 84.9)"/><path fill="#fff" fill-opacity=".5" d="M-76 107L96.4-37.6l74.5 88.8L-1.4 196z"/><ellipse fill="#763624" fill-opacity=".5" rx="1" ry="1" transform="matrix(-93.8853 118.96196 -141.5085 -111.67914 838.3 67)"/></g></svg>