<svg xmlns="http://www.w3.org/2000/svg" viewBox="0 0 900 600"><filter id="b"><feGaussianBlur stdDeviation="12" /></filter><path fill="#d5b19a" d="M0 0h900v597H0z"/><g filter="url(#b)" transform="translate(1.8 1.8) scale(3.51563)" fill-opacity=".5"><ellipse rx="1" ry="1" transform="matrix(3.38644 -24.09578 252.51835 35.48914 148 0)"/><ellipse fill="#ffead1" rx="1" ry="1" transform="matrix(103.19636 10.1735 -7.3383 74.43718 130 95.2)"/><ellipse fill="#36221f" rx="1" ry="1" transform="matrix(-13.26338 -5.27814 23.85646 -59.94864 4.8 8.5)"/><ellipse fill="#511821" rx="1" ry="1" transform="rotate(-174.6 124.3 3.8) scale(108.3542 18.61354)"/><ellipse fill="#e6b89c" cx="191" cy="134" rx="45" ry="45"/><ellipse fill="#d58762" cx="252" cy="146" rx="20" ry="79"/><ellipse fill="#ffe6d2" rx="1" ry="1" transform="rotate(102.6 3.2 117.2) scale(65.97078 30.72381)"/><ellipse fill="#120e25" rx="1" ry="1" transform="matrix(.8205 -5.42529 76.40975 11.55589 26.8 0)"/></g></svg>