<svg xmlns="http://www.w3.org/2000/svg" viewBox="0 0 900 600"><filter id="b"><feGaussianBlur stdDeviation="12" /></filter><path fill="#bfb1ab" d="M0 0h900v597H0z"/><g filter="url(#b)" transform="translate(1.8 1.8) scale(3.51563)" fill-opacity=".5"><ellipse cx="121" cy="159" rx="255" ry="18"/><ellipse rx="1" ry="1" transform="rotate(97.8 105.5 119) scale(13.83057 102.30341)"/><ellipse fill="#fff" rx="1" ry="1" transform="rotate(-84.9 104 -20.8) scale(60.63284 121.68003)"/><ellipse rx="1" ry="1" transform="matrix(14.71421 -22.70794 106.08533 68.7408 56.2 169)"/><ellipse fill="#3a0000" rx="1" ry="1" transform="matrix(167.4203 -81.65634 8.78644 18.01488 232.3 147)"/><ellipse fill="#fffff4" cx="132" cy="87" rx="62" ry="62"/><ellipse fill="#ed6d19" rx="1" ry="1" transform="rotate(109.8 31 93.7) scale(18.1346 24.61071)"/><ellipse fill="#000008" rx="1" ry="1" transform="matrix(78.07853 31.3033 -3.6066 8.99578 247.5 40.8)"/></g></svg>