<svg xmlns="http://www.w3.org/2000/svg" viewBox="0 0 900 600"><filter id="b"><feGaussianBlur stdDeviation="12" /></filter><path fill="#b79789" d="M0 0h900v597H0z"/><g filter="url(#b)" transform="translate(1.8 1.8) scale(3.51563)" fill-opacity=".5"><ellipse fill="#1b0000" rx="1" ry="1" transform="matrix(-78.44801 -83.20673 33.2214 -31.32141 238.6 25.5)"/><ellipse fill="#fff" cx="203" cy="147" rx="134" ry="49"/><ellipse rx="1" ry="1" transform="matrix(11.37612 -17.2528 29.18722 19.24542 63 110.3)"/><ellipse rx="1" ry="1" transform="rotate(113.7 53.5 95) scale(20.2448 33.55402)"/><ellipse fill="#fffffd" cx="70" cy="68" rx="28" ry="22"/><ellipse fill="#fffee4" rx="1" ry="1" transform="matrix(.75776 21.69936 -97.93466 3.41995 40 156.5)"/><ellipse fill="#fffff8" rx="1" ry="1" transform="rotate(98.9 66 94.2) scale(16.35941 29.71198)"/><path fill="#030413" d="M61.6 138.4l51.2-47.2-55.3-2.9L14 60.1z"/></g></svg>