<svg xmlns="http://www.w3.org/2000/svg" viewBox="0 0 900 600"><filter id="b"><feGaussianBlur stdDeviation="12" /></filter><path fill="#9b7651" d="M0 0h900v597H0z"/><g filter="url(#b)" transform="translate(1.8 1.8) scale(3.51563)" fill-opacity=".5"><ellipse fill="#fff8be" rx="1" ry="1" transform="matrix(77.60603 -44.4953 20.4511 35.66957 76.2 72.8)"/><ellipse rx="1" ry="1" transform="rotate(89.1 -14.6 147) scale(15.29985 254.99993)"/><ellipse fill="#140000" rx="1" ry="1" transform="matrix(20.43008 11.00438 -12.14377 22.5454 146.6 97.6)"/><ellipse rx="1" ry="1" transform="matrix(-6.82793 11.58934 -56.31795 -33.18006 223 19.5)"/><ellipse fill="#efc17a" rx="1" ry="1" transform="rotate(-131.4 115 -9.2) scale(68.90689 35.04187)"/><ellipse fill="#000008" rx="1" ry="1" transform="matrix(8.3411 -22.12217 105.01972 39.59741 22.6 155.7)"/><ellipse fill="#2a1100" cx="36" cy="6" rx="81" ry="15"/><path fill="#000005" d="M271 112l-139 55 123 18z"/></g></svg>