<svg xmlns="http://www.w3.org/2000/svg" viewBox="0 0 900 1350"><filter id="b"><feGaussianBlur stdDeviation="12" /></filter><path fill="#5d2a14" d="M0 0h896v1350H0z"/><g filter="url(#b)" transform="translate(2.6 2.6) scale(5.27344)" fill-opacity=".5"><ellipse fill="#ffc378" cx="112" cy="85" rx="73" ry="49"/><ellipse rx="1" ry="1" transform="matrix(-6.49994 55.30268 -158.06208 -18.57765 89.4 219.6)"/><ellipse fill="#ffda9f" rx="1" ry="1" transform="matrix(-22.45881 40.35052 -17.51935 -9.75115 156.7 83.5)"/><ellipse fill="#010000" rx="1" ry="1" transform="matrix(-164.08743 -6.85556 .8792 -21.04367 82 16.2)"/><path fill="#be2e00" d="M93 174l45-158-80 119z"/><ellipse fill="#d8a180" cx="68" cy="75" rx="24" ry="42"/><ellipse fill="#f57200" rx="1" ry="1" transform="matrix(8.89138 17.17695 -22.7859 11.79476 161.9 153)"/><path fill="#430300" d="M97 1l12 104 51-98z"/></g></svg>