<svg xmlns="http://www.w3.org/2000/svg" viewBox="0 0 900 600"><filter id="b"><feGaussianBlur stdDeviation="12" /></filter><path fill="#794c23" d="M0 0h900v597H0z"/><g filter="url(#b)" transform="translate(1.8 1.8) scale(3.51563)" fill-opacity=".5"><ellipse fill="#ffd271" rx="1" ry="1" transform="matrix(66.25939 -8.73728 3.8266 29.01913 97.8 60.2)"/><ellipse fill="#200" rx="1" ry="1" transform="matrix(-188.80241 -9.97497 1.2936 -24.48463 100.7 153.9)"/><ellipse fill="#ffaf51" cx="196" cy="9" rx="33" ry="33"/><ellipse fill="#000045" rx="1" ry="1" transform="rotate(-138.6 68.9 -19.8) scale(18.58303 37.50515)"/><ellipse fill="#deddf9" rx="1" ry="1" transform="matrix(21.44323 -33.8892 6.70611 4.24326 35 94)"/><path fill="#e5a961" d="M50 16h33v120H50z"/><path d="M197 128l-21-77 34-33z"/><ellipse fill="#ff8700" rx="1" ry="1" transform="matrix(11.69557 25.19251 -15.06908 6.99579 158.6 62.7)"/></g></svg>