<svg xmlns="http://www.w3.org/2000/svg" viewBox="0 0 900 600"><filter id="c"><feGaussianBlur stdDeviation="55" /></filter><path fill="#975b1f" d="M0 0h900v597H0z"/><g filter='url(#c)' fill-opacity='.5'><ellipse fill="#fffff9" fill-opacity=".5" rx="1" ry="1" transform="rotate(-24.7 198.3 -810.2) scale(107.49781 129.30728)"/><ellipse fill="#ffc400" fill-opacity=".5" rx="1" ry="1" transform="matrix(-27.20035 -89.50663 344.49724 -104.68996 462.6 535.8)"/><ellipse fill="#1e0101" fill-opacity=".5" rx="1" ry="1" transform="matrix(122.67643 -62.7767 183.67896 358.94017 126.6 120)"/><path fill="#ffd592" fill-opacity=".5" d="M571.3-8.8l383.2 151.2-305.9 179.3z"/><ellipse fill="#ffffb9" fill-opacity=".5" rx="1" ry="1" transform="matrix(55.6519 1.61625 -2.1081 72.58749 324.5 207.7)"/><path fill-opacity=".5" d="M912 427.9L984.8 584 765 686.5l-72.8-156z"/><ellipse fill-opacity=".5" rx="1" ry="1" transform="matrix(-283.59187 -280.63754 50.59022 -51.12279 1.9 550)"/><ellipse fill="#000400" fill-opacity=".5" rx="1" ry="1" transform="matrix(176.19083 14.17598 -6.79185 84.4148 824 2)"/></g></svg>