<svg xmlns="http://www.w3.org/2000/svg" viewBox="0 0 900 600"><filter id="b"><feGaussianBlur stdDeviation="12" /></filter><path fill="#906f47" d="M0 0h900v597H0z"/><g filter="url(#b)" transform="translate(1.8 1.8) scale(3.51563)" fill-opacity=".5"><ellipse fill="#f3e2d2" rx="1" ry="1" transform="matrix(31.77323 -72.30555 28.10673 12.35094 116.2 47)"/><path fill="#fff" d="M234.1 102.3L230 21.4l34-1.7 4.2 80.9z"/><ellipse fill="#120100" cx="211" cy="129" rx="96" ry="28"/><ellipse rx="1" ry="1" transform="matrix(-3.24947 33.77828 -71.52873 -6.88106 38 169)"/><ellipse fill="#0f0000" rx="1" ry="1" transform="rotate(107.9 83 109.8) scale(35.44883 17.69379)"/><ellipse fill="#fff" rx="1" ry="1" transform="matrix(78.10607 63.79578 -6.34557 7.76897 215.5 7.5)"/><ellipse fill="#160000" rx="1" ry="1" transform="rotate(-167.2 22.3 41.8) scale(46.19926 16.33298)"/><ellipse fill="#ff991d" rx="1" ry="1" transform="matrix(-25.66123 1.343 -1.55887 -29.78591 181.6 37)"/></g></svg>