<svg xmlns="http://www.w3.org/2000/svg" viewBox="0 0 900 1350"><filter id="c"><feGaussianBlur stdDeviation="55" /></filter><path fill="#88672b" d="M0 0h896v1350H0z"/><g filter='url(#c)' fill-opacity='.5'><ellipse fill="#ffd537" fill-opacity=".5" rx="1" ry="1" transform="rotate(58.9 152.7 631.2) scale(456.47464 129.84982)"/><ellipse fill="#000001" fill-opacity=".5" rx="1" ry="1" transform="matrix(-69.2561 191.31788 -123.68177 -44.77217 525.3 1076.5)"/><ellipse fill="#ccb476" fill-opacity=".5" rx="1" ry="1" transform="matrix(87.7683 294.41292 -137.38269 40.95556 759.8 816.9)"/><path fill-opacity=".5" d="M50.4 1242.3l200.2-106.5L419 1452.4 218.7 1559z"/><path fill="#fff" fill-opacity=".5" d="M276.9 1094.2h116v116h-116z"/><ellipse fill-opacity=".5" rx="1" ry="1" transform="matrix(46.87754 -22.81642 67.8896 139.48273 264 653.7)"/><ellipse fill="#3b1b00" fill-opacity=".5" rx="1" ry="1" transform="rotate(33.3 -172.4 182.7) scale(145.6764 788.65217)"/><path fill="#ffda30" fill-opacity=".5" d="M647.3 866.8L386 926.5l-74.2-96.1L577 790z"/></g></svg>