<svg xmlns="http://www.w3.org/2000/svg" viewBox="0 0 900 600"><filter id="b"><feGaussianBlur stdDeviation="12" /></filter><path fill="#a5825b" d="M0 0h900v597H0z"/><g filter="url(#b)" transform="translate(1.8 1.8) scale(3.51563)" fill-opacity=".5"><ellipse fill="#1d0000" cx="243" cy="103" rx="21" ry="255"/><ellipse fill="#fffffa" rx="1" ry="1" transform="matrix(-45.08943 -40.3448 17.99559 -20.1119 181 63.9)"/><ellipse fill="#fffffa" rx="1" ry="1" transform="matrix(29.47462 -8.05679 14.1689 51.83494 72.6 99.8)"/><ellipse fill="#fff" rx="1" ry="1" transform="matrix(62.53923 -8.01146 2.0186 15.75766 139.1 145.2)"/><ellipse fill="#fffff4" rx="1" ry="1" transform="matrix(8.35972 15.5809 -45.82632 24.5875 90.4 49)"/><path fill="#6e1e00" d="M29 89.9l-71.2-50L25-55.8l71.3 50z"/><ellipse fill="#2f0000" rx="1" ry="1" transform="matrix(8.87823 -22.72024 88.7419 34.67703 42 160.5)"/><ellipse fill="#220300" rx="1" ry="1" transform="matrix(-86.5677 57.46526 -12.25243 -18.4575 196.1 169)"/></g></svg>