<svg xmlns="http://www.w3.org/2000/svg" viewBox="0 0 900 600"><filter id="b"><feGaussianBlur stdDeviation="12" /></filter><path fill="#74270c" d="M0 0h900v597H0z"/><g filter="url(#b)" transform="translate(1.8 1.8) scale(3.51563)" fill-opacity=".5"><ellipse fill="#ff6908" cx="126" cy="65" rx="64" ry="48"/><ellipse cx="125" cy="158" rx="49" ry="49"/><ellipse fill="#ffbc29" rx="1" ry="1" transform="matrix(23.85033 -18.70644 20.25263 25.82168 127.2 80.7)"/><ellipse fill="#000006" cx="110" cy="157" rx="206" ry="31"/><ellipse fill="#bfd2ad" rx="1" ry="1" transform="matrix(2.15932 -64.87373 9.5199 .31687 241.4 99.4)"/><ellipse fill="#fff" rx="1" ry="1" transform="matrix(-.6498 -16.97733 7.7486 -.29657 129.3 75.8)"/><ellipse fill="#e60300" rx="1" ry="1" transform="matrix(15.40266 -21.67364 54.07497 38.42908 155.3 43.7)"/><ellipse fill="#0c0000" rx="1" ry="1" transform="matrix(-32.56911 -38.77146 14.35707 -12.06035 206.2 126.3)"/></g></svg>