<svg xmlns="http://www.w3.org/2000/svg" viewBox="0 0 900 1350"><filter id="c"><feGaussianBlur stdDeviation="55" /></filter><path fill="#79492f" d="M0 0h896v1350H0z"/><g filter='url(#c)' fill-opacity='.5'><ellipse fill-opacity=".5" rx="1" ry="1" transform="matrix(-124.08952 -274.82783 812.25263 -366.74613 229.2 159)"/><ellipse fill="#be9777" fill-opacity=".5" rx="1" ry="1" transform="rotate(93.4 -205 711.9) scale(471.23941 365.85411)"/><path fill="#f5ffef" fill-opacity=".5" d="M50.1 640.7h443v89.7H50z"/><path fill="#140000" fill-opacity=".5" d="M396.4 1020l-189.6-10 13.8-263.3 189.6 10z"/><ellipse fill="#b22d00" fill-opacity=".5" rx="1" ry="1" transform="matrix(-54.22275 -141.38312 343.71399 -131.81997 441.5 439)"/><ellipse fill="#150000" fill-opacity=".5" rx="1" ry="1" transform="rotate(-158.1 490.7 604) scale(221.04021 100.37583)"/><ellipse fill-opacity=".5" rx="1" ry="1" transform="matrix(.17643 441.9314 -59.65132 .02381 893.8 531)"/><path fill="#faa13c" fill-opacity=".5" d="M477.2 572.2l385-469.4-131.8 474.6z"/></g></svg>