<svg xmlns="http://www.w3.org/2000/svg" viewBox="0 0 900 1350"><filter id="c"><feGaussianBlur stdDeviation="55" /></filter><path fill="#876233" d="M0 0h896v1350H0z"/><g filter='url(#c)' fill-opacity='.5'><ellipse fill="#fff" fill-opacity=".5" rx="1" ry="1" transform="rotate(-74.5 1239.7 115.2) scale(186.69607 132.70335)"/><path fill="#fff" fill-opacity=".5" d="M528.8 621.3l-3 168.8-195-3.4 3-168.8z"/><path fill="#450000" fill-opacity=".5" d="M671 1020l-13.5 384.7-722-25.2 13.4-384.8z"/><ellipse fill="#120000" fill-opacity=".5" rx="1" ry="1" transform="matrix(317.26572 -71.20543 32.08107 142.9417 893.8 644.3)"/><ellipse fill="#b7a363" fill-opacity=".5" rx="1" ry="1" transform="matrix(58.38976 192.14597 -483.25106 146.85146 311.3 428)"/><path fill="#ffe1a6" fill-opacity=".5" d="M252.2 996.5l-307-99.3L197 817l187.8 92.9z"/><ellipse fill="#602400" fill-opacity=".5" rx="1" ry="1" transform="rotate(145.3 132.2 640.6) scale(707.82405 106.9117)"/><ellipse fill="#e6eff8" fill-opacity=".5" rx="1" ry="1" transform="rotate(126.5 69.7 809.7) scale(186.3103 73.59493)"/></g></svg>