<svg xmlns="http://www.w3.org/2000/svg" viewBox="0 0 900 600"><filter id="b"><feGaussianBlur stdDeviation="12" /></filter><path fill="#8a653e" d="M0 0h900v597H0z"/><g filter="url(#b)" transform="translate(1.8 1.8) scale(3.51563)" fill-opacity=".5"><ellipse rx="1" ry="1" transform="rotate(-42.9 147 57.7) scale(40.90027 205.93978)"/><ellipse fill="#ffcf96" cx="125" rx="81" ry="81"/><ellipse fill="#ffeab1" rx="1" ry="1" transform="matrix(-3.93558 -28.68557 67.72657 -9.2919 164.8 137)"/><ellipse rx="1" ry="1" transform="matrix(-21.51737 -93.94977 30.38486 -6.95906 244.6 70)"/><path fill="#fffff8" d="M40.3 83.3l35.4 35.4-12 12-35.4-35.4z"/><ellipse rx="1" ry="1" transform="matrix(13.33305 -28.64519 58.21072 27.09447 39.4 145.7)"/><path d="M76-5l15 44-30-17z"/><ellipse fill="#f7f4e1" rx="1" ry="1" transform="matrix(12.37818 30.94766 -25.34145 10.13586 113.2 32.8)"/></g></svg>