<svg xmlns="http://www.w3.org/2000/svg" viewBox="0 0 900 600"><filter id="b"><feGaussianBlur stdDeviation="12" /></filter><path fill="#955f22" d="M0 0h900v597H0z"/><g filter="url(#b)" transform="translate(1.8 1.8) scale(3.51563)" fill-opacity=".5"><ellipse fill="#fcbc50" cx="203" cy="31" rx="77" ry="60"/><ellipse fill="#200" rx="1" ry="1" transform="matrix(137.5635 19.11901 -4.02277 28.94433 218.6 124.2)"/><ellipse fill="#f7e3c9" rx="1" ry="1" transform="matrix(-67.62718 -17.17258 2.8321 -11.15309 141.5 153.1)"/><ellipse cx="74" cy="18" rx="60" ry="14"/><path fill="#ff9d00" d="M22 35l187-7L28 91z"/><ellipse fill="#060610" rx="1" ry="1" transform="matrix(-147.98788 -32.50768 7.3421 -33.42412 21.1 169)"/><ellipse fill="#ffc939" rx="1" ry="1" transform="rotate(-158.1 31.2 56) scale(39.13078 11.34349)"/><path fill="#796574" d="M203.8 28.1l84.8 6-4.4 61.8-84.8-6z"/></g></svg>