<svg xmlns="http://www.w3.org/2000/svg" viewBox="0 0 900 600"><filter id="b"><feGaussianBlur stdDeviation="12" /></filter><path fill="#7f713e" d="M0 0h900v597H0z"/><g filter="url(#b)" transform="translate(1.8 1.8) scale(3.51563)" fill-opacity=".5"><ellipse fill="#fff" rx="1" ry="1" transform="matrix(207.64578 27.37923 -3.11757 23.64383 179.6 1.3)"/><ellipse fill="#fff7f5" cx="121" cy="169" rx="255" ry="21"/><ellipse fill="#101000" rx="1" ry="1" transform="rotate(-85.4 70.3 -24.6) scale(26.98413 195.69362)"/><ellipse fill="#fff" rx="1" ry="1" transform="matrix(-133.79122 -16.35687 2.37076 -19.39166 176.6 .5)"/><ellipse fill="#0f0a00" rx="1" ry="1" transform="matrix(-2.3962 -21.36252 41.8154 -4.69035 128.6 71.2)"/><ellipse fill="#653b00" rx="1" ry="1" transform="rotate(88.2 -4.4 128.7) scale(16.38123 213.91557)"/><path fill="#fff" d="M245.5-7.7l7.8 60.3L217 24.3 46.2-4z"/><ellipse fill="#443f00" cx="18" cy="58" rx="55" ry="55"/></g></svg>