<svg xmlns="http://www.w3.org/2000/svg" viewBox="0 0 900 600"><filter id="b"><feGaussianBlur stdDeviation="12" /></filter><path fill="#918865" d="M0 0h900v597H0z"/><g filter="url(#b)" transform="translate(1.8 1.8) scale(3.51563)" fill-opacity=".5"><ellipse fill="#fff" rx="1" ry="1" transform="matrix(8.11338 -45.54828 251.04831 44.71852 129.8 10.2)"/><ellipse fill="#483800" rx="1" ry="1" transform="matrix(-236.32468 -25.23677 7.07985 -66.29783 96 139.6)"/><ellipse fill="#faffff" rx="1" ry="1" transform="matrix(.5352 -33.86878 16.34525 .25829 10.5 35.9)"/><ellipse fill="#a9b300" cx="188" cy="169" rx="230" ry="33"/><path fill="#f9ffff" d="M233.5 48.8L36.9 35l5.6-79.8L239.1-31z"/><ellipse fill="#0e0000" cx="68" cy="130" rx="90" ry="11"/><path fill="#1f0e00" d="M127 129l-13-93-51 98z"/><ellipse fill="#433203" rx="1" ry="1" transform="matrix(21.26685 2.80675 -14.81103 112.22359 252.5 133.5)"/></g></svg>