<svg xmlns="http://www.w3.org/2000/svg" viewBox="0 0 900 600"><filter id="c"><feGaussianBlur stdDeviation="55" /></filter><path fill="#eae5df" d="M0 0h900v597H0z"/><g filter='url(#c)' fill-opacity='.5'><ellipse fill="#8d4816" fill-opacity=".5" rx="1" ry="1" transform="matrix(-53.20579 25.03674 -43.34689 -92.11682 380.8 314)"/><path fill="#7a5439" fill-opacity=".5" d="M33.4 494L22.9 223.1l193.3 429z"/><path fill="#000e00" fill-opacity=".5" d="M529.1 370.9h73.8v45.7h-73.8z"/><path fill="#7f8203" fill-opacity=".5" d="M589 586.6l-66.6-23 17.2-49.8 66.5 23z"/><path fill="#546c00" fill-opacity=".5" d="M457.4 119.7l-10.8-86.2 77.8 36.3-17.2-14.6z"/><ellipse fill="#fff" fill-opacity=".5" rx="1" ry="1" transform="rotate(-132.4 166.1 18.6) scale(117.59132 212.29027)"/><ellipse fill="#fff" fill-opacity=".5" rx="1" ry="1" transform="matrix(0 736.7193 -66.36523 0 840.8 294)"/><ellipse fill="#e1b383" fill-opacity=".5" rx="1" ry="1" transform="matrix(100.23148 80.58818 -38.78066 48.23341 476.7 287.5)"/></g></svg>