<svg xmlns="http://www.w3.org/2000/svg" viewBox="0 0 900 600"><filter id="b"><feGaussianBlur stdDeviation="12" /></filter><path fill="#b4a7a4" d="M0 0h900v597H0z"/><g filter="url(#b)" transform="translate(1.8 1.8) scale(3.51563)" fill-opacity=".5"><ellipse fill="#312130" rx="1" ry="1" transform="matrix(28.30705 -37.82064 103.50805 77.47112 190.3 40.8)"/><ellipse fill="#fff" cx="117" cy="155" rx="144" ry="62"/><ellipse fill="#361305" rx="1" ry="1" transform="rotate(54.4 -53 37.4) scale(53.60495 30.07451)"/><path d="M97 71h71v21H97z"/><ellipse fill="#ffe" rx="1" ry="1" transform="matrix(28.9693 -27.86825 25.01424 26.00254 76.8 49.5)"/><path fill="#6b4d3f" d="M36.4 126.6l66.8 27-5.6 13.8-66.8-27z"/><ellipse fill="#fff" rx="1" ry="1" transform="matrix(-120.36351 -56.11522 16.96645 -36.39193 204 159)"/><ellipse fill="#000008" rx="1" ry="1" transform="matrix(-1.05799 -3.89624 39.26422 -10.66183 69.8 95.8)"/></g></svg>