<svg xmlns="http://www.w3.org/2000/svg" viewBox="0 0 900 600"><filter id="b"><feGaussianBlur stdDeviation="12" /></filter><path fill="#e7d4b9" d="M0 0h900v597H0z"/><g filter="url(#b)" transform="translate(1.8 1.8) scale(3.51563)" fill-opacity=".5"><ellipse fill="#a53300" cx="65" cy="106" rx="56" ry="50"/><ellipse fill="#160212" rx="1" ry="1" transform="matrix(12.36135 26.7049 -15.76412 7.297 218.7 11)"/><ellipse fill="#fff" rx="1" ry="1" transform="matrix(9.89682 -29.79194 241.99655 80.39074 132.4 37)"/><ellipse fill="#fff" rx="1" ry="1" transform="matrix(254.0229 -22.30172 2.82177 32.14081 193.8 169)"/><ellipse fill="#672c16" rx="1" ry="1" transform="matrix(14.76582 -13.48562 34.2817 37.53608 66.4 108)"/><ellipse fill="#ffc800" rx="1" ry="1" transform="rotate(-135.3 39.5 55.7) scale(29.95668 20.55378)"/><path fill="#96a607" d="M134 85h70v20h-70z"/><ellipse fill="#fff" rx="1" ry="1" transform="matrix(15.96468 -61.73085 23.02978 5.9559 5 55.6)"/></g></svg>