<svg xmlns="http://www.w3.org/2000/svg" viewBox="0 0 900 600"><filter id="c"><feGaussianBlur stdDeviation="55" /></filter><path fill="#ded5cd" d="M0 0h900v597H0z"/><g filter='url(#c)' fill-opacity='.5'><path fill="#2b0000" fill-opacity=".5" d="M664.9 412.8L546 527.6l-300.3-311 118.8-114.9z"/><ellipse fill="#89460b" fill-opacity=".5" rx="1" ry="1" transform="matrix(-46.22473 12.8164 -27.30868 -98.4939 197.2 332.3)"/><ellipse fill="#fff" fill-opacity=".5" rx="1" ry="1" transform="matrix(-532.12593 -33.85526 11.10256 -174.50647 373.8 1.8)"/><path fill="#73482b" fill-opacity=".5" d="M402.5 286.5H719v147.7H402.5z"/><path fill="#fff" fill-opacity=".5" d="M416.6-19.3L947.5 652 835-43.9z"/><ellipse fill="#5d2109" fill-opacity=".5" rx="1" ry="1" transform="matrix(-40.78073 -74.70185 54.64352 -29.83062 337.7 195.3)"/><ellipse fill="#252224" fill-opacity=".5" rx="1" ry="1" transform="matrix(30.48301 128.94513 -45.77855 10.82219 472 408.7)"/><ellipse fill="#fff" fill-opacity=".5" rx="1" ry="1" transform="rotate(-8.5 2501.8 -174.8) scale(95.43889 842.52124)"/></g></svg>