<svg xmlns="http://www.w3.org/2000/svg" viewBox="0 0 900 600"><filter id="b"><feGaussianBlur stdDeviation="12" /></filter><path fill="#e4e0db" d="M0 0h900v597H0z"/><g filter="url(#b)" transform="translate(1.8 1.8) scale(3.51563)" fill-opacity=".5"><ellipse fill="#745e44" rx="1" ry="1" transform="matrix(-36.09289 33.69609 -8.96285 -9.60038 155.3 149.1)"/><path fill="#833300" d="M70 79l16.1-19L116 85l-16.1 19.2z"/><ellipse fill="#6c530a" rx="1" ry="1" transform="rotate(-147.3 101.4 4.8) scale(16.84623 20.79273)"/><ellipse fill="#7f6a52" rx="1" ry="1" transform="matrix(-12.98302 32.29627 -13.1334 -5.2796 30 67.7)"/><ellipse fill="#fff" cx="236" cy="66" rx="35" ry="255"/><ellipse fill="#f8fafe" cx="132" cy="9" rx="100" ry="44"/><ellipse fill="#bfab88" rx="1" ry="1" transform="matrix(21.07975 -31.01791 7.93491 5.39256 94.8 111.6)"/><ellipse fill="#fdffff" rx="1" ry="1" transform="matrix(18.03743 11.98404 -32.02188 48.1968 134.2 110.7)"/></g></svg>