<svg xmlns="http://www.w3.org/2000/svg" viewBox="0 0 900 600"><filter id="b"><feGaussianBlur stdDeviation="12" /></filter><path fill="#e6ceba" d="M0 0h900v597H0z"/><g filter="url(#b)" transform="translate(1.8 1.8) scale(3.51563)" fill-opacity=".5"><ellipse fill="#972200" rx="1" ry="1" transform="matrix(23.02334 18.71056 -38.94617 47.92325 72.2 107.2)"/><ellipse fill="#d17d21" cx="157" cy="87" rx="47" ry="47"/><ellipse fill="#fdffff" rx="1" ry="1" transform="matrix(250.78444 -35.82579 6.55005 45.85107 132.2 0)"/><ellipse fill="#fff" rx="1" ry="1" transform="matrix(-10.68724 -38.7998 245.8443 -67.7168 182.7 167.6)"/><ellipse fill="#bc5907" cx="70" cy="124" rx="38" ry="30"/><ellipse fill="#f6ffff" rx="1" ry="1" transform="matrix(-13.50182 -36.3053 53.84875 -20.02617 8 73.7)"/><ellipse fill="#fff" rx="1" ry="1" transform="rotate(19.6 28.5 705.8) scale(155.52222 27.79138)"/><path fill="#91410f" d="M135 103l2-60 55 1z"/></g></svg>