<svg xmlns="http://www.w3.org/2000/svg" viewBox="0 0 900 600"><filter id="b"><feGaussianBlur stdDeviation="12" /></filter><path fill="#abaa9c" d="M0 0h900v597H0z"/><g filter="url(#b)" transform="translate(1.8 1.8) scale(3.51563)" fill-opacity=".5"><ellipse rx="1" ry="1" transform="matrix(-234.66495 56.5955 -6.55733 -27.18902 201.8 150.8)"/><ellipse fill="#fff" rx="1" ry="1" transform="matrix(-23.19683 -38.606 101.86783 -61.20837 49.3 64.9)"/><ellipse fill="#3b1a00" cx="133" cy="92" rx="40" ry="20"/><ellipse rx="1" ry="1" transform="matrix(2.90059 -10.9012 86.66897 23.06083 18.6 155)"/><path fill="#fff" d="M236 77L111 26l97 93z"/><ellipse rx="1" ry="1" transform="rotate(-177.4 116.7 82) scale(25.56767 73.36939)"/><ellipse fill="#fffff7" rx="1" ry="1" transform="matrix(72.17913 16.85104 -3.22386 13.80897 92.3 117.6)"/><ellipse fill="#fff" rx="1" ry="1" transform="matrix(49.71051 9.66274 -1.0623 5.46501 137 166)"/></g></svg>