<svg xmlns="http://www.w3.org/2000/svg" viewBox="0 0 900 600"><filter id="c"><feGaussianBlur stdDeviation="55" /></filter><path fill="#b1bfb9" d="M0 0h900v597H0z"/><g filter='url(#c)' fill-opacity='.5'><path fill="#254432" fill-opacity=".5" d="M789.5 428.5l-163 216.2-449.2-338.5L340.3 90z"/><path fill="#fff" fill-opacity=".5" d="M385 638L61.5-54.4-54.5 501zm40.8-692.5L607.4 430 361.5 192.7 462 292z"/><ellipse fill="#fff" fill-opacity=".5" rx="1" ry="1" transform="matrix(-19.24012 -95.42036 527.92553 -106.44846 241.3 62.5)"/><ellipse fill="#fff" fill-opacity=".5" rx="1" ry="1" transform="matrix(-25.50939 -61.1884 235.3213 -98.10523 789.2 544)"/><path fill="#002401" fill-opacity=".5" d="M652.8 480.5l34.7 43.7 56.1-310.4-210.2 63.4z"/><ellipse fill-opacity=".5" rx="1" ry="1" transform="matrix(42.36369 30.6662 -79.72334 110.13347 518.8 595)"/><path fill="#0d331a" fill-opacity=".5" d="M201.1 273.4L439 336.8 285.5 126.4l-105 68.3z"/></g></svg>