<svg xmlns="http://www.w3.org/2000/svg" viewBox="0 0 821 547"><filter id="b"><feGaussianBlur stdDeviation="12" /></filter><path fill="#6a7d79" d="M0 0h821v545H0z"/><g filter="url(#b)" transform="translate(1.6 1.6) scale(3.20703)" fill-opacity=".5"><ellipse rx="1" ry="1" transform="matrix(54.19035 21.60213 -63.02 158.08977 25.9 63.3)"/><ellipse fill="#e7fff5" cx="157" cy="98" rx="87" ry="87"/><ellipse fill="#002c10" rx="1" ry="1" transform="matrix(15.69957 5.19214 -15.06573 45.55455 140.2 112.3)"/><ellipse fill="#fff" rx="1" ry="1" transform="matrix(-9.52818 39.12196 -27.56408 -6.71325 79.4 154.8)"/><path d="M-16 26l115 97 2-139z"/><ellipse rx="1" ry="1" transform="matrix(-59.72144 61.41612 -13.801 -13.4202 227 169)"/><ellipse rx="1" ry="1" transform="rotate(-48.9 138.4 -256.5) scale(21.79245 130.87737)"/><ellipse rx="1" ry="1" transform="rotate(-173.1 16.6 23.4) scale(36.06558 167.74661)"/></g></svg>