<svg xmlns="http://www.w3.org/2000/svg" viewBox="0 0 800 1200"><filter id="b"><feGaussianBlur stdDeviation="12" /></filter><path fill="#99938c" d="M0 0h796v1200H0z"/><g filter="url(#b)" transform="translate(2.3 2.3) scale(4.6875)" fill-opacity=".5"><path fill="#fff" d="M48 39l-64 169 201-39z"/><ellipse rx="1" ry="1" transform="rotate(-118.1 130.8 84.1) scale(42.5396 137.03702)"/><ellipse rx="1" ry="1" transform="matrix(-155.71696 57.51208 -10.85784 -29.39816 61 19)"/><ellipse fill="#fff" rx="1" ry="1" transform="matrix(-93.81496 83.88025 -25.96693 -29.04243 46.8 116.3)"/><ellipse rx="1" ry="1" transform="rotate(154.3 36.5 132.1) scale(113.22025 36.83798)"/><path d="M-2.8 321l-53.5-100.6 59.1-31.5 53.5 100.7z"/><ellipse fill="#fff" rx="1" ry="1" transform="matrix(-24.35716 -19.74157 36.8605 -45.47851 72.3 174.3)"/><ellipse fill="#fff" cx="82" cy="133" rx="167" ry="23"/></g></svg>