<svg xmlns="http://www.w3.org/2000/svg" viewBox="0 0 821 547"><filter id="b"><feGaussianBlur stdDeviation="12" /></filter><path fill="#879392" d="M0 0h821v545H0z"/><g filter="url(#b)" transform="translate(1.6 1.6) scale(3.20703)" fill-opacity=".5"><ellipse fill="#fff" rx="1" ry="1" transform="rotate(49.2 -72 329.9) scale(52.35813 172.64854)"/><ellipse fill="#fff" rx="1" ry="1" transform="matrix(20.099 34.10836 -76.60885 45.14322 40.3 0)"/><ellipse rx="1" ry="1" transform="matrix(59.98816 57.52658 -12.02255 12.537 136.3 78.7)"/><ellipse fill="#001718" rx="1" ry="1" transform="matrix(-83.09711 75.96315 -12.2225 -13.37037 51.4 70)"/><ellipse fill="#000b11" rx="1" ry="1" transform="matrix(8.20813 12.77005 -47.79775 30.7227 206.8 90)"/><ellipse fill="#fff" rx="1" ry="1" transform="matrix(-64.2365 -58.39116 12.19842 -13.41957 243.8 26)"/><ellipse fill="#daf1f8" cx="174" cy="49" rx="40" ry="31"/><ellipse fill="#363b36" rx="1" ry="1" transform="rotate(-37.6 271.8 -35.6) scale(29.92753 110.31816)"/></g></svg>