<svg xmlns="http://www.w3.org/2000/svg" viewBox="0 0 600 900"><filter id="b"><feGaussianBlur stdDeviation="12" /></filter><path fill="#d3ddd0" d="M0 0h597v900H0z"/><g filter="url(#b)" transform="translate(1.8 1.8) scale(3.51563)" fill-opacity=".5"><ellipse fill="#26063f" rx="1" ry="1" transform="matrix(-48.5195 -3.13762 .85353 -13.1988 140 61.5)"/><ellipse fill="#d1b35c" rx="1" ry="1" transform="rotate(-22 611.5 -195.2) scale(69.20551 23.50828)"/><ellipse fill="#ff8445" rx="1" ry="1" transform="matrix(-2.32269 9.36172 -33.20385 -8.23802 161.2 74.3)"/><ellipse fill="#c8f5fa" cx="19" cy="78" rx="81" ry="81"/><path fill="#d48751" d="M130.2 137.2l23.1-17.5 44.5 59.1-23.1 17.5z"/><path fill="#2e94ac" d="M24 47h146v16H24z"/><ellipse fill="#e3fbff" rx="1" ry="1" transform="matrix(81.81328 -14.60163 4.70772 26.37746 114 22.6)"/><path fill="#f5ffff" d="M102 85l-92 31 130 71z"/></g></svg>