<svg xmlns="http://www.w3.org/2000/svg" viewBox="0 0 900 600"><filter id="b"><feGaussianBlur stdDeviation="12" /></filter><path fill="#928577" d="M0 0h900v597H0z"/><g filter="url(#b)" transform="translate(1.8 1.8) scale(3.51563)" fill-opacity=".5"><ellipse fill="#fff" rx="1" ry="1" transform="matrix(-17.0052 -29.81328 89.41225 -50.99985 157.2 110.5)"/><path d="M88.3-8.3L-13.9 113.5l-44.4-37.2L43.9-45.5z"/><ellipse fill="#250a00" rx="1" ry="1" transform="matrix(17.34515 34.63746 -169.8098 85.03441 227.2 154.1)"/><path fill="#fff" d="M105 9L29 79 196-8z"/><ellipse fill="#150200" rx="1" ry="1" transform="matrix(-24.66246 11.97631 -40.88208 -84.18726 16.3 153.7)"/><ellipse fill="#171211" cx="64" cy="94" rx="30" ry="30"/><ellipse fill="#3a1a03" rx="1" ry="1" transform="matrix(19.17588 -5.22381 36.41498 133.67431 245.9 41.9)"/><ellipse fill="#fff" rx="1" ry="1" transform="matrix(14.71651 29.13374 -58.9054 29.75526 177.4 101.6)"/></g></svg>