<svg xmlns="http://www.w3.org/2000/svg" viewBox="0 0 1200 800"><filter id="b"><feGaussianBlur stdDeviation="12" /></filter><path fill="#645925" d="M0 0h1200v796H0z"/><g filter="url(#b)" transform="translate(2.3 2.3) scale(4.6875)" fill-opacity=".5"><ellipse fill="#ffff65" rx="1" ry="1" transform="rotate(-13.7 424.2 -520) scale(51.13643 80.02787)"/><ellipse fill="#000007" rx="1" ry="1" transform="rotate(-4.3 1614.4 -475.3) scale(48.77047 179.52359)"/><ellipse rx="1" ry="1" transform="matrix(5.16733 70.36563 -48.88961 3.59023 241.8 134.8)"/><ellipse fill="#296994" rx="1" ry="1" transform="matrix(2.74976 -39.16518 22.79425 1.60037 150 91.7)"/><ellipse fill="#fff714" rx="1" ry="1" transform="rotate(-51.4 116.3 -142) scale(26.09353 27.69351)"/><ellipse fill="#ff0" cx="116" cy="145" rx="23" ry="21"/><path fill="#ffff10" d="M75 23l15 73 52-82z"/><path fill="#ffd100" d="M146 134.9l47.3-8.4 4.7 26.6-47.3 8.4z"/></g></svg>