<svg xmlns="http://www.w3.org/2000/svg" viewBox="0 0 800 1200"><filter id="b"><feGaussianBlur stdDeviation="12" /></filter><path fill="#9f928a" d="M0 0h796v1200H0z"/><g filter="url(#b)" transform="translate(2.3 2.3) scale(4.6875)" fill-opacity=".5"><ellipse rx="1" ry="1" transform="matrix(-27.693 -44.40209 143.39627 -89.4344 55.2 16.8)"/><ellipse fill="#fffcff" rx="1" ry="1" transform="matrix(-46.98564 -35.66404 102.17724 -134.61355 38 181.6)"/><path d="M186.4 107.2L117-13.2l34.7-20L221 87.2z"/><ellipse fill="#a65700" cx="143" cy="155" rx="37" ry="48"/><ellipse fill="#1c0000" rx="1" ry="1" transform="matrix(23.99025 14.52901 -50.6783 83.67983 13.3 57.6)"/><ellipse rx="1" ry="1" transform="matrix(90.84688 -45.52545 5.1042 10.18554 166.6 249)"/><path fill="#fff" d="M143.2 232.6l-17.4 10-55-95.2 17.4-10z"/><ellipse fill="#9f611d" rx="1" ry="1" transform="rotate(65.5 -32.3 107) scale(18.98269 27.16717)"/></g></svg>