<svg xmlns="http://www.w3.org/2000/svg" viewBox="0 0 821 547"><filter id="b"><feGaussianBlur stdDeviation="12" /></filter><path fill="#d6d9db" d="M0 0h821v545H0z"/><g filter="url(#b)" transform="translate(1.6 1.6) scale(3.20703)" fill-opacity=".5"><ellipse fill="#191600" rx="1" ry="1" transform="matrix(-34.38212 -13.53227 9.75744 -24.79123 149.6 85.1)"/><path fill="#3e0300" d="M-25.1 152.3L-5 131.5l56.1 54.2L31 206.5z"/><path d="M270 6.4l5.2 13L240 33.6l-5.2-13z"/><path fill="#681d00" d="M214 91l-34 9 17-29z"/><path fill="#fdfdfd" d="M44-16L223 4 15 157z"/><path fill="#1d0f00" d="M166 70L88.4 80.8l-3.2 5.8L136 99.4z"/><ellipse fill="#feffff" cx="98" cy="135" rx="87" ry="34"/><path fill="#ffffd5" d="M143 92l41-2 34-24z"/></g></svg>