<svg xmlns="http://www.w3.org/2000/svg" viewBox="0 0 600 900"><filter id="c"><feGaussianBlur stdDeviation="55" /></filter><path fill="#e0d3c8" d="M0 0h597v900H0z"/><g filter='url(#c)' fill-opacity='.5'><ellipse fill="#000036" fill-opacity=".5" rx="1" ry="1" transform="rotate(-83.9 430.2 -115.2) scale(52.81554 129.02975)"/><ellipse fill="#ff946d" fill-opacity=".5" rx="1" ry="1" transform="matrix(255.21008 -.388 .21114 138.87768 219 631.9)"/><ellipse fill="#f1ffff" fill-opacity=".5" rx="1" ry="1" transform="matrix(-64.18893 -164.8666 137.0146 -53.34508 498.4 116)"/><ellipse fill="#bafff7" fill-opacity=".5" rx="1" ry="1" transform="matrix(158.22612 221.03174 -127.71074 91.42205 175.3 235)"/><path fill="#ff4014" fill-opacity=".5" d="M381.4 831.4l270.7-158.2-140.6 186.4z"/><path fill="#3b1900" fill-opacity=".5" d="M-20.3 402.5l95.8-215.2 25.7 11.4L5.4 414z"/><path fill="#ff8a40" fill-opacity=".5" d="M486.5 342.7l189 40.2-12.3 58.4L474 401.1z"/><path fill="#fbffff" fill-opacity=".5" d="M652.1 620.5l-291.7-66.8L546.7 726z"/></g></svg>