<svg xmlns="http://www.w3.org/2000/svg" viewBox="0 0 820 547"><filter id="b"><feGaussianBlur stdDeviation="12" /></filter><path fill="#e1d9d5" d="M0 0h820v544H0z"/><g filter="url(#b)" transform="translate(1.6 1.6) scale(3.20313)" fill-opacity=".5"><path fill="#8b7673" d="M74.7-2L28.3 184.3l-33-8.3L41.7-10.3z"/><ellipse fill="#fcfbf4" rx="1" ry="1" transform="matrix(68.8469 -9.84283 15.50175 108.4289 146.3 30)"/><ellipse fill="#fff" rx="1" ry="1" transform="matrix(-17.44291 -1.82465 11.51449 -110.07364 11.7 13.6)"/><ellipse fill="#ffd2a1" rx="1" ry="1" transform="matrix(-44.07881 32.43843 -13.40675 -18.2177 68.6 112.6)"/><ellipse fill="#dbafa7" cx="255" cy="91" rx="52" ry="37"/><ellipse fill="#eeebf8" rx="1" ry="1" transform="matrix(-6.96137 23.80604 -49.92018 -14.59768 98.2 149)"/><path fill="#8a82b2" d="M139 76l15 17-39-3z"/><ellipse fill="#d1f1ff" cx="246" cy="14" rx="60" ry="25"/></g></svg>