<svg xmlns="http://www.w3.org/2000/svg" viewBox="0 0 341 333"><filter id="b"><feGaussianBlur stdDeviation="12" /></filter><path fill="#dee2d4" d="M0 0h341v331H0z"/><g filter="url(#b)" transform="translate(.7 .7) scale(1.33203)" fill-opacity=".5"><path fill="#c38000" d="M186 132l-74 46 111 19z"/><ellipse fill="#3e9cc4" rx="1" ry="1" transform="matrix(-40.0227 20.71396 -15.28382 -29.5308 70.1 44.8)"/><path fill="#457221" d="M30.3 223.2l2-23 92.1-5-2 29.1z"/><ellipse fill="#b1c900" rx="1" ry="1" transform="matrix(6.57403 -47.61466 8.29034 1.14462 144.7 74.4)"/><ellipse fill="#fff" cx="219" cy="46" rx="67" ry="67"/><ellipse fill="#fff" rx="1" ry="1" transform="matrix(161.93004 -36.19565 7.51862 33.63637 231.5 223.9)"/><ellipse fill="#b6b38c" rx="1" ry="1" transform="rotate(161.5 38.7 76.4) scale(30.45954 60.58831)"/><ellipse fill="#0072c6" cx="64" cy="17" rx="51" ry="6"/></g></svg>