<svg xmlns="http://www.w3.org/2000/svg" viewBox="0 0 900 600"><filter id="b"><feGaussianBlur stdDeviation="12" /></filter><path fill="#858c96" d="M0 0h900v597H0z"/><g filter="url(#b)" transform="translate(1.8 1.8) scale(3.51563)" fill-opacity=".5"><path d="M1.4 137.2l254.4 17.7-3.2 46L-1.8 183z"/><ellipse fill="#e8ffff" cx="219" cy="26" rx="150" ry="48"/><ellipse rx="1" ry="1" transform="rotate(-68.9 121 47.8) scale(15.32429 211.22378)"/><ellipse fill="#feffff" rx="1" ry="1" transform="rotate(-128.4 130.7 9.3) scale(14.73623 37.02727)"/><ellipse fill="#000008" rx="1" ry="1" transform="matrix(12.32414 -3.61936 12.03288 40.97268 249.9 118.6)"/><ellipse rx="1" ry="1" transform="matrix(6.83089 20.14087 -76.10463 25.8113 163 169)"/><ellipse fill="#dcd8e8" rx="1" ry="1" transform="rotate(143.8 11.6 51.8) scale(44.3293 29.6781)"/><path fill="#ea6b1f" d="M66.7 77.4l99.6-8.7 3 33.9-99.6 8.7z"/></g></svg>