<svg xmlns="http://www.w3.org/2000/svg" viewBox="0 0 900 600"><filter id="c"><feGaussianBlur stdDeviation="55" /></filter><path fill="#898f8e" d="M0 0h900v597H0z"/><g filter='url(#c)' fill-opacity='.5'><ellipse fill-opacity=".5" rx="1" ry="1" transform="matrix(242.33208 -56.00144 59.8198 258.85507 439 571)"/><ellipse fill="#f6ffff" fill-opacity=".5" rx="1" ry="1" transform="matrix(104.89871 -276.14781 194.77696 73.98883 150.6 142.7)"/><ellipse fill="#fff" fill-opacity=".5" rx="1" ry="1" transform="matrix(187.74114 37.51438 -9.83295 49.20912 799.1 93)"/><ellipse fill-opacity=".5" rx="1" ry="1" transform="rotate(178.1 342 101.6) scale(228.3594 53.30982)"/><ellipse fill="#fff" fill-opacity=".5" rx="1" ry="1" transform="matrix(-158.38024 125.92971 -47.72785 -60.02672 876.4 570.7)"/><path fill="#020000" fill-opacity=".5" d="M332.2 356.5l164.7 183-164.6 148.1-164.7-182.9z"/><path fill="#b1c1c9" fill-opacity=".5" d="M399 378h270.7v105.4H399z"/><ellipse fill="#fff" fill-opacity=".5" rx="1" ry="1" transform="rotate(-8.5 933.5 -5310.6) scale(109.33389 52.55007)"/></g></svg>