<svg xmlns="http://www.w3.org/2000/svg" viewBox="0 0 900 600"><filter id="b"><feGaussianBlur stdDeviation="12" /></filter><path fill="#888484" d="M0 0h900v597H0z"/><g filter="url(#b)" transform="translate(1.8 1.8) scale(3.51563)" fill-opacity=".5"><ellipse rx="1" ry="1" transform="matrix(6.55756 31.69717 -97.837 20.24066 79.5 155.4)"/><ellipse fill="#d3e4e6" rx="1" ry="1" transform="matrix(-27.01875 56.64598 -138.5271 -66.07403 198.5 40.7)"/><path d="M93 31l83 25 51-22z"/><ellipse fill="#2d0000" rx="1" ry="1" transform="rotate(-38.9 152.4 -67.8) scale(36.80496 22.78535)"/><ellipse fill="#fff" rx="1" ry="1" transform="matrix(-.05253 29.6009 -64.38477 -.11426 166.2 6.2)"/><ellipse cx="99" cy="158" rx="69" ry="32"/><ellipse fill="#a20000" rx="1" ry="1" transform="matrix(-15.77346 -8.10646 11.13099 -21.65856 134.2 89)"/><ellipse fill="#ddedff" rx="1" ry="1" transform="rotate(133.2 -11.7 48.6) scale(15.9906 42.76924)"/></g></svg>