<svg xmlns="http://www.w3.org/2000/svg" viewBox="0 0 900 600"><filter id="b"><feGaussianBlur stdDeviation="12" /></filter><path fill="#617384" d="M0 0h900v597H0z"/><g filter="url(#b)" transform="translate(1.8 1.8) scale(3.51563)" fill-opacity=".5"><ellipse rx="1" ry="1" transform="matrix(-158.31981 -8.08303 2.31428 -45.32908 66.4 163.5)"/><ellipse fill="#d4e8f2" cx="125" cy="26" rx="81" ry="81"/><ellipse cx="168" cy="42" rx="62" ry="10"/><ellipse fill="#fff" rx="1" ry="1" transform="matrix(-.2585 -17.43507 56.42864 -.83665 174.9 16.2)"/><ellipse rx="1" ry="1" transform="matrix(-101.23477 -52.92426 10.22987 -19.56794 75.4 145.1)"/><ellipse fill="#fff" rx="1" ry="1" transform="matrix(22.6962 -9.7276 13.06067 30.47282 111.9 78)"/><ellipse rx="1" ry="1" transform="rotate(-38.2 302.2 -148.5) scale(54.24111 24.12005)"/><path fill="#000007" d="M70 17h8v81h-8z"/></g></svg>