<svg xmlns="http://www.w3.org/2000/svg" viewBox="0 0 600 900"><filter id="b"><feGaussianBlur stdDeviation="12" /></filter><path fill="#4b4345" d="M0 0h597v900H0z"/><g filter="url(#b)" transform="translate(1.8 1.8) scale(3.51563)" fill-opacity=".5"><ellipse fill="#ed9082" rx="1" ry="1" transform="matrix(-6.0084 -62.39956 50.55154 -4.86756 65.2 135.2)"/><ellipse fill="#001a2b" rx="1" ry="1" transform="matrix(11.54747 168.60503 -44.96593 3.07964 155.6 113.2)"/><path fill="#f3a58a" d="M76 103l71 44-40-58z"/><ellipse fill="#ffe8cd" cx="55" cy="82" rx="14" ry="14"/><path fill="#ffebcf" d="M72.6 117.5L70 135.3l-34.7-4.8 2.5-17.8z"/><path fill="#000012" d="M121 133l-34 1-35-36z"/><ellipse fill="#1b192a" rx="1" ry="1" transform="matrix(2.53179 -9.7897 30.59778 7.91312 56 156.4)"/><ellipse fill="#13272f" cx="102" cy="22" rx="102" ry="56"/></g></svg>