<svg xmlns="http://www.w3.org/2000/svg" viewBox="0 0 600 935"><filter id="b"><feGaussianBlur stdDeviation="12" /></filter><path fill="#cebba2" d="M0 0h598v935H0z"/><g filter="url(#b)" transform="translate(1.8 1.8) scale(3.65234)" fill-opacity=".5"><ellipse fill="#6b1a00" rx="1" ry="1" transform="matrix(2.07774 48.77106 -86.27002 3.67527 84.4 169.5)"/><ellipse fill="#fff" rx="1" ry="1" transform="matrix(-161.20423 24.12872 -10.21898 -68.2731 54.3 50)"/><ellipse cx="101" cy="168" rx="73" ry="10"/><ellipse fill="#f7ffff" rx="1" ry="1" transform="rotate(-86.7 164 79.7) scale(24.14029 163)"/><ellipse fill="#fff" cx="163" cy="124" rx="25" ry="40"/><ellipse fill="#864300" rx="1" ry="1" transform="rotate(60.6 -67.7 153.6) scale(26.89822 43.51518)"/><ellipse fill="#fff" rx="1" ry="1" transform="rotate(-92.8 80.4 63.3) scale(7.09836 64.75245)"/><ellipse fill="#d18d03" rx="1" ry="1" transform="matrix(.5734 -19.89435 109.99307 3.17025 89.2 195.5)"/></g></svg>