<svg xmlns="http://www.w3.org/2000/svg" viewBox="0 0 900 600"><filter id="b"><feGaussianBlur stdDeviation="12" /></filter><path fill="#292c2e" d="M0 0h900v597H0z"/><g filter="url(#b)" transform="translate(1.8 1.8) scale(3.51563)" fill-opacity=".5"><ellipse fill="#69a3f8" rx="1" ry="1" transform="rotate(163 118.7 22.3) scale(50.43265 11.7857)"/><ellipse fill="#828388" rx="1" ry="1" transform="matrix(-10.04 6.53763 -33.23895 -51.04592 62.1 99.3)"/><path fill="#f90" d="M147.8 96.7l-7-28.1 21.4-5.3 7 28.1z"/><path fill="#547bbb" d="M185.8 129.2l90-63.1 10.4 14.7-90 63.1z"/><ellipse fill="#0f0400" rx="1" ry="1" transform="rotate(-142.7 53.4 3.6) scale(59.72263 32.43471)"/><ellipse rx="1" ry="1" transform="matrix(-11.54519 -47.05055 22.6103 -5.54808 16.7 137.1)"/><ellipse fill="#5e85c9" rx="1" ry="1" transform="matrix(4.71117 -.10073 .91399 42.74863 48.2 133.4)"/><ellipse fill="#ff8300" cx="120" cy="93" rx="12" ry="10"/></g></svg>