<svg xmlns="http://www.w3.org/2000/svg" viewBox="0 0 266 400"><filter id="c"><feGaussianBlur stdDeviation="55" /></filter><path fill="#b18678" d="M0 0h265v400H0z"/><g filter='url(#c)' fill-opacity='.5'><ellipse fill="#330f33" fill-opacity=".5" rx="1" ry="1" transform="rotate(93 8.8 43.4) scale(51.5189 141.39761)"/><ellipse fill="#ffe3b5" fill-opacity=".5" rx="1" ry="1" transform="rotate(102.5 -99 178.1) scale(57.32076 148.19515)"/><ellipse fill="#f8fff6" fill-opacity=".5" rx="1" ry="1" transform="rotate(62.2 -104 84.9) scale(32.63842 87.26351)"/><ellipse fill="#5f2d42" fill-opacity=".5" rx="1" ry="1" transform="matrix(-53.23703 39.53731 -30.23624 -40.71313 236.3 141.2)"/><ellipse fill="#f4b780" fill-opacity=".5" rx="1" ry="1" transform="matrix(-5.76931 85.81213 -116.0325 -7.80109 222.5 285.3)"/><ellipse fill="#924c42" fill-opacity=".5" rx="1" ry="1" transform="matrix(57.9006 -21.98808 7.94965 20.93359 166.6 287.8)"/><path fill="#4d223c" fill-opacity=".5" d="M109 174.2l48.6 52.3L47.8 177l95.5-71.7z"/><ellipse fill="#a5675b" fill-opacity=".5" rx="1" ry="1" transform="rotate(-27 197.4 -362.2) scale(101.10734 58.52919)"/></g></svg>