<svg xmlns="http://www.w3.org/2000/svg" viewBox="0 0 600 748"><filter id="b"><feGaussianBlur stdDeviation="12" /></filter><path fill="#dea46b" d="M0 0h598v748H0z"/><g filter="url(#b)" transform="translate(1.5 1.5) scale(2.92188)" fill-opacity=".5"><ellipse fill="#5f0900" rx="1" ry="1" transform="matrix(.4177 -27.57265 73.65604 1.11583 79.8 213.4)"/><ellipse fill="#fff1cb" rx="1" ry="1" transform="rotate(-12 470.4 -831) scale(47.89226 204.00002)"/><path fill="#a02800" d="M55 102l131 39-138 11z"/><ellipse fill="#cc5800" rx="1" ry="1" transform="matrix(1.05101 -12.51616 57.33465 4.81453 107 77.7)"/><ellipse fill="#9c4800" cx="79" cy="203" rx="53" ry="36"/><ellipse fill="#ffe78a" rx="1" ry="1" transform="matrix(10.80389 28.4037 -31.19996 11.8675 142.2 180.2)"/><ellipse fill="#390a00" rx="1" ry="1" transform="matrix(-1.11028 -7.5438 71.30767 -10.4949 99.1 224.8)"/><ellipse fill="#fbceab" rx="1" ry="1" transform="rotate(-90.3 48.1 -24.6) scale(32.28167 204.00001)"/></g></svg>