<svg xmlns="http://www.w3.org/2000/svg" viewBox="0 0 600 900"><filter id="c"><feGaussianBlur stdDeviation="55" /></filter><path fill="#baab94" d="M0 0h597v900H0z"/><g filter='url(#c)' fill-opacity='.5'><ellipse fill="#fffff6" fill-opacity=".5" rx="1" ry="1" transform="rotate(-74.4 616.9 42) scale(194.32121 412.76352)"/><ellipse fill="#2d232c" fill-opacity=".5" rx="1" ry="1" transform="matrix(-40.10147 83.4877 -525.31236 -252.32219 164 831.3)"/><ellipse fill="#3d5362" fill-opacity=".5" rx="1" ry="1" transform="matrix(-284.59346 446.72224 -91.26179 -58.14017 151.7 151.8)"/><ellipse fill="#cd5a00" fill-opacity=".5" rx="1" ry="1" transform="matrix(-84.46132 -151.12573 71.09235 -39.73217 424.5 275.6)"/><path fill="#364954" fill-opacity=".5" d="M703.6 761l-108 172.9-107.4-67.1 108-173z"/><ellipse fill="#fff189" fill-opacity=".5" rx="1" ry="1" transform="matrix(-169.98226 -174.2139 58.13618 -56.72406 548 255)"/><ellipse fill="#f3b53a" fill-opacity=".5" rx="1" ry="1" transform="rotate(-129.9 221.3 262.4) scale(79.66608 111.57165)"/><ellipse fill="#fff" fill-opacity=".5" rx="1" ry="1" transform="matrix(93.47857 -203.40228 78.30735 35.98809 516.1 659)"/></g></svg>