<svg xmlns="http://www.w3.org/2000/svg" viewBox="0 0 900 600"><filter id="c"><feGaussianBlur stdDeviation="55" /></filter><path fill="#c59a7b" d="M0 0h900v597H0z"/><g filter='url(#c)' fill-opacity='.5'><ellipse fill="#571614" fill-opacity=".5" rx="1" ry="1" transform="rotate(101.3 21.4 443.9) scale(187.46963 303.23407)"/><ellipse fill="#ffeec0" fill-opacity=".5" rx="1" ry="1" transform="matrix(-32.6683 170.65949 -880.49744 -168.54818 453.5 71)"/><path fill-opacity=".5" d="M504.5 209.2L451.8 283l-56.3-73.8z"/><path fill="#00001f" fill-opacity=".5" d="M448.2 325.2h144.2v80.9H448.2z"/><ellipse fill="#100118" fill-opacity=".5" rx="1" ry="1" transform="matrix(59.05623 -21.74025 18.10233 49.174 159.2 244.8)"/><path fill="#000427" fill-opacity=".5" d="M878.5 327.5l-168.3-43.8 50.2 62.2 15.4 53.7z"/><path fill="#fff6d1" fill-opacity=".5" d="M715.4 465.8l239 80.9V237.3z"/><ellipse fill="#5a1e1a" fill-opacity=".5" rx="1" ry="1" transform="matrix(13.7408 -25.51942 382.55025 205.98209 102 447.7)"/></g></svg>