<svg xmlns="http://www.w3.org/2000/svg" viewBox="0 0 900 600"><filter id="b"><feGaussianBlur stdDeviation="12" /></filter><path fill="#534837" d="M0 0h900v597H0z"/><g filter="url(#b)" transform="translate(1.8 1.8) scale(3.51563)" fill-opacity=".5"><ellipse fill="#ffdfaf" rx="1" ry="1" transform="rotate(86.2 12.8 68.4) scale(95.96206 21.18768)"/><ellipse fill="#ffffec" rx="1" ry="1" transform="matrix(86.0877 -17.09182 1.4533 7.31994 83.2 133)"/><ellipse fill="#000005" cx="165" cy="34" rx="54" ry="80"/><ellipse fill="#ffe19f" rx="1" ry="1" transform="rotate(165.6 124.2 30.8) scale(26.05921 16.94631)"/><path fill="#edbc97" d="M13 14l55-30-46 84z"/><ellipse fill="#0c0a05" rx="1" ry="1" transform="matrix(-158.95631 13.20164 -2.86346 -34.47796 182.5 161)"/><ellipse fill="#110f09" rx="1" ry="1" transform="matrix(-56.92822 25.60583 -8.58797 -19.09323 12.1 118.5)"/><ellipse fill="#fff5e1" cx="81" cy="74" rx="23" ry="12"/></g></svg>