<svg xmlns="http://www.w3.org/2000/svg" viewBox="0 0 900 600"><filter id="b"><feGaussianBlur stdDeviation="12" /></filter><path fill="#a66f47" d="M0 0h900v597H0z"/><g filter="url(#b)" transform="translate(1.8 1.8) scale(3.51563)" fill-opacity=".5"><ellipse fill="#000003" rx="1" ry="1" transform="matrix(-13.95426 31.93683 -66.98545 -29.26816 176.6 169)"/><ellipse fill="#e0ab74" cx="227" cy="38" rx="81" ry="81"/><ellipse fill="#ffbf8d" rx="1" ry="1" transform="matrix(-109.40883 34.22978 -8.3824 -26.79274 10.2 155.7)"/><path fill="#350c0c" d="M69 46h60v63H69z"/><ellipse fill="#000003" rx="1" ry="1" transform="matrix(3.56226 15.1878 -26.96977 6.3257 118 1)"/><ellipse fill="#ff851b" rx="1" ry="1" transform="matrix(24.30166 -24.8207 21.37097 20.92407 169 106.7)"/><ellipse fill="#fab16d" rx="1" ry="1" transform="matrix(10.9146 45.46261 -20.2686 4.86606 32.9 29.7)"/><path fill="#000113" d="M112 87l9 57 66 41z"/></g></svg>