<svg xmlns="http://www.w3.org/2000/svg" viewBox="0 0 900 900"><filter id="b"><feGaussianBlur stdDeviation="12" /></filter><path fill="#7f624d" d="M0 0h900v900H0z"/><g filter="url(#b)" transform="translate(1.8 1.8) scale(3.51563)" fill-opacity=".5"><ellipse fill="#e4e1d1" rx="1" ry="1" transform="rotate(-69.4 162.5 -14.9) scale(53.63114 56.47203)"/><ellipse fill="#2c1a0d" rx="1" ry="1" transform="matrix(7.00759 -65.70954 253.56218 27.0411 144.8 223.5)"/><ellipse fill="#ca9c81" rx="1" ry="1" transform="rotate(102.3 57.2 58.8) scale(70.11788 118.36767)"/><ellipse fill="#eeddc0" rx="1" ry="1" transform="matrix(43.8618 -10.65945 4.14562 17.05851 127.1 178)"/><path fill="#3b281c" d="M71 107l-86 11 38 147z"/><ellipse fill="#361d0c" rx="1" ry="1" transform="rotate(-30.2 427.7 -296.7) scale(99.28633 18.05146)"/><ellipse fill="#c0a69f" cx="100" cy="12" rx="49" ry="29"/><path fill="#a08a6e" d="M63 150h91v25H63z"/></g></svg>