<svg xmlns="http://www.w3.org/2000/svg" viewBox="0 0 900 900"><filter id="b"><feGaussianBlur stdDeviation="12" /></filter><path fill="#7f624d" d="M0 0h900v900H0z"/><g filter="url(#b)" transform="translate(1.8 1.8) scale(3.51563)" fill-opacity=".5"><ellipse fill="#dce2de" rx="1" ry="1" transform="matrix(24.28962 0 0 115.51086 116.8 102.5)"/><ellipse fill="#3e2410" cx="109" cy="207" rx="255" ry="59"/><ellipse fill="#caa793" cx="39" cy="14" rx="135" ry="70"/><ellipse fill="#d9dad4" rx="1" ry="1" transform="matrix(23.41184 3.04067 -5.70494 43.92557 121 172)"/><ellipse fill="#4c1c00" rx="1" ry="1" transform="rotate(-90.6 74.3 59.6) scale(23.38761 64.40967)"/><path fill="#4a321a" d="M92 71h58v23H92z"/><ellipse fill="#d5ddd8" rx="1" ry="1" transform="matrix(-1.50033 -71.4438 10.54317 -.2214 118.3 94.8)"/><path fill="#ecfaf8" d="M114.4 107.3l-34.2 44.5-5.6-1.2 28.9-55.4z"/></g></svg>