<svg xmlns="http://www.w3.org/2000/svg" viewBox="0 0 900 900"><filter id="b"><feGaussianBlur stdDeviation="12" /></filter><path fill="#836c58" d="M0 0h900v900H0z"/><g filter="url(#b)" transform="translate(1.8 1.8) scale(3.51563)" fill-opacity=".5"><ellipse fill="#fffae9" rx="1" ry="1" transform="matrix(-98.36778 3.18748 -1.02242 -31.55247 125.8 78.1)"/><ellipse fill="#1e0d02" rx="1" ry="1" transform="matrix(-158.75864 -49.99936 15.50912 -49.24476 63 249.8)"/><ellipse fill="#ffffdf" rx="1" ry="1" transform="matrix(-33.30803 -14.81382 13.52184 -30.40309 126 175.4)"/><ellipse rx="1" ry="1" transform="rotate(126.8 107.1 70) scale(19.52148 58.7695)"/><ellipse fill="#1f0c00" rx="1" ry="1" transform="matrix(65.64842 48.04738 -14.5517 19.88237 229.1 170)"/><ellipse rx="1" ry="1" transform="rotate(-84 109.7 40.1) scale(21.64784 37.0478)"/><ellipse fill="#b38b76" cx="118" cy="26" rx="68" ry="39"/><ellipse fill="#2c1f03" rx="1" ry="1" transform="matrix(11.94409 -8.87957 23.13058 31.1134 145.6 125.4)"/></g></svg>