<svg xmlns="http://www.w3.org/2000/svg" viewBox="0 0 900 900"><filter id="b"><feGaussianBlur stdDeviation="12" /></filter><path fill="#82634d" d="M0 0h900v900H0z"/><g filter="url(#b)" transform="translate(1.8 1.8) scale(3.51563)" fill-opacity=".5"><ellipse fill="#f6ffff" rx="1" ry="1" transform="matrix(.91287 24.6673 -71.8507 2.65901 120.3 149.3)"/><path fill="#090503" d="M259 222.4l-193.3 17-4.7-53.8 193.3-17z"/><ellipse fill="#deae94" cx="94" cy="20" rx="255" ry="29"/><ellipse fill="#3f2416" rx="1" ry="1" transform="matrix(-54.5399 92.96102 -26.01208 -15.2612 23.1 136.4)"/><path fill="#45240b" d="M249.6 182.8l-59.8 4.2-5.4-77.8 59.8-4.2z"/><ellipse fill="#b87949" rx="1" ry="1" transform="matrix(15.37103 37.96738 -65.98048 26.7121 201.9 63)"/><ellipse fill="#6b3b1d" cx="82" cy="106" rx="87" ry="24"/><ellipse fill="#3e2c20" cx="187" cy="229" rx="39" ry="57"/></g></svg>