<svg xmlns="http://www.w3.org/2000/svg" viewBox="0 0 900 900"><filter id="b"><feGaussianBlur stdDeviation="12" /></filter><path fill="#7f614a" d="M0 0h900v900H0z"/><g filter="url(#b)" transform="translate(1.8 1.8) scale(3.51563)" fill-opacity=".5"><ellipse fill="#e4e9e3" rx="1" ry="1" transform="matrix(3.61135 -132.59548 23.3484 .63591 116.3 87)"/><ellipse fill="#231303" rx="1" ry="1" transform="rotate(145.4 59.3 144.5) scale(113.76238 60.27692)"/><ellipse fill="#3c1500" rx="1" ry="1" transform="matrix(59.71905 -8.39296 14.69948 104.59221 39.6 209.6)"/><ellipse fill="#cea890" rx="1" ry="1" transform="matrix(-.25808 -47.72875 154.52081 -.83552 38 33.3)"/><path fill="#3c2a14" d="M82 84l68-23-5 36z"/><ellipse fill="#dde5dd" rx="1" ry="1" transform="matrix(10.15805 -28.21237 22.38779 8.06087 118.6 120)"/><ellipse fill="#d2ecf3" cx="116" cy="52" rx="17" ry="27"/><path fill="#84491b" d="M108 97.5l-4.6-23.9-10.4-7L19.3 188z"/></g></svg>