<svg xmlns="http://www.w3.org/2000/svg" viewBox="0 0 900 1350"><filter id="b"><feGaussianBlur stdDeviation="12" /></filter><path fill="#624d44" d="M0 0h896v1350H0z"/><g filter="url(#b)" transform="translate(2.6 2.6) scale(5.27344)" fill-opacity=".5"><ellipse fill="#fff" rx="1" ry="1" transform="matrix(25.0885 -42.2623 21.17757 12.5718 29.3 134.3)"/><ellipse fill="#ffebe5" rx="1" ry="1" transform="rotate(-120.8 117.6 20) scale(71.21141 33.62009)"/><path fill="#fff" d="M33 230l92-6-38-52z"/><ellipse cx="72" cy="17" rx="112" ry="60"/><ellipse cx="99" cy="250" rx="169" ry="20"/><ellipse fill="#c34e07" rx="1" ry="1" transform="matrix(25.08365 -2.81358 7.2662 64.77972 112 129.4)"/><ellipse fill="#e9dfda" rx="1" ry="1" transform="rotate(-31.9 332.6 -23) scale(11.26247 72.19736)"/><ellipse rx="1" ry="1" transform="matrix(21.94602 -5.78536 24.11527 91.47812 0 227.6)"/></g></svg>