<svg xmlns="http://www.w3.org/2000/svg" viewBox="0 0 900 900"><filter id="c"><feGaussianBlur stdDeviation="55" /></filter><path fill="#7e6d61" d="M0 0h900v900H0z"/><g filter='url(#c)' fill-opacity='.5'><ellipse fill="#d7d7f9" fill-opacity=".5" rx="1" ry="1" transform="matrix(-262.16652 -69.40403 49.94137 -188.64834 687 154.2)"/><path fill="#3b1c02" fill-opacity=".5" d="M19.3 954.5l-73.8-341 1009 253.1z"/><ellipse fill="#070000" fill-opacity=".5" rx="1" ry="1" transform="rotate(-139.9 502.4 160.2) scale(335.83035 57.73845)"/><ellipse fill="#fff2ba" fill-opacity=".5" rx="1" ry="1" transform="rotate(150.1 138.8 370.3) scale(118.82813 95.27724)"/><ellipse fill="#fff0b6" fill-opacity=".5" rx="1" ry="1" transform="rotate(-14.7 1268.3 -866.3) scale(121.01864 89.47224)"/><ellipse fill="#472d10" fill-opacity=".5" rx="1" ry="1" transform="matrix(-337.38846 99.93902 -20.50125 -69.21107 249 474)"/><path fill="#020711" fill-opacity=".5" d="M388.5 145.9l7 284.8 168.8 119.5z"/><path fill="#bec2db" fill-opacity=".5" d="M441.2 198.6l221.5-137L230.3 72z"/></g></svg>