<svg xmlns="http://www.w3.org/2000/svg" viewBox="0 0 1766 982"><filter id="b"><feGaussianBlur stdDeviation="12" /></filter><path fill="#e2ebed" d="M0 0h1766v979H0z"/><g filter="url(#b)" transform="translate(3.4 3.4) scale(6.89844)" fill-opacity=".5"><ellipse fill="#fffffd" rx="1" ry="1" transform="matrix(130.46019 53.7718 -21.68675 52.61599 180.8 31.8)"/><ellipse fill="#c2dde2" rx="1" ry="1" transform="matrix(-20.43742 55.66538 -219.58407 -80.6198 71.8 116.6)"/><ellipse fill="#fffffc" cx="40" cy="26" rx="30" ry="11"/><path fill="#fffdfb" d="M89 52h40v18H89z"/><ellipse fill="#fffdf9" rx="1" ry="1" transform="matrix(-2.64008 14.52745 -8.19333 -1.48898 187.7 102.7)"/><path fill="#c6dcde" d="M80.5 73.2L41.4 42.3l33-13 18.9 17.2z"/><ellipse fill="#cce1e3" rx="1" ry="1" transform="rotate(39.8 -63 398) scale(59.3057 13.36819)"/><path fill="#c1d1d2" d="M184.8 100.1l-47.6-21.8 12.8-3.6 19.3 28z"/></g></svg>