<svg xmlns="http://www.w3.org/2000/svg" viewBox="0 0 821 1232"><filter id="b"><feGaussianBlur stdDeviation="12" /></filter><path fill="#74391c" d="M0 0h818v1232H0z"/><g filter="url(#b)" transform="translate(2.4 2.4) scale(4.8125)" fill-opacity=".5"><ellipse fill="#f5b66a" cx="83" cy="87" rx="82" ry="50"/><ellipse fill="#1a0000" cx="84" cy="205" rx="169" ry="56"/><ellipse fill="#ffd993" rx="1" ry="1" transform="matrix(8.92356 48.01551 -11.6252 2.16051 19.6 38.7)"/><ellipse fill="#ffc27e" rx="1" ry="1" transform="matrix(-15.31247 -4.6231 15.45775 -51.19853 141.2 50.2)"/><ellipse fill="#370d00" rx="1" ry="1" transform="matrix(-11.1909 32.75157 -44.70138 -15.27403 78.2 27.2)"/><ellipse fill="#e30000" rx="1" ry="1" transform="matrix(-44.01285 -10.58234 4.38226 -18.22618 15.8 227.4)"/><ellipse fill="#e30000" rx="1" ry="1" transform="matrix(15.44966 42.21817 -20.41813 7.47197 160.5 234)"/><ellipse fill="#0d0000" cx="87" cy="188" rx="91" ry="35"/></g></svg>