<svg xmlns="http://www.w3.org/2000/svg" viewBox="0 0 820 547"><filter id="b"><feGaussianBlur stdDeviation="12" /></filter><path fill="#a4a69d" d="M0 0h820v544H0z"/><g filter="url(#b)" transform="translate(1.6 1.6) scale(3.20313)" fill-opacity=".5"><ellipse rx="1" ry="1" transform="matrix(85.81883 -27.15059 10.68341 33.76863 53 134.3)"/><path d="M176.8 46l52.2 9-11.8 67-52.2-9.2z"/><ellipse rx="1" ry="1" transform="rotate(-78.6 83 -57.1) scale(23.17739 48.50809)"/><ellipse fill="#fff" rx="1" ry="1" transform="matrix(-17.42933 -38.46497 143.54117 -65.04168 196.4 156.3)"/><ellipse fill="#fff" rx="1" ry="1" transform="matrix(-34.76797 -19.49292 58.12338 -103.67001 32.5 27)"/><ellipse fill="#fff" rx="1" ry="1" transform="rotate(-14.4 352.5 -961.6) scale(29.02433 247.95737)"/><ellipse fill="#fff" rx="1" ry="1" transform="matrix(64.03908 21.73483 -4.74235 13.97276 113 73.6)"/><ellipse fill="#0c0d0c" cx="205" cy="85" rx="23" ry="41"/></g></svg>