<svg xmlns="http://www.w3.org/2000/svg" viewBox="0 0 600 600"><filter id="b"><feGaussianBlur stdDeviation="12" /></filter><path fill="#eadbbd" d="M0 0h600v600H0z"/><g filter="url(#b)" transform="translate(1.2 1.2) scale(2.34375)" fill-opacity=".5"><ellipse fill="#b88909" rx="1" ry="1" transform="matrix(81.28892 -33.92454 23.7614 56.93632 129.7 121)"/><ellipse fill="#fff" cx="137" cy="15" rx="255" ry="43"/><ellipse fill="#fafcff" rx="1" ry="1" transform="matrix(2.09175 54.44972 -112.1175 4.30712 14.3 201.8)"/><ellipse fill="#5f802c" cx="127" cy="77" rx="32" ry="34"/><ellipse fill="#fcfaff" rx="1" ry="1" transform="matrix(-40.40974 81.04747 -49.16408 -24.5129 252 168.8)"/><path fill="#fff" d="M-88.4 94L93.5-53.3 146.4 12-35.5 159.3z"/><ellipse fill="#fff" rx="1" ry="1" transform="matrix(9.79907 -32.5244 232.69127 70.10608 220.6 43)"/><ellipse fill="#efc64c" rx="1" ry="1" transform="matrix(22.50308 -.01333 .01775 29.96349 43.8 122.3)"/></g></svg>