<svg xmlns="http://www.w3.org/2000/svg" viewBox="0 0 600 808"><filter id="b"><feGaussianBlur stdDeviation="12" /></filter><path fill="#bfae64" d="M0 0h599v808H0z"/><g filter="url(#b)" transform="translate(1.6 1.6) scale(3.15625)" fill-opacity=".5"><ellipse fill="#560601" rx="1" ry="1" transform="matrix(15.04193 52.114 -93.95125 27.11763 77.4 142)"/><ellipse fill="#ffffb4" rx="1" ry="1" transform="matrix(-1.22704 53.23588 -188.94982 -4.35514 108.3 28.1)"/><ellipse fill="#ffffb3" rx="1" ry="1" transform="matrix(-177.35738 61.9732 -10.9131 -31.23153 136.5 244.3)"/><ellipse fill="#e7001e" rx="1" ry="1" transform="matrix(49.05686 -18.10453 3.1819 8.62184 130.6 203.3)"/><ellipse fill="#fbffa2" rx="1" ry="1" transform="matrix(19.23778 -2.95667 20.02212 130.27538 185.6 78.3)"/><ellipse fill="#8a172a" cx="49" cy="102" rx="27" ry="27"/><ellipse fill="#ebff91" rx="1" ry="1" transform="rotate(140 -36.4 124.2) scale(31.40814 42.50842)"/><ellipse fill="#cb0014" rx="1" ry="1" transform="rotate(73.2 -114.1 160.6) scale(8.15102 31.89966)"/></g></svg>