<svg xmlns="http://www.w3.org/2000/svg" viewBox="0 0 821 547"><filter id="c"><feGaussianBlur stdDeviation="55" /></filter><path fill="#877d71" d="M0 0h821v545H0z"/><g filter='url(#c)' fill-opacity='.5'><ellipse fill="#010000" fill-opacity=".5" rx="1" ry="1" transform="rotate(-173.3 360.4 148.3) scale(176.30288 76.82101)"/><ellipse fill="#fff" fill-opacity=".5" rx="1" ry="1" transform="matrix(-19.00526 -63.80854 95.69525 -28.50265 473.3 110.2)"/><ellipse fill="#d2fbff" fill-opacity=".5" rx="1" ry="1" transform="matrix(-62.06758 43.58052 -77.84969 -110.87388 373.3 513.7)"/><ellipse fill="#ffffde" fill-opacity=".5" rx="1" ry="1" transform="rotate(20.7 -694.6 976.4) scale(110.34265 51.59071)"/><ellipse fill="#f2f2e1" fill-opacity=".5" rx="1" ry="1" transform="matrix(108.43408 193.22727 -34.14595 19.16181 649.4 62.9)"/><path fill-opacity=".5" d="M85 324l-73.2-23.8 47.5-146.4 73.2 23.8z"/><ellipse fill="#ffebda" fill-opacity=".5" rx="1" ry="1" transform="matrix(-11.24094 48.70205 -92.13959 -21.26677 560.2 447.7)"/><ellipse fill="#3f150e" fill-opacity=".5" rx="1" ry="1" transform="matrix(-250.36565 71.7912 -20.32562 -70.88387 684.8 543.4)"/></g></svg>