<svg xmlns="http://www.w3.org/2000/svg" viewBox="0 0 600 900"><filter id="b"><feGaussianBlur stdDeviation="12" /></filter><path fill="#aa8962" d="M0 0h597v900H0z"/><g filter="url(#b)" transform="translate(1.8 1.8) scale(3.51563)" fill-opacity=".5"><path fill="#94ffff" d="M25 160h39v57H25z"/><path d="M62 224l31 8-23-116z"/><ellipse fill="#ffffb6" cx="128" cy="74" rx="39" ry="27"/><path fill="#1d0000" d="M166 225l-51-29 47-23z"/><path fill="#ffffeb" d="M139.7 118.9l17.4 26.6-2.8 17-67.4-33z"/><path fill="#261017" d="M66.7 125.9l10.2 10-57.3 17.4 4.4-43.7z"/><path fill="#fee8db" d="M-13 89.5l-3 18.2 90.3-32.5-3-31.1z"/><path fill="#ffb600" d="M155.9 86.1l-36.4 14L110 76l36.4-14z"/></g></svg>