<svg xmlns="http://www.w3.org/2000/svg" viewBox="0 0 821 547"><filter id="b"><feGaussianBlur stdDeviation="12" /></filter><path fill="#ae9785" d="M0 0h821v545H0z"/><g filter="url(#b)" transform="translate(1.6 1.6) scale(3.20703)" fill-opacity=".5"><path d="M-19.9 134.3l141 2.4-1.2 67-141-2.4z"/><ellipse fill="#f8fbf8" rx="1" ry="1" transform="matrix(75.70436 15.40223 -12.00707 59.01664 134.8 77.6)"/><ellipse fill="#8e491b" cx="244" cy="33" rx="48" ry="144"/><ellipse fill="#170000" rx="1" ry="1" transform="matrix(15.0063 1.71101 -4.0099 35.1685 43.5 75.3)"/><ellipse fill="#fff" rx="1" ry="1" transform="matrix(20.71446 .20173 -.41027 42.1286 9.8 62)"/><ellipse cx="27" cy="160" rx="42" ry="25"/><ellipse fill="#fff" rx="1" ry="1" transform="matrix(18.97494 102.37959 -8.85159 1.64054 194.8 117.1)"/><ellipse fill="#fff" rx="1" ry="1" transform="rotate(89.1 -27 99) scale(11.47349 117.71315)"/></g></svg>