<svg xmlns="http://www.w3.org/2000/svg" viewBox="0 0 900 600"><filter id="b"><feGaussianBlur stdDeviation="12" /></filter><path fill="#ccd4c7" d="M0 0h900v597H0z"/><g filter="url(#b)" transform="translate(1.8 1.8) scale(3.51563)" fill-opacity=".5"><ellipse fill="#783800" rx="1" ry="1" transform="matrix(1.429 -38.49368 82.61087 3.06677 135.3 98.4)"/><ellipse rx="1" ry="1" transform="matrix(10.06264 18.30387 -18.5923 10.2212 149.8 76.9)"/><ellipse fill="#fff" rx="1" ry="1" transform="matrix(-12.06439 49.8682 -93.51387 -22.62339 71.6 14.7)"/><ellipse fill="#f4ffff" cx="25" cy="97" rx="33" ry="255"/><ellipse fill="#d85f00" cx="88" cy="97" rx="33" ry="37"/><path fill="#e4ffff" d="M159.4 174L12 185l129.6-82.6L76.9-16z"/><ellipse fill="#e6ffff" rx="1" ry="1" transform="matrix(-35.03997 37.99313 -95.60516 -88.17388 190.3 11.4)"/><ellipse fill="#9b0000" cx="208" cy="38" rx="8" ry="12"/></g></svg>