<svg xmlns="http://www.w3.org/2000/svg" viewBox="0 0 900 600"><filter id="b"><feGaussianBlur stdDeviation="12" /></filter><path fill="#897b58" d="M0 0h900v597H0z"/><g filter="url(#b)" transform="translate(1.8 1.8) scale(3.51563)" fill-opacity=".5"><ellipse fill="#000422" rx="1" ry="1" transform="matrix(15.50356 -97.88563 27.7547 4.39591 40.5 65.2)"/><ellipse fill="#dca495" rx="1" ry="1" transform="matrix(103.04267 42.46291 -21.35014 51.80933 178 45.2)"/><ellipse fill="#d5e333" rx="1" ry="1" transform="matrix(101.50593 8.6567 -1.15333 13.52359 199 155.6)"/><ellipse fill="#000b28" rx="1" ry="1" transform="matrix(-66.55294 .25686 -.03637 -9.42425 133.7 102.3)"/><path fill="#e1ba96" d="M88 49h105v39H88z"/><ellipse fill="#264b14" rx="1" ry="1" transform="matrix(-41.86652 -11.06161 2.99518 -11.33631 63.7 149.9)"/><ellipse fill="#2c3f1b" cx="181" cy="130" rx="25" ry="16"/><ellipse fill="#cec36b" cx="240" cy="111" rx="56" ry="25"/></g></svg>