<svg xmlns="http://www.w3.org/2000/svg" viewBox="0 0 900 600"><filter id="b"><feGaussianBlur stdDeviation="12" /></filter><path fill="#ceb59a" d="M0 0h900v597H0z"/><g filter="url(#b)" transform="translate(1.8 1.8) scale(3.51563)" fill-opacity=".5"><ellipse fill="#0e0009" rx="1" ry="1" transform="matrix(-107.49666 25.60932 -6.79046 -28.50338 211.8 138.1)"/><ellipse fill="#ffffef" rx="1" ry="1" transform="matrix(195.52037 43.04395 -14.32248 65.05761 137.8 25.7)"/><ellipse fill="#854a2d" rx="1" ry="1" transform="matrix(14.12031 -23.55033 47.78737 28.65236 28.5 98.8)"/><ellipse fill="#fff" rx="1" ry="1" transform="matrix(10.34895 -.81913 4.12739 52.14598 186.9 164.5)"/><path fill="#310a18" d="M256.5 104l1 51-66 1-1-51z"/><ellipse fill="#8e3d21" cx="109" cy="112" rx="28" ry="19"/><ellipse fill="#722901" cx="45" cy="48" rx="7" ry="33"/><ellipse fill="#ffef8c" rx="1" ry="1" transform="matrix(68.8558 -9.98553 3.42699 23.631 48 156.8)"/></g></svg>