<svg xmlns="http://www.w3.org/2000/svg" viewBox="0 0 900 600"><filter id="b"><feGaussianBlur stdDeviation="12" /></filter><path fill="#dac9b9" d="M0 0h900v597H0z"/><g filter="url(#b)" transform="translate(1.8 1.8) scale(3.51563)" fill-opacity=".5"><ellipse fill="#865d47" rx="1" ry="1" transform="matrix(25.4337 65.572 -68.53691 26.58372 110.2 169.1)"/><ellipse fill="#fffdee" cx="7" cy="38" rx="91" ry="74"/><ellipse fill="#332126" rx="1" ry="1" transform="matrix(46.8249 -11.47097 4.16353 16.99566 100.2 169)"/><path fill="#fcf7ec" d="M146 10l110-26 5 166z"/><path fill="#f0e8d6" d="M141 125h71v36h-71z"/><ellipse fill="#fff" rx="1" ry="1" transform="matrix(-.84304 -12.93922 54.40002 -3.54435 253.5 163.6)"/><ellipse fill="#cfac93" rx="1" ry="1" transform="matrix(12.54688 28.92912 -19.06938 8.2706 55.9 131.1)"/><path fill="#573d2f" d="M112.6 171.5l48 13.5 46.4-27.5-13 5z"/></g></svg>