<svg xmlns="http://www.w3.org/2000/svg" viewBox="0 0 900 600"><filter id="b"><feGaussianBlur stdDeviation="12" /></filter><path fill="#b98763" d="M0 0h900v597H0z"/><g filter="url(#b)" transform="translate(1.8 1.8) scale(3.51563)" fill-opacity=".5"><ellipse fill="#553633" rx="1" ry="1" transform="matrix(59.06094 10.79283 -7.91148 43.29351 19.5 150.2)"/><ellipse fill="#fdffee" rx="1" ry="1" transform="matrix(6.38476 29.40084 -26.28602 5.70834 138.6 9.8)"/><ellipse fill="#ffdda1" rx="1" ry="1" transform="matrix(94.366 23.87827 -5.29405 20.92188 220.5 92.6)"/><path fill="#060015" d="M126 40h48v15h-48z"/><ellipse fill="#ffb06a" cx="100" cy="77" rx="42" ry="42"/><ellipse fill="#b85128" rx="1" ry="1" transform="rotate(-125.8 113.4 21) scale(26.57982 41.63897)"/><ellipse fill="#190a16" rx="1" ry="1" transform="matrix(-2.18636 5.51227 -36.54925 -14.49668 250.2 133.3)"/><path fill="#7b170f" d="M136 81L84 70l2 23z"/></g></svg>