<svg xmlns="http://www.w3.org/2000/svg" viewBox="0 0 900 600"><filter id="c"><feGaussianBlur stdDeviation="55" /></filter><path fill="#bda088" d="M0 0h900v597H0z"/><g filter='url(#c)' fill-opacity='.5'><ellipse fill="#461a10" fill-opacity=".5" rx="1" ry="1" transform="matrix(-216.4759 55.98448 -48.28438 -186.70183 336.1 391)"/><ellipse fill="#fff" fill-opacity=".5" rx="1" ry="1" transform="rotate(78.4 25.1 179.8) scale(117.23405 441.56477)"/><ellipse fill="#ffffe5" fill-opacity=".5" rx="1" ry="1" transform="matrix(64.00925 344.50843 -76.69482 14.2498 585.4 232.6)"/><path fill="#510800" fill-opacity=".5" d="M448.8 580.1l445.6-62.6 10.3 73-445.6 62.7z"/><ellipse fill="#3c1817" fill-opacity=".5" rx="1" ry="1" transform="matrix(-45.44019 -41.931 76.8412 -83.27202 711.2 36.8)"/><path fill="#ffffe0" fill-opacity=".5" d="M96.7 652.1l-151.2-91.4L72.1 37z"/><path fill="#352025" fill-opacity=".5" d="M349.8 167h140.6v397.3H349.8z"/><ellipse fill="#ffffe5" fill-opacity=".5" rx="1" ry="1" transform="matrix(-6.0862 -32.45443 282.64211 -53.00413 777.3 498.7)"/></g></svg>