<svg xmlns="http://www.w3.org/2000/svg" viewBox="0 0 900 600"><filter id="c"><feGaussianBlur stdDeviation="55" /></filter><path fill="#ac9066" d="M0 0h900v597H0z"/><g filter='url(#c)' fill-opacity='.5'><ellipse fill="#ffffdc" fill-opacity=".5" rx="1" ry="1" transform="matrix(-51.1469 -118.63319 147.40147 -63.54992 196.2 323.4)"/><ellipse fill-opacity=".5" rx="1" ry="1" transform="matrix(-55.3631 40.99994 -230.95663 -311.86565 96 555)"/><ellipse fill-opacity=".5" rx="1" ry="1" transform="matrix(-385.96527 129.261 -10.32633 -30.83377 304.5 121.5)"/><ellipse fill-opacity=".5" rx="1" ry="1" transform="matrix(-20.37573 -37.68412 196.62281 -106.31356 615.8 468.7)"/><ellipse fill="#f5ffff" fill-opacity=".5" rx="1" ry="1" transform="matrix(166.31097 104.32668 -33.00542 52.61514 270.1 528.6)"/><ellipse fill="#fff4b3" fill-opacity=".5" rx="1" ry="1" transform="rotate(-13.9 975.8 -1833.9) scale(318.50461 62.28524)"/><path fill="#713600" fill-opacity=".5" d="M240.8 430.7l418.4-284.8-295.3 348z"/><ellipse fill="#fff8a4" fill-opacity=".5" rx="1" ry="1" transform="matrix(-116.18524 39.10065 -19.63028 -58.33019 511.2 416.5)"/></g></svg>