<svg xmlns="http://www.w3.org/2000/svg" viewBox="0 0 900 600"><filter id="c"><feGaussianBlur stdDeviation="55" /></filter><path fill="#966a41" d="M0 0h900v597H0z"/><g filter='url(#c)' fill-opacity='.5'><ellipse fill="#ffffe4" fill-opacity=".5" rx="1" ry="1" transform="matrix(146.55997 204.03357 -162.55565 116.76584 479.5 293.4)"/><ellipse fill="#310000" fill-opacity=".5" rx="1" ry="1" transform="matrix(157.16368 40.1223 -221.75134 868.62568 863 275.4)"/><ellipse fill="#4e1100" fill-opacity=".5" rx="1" ry="1" transform="matrix(27.64955 439.47699 -150.88478 9.49287 87.7 381.4)"/><ellipse fill="#230000" fill-opacity=".5" rx="1" ry="1" transform="matrix(-139.34188 -37.06501 27.78205 -104.4436 362.4 594.7)"/><path fill="#ffffe1" fill-opacity=".5" d="M309.8 349.2l2.6 147.6-70.3 1.3-2.6-147.7z"/><path fill="#ffffc8" fill-opacity=".5" d="M620.5 89.6h73.8V378h-73.8z"/><path fill="#fff4c0" fill-opacity=".5" d="M437.7 469.3h246v70.3h-246z"/><path fill="#2e0000" fill-opacity=".5" d="M372.7 299.7l-4 45.5-98-8.6 4-45.5z"/></g></svg>