<svg xmlns="http://www.w3.org/2000/svg" viewBox="0 0 900 600"><filter id="b"><feGaussianBlur stdDeviation="12" /></filter><path fill="#7b6157" d="M0 0h900v597H0z"/><g filter="url(#b)" transform="translate(1.8 1.8) scale(3.51563)" fill-opacity=".5"><ellipse fill="#fffff1" rx="1" ry="1" transform="matrix(95.11555 6.89338 -1.7211 23.74785 120.4 158.7)"/><path fill="#fff" d="M59.3 17.6l27 13.2-49.6 101.6-27-13.2z"/><ellipse fill="#000719" rx="1" ry="1" transform="matrix(-101.06817 75.3339 -31.01707 -41.61259 173.4 14.5)"/><path fill="#00000a" d="M40.2 187.6L14 197.2-32.2 70.4-6 60.8z"/><path fill="#ffffe3" d="M55 16l-42 99 32 63z"/><path fill="#ffdbb0" d="M136 185l135-39-251-6z"/><ellipse fill="#00000b" cx="36" cy="25" rx="9" ry="31"/><ellipse fill="#b3684f" rx="1" ry="1" transform="matrix(-16.24083 2.97208 -11.35597 -62.05425 151.5 83.1)"/></g></svg>