<svg xmlns="http://www.w3.org/2000/svg" viewBox="0 0 900 600"><filter id="b"><feGaussianBlur stdDeviation="12" /></filter><path fill="#9c6c54" d="M0 0h900v597H0z"/><g filter="url(#b)" transform="translate(1.8 1.8) scale(3.51563)" fill-opacity=".5"><ellipse fill="#ffe4ac" cx="53" cy="112" rx="26" ry="252"/><ellipse fill="#2b0313" rx="1" ry="1" transform="matrix(-45.66792 34.78963 -65.2573 -85.66244 158.5 116.5)"/><ellipse fill="#ffd" rx="1" ry="1" transform="rotate(-115.1 160.1 -29.8) scale(68.05883 29.52497)"/><ellipse fill="#fff" rx="1" ry="1" transform="rotate(-13.2 737.6 2.6) scale(61.37129 26.90217)"/><ellipse fill="#ffffcd" rx="1" ry="1" transform="rotate(-167.3 54.7 -4.3) scale(54.49187 16.35237)"/><ellipse fill="#a15530" rx="1" ry="1" transform="matrix(-7.45149 -118.43803 29.2276 -1.83884 23.7 25.2)"/><path fill="#ffffb8" d="M215.6 58.3l32.1-7.4 18.7 80.8-32.1 7.4z"/><path fill="#4c272b" d="M77 177l3-88 118 56z"/></g></svg>