<svg xmlns="http://www.w3.org/2000/svg" viewBox="0 0 900 600"><filter id="b"><feGaussianBlur stdDeviation="12" /></filter><path fill="#9d8871" d="M0 0h900v597H0z"/><g filter="url(#b)" transform="translate(1.8 1.8) scale(3.51563)" fill-opacity=".5"><ellipse fill="#250000" rx="1" ry="1" transform="matrix(19.11654 1.05194 -8.44619 153.48975 244.8 77.4)"/><path fill="#d9d0bc" d="M31 165L24 6l228 26z"/><ellipse fill="#3e0100" rx="1" ry="1" transform="matrix(16.75594 -.58513 7.44653 213.24075 10.8 111.3)"/><ellipse rx="1" ry="1" transform="matrix(.32305 8.63427 -160.18586 5.99325 123.4 168.5)"/><ellipse fill="#ffedb5" rx="1" ry="1" transform="matrix(21.0833 -15.54395 11.4757 15.56526 127.5 123.6)"/><ellipse fill="#f3d6a9" cx="197" cy="120" rx="29" ry="22"/><path fill="#ddcbb4" d="M243.4-7.2l2.2 79.8-9.7-49L89.6 67z"/><ellipse cx="230" cy="55" rx="4" ry="161"/></g></svg>