<svg xmlns="http://www.w3.org/2000/svg" viewBox="0 0 900 600"><filter id="b"><feGaussianBlur stdDeviation="12" /></filter><path fill="#d1d8cc" d="M0 0h900v597H0z"/><g filter="url(#b)" transform="translate(1.8 1.8) scale(3.51563)" fill-opacity=".5"><path fill="#924000" d="M190 128.4l-81 12.8L92 33.6l81-12.8z"/><path fill="#fff" d="M0 50h123v37H0z"/><ellipse fill="#f3ffff" cx="25" cy="120" rx="69" ry="125"/><ellipse fill="#ce6300" rx="1" ry="1" transform="matrix(42.67876 15.275 -8.96609 25.0515 136 110.4)"/><ellipse fill="#cff" rx="1" ry="1" transform="matrix(141.9501 44.39196 -5.58 17.84292 159.3 26.5)"/><ellipse rx="1" ry="1" transform="matrix(21.62416 1.89318 -.73905 8.44157 116 42.5)"/><ellipse fill="#d2faff" cx="233" cy="117" rx="42" ry="255"/><path fill="#602a16" d="M191.3 55.5l-3 23.8-55.6-6.8 3-23.8z"/></g></svg>