<svg xmlns="http://www.w3.org/2000/svg" viewBox="0 0 820 600"><filter id="b"><feGaussianBlur stdDeviation="12" /></filter><path fill="#e8ddcf" d="M0 0h820v598H0z"/><g filter="url(#b)" transform="translate(1.6 1.6) scale(3.20313)" fill-opacity=".5"><ellipse fill="#ab7a3b" rx="1" ry="1" transform="matrix(1.37185 23.68732 -70.74956 4.09746 43.3 122.9)"/><ellipse fill="#b58247" rx="1" ry="1" transform="rotate(-156.7 82.8 -5.2) scale(25.98707 43.96093)"/><ellipse fill="#ce8b44" rx="1" ry="1" transform="matrix(27.42728 -25.39794 15.35016 16.57666 186.3 144.6)"/><ellipse fill="#faffff" cx="69" cy="39" rx="63" ry="63"/><ellipse fill="#fff" rx="1" ry="1" transform="matrix(80.57541 -22.4214 9.98986 35.9004 235 68.8)"/><ellipse fill="#fff" cx="74" cy="179" rx="91" ry="37"/><ellipse fill="#fff" rx="1" ry="1" transform="matrix(-21.89565 18.43785 -25.02372 -29.71662 245.6 161)"/><path fill="#c29760" d="M23 99h84v43H23z"/></g></svg>