<svg xmlns="http://www.w3.org/2000/svg" viewBox="0 0 600 900"><filter id="b"><feGaussianBlur stdDeviation="12" /></filter><path fill="#593f32" d="M0 0h597v900H0z"/><g filter="url(#b)" transform="translate(1.8 1.8) scale(3.51563)" fill-opacity=".5"><ellipse fill="#f2f1e3" rx="1" ry="1" transform="rotate(-46.1 179.4 -141) scale(32.66066 20.98131)"/><ellipse fill="#a18365" rx="1" ry="1" transform="matrix(-76.39722 43.02542 -33.39906 -59.30437 123.7 161.8)"/><ellipse rx="1" ry="1" transform="matrix(-.66247 -47.44266 121.52456 -1.69691 84.5 21.8)"/><ellipse cx="64" cy="174" rx="50" ry="16"/><ellipse fill="#fff" rx="1" ry="1" transform="matrix(-6.72447 -7.71182 15.72261 -13.70964 66.8 205.5)"/><ellipse rx="1" ry="1" transform="matrix(-2.64698 13.83663 -80.29067 -15.3598 119.4 249.5)"/><ellipse fill="#fffe91" cx="54" cy="81" rx="26" ry="10"/><path fill="#ffffca" d="M185 182l-81 9 18-24z"/></g></svg>