<svg xmlns="http://www.w3.org/2000/svg" viewBox="0 0 600 868"><filter id="b"><feGaussianBlur stdDeviation="12" /></filter><path fill="#d3aead" d="M0 0h600v868H0z"/><g filter="url(#b)" transform="translate(1.7 1.7) scale(3.39063)" fill-opacity=".5"><ellipse fill="#912937" cx="143" cy="228" rx="176" ry="37"/><ellipse fill="#fffffa" cx="83" cy="113" rx="83" ry="83"/><ellipse fill="#ba4603" rx="1" ry="1" transform="matrix(-106.99797 78.59782 -11.44573 -15.58148 176 164.9)"/><ellipse fill="#a85285" rx="1" ry="1" transform="matrix(-74.53084 -62.09914 23.28636 -27.94809 144.6 29)"/><ellipse fill="#824565" rx="1" ry="1" transform="rotate(55.8 -153 87.8) scale(83.63672 16.29372)"/><ellipse fill="#fff" rx="1" ry="1" transform="matrix(91.39055 -60.88751 14.22305 21.34842 133.8 136.8)"/><ellipse fill="#c7a773" rx="1" ry="1" transform="rotate(-99.6 93.5 16.7) scale(22.94389 43.10438)"/><ellipse fill="#c49351" rx="1" ry="1" transform="rotate(-172.3 21.7 37) scale(27.36543 13.24569)"/></g></svg>