<svg xmlns="http://www.w3.org/2000/svg" viewBox="0 0 820 547"><filter id="b"><feGaussianBlur stdDeviation="12" /></filter><path fill="#ddd8d5" d="M0 0h820v544H0z"/><g filter="url(#b)" transform="translate(1.6 1.6) scale(3.20313)" fill-opacity=".5"><ellipse fill="#370000" rx="1" ry="1" transform="rotate(140.3 55.4 71.6) scale(54.71021 12.24823)"/><ellipse fill="#54412b" rx="1" ry="1" transform="matrix(-95.3022 -136.6125 19.17275 -13.3751 21.6 158)"/><ellipse fill="#948a7c" rx="1" ry="1" transform="matrix(-52.84968 -12.49632 10.10876 -42.75217 0 34.6)"/><ellipse fill="#fff" rx="1" ry="1" transform="matrix(132.56334 -83.59253 30.1805 47.86106 221 117)"/><ellipse fill="#661a00" rx="1" ry="1" transform="matrix(32.76598 -17.4099 5.16013 9.71151 152.2 81.5)"/><ellipse fill="#fff" cx="223" cy="43" rx="41" ry="255"/><ellipse fill="#fff" rx="1" ry="1" transform="rotate(-40.7 89 -165) scale(151.8579 19.55362)"/><path fill="#fff" d="M145.8 81.7l92 103.3-179-22.4 84.6-54z"/></g></svg>