<svg xmlns="http://www.w3.org/2000/svg" viewBox="0 0 900 600"><filter id="b"><feGaussianBlur stdDeviation="12" /></filter><path fill="#b1a49f" d="M0 0h900v597H0z"/><g filter="url(#b)" transform="translate(1.8 1.8) scale(3.51563)" fill-opacity=".5"><ellipse fill="#250000" rx="1" ry="1" transform="matrix(-71.29477 7.24186 -4.4957 -44.25939 95 114.2)"/><ellipse fill="#fff" rx="1" ry="1" transform="matrix(-1.46162 32.68568 -254.74543 -11.3916 65.3 0)"/><path fill="#320008" d="M171 72h55v44h-55z"/><ellipse fill="#fff" rx="1" ry="1" transform="rotate(175.9 122.5 47.7) scale(20.59343 171.65795)"/><ellipse fill="#fff" cx="6" cy="63" rx="11" ry="78"/><ellipse fill="#fff" rx="1" ry="1" transform="matrix(-.98 -15.11592 194.18856 -12.58966 124 169)"/><path fill="#43342e" d="M49 26L39 163l-8.2-6.2-11-66.6z"/><path fill="#380917" d="M224 48.7l-19.7 87.6 25.4 9.1-2.4-.6z"/></g></svg>