<svg xmlns="http://www.w3.org/2000/svg" viewBox="0 0 900 600"><filter id="b"><feGaussianBlur stdDeviation="12" /></filter><path fill="#c0af9f" d="M0 0h900v597H0z"/><g filter="url(#b)" transform="translate(1.8 1.8) scale(3.51563)" fill-opacity=".5"><ellipse fill="#00215a" rx="1" ry="1" transform="matrix(-5.63163 14.00912 -60.00735 -24.1228 50 13)"/><ellipse fill="#0f5e97" rx="1" ry="1" transform="matrix(65.98071 -28.00715 8.57715 20.20649 202 7.3)"/><ellipse fill="#6b4827" cx="228" cy="157" rx="70" ry="29"/><ellipse fill="#fff6d8" rx="1" ry="1" transform="matrix(5.36917 -41.10653 93.00886 12.14845 161.2 81.3)"/><path fill="#00000b" d="M-28.1 169l1.6-15 66.6 7-1.6 15z"/><ellipse fill="#5d4e49" rx="1" ry="1" transform="rotate(-111.5 72 29.9) scale(13.7437 32.04144)"/><ellipse fill="#ffe2c8" rx="1" ry="1" transform="matrix(-17.57386 -23.98805 49.6633 -36.38379 46.7 76)"/><ellipse fill="#2870b2" rx="1" ry="1" transform="matrix(-.10433 10.9259 -67.7653 -.6471 124.5 30.7)"/></g></svg>