<svg xmlns="http://www.w3.org/2000/svg" viewBox="0 0 900 600"><filter id="b"><feGaussianBlur stdDeviation="12" /></filter><path fill="#c6ad93" d="M0 0h900v597H0z"/><g filter="url(#b)" transform="translate(1.8 1.8) scale(3.51563)" fill-opacity=".5"><ellipse fill="#000701" rx="1" ry="1" transform="matrix(28.29625 -10.9754 26.05372 67.17049 8 129.3)"/><ellipse fill="#fff" cx="167" cy="154" rx="60" ry="51"/><path fill="#7a0000" d="M223.4 135l36.9-9.2 6.3 25.2-36.9 9.2z"/><path fill="#613215" d="M219.2 97.8l-3.7-25 55.5-6.6V104z"/><path fill="#70400c" d="M54 77h31v39H54z"/><ellipse fill="#fffff5" rx="1" ry="1" transform="rotate(-112 119 -77.8) scale(31.15287 44.97093)"/><ellipse fill="#5b1300" rx="1" ry="1" transform="matrix(25.4049 -16.42141 4.48495 6.93849 80.2 6)"/><path fill="#0d0000" d="M139.4 102.7l2.2-24.9 17 1.5-2.2 24.9z"/></g></svg>