<svg xmlns="http://www.w3.org/2000/svg" viewBox="0 0 900 600"><filter id="b"><feGaussianBlur stdDeviation="12" /></filter><path fill="#e2c7b1" d="M0 0h900v597H0z"/><g filter="url(#b)" transform="translate(1.8 1.8) scale(3.51563)" fill-opacity=".5"><ellipse fill="#813a09" rx="1" ry="1" transform="matrix(-61.72833 .7489 -.41075 -33.85573 241.6 25)"/><ellipse fill="#fff" rx="1" ry="1" transform="matrix(.7095 -203.25323 22.94781 .0801 160.3 116.3)"/><ellipse fill="#ca7d34" rx="1" ry="1" transform="matrix(-33.0407 -36.80973 17.68744 -15.87638 96.3 19.8)"/><ellipse fill="#fff" rx="1" ry="1" transform="matrix(5.97829 -61.05077 21.75698 2.13051 92.3 113.5)"/><ellipse fill="#a67e61" rx="1" ry="1" transform="matrix(-9.6529 -2.32672 20.79354 -86.26654 207.8 89.1)"/><ellipse fill="#9c7b67" cx="52" cy="83" rx="10" ry="65"/><ellipse fill="#fff8ef" cx="236" cy="106" rx="25" ry="47"/><ellipse fill="#fff8ee" rx="1" ry="1" transform="rotate(96.5 -35 55.4) scale(40.82236 28.97275)"/></g></svg>