<svg xmlns="http://www.w3.org/2000/svg" viewBox="0 0 900 600"><filter id="b"><feGaussianBlur stdDeviation="12" /></filter><path fill="#b09889" d="M0 0h900v597H0z"/><g filter="url(#b)" transform="translate(1.8 1.8) scale(3.51563)" fill-opacity=".5"><path fill="#00000c" d="M-22.1 142.5l-14.5-44.7L124 45.5l14.5 44.7z"/><ellipse fill="#fffff8" rx="1" ry="1" transform="matrix(99.29628 14.09428 -3.15225 22.20807 163.4 24.4)"/><ellipse fill="#00000b" rx="1" ry="1" transform="matrix(28.25392 19.30226 -10.71198 15.6798 46.3 51.5)"/><path fill="#fff" d="M43 132.9l95 3.3-1 31-95-3.4z"/><ellipse fill="#fff0d7" rx="1" ry="1" transform="rotate(75.1 8 182.7) scale(29.08551 43.66292)"/><path fill="#fffffe" d="M58-9l-71 79 32-86z"/><ellipse fill="#20342e" cx="14" cy="122" rx="33" ry="33"/><path d="M238 130l17 24 16-47z"/></g></svg>