<svg xmlns="http://www.w3.org/2000/svg" viewBox="0 0 900 600"><filter id="b"><feGaussianBlur stdDeviation="12" /></filter><path fill="#c7b19c" d="M0 0h900v597H0z"/><g filter="url(#b)" transform="translate(1.8 1.8) scale(3.51563)" fill-opacity=".5"><ellipse rx="1" ry="1" transform="matrix(-26.44633 30.80903 -23.37796 -20.06753 239.9 109.6)"/><ellipse fill="#fff" rx="1" ry="1" transform="matrix(13.43769 92.112 -40.7747 5.94838 128.2 71.1)"/><path fill="#030000" d="M26.5 103.8l5.5 39.6-48.5 6.8-5.5-39.6z"/><path fill="#552c16" d="M89 145l-39 1L89 37z"/><path fill="#1d1e07" d="M68 24l-5 27-79-12z"/><ellipse fill="#dd6b0d" cx="140" cy="169" rx="255" ry="12"/><ellipse fill="#fff" cx="124" cy="95" rx="34" ry="71"/><path fill="#fffffd" d="M101.8 32.8L-9.4-3.3.2-32.8 111.4 3.3z"/></g></svg>