<svg xmlns="http://www.w3.org/2000/svg" viewBox="0 0 600 900"><filter id="b"><feGaussianBlur stdDeviation="12" /></filter><path fill="#dbd5ce" d="M0 0h597v900H0z"/><g filter="url(#b)" transform="translate(1.8 1.8) scale(3.51563)" fill-opacity=".5"><path fill="#5b360a" d="M51 127l36-72 60 6z"/><path d="M58 113.3l6.5-12.4 33.6 17.8-6.6 12.4z"/><ellipse fill="#1f1a08" rx="1" ry="1" transform="matrix(-4.06636 7.62831 -53.81915 -28.6889 160 82.7)"/><ellipse fill="#fff" cx="32" cy="51" rx="45" ry="69"/><ellipse fill="#bb9050" rx="1" ry="1" transform="matrix(15.49146 -26.832 24.11462 13.92258 105.7 182.6)"/><ellipse fill="#fff" rx="1" ry="1" transform="matrix(-27.67201 33.98122 -98.8921 -80.53104 23 216.1)"/><ellipse fill="#674f3c" rx="1" ry="1" transform="rotate(37.7 -186.1 113.3) scale(13.68077 19.38275)"/><ellipse fill="#fff6e1" rx="1" ry="1" transform="matrix(-5.78966 -19.50602 28.58275 -8.48375 108 92.7)"/></g></svg>