<svg xmlns="http://www.w3.org/2000/svg" viewBox="0 0 640 640"><filter id="b"><feGaussianBlur stdDeviation="12" /></filter><path fill="#7c6357" d="M0 0h640v640H0z"/><g filter="url(#b)" transform="matrix(2.5 0 0 2.5 1.3 1.3)" fill-opacity=".5"><ellipse fill="#ffffea" rx="1" ry="1" transform="matrix(-93.16107 9.98148 -5.28356 -49.31355 137.9 155.7)"/><ellipse fill="#330815" rx="1" ry="1" transform="matrix(-253.25852 29.75104 -6.7732 -57.65744 123 31.6)"/><ellipse fill="#210910" cx="195" cy="238" rx="55" ry="49"/><ellipse fill="#c17967" cx="104" cy="74" rx="32" ry="48"/><ellipse fill="#ceac5c" rx="1" ry="1" transform="matrix(-17.25534 53.42357 -34.27175 -11.06947 34.6 234.4)"/><ellipse fill="#1e1a1d" rx="1" ry="1" transform="matrix(6.6816 -103.16193 28.94394 1.87464 17.3 61.4)"/><path fill="#dbf0ea" d="M175 152l27-79 26 46z"/><ellipse fill="#332524" cx="249" cy="74" rx="28" ry="111"/></g></svg>