<svg xmlns="http://www.w3.org/2000/svg" viewBox="0 0 900 1350"><filter id="b"><feGaussianBlur stdDeviation="12" /></filter><path fill="#42341f" d="M0 0h896v1350H0z"/><g filter="url(#b)" transform="translate(2.6 2.6) scale(5.27344)" fill-opacity=".5"><ellipse fill="#c3a25d" rx="1" ry="1" transform="matrix(39.82067 -61.99859 28.85749 18.53469 115.4 144.5)"/><ellipse rx="1" ry="1" transform="matrix(-18.76151 41.23887 -56.2144 -25.57459 97 0)"/><ellipse fill="#020000" cx="121" cy="239" rx="169" ry="24"/><path d="M5 271l-21-65L75 74z"/><path fill="#f8fdff" d="M11 65.5l13.4 22.3 7.9 42.9L-16 12.9z"/><ellipse fill="#fff" rx="1" ry="1" transform="matrix(-12.52852 -31.8055 7.25618 -2.85828 169 15.5)"/><ellipse rx="1" ry="1" transform="matrix(13.06645 -2.82472 16.76844 77.5666 22.2 33.6)"/><ellipse fill="#f2f7ff" cx="2" cy="43" rx="4" ry="25"/></g></svg>