<svg xmlns="http://www.w3.org/2000/svg" viewBox="0 0 600 836"><filter id="b"><feGaussianBlur stdDeviation="12" /></filter><path fill="#d2b790" d="M0 0h600v836H0z"/><g filter="url(#b)" transform="translate(1.6 1.6) scale(3.26563)" fill-opacity=".5"><ellipse fill="#3b0400" rx="1" ry="1" transform="rotate(-16.2 806.4 -266) scale(46.58301 21.38066)"/><ellipse fill="#fff6c8" rx="1" ry="1" transform="matrix(-7.2917 -130.42148 64.67719 -3.61602 10.8 177)"/><ellipse fill="#350000" cx="27" cy="37" rx="19" ry="12"/><path fill="#430100" d="M152 73l47-1-63-31z"/><path fill="#957955" d="M178 94L69 75l130 155z"/><ellipse fill="#fff3db" rx="1" ry="1" transform="matrix(14.37852 21.99501 -90.6217 59.24096 140.1 20.4)"/><ellipse fill="#7f4513" rx="1" ry="1" transform="matrix(1.2185 15.39853 -64.19342 5.07969 86.6 212.5)"/><ellipse fill="#6f2c00" rx="1" ry="1" transform="matrix(.54907 10.2487 -22.40511 1.20034 71.1 23.9)"/></g></svg>