<svg xmlns="http://www.w3.org/2000/svg" viewBox="0 0 600 907"><filter id="c"><feGaussianBlur stdDeviation="55" /></filter><path fill="#e3d0b5" d="M0 0h598v907H0z"/><g filter='url(#c)' fill-opacity='.5'><ellipse fill="#b3620a" fill-opacity=".5" rx="1" ry="1" transform="rotate(-40.1 443.7 -164) scale(157.7197 66.03455)"/><path fill="#bb7c39" fill-opacity=".5" d="M384.4 497.8l173.6 379 95.7-531.4z"/><ellipse fill="#fcffff" fill-opacity=".5" rx="1" ry="1" transform="matrix(-327.2968 64.21308 -16.35666 -83.3706 232.5 416.8)"/><ellipse fill="#fff" fill-opacity=".5" rx="1" ry="1" transform="matrix(-18.29719 92.84792 -243.77444 -48.0397 430.8 56)"/><ellipse fill="#fb7e00" fill-opacity=".5" rx="1" ry="1" transform="matrix(72.07539 57.2187 -25.22234 31.77126 139.1 100.5)"/><path fill="#737981" fill-opacity=".5" d="M378.4 300.4l-11.7-134.1 271.7-23.8 11.8 134.1z"/><path fill="#300400" fill-opacity=".5" d="M228.5 338.4l-145.2 7 170-78z"/><ellipse fill="#a16931" fill-opacity=".5" rx="1" ry="1" transform="matrix(120.66552 -55.49994 14.25059 30.983 492.9 764.2)"/></g></svg>