<svg xmlns="http://www.w3.org/2000/svg" viewBox="0 0 600 900"><filter id="b"><feGaussianBlur stdDeviation="12" /></filter><path fill="#c4ad9b" d="M0 0h597v900H0z"/><g filter="url(#b)" transform="translate(1.8 1.8) scale(3.51563)" fill-opacity=".5"><ellipse fill="#582202" cx="66" cy="126" rx="59" ry="75"/><ellipse fill="#fff" rx="1" ry="1" transform="matrix(136.82398 99.19778 -27.68606 38.18752 132.1 35.8)"/><ellipse fill="#fff" rx="1" ry="1" transform="matrix(168.4278 13.89513 -2.57022 31.15453 78.6 240)"/><ellipse fill="#ffefcc" rx="1" ry="1" transform="matrix(-70.46724 -46.59566 6.23801 -9.43383 47.2 74.5)"/><ellipse fill="#8f5231" rx="1" ry="1" transform="matrix(-21.43915 10.59589 -15.5088 -31.37969 102.6 66)"/><path fill="#29120e" d="M-4 123l52 92 43-50z"/><ellipse fill="#fff" cx="169" cy="148" rx="11" ry="169"/><ellipse fill="#fff" rx="1" ry="1" transform="rotate(-12.1 920 51.2) scale(17.10629 48.68191)"/></g></svg>