<svg xmlns="http://www.w3.org/2000/svg" viewBox="0 0 640 640"><filter id="c"><feGaussianBlur stdDeviation="55" /></filter><path fill="#8f8874" d="M0 0h640v640H0z"/><g filter='url(#c)' fill-opacity='.5'><path fill-opacity=".5" d="M251.3 658.8l-290-20v-490z"/><ellipse fill="#fff4e8" fill-opacity=".5" rx="1" ry="1" transform="matrix(-201.84955 -44.74897 35.2232 -158.88156 300 328.9)"/><path fill="#f6f0ff" fill-opacity=".5" d="M238.8-21.3l440 20-70 212.6z"/><ellipse fill="#0c1920" fill-opacity=".5" rx="1" ry="1" transform="matrix(-61.36127 -57.02041 267.60013 -287.97203 47.7 69.5)"/><ellipse fill="#2f2e00" fill-opacity=".5" rx="1" ry="1" transform="matrix(-66.47974 -356.06398 50.03564 -9.34202 570.4 518.4)"/><ellipse fill-opacity=".5" rx="1" ry="1" transform="matrix(-35.62418 69.07426 -393.2361 -202.80658 155 617.3)"/><ellipse fill="#bdb66a" fill-opacity=".5" rx="1" ry="1" transform="rotate(-124 211.1 181.2) scale(151.81009 60.12943)"/><path fill="#251700" fill-opacity=".5" d="M483.1 241.2l-150.5-94 31.8-51 150.5 94.1z"/></g></svg>