<svg xmlns="http://www.w3.org/2000/svg" viewBox="0 0 640 640"><filter id="b"><feGaussianBlur stdDeviation="12" /></filter><path fill="#725e6c" d="M0 0h640v640H0z"/><g filter="url(#b)" transform="matrix(2.5 0 0 2.5 1.3 1.3)" fill-opacity=".5"><ellipse fill="#fff" rx="1" ry="1" transform="matrix(6.51199 -16.76028 105.84731 41.12558 83.6 234.3)"/><path fill="#0d000f" d="M178.9 226.2L157.7 25.3l109.4-11.5 21.2 200.9z"/><ellipse fill="#c5e4d8" rx="1" ry="1" transform="rotate(-20.4 489.2 -269) scale(52.19557 44.38876)"/><ellipse fill="#d1edcf" rx="1" ry="1" transform="rotate(-90.8 54.9 -42.7) scale(19.64286 59.93071)"/><ellipse fill="#ffffdb" rx="1" ry="1" transform="matrix(-55.1246 20.9987 -5.61123 -14.73029 61.9 204.5)"/><ellipse fill="#4d0020" cx="139" cy="217" rx="61" ry="24"/><path fill="#fbffff" d="M-16.3 184.7l-6.8-38.4 39.4-7 6.8 38.4z"/><ellipse fill="#f2fcb9" cx="161" cy="250" rx="82" ry="11"/></g></svg>