<svg xmlns="http://www.w3.org/2000/svg" viewBox="0 0 900 1350"><filter id="b"><feGaussianBlur stdDeviation="12" /></filter><path fill="#46422f" d="M0 0h896v1350H0z"/><g filter="url(#b)" transform="translate(2.6 2.6) scale(5.27344)" fill-opacity=".5"><ellipse fill="#e4ffc7" rx="1" ry="1" transform="matrix(-24.83883 -17.75839 25.06912 -35.06442 60.5 116.9)"/><ellipse fill="#fcffff" rx="1" ry="1" transform="matrix(-19.5343 7.77364 -8.9417 -22.46948 0 142)"/><ellipse fill="#ccaf81" cx="142" cy="207" rx="38" ry="26"/><path fill="#e7e4f9" d="M85 69l-19.4 4.2-51.3-20.9 16-21z"/><ellipse fill="#070000" rx="1" ry="1" transform="rotate(138.1 43.1 38.7) scale(34.5449 84.70778)"/><ellipse fill="#060000" cx="26" cy="221" rx="59" ry="59"/><path fill="#eae6f3" d="M127.6 113.9l-6.8 7.3-50.4-47 6.8-7.4z"/><ellipse rx="1" ry="1" transform="rotate(-26.5 186.7 -9.4) scale(37.01996 19.66811)"/></g></svg>