<svg xmlns="http://www.w3.org/2000/svg" viewBox="0 0 640 640"><filter id="c"><feGaussianBlur stdDeviation="55" /></filter><path fill="#aaa08e" d="M0 0h640v640H0z"/><g filter='url(#c)' fill-opacity='.5'><ellipse fill="#f5e5b1" fill-opacity=".5" rx="1" ry="1" transform="matrix(152.48891 122.60423 -105.80014 131.58883 293.5 343.5)"/><ellipse fill="#533c44" fill-opacity=".5" rx="1" ry="1" transform="matrix(-43.22404 85.46862 -363.9379 -184.05431 136.5 610.5)"/><ellipse fill="#671900" fill-opacity=".5" rx="1" ry="1" transform="matrix(7.17476 -32.63266 108.06363 23.75933 366.5 142.4)"/><ellipse fill="#c1d0d0" fill-opacity=".5" rx="1" ry="1" transform="matrix(-38.59628 103.56862 -465.72125 -173.55746 443.6 6.2)"/><ellipse fill="#6e6465" fill-opacity=".5" rx="1" ry="1" transform="matrix(43.64852 -50.03524 91.37207 79.70894 51.6 397.6)"/><ellipse fill="#7d777d" fill-opacity=".5" rx="1" ry="1" transform="matrix(118.48607 21.74626 -39.86187 217.19028 602.4 504)"/><ellipse fill="#736260" fill-opacity=".5" rx="1" ry="1" transform="rotate(87 -182.7 436.3) scale(54.07372 144.75072)"/><path fill="#746961" fill-opacity=".5" d="M88.8 173.8l117.5-92.6L38.7 383.9z"/></g></svg>