<svg xmlns="http://www.w3.org/2000/svg" viewBox="0 0 900 600"><filter id="b"><feGaussianBlur stdDeviation="12" /></filter><path fill="#5d4535" d="M0 0h900v597H0z"/><g filter="url(#b)" transform="translate(1.8 1.8) scale(3.51563)" fill-opacity=".5"><ellipse fill="#ffdaa5" rx="1" ry="1" transform="matrix(-53.93802 13.73987 -11.38872 -44.70823 101.7 86.8)"/><ellipse rx="1" ry="1" transform="matrix(45.2978 -96.11576 52.98965 24.97317 227.2 124)"/><ellipse fill="#0e0b0c" cx="5" cy="29" rx="66" ry="66"/><ellipse fill="#ffd1a5" rx="1" ry="1" transform="matrix(20.66897 -29.82136 18.05028 12.51051 103 57.2)"/><ellipse fill="#f69571" rx="1" ry="1" transform="matrix(12.33755 11.00626 -23.89002 26.77969 204.2 17.5)"/><path fill="#ffc089" d="M26 81h26v35H26z"/><ellipse fill="#c68a5b" rx="1" ry="1" transform="rotate(126.4 37.6 95) scale(26.2099 30.66001)"/><ellipse fill="#291a0f" rx="1" ry="1" transform="matrix(6.68986 -21.25601 142.0352 44.70243 61 145.8)"/></g></svg>