<svg xmlns="http://www.w3.org/2000/svg" viewBox="0 0 900 600"><filter id="b"><feGaussianBlur stdDeviation="12" /></filter><path fill="#cec3a7" d="M0 0h900v597H0z"/><g filter="url(#b)" transform="translate(1.8 1.8) scale(3.51563)" fill-opacity=".5"><ellipse fill="#8f510c" rx="1" ry="1" transform="matrix(-63.76439 -35.74636 14.96681 -26.6978 111.5 127.7)"/><ellipse fill="#082700" rx="1" ry="1" transform="matrix(29.74352 28.3098 -11.96753 12.5736 239.5 84.1)"/><ellipse fill="#f2f6fd" rx="1" ry="1" transform="rotate(134.3 62.5 83.8) scale(29.80503 171.45309)"/><ellipse fill="#feffff" rx="1" ry="1" transform="matrix(18.48862 17.54505 -41.69554 43.93793 14 27.4)"/><ellipse fill="#6a563c" rx="1" ry="1" transform="matrix(-5.83844 2.29982 -10.83372 -27.503 141.5 96.3)"/><path fill="#d5880c" d="M52 77h57v60H52z"/><ellipse fill="#ffef93" cx="61" cy="80" rx="32" ry="32"/><ellipse fill="#fff" rx="1" ry="1" transform="matrix(19.92902 33.23465 -10.9078 6.54082 226.7 21.6)"/></g></svg>