<svg xmlns="http://www.w3.org/2000/svg" viewBox="0 0 900 600"><filter id="b"><feGaussianBlur stdDeviation="12" /></filter><path fill="#f0e1d8" d="M0 0h900v597H0z"/><g filter="url(#b)" transform="translate(1.8 1.8) scale(3.51563)" fill-opacity=".5"><ellipse fill="#d75514" rx="1" ry="1" transform="matrix(12.2672 53.57718 -35.42879 8.11189 137.9 93)"/><path fill="#b41000" d="M101 144l-41-24 119 5z"/><ellipse fill="#fff" rx="1" ry="1" transform="rotate(132.6 91 54.9) scale(52.25815 236.36218)"/><ellipse fill="#fff" cx="47" cy="11" rx="77" ry="77"/><path fill="#a71829" d="M116 50h41v30h-41z"/><path fill="#fff3ac" d="M111 121L73 79l127 24z"/><ellipse fill="#8f8a73" rx="1" ry="1" transform="matrix(21.36889 -20.84846 6.07872 6.23046 19 158.2)"/><ellipse fill="#fff" rx="1" ry="1" transform="matrix(-27.45519 50.37171 -52.40039 -28.56092 214.3 46.1)"/></g></svg>