<svg xmlns="http://www.w3.org/2000/svg" viewBox="0 0 600 900"><filter id="b"><feGaussianBlur stdDeviation="12" /></filter><path fill="#58453f" d="M0 0h597v900H0z"/><g filter="url(#b)" transform="translate(1.8 1.8) scale(3.51563)" fill-opacity=".5"><ellipse fill="#d9bfb7" rx="1" ry="1" transform="matrix(93.34067 2.64437 -.958 33.8152 24.2 158.5)"/><ellipse fill="#2b1b17" rx="1" ry="1" transform="matrix(14.35084 -70.53663 161.46338 32.8501 99.3 23.5)"/><path fill="#3b1f22" d="M105 111.5l-60.4 75L46 194l-31.8 2.8z"/><ellipse fill="#e8acd3" rx="1" ry="1" transform="matrix(-22.99336 -15.86206 14.29366 -20.71984 5.2 170)"/><ellipse fill="#181918" cx="155" cy="191" rx="57" ry="16"/><path fill="#45311e" d="M58 102h25v53H58z"/><ellipse fill="#b5a991" rx="1" ry="1" transform="matrix(-34.70829 4.84573 -.56308 -4.03314 137.2 171.7)"/><ellipse fill="#352823" rx="1" ry="1" transform="matrix(1.2944 23.90045 -112.10066 6.07115 93.1 255)"/></g></svg>