<svg xmlns="http://www.w3.org/2000/svg" viewBox="0 0 600 900"><filter id="b"><feGaussianBlur stdDeviation="12" /></filter><path fill="#d3d4d5" d="M0 0h597v900H0z"/><g filter="url(#b)" transform="translate(1.8 1.8) scale(3.51563)" fill-opacity=".5"><ellipse fill="#5d5c67" rx="1" ry="1" transform="matrix(-3.90024 -4.06475 32.62306 -31.30278 24.3 142.6)"/><ellipse fill="#7c7d89" rx="1" ry="1" transform="matrix(-8.4379 -78.95548 7.12107 -.76102 113.6 186.5)"/><ellipse fill="#5f7fa9" cx="141" cy="113" rx="59" ry="7"/><ellipse fill="#8097b7" rx="1" ry="1" transform="rotate(-45 108 -40.7) scale(63.69224 5.10349)"/><ellipse fill="#f2e8d9" cx="47" cy="212" rx="61" ry="61"/><path fill="#856d58" d="M159.2 175l25.8 16.2-33.1 19.4 6.6-26.1z"/><path fill="#948578" d="M139.5 112.4l11.7 50.7-10.7 2.5-11.7-50.7z"/><ellipse fill="#f7ede0" rx="1" ry="1" transform="rotate(-130.9 25 1.7) scale(33.22342 128.07497)"/></g></svg>