<svg xmlns="http://www.w3.org/2000/svg" viewBox="0 0 900 600"><filter id="c"><feGaussianBlur stdDeviation="55" /></filter><path fill="#7f6e69" d="M0 0h900v597H0z"/><g filter='url(#c)' fill-opacity='.5'><ellipse fill="#ffffec" fill-opacity=".5" rx="1" ry="1" transform="matrix(94.6252 160.64172 -344.30157 202.80912 431.4 452)"/><ellipse fill-opacity=".5" rx="1" ry="1" transform="rotate(94.8 179.5 213.1) scale(127.08304 896.48441)"/><ellipse fill-opacity=".5" rx="1" ry="1" transform="matrix(82.46529 -308.43485 130.07129 34.77677 71.2 213.8)"/><ellipse fill="#fff" fill-opacity=".5" rx="1" ry="1" transform="matrix(-120.5606 25.1979 -14.79828 -70.8031 399.5 1.8)"/><path fill="#fff" fill-opacity=".5" d="M536 173.7L1212.6 762l-57.6 66.3-676.6-588.1z"/><ellipse fill="#00000d" fill-opacity=".5" rx="1" ry="1" transform="matrix(-384.3524 -436.4769 100.4221 -88.4296 837 174.1)"/><ellipse fill="#a25d2b" fill-opacity=".5" rx="1" ry="1" transform="matrix(-40.52416 -155.19794 94.19235 -24.59482 588.2 490)"/><ellipse fill="#fff5de" fill-opacity=".5" rx="1" ry="1" transform="matrix(206.66298 -261.9753 69.63966 54.93625 363 426.6)"/></g></svg>