<svg xmlns="http://www.w3.org/2000/svg" viewBox="0 0 600 900"><filter id="b"><feGaussianBlur stdDeviation="12" /></filter><path fill="#dbccbf" d="M0 0h597v900H0z"/><g filter="url(#b)" transform="translate(1.8 1.8) scale(3.51563)" fill-opacity=".5"><ellipse fill="#81665e" rx="1" ry="1" transform="matrix(-71.28245 -8.17474 2.88232 -25.1334 50.8 219)"/><ellipse fill="#f9f0e6" rx="1" ry="1" transform="matrix(74.64596 2.98975 -4.99366 124.67802 86 60)"/><path fill="#863f1c" d="M122 200l-55 57 92-54z"/><path fill="#5c3f2e" d="M-16 253v-57l70-5z"/><path fill="#e1ebf3" d="M50.5 200.4l-18.2 27.2-31.9 4.6L79.1 271z"/><path fill="#e5e4e1" d="M68.6 233.7l16.2 6.2-37-66.4 62 35.3z"/><path fill="#783f28" d="M18 150l34 38-10-27z"/><ellipse fill="#143462" cx="169" cy="16" rx="12" ry="12"/></g></svg>