<svg xmlns="http://www.w3.org/2000/svg" viewBox="0 0 820 547"><filter id="b"><feGaussianBlur stdDeviation="12" /></filter><path fill="#999285" d="M0 0h820v544H0z"/><g filter="url(#b)" transform="translate(1.6 1.6) scale(3.20313)" fill-opacity=".5"><ellipse rx="1" ry="1" transform="rotate(-99.4 111.7 9.4) scale(42.80125 88.63807)"/><ellipse fill="#fff" rx="1" ry="1" transform="matrix(-31.92797 -44.985 193.48115 -137.32268 88.1 0)"/><ellipse cx="158" cy="62" rx="31" ry="39"/><ellipse fill="#fffff7" rx="1" ry="1" transform="rotate(26.5 56.3 427.9) scale(60.90424 21.43553)"/><ellipse fill="#fff" rx="1" ry="1" transform="matrix(35.25304 57.52773 -27.3485 16.75918 86.1 39.8)"/><ellipse fill="#fff" rx="1" ry="1" transform="matrix(84.14024 -57.41915 11.71167 17.16192 248.4 157.3)"/><ellipse fill="#1e0f01" rx="1" ry="1" transform="matrix(-16.95248 -112.8606 28.2218 -4.23912 164.5 138.1)"/><ellipse fill="#fff" cx="39" cy="169" rx="92" ry="9"/></g></svg>