<svg xmlns="http://www.w3.org/2000/svg" viewBox="0 0 900 600"><filter id="c"><feGaussianBlur stdDeviation="55" /></filter><path fill="#8a8078" d="M0 0h900v597H0z"/><g filter='url(#c)' fill-opacity='.5'><ellipse fill="#fff" fill-opacity=".5" rx="1" ry="1" transform="rotate(-94.4 348.8 -65) scale(233.15173 297.50571)"/><path fill-opacity=".5" d="M954.5 346.3v267.2L128.3 631z"/><ellipse fill-opacity=".5" rx="1" ry="1" transform="rotate(-7.8 1745.3 -5898.7) scale(103.68625 336.77442)"/><ellipse fill="#1f0800" fill-opacity=".5" rx="1" ry="1" transform="matrix(-67.16437 -412.31836 108.94094 -17.74587 87.3 479.8)"/><ellipse fill="#f6f8ff" fill-opacity=".5" rx="1" ry="1" transform="matrix(-252.6242 90.45256 -74.33285 -207.6036 451.7 263.4)"/><ellipse fill="#0e0000" fill-opacity=".5" rx="1" ry="1" transform="matrix(18.85774 115.96134 -226.38404 36.81479 708.8 566.7)"/><path fill="#0c0000" fill-opacity=".5" d="M26.9 260.1L-37 134.8l147.2-75 63.9 125.3z"/><path fill="#eff0f2" fill-opacity=".5" d="M251.4 578.3l-140.7-362 239.1 316.3z"/></g></svg>