<svg xmlns="http://www.w3.org/2000/svg" viewBox="0 0 600 900"><filter id="b"><feGaussianBlur stdDeviation="12" /></filter><path fill="#e1dad2" d="M0 0h597v900H0z"/><g filter="url(#b)" transform="translate(1.8 1.8) scale(3.51563)" fill-opacity=".5"><path fill="#959d74" d="M205.2 95L56.8 108l-2-23 148.4-13z"/><ellipse fill="#f4f9f3" rx="1" ry="1" transform="matrix(61.68657 49.9528 -34.71967 42.87522 24 160)"/><ellipse fill="#8fc482" rx="1" ry="1" transform="matrix(-5.4829 -68.84423 11.17847 -.89028 49.8 0)"/><ellipse fill="#8fe49d" rx="1" ry="1" transform="matrix(-18.0086 -29.49395 7.263 -4.43469 12 73.6)"/><ellipse fill="#f4cad4" rx="1" ry="1" transform="rotate(-42.3 281.7 -78.7) scale(62.28988 77.42608)"/><ellipse fill="#e2ffef" cx="36" cy="53" rx="12" ry="45"/><ellipse fill="#b48f85" rx="1" ry="1" transform="matrix(-.5903 7.5005 -53.3918 -4.20203 152.7 96)"/><ellipse fill="#ece6e0" rx="1" ry="1" transform="matrix(-34.64123 -27.96728 24.8954 -30.8363 110.8 44)"/></g></svg>