<svg xmlns="http://www.w3.org/2000/svg" viewBox="0 0 600 1349"><filter id="b"><feGaussianBlur stdDeviation="12" /></filter><path fill="#d0b283" d="M0 0h595v1349H0z"/><g filter="url(#b)" transform="translate(2.6 2.6) scale(5.26953)" fill-opacity=".5"><ellipse fill="#984208" rx="1" ry="1" transform="matrix(-60.89923 20.56858 -6.55722 -19.41455 69.2 228.4)"/><ellipse fill="#ffffe1" rx="1" ry="1" transform="matrix(37.72045 -1.75448 2.08714 44.87247 18.2 31.8)"/><ellipse fill="#fffdef" cx="52" cy="183" rx="112" ry="14"/><path fill="#a1813e" d="M30 69h76v74H30z"/><ellipse fill="#5d1400" rx="1" ry="1" transform="matrix(20.28864 -.0806 .02759 6.94365 11 164.4)"/><ellipse fill="#fffff2" rx="1" ry="1" transform="matrix(15.95281 7.98856 -9.22844 18.42878 9.1 112)"/><path fill="#7f5436" d="M33 178.3l-1.8-10 14 75.1 11.7-51.8z"/><path fill="#fff" d="M63.6 259.4l60.6-30.9 8.2 16-60.6 31z"/></g></svg>