<svg xmlns="http://www.w3.org/2000/svg" viewBox="0 0 820 547"><filter id="b"><feGaussianBlur stdDeviation="12" /></filter><path fill="#918c81" d="M0 0h820v544H0z"/><g filter="url(#b)" transform="translate(1.6 1.6) scale(3.20313)" fill-opacity=".5"><ellipse rx="1" ry="1" transform="matrix(-74.32182 17.97156 -22.3363 -92.37226 136.2 122.4)"/><ellipse fill="#fff" rx="1" ry="1" transform="rotate(88 54.4 68.5) scale(45.88463 215.04202)"/><ellipse fill="#fff" rx="1" ry="1" transform="matrix(-81.1122 185.32477 -29.24917 -12.80166 27.5 74)"/><path d="M104 23h47v128h-47z"/><path fill="#fff" d="M235.4 214.3l-32-14.3 41.2-92.3 32 14.3z"/><ellipse fill="#fff" cx="44" cy="169" rx="97" ry="7"/><path fill="#fffef3" d="M271 100L208-10 79-13z"/><ellipse fill="#010000" rx="1" ry="1" transform="matrix(-.67071 35.3561 -20.11617 -.3816 185.7 95.2)"/></g></svg>