<svg xmlns="http://www.w3.org/2000/svg" viewBox="0 0 900 600"><filter id="b"><feGaussianBlur stdDeviation="12" /></filter><path fill="#505257" d="M0 0h900v597H0z"/><g filter="url(#b)" transform="translate(1.8 1.8) scale(3.51563)" fill-opacity=".5"><ellipse fill="#fff" rx="1" ry="1" transform="matrix(-29.44506 44.99677 -52.12804 -34.11163 234.6 84)"/><ellipse fill="#fff8f4" rx="1" ry="1" transform="matrix(106.47386 7.30181 -1.15516 16.84431 152.2 94.2)"/><path d="M271 0L-16-2 6 102z"/><ellipse fill="#000818" rx="1" ry="1" transform="matrix(10.74085 -49.10826 249.11118 54.48504 118.5 169)"/><ellipse fill="#fff" rx="1" ry="1" transform="matrix(-42.49857 -26.78904 13.15373 -20.8673 218.8 62.9)"/><ellipse fill="#668eb6" rx="1" ry="1" transform="rotate(160.7 44.8 70.4) scale(41.70965 24.9038)"/><ellipse fill="#010005" cx="139" cy="57" rx="37" ry="21"/><path fill="#003d6f" d="M146.1 116l60-10.5L212 138l-60 10.5z"/></g></svg>