<svg xmlns="http://www.w3.org/2000/svg" viewBox="0 0 900 600"><filter id="b"><feGaussianBlur stdDeviation="12" /></filter><path fill="#aea9a6" d="M0 0h900v597H0z"/><g filter="url(#b)" transform="translate(1.8 1.8) scale(3.51563)" fill-opacity=".5"><ellipse rx="1" ry="1" transform="rotate(-69.6 155 26.7) scale(38.34495 212.52631)"/><ellipse fill="#fff" rx="1" ry="1" transform="matrix(34.80853 63.06007 -109.48191 60.43292 148.3 38.9)"/><ellipse rx="1" ry="1" transform="matrix(63.25492 -76.48615 22.70618 18.77827 15 29)"/><ellipse rx="1" ry="1" transform="rotate(-160.1 45.8 63.8) scale(165.05405 15.32629)"/><ellipse fill="#edebeb" rx="1" ry="1" transform="matrix(5.83651 37.37338 -73.64106 11.50035 214.7 116.9)"/><ellipse fill="#494c49" rx="1" ry="1" transform="matrix(62.42848 23.6508 -3.07258 8.11035 137.4 88.3)"/><ellipse fill="#fff" cx="131" cy="20" rx="59" ry="59"/><path fill="#331a07" d="M-16 72.8L54.3-16 20.8 77.2 12.2 185z"/></g></svg>