<svg xmlns="http://www.w3.org/2000/svg" viewBox="0 0 900 1350"><filter id="b"><feGaussianBlur stdDeviation="12" /></filter><path fill="#9b7446" d="M0 0h896v1350H0z"/><g filter="url(#b)" transform="translate(2.6 2.6) scale(5.27344)" fill-opacity=".5"><ellipse fill="#ffffe6" rx="1" ry="1" transform="matrix(-45.4426 17.80876 -34.62327 -88.34818 10.5 75.6)"/><ellipse fill="#180000" cx="123" cy="234" rx="117" ry="47"/><ellipse fill="#3a0a00" rx="1" ry="1" transform="matrix(17.9737 -11.053 43.00668 69.93477 130 32)"/><ellipse fill="#fff6c5" rx="1" ry="1" transform="rotate(-79.9 128.5 -24.6) scale(15.73298 49.2518)"/><ellipse fill="#db9e42" rx="1" ry="1" transform="matrix(11.26362 -99.80104 29.41284 3.31955 68.3 80.9)"/><ellipse fill="#bc4400" cx="109" cy="150" rx="44" ry="32"/><ellipse fill="#edeadf" rx="1" ry="1" transform="matrix(-21.59674 1.28308 -7.4834 -125.9599 0 93)"/><path fill="#320100" d="M79 271l106-46-201-10z"/></g></svg>