<svg xmlns="http://www.w3.org/2000/svg" viewBox="0 0 900 1350"><filter id="b"><feGaussianBlur stdDeviation="12" /></filter><path fill="#a47d4f" d="M0 0h896v1350H0z"/><g filter="url(#b)" transform="translate(2.6 2.6) scale(5.27344)" fill-opacity=".5"><ellipse fill="#fff" rx="1" ry="1" transform="matrix(-7.0919 -57.75885 20.76525 -2.54965 29.8 140.4)"/><ellipse fill="#160000" rx="1" ry="1" transform="matrix(162.93212 44.87898 -7.7064 27.97793 37.8 233.6)"/><ellipse fill="#fefffc" rx="1" ry="1" transform="rotate(-117.8 102 31) scale(56.20319 19.95619)"/><ellipse fill="#330700" cx="164" cy="89" rx="32" ry="66"/><path fill="#fff" d="M110 209l37-50-115 44z"/><ellipse fill="#814500" cx="79" cy="156" rx="36" ry="36"/><ellipse fill="#f3b661" rx="1" ry="1" transform="rotate(-43.1 117.8 -24) scale(30.48241 96.71823)"/><ellipse fill="#fff" rx="1" ry="1" transform="matrix(7.7956 -7.98844 52.15095 50.89199 16.7 161.5)"/></g></svg>