<svg xmlns="http://www.w3.org/2000/svg" viewBox="0 0 600 900"><filter id="c"><feGaussianBlur stdDeviation="55" /></filter><path fill="#644c40" d="M0 0h597v900H0z"/><g filter='url(#c)' fill-opacity='.5'><ellipse fill="#f2a063" fill-opacity=".5" rx="1" ry="1" transform="matrix(-10.2763 115.80203 -360.7203 -32.01043 414.9 258.4)"/><ellipse fill="#ffffc9" fill-opacity=".5" rx="1" ry="1" transform="matrix(-99.62659 -37.64575 18.69542 -49.47598 200.2 771.8)"/><ellipse fill="#ffcc6c" fill-opacity=".5" rx="1" ry="1" transform="rotate(64.3 -335.8 717.5) scale(102.37255 78.32992)"/><ellipse fill="#000d28" fill-opacity=".5" rx="1" ry="1" transform="matrix(-511.72866 8.03888 -1.96611 -125.15643 100.4 510)"/><ellipse fill="#000324" fill-opacity=".5" rx="1" ry="1" transform="matrix(-295.56437 -194.59574 43.07383 -65.42327 128 898.2)"/><ellipse fill="#22212d" fill-opacity=".5" rx="1" ry="1" transform="rotate(-3.4 1163 -4913.6) scale(433.98592 89.20374)"/><ellipse fill="#ffc164" fill-opacity=".5" rx="1" ry="1" transform="matrix(-87.35782 -48.62274 27.89057 -50.10946 481.6 195.8)"/><ellipse fill="#f89a5d" fill-opacity=".5" rx="1" ry="1" transform="rotate(-165.7 253.3 306.4) scale(111.04874 56.54046)"/></g></svg>