<svg xmlns="http://www.w3.org/2000/svg" viewBox="0 0 1600 1600"><filter id="b"><feGaussianBlur stdDeviation="12" /></filter><path fill="#aaa08e" d="M0 0h1600v1600H0z"/><g filter="url(#b)" transform="matrix(6.25 0 0 6.25 3.1 3.1)" fill-opacity=".5"><ellipse fill="#f4e4b0" cx="120" cy="137" rx="71" ry="71"/><ellipse fill="#533d44" rx="1" ry="1" transform="matrix(-14.3017 32.58016 -183.4962 -80.5492 16.2 222.9)"/><ellipse fill="#6a1d01" rx="1" ry="1" transform="matrix(44.48338 9.29306 -2.75927 13.2079 145.4 55.4)"/><ellipse fill="#becfca" rx="1" ry="1" transform="matrix(3.7232 -29.9329 210.74678 26.2137 202.2 17)"/><path fill="#665b5e" d="M31 86l24 117-53-31z"/><ellipse fill="#817c80" rx="1" ry="1" transform="matrix(41.85413 33.69456 -149.94417 186.25509 255 180)"/><ellipse fill="#e9e4bc" rx="1" ry="1" transform="rotate(-84.5 171 12.7) scale(26.48415 46.44687)"/><ellipse fill="#ddaeeb" cx="253" cy="84" rx="14" ry="53"/></g></svg>