<svg xmlns="http://www.w3.org/2000/svg" viewBox="0 0 1022 1024"><filter id="b"><feGaussianBlur stdDeviation="12" /></filter><path fill="#d1c8be" d="M0 0h1024v1024H0z"/><g filter="url(#b)" transform="matrix(4 0 0 4 2 2)" fill-opacity=".5"><ellipse fill="#4c1c00" rx="1" ry="1" transform="matrix(0 34.4117 -227.4383 0 189.4 77.6)"/><ellipse fill="#fff" cx="135" cy="204" rx="255" ry="81"/><ellipse fill="#5e3107" rx="1" ry="1" transform="matrix(23.00552 -.89777 1.9568 50.14319 62.4 68.5)"/><ellipse fill="#4e2400" rx="1" ry="1" transform="rotate(-11.4 438.7 -1183) scale(37.82044 38.53921)"/><path fill="#fff" d="M168.5 73V43h27v30zM115 75.3l-32-1.7 2-39 32 1.8zM78 98h60v158H78z"/><ellipse fill="#6d3100" rx="1" ry="1" transform="matrix(19.89762 .16717 -.3786 45.06273 149.4 67.4)"/></g></svg>