<svg xmlns="http://www.w3.org/2000/svg" viewBox="0 0 600 900"><filter id="c"><feGaussianBlur stdDeviation="55" /></filter><path fill="#c3ad97" d="M0 0h597v900H0z"/><g filter='url(#c)' fill-opacity='.5'><ellipse fill="#5e2700" fill-opacity=".5" rx="1" ry="1" transform="matrix(-281.0613 -149.46177 72.88431 -137.05819 377.5 646.3)"/><ellipse fill="#fff" fill-opacity=".5" rx="1" ry="1" transform="rotate(-97.7 156.6 -71.3) scale(145.3874 571.49969)"/><ellipse fill="#f1fcff" fill-opacity=".5" rx="1" ry="1" transform="matrix(-508.66634 -66.06422 11.46565 -88.28062 143.6 851.3)"/><ellipse fill="#fafffe" fill-opacity=".5" rx="1" ry="1" transform="matrix(84.84486 47.29202 -91.60182 164.33944 505.7 387)"/><path fill="#6e3713" fill-opacity=".5" d="M283 293.6h109V849H283z"/><ellipse fill="#fff" fill-opacity=".5" rx="1" ry="1" transform="matrix(49.3544 -4.30904 37.03316 424.16586 1.8 490.4)"/><ellipse fill="#99572a" fill-opacity=".5" rx="1" ry="1" transform="matrix(-32.85964 29.58695 -141.65396 -157.32266 200.7 365)"/><path fill="#f5fff5" fill-opacity=".5" d="M451.8 873.6l52.7-116L385 740z"/></g></svg>