<svg xmlns="http://www.w3.org/2000/svg" viewBox="0 0 1600 1600"><filter id="b"><feGaussianBlur stdDeviation="12" /></filter><path fill="#ae9c7f" d="M0 0h1600v1600H0z"/><g filter="url(#b)" transform="matrix(6.25 0 0 6.25 3.1 3.1)" fill-opacity=".5"><ellipse fill="#86441e" rx="1" ry="1" transform="rotate(-96.7 126 106) scale(115.62547 53.14071)"/><ellipse fill="#636680" rx="1" ry="1" transform="matrix(-29.7173 8.0156 -21.45018 -79.52518 34 41)"/><ellipse fill="#d0cbaa" cx="159" cy="133" rx="101" ry="78"/><ellipse fill="#3a2548" rx="1" ry="1" transform="matrix(-13.38656 -4.62679 13.7538 -39.79352 134.7 9)"/><ellipse fill="#cfa358" cx="234" cy="255" rx="79" ry="79"/><ellipse fill="#b9caef" rx="1" ry="1" transform="matrix(10.67504 -10.45377 18.92522 19.3258 85.2 41.3)"/><path fill="#becdd5" d="M134.6 31.2L154 3.3l39.3 27.5L174 58.7z"/><ellipse fill="#d0f2f8" cx="72" cy="139" rx="12" ry="32"/></g></svg>