<svg xmlns="http://www.w3.org/2000/svg" viewBox="0 0 722 1024"><filter id="c"><feGaussianBlur stdDeviation="55" /></filter><path fill="#b7aea6" d="M0 0h720v1024H0z"/><g filter='url(#c)' fill-opacity='.5'><ellipse fill="#170e04" fill-opacity=".5" rx="1" ry="1" transform="rotate(117.8 -212 468.3) scale(188.30859 169.70447)"/><ellipse fill="#2e2014" fill-opacity=".5" rx="1" ry="1" transform="rotate(116.8 81 611.6) scale(285.26233 179.54805)"/><ellipse fill="#fff" fill-opacity=".5" rx="1" ry="1" transform="matrix(-223.27275 -525.99764 213.014 -90.41908 160 267.1)"/><ellipse fill="#501800" fill-opacity=".5" rx="1" ry="1" transform="matrix(-16.12687 -144.49546 323.71474 -36.1292 688.8 320)"/><ellipse fill="#fff" fill-opacity=".5" rx="1" ry="1" transform="matrix(-466.68594 485.59017 -211.5547 -203.31878 161.3 155.4)"/><path fill="#ccc6be" fill-opacity=".5" d="M142 806h488v140H142z"/><ellipse fill-opacity=".5" rx="1" ry="1" transform="matrix(75.42673 -92.8184 31.51138 25.607 131.4 759.9)"/><ellipse fill="#efefe5" fill-opacity=".5" rx="1" ry="1" transform="matrix(29.30808 -9.8763 52.1106 154.63918 514 418.3)"/></g></svg>