<svg xmlns="http://www.w3.org/2000/svg" viewBox="0 0 721 1024"><filter id="b"><feGaussianBlur stdDeviation="12" /></filter><path fill="#b9b2ab" d="M0 0h720v1024H0z"/><g filter="url(#b)" transform="matrix(4 0 0 4 2 2)" fill-opacity=".5"><ellipse fill="#3a0000" rx="1" ry="1" transform="matrix(-32.7089 14.52323 -18.36717 -41.36613 162.6 75.8)"/><ellipse fill="#fff" cx="30" cy="76" rx="91" ry="91"/><ellipse fill="#40372d" cx="29" cy="224" rx="53" ry="53"/><ellipse fill="#413a34" cx="179" cy="202" rx="65" ry="65"/><path d="M89.6 104l2-28 28.8 2-2 28z"/><ellipse fill="#fff" rx="1" ry="1" transform="rotate(-118.7 48.1 31.1) scale(122.55791 40.73924)"/><path fill="#faf2e4" d="M44 201l-4 35 133-11z"/><ellipse fill="#000003" rx="1" ry="1" transform="matrix(22.20483 -19.71437 6.0855 6.85426 36.8 185.3)"/></g></svg>