<svg xmlns="http://www.w3.org/2000/svg" viewBox="0 0 723 1024"><filter id="b"><feGaussianBlur stdDeviation="12" /></filter><path fill="#b0a8a0" d="M0 0h724v1024H0z"/><g filter="url(#b)" transform="matrix(4 0 0 4 2 2)" fill-opacity=".5"><ellipse fill="#1d0e00" cx="32" cy="213" rx="37" ry="52"/><ellipse fill="#130000" rx="1" ry="1" transform="matrix(-63.02485 7.63606 -4.69108 -38.71818 171.6 176.1)"/><ellipse fill="#fff" cx="41" cy="58" rx="61" ry="102"/><ellipse fill="#380500" rx="1" ry="1" transform="matrix(2.9575 45.68578 -33.35433 2.15922 159 73.3)"/><path d="M98.8 70.1l-8.3 29.5 5.7 7.3 38.3-7z"/><path fill="#fffae7" d="M154 263L37 193l-5 36z"/><ellipse fill="#fff" rx="1" ry="1" transform="matrix(-31.90256 100.88343 -67.56404 -21.3659 30.7 54.2)"/><path d="M51 182.2l55.2 30.5-7.3 13.1-55-30.5z"/></g></svg>