<svg xmlns="http://www.w3.org/2000/svg" viewBox="0 0 820 547"><filter id="b"><feGaussianBlur stdDeviation="12" /></filter><path fill="#915e3a" d="M0 0h820v544H0z"/><g filter="url(#b)" transform="translate(1.6 1.6) scale(3.20313)" fill-opacity=".5"><ellipse rx="1" ry="1" transform="matrix(-.94003 29.17091 -90.71754 -2.92337 119.7 124.4)"/><ellipse fill="#fff1d4" rx="1" ry="1" transform="matrix(-.7666 -20.75994 164.91725 -6.08994 199.3 167.8)"/><ellipse fill="#e09960" rx="1" ry="1" transform="matrix(-88.68178 -81.51833 28.54795 -31.05662 193.6 63.1)"/><path fill="#2e1000" d="M-57.9 82L-.2-60.8l76 30.8-57.6 142.8z"/><ellipse fill="#fcab54" rx="1" ry="1" transform="matrix(-74.70072 11.42943 -2.0018 -13.08343 127.7 70)"/><ellipse cx="80" cy="142" rx="63" ry="10"/><ellipse fill="#6a1100" rx="1" ry="1" transform="matrix(-44.48371 -22.15724 10.5323 -21.14505 176.9 116.6)"/><ellipse fill="#e8d4bd" cx="246" cy="169" rx="25" ry="57"/></g></svg>