<svg xmlns="http://www.w3.org/2000/svg" viewBox="0 0 600 637"><filter id="c"><feGaussianBlur stdDeviation="55" /></filter><path fill="#7c7366" d="M0 0h599v637H0z"/><g filter='url(#c)' fill-opacity='.5'><ellipse fill="#fff" fill-opacity=".5" rx="1" ry="1" transform="rotate(-133.7 228.1 85.4) scale(80.94807 101.41029)"/><ellipse fill-opacity=".5" rx="1" ry="1" transform="matrix(59.782 -57.22538 219.79887 229.61869 55.9 567.6)"/><ellipse fill="#e3ffff" fill-opacity=".5" rx="1" ry="1" transform="matrix(350.40895 20.014 -4.41102 77.22904 344.3 33.4)"/><ellipse fill-opacity=".5" rx="1" ry="1" transform="matrix(-106.80083 -75.23087 100.06941 -142.06264 516.5 585.4)"/><ellipse fill="#2d0000" fill-opacity=".5" rx="1" ry="1" transform="matrix(-69.06203 183.31884 -68.2556 -25.71406 178 269.4)"/><ellipse fill="#fff" fill-opacity=".5" rx="1" ry="1" transform="matrix(-98.11163 12.56839 -5.78218 -45.13697 68.5 146)"/><ellipse fill="#ffffc4" fill-opacity=".5" rx="1" ry="1" transform="matrix(-8.74562 50.11015 -122.57564 -21.39287 584 211.7)"/><ellipse fill="#fff" fill-opacity=".5" rx="1" ry="1" transform="matrix(1.89674 16.14617 -127.84855 15.01875 340.6 473)"/></g></svg>