<svg xmlns="http://www.w3.org/2000/svg" viewBox="0 0 150 150"><filter id="c"><feGaussianBlur stdDeviation="55" /></filter><path fill="#26200a" d="M0 0h150v150H0z"/><g filter='url(#c)' fill-opacity='.5'><path fill="#ffff3a" fill-opacity=".5" d="M4.4 79.7l139.4-27.1 2.8 14.7L7.2 94.4z"/><ellipse fill="#ffe54f" fill-opacity=".5" rx="1" ry="1" transform="matrix(-33.42082 10.55673 -2.1108 -6.68242 60.4 38.5)"/><path fill="#d6b648" fill-opacity=".5" d="M104 100.9L117.4 56l-1.3 60.4-76.6 3z"/><ellipse fill-opacity=".5" rx="1" ry="1" transform="matrix(-119.5739 -9.77761 2.76853 -33.8573 54.7 149.5)"/><path fill="#ffd239" fill-opacity=".5" d="M50.5 96.5l26 26-42-19z"/><ellipse fill-opacity=".5" rx="1" ry="1" transform="matrix(-20.1337 35.01046 -92.47743 -53.18164 125.4 .5)"/><path fill="#ffd546" fill-opacity=".5" d="M68.5 28.5h34v13h-34z"/><ellipse fill-opacity=".5" rx="1" ry="1" transform="matrix(-6.20822 -21.93938 58.78627 -16.63484 22.2 21.2)"/></g></svg>