<svg xmlns="http://www.w3.org/2000/svg" viewBox="0 0 800 768"><filter id="b"><feGaussianBlur stdDeviation="12" /></filter><path fill="#d9cfc2" d="M0 0h800v765H0z"/><g filter="url(#b)" transform="translate(1.6 1.6) scale(3.125)" fill-opacity=".5"><ellipse fill="#642a00" rx="1" ry="1" transform="matrix(-17.1248 5.89654 -10.70278 -31.08312 27.5 68.6)"/><path fill="#672600" d="M98 161h28v61H98z"/><ellipse fill="#672700" rx="1" ry="1" transform="rotate(-95.8 85 -17.7) scale(35.04349 14.21262)"/><path fill="#7a3f05" d="M230.3 68.6l-45.9-40.8-1.3 71.2 23-1.6z"/><ellipse fill="#83480b" rx="1" ry="1" transform="matrix(4.5324 34.26719 -18.76987 2.48262 25.7 186.8)"/><ellipse fill="#834b11" rx="1" ry="1" transform="matrix(18.90697 -7.2846 11.86108 30.78506 204 190.9)"/><ellipse fill="#fff" cx="167" cy="121" rx="226" ry="29"/><ellipse fill="#fff" cx="83" cy="74" rx="15" ry="255"/></g></svg>