<svg xmlns="http://www.w3.org/2000/svg" viewBox="0 0 900 600"><filter id="b"><feGaussianBlur stdDeviation="12" /></filter><path fill="#af8861" d="M0 0h900v597H0z"/><g filter="url(#b)" transform="translate(1.8 1.8) scale(3.51563)" fill-opacity=".5"><ellipse fill="#ffffde" cx="176" cy="85" rx="58" ry="58"/><ellipse rx="1" ry="1" transform="matrix(-181.85391 10.80411 -1.51063 -25.42685 128.4 168.8)"/><ellipse fill="#fffff4" rx="1" ry="1" transform="matrix(-2.82418 57.98336 -41.73031 -2.03255 65 69)"/><ellipse fill="#400" rx="1" ry="1" transform="rotate(-175.2 87.4 -3.7) scale(255 29.38109)"/><ellipse fill="#0e0000" rx="1" ry="1" transform="rotate(-177.9 126.2 32.4) scale(15.15656 140.20099)"/><ellipse fill="#4d0f00" rx="1" ry="1" transform="rotate(-91.1 52 53) scale(134.90521 25.85409)"/><ellipse fill="#ffe6c0" rx="1" ry="1" transform="matrix(1.33837 28.38015 -40.90023 1.9288 65.1 127.2)"/><path fill="#ffe7ad" d="M120 33h111v106H120z"/></g></svg>