<svg xmlns="http://www.w3.org/2000/svg" viewBox="0 0 900 600"><filter id="b"><feGaussianBlur stdDeviation="12" /></filter><path fill="#af8563" d="M0 0h900v597H0z"/><g filter="url(#b)" transform="translate(1.8 1.8) scale(3.51563)" fill-opacity=".5"><ellipse fill="#ffffe3" rx="1" ry="1" transform="matrix(78.67994 .07588 -.05472 56.73126 141.5 91.5)"/><ellipse cx="247" cy="82" rx="29" ry="255"/><ellipse fill="#330400" rx="1" ry="1" transform="matrix(-123.99018 -3.26612 .5889 -22.3564 179.4 14.7)"/><ellipse fill="#541b00" rx="1" ry="1" transform="matrix(1.51942 -15.42123 87.78044 8.64883 210.1 158.8)"/><ellipse fill="#fff1ce" rx="1" ry="1" transform="matrix(-36.69066 5.418 -7.4102 -50.18184 111.7 83.4)"/><path fill="#a25527" d="M78.8 129.8l-20-.7 4.4-125 20 .8z"/><ellipse fill="#360400" rx="1" ry="1" transform="rotate(-91.2 166 -71.6) scale(75.91696 20.6381)"/><path fill="#f0b38a" d="M-16 133L44 28l9 157z"/></g></svg>