<svg xmlns="http://www.w3.org/2000/svg" viewBox="0 0 900 600"><filter id="b"><feGaussianBlur stdDeviation="12" /></filter><path fill="#a07d61" d="M0 0h900v597H0z"/><g filter="url(#b)" transform="translate(1.8 1.8) scale(3.51563)" fill-opacity=".5"><ellipse fill="#ffe8c8" rx="1" ry="1" transform="rotate(27.5 -119.3 242.4) scale(71.53143 75.18646)"/><ellipse fill="#5b2408" rx="1" ry="1" transform="matrix(48.46545 13.31865 -62.49136 227.40085 214.3 136)"/><ellipse fill="#0f0000" cx="8" cy="99" rx="19" ry="255"/><ellipse fill="#340b00" cx="130" cy="165" rx="39" ry="11"/><ellipse fill="#d9c8b7" rx="1" ry="1" transform="matrix(14.21678 26.99 -29.26048 15.41273 60.6 26.6)"/><ellipse fill="#9a7662" rx="1" ry="1" transform="matrix(12.3312 -57.51992 31.77313 6.81157 192.4 87.4)"/><ellipse fill="#471600" rx="1" ry="1" transform="rotate(-28 407.3 -442) scale(24.48644 52.2242)"/><ellipse fill="#ecd6be" rx="1" ry="1" transform="matrix(-25.6909 -.58557 1.05448 -46.26361 138.7 63)"/></g></svg>