<svg xmlns="http://www.w3.org/2000/svg" viewBox="0 0 900 1350"><filter id="b"><feGaussianBlur stdDeviation="12" /></filter><path fill="#e4ddd4" d="M0 0h896v1350H0z"/><g filter="url(#b)" transform="translate(2.6 2.6) scale(5.27344)" fill-opacity=".5"><ellipse fill="#5b2100" rx="1" ry="1" transform="matrix(-30.75784 -5.25753 8.12647 -47.54182 28.9 140.5)"/><ellipse fill="#fff" cx="149" cy="215" rx="58" ry="158"/><ellipse fill="#3a1100" rx="1" ry="1" transform="rotate(25.3 -293.2 167.3) scale(11.45816 42.66869)"/><ellipse fill="#522d00" rx="1" ry="1" transform="rotate(17.3 -405 345) scale(3.31019 71.54135)"/><ellipse fill="#fff" rx="1" ry="1" transform="rotate(84.6 -86 169.8) scale(33.31819 168.99998)"/><ellipse fill="#f1f5fa" cx="28" cy="46" rx="58" ry="58"/><ellipse fill="#e1d5b0" rx="1" ry="1" transform="rotate(-163.8 41.3 68) scale(8.44182 60.3085)"/><path fill="#f9ffff" d="M77-33.8l123.4 52.4L177 73.8 53.6 21.4z"/></g></svg>