<svg xmlns="http://www.w3.org/2000/svg" viewBox="0 0 886 663"><filter id="b"><feGaussianBlur stdDeviation="12" /></filter><path fill="#827263" d="M0 0h886v661H0z"/><g filter="url(#b)" transform="translate(1.7 1.7) scale(3.46094)" fill-opacity=".5"><ellipse fill="#fff" rx="1" ry="1" transform="matrix(164.47307 -14.596 3.28201 36.98287 105.5 1.1)"/><ellipse rx="1" ry="1" transform="matrix(-90.38533 34.96832 -18.04269 -46.63634 152.7 124.6)"/><ellipse fill="#ffff72" rx="1" ry="1" transform="matrix(-33.85089 -59.30498 28.67471 -16.36734 40.9 181.3)"/><ellipse fill="#fffffc" rx="1" ry="1" transform="matrix(-30.7387 97.49071 -12.3504 -3.89406 74.7 43.8)"/><ellipse fill="#05001d" rx="1" ry="1" transform="matrix(57.1144 -60.22169 16.24775 15.4094 7.3 86.8)"/><ellipse fill="#fffc9b" rx="1" ry="1" transform="matrix(21.94976 -48.86898 22.8461 10.26145 255 140.9)"/><ellipse fill="#fff" cx="247" cy="43" rx="39" ry="11"/><ellipse fill="#000020" rx="1" ry="1" transform="rotate(-41.5 136 -90.3) scale(26.76018 17.98156)"/></g></svg>