<svg xmlns="http://www.w3.org/2000/svg" viewBox="0 0 600 900"><filter id="b"><feGaussianBlur stdDeviation="12" /></filter><path fill="#b79f84" d="M0 0h597v900H0z"/><g filter="url(#b)" transform="translate(1.8 1.8) scale(3.51563)" fill-opacity=".5"><ellipse fill="#010000" rx="1" ry="1" transform="rotate(173.9 56.8 38) scale(71.66024 35.21796)"/><ellipse fill="#020000" rx="1" ry="1" transform="rotate(-19.8 548.4 -124.1) scale(50.74092 38.33908)"/><ellipse fill="#fff" rx="1" ry="1" transform="matrix(-13.0758 116.57331 -49.5491 -5.55782 1.8 73)"/><ellipse fill="#fff" rx="1" ry="1" transform="matrix(-54.67442 -13.65156 7.02661 -28.14155 27.5 113.4)"/><ellipse fill="#fff" cx="53" cy="4" rx="169" ry="19"/><ellipse fill="#ffe48b" rx="1" ry="1" transform="matrix(59.4228 -136.36283 44.52524 19.40275 168.7 194.7)"/><ellipse fill="#fffbde" rx="1" ry="1" transform="matrix(-2.14503 -24.03458 14.80754 -1.32154 146.1 37.3)"/><path fill="#fff" d="M-16 218l65 53-28-86z"/></g></svg>