<svg xmlns="http://www.w3.org/2000/svg" viewBox="0 0 900 600"><filter id="c"><feGaussianBlur stdDeviation="55" /></filter><path fill="#dcc8ae" d="M0 0h900v597H0z"/><g filter='url(#c)' fill-opacity='.5'><ellipse fill="#c95400" fill-opacity=".5" rx="1" ry="1" transform="matrix(241.86851 170.86624 -55.35785 78.36141 442 381.1)"/><ellipse fill="#09000f" fill-opacity=".5" rx="1" ry="1" transform="matrix(51.29042 71.6696 -57.50077 41.15048 528.4 188.1)"/><path fill="#fff" fill-opacity=".5" d="M356.8 652.1L-54.5 444.7 107.2-54.5z"/><ellipse fill="#d40000" fill-opacity=".5" rx="1" ry="1" transform="rotate(-165.6 160 93.7) scale(46.7449 129.6572)"/><path fill="#2b0000" fill-opacity=".5" d="M84.8 599.1l-70.7 39.2-95.4-172.2 70.7-39.2z"/><ellipse fill="#fff" fill-opacity=".5" rx="1" ry="1" transform="rotate(171.1 185.4 29.5) scale(309.18277 86.65405)"/><ellipse fill="#822300" fill-opacity=".5" rx="1" ry="1" transform="matrix(-58.57215 179.99642 -34.29823 -11.1609 44.3 1.8)"/><ellipse fill="#c27700" fill-opacity=".5" rx="1" ry="1" transform="matrix(-109.86829 78.39078 -42.6205 -59.7346 510.5 377.3)"/></g></svg>