<svg xmlns="http://www.w3.org/2000/svg" viewBox="0 0 900 600"><filter id="b"><feGaussianBlur stdDeviation="12" /></filter><path fill="#937c61" d="M0 0h900v597H0z"/><g filter="url(#b)" transform="translate(1.8 1.8) scale(3.51563)" fill-opacity=".5"><ellipse fill="#eedabf" rx="1" ry="1" transform="matrix(-11.8878 -45.9667 81.20637 -21.0014 213 88.6)"/><ellipse fill="#150500" rx="1" ry="1" transform="matrix(76.82548 -16.04968 7.30384 34.96152 48 154.6)"/><ellipse fill="#ffffdc" rx="1" ry="1" transform="rotate(-179.7 24 31) scale(36.67085 19.32804)"/><ellipse fill="#371000" rx="1" ry="1" transform="matrix(-122.34577 -3.94087 .4503 -13.97977 56.6 26.5)"/><path fill="#351101" d="M87.6 98l1.8-50 55 2-1.8 50z"/><path fill="#100200" d="M86.8 81.3L-16 95.3l8 8.1 161.1-11.3z"/><ellipse fill="ivory" cx="184" cy="39" rx="7" ry="58"/><ellipse fill="#694a28" rx="1" ry="1" transform="rotate(-26.1 288 -363.2) scale(43.7306 17.1156)"/></g></svg>