<svg xmlns="http://www.w3.org/2000/svg" viewBox="0 0 900 600"><filter id="b"><feGaussianBlur stdDeviation="12" /></filter><path fill="#918068" d="M0 0h900v597H0z"/><g filter="url(#b)" transform="translate(1.8 1.8) scale(3.51563)" fill-opacity=".5"><ellipse rx="1" ry="1" transform="matrix(12.10362 -38.55812 132.81172 41.69038 208.4 0)"/><ellipse rx="1" ry="1" transform="rotate(173.7 18.7 6.9) scale(87.81524 28.16802)"/><ellipse fill="#eac89a" cx="123" cy="78" rx="116" ry="52"/><ellipse fill="#d9f5fc" rx="1" ry="1" transform="rotate(-46.2 184.2 26.7) scale(12.86396 73.38239)"/><ellipse fill="#000004" rx="1" ry="1" transform="matrix(18.8088 -19.4526 65.87599 63.69575 9.2 169)"/><ellipse rx="1" ry="1" transform="matrix(-87.02072 -11.92284 2.66419 -19.445 244.5 28)"/><ellipse fill="#dbcbb9" rx="1" ry="1" transform="matrix(-2.8971 -10.81843 41.82365 -11.20011 173.7 134.3)"/><path d="M-28.4-12.4l140.6-19.8 6.2 44.6-140.6 19.8z"/></g></svg>