<svg xmlns="http://www.w3.org/2000/svg" viewBox="0 0 1200 800"><filter id="b"><feGaussianBlur stdDeviation="12" /></filter><path fill="#e4cbb1" d="M0 0h1200v796H0z"/><g filter="url(#b)" transform="translate(2.3 2.3) scale(4.6875)" fill-opacity=".5"><ellipse fill="#870000" rx="1" ry="1" transform="rotate(165.1 53.3 49) scale(38.53492 28.73301)"/><ellipse fill="#8a7461" rx="1" ry="1" transform="matrix(-40.11757 -49.54107 41.18034 -33.34718 46.6 162.2)"/><ellipse fill="#fff" rx="1" ry="1" transform="matrix(-25.43146 52.14222 -128.80121 -62.82055 190.2 21.5)"/><ellipse fill="#faffff" rx="1" ry="1" transform="matrix(-14.73006 -27.01684 59.3525 -32.36003 181.5 160.6)"/><ellipse fill="#930" cx="113" cy="83" rx="31" ry="26"/><ellipse fill="#fff" rx="1" ry="1" transform="matrix(14.3408 19.57995 -30.18303 22.10673 58 71.3)"/><path fill="#090000" d="M33.3 172.5L19 192l-36.4-26.4L-3 146z"/><ellipse fill="#f1a751" rx="1" ry="1" transform="rotate(26.9 -75 44) scale(22.21417 98.49248)"/></g></svg>