<svg xmlns="http://www.w3.org/2000/svg" viewBox="0 0 900 600"><filter id="c"><feGaussianBlur stdDeviation="55" /></filter><path fill="#e64e44" d="M0 0h900v597H0z"/><g filter='url(#c)' fill-opacity='.5'><path fill="#feffff" fill-opacity=".5" d="M175.3 609.6l-223.5 47.5L-171.8 76 51.8 28.4z"/><ellipse fill="#c30300" fill-opacity=".5" rx="1" ry="1" transform="matrix(231.80783 -77.21212 283.3045 850.54265 731.9 244.7)"/><ellipse fill="#ff8f71" fill-opacity=".5" rx="1" ry="1" transform="matrix(27.00257 -316.07422 165.22403 14.11527 234.9 422)"/><ellipse fill="#e4ffff" fill-opacity=".5" rx="1" ry="1" transform="matrix(-4.62223 378.31571 -42.17232 -.51526 23.5 400)"/><ellipse fill="#ff4e45" fill-opacity=".5" rx="1" ry="1" transform="rotate(73.5 124.6 526) scale(134.80283 197.32456)"/><ellipse fill="#de0001" fill-opacity=".5" rx="1" ry="1" transform="matrix(-223.74016 30.05938 -11.71742 -87.21592 286.2 31.4)"/><ellipse fill="#7c0000" fill-opacity=".5" rx="1" ry="1" transform="rotate(-89.9 444.6 -385.7) scale(84.84368 211.75267)"/><ellipse fill="#7e1b09" fill-opacity=".5" rx="1" ry="1" transform="matrix(-49.40102 173.68798 -108.81207 -30.94876 846.4 539.4)"/></g></svg>