<svg xmlns="http://www.w3.org/2000/svg" viewBox="0 0 900 600"><filter id="b"><feGaussianBlur stdDeviation="12" /></filter><path fill="#d2b598" d="M0 0h900v597H0z"/><g filter="url(#b)" transform="translate(1.8 1.8) scale(3.51563)" fill-opacity=".5"><ellipse fill="#3e0000" rx="1" ry="1" transform="matrix(-70.36298 -2.33418 .90497 -27.2801 123 90)"/><ellipse fill="#982c00" rx="1" ry="1" transform="rotate(5 -1814.7 1254.3) scale(185.65373 18.41303)"/><path fill="#fff" d="M-54.3 80.5L42.1-67.9l82.2 53.4-96.4 148.4z"/><ellipse fill="#fff" rx="1" ry="1" transform="matrix(-33.60712 49.759 -131.4293 -88.76708 219 38.2)"/><ellipse fill="#531100" cx="100" cy="85" rx="34" ry="34"/><ellipse fill="#914000" rx="1" ry="1" transform="matrix(-5.50816 19.08346 -96.6318 -27.89133 16.6 150.5)"/><ellipse fill="#b36700" rx="1" ry="1" transform="matrix(-94.90975 28.61969 -9.66565 -32.05363 222.6 169)"/><ellipse fill="#fffff3" rx="1" ry="1" transform="rotate(172.9 77.4 70.7) scale(89.7095 15.63908)"/></g></svg>