<svg xmlns="http://www.w3.org/2000/svg" viewBox="0 0 900 600"><filter id="b"><feGaussianBlur stdDeviation="12" /></filter><path fill="#bd9d73" d="M0 0h900v597H0z"/><g filter="url(#b)" transform="translate(1.8 1.8) scale(3.51563)" fill-opacity=".5"><ellipse fill="#f8ffff" rx="1" ry="1" transform="matrix(90.59228 -6.33483 2.86555 40.97923 103.5 88.9)"/><path fill="#350000" d="M4 185L-16 85l130 86z"/><ellipse fill="#8d3200" rx="1" ry="1" transform="matrix(-102.88574 -233.3228 36.4655 -16.07978 252.2 84.8)"/><ellipse fill="#e5daba" cx="155" cy="115" rx="69" ry="69"/><ellipse fill="#783300" rx="1" ry="1" transform="matrix(25.43443 -58.98055 20.15046 8.68957 22.3 32.6)"/><ellipse fill="#f5ffff" rx="1" ry="1" transform="matrix(62.904 -18.72167 6.36885 21.39905 73.6 78.3)"/><path fill="#936220" d="M115 77l-35 49 35 7z"/><ellipse fill="#a55d00" cx="208" cy="29" rx="40" ry="40"/></g></svg>