<svg xmlns="http://www.w3.org/2000/svg" viewBox="0 0 900 600"><filter id="b"><feGaussianBlur stdDeviation="12" /></filter><path fill="#b19e84" d="M0 0h900v597H0z"/><g filter="url(#b)" transform="translate(1.8 1.8) scale(3.51563)" fill-opacity=".5"><ellipse fill="#270900" rx="1" ry="1" transform="matrix(37.14856 28.96735 -66.14703 84.82885 204.3 164)"/><ellipse fill="#fff" rx="1" ry="1" transform="matrix(97.75243 46.38294 -20.95047 44.15329 10.4 60.2)"/><ellipse fill="#371600" cx="81" cy="152" rx="55" ry="26"/><ellipse fill="#4a1800" rx="1" ry="1" transform="matrix(13.98305 23.7385 -44.80487 26.39209 246.8 21.2)"/><ellipse fill="#fffff6" rx="1" ry="1" transform="matrix(6.32508 24.1982 -45.04222 11.77343 122.7 21.4)"/><ellipse fill="#fff" rx="1" ry="1" transform="matrix(36.01415 6.74922 -33.09534 176.59819 0 87)"/><ellipse fill="#6b2200" rx="1" ry="1" transform="matrix(5.41209 6.24788 -36.83991 31.91173 68 18.4)"/><path fill="#f9e9d1" d="M215 54l-94 35 53 40z"/></g></svg>