<svg xmlns="http://www.w3.org/2000/svg" viewBox="0 0 900 600"><filter id="c"><feGaussianBlur stdDeviation="55" /></filter><path fill="#e5ccb2" d="M0 0h900v597H0z"/><g filter='url(#c)' fill-opacity='.5'><ellipse fill="#830000" fill-opacity=".5" rx="1" ry="1" transform="matrix(30.41003 94.71617 -127.01568 40.78027 405.8 294.1)"/><ellipse fill="#8b7764" fill-opacity=".5" rx="1" ry="1" transform="matrix(-70.0684 135.51074 -204.44393 -105.71162 161.9 529.6)"/><ellipse fill="#fff" fill-opacity=".5" rx="1" ry="1" transform="rotate(-62.2 420.3 -542.2) scale(206.96796 597.1083)"/><path fill="#f9ffff" fill-opacity=".5" d="M835 349.8l10.5 302.3L385 596z"/><ellipse fill="#ac4200" fill-opacity=".5" rx="1" ry="1" transform="matrix(-28.46573 91.39292 -110.88127 -34.53567 417 302.2)"/><ellipse fill="#fff" fill-opacity=".5" rx="1" ry="1" transform="matrix(115.55005 -65.90859 40.17537 70.43491 201.2 244.9)"/><ellipse fill="#0f0000" fill-opacity=".5" rx="1" ry="1" transform="rotate(124.5 -138.3 307.6) scale(38.94958 255.7352)"/><ellipse fill="#f2a953" fill-opacity=".5" rx="1" ry="1" transform="matrix(-228.80155 364.18068 -72.8284 -45.75545 1.8 199.5)"/></g></svg>