<svg xmlns="http://www.w3.org/2000/svg" viewBox="0 0 900 1350"><filter id="b"><feGaussianBlur stdDeviation="12" /></filter><path fill="#9f876a" d="M0 0h896v1350H0z"/><g filter="url(#b)" transform="translate(2.6 2.6) scale(5.27344)" fill-opacity=".5"><ellipse fill="#fefffb" rx="1" ry="1" transform="matrix(-30.75595 11.68309 -34.63067 -91.16587 17.5 103.8)"/><ellipse rx="1" ry="1" transform="rotate(-26.7 544.8 11.5) scale(49.71706 29.16125)"/><ellipse fill="#fff" rx="1" ry="1" transform="matrix(10.83057 25.8913 -22.37837 9.36107 87.8 138.3)"/><ellipse fill="#361c00" rx="1" ry="1" transform="rotate(174.4 64.9 44.4) scale(91.29989 22.46943)"/><ellipse rx="1" ry="1" transform="matrix(-21.35092 15.79885 -14.4152 -19.48104 108 1.6)"/><ellipse fill="#1a0900" cx="143" cy="252" rx="19" ry="75"/><ellipse fill="#ff4a00" rx="1" ry="1" transform="matrix(24.24405 20.64062 -15.99821 18.79117 134.4 126.8)"/><ellipse fill="#ffffce" rx="1" ry="1" transform="rotate(-10 353.7 -498.1) scale(69.33029 15.22452)"/></g></svg>