<svg xmlns="http://www.w3.org/2000/svg" viewBox="0 0 820 560"><filter id="b"><feGaussianBlur stdDeviation="12" /></filter><path fill="#d7c6ba" d="M0 0h820v557H0z"/><g filter="url(#b)" transform="translate(1.6 1.6) scale(3.20313)" fill-opacity=".5"><ellipse fill="#7e6c6e" rx="1" ry="1" transform="rotate(95.5 116.9 112.7) scale(14.22673 52.82738)"/><ellipse fill="#ca9d80" rx="1" ry="1" transform="matrix(4.62986 -15.1436 110.82935 33.88393 52.1 38.8)"/><ellipse fill="#fde4d8" rx="1" ry="1" transform="matrix(-156.7425 -40.45068 4.11792 -15.95655 199 38.8)"/><ellipse fill="#c3ac99" rx="1" ry="1" transform="matrix(4.97237 -17.41068 98.43481 28.11229 210.4 91.9)"/><ellipse fill="#dedace" rx="1" ry="1" transform="matrix(-38.13377 55.58117 -133.76781 -91.77697 173.6 173)"/><path fill="#a7ab87" d="M189.4 157.6L154 138.8l6.5-12.4 35.3 18.8z"/><ellipse fill="#b0a99e" cx="24" cy="102" rx="26" ry="14"/><ellipse fill="#ffeee4" rx="1" ry="1" transform="matrix(2.70433 -11.32238 30.3589 7.25116 191.3 165.8)"/></g></svg>