<svg xmlns="http://www.w3.org/2000/svg" viewBox="0 0 821 960"><filter id="b"><feGaussianBlur stdDeviation="12" /></filter><path fill="#b8b29f" d="M0 0h821v960H0z"/><g filter="url(#b)" transform="matrix(3.75 0 0 3.75 1.9 1.9)" fill-opacity=".5"><ellipse rx="1" ry="1" transform="matrix(87.18793 2.9918 -.72122 21.018 49.3 87.9)"/><ellipse fill="#fff" rx="1" ry="1" transform="matrix(34.13748 -57.69983 118.21796 69.94238 151.3 197.8)"/><ellipse fill="#020000" rx="1" ry="1" transform="rotate(10 -15 285.2) scale(44.34753 30.01708)"/><ellipse fill="#633b00" rx="1" ry="1" transform="matrix(17.79896 -38.16247 24.10936 11.2446 188.5 57.2)"/><ellipse rx="1" ry="1" transform="rotate(164 -17 120) scale(18.76431 30.59326)"/><ellipse fill="#1d0600" cx="166" cy="11" rx="27" ry="10"/><ellipse fill="#160000" cx="15" cy="93" rx="90" ry="15"/><ellipse fill="#1d0808" cx="130" cy="100" rx="39" ry="8"/></g></svg>