<svg xmlns="http://www.w3.org/2000/svg" viewBox="0 0 820 1230"><filter id="b"><feGaussianBlur stdDeviation="12" /></filter><path fill="#d1d2d5" d="M0 0h816v1230H0z"/><g filter="url(#b)" transform="translate(2.4 2.4) scale(4.80469)" fill-opacity=".5"><ellipse rx="1" ry="1" transform="matrix(2.83002 24.09082 -70.86222 8.3244 95.7 187.8)"/><ellipse fill="#240000" rx="1" ry="1" transform="matrix(5.80168 -35.04511 22.68684 3.75578 120.3 176)"/><path fill="#240000" d="M92 155.5l5.4 3.8-48.3-2.5 24.1-30.9z"/><ellipse fill="#fff" rx="1" ry="1" transform="matrix(48.45258 33.68271 -91.10942 131.06088 32.3 87.8)"/><ellipse fill="#fff" cx="112" cy="235" rx="155" ry="26"/><path fill="#220400" d="M34 189h127v17H34z"/><path fill="#fff" d="M20.3-16L-16 159.8l116.8 30-44.5-40.7z"/><ellipse fill="#fcffff" cx="113" cy="100" rx="57" ry="40"/></g></svg>