<svg xmlns="http://www.w3.org/2000/svg" viewBox="0 0 820 1230"><filter id="c"><feGaussianBlur stdDeviation="55" /></filter><path fill="#b6b5b6" d="M0 0h816v1230H0z"/><g filter='url(#c)' fill-opacity='.5'><ellipse fill-opacity=".5" rx="1" ry="1" transform="matrix(-80.28875 -168.9083 393.41926 -187.00764 664 941.8)"/><ellipse fill="#090000" fill-opacity=".5" rx="1" ry="1" transform="matrix(126.16692 -45.42289 54.36693 151.00996 477.4 592.5)"/><ellipse fill="#fff" fill-opacity=".5" rx="1" ry="1" transform="rotate(-160.1 107 268.3) scale(248.67206 811.99226)"/><ellipse fill="#fff" fill-opacity=".5" rx="1" ry="1" transform="matrix(-139.13704 -308.14676 164.98562 -74.4957 660.2 320)"/><ellipse fill="#170000" fill-opacity=".5" rx="1" ry="1" transform="rotate(-125.1 567 275.2) scale(122.39325 405.23976)"/><path fill="#32322a" fill-opacity=".5" d="M16.2 586.1L-32 526.4l145.6-118 48.4 59.8z"/><ellipse fill="#fff" fill-opacity=".5" rx="1" ry="1" transform="matrix(-125.21874 -540.85949 98.3551 -22.77098 119.2 1138.6)"/><path fill="#fff" fill-opacity=".5" d="M-255.3 226l804-113L587 384.2l-804.1 113z"/></g></svg>