<svg xmlns="http://www.w3.org/2000/svg" viewBox="0 0 900 1350"><filter id="b"><feGaussianBlur stdDeviation="12" /></filter><path fill="#bda38d" d="M0 0h896v1350H0z"/><g filter="url(#b)" transform="translate(2.6 2.6) scale(5.27344)" fill-opacity=".5"><ellipse fill="#fff" rx="1" ry="1" transform="matrix(49.12357 3.95231 -9.90679 123.13217 19.1 62.3)"/><ellipse fill="#74411c" cx="165" cy="113" rx="84" ry="118"/><ellipse fill="#f5ffff" rx="1" ry="1" transform="matrix(5.66827 -14.05778 89.65 36.148 135.6 251)"/><ellipse fill="#fff" rx="1" ry="1" transform="matrix(-40.03713 3.20264 -7.9833 -99.80137 0 81.9)"/><ellipse fill="#63381c" cx="161" cy="87" rx="22" ry="111"/><path fill="#ffe1c2" d="M95.3 178.7l26.9-15.5 18.5 32-26.9 15.6z"/><ellipse fill="#543521" rx="1" ry="1" transform="matrix(5.59963 8.827 -23.28736 14.77291 89.1 45.9)"/><ellipse fill="#833800" rx="1" ry="1" transform="matrix(23.42847 1.42867 -.55698 9.13384 71.8 188)"/></g></svg>