<svg xmlns="http://www.w3.org/2000/svg" viewBox="0 0 600 900"><filter id="b"><feGaussianBlur stdDeviation="12" /></filter><path fill="#3c2c21" d="M0 0h597v900H0z"/><g filter="url(#b)" transform="translate(1.8 1.8) scale(3.51563)" fill-opacity=".5"><ellipse fill="#dca97c" rx="1" ry="1" transform="matrix(31.25673 56.85579 -35.5107 19.52218 52.3 213.6)"/><path fill="#eec7a8" d="M78.9 143.4L-16 185.6l111.6-20.3 59.6 1.2z"/><ellipse fill="#000002" cx="68" cy="60" rx="169" ry="84"/><path d="M15.3 193.4l29.3 13-18 40.2-29.2-13z"/><path fill="#ffcb86" d="M105.9 110l-20.5 10.3-7.3-14.2 20.5-10.4z"/><ellipse fill="#e5b98b" rx="1" ry="1" transform="rotate(-68 211 94.8) scale(74.76292 14.88642)"/><ellipse fill="#ebdfcd" rx="1" ry="1" transform="matrix(2.01923 10.58517 -42.647 8.13535 0 182.4)"/><path fill="#d07d5c" d="M151 58l21-63 13 53z"/></g></svg>