<svg xmlns="http://www.w3.org/2000/svg" viewBox="0 0 900 600"><filter id="b"><feGaussianBlur stdDeviation="12" /></filter><path fill="#6b4d4b" d="M0 0h900v597H0z"/><g filter="url(#b)" transform="translate(1.8 1.8) scale(3.51563)" fill-opacity=".5"><ellipse fill="#fff" rx="1" ry="1" transform="matrix(11.51229 37.18578 -65.19902 20.18486 222.7 40.3)"/><ellipse cx="182" cy="169" rx="72" ry="72"/><ellipse fill="#ff92b2" rx="1" ry="1" transform="matrix(51.85109 -14.98654 9.22483 31.91646 98.5 111.7)"/><path d="M130.1 5.1l-8.6 49.2L-34.1 27l8.6-49.2z"/><ellipse cx="65" cy="160" rx="163" ry="12"/><ellipse fill="#ff5ea3" rx="1" ry="1" transform="matrix(-19.43293 4.92071 -6.01698 -23.76233 147.8 33.5)"/><ellipse rx="1" ry="1" transform="matrix(-30.11327 2.36568 -1.64026 -20.8793 18.8 72.4)"/><path fill="#c2e1db" d="M245 79h11v78h-11z"/></g></svg>