<svg xmlns="http://www.w3.org/2000/svg" viewBox="0 0 900 1350"><filter id="b"><feGaussianBlur stdDeviation="12" /></filter><path fill="#a59384" d="M0 0h896v1350H0z"/><g filter="url(#b)" transform="translate(2.6 2.6) scale(5.27344)" fill-opacity=".5"><ellipse fill="#070000" rx="1" ry="1" transform="matrix(-49.04346 -10.70413 9.88963 -45.31164 94.4 159.8)"/><ellipse fill="#fff" rx="1" ry="1" transform="matrix(-65.29764 -150.5704 46.29324 -20.07592 147.4 44.3)"/><ellipse fill="#fff" rx="1" ry="1" transform="rotate(-63 208 90) scale(38.55608 55.42601)"/><ellipse fill="#a82f00" rx="1" ry="1" transform="rotate(160.6 2.8 78.2) scale(26.3778 50.60998)"/><ellipse fill="#f6ffff" cx="163" cy="216" rx="169" ry="14"/><ellipse rx="1" ry="1" transform="matrix(-3.65693 -7.59373 65.72103 -31.64946 136.3 246.5)"/><ellipse fill="#3f360e" rx="1" ry="1" transform="matrix(37.716 -1.53545 .46534 11.43035 115 43)"/><ellipse fill="#7a4b21" rx="1" ry="1" transform="matrix(93.3489 -131.35467 22.33467 15.87243 26.3 37)"/></g></svg>