<svg xmlns="http://www.w3.org/2000/svg" viewBox="0 0 900 600"><filter id="b"><feGaussianBlur stdDeviation="12" /></filter><path fill="#58282a" d="M0 0h900v597H0z"/><g filter="url(#b)" transform="translate(1.8 1.8) scale(3.51563)" fill-opacity=".5"><ellipse fill="#ff69c3" rx="1" ry="1" transform="matrix(41.17327 -10.49465 8.57773 33.65269 120.8 75)"/><ellipse rx="1" ry="1" transform="rotate(162.3 101.3 82) scale(107.20917 46.9422)"/><ellipse fill="#ff4473" cx="126" cy="77" rx="42" ry="39"/><ellipse fill="#ff9fcf" rx="1" ry="1" transform="matrix(-10.19178 -15.96248 22.10691 -14.1149 109 63.9)"/><ellipse fill="#190c00" rx="1" ry="1" transform="matrix(25.30202 182.73783 -33.85311 4.68733 243.3 20.5)"/><ellipse fill="#ad0009" rx="1" ry="1" transform="rotate(64.9 -15.4 160.4) scale(17.90862 31.60723)"/><path fill="#6e5559" d="M21 12L88-9 76 158z"/><ellipse fill="#1a1406" cx="13" cy="160" rx="40" ry="73"/></g></svg>