<svg xmlns="http://www.w3.org/2000/svg" viewBox="0 0 821 326"><filter id="c"><feGaussianBlur stdDeviation="55" /></filter><path fill="#b29d88" d="M0 0h821v323H0z"/><g filter='url(#c)' fill-opacity='.5'><ellipse fill-opacity=".5" rx="1" ry="1" transform="matrix(93.438 8.77887 -9.3109 99.10065 232.2 169.9)"/><ellipse fill="#3a0000" fill-opacity=".5" rx="1" ry="1" transform="rotate(102.8 257.6 324.7) scale(93.06093 60.43224)"/><path fill="#fffff8" fill-opacity=".5" d="M607.7 354.4l263-189.2L78.6 303z"/><ellipse fill="#fff" fill-opacity=".5" rx="1" ry="1" transform="rotate(83.8 -74 68) scale(162.99051 67.76513)"/><ellipse fill="#e4f1ff" fill-opacity=".5" rx="1" ry="1" transform="matrix(19.3238 74.71956 -135.75333 35.1082 521.8 26.5)"/><ellipse fill="#8f4d1c" fill-opacity=".5" rx="1" ry="1" transform="matrix(76.44557 76.34163 -42.52753 42.58544 417.4 184.8)"/><path fill-opacity=".5" d="M335.1 264.6v57.7l131.5 35.3z"/><ellipse fill="#3a0800" fill-opacity=".5" rx="1" ry="1" transform="matrix(29.3974 -22.54455 123.3315 160.8205 173.8 84.2)"/></g></svg>