<svg xmlns="http://www.w3.org/2000/svg" viewBox="0 0 600 900"><filter id="c"><feGaussianBlur stdDeviation="55" /></filter><path fill="#1b140e" d="M0 0h597v900H0z"/><g filter='url(#c)' fill-opacity='.5'><path fill="#ffe65f" fill-opacity=".5" d="M323.5 663.9l-19.1-71.3L362 577l19 71.3z"/><ellipse fill="#988473" fill-opacity=".5" rx="1" ry="1" transform="matrix(-1.49858 -22.56225 105.09543 -6.98043 20.4 102.1)"/><path fill="#383a39" fill-opacity=".5" d="M437.7 599.4l-211 144.2 235.6 210.9z"/><ellipse fill="#000101" fill-opacity=".5" rx="1" ry="1" transform="matrix(-225.56128 200.26267 -143.09185 -161.16823 454.5 259.8)"/><path fill="#ecc2b1" fill-opacity=".5" d="M44 240.8l-24.7 10.6-35.1-42.2z"/><ellipse fill="#664430" fill-opacity=".5" rx="1" ry="1" transform="matrix(-45.14374 51.93194 -25.68131 -22.32442 259.3 541.8)"/><path fill="#67513e" fill-opacity=".5" d="M550.2 494h21v326.9h-21z"/><path fill="#ffaa52" fill-opacity=".5" d="M336 665.4l-35.3-56.7 41.7-26 35.4 56.6z"/></g></svg>