<svg xmlns="http://www.w3.org/2000/svg" viewBox="0 0 821 963"><filter id="b"><feGaussianBlur stdDeviation="12" /></filter><path fill="#99867a" d="M0 0h820v963H0z"/><g filter="url(#b)" transform="translate(1.9 1.9) scale(3.76172)" fill-opacity=".5"><ellipse rx="1" ry="1" transform="matrix(-8.14383 40.38489 -127.37655 -25.68617 165 216.3)"/><ellipse rx="1" ry="1" transform="matrix(38.1858 -24.53313 19.42779 30.23934 175 56.3)"/><ellipse fill="#fffdf6" cx="117" cy="129" rx="217" ry="24"/><ellipse fill="#fff" rx="1" ry="1" transform="rotate(133.9 -37.3 122.6) scale(31.71473 69.26241)"/><ellipse fill="#fff" rx="1" ry="1" transform="matrix(-20.27501 -3.34532 10.74602 -65.12842 18.3 14.8)"/><path fill="#fff" d="M114-16L70 141l72-93zm27.5 287l1-32.2-158.5-.7v17.1z"/><ellipse rx="1" ry="1" transform="matrix(71.86604 .9932 -.2726 19.7255 177.7 195.6)"/></g></svg>