<svg xmlns="http://www.w3.org/2000/svg" viewBox="0 0 547 821"><filter id="c"><feGaussianBlur stdDeviation="55" /></filter><path fill="#392618" d="M0 0h545v821H0z"/><g filter='url(#c)' fill-opacity='.5'><ellipse fill="#daa477" fill-opacity=".5" rx="1" ry="1" transform="matrix(-95.30715 214.30874 -89.90536 -39.98262 515.4 641.9)"/><path fill-opacity=".5" d="M-126.9 55.7L372.6-87.5l116.6 407-499.4 143.2z"/><path fill="#dfc296" fill-opacity=".5" d="M194 710.4l205.3 9.6 195.6-150.8z"/><path fill="#ba9d74" fill-opacity=".5" d="M147 558L37.5 486.6l-14 129.1L264.3 354z"/><ellipse fill="#81401b" fill-opacity=".5" rx="1" ry="1" transform="rotate(-97.6 384.2 61) scale(98.85858 169.17997)"/><path fill="#0a0000" fill-opacity=".5" d="M463.3 621.7l40-75.4-425.6-25.8L151.1 666z"/><ellipse fill="#dac7a5" fill-opacity=".5" rx="1" ry="1" transform="matrix(-44.34796 -14.47502 31.85483 -97.59548 543.6 564)"/><ellipse fill="#7d531f" fill-opacity=".5" rx="1" ry="1" transform="matrix(40.31834 21.72229 -75.60155 140.32265 407.1 1.6)"/></g></svg>