<svg xmlns="http://www.w3.org/2000/svg" viewBox="0 0 900 600"><filter id="b"><feGaussianBlur stdDeviation="12" /></filter><path fill="#dfcccc" d="M0 0h900v597H0z"/><g filter="url(#b)" transform="translate(1.8 1.8) scale(3.51563)" fill-opacity=".5"><ellipse fill="#a90000" rx="1" ry="1" transform="rotate(-118.1 34.8 28) scale(10.07499 23.62634)"/><ellipse fill="#d73e3f" rx="1" ry="1" transform="rotate(-39.2 231 -183.7) scale(14.96973 45.11808)"/><ellipse fill="#98726f" rx="1" ry="1" transform="matrix(-96.65067 24.27697 -3.3537 -13.35163 161.1 152.9)"/><ellipse fill="#fbffff" rx="1" ry="1" transform="rotate(16.2 -39.4 778.4) scale(108.74151 35.31862)"/><ellipse fill="#a60000" rx="1" ry="1" transform="rotate(163.3 38.5 30.3) scale(23.14644 6.20194)"/><ellipse fill="#f8ffff" rx="1" ry="1" transform="matrix(-21.18006 -28.57504 66.19803 -49.06653 43.4 125)"/><ellipse fill="#eb615e" cx="161" cy="85" rx="23" ry="26"/><path fill="#b00000" d="M67 47L54 69l54-28z"/></g></svg>