<svg xmlns="http://www.w3.org/2000/svg" viewBox="0 0 1200 800"><filter id="b"><feGaussianBlur stdDeviation="12" /></filter><path fill="#543e29" d="M0 0h1200v796H0z"/><g filter="url(#b)" transform="translate(2.3 2.3) scale(4.6875)" fill-opacity=".5"><ellipse fill="#fff4b9" rx="1" ry="1" transform="matrix(24.2773 21.15543 -33.91281 38.91727 14.8 121.8)"/><path fill="#d5ceca" d="M143 32l33.8 4.2L173 68l-33.7-4.2z"/><ellipse fill="#00000b" rx="1" ry="1" transform="rotate(50.5 -47.6 144.9) scale(28.81423 46.63734)"/><ellipse cx="139" cy="154" rx="93" ry="12"/><path fill="#ffe298" d="M203 75h25v38h-25z"/><ellipse fill="#0f0000" rx="1" ry="1" transform="rotate(141.8 113 53.3) scale(61.09371 37.06954)"/><path fill="#e1bc7d" d="M159.3 121.3l-23.8-32.7-10.2 17.4 26 43.7z"/><ellipse fill="#9d8e67" rx="1" ry="1" transform="matrix(16.83055 19.72956 -13.62403 11.62215 243 149)"/></g></svg>