<svg xmlns="http://www.w3.org/2000/svg" viewBox="0 0 900 600"><filter id="b"><feGaussianBlur stdDeviation="12" /></filter><path fill="#5a2d30" d="M0 0h900v597H0z"/><g filter="url(#b)" transform="translate(1.8 1.8) scale(3.51563)" fill-opacity=".5"><ellipse fill="#ff5897" rx="1" ry="1" transform="matrix(-65.32323 29.10076 -18.13203 -40.70144 125.4 97.6)"/><path d="M234.2 34.4l80.6 48.4-87 144.8-80.6-48.4z"/><ellipse fill="#000700" cx="31" cy="146" rx="41" ry="41"/><ellipse fill="#b47f76" rx="1" ry="1" transform="matrix(27.91168 25.8465 -30.30913 32.73088 196.7 3.6)"/><path d="M151.2 43.5L65.2 30l7.6-47.4 86 13.6z"/><ellipse fill="#add3c2" rx="1" ry="1" transform="matrix(-6.75958 -2.22754 11.4753 -34.82234 32.6 30.9)"/><ellipse fill="#e8366c" rx="1" ry="1" transform="rotate(97.3 13.5 105.4) scale(41.26376 62.99869)"/><ellipse rx="1" ry="1" transform="matrix(-13.9776 -4.05445 25.67586 -88.51678 9.7 23.3)"/></g></svg>