<svg xmlns="http://www.w3.org/2000/svg" viewBox="0 0 1200 800"><filter id="b"><feGaussianBlur stdDeviation="12" /></filter><path fill="#604228" d="M0 0h1200v796H0z"/><g filter="url(#b)" transform="translate(2.3 2.3) scale(4.6875)" fill-opacity=".5"><ellipse fill="#f0dbb2" cx="67" cy="157" rx="90" ry="23"/><ellipse rx="1" ry="1" transform="matrix(-3.71447 60.14563 -29.57063 -1.82622 186.2 134)"/><ellipse fill="#fff4d2" rx="1" ry="1" transform="rotate(119.5 40.9 90.9) scale(14.6478 21.48337)"/><path fill="#bfa493" d="M166.7 53l-8.4 18.9 28.6 5.5 27.6-53z"/><ellipse fill="#270700" rx="1" ry="1" transform="matrix(-8.61462 -56.18691 23.15608 -3.5503 238.4 44)"/><ellipse fill="#b3865c" rx="1" ry="1" transform="matrix(-31.7682 37.19577 -12.37893 -10.5726 59.7 108.7)"/><path fill="#e5d0b7" d="M154 157l2-28-91 25z"/><path fill="#130200" d="M87.3 138.4l-5.4-50.7 38.8-4.1 5.4 50.7z"/></g></svg>