<svg xmlns="http://www.w3.org/2000/svg" viewBox="0 0 900 1350"><filter id="b"><feGaussianBlur stdDeviation="12" /></filter><path fill="#ddcfbd" d="M0 0h896v1350H0z"/><g filter="url(#b)" transform="translate(2.6 2.6) scale(5.27344)" fill-opacity=".5"><ellipse fill="#772700" rx="1" ry="1" transform="matrix(-52.14405 32.32981 -22.13989 -35.70895 85.3 178.6)"/><ellipse fill="#fff" cx="97" cy="31" rx="169" ry="61"/><path fill="#100" d="M26.6 126.6L-11 147.4l-15.6-28L11 98.6z"/><ellipse fill="#260000" rx="1" ry="1" transform="matrix(-8.81832 15.5114 -30.23846 -17.19073 69.3 177.8)"/><ellipse fill="#225000" rx="1" ry="1" transform="matrix(2.0702 -9.0412 15.1704 3.47361 119 98.6)"/><ellipse fill="#89624a" rx="1" ry="1" transform="matrix(-39.32268 25.3338 -6.4436 -10.00165 113.5 224.4)"/><ellipse fill="#e39d12" rx="1" ry="1" transform="matrix(20.29058 34.70964 -28.10085 16.4272 109.9 156.8)"/><ellipse fill="#fff" rx="1" ry="1" transform="matrix(-9.70276 -165.6251 19.30128 -1.13072 157.8 114)"/></g></svg>