<svg xmlns="http://www.w3.org/2000/svg" viewBox="0 0 800 1200"><filter id="b"><feGaussianBlur stdDeviation="12" /></filter><path fill="#ced6d9" d="M0 0h796v1200H0z"/><g filter="url(#b)" transform="translate(2.3 2.3) scale(4.6875)" fill-opacity=".5"><ellipse fill="#324052" rx="1" ry="1" transform="matrix(-4.99345 34.98766 -39.42458 -5.6267 86.2 214)"/><ellipse fill="#455841" cx="157" cy="120" rx="109" ry="17"/><ellipse fill="#fff" rx="1" ry="1" transform="matrix(11.05305 59.19535 -166.12877 31.01984 58.4 48.7)"/><path fill="#485765" d="M18 213h152v21H18z"/><ellipse fill="#2b3e5e" rx="1" ry="1" transform="matrix(8.69915 -4.17114 18.73588 39.07471 157.4 123.4)"/><ellipse fill="#fff" rx="1" ry="1" transform="matrix(-39.31605 -65.51376 25.44336 -15.26905 11.7 150.1)"/><path fill="#002e00" d="M27 54h22v9H27z"/><ellipse fill="#fff" rx="1" ry="1" transform="rotate(57.2 -39.2 168.1) scale(50.81428 8.13219)"/></g></svg>