<svg xmlns="http://www.w3.org/2000/svg" viewBox="0 0 800 1200"><filter id="c"><feGaussianBlur stdDeviation="55" /></filter><path fill="#ced6dd" d="M0 0h796v1200H0z"/><g filter='url(#c)' fill-opacity='.5'><ellipse fill="#3d586a" fill-opacity=".5" rx="1" ry="1" transform="matrix(125.27374 24.52205 -129.76464 662.91783 417.1 1024.5)"/><path fill="#261b2f" fill-opacity=".5" d="M611.7 114.8h187.5v234.4H611.7z"/><path fill="#fff" fill-opacity=".5" d="M-72.7-72.7l32.9 1345.4L724.2-68z"/><ellipse fill="#fff" fill-opacity=".5" rx="1" ry="1" transform="matrix(-166.54809 -34.49045 69.16295 -333.97523 690 747.1)"/><path fill="#000012" fill-opacity=".5" d="M607 518l-75-173.5-42.2 356.3z"/><path fill="#010" fill-opacity=".5" d="M370.1 821.3l-82.6 49-20.1 53.9 253.7-55z"/><ellipse fill="#bcccd2" fill-opacity=".5" rx="1" ry="1" transform="matrix(122.90267 64.49344 -132.46452 252.43254 341.4 608.1)"/><ellipse fill="#4e607b" fill-opacity=".5" rx="1" ry="1" transform="rotate(-72.1 979.4 265.8) scale(94.75373 179.59355)"/></g></svg>