<svg xmlns="http://www.w3.org/2000/svg" viewBox="0 0 800 1200"><filter id="b"><feGaussianBlur stdDeviation="12" /></filter><path fill="#d9dfe1" d="M0 0h796v1200H0z"/><g filter="url(#b)" transform="translate(2.3 2.3) scale(4.6875)" fill-opacity=".5"><ellipse fill="#5a5d54" rx="1" ry="1" transform="matrix(43.8757 82.32597 -34.28465 18.27203 103.4 213.7)"/><ellipse fill="#958056" cx="94" cy="165" rx="49" ry="35"/><ellipse fill="#fff" rx="1" ry="1" transform="rotate(23.7 -78.2 326) scale(169 73.3778)"/><ellipse fill="#effeff" rx="1" ry="1" transform="matrix(-168.99588 1.17983 -.0976 -13.97917 40 213)"/><path fill="#001a40" d="M75 228h41v17H75z"/><ellipse fill="#fff" rx="1" ry="1" transform="matrix(-27.31105 -166.77862 33.10528 -5.4212 11.3 190.6)"/><path fill="#185a00" d="M38 111h19l1-16z"/><ellipse fill="#eef7ff" rx="1" ry="1" transform="matrix(10.0671 -34.8783 23.98768 6.92369 151.1 180.7)"/></g></svg>