<svg xmlns="http://www.w3.org/2000/svg" viewBox="0 0 900 1350"><filter id="b"><feGaussianBlur stdDeviation="12" /></filter><path fill="#5f5153" d="M0 0h896v1350H0z"/><g filter="url(#b)" transform="translate(2.6 2.6) scale(5.27344)" fill-opacity=".5"><ellipse fill="#fffaff" rx="1" ry="1" transform="matrix(62.5422 -13.26867 9.88438 46.59024 113.8 155.1)"/><ellipse rx="1" ry="1" transform="matrix(-42.58922 -56.91915 43.71363 -32.70831 45.7 48.8)"/><ellipse fill="#fff" rx="1" ry="1" transform="matrix(-16.89812 -26.35392 12.80768 -8.21228 113.1 30.3)"/><ellipse cx="145" cy="85" rx="49" ry="31"/><ellipse rx="1" ry="1" transform="matrix(28.9171 -5.15092 7.1227 39.98656 27.3 181.6)"/><ellipse fill="#fff" rx="1" ry="1" transform="matrix(12.62546 10.82698 -14.83746 17.30211 169 29.9)"/><ellipse fill="#fff3fb" rx="1" ry="1" transform="matrix(68.8008 -26.82431 9.3636 24.01641 148.2 146.6)"/><path fill="#e48cae" d="M66 105h52v121H66z"/></g></svg>