<svg xmlns="http://www.w3.org/2000/svg" viewBox="0 0 900 600"><filter id="c"><feGaussianBlur stdDeviation="55" /></filter><path fill="#2a231d" d="M0 0h900v597H0z"/><g filter='url(#c)' fill-opacity='.5'><ellipse fill="#fff" fill-opacity=".5" rx="1" ry="1" transform="matrix(22.74905 14.92604 -95.631 145.75293 76.1 201.8)"/><ellipse fill="#8d897d" fill-opacity=".5" rx="1" ry="1" transform="matrix(-27.63924 47.72695 -169.13932 -97.9506 188.1 402.8)"/><path fill="#f4b696" fill-opacity=".5" d="M539.6 346.3H420.1L378 170.5z"/><ellipse fill="#a18c77" fill-opacity=".5" rx="1" ry="1" transform="matrix(-184.93247 -86.0282 19.13303 -41.12976 667.6 150.9)"/><path fill-opacity=".5" d="M424.6 569.3l169.5-347.6 461.4 225-169.6 347.6z"/><path fill="#fff" fill-opacity=".5" d="M160 54.5l-183 246 116-77.3z"/><ellipse fill-opacity=".5" rx="1" ry="1" transform="rotate(175.7 170.8 13.1) scale(810.73835 57.53936)"/><ellipse fill-opacity=".5" rx="1" ry="1" transform="matrix(-12.2337 79.2899 -586.64254 -90.51355 33.6 543.8)"/></g></svg>