<svg xmlns="http://www.w3.org/2000/svg" viewBox="0 0 900 1350"><filter id="b"><feGaussianBlur stdDeviation="12" /></filter><path fill="#7e505f" d="M0 0h896v1350H0z"/><g filter="url(#b)" transform="translate(2.6 2.6) scale(5.27344)" fill-opacity=".5"><ellipse fill="#ffdcff" rx="1" ry="1" transform="matrix(26.8263 65.9698 -50.14546 20.3914 114.9 164)"/><ellipse rx="1" ry="1" transform="rotate(92.9 27.7 59.3) scale(51.56599 127.91261)"/><ellipse cx="12" cy="183" rx="18" ry="35"/><ellipse fill="#e94e8f" rx="1" ry="1" transform="matrix(-12.81602 -73.99018 31.81145 -5.51014 62.2 184.1)"/><ellipse rx="1" ry="1" transform="matrix(1.03779 -31.28375 168.90707 5.60322 106.6 45.2)"/><path fill="#d2fff8" d="M26.1 124.3l-28.8 3-5.4-51.6 28.8-3z"/><ellipse fill="#fcdee7" rx="1" ry="1" transform="rotate(167.2 52 86.8) scale(42.14984 29.73875)"/><path fill="#cff0e7" d="M-6.5 225.2l44.2-8.3-12.3 11.5L-16 257z"/></g></svg>