<svg xmlns="http://www.w3.org/2000/svg" viewBox="0 0 900 600"><filter id="b"><feGaussianBlur stdDeviation="12" /></filter><path fill="#53413a" d="M0 0h900v597H0z"/><g filter="url(#b)" transform="translate(1.8 1.8) scale(3.51563)" fill-opacity=".5"><ellipse fill="#f6e4dc" rx="1" ry="1" transform="matrix(51.9213 27.25929 -23.92584 45.572 115.8 105.3)"/><ellipse fill="#fff" rx="1" ry="1" transform="matrix(17.40863 -7.8603 12.3718 27.40052 204 85.3)"/><ellipse rx="1" ry="1" transform="matrix(-17.64363 -13.77441 18.93213 -24.25014 111.1 112)"/><ellipse rx="1" ry="1" transform="matrix(-65.34528 -209.79954 30.46741 -9.48954 239.2 33.2)"/><ellipse fill="#070000" rx="1" ry="1" transform="matrix(19.40212 -252.15309 36.70438 2.82425 29.7 59.1)"/><ellipse cx="224" cy="147" rx="59" ry="42"/><ellipse fill="#fff" rx="1" ry="1" transform="matrix(39.56516 -2.3999 .88193 14.53956 110.7 74.1)"/><path fill="#e1e2e2" d="M87 79l-51 33 47 34z"/></g></svg>