<svg xmlns="http://www.w3.org/2000/svg" viewBox="0 0 600 900"><filter id="b"><feGaussianBlur stdDeviation="12" /></filter><path fill="#8f877e" d="M0 0h597v900H0z"/><g filter="url(#b)" transform="translate(1.8 1.8) scale(3.51563)" fill-opacity=".5"><ellipse rx="1" ry="1" transform="rotate(166.9 52 115.6) scale(169 49.03201)"/><ellipse fill="#ecffff" rx="1" ry="1" transform="matrix(-2.41755 84.55566 -97.58456 -2.79007 53 62.5)"/><path fill="#260400" d="M179 259l-98 4L185 34z"/><ellipse fill="#9c5519" rx="1" ry="1" transform="matrix(24.77805 33.11989 -41.00338 30.67594 59.8 189.7)"/><path fill="#d0d1cd" d="M162 124L34 22l80 160z"/><ellipse fill="#f4ffff" rx="1" ry="1" transform="matrix(-15.21097 -5.25551 17.9304 -51.89573 0 179)"/><path fill="#ffbc77" d="M73.5 193.6l-1 32-32-1.2 1-32z"/><ellipse fill="#190600" cx="105" cy="251" rx="107" ry="28"/></g></svg>