<svg xmlns="http://www.w3.org/2000/svg" viewBox="0 0 900 600"><filter id="b"><feGaussianBlur stdDeviation="12" /></filter><path fill="#e1d7cc" d="M0 0h900v597H0z"/><g filter="url(#b)" transform="translate(1.8 1.8) scale(3.51563)" fill-opacity=".5"><ellipse fill="#955823" rx="1" ry="1" transform="matrix(-10.12376 34.27397 -71.3961 -21.0888 179.9 128.5)"/><ellipse fill="#fff" rx="1" ry="1" transform="rotate(123.3 26 26) scale(255 71.83911)"/><ellipse fill="#501900" cx="139" cy="61" rx="18" ry="13"/><ellipse fill="#fff" rx="1" ry="1" transform="matrix(-5.323 38.62733 -235.61588 -32.46886 104.3 6)"/><ellipse rx="1" ry="1" transform="rotate(152.8 36.3 66.7) scale(26.2287 4.97029)"/><path fill="#fff" d="M217 139.2l-125.4 4.4 103.1-16.8L265 87z"/><ellipse fill="#210600" rx="1" ry="1" transform="matrix(-.3576 -5.1139 43.53164 -3.04403 188.8 159.6)"/><ellipse fill="#9d3a00" rx="1" ry="1" transform="rotate(-82.3 148.1 -41.8) scale(11.93655 41.7116)"/></g></svg>