<svg xmlns="http://www.w3.org/2000/svg" viewBox="0 0 600 900"><filter id="b"><feGaussianBlur stdDeviation="12" /></filter><path fill="#483527" d="M0 0h597v900H0z"/><g filter="url(#b)" transform="translate(1.8 1.8) scale(3.51563)" fill-opacity=".5"><ellipse fill="#dda97f" rx="1" ry="1" transform="matrix(-23.61282 80.74954 -36.97901 -10.81342 61.5 148.7)"/><ellipse fill="#fff0d0" rx="1" ry="1" transform="rotate(-16.9 425.4 3.6) scale(46.94777 12.06365)"/><ellipse rx="1" ry="1" transform="rotate(-86 63.7 -32.3) scale(44.94394 169)"/><ellipse fill="#f8dab1" rx="1" ry="1" transform="matrix(12.36965 8.438 -22.04662 32.31913 48.7 182.3)"/><path d="M25 195l-41-27 64-26z"/><ellipse fill="#1f1108" cx="148" cy="222" rx="65" ry="65"/><path fill="#5c280b" d="M72 105h49v66H72z"/><ellipse rx="1" ry="1" transform="rotate(-46.5 107.7 14.7) scale(19.85416 31.49498)"/></g></svg>