<svg xmlns="http://www.w3.org/2000/svg" viewBox="0 0 821 547"><filter id="c"><feGaussianBlur stdDeviation="55" /></filter><path fill="#4a4242" d="M0 0h821v545H0z"/><g filter='url(#c)' fill-opacity='.5'><ellipse fill="#cf946a" fill-opacity=".5" rx="1" ry="1" transform="matrix(103.4044 69.90416 -141.23626 208.92107 412.4 287.3)"/><ellipse fill="#0c0d0d" fill-opacity=".5" rx="1" ry="1" transform="rotate(.4 -26643.4 100295) scale(117.75775 503.7151)"/><ellipse fill="#4ea4fa" fill-opacity=".5" rx="1" ry="1" transform="rotate(24.9 -478.3 489.7) scale(115.38339 36.21253)"/><ellipse fill="#091119" fill-opacity=".5" rx="1" ry="1" transform="matrix(93.15042 -4.85252 38.8499 745.77484 16 173.6)"/><path fill="#64c0ff" fill-opacity=".5" d="M419.6 524.3l217.3-19 5 57.5-217.2 19z"/><ellipse fill="#4ea8f8" fill-opacity=".5" rx="1" ry="1" transform="matrix(-109.05337 42.97934 -8.03272 -20.38178 237.8 101.6)"/><path fill="#ffdda4" fill-opacity=".5" d="M207.4 334.5L237 408l87.3 93.7 71 29.4z"/><path fill="#131621" fill-opacity=".5" d="M262.4 177.4L394 473.3l-44 19.6-131.7-296z"/></g></svg>