<svg xmlns="http://www.w3.org/2000/svg" viewBox="0 0 800 1200"><filter id="c"><feGaussianBlur stdDeviation="55" /></filter><path fill="#553b2a" d="M0 0h796v1200H0z"/><g filter='url(#c)' fill-opacity='.5'><path fill="#ffffea" fill-opacity=".5" d="M84.7 792.3L208 763.8l40.1 173.6-123.3 28.5z"/><ellipse fill-opacity=".5" rx="1" ry="1" transform="matrix(-69.02839 -163.8409 224.5292 -94.59719 237.2 1191.7)"/><ellipse fill-opacity=".5" rx="1" ry="1" transform="rotate(130.8 360.8 217.7) scale(155.54352 289.34844)"/><path fill="#95603c" fill-opacity=".5" d="M-72.7 977.3l572-487.5L21-72.7z"/><ellipse fill="#020307" fill-opacity=".5" rx="1" ry="1" transform="rotate(93.3 -131.5 838.1) scale(253.4297 148.26015)"/><path fill="#fffff3" fill-opacity=".5" d="M471 724.2l89.2 32.8-93.8 150z"/><ellipse fill-opacity=".5" rx="1" ry="1" transform="rotate(29.9 -1425.8 1097.8) scale(130.94861 79.87977)"/><ellipse fill="#6ba7f3" fill-opacity=".5" rx="1" ry="1" transform="matrix(81.34706 -36.45121 15.2332 33.99548 97.5 1019.7)"/></g></svg>