<svg xmlns="http://www.w3.org/2000/svg" viewBox="0 0 408 200"><filter id="b"><feGaussianBlur stdDeviation="12" /></filter><path fill="#d1a39f" d="M0 0h408v199H0z"/><g filter="url(#b)" transform="translate(.8 .8) scale(1.59375)" fill-opacity=".5"><ellipse fill="#180009" rx="1" ry="1" transform="rotate(-16 347.1 -664.4) scale(43.46189 37.14994)"/><ellipse fill="#ffffc4" rx="1" ry="1" transform="rotate(-124.7 31.4 2.4) scale(45.89144 111.94318)"/><ellipse fill="#e16100" rx="1" ry="1" transform="rotate(157.3 29.5 49.6) scale(38.48986 22.64862)"/><ellipse fill="#fafcff" rx="1" ry="1" transform="matrix(10.35462 19.45316 -129.4106 68.8833 220.4 124)"/><ellipse fill="#fffdff" rx="1" ry="1" transform="matrix(13.32323 2.8234 -12.44217 58.71282 122.4 89.4)"/><path fill="#fff" d="M217.5 16.3L271 40l-19.3 39.8L233 43z"/><ellipse fill="#31000d" cx="165" cy="51" rx="22" ry="13"/><ellipse fill="#ed6000" cx="31" cy="103" rx="17" ry="15"/></g></svg>