<svg xmlns="http://www.w3.org/2000/svg" viewBox="0 0 400 900"><filter id="b"><feGaussianBlur stdDeviation="12" /></filter><path fill="#c1c1c5" d="M0 0h397v900H0z"/><g filter="url(#b)" transform="translate(1.8 1.8) scale(3.51563)" fill-opacity=".5"><ellipse fill="#010000" rx="1" ry="1" transform="matrix(26.38343 3.54197 -2.46425 18.35574 58.3 79.9)"/><ellipse cx="27" cy="218" rx="24" ry="23"/><ellipse rx="1" ry="1" transform="matrix(3.71507 12.01681 -26.8766 8.30906 100.7 238.7)"/><ellipse fill="#fff" rx="1" ry="1" transform="matrix(-30.30725 107.82148 -27.04179 -7.6011 8 76.7)"/><ellipse cx="59" cy="161" rx="31" ry="6"/><ellipse fill="#f8ffff" rx="1" ry="1" transform="matrix(-19.77408 17.3109 -73.77323 -84.27048 80.1 33.9)"/><ellipse fill="#2d1005" rx="1" ry="1" transform="matrix(-11.37494 -21.49347 9.37638 -4.96224 95.7 223.4)"/><path fill="#fff" d="M116.8 182l-5.6 28.5L5.2 190l5.6-28.4z"/></g></svg>