<svg xmlns="http://www.w3.org/2000/svg" viewBox="0 0 900 600"><filter id="c"><feGaussianBlur stdDeviation="55" /></filter><path fill="#6b454f" d="M0 0h900v597H0z"/><g filter='url(#c)' fill-opacity='.5'><ellipse fill="#dcfbee" fill-opacity=".5" rx="1" ry="1" transform="matrix(1.3851 -46.42652 708.34484 21.13285 541.7 511.6)"/><ellipse fill="#f75996" fill-opacity=".5" rx="1" ry="1" transform="matrix(279.02725 19.09744 -10.03292 146.58818 453.1 277)"/><ellipse fill-opacity=".5" rx="1" ry="1" transform="rotate(-13.5 967.5 -3353) scale(116.37429 317.13985)"/><ellipse fill="#200" fill-opacity=".5" rx="1" ry="1" transform="matrix(-46.17872 -139.66205 851.16343 -281.43392 275.8 53)"/><ellipse fill-opacity=".5" rx="1" ry="1" transform="rotate(93.6 -126.6 442) scale(41.81639 464.73954)"/><path fill="#c9336b" fill-opacity=".5" d="M181 114.3h527.4v193.3H181.1z"/><path fill-opacity=".5" d="M68.6 346.3l-123 232L12.2 82.6z"/><path fill="#c8f0e4" fill-opacity=".5" d="M124.8 395.5L61.5 550.2l10.6-327z"/></g></svg>