<svg xmlns="http://www.w3.org/2000/svg" viewBox="0 0 820 1230"><filter id="b"><feGaussianBlur stdDeviation="12" /></filter><path fill="#a7a3a8" d="M0 0h816v1230H0z"/><g filter="url(#b)" transform="translate(2.4 2.4) scale(4.80469)" fill-opacity=".5"><ellipse fill="#0c0000" cx="81" cy="138" rx="69" ry="69"/><ellipse fill="#fff" rx="1" ry="1" transform="matrix(-168.89705 5.89801 -1.89466 -54.25589 98 19.5)"/><ellipse fill="#fff" cx="46" cy="225" rx="108" ry="34"/><ellipse rx="1" ry="1" transform="matrix(-50.99074 60.7299 -11.66872 -9.79743 163.4 240)"/><ellipse fill="#180000" rx="1" ry="1" transform="matrix(-15.13518 -33.4118 37.05057 -16.7835 57.5 115.7)"/><ellipse fill="#fff" rx="1" ry="1" transform="rotate(135.8 63 51) scale(40.04747 80.60175)"/><path fill="#d4c7e2" d="M98.2 172.1L87.6 196l-107.8-48 10.6-24z"/><ellipse fill="#fff" rx="1" ry="1" transform="rotate(-115.3 120.1 84.7) scale(18.47401 160.90831)"/></g></svg>