<svg xmlns="http://www.w3.org/2000/svg" viewBox="0 0 900 600"><filter id="b"><feGaussianBlur stdDeviation="12" /></filter><path fill="#362417" d="M0 0h900v597H0z"/><g filter="url(#b)" transform="translate(1.8 1.8) scale(3.51563)" fill-opacity=".5"><ellipse fill="#ffbc7b" rx="1" ry="1" transform="matrix(-55.10633 -17.0614 11.39981 -36.82008 206.8 151.2)"/><path d="M177.2 63.9L3.6 130.5-37.2 24.1l173.6-66.6z"/><path fill="#dfd6c5" d="M171.3 150l11-45 14 4.1 10.7 30.4z"/><ellipse fill="#c36829" rx="1" ry="1" transform="matrix(9.87589 15.38328 -72.31813 46.42742 242.1 132.2)"/><ellipse fill="#c2a17a" cx="147" cy="137" rx="66" ry="5"/><ellipse fill="#000002" rx="1" ry="1" transform="matrix(64.23216 10.5438 -3.02499 18.42804 202.4 77)"/><ellipse fill="#180000" cx="142" cy="115" rx="39" ry="17"/><path fill="#b15d32" d="M143 79l66 34-82-15z"/></g></svg>