<svg xmlns="http://www.w3.org/2000/svg" viewBox="0 0 800 1200"><filter id="b"><feGaussianBlur stdDeviation="12" /></filter><path fill="#dee5e6" d="M0 0h796v1200H0z"/><g filter="url(#b)" transform="translate(2.3 2.3) scale(4.6875)" fill-opacity=".5"><ellipse fill="#1b314d" rx="1" ry="1" transform="rotate(-69.5 220.4 54.4) scale(33.83185 41.96529)"/><ellipse fill="#104400" rx="1" ry="1" transform="rotate(105.1 -8.2 118.1) scale(7.46438 37.95473)"/><ellipse fill="#fff" rx="1" ry="1" transform="rotate(-60.3 61.8 -46.4) scale(147.28197 70.012)"/><ellipse fill="#8bb094" rx="1" ry="1" transform="matrix(17.4046 -8.42661 16.53385 34.14953 61.2 189.5)"/><path fill="#a69147" d="M135 49h12v78h-12z"/><path fill="#0e1a28" d="M98.2 230.8l-1.6 13-36.8-4.6 1.6-13z"/><ellipse fill="#fafdff" cx="160" cy="167" rx="32" ry="89"/><path fill="#708656" d="M96 128l-62 41 98-19z"/></g></svg>