<svg xmlns="http://www.w3.org/2000/svg" viewBox="0 0 900 600"><filter id="c"><feGaussianBlur stdDeviation="55" /></filter><path fill="#644e4c" d="M0 0h900v597H0z"/><g filter='url(#c)' fill-opacity='.5'><ellipse fill="#ffeaf2" fill-opacity=".5" rx="1" ry="1" transform="matrix(-244.19832 39.5515 -37.01239 -228.52137 439.8 295.2)"/><ellipse fill-opacity=".5" rx="1" ry="1" transform="matrix(118.09731 -8.61675 59.07028 809.591 814.4 277.3)"/><ellipse fill-opacity=".5" rx="1" ry="1" transform="matrix(120.07378 -26.12552 190.59673 875.98922 73.9 425.4)"/><ellipse fill="#080000" fill-opacity=".5" rx="1" ry="1" transform="rotate(-122.6 520.8 102.1) scale(136.15919 590.43319)"/><ellipse fill="#edd9de" fill-opacity=".5" rx="1" ry="1" transform="matrix(189.75559 -50.84486 18.09613 67.53569 351 170.8)"/><ellipse fill="#150000" fill-opacity=".5" rx="1" ry="1" transform="rotate(-124.7 436 -150.9) scale(397.57257 131.92588)"/><ellipse fill="#070000" fill-opacity=".5" rx="1" ry="1" transform="matrix(11.67782 -64.90008 750.30598 135.00656 209.7 580)"/><ellipse fill="#291920" fill-opacity=".5" rx="1" ry="1" transform="rotate(165.4 73.4 48.2) scale(332.53629 86.16065)"/></g></svg>