<svg xmlns="http://www.w3.org/2000/svg" viewBox="0 0 821 1232"><filter id="b"><feGaussianBlur stdDeviation="12" /></filter><path fill="#bcb8bf" d="M0 0h818v1232H0z"/><g filter="url(#b)" transform="translate(2.4 2.4) scale(4.8125)" fill-opacity=".5"><ellipse fill="#1d0000" rx="1" ry="1" transform="matrix(4.35035 -37.41678 57.74658 6.71404 84.2 209.6)"/><ellipse fill="#020000" cx="88" cy="118" rx="39" ry="29"/><ellipse fill="#fdffff" rx="1" ry="1" transform="matrix(-16.92388 -54.10334 161.29303 -50.45353 46.5 54)"/><ellipse fill="#fff" rx="1" ry="1" transform="matrix(-5.66806 -91.12908 36.32999 -2.25966 164.4 143.8)"/><ellipse fill="#fff" rx="1" ry="1" transform="rotate(-166.4 18.3 86.1) scale(26.66103 94.92197)"/><ellipse fill="#3c0000" rx="1" ry="1" transform="matrix(-33.1621 -19.96324 12.25994 -20.3657 94.6 115)"/><path fill="#150000" d="M77 203h66v37H77z"/><ellipse rx="1" ry="1" transform="matrix(-45.15414 22.78084 -5.32005 -10.54493 155.5 255)"/></g></svg>