<svg xmlns="http://www.w3.org/2000/svg" viewBox="0 0 900 506"><filter id="c"><feGaussianBlur stdDeviation="55" /></filter><path fill="#755e56" d="M0 0h900v502H0z"/><g filter='url(#c)' fill-opacity='.5'><ellipse fill="#f2c3a0" fill-opacity=".5" rx="1" ry="1" transform="matrix(-95.28683 -143.4453 254.53996 -169.084 352.8 164.3)"/><ellipse fill="#000003" fill-opacity=".5" rx="1" ry="1" transform="matrix(8.39346 131.95407 -866.9108 55.1433 468.8 493.6)"/><path fill="#000316" fill-opacity=".5" d="M136.7 611.3l-247-274.3 96.7-87 247 274.3z"/><ellipse fill="#ffffe7" fill-opacity=".5" rx="1" ry="1" transform="rotate(-76.4 326.3 -128.1) scale(42.2422 106.71527)"/><path fill="#1a2e36" fill-opacity=".5" d="M335.7 223.2l-119.5 10.6 112.5 323.4z"/><path fill="#ffd4a6" fill-opacity=".5" d="M153 269h98.4v151h-98.5z"/><path fill="#0a0012" fill-opacity=".5" d="M668.7 151.7L942.1-29.9 661.7-7.4l52 232.8z"/><path fill="#aa7764" fill-opacity=".5" d="M354.3 100.4L92 270.8l-147.4-227L207-126.7z"/></g></svg>