<svg xmlns="http://www.w3.org/2000/svg" viewBox="0 0 900 600"><filter id="b"><feGaussianBlur stdDeviation="12" /></filter><path fill="#554139" d="M0 0h900v597H0z"/><g filter="url(#b)" transform="translate(1.8 1.8) scale(3.51563)" fill-opacity=".5"><ellipse fill="#ffc194" cx="144" cy="96" rx="24" ry="42"/><ellipse fill="#ffaa59" rx="1" ry="1" transform="matrix(-64.38663 13.83373 -3.7183 -17.30615 141.2 .4)"/><ellipse fill="#00000b" rx="1" ry="1" transform="matrix(3.23018 -29.80377 70.65816 7.65804 93 161.9)"/><ellipse fill="#000715" rx="1" ry="1" transform="rotate(12.6 -151.7 169.1) scale(35.4888 76.0195)"/><path fill="#d0c6bd" d="M24.1 178.2l-29 1.5-3.2-61.9 29-1.5z"/><path fill="#f1ad78" d="M69 72h29v44H69z"/><ellipse fill="#000916" rx="1" ry="1" transform="matrix(-87.574 1.6381 -.35124 -18.77736 215.6 44.2)"/><path fill="#00141c" d="M176 185L28 154l211-16z"/></g></svg>