<svg xmlns="http://www.w3.org/2000/svg" viewBox="0 0 900 600"><filter id="b"><feGaussianBlur stdDeviation="12" /></filter><path fill="#9d836c" d="M0 0h900v597H0z"/><g filter="url(#b)" transform="translate(1.8 1.8) scale(3.51563)" fill-opacity=".5"><ellipse rx="1" ry="1" transform="matrix(30.58517 -142.6671 54.31247 11.64358 255.1 78.6)"/><ellipse fill="#e7eff5" cx="118" cy="85" rx="76" ry="76"/><ellipse rx="1" ry="1" transform="matrix(-12.95517 30.22322 -37.74214 -16.17815 119.2 85.3)"/><ellipse cx="237" cy="90" rx="18" ry="252"/><ellipse fill="#fff" rx="1" ry="1" transform="matrix(-40.11437 33.9296 -13.81114 -16.32866 154 124.8)"/><ellipse fill="#3d1000" cx="123" cy="88" rx="37" ry="28"/><ellipse fill="#fff" rx="1" ry="1" transform="matrix(30.75897 32.99502 -13.40899 12.50027 77.9 125)"/><ellipse fill="#fcffff" rx="1" ry="1" transform="matrix(13.55654 -18.34472 36.895 27.26499 152.3 44.6)"/></g></svg>