<svg xmlns="http://www.w3.org/2000/svg" viewBox="0 0 900 600"><filter id="b"><feGaussianBlur stdDeviation="12" /></filter><path fill="#373633" d="M0 0h900v597H0z"/><g filter="url(#b)" transform="translate(1.8 1.8) scale(3.51563)" fill-opacity=".5"><ellipse fill="#eabb73" rx="1" ry="1" transform="rotate(-70.5 147.8 -20.3) scale(34.04243 77.95831)"/><ellipse fill="#0035c6" cx="171" cy="4" rx="72" ry="55"/><ellipse fill="#010000" rx="1" ry="1" transform="matrix(-8.5695 -99.95892 63.1546 -5.41426 5 58)"/><ellipse fill="#fff8d3" rx="1" ry="1" transform="rotate(-97.7 118.7 27.4) scale(10.68721 36.20674)"/><ellipse rx="1" ry="1" transform="matrix(69.45457 -57.99908 14.42533 17.2745 245.6 37.4)"/><ellipse rx="1" ry="1" transform="matrix(125.42973 15.40083 -2.15316 17.5361 88.5 60.5)"/><ellipse fill="#ffffdc" rx="1" ry="1" transform="rotate(87.9 -10.7 104.7) scale(27.69879 8.65252)"/><path fill="#ffd169" d="M43 90h12v42H43z"/></g></svg>