<svg xmlns="http://www.w3.org/2000/svg" viewBox="0 0 900 600"><filter id="b"><feGaussianBlur stdDeviation="12" /></filter><path fill="#57564e" d="M0 0h900v597H0z"/><g filter="url(#b)" transform="translate(1.8 1.8) scale(3.51563)" fill-opacity=".5"><ellipse fill="#ffffe0" rx="1" ry="1" transform="matrix(74.3473 -15.8546 15.56102 72.97065 125.8 108.7)"/><ellipse rx="1" ry="1" transform="rotate(-176.2 55.9 3) scale(255 47.43418)"/><ellipse rx="1" ry="1" transform="matrix(29.5123 -3.25559 26.75093 242.50055 20.7 126.7)"/><ellipse fill="#fff" rx="1" ry="1" transform="rotate(-89 138.2 12.2) scale(28.33256 54.49599)"/><ellipse cx="234" cy="72" rx="34" ry="55"/><ellipse fill="#ffffd5" rx="1" ry="1" transform="matrix(23.27303 2.04409 -1.2768 14.53708 140 46)"/><ellipse fill="#5c2a02" cx="128" cy="108" rx="59" ry="14"/><ellipse fill="#ccfaff" rx="1" ry="1" transform="matrix(-4.09247 17.91595 -37.99342 -8.67869 255 144.4)"/></g></svg>