<svg xmlns="http://www.w3.org/2000/svg" viewBox="0 0 900 600"><filter id="b"><feGaussianBlur stdDeviation="12" /></filter><path fill="#c2b8b0" d="M0 0h900v597H0z"/><g filter="url(#b)" transform="translate(1.8 1.8) scale(3.51563)" fill-opacity=".5"><ellipse rx="1" ry="1" transform="matrix(88.73682 16.34318 -6.54541 35.53893 196.9 23.2)"/><ellipse cx="52" cy="39" rx="54" ry="12"/><ellipse fill="#fff" rx="1" ry="1" transform="matrix(-79.32078 -72.17635 41.7404 -45.8721 54.6 133)"/><path fill="#fff" d="M72 157l193 28-4-124z"/><ellipse fill="#9f6400" rx="1" ry="1" transform="matrix(-.28057 20.09301 -56.17063 -.78434 135.8 100.4)"/><ellipse fill="#050000" rx="1" ry="1" transform="rotate(127.6 83.7 44.4) scale(37.88925 51.77461)"/><ellipse cx="39" cy="37" rx="29" ry="13"/><ellipse fill="#fff" rx="1" ry="1" transform="rotate(110.4 72.9 113.7) scale(23.14309 71.67471)"/></g></svg>