<svg xmlns="http://www.w3.org/2000/svg" viewBox="0 0 900 600"><filter id="b"><feGaussianBlur stdDeviation="12" /></filter><path fill="#7e6243" d="M0 0h900v597H0z"/><g filter="url(#b)" transform="translate(1.8 1.8) scale(3.51563)" fill-opacity=".5"><ellipse fill="#ffffcd" rx="1" ry="1" transform="matrix(34.71659 81.2394 -47.81077 20.4313 108 31.4)"/><ellipse rx="1" ry="1" transform="matrix(-39.57765 97.62206 -41.19044 -16.6993 190.6 126.7)"/><ellipse fill="#efeaeb" rx="1" ry="1" transform="rotate(-8.3 814.8 -30) scale(54.6279 26.47828)"/><ellipse rx="1" ry="1" transform="matrix(-34.722 -64.26747 14.32262 -7.73813 96.2 125.8)"/><ellipse fill="#fffae3" cx="29" cy="45" rx="93" ry="14"/><ellipse rx="1" ry="1" transform="rotate(-40.6 273.4 -180) scale(41.64861 45.31945)"/><ellipse fill="#ffd598" rx="1" ry="1" transform="matrix(-11.67885 16.80366 -23.4289 -16.2835 248.9 134.5)"/><ellipse cx="104" cy="69" rx="15" ry="15"/></g></svg>