<svg xmlns="http://www.w3.org/2000/svg" viewBox="0 0 900 600"><filter id="c"><feGaussianBlur stdDeviation="55" /></filter><path fill="#676041" d="M0 0h900v597H0z"/><g filter='url(#c)' fill-opacity='.5'><ellipse fill="#aaf5ff" fill-opacity=".5" rx="1" ry="1" transform="matrix(85.15901 -22.27446 56.97083 217.80905 226.5 340)"/><ellipse fill-opacity=".5" rx="1" ry="1" transform="matrix(24.27656 -480.44648 99.38664 5.02192 11 388.9)"/><path fill="#ffefb2" fill-opacity=".5" d="M949.4 87.1L722.8 207.6 650.2 71.1 876.8-49.4z"/><ellipse fill="#020f00" fill-opacity=".5" rx="1" ry="1" transform="matrix(-140.69072 198.8164 -74.89841 -53.00122 599.7 429)"/><path fill="#ffa86d" fill-opacity=".5" d="M805.1 412l107.5 147.9L668 737.6 560.5 589.7z"/><ellipse fill-opacity=".5" rx="1" ry="1" transform="rotate(-56.5 312.9 -451.8) scale(62.39184 177.64649)"/><ellipse fill="#ead477" fill-opacity=".5" rx="1" ry="1" transform="matrix(-130.1718 -3.41658 1.0556 -40.21828 519.4 337.8)"/><path fill="#aec5c3" fill-opacity=".5" d="M416.6 86.1L107.2 293.6 212.7 36.9z"/></g></svg>