<svg xmlns="http://www.w3.org/2000/svg" viewBox="0 0 900 600"><filter id="c"><feGaussianBlur stdDeviation="55" /></filter><path fill="#48b4e0" d="M0 0h900v597H0z"/><g filter='url(#c)' fill-opacity='.5'><ellipse fill="#e1ffff" fill-opacity=".5" rx="1" ry="1" transform="matrix(850.84772 .46628 -.09947 181.50946 327.3 553)"/><ellipse fill="#0067c0" fill-opacity=".5" rx="1" ry="1" transform="rotate(-90.3 310.4 -228.4) scale(220.21061 648.52756)"/><ellipse fill="#0074c2" fill-opacity=".5" rx="1" ry="1" transform="matrix(13.4953 -132.85883 890.57793 90.4616 417.2 54.4)"/><ellipse fill="#50caf4" fill-opacity=".5" rx="1" ry="1" transform="matrix(-5.62298 119.23509 -521.59344 -24.59772 424 339.6)"/><ellipse fill="#d7fff3" fill-opacity=".5" rx="1" ry="1" transform="rotate(-178.7 235 286) scale(745.6839 47.73251)"/><ellipse fill="#00a6dd" fill-opacity=".5" rx="1" ry="1" transform="matrix(-861.24331 -71.99634 8.8682 -106.08436 206.6 178.6)"/><path fill="#005063" fill-opacity=".5" d="M499.2 413.4l152.1-239.7-230.9 400.6L468.6 451z"/><path fill="#00666a" fill-opacity=".5" d="M367.4 413l63.3 126.6 35.1-17.5z"/></g></svg>