<svg xmlns="http://www.w3.org/2000/svg" viewBox="0 0 900 600"><filter id="b"><feGaussianBlur stdDeviation="12" /></filter><path fill="#4f4a46" d="M0 0h900v597H0z"/><g filter="url(#b)" transform="translate(1.8 1.8) scale(3.51563)" fill-opacity=".5"><ellipse fill="#fff" rx="1" ry="1" transform="matrix(81.53211 66.67971 -9.08815 11.11247 45.6 125.1)"/><ellipse fill="#fff" rx="1" ry="1" transform="rotate(131 62.3 113) scale(66.7586 16.32225)"/><ellipse fill="#fff" rx="1" ry="1" transform="rotate(-139.4 89 -7.2) scale(104.2655 11.14146)"/><ellipse fill="#050000" cx="63" cy="50" rx="58" ry="58"/><path d="M224 85l26-89-135-7z"/><path fill="#fff" d="M245 0h11v77h-11z"/><ellipse rx="1" ry="1" transform="matrix(61.5114 -68.79675 18.92519 16.92107 235.4 145.2)"/><ellipse fill="#070000" rx="1" ry="1" transform="rotate(15.6 -391.1 521.5) scale(45.42747 37.75984)"/></g></svg>