<svg xmlns="http://www.w3.org/2000/svg" viewBox="0 0 900 600"><filter id="b"><feGaussianBlur stdDeviation="12" /></filter><path fill="#d8dad0" d="M0 0h900v597H0z"/><g filter="url(#b)" transform="translate(1.8 1.8) scale(3.51563)" fill-opacity=".5"><ellipse fill="#885200" cx="129" cy="80" rx="49" ry="37"/><ellipse fill="#664000" rx="1" ry="1" transform="matrix(31.44465 -23.43812 11.13263 14.93556 142.1 91.4)"/><ellipse fill="#fbffff" rx="1" ry="1" transform="matrix(-66.5951 202.55014 -37.85619 -12.44648 230.1 54)"/><ellipse fill="#ffffd1" cx="132" cy="43" rx="20" ry="31"/><ellipse fill="#edffff" cx="8" cy="87" rx="19" ry="255"/><path fill="#fffe84" d="M139.4 55.8L94.8 97.4 82.6 84.2l44.6-41.6z"/><ellipse fill="#f3ffff" rx="1" ry="1" transform="matrix(-72.91251 -51.05389 17.73138 -25.32304 171.5 8)"/><ellipse fill="#abb7bd" rx="1" ry="1" transform="matrix(10.52016 -49.21477 20.73305 4.4319 41.4 75.4)"/></g></svg>