<svg xmlns="http://www.w3.org/2000/svg" viewBox="0 0 900 600"><filter id="b"><feGaussianBlur stdDeviation="12" /></filter><path fill="#a78d6a" d="M0 0h900v597H0z"/><g filter="url(#b)" transform="translate(1.8 1.8) scale(3.51563)" fill-opacity=".5"><ellipse fill="#fff" cx="120" cy="17" rx="163" ry="31"/><ellipse fill="#4f2e03" cx="230" cy="140" rx="99" ry="99"/><ellipse fill="#fff2eb" rx="1" ry="1" transform="matrix(49.28713 -12.36388 7.3285 29.21418 123.4 101.3)"/><path fill="#532000" d="M38 28l85 33-92 27z"/><ellipse fill="#0f0000" rx="1" ry="1" transform="matrix(-49.15306 -.02048 .00489 -11.73113 174.7 63)"/><ellipse fill="#fff" rx="1" ry="1" transform="rotate(-68.5 45.2 26) scale(43.50113 21.06777)"/><ellipse fill="#874a00" rx="1" ry="1" transform="matrix(-181.83602 -20.07488 3.78723 -34.30429 16.8 153.3)"/><ellipse fill="#fff" rx="1" ry="1" transform="matrix(19.81056 -40.3625 38.43073 18.86242 117.7 5)"/></g></svg>