<svg xmlns="http://www.w3.org/2000/svg" viewBox="0 0 900 600"><filter id="b"><feGaussianBlur stdDeviation="12" /></filter><path fill="#877965" d="M0 0h900v597H0z"/><g filter="url(#b)" transform="translate(1.8 1.8) scale(3.51563)" fill-opacity=".5"><ellipse fill="#fffffa" rx="1" ry="1" transform="matrix(-4.85538 38.98136 -122.88465 -15.3061 35.4 52.1)"/><ellipse rx="1" ry="1" transform="rotate(19.8 -328.3 635.7) scale(71.28978 23.2706)"/><ellipse fill="#200400" rx="1" ry="1" transform="rotate(-83.7 90.8 -100.3) scale(27.41689 175.16865)"/><path fill="#fff" d="M14 135h119v22H14z"/><ellipse rx="1" ry="1" transform="matrix(.51616 11.92386 -99.62 4.31238 18.8 126.8)"/><path fill="#f8fcf6" d="M179 37h39v60h-39z"/><ellipse rx="1" ry="1" transform="matrix(4.49928 .16878 -2.14857 57.27761 115.8 63.6)"/><ellipse fill="#110800" cx="70" cy="68" rx="7" ry="64"/></g></svg>