<svg xmlns="http://www.w3.org/2000/svg" viewBox="0 0 900 600"><filter id="b"><feGaussianBlur stdDeviation="12" /></filter><path fill="#b5ab97" d="M0 0h900v597H0z"/><g filter="url(#b)" transform="translate(1.8 1.8) scale(3.51563)" fill-opacity=".5"><ellipse rx="1" ry="1" transform="rotate(-82.9 157.5 14.5) scale(18.07769 254.54877)"/><ellipse fill="#080000" rx="1" ry="1" transform="matrix(11.16658 25.55929 -45.64756 19.94293 225.9 2.4)"/><ellipse fill="#f4f0d9" rx="1" ry="1" transform="matrix(-131.63487 -18.04671 9.15252 -66.75955 145.6 93.5)"/><path fill="#020000" d="M-16 167.5l10.4-38.7L150 170.5l-10.3 38.7z"/><path fill="#706e00" d="M100 113l59 4-60-30z"/><path fill="#080000" d="M152.4 9.5L56.7 4 68.9-7l66.7-9.1z"/><path fill="#060000" d="M212.8 162.7L-16 160.3 242.2 185l27.3-29.3z"/><ellipse fill="#eef0dc" cx="134" cy="61" rx="75" ry="34"/></g></svg>