<svg xmlns="http://www.w3.org/2000/svg" viewBox="0 0 900 600"><filter id="b"><feGaussianBlur stdDeviation="12" /></filter><path fill="#433c31" d="M0 0h900v597H0z"/><g filter="url(#b)" transform="translate(1.8 1.8) scale(3.51563)" fill-opacity=".5"><ellipse fill="#fff9cc" rx="1" ry="1" transform="matrix(22.23773 71.11394 -43.50424 13.60402 124.8 81.4)"/><ellipse rx="1" ry="1" transform="matrix(-16.7469 -214.329 53.48174 -4.17887 18.3 94.2)"/><ellipse cx="255" cy="58" rx="98" ry="98"/><ellipse fill="#eed2a8" rx="1" ry="1" transform="rotate(37.7 -27.5 277.1) scale(46.51518 25.35244)"/><path fill="#faecdd" d="M76 113h31v41H76z"/><ellipse fill="#fffdf6" rx="1" ry="1" transform="matrix(-21.18757 -44.82264 20.95907 -9.9073 123.7 57.3)"/><path fill="#5c2d05" d="M81 98.4l24.6-17.2 49.4 70.4-24.6 17.2z"/><ellipse fill="#fcfff3" rx="1" ry="1" transform="matrix(-7.92654 5.75422 -18.01775 -24.8198 159 135.2)"/></g></svg>