<svg xmlns="http://www.w3.org/2000/svg" viewBox="0 0 900 600"><filter id="b"><feGaussianBlur stdDeviation="12" /></filter><path fill="#e0dcd7" d="M0 0h900v597H0z"/><g filter="url(#b)" transform="translate(1.8 1.8) scale(3.51563)" fill-opacity=".5"><ellipse fill="#453124" cx="117" cy="150" rx="64" ry="9"/><ellipse fill="#af774f" cx="139" cy="94" rx="47" ry="27"/><path fill="#903c00" d="M204.5 14.6l-13 1.2-61-31.8L271 7.4z"/><path fill="#fff" d="M-16 120L5-16l266 39z"/><path fill="#635548" d="M189.5 141.9L211 121 98.3 167.4l61-7.5z"/><path fill="#6a513f" d="M49.7 129l85.3 31.3-106.8-21.9-3.2-29.7z"/><ellipse fill="#feffff" rx="1" ry="1" transform="matrix(-25.90774 -25.33335 43.82978 -44.82356 230 73.3)"/><ellipse fill="#fdffff" rx="1" ry="1" transform="rotate(25.8 -205.3 212.5) scale(63.98237 23.28251)"/></g></svg>