<svg xmlns="http://www.w3.org/2000/svg" viewBox="0 0 900 1351"><filter id="b"><feGaussianBlur stdDeviation="12" /></filter><path fill="#555c47" d="M0 0h897v1351H0z"/><g filter="url(#b)" transform="translate(2.6 2.6) scale(5.27734)" fill-opacity=".5"><ellipse fill="#cee9bb" rx="1" ry="1" transform="rotate(9.9 -614 138.3) scale(36.3529 46.15064)"/><path fill="#dcffff" d="M37.9 193.2l55.8 16.2L37 234l-20-24.8z"/><ellipse fill="#ff8549" rx="1" ry="1" transform="matrix(68.07621 6.5039 -2.12079 22.19827 126.3 172.3)"/><ellipse fill="#271402" rx="1" ry="1" transform="rotate(-32.1 504.6 -111.5) scale(56.45765 69.19945)"/><ellipse fill="#fffbe5" cx="33" cy="44" rx="6" ry="104"/><path fill="#000500" d="M-12 248l99-120-103 40z"/><ellipse fill="#002323" cx="92" cy="25" rx="17" ry="116"/><ellipse fill="#2a3c07" rx="1" ry="1" transform="matrix(8.44026 .34237 -1.4011 34.5408 17.6 89)"/></g></svg>