<svg xmlns="http://www.w3.org/2000/svg" viewBox="0 0 900 600"><filter id="b"><feGaussianBlur stdDeviation="12" /></filter><path fill="#779c87" d="M0 0h900v597H0z"/><g filter="url(#b)" transform="translate(1.8 1.8) scale(3.51563)" fill-opacity=".5"><ellipse fill="#ff4325" cx="126" cy="85" rx="57" ry="57"/><ellipse fill="#cff" rx="1" ry="1" transform="matrix(-41.6738 -9.3916 56.06079 -248.76134 239.3 109)"/><ellipse fill="#085b26" rx="1" ry="1" transform="rotate(-137 23.5 16) scale(34.01085 164.32363)"/><ellipse fill="#009e84" rx="1" ry="1" transform="matrix(173.83828 69.56653 -10.49546 26.22687 65.1 150.6)"/><ellipse fill="#00a592" rx="1" ry="1" transform="rotate(-163.3 80.2 -4.8) scale(72.07974 19.97571)"/><ellipse fill="#ffc7bb" rx="1" ry="1" transform="matrix(-39.50713 17.42472 -8.706 -19.73916 101.4 48.6)"/><path fill="#00c3ad" d="M144 185L213 8l12 94z"/><ellipse fill="#befcfb" cx="246" cy="75" rx="39" ry="255"/></g></svg>