<svg xmlns="http://www.w3.org/2000/svg" viewBox="0 0 900 600"><filter id="b"><feGaussianBlur stdDeviation="12" /></filter><path fill="#a38d68" d="M0 0h900v597H0z"/><g filter="url(#b)" transform="translate(1.8 1.8) scale(3.51563)" fill-opacity=".5"><ellipse fill="#fff" rx="1" ry="1" transform="matrix(59.52682 -41.00174 14.33381 20.81 118.6 149.3)"/><ellipse fill="#fff" cx="233" cy="131" rx="11" ry="116"/><ellipse fill="#615200" rx="1" ry="1" transform="matrix(55.14275 25.91862 -15.56377 33.11247 77 97)"/><ellipse fill="#642000" cx="197" cy="128" rx="26" ry="255"/><ellipse fill="#d8ffff" cx="162" cy="100" rx="17" ry="38"/><path fill="#fff" d="M222.5 19l48-1 1 57-48 1z"/><ellipse fill="#d0feff" rx="1" ry="1" transform="matrix(45.62597 29.05686 -8.87274 13.93224 74.5 153.3)"/><path fill="#0c0000" d="M138.8 170.5l36.7-35.4 23.7 24.4-36.7 35.4z"/></g></svg>