<svg xmlns="http://www.w3.org/2000/svg" viewBox="0 0 900 600"><filter id="b"><feGaussianBlur stdDeviation="12" /></filter><path fill="#ab8d6f" d="M0 0h900v597H0z"/><g filter="url(#b)" transform="translate(1.8 1.8) scale(3.51563)" fill-opacity=".5"><ellipse fill="#0f0000" rx="1" ry="1" transform="matrix(36.53463 24.22002 -44.48803 67.10785 218.5 143.2)"/><ellipse fill="#fff" cx="116" cy="119" rx="72" ry="24"/><ellipse fill="#f2eadc" rx="1" ry="1" transform="matrix(1.1571 33.13518 -113.88496 3.97695 205.2 29)"/><ellipse fill="#220400" rx="1" ry="1" transform="matrix(23.353 -1.05909 .91194 20.1084 97.2 86.4)"/><path fill="#160400" d="M195.3 74.2l-30 28-24.6-26.4 30-28z"/><ellipse fill="#d74100" cx="21" cy="33" rx="72" ry="20"/><path fill="#f5ece5" d="M-16 83.1L72.8 77l36.1-19L-16 49z"/><ellipse fill="#703b05" cx="174" cy="169" rx="160" ry="17"/></g></svg>