<svg xmlns="http://www.w3.org/2000/svg" viewBox="0 0 900 600"><filter id="c"><feGaussianBlur stdDeviation="55" /></filter><path fill="#e1c9ac" d="M0 0h900v597H0z"/><g filter='url(#c)' fill-opacity='.5'><ellipse fill="#940b00" fill-opacity=".5" rx="1" ry="1" transform="matrix(-180.32513 -85.88547 27.9677 -58.72098 488.7 171.4)"/><path fill="#992600" fill-opacity=".5" d="M472.6 568.2L77.9 498.6l22.6-128.1L495.2 440z"/><path fill="#e16300" fill-opacity=".5" d="M19.3 494l116-344.6 313-70.3z"/><ellipse fill="#c04600" fill-opacity=".5" rx="1" ry="1" transform="matrix(76.30386 -123.91906 42.94592 26.4442 571.1 347.6)"/><path fill="#f6ffff" fill-opacity=".5" d="M947.5 128.3l3.5 523.8H262z"/><ellipse fill="#fff" fill-opacity=".5" rx="1" ry="1" transform="rotate(93.3 231.6 220.5) scale(95.01358 753.54237)"/><ellipse fill="#fff" fill-opacity=".5" rx="1" ry="1" transform="rotate(65.1 -56.2 482.8) scale(93.91356 145.73056)"/><ellipse fill="#fff" fill-opacity=".5" rx="1" ry="1" transform="matrix(-258.4311 342.85124 -88.19255 -66.47693 67.6 87)"/></g></svg>