<svg xmlns="http://www.w3.org/2000/svg" viewBox="0 0 1200 690"><filter id="c"><feGaussianBlur stdDeviation="55" /></filter><path fill="#616e68" d="M0 0h1200v689H0z"/><g filter='url(#c)' fill-opacity='.5'><ellipse fill="#fbffff" fill-opacity=".5" rx="1" ry="1" transform="matrix(4.4637 142.03696 -1111.96496 34.9449 865 115.7)"/><ellipse fill-opacity=".5" rx="1" ry="1" transform="matrix(7.6744 -293.07332 1007.04314 26.37035 364.1 629.2)"/><ellipse fill="#ab5f07" fill-opacity=".5" rx="1" ry="1" transform="rotate(-178.1 343.4 137) scale(486.79925 85.67887)"/><ellipse fill="#cbffff" fill-opacity=".5" rx="1" ry="1" transform="matrix(21.22982 -91.95644 671.89018 155.11807 849.6 114.9)"/><ellipse fill-opacity=".5" rx="1" ry="1" transform="matrix(1015.47409 5.31706 -.6597 125.99212 462.4 586.3)"/><ellipse fill="#89defa" fill-opacity=".5" rx="1" ry="1" transform="matrix(-507.71667 223.33716 -104.42668 -237.3952 103 2.3)"/><ellipse fill="#319fff" fill-opacity=".5" rx="1" ry="1" transform="matrix(-646.57624 -129.19868 15.50917 -77.61582 1012.5 9.2)"/><ellipse fill="#effbe5" fill-opacity=".5" rx="1" ry="1" transform="matrix(581.12718 -137.9903 13.56725 57.1366 267.3 180.6)"/></g></svg>