<svg xmlns="http://www.w3.org/2000/svg" viewBox="0 0 900 1350"><filter id="b"><feGaussianBlur stdDeviation="12" /></filter><path fill="#3b3934" d="M0 0h896v1350H0z"/><g filter="url(#b)" transform="translate(2.6 2.6) scale(5.27344)" fill-opacity=".5"><ellipse fill="#fffffa" cx="64" cy="192" rx="34" ry="47"/><ellipse fill="#fff" rx="1" ry="1" transform="matrix(6.975 12.6352 -91.66359 50.60102 169.1 143.5)"/><ellipse fill="#ffffef" rx="1" ry="1" transform="matrix(16.97058 -27.86197 15.27854 9.30608 8.9 149.8)"/><path d="M118.6 8L55.9 136.5-2.6 108 60.1-20.5z"/><ellipse rx="1" ry="1" transform="matrix(16.78979 29.18133 -69.74732 40.12986 131.3 231.4)"/><path fill="#fff" d="M19 85.9l-30 2-4-55.8 30-2z"/><ellipse rx="1" ry="1" transform="matrix(-11.65194 -9.6611 41.68433 -50.27409 107.3 136.5)"/><path fill="#fff" d="M154 68.8l.7 17.7-3.9 30 24.4-7.2z"/></g></svg>