<svg xmlns="http://www.w3.org/2000/svg" viewBox="0 0 900 600"><filter id="b"><feGaussianBlur stdDeviation="12" /></filter><path fill="#dedbcf" d="M0 0h900v597H0z"/><g filter="url(#b)" transform="translate(1.8 1.8) scale(3.51563)" fill-opacity=".5"><ellipse fill="#4a3738" cx="132" cy="156" rx="94" ry="12"/><ellipse fill="#b76600" cx="125" cy="99" rx="39" ry="20"/><path fill="#561500" d="M77.2 31.2l-30 1.6-2.4-48 30-1.6z"/><ellipse fill="#fff" rx="1" ry="1" transform="matrix(-29.97996 41.41569 -70.56223 -51.07854 171.2 43.2)"/><path fill="#3d2925" d="M62 143l125 15.5-163.3-7-22.5-26.8z"/><ellipse fill="#fff" rx="1" ry="1" transform="rotate(80.8 -23.2 61.6) scale(42.37629 70.30239)"/><ellipse fill="#615861" rx="1" ry="1" transform="matrix(71.42981 -19.28535 2.64096 9.7817 252 135.9)"/><path fill="#050000" d="M271 55.3l-6.4-5.4-.7 47.6-20.4-48.7z"/></g></svg>