<svg xmlns="http://www.w3.org/2000/svg" viewBox="0 0 900 1350"><filter id="b"><feGaussianBlur stdDeviation="12" /></filter><path fill="#726245" d="M0 0h896v1350H0z"/><g filter="url(#b)" transform="translate(2.6 2.6) scale(5.27344)" fill-opacity=".5"><ellipse fill="#fffff9" rx="1" ry="1" transform="matrix(64.7926 44.19852 -28.7903 42.20501 138.3 24.5)"/><ellipse fill="#001710" cx="83" cy="159" rx="68" ry="97"/><ellipse fill="#ffb56d" rx="1" ry="1" transform="matrix(24.8552 4.54732 -30.41413 166.24073 169 190.6)"/><ellipse fill="#bfb895" rx="1" ry="1" transform="rotate(-158.1 22.8 85.4) scale(65.24998 17.36427)"/><ellipse fill="#ffd3aa" rx="1" ry="1" transform="matrix(-8.2741 -25.01859 62.94175 -20.816 115.7 31.6)"/><ellipse fill="#001414" rx="1" ry="1" transform="matrix(-30.57107 -44.31499 28.62131 -19.74465 115.8 113)"/><path fill="#baff63" d="M44.7 127.3l29 2.5-2.4 27-29-2.6z"/><path fill="#fac698" d="M170.2 171.6L136 52.4l27.8-8L198 163.6z"/></g></svg>