<svg xmlns="http://www.w3.org/2000/svg" viewBox="0 0 900 600"><filter id="b"><feGaussianBlur stdDeviation="12" /></filter><path fill="#6f5f5e" d="M0 0h900v597H0z"/><g filter="url(#b)" transform="translate(1.8 1.8) scale(3.51563)" fill-opacity=".5"><ellipse fill="#ffffd0" rx="1" ry="1" transform="matrix(-18.35404 -39.18169 81.79198 -38.31416 185.4 165.5)"/><ellipse fill="#030428" cx="52" cy="84" rx="90" ry="55"/><ellipse fill="#bea985" rx="1" ry="1" transform="matrix(19.05647 54.85457 -25.4603 8.8449 218.8 58.5)"/><ellipse fill="#000029" cx="252" cy="13" rx="23" ry="33"/><ellipse fill="#00082d" rx="1" ry="1" transform="rotate(58.8 74.7 147.5) scale(27.35387 23.84387)"/><ellipse fill="#dcb178" rx="1" ry="1" transform="matrix(-30.46134 9.00958 -5.55395 -18.77786 80.2 157.8)"/><path fill="#d2c4b3" d="M284 161.7l-40.4 32.7-61.6-76.1 40.4-32.7z"/><ellipse fill="#0f1732" rx="1" ry="1" transform="matrix(40.37529 -36.69656 20.13896 22.15784 31.5 68)"/></g></svg>