<svg xmlns="http://www.w3.org/2000/svg" viewBox="0 0 900 1350"><filter id="c"><feGaussianBlur stdDeviation="55" /></filter><path fill="#a39895" d="M0 0h896v1350H0z"/><g filter='url(#c)' fill-opacity='.5'><ellipse fill="#fffdf5" fill-opacity=".5" rx="1" ry="1" transform="rotate(86.8 -187.3 659.5) scale(220.18981 513.78966)"/><ellipse fill="#2f272b" fill-opacity=".5" rx="1" ry="1" transform="matrix(-876.49976 -161.26144 48.50117 -263.61706 127.2 1330.2)"/><ellipse fill="#000006" fill-opacity=".5" rx="1" ry="1" transform="matrix(-149.35132 27.68434 -52.36911 -282.52058 72 182.3)"/><ellipse fill="#fff" fill-opacity=".5" rx="1" ry="1" transform="matrix(23.76519 110.13533 -134.32862 28.98566 30.7 559.7)"/><ellipse fill="#6e1e00" fill-opacity=".5" rx="1" ry="1" transform="rotate(68.4 -63.9 690) scale(78.87446 179.5063)"/><path fill="#93570b" fill-opacity=".5" d="M340.1 746.2h263.7v137.1H340.1z"/><path fill="#e7e4eb" fill-opacity=".5" d="M203 255.8L603.8-81.7 704 403.4z"/><path fill="#1b1200" fill-opacity=".5" d="M796.5 273.2L688.6 298 611.5-36l107.9-24.9z"/></g></svg>