<svg xmlns="http://www.w3.org/2000/svg" viewBox="0 0 900 600"><filter id="c"><feGaussianBlur stdDeviation="55" /></filter><path fill="#dbd3ba" d="M0 0h900v597H0z"/><g filter='url(#c)' fill-opacity='.5'><ellipse fill="#682a00" fill-opacity=".5" rx="1" ry="1" transform="matrix(247.1691 -32.10166 21.99695 169.36711 437.3 303.4)"/><ellipse fill="#fff" fill-opacity=".5" rx="1" ry="1" transform="matrix(18.39448 768.2259 -193.01628 4.6216 844.1 208.2)"/><ellipse fill="#fff" fill-opacity=".5" rx="1" ry="1" transform="matrix(139.24212 33.6616 -166.15986 687.32455 70.7 221)"/><ellipse fill="#917500" fill-opacity=".5" rx="1" ry="1" transform="matrix(215.17337 79.69523 -47.31946 127.7603 480.3 262.6)"/><ellipse fill="#fff" fill-opacity=".5" rx="1" ry="1" transform="matrix(-647.97638 61.2518 -9.12105 -96.4906 414.7 565.2)"/><ellipse fill="#faffff" fill-opacity=".5" rx="1" ry="1" transform="matrix(-881.77384 -90.1388 8.36693 -81.84864 496.2 37.8)"/><ellipse fill="#3a3006" fill-opacity=".5" rx="1" ry="1" transform="rotate(-111.4 327.6 8.7) scale(38.21296 191.7682)"/><ellipse fill="#fff767" fill-opacity=".5" rx="1" ry="1" transform="matrix(-144.64896 70.6594 -10.79305 -22.09478 544.9 422.7)"/></g></svg>