<svg xmlns="http://www.w3.org/2000/svg" viewBox="0 0 900 1350"><filter id="b"><feGaussianBlur stdDeviation="12" /></filter><path fill="#726a4c" d="M0 0h896v1350H0z"/><g filter="url(#b)" transform="translate(2.6 2.6) scale(5.27344)" fill-opacity=".5"><ellipse fill="#010000" rx="1" ry="1" transform="matrix(-20.76936 36.56069 -39.10713 -22.21594 36.5 169.2)"/><ellipse fill="#a9c89b" rx="1" ry="1" transform="matrix(45.40213 -1.13785 2.04036 81.41335 26 50.2)"/><ellipse fill="#ddd1b1" rx="1" ry="1" transform="matrix(-59.93298 49.58087 -14.28472 -17.26726 141.8 127.3)"/><ellipse fill="#7e390f" cx="114" cy="224" rx="140" ry="51"/><ellipse fill="#00140a" cx="75" cy="209" rx="35" ry="17"/><ellipse fill="#e98b00" rx="1" ry="1" transform="matrix(1.21278 11.18704 -27.46647 2.97761 45.6 67.2)"/><ellipse fill="#080600" rx="1" ry="1" transform="matrix(38.98473 -15.20717 6.77072 17.35725 47.7 151.2)"/><ellipse fill="#270000" rx="1" ry="1" transform="rotate(-119.1 129.2 26.3) scale(10.96891 37.96678)"/></g></svg>