<svg xmlns="http://www.w3.org/2000/svg" viewBox="0 0 900 1350"><filter id="c"><feGaussianBlur stdDeviation="55" /></filter><path fill="#6a6853" d="M0 0h896v1350H0z"/><g filter='url(#c)' fill-opacity='.5'><ellipse fill="#fff" fill-opacity=".5" rx="1" ry="1" transform="rotate(-54.7 848 -615.8) scale(219.85022 628.30428)"/><ellipse fill-opacity=".5" rx="1" ry="1" transform="matrix(-888.08542 -74.57462 14.78895 -176.11685 576.6 1274.8)"/><ellipse fill="#000903" fill-opacity=".5" rx="1" ry="1" transform="rotate(-137.7 394 225.4) scale(223.00579 181.05276)"/><ellipse fill="#fff" fill-opacity=".5" rx="1" ry="1" transform="matrix(108.27622 103.28826 -145.68063 152.71579 672.5 298.5)"/><path fill="#fff" fill-opacity=".5" d="M667.3 161.4L1042 785.2l-153.7 92.3-374.8-623.8z"/><ellipse fill="#0e0000" fill-opacity=".5" rx="1" ry="1" transform="rotate(-54.9 345.8 -603.6) scale(169.38229 97.19008)"/><ellipse fill="#3ac9f2" fill-opacity=".5" rx="1" ry="1" transform="matrix(174.80701 -89.66516 45.97189 89.62464 516.1 997.3)"/><ellipse fill="#252800" fill-opacity=".5" rx="1" ry="1" transform="matrix(196.38543 804.69192 -145.04373 35.39799 195.6 947.2)"/></g></svg>