<svg xmlns="http://www.w3.org/2000/svg" viewBox="0 0 900 600"><filter id="b"><feGaussianBlur stdDeviation="12" /></filter><path fill="#6d543e" d="M0 0h900v597H0z"/><g filter="url(#b)" transform="translate(1.8 1.8) scale(3.51563)" fill-opacity=".5"><ellipse fill="#ffffdb" rx="1" ry="1" transform="rotate(-87 106.7 -5.8) scale(38.9516 141.3423)"/><ellipse cx="148" cy="26" rx="255" ry="41"/><ellipse fill="#520000" rx="1" ry="1" transform="rotate(-105.7 128.3 24.5) scale(44.72641 75.40608)"/><ellipse fill="#fff" rx="1" ry="1" transform="rotate(30.2 -255.8 69) scale(31.30019 76.34676)"/><ellipse rx="1" ry="1" transform="matrix(-13.97463 29.8389 -128.317 -60.09549 187 32.2)"/><ellipse fill="#fffede" rx="1" ry="1" transform="matrix(114.97566 -25.48949 5.66355 25.54664 51.7 99.3)"/><ellipse fill="#0f0000" rx="1" ry="1" transform="rotate(-67.6 142.9 29.9) scale(18.7664 44.97041)"/><path d="M47 161l202-32-35 56z"/></g></svg>