<svg xmlns="http://www.w3.org/2000/svg" viewBox="0 0 900 600"><filter id="b"><feGaussianBlur stdDeviation="12" /></filter><path fill="#b8a07d" d="M0 0h900v597H0z"/><g filter="url(#b)" transform="translate(1.8 1.8) scale(3.51563)" fill-opacity=".5"><ellipse fill="#1b0000" rx="1" ry="1" transform="rotate(95.7 -34.7 44.8) scale(252.84493 42.4782)"/><ellipse fill="#fff" cx="185" cy="98" rx="38" ry="73"/><ellipse fill="#0a3800" rx="1" ry="1" transform="rotate(51.3 -52.7 179.5) scale(43.25233 34.58291)"/><ellipse fill="#fffff3" rx="1" ry="1" transform="matrix(-6.01693 -24.3446 60.3824 -14.9239 122.7 42.2)"/><path fill="#fff" d="M213 158L48 130l34 55z"/><ellipse fill="#fff" rx="1" ry="1" transform="matrix(7.16252 -45.29223 19.99778 3.16245 65.1 92.4)"/><ellipse fill="#4d1a01" rx="1" ry="1" transform="matrix(-81.79804 -187.0546 22.37539 -9.78464 29 146.7)"/><ellipse fill="#fff" rx="1" ry="1" transform="matrix(37.92062 -61.47354 24.88092 15.34806 179.6 139.5)"/></g></svg>