<svg xmlns="http://www.w3.org/2000/svg" viewBox="0 0 900 600"><filter id="b"><feGaussianBlur stdDeviation="12" /></filter><path fill="#7c6a54" d="M0 0h900v597H0z"/><g filter="url(#b)" transform="translate(1.8 1.8) scale(3.51563)" fill-opacity=".5"><ellipse rx="1" ry="1" transform="matrix(-67.2997 -39.28346 24.96546 -42.77035 193.5 45.4)"/><ellipse fill="#fffffe" cx="43" cy="124" rx="75" ry="37"/><ellipse fill="#fff" rx="1" ry="1" transform="matrix(-4.93734 24.77443 -50.16155 -9.99679 203.2 124.2)"/><ellipse fill="#ffe296" rx="1" ry="1" transform="matrix(12.57723 -42.85387 34.08194 10.00274 90.5 38.7)"/><ellipse rx="1" ry="1" transform="rotate(90.5 6.5 33.4) scale(62.47577 21.77425)"/><path d="M271 45L140-16l-9 129z"/><ellipse fill="#000300" rx="1" ry="1" transform="matrix(1.47011 -22.08738 26.25874 1.74776 143.4 127.4)"/><ellipse fill="ivory" rx="1" ry="1" transform="rotate(-136.3 69.6 42.4) scale(20.23031 36.66544)"/></g></svg>