<svg xmlns="http://www.w3.org/2000/svg" viewBox="0 0 900 600"><filter id="b"><feGaussianBlur stdDeviation="12" /></filter><path fill="#998266" d="M0 0h900v597H0z"/><g filter="url(#b)" transform="translate(1.8 1.8) scale(3.51563)" fill-opacity=".5"><ellipse fill="#fff" rx="1" ry="1" transform="matrix(35.52829 -32.36467 56.08903 61.57167 235.4 130.5)"/><ellipse rx="1" ry="1" transform="matrix(-41.54656 -28.27293 24.2624 -35.65314 38 13.5)"/><ellipse rx="1" ry="1" transform="matrix(13.4969 -25.83104 79.73969 41.66454 255 46)"/><ellipse fill="#ffeece" cx="40" cy="142" rx="47" ry="89"/><ellipse fill="#532200" cx="143" cy="136" rx="30" ry="119"/><ellipse rx="1" ry="1" transform="matrix(44.10347 -6.2013 3.16938 22.54051 41 31)"/><ellipse fill="#fff" cx="195" cy="79" rx="22" ry="51"/><path d="M282.5 72.4l-66 1.2-1-62 66-1.2z"/></g></svg>