<svg xmlns="http://www.w3.org/2000/svg" viewBox="0 0 900 506"><filter id="b"><feGaussianBlur stdDeviation="12" /></filter><path fill="#8f8379" d="M0 0h900v502H0z"/><g filter="url(#b)" transform="translate(1.8 1.8) scale(3.51563)" fill-opacity=".5"><ellipse fill="#fff" rx="1" ry="1" transform="rotate(172.7 43 2.7) scale(100.91107 48.47488)"/><ellipse fill="#433540" cx="126" cy="94" rx="255" ry="31"/><ellipse fill="#fffff6" rx="1" ry="1" transform="rotate(-174.8 46.9 2.6) scale(95.28185 16.72825)"/><ellipse fill="#ffe3c9" rx="1" ry="1" transform="matrix(68.88768 9.00421 -2.24624 17.18513 162.4 142)"/><ellipse fill="#554032" rx="1" ry="1" transform="matrix(-30.83087 4.40884 -8.52803 -59.63619 240 45.6)"/><ellipse fill="#291f40" cx="150" cy="70" rx="22" ry="43"/><ellipse fill="#343646" rx="1" ry="1" transform="rotate(-117.3 52.6 65.3) scale(22.06847 103.40184)"/><ellipse fill="#9f9685" rx="1" ry="1" transform="matrix(-63.48507 13.03161 -7.00605 -34.13083 20.8 70.7)"/></g></svg>