<svg xmlns="http://www.w3.org/2000/svg" viewBox="0 0 900 600"><filter id="b"><feGaussianBlur stdDeviation="12" /></filter><path fill="#d9cfb3" d="M0 0h900v597H0z"/><g filter="url(#b)" transform="translate(1.8 1.8) scale(3.51563)" fill-opacity=".5"><ellipse rx="1" ry="1" transform="rotate(16.9 -431.3 942.3) scale(22.59212 113.32963)"/><ellipse fill="#410000" rx="1" ry="1" transform="matrix(-16.51806 8.04914 -56.41336 -115.76883 255 38.7)"/><ellipse fill="#a3a100" rx="1" ry="1" transform="rotate(-8.2 920.3 -809.1) scale(16.84256 108.05042)"/><path fill="#550b00" d="M11.2-38.2L44.5-22-11.2 92.2-44.5 76z"/><ellipse fill="#fff" rx="1" ry="1" transform="matrix(50.5282 -11.39447 21.34014 94.63183 193.4 76.7)"/><path fill="#180000" d="M-.2 106.1L4 126.3 28.4 185H-15z"/><ellipse fill="#fff" cx="70" cy="46" rx="31" ry="117"/><path fill="#3b560c" d="M146 12l-41.2 14.4-6.7 42 35.6-12.2z"/></g></svg>