<svg xmlns="http://www.w3.org/2000/svg" viewBox="0 0 900 600"><filter id="b"><feGaussianBlur stdDeviation="12" /></filter><path fill="#62544c" d="M0 0h900v597H0z"/><g filter="url(#b)" transform="translate(1.8 1.8) scale(3.51563)" fill-opacity=".5"><ellipse fill="#f7eee9" rx="1" ry="1" transform="matrix(90.24598 -55.04709 18.89605 30.9788 255 36.9)"/><ellipse cx="85" cy="23" rx="131" ry="30"/><ellipse fill="#fccfbd" rx="1" ry="1" transform="matrix(-54.02865 10.30652 -2.46625 -12.92854 128 89.3)"/><path fill="#ffffd4" d="M47 114h26v31H47z"/><path fill="#ffe8b3" d="M232 122l-89 20 33-32z"/><ellipse rx="1" ry="1" transform="rotate(143.3 63.6 113.2) scale(31.32167 24.90811)"/><ellipse fill="#170000" rx="1" ry="1" transform="matrix(6.74205 -28.85689 36.59264 8.54941 13.6 149.2)"/><ellipse fill="#83462b" rx="1" ry="1" transform="matrix(28.62468 -19.06782 8.7984 13.2082 209.3 92.7)"/></g></svg>