<svg xmlns="http://www.w3.org/2000/svg" viewBox="0 0 900 1350"><filter id="b"><feGaussianBlur stdDeviation="12" /></filter><path fill="#a49885" d="M0 0h896v1350H0z"/><g filter="url(#b)" transform="translate(2.6 2.6) scale(5.27344)" fill-opacity=".5"><ellipse cy="228" rx="166" ry="31"/><path fill="#fffff8" d="M13 185L-16 15 185-6z"/><ellipse rx="1" ry="1" transform="rotate(-73.1 181.3 -4.8) scale(17.96748 92.24103)"/><ellipse fill="#fff" rx="1" ry="1" transform="matrix(-25.12895 61.53879 -48.4449 -19.78215 157.6 86.5)"/><ellipse rx="1" ry="1" transform="matrix(18.42872 -27.3836 112.31933 75.58907 16.9 219.4)"/><ellipse fill="#ffff82" rx="1" ry="1" transform="rotate(86.9 -57.2 150.5) scale(13.10252 58.99758)"/><ellipse rx="1" ry="1" transform="matrix(66.80889 -14.68889 2.90198 13.19896 117.6 227.7)"/><ellipse rx="1" ry="1" transform="matrix(2.9411 -19.44709 41.04839 6.20799 143.5 172.4)"/></g></svg>