<svg xmlns="http://www.w3.org/2000/svg" viewBox="0 0 900 600"><filter id="b"><feGaussianBlur stdDeviation="12" /></filter><path fill="#564f41" d="M0 0h900v597H0z"/><g filter="url(#b)" transform="translate(1.8 1.8) scale(3.51563)" fill-opacity=".5"><ellipse fill="#ffffd4" rx="1" ry="1" transform="matrix(125.30723 37.4179 -14.35957 48.08815 140.9 134.6)"/><ellipse rx="1" ry="1" transform="matrix(2.05215 -50.06533 254.62617 10.437 153.7 30.5)"/><ellipse fill="#ffb22a" rx="1" ry="1" transform="matrix(20.66762 2.64758 -4.17947 32.62585 89.6 69.5)"/><ellipse rx="1" ry="1" transform="matrix(90.84638 47.69542 -9.55996 18.20905 10 148.2)"/><ellipse fill="#ff9300" cx="160" cy="93" rx="22" ry="35"/><ellipse rx="1" ry="1" transform="rotate(-130 26.7 8.9) scale(36.54482 122.5073)"/><ellipse rx="1" ry="1" transform="rotate(23.6 16.3 529.7) scale(175.42662 63.9375)"/><ellipse fill="#d0d2ca" rx="1" ry="1" transform="rotate(-70.6 165.3 -6.4) scale(23.53159 104.96488)"/></g></svg>