<svg xmlns="http://www.w3.org/2000/svg" viewBox="0 0 900 1350"><filter id="b"><feGaussianBlur stdDeviation="12" /></filter><path fill="#3e3125" d="M0 0h896v1350H0z"/><g filter="url(#b)" transform="translate(2.6 2.6) scale(5.27344)" fill-opacity=".5"><ellipse fill="#fff" rx="1" ry="1" transform="matrix(6.36565 -58.59678 24.3919 2.6498 125.7 113.3)"/><ellipse fill="#dbdeee" rx="1" ry="1" transform="matrix(-4.07962 -27.56236 49.93767 -7.3915 155.7 251.8)"/><path fill="#fff" d="M147.5 97.5h-43v-37h43z"/><ellipse rx="1" ry="1" transform="rotate(-152.6 45.5 84.4) scale(85.95661 45.22806)"/><path fill="#fff" d="M36 90h26v27H36z"/><ellipse rx="1" ry="1" transform="rotate(161.2 60.7 23.9) scale(126.5448 32.07522)"/><ellipse rx="1" ry="1" transform="matrix(16.94187 -50.4789 29.9023 10.0359 154.5 182.5)"/><ellipse fill="#ff97a3" cx="95" cy="102" rx="5" ry="38"/></g></svg>