<svg xmlns="http://www.w3.org/2000/svg" viewBox="0 0 900 605"><filter id="b"><feGaussianBlur stdDeviation="12" /></filter><path fill="#998c76" d="M0 0h900v604H0z"/><g filter="url(#b)" transform="translate(1.8 1.8) scale(3.51563)" fill-opacity=".5"><path fill="#2e1100" d="M230.8 34.5L303 66.6l-61.8 138.9-72.2-32.1z"/><path fill="#f4f2ee" d="M-16-16L87 109 271 2z"/><ellipse rx="1" ry="1" transform="matrix(-17.40908 .8819 -2.8745 -56.74346 55.1 140.2)"/><ellipse fill="#4e310a" cx="157" cy="119" rx="255" ry="16"/><ellipse fill="#7e6a4e" rx="1" ry="1" transform="matrix(-75.38078 7.4594 -1.86195 -18.81592 155.2 40.3)"/><ellipse fill="#fff" rx="1" ry="1" transform="matrix(-6.10805 37.40577 -16.66428 -2.72114 115.5 155.5)"/><ellipse fill="#e5d0ab" rx="1" ry="1" transform="matrix(21.81008 77.59182 -15.33386 4.31015 204.6 72.7)"/><ellipse fill="#643700" rx="1" ry="1" transform="matrix(18.46618 -48.71099 15.33067 5.8118 15.2 69.3)"/></g></svg>