<svg xmlns="http://www.w3.org/2000/svg" viewBox="0 0 900 600"><filter id="b"><feGaussianBlur stdDeviation="12" /></filter><path fill="#926d60" d="M0 0h900v597H0z"/><g filter="url(#b)" transform="translate(1.8 1.8) scale(3.51563)" fill-opacity=".5"><ellipse fill="#ffffde" rx="1" ry="1" transform="matrix(-7.74092 -6.31712 29.692 -36.3842 102.7 101.4)"/><path fill="#fff" d="M199.4 29.3l15 85.7-9.8 1.7-15-85.7z"/><ellipse fill="#362036" rx="1" ry="1" transform="matrix(-50.23491 24.2231 -13.87358 -28.77164 153.5 169)"/><path fill="#ecaf6e" d="M-.3-19.5l254.9-9 1.7 48-254.9 9z"/><path fill="#fff" d="M148.7 102.4l-5.3 13-24-9.8 5.2-13z"/><ellipse fill="#3b293f" cx="186" cy="116" rx="16" ry="60"/><ellipse fill="#3d3244" cx="236" cy="83" rx="27" ry="27"/><path fill="#fff" d="M200.4 87.3l-5.5-20 28.7-23L203 96.5z"/></g></svg>