<svg xmlns="http://www.w3.org/2000/svg" viewBox="0 0 900 600"><filter id="b"><feGaussianBlur stdDeviation="12" /></filter><path fill="#bfae90" d="M0 0h900v597H0z"/><g filter="url(#b)" transform="translate(1.8 1.8) scale(3.51563)" fill-opacity=".5"><ellipse fill="#734400" cx="115" cy="86" rx="87" ry="56"/><ellipse fill="#fff" rx="1" ry="1" transform="rotate(-75.8 150.7 15.2) scale(25.16417 140.8754)"/><ellipse fill="#fff" rx="1" ry="1" transform="matrix(9.33431 21.07745 -138.5142 61.34209 54 21.3)"/><ellipse fill="#fff" cx="16" cy="81" rx="20" ry="70"/><ellipse fill="#ecf2ff" rx="1" ry="1" transform="matrix(41.03823 27.3455 -28.81138 43.2381 231.5 153.5)"/><path fill="#ffffcf" d="M182-16L124-3l55 102z"/><ellipse fill="#0d0000" rx="1" ry="1" transform="matrix(-16.2988 -1.62684 3.1324 -31.3826 55.3 86.2)"/><ellipse fill="#ffe812" rx="1" ry="1" transform="matrix(-10.25135 -21.51503 16.52191 -7.87226 87.9 70.2)"/></g></svg>