<svg xmlns="http://www.w3.org/2000/svg" viewBox="0 0 900 1350"><filter id="b"><feGaussianBlur stdDeviation="12" /></filter><path fill="#aea392" d="M0 0h896v1350H0z"/><g filter="url(#b)" transform="translate(2.6 2.6) scale(5.27344)" fill-opacity=".5"><ellipse fill="#010000" rx="1" ry="1" transform="rotate(94.7 20 59.8) scale(76.92138 23.198)"/><ellipse fill="#fff" cx="145" cy="99" rx="37" ry="124"/><ellipse rx="1" ry="1" transform="matrix(17.02692 -45.6839 18.20827 6.78643 16.9 84.4)"/><ellipse fill="#333321" rx="1" ry="1" transform="rotate(116.5 -63.5 128.3) scale(34.77906 64.02602)"/><path d="M76.6 192l36-8.6-12.1-23 42.4 69.2z"/><path fill="#fff" d="M32 20h72v11H32z"/><path fill="#1e0000" d="M156.7 50.8L119.4 65l-6.1-15.9L150.6 35z"/><ellipse fill="#fff" rx="1" ry="1" transform="matrix(-2.14179 21.32888 -46.97744 -4.71735 124.2 249.6)"/></g></svg>