<svg xmlns="http://www.w3.org/2000/svg" viewBox="0 0 900 600"><filter id="c"><feGaussianBlur stdDeviation="55" /></filter><path fill="#986e5d" d="M0 0h900v597H0z"/><g filter='url(#c)' fill-opacity='.5'><ellipse fill="#efeac8" fill-opacity=".5" rx="1" ry="1" transform="rotate(-121.6 243.4 -23.2) scale(54.2389 180.61391)"/><ellipse fill="#000034" fill-opacity=".5" rx="1" ry="1" transform="matrix(-11.42111 270.86194 -29.0517 -1.22499 22.6 287.4)"/><path fill="#fff" fill-opacity=".5" d="M300.5 515l-34-204.2 89.5 133-30.1 71.9z"/><ellipse fill="#050d2a" fill-opacity=".5" rx="1" ry="1" transform="matrix(-130.39184 44.75218 -7.5976 -22.13671 472 524.4)"/><ellipse fill="#fbb078" fill-opacity=".5" rx="1" ry="1" transform="rotate(152.6 19.8 308.8) scale(53.48076 198.26517)"/><path fill="#39403b" fill-opacity=".5" d="M283.3 256l97-41.2 85.2 200.7-97 41.2z"/><path fill="#724647" fill-opacity=".5" d="M574.8 135.4h327v316.4h-327z"/><path fill="#c4c67b" fill-opacity=".5" d="M585.4 80.1l52.2 160.5-214 69.5-52.2-160.5z"/></g></svg>