<svg xmlns="http://www.w3.org/2000/svg" viewBox="0 0 900 600"><filter id="c"><feGaussianBlur stdDeviation="55" /></filter><path fill="#e0d6d5" d="M0 0h900v597H0z"/><g filter='url(#c)' fill-opacity='.5'><path fill="#9c736b" fill-opacity=".5" d="M866.6 652.1L427.1 184.6-47.5 581.8z"/><ellipse fill="#fff" fill-opacity=".5" rx="1" ry="1" transform="matrix(-85.41399 197.38007 -822.7527 -356.03689 492 40.8)"/><ellipse fill="#fff" fill-opacity=".5" rx="1" ry="1" transform="matrix(232.84942 312.48313 -31.60889 23.55363 247.4 522.4)"/><ellipse fill="#fff" fill-opacity=".5" rx="1" ry="1" transform="matrix(-642.72047 227.90771 -47.19774 -133.10192 156.2 179)"/><path fill="#9c6c67" fill-opacity=".5" d="M576.7 347.2L406.2 182.4 410 243 97.3 358.9z"/><path fill="#5f211f" fill-opacity=".5" d="M149.4 318.2l182.8 246-52.7-158.1z"/><ellipse fill="#fff" fill-opacity=".5" rx="1" ry="1" transform="matrix(-339.63567 -335.15405 34.03996 -34.49513 697 403.9)"/><path fill="#fff" fill-opacity=".5" d="M399 652.1L131.8 307.6 181.1 494z"/></g></svg>