<svg xmlns="http://www.w3.org/2000/svg" viewBox="0 0 600 900"><filter id="b"><feGaussianBlur stdDeviation="12" /></filter><path fill="#594a35" d="M0 0h597v900H0z"/><g filter="url(#b)" transform="translate(1.8 1.8) scale(3.51563)" fill-opacity=".5"><ellipse fill="#ffe2b9" rx="1" ry="1" transform="rotate(127.2 8.2 77.9) scale(61.70605 47.58947)"/><ellipse rx="1" ry="1" transform="rotate(-99 51.8 -36.2) scale(49.21363 168.99999)"/><ellipse fill="#070700" rx="1" ry="1" transform="rotate(-102.9 146.3 69.9) scale(35.3684 94.8651)"/><ellipse fill="#d7b895" rx="1" ry="1" transform="matrix(-5.90512 -45.35543 15.72222 -2.04698 148.3 123.7)"/><path fill="#050000" d="M91.2 160.3l-35.5 3.9 46.6 20 45.7-45z"/><ellipse fill="#e7bfa0" cx="74" cy="128" rx="48" ry="34"/><path fill="#8a592e" d="M40 98l66-63 32 41z"/><ellipse fill="#e7c291" rx="1" ry="1" transform="matrix(29.69652 18.55645 -3.95684 6.33227 61.6 179.2)"/></g></svg>