<svg xmlns="http://www.w3.org/2000/svg" viewBox="0 0 900 602"><filter id="b"><feGaussianBlur stdDeviation="12" /></filter><path fill="#b19396" d="M0 0h900v601H0z"/><g filter="url(#b)" transform="translate(1.8 1.8) scale(3.51563)" fill-opacity=".5"><ellipse fill="#eceef1" rx="1" ry="1" transform="matrix(115.20908 -10.69622 2.5676 27.65558 199 151)"/><ellipse fill="#234b8b" cx="35" cy="18" rx="37" ry="37"/><ellipse fill="#b4554d" cx="135" cy="95" rx="82" ry="40"/><ellipse fill="#fff" rx="1" ry="1" transform="matrix(7.60366 3.0386 -19.6923 49.27722 226.4 116.2)"/><path fill="#0b0a1d" d="M257 47l-12 59.2L265 30l-76.8 3.8z"/><ellipse fill="#fff" rx="1" ry="1" transform="matrix(.43633 8.12558 -49.09128 2.63614 59.5 170)"/><path fill="#fff" d="M-7.6 39.1l42.4 22.6-11.2 21.2-42.4-22.6z"/><path fill="#4b314c" d="M33.3 143.3L84 160.2l11.3-8.7-83.2-51.9z"/></g></svg>