<svg xmlns="http://www.w3.org/2000/svg" viewBox="0 0 900 600"><filter id="b"><feGaussianBlur stdDeviation="12" /></filter><path fill="#593c23" d="M0 0h900v597H0z"/><g filter="url(#b)" transform="translate(1.8 1.8) scale(3.51563)" fill-opacity=".5"><ellipse fill="#faffff" rx="1" ry="1" transform="matrix(20.27586 -21.3483 14.31892 13.5996 230 166.7)"/><ellipse rx="1" ry="1" transform="matrix(146.1421 32.39892 -9.05903 40.86264 33.3 152.3)"/><ellipse fill="#b1875d" cx="132" cy="73" rx="152" ry="19"/><ellipse fill="#ffa523" rx="1" ry="1" transform="matrix(24.34331 6.96464 -4.0952 14.31385 3.7 41.9)"/><path fill="#fff" d="M222 31h34v5h-34z"/><path fill="#070500" d="M204.2 112.9l-43-.8.6-37 43 .8z"/><ellipse fill="#0c0e0d" rx="1" ry="1" transform="matrix(-14.67477 -15.70365 34.80812 -32.52755 212.5 126.8)"/><ellipse fill="#bda491" rx="1" ry="1" transform="matrix(32.26938 -3.39459 1.59565 15.1685 127.4 79.5)"/></g></svg>