<svg xmlns="http://www.w3.org/2000/svg" viewBox="0 0 900 600"><filter id="b"><feGaussianBlur stdDeviation="12" /></filter><path fill="#949aa2" d="M0 0h900v597H0z"/><g filter="url(#b)" transform="translate(1.8 1.8) scale(3.51563)" fill-opacity=".5"><ellipse rx="1" ry="1" transform="rotate(-171 126.6 67.3) scale(69.94913 29.02127)"/><ellipse fill="#fffffb" rx="1" ry="1" transform="rotate(-174.1 41.4 43.7) scale(158.13745 32.59148)"/><ellipse fill="#0e2352" rx="1" ry="1" transform="rotate(20 -42.8 738.2) scale(108.39657 23.44289)"/><ellipse fill="#000041" rx="1" ry="1" transform="matrix(-30.99577 6.92838 -5.10145 -22.82257 23.1 15.6)"/><ellipse cx="16" cy="134" rx="124" ry="5"/><path fill="#fffeff" d="M133 2.5L126 43 61 31.5 68-9z"/><ellipse fill="#004cc3" rx="1" ry="1" transform="matrix(-2.82346 -13.87777 66.83144 -13.59701 248.4 0)"/><path d="M208 140l63 13-31-46z"/></g></svg>