<svg xmlns="http://www.w3.org/2000/svg" viewBox="0 0 900 602"><filter id="b"><feGaussianBlur stdDeviation="12" /></filter><path fill="#a39d95" d="M0 0h900v601H0z"/><g filter="url(#b)" transform="translate(1.8 1.8) scale(3.51563)" fill-opacity=".5"><path fill="#18262a" d="M324 83.5L222 172l-76-87.6L247.8-4z"/><ellipse fill="#fff" rx="1" ry="1" transform="matrix(47.90556 -49.09065 64.32773 62.7748 89.6 1.1)"/><path fill="#fff1e1" d="M103.4 98.3l71.3 10-10 71.4-71.4-10z"/><ellipse fill="#8f665b" rx="1" ry="1" transform="rotate(-65.9 92.3 -10.9) scale(33.33369 51.79835)"/><ellipse fill="ivory" rx="1" ry="1" transform="matrix(31.43671 2.58457 -6.23087 75.78755 127.8 14.5)"/><ellipse fill="#898481" cx="213" cy="155" rx="43" ry="42"/><path fill="ivory" d="M73.6 74.8l-23.4-5.4L66.4-.8l23.4 5.4z"/><ellipse fill="#381d3a" rx="1" ry="1" transform="matrix(-28.60362 -72.98783 15.85452 -6.21332 0 156.6)"/></g></svg>