<svg xmlns="http://www.w3.org/2000/svg" viewBox="0 0 600 900"><filter id="b"><feGaussianBlur stdDeviation="12" /></filter><path fill="#9e8f81" d="M0 0h597v900H0z"/><g filter="url(#b)" transform="translate(1.8 1.8) scale(3.51563)" fill-opacity=".5"><ellipse fill="#170100" cx="142" cy="179" rx="143" ry="44"/><ellipse fill="#fff" rx="1" ry="1" transform="matrix(-79.83723 -8.53214 10.26646 -96.06571 55 64.1)"/><ellipse fill="#170800" rx="1" ry="1" transform="matrix(6.53235 118.33252 -26.685 1.4731 152.8 141.6)"/><ellipse fill="#f96f33" rx="1" ry="1" transform="matrix(-142.3561 -36.39316 7.5332 -29.467 69.4 241)"/><path fill="#dcf5ff" d="M7 158.4l-86.8-90L95-100.4l86.8 90z"/><ellipse fill="#493300" cx="69" cy="169" rx="75" ry="22"/><ellipse fill="#3e3600" rx="1" ry="1" transform="matrix(2.85571 -58.3893 32.51095 1.59005 158 96.2)"/><path fill="#e2edfa" d="M124 119l-53 48 37-183z"/></g></svg>