<svg xmlns="http://www.w3.org/2000/svg" viewBox="0 0 900 602"><filter id="b"><feGaussianBlur stdDeviation="12" /></filter><path fill="#a18e7c" d="M0 0h900v601H0z"/><g filter="url(#b)" transform="translate(1.8 1.8) scale(3.51563)" fill-opacity=".5"><ellipse fill="#dff" rx="1" ry="1" transform="matrix(3.97274 -46.6787 127.03507 10.81172 137.4 0)"/><ellipse fill="#5e2a39" rx="1" ry="1" transform="rotate(-90.5 80.2 72.8) scale(122.08501 70.45451)"/><ellipse fill="#3f3211" rx="1" ry="1" transform="matrix(-8.41167 71.97684 -23.08868 -2.69829 243.5 105)"/><path fill="#d6b779" d="M68 35h164v74H68z"/><ellipse fill="#4a202a" cx="145" cy="80" rx="14" ry="17"/><path fill="#936b4d" d="M131.9 167l2.5-36.8 125.7 8.7-2.5 37z"/><ellipse fill="#bce9fd" rx="1" ry="1" transform="matrix(-131.6854 -5.17575 .6882 -17.50962 159.3 10)"/><path fill="#202b13" d="M285.3 49.7l-19.8 49.1-40.8-16.5 19.8-49.1z"/></g></svg>