<svg xmlns="http://www.w3.org/2000/svg" viewBox="0 0 900 600"><filter id="b"><feGaussianBlur stdDeviation="12" /></filter><path fill="#c3b8ab" d="M0 0h900v597H0z"/><g filter="url(#b)" transform="translate(1.8 1.8) scale(3.51563)" fill-opacity=".5"><ellipse fill="#250400" rx="1" ry="1" transform="matrix(-.93177 -20.73764 242.67 -10.90346 149.2 160.4)"/><ellipse fill="#fff" rx="1" ry="1" transform="rotate(28.8 -44 515.4) scale(221.44607 42.97746)"/><path fill="#1d1c23" d="M66.2 58.4l65 2.2-1.4 37-65-2.2z"/><ellipse rx="1" ry="1" transform="rotate(177.4 110.4 87.1) scale(91.61968 23.53703)"/><ellipse fill="#d98434" cx="18" cy="157" rx="99" ry="27"/><path fill="#fffff8" d="M83 154l-99-56 142 2z"/><path d="M19 82h33v13H19z"/><ellipse fill="#fffff4" rx="1" ry="1" transform="matrix(177.25352 15.81945 -1.82188 20.4138 157.3 43)"/></g></svg>