<svg xmlns="http://www.w3.org/2000/svg" viewBox="0 0 900 600"><filter id="b"><feGaussianBlur stdDeviation="12" /></filter><path fill="#9e9fa1" d="M0 0h900v597H0z"/><g filter="url(#b)" transform="translate(1.8 1.8) scale(3.51563)" fill-opacity=".5"><ellipse fill="#160902" rx="1" ry="1" transform="rotate(-177 61.4 68) scale(253.41363 40.2037)"/><ellipse fill="#fff" rx="1" ry="1" transform="matrix(-18.97431 -68.72569 195.94653 -54.09842 164.2 0)"/><ellipse fill="#001c4f" rx="1" ry="1" transform="matrix(-4.42731 31.50198 -26.75801 -3.7606 174.3 76.7)"/><ellipse fill="#fff" rx="1" ry="1" transform="rotate(-130.6 56.7 21.2) scale(40.38321 31.16788)"/><ellipse fill="#fff" cx="206" cy="21" rx="198" ry="31"/><ellipse fill="#fff" cx="252" cy="69" rx="29" ry="39"/><path fill="#180c00" d="M31.5 126l35.4-13.4L-16 69.1l2 53.4z"/><ellipse fill="#fff" rx="1" ry="1" transform="matrix(-.1022 4.90788 -50.21125 -1.04551 90.6 129)"/></g></svg>