<svg xmlns="http://www.w3.org/2000/svg" viewBox="0 0 900 602"><filter id="b"><feGaussianBlur stdDeviation="12" /></filter><path fill="#b19782" d="M0 0h900v601H0z"/><g filter="url(#b)" transform="translate(1.8 1.8) scale(3.51563)" fill-opacity=".5"><ellipse fill="#fff" rx="1" ry="1" transform="rotate(-111.2 86.6 -50.3) scale(56.21787 112.32236)"/><ellipse fill="#662e1f" rx="1" ry="1" transform="matrix(-254.84823 8.79661 -1.58761 -45.995 150 146.4)"/><ellipse fill="#fff" cx="132" cy="25" rx="57" ry="69"/><ellipse fill="#795d35" cx="212" cy="100" rx="48" ry="65"/><ellipse fill="#fff" rx="1" ry="1" transform="matrix(70.94624 45.8553 -10.36466 16.03595 231.2 20.6)"/><ellipse fill="#a86a4b" rx="1" ry="1" transform="rotate(-156.4 38.4 52.5) scale(80.39839 55.50284)"/><ellipse fill="#ffdd60" rx="1" ry="1" transform="matrix(13.67618 15.67788 -33.74378 29.43549 32.4 28.2)"/><ellipse fill="#252d47" rx="1" ry="1" transform="matrix(21.96752 -32.4459 35.95956 24.34645 233.2 158.2)"/></g></svg>