<svg xmlns="http://www.w3.org/2000/svg" viewBox="0 0 900 600"><filter id="c"><feGaussianBlur stdDeviation="55" /></filter><path fill="#ba8d8f" d="M0 0h900v597H0z"/><g filter='url(#c)' fill-opacity='.5'><ellipse fill="#270507" fill-opacity=".5" rx="1" ry="1" transform="matrix(-2.4019 -375.53708 69.77833 -.4463 28.3 148.7)"/><ellipse fill="#f6e4ee" fill-opacity=".5" rx="1" ry="1" transform="matrix(100.29216 -47.62222 83.833 176.55189 561.3 400.2)"/><path fill="#572137" fill-opacity=".5" d="M672-6L505.9 165.8 344 9.6l166.1-172z"/><ellipse fill="#b82a2a" fill-opacity=".5" rx="1" ry="1" transform="matrix(-75.2859 34.0329 -49.38344 -109.24361 290 439.8)"/><ellipse fill="#eac2bc" fill-opacity=".5" rx="1" ry="1" transform="rotate(67.4 129 827.2) scale(477.38097 97.07282)"/><path fill="#e9dfd7" fill-opacity=".5" d="M378.6 261L490 395.4-54.5 210.8l390 1z"/><path fill="#85002b" fill-opacity=".5" d="M676.8 353.3l38.6 298.8 95-73.8z"/><path fill="#f9f2d4" fill-opacity=".5" d="M389 181.5l-6-87.3L232.6-54.5l55.6 190.6z"/></g></svg>