<svg xmlns="http://www.w3.org/2000/svg" viewBox="0 0 900 600"><filter id="b"><feGaussianBlur stdDeviation="12" /></filter><path fill="#ae937b" d="M0 0h900v597H0z"/><g filter="url(#b)" transform="translate(1.8 1.8) scale(3.51563)" fill-opacity=".5"><ellipse rx="1" ry="1" transform="matrix(-87.19199 4.3469 -1.69993 -34.09806 28 18)"/><ellipse fill="#fff" cx="92" cy="84" rx="74" ry="32"/><ellipse fill="#fffff2" rx="1" ry="1" transform="matrix(-73.98487 28.96153 -11.03118 -28.18015 219.5 123.2)"/><ellipse fill="#2c1523" rx="1" ry="1" transform="rotate(139.9 -14.5 86.5) scale(27.13564 172.64596)"/><ellipse fill="#6c3a0a" rx="1" ry="1" transform="rotate(71.4 105.4 186.5) scale(70.25919 26.90272)"/><path fill="#6d2800" d="M127.4 115.6l63.8-43 13.4 19.8-63.8 43z"/><ellipse fill="#190600" rx="1" ry="1" transform="matrix(97.26663 -21.20067 7.21412 33.09771 0 21.8)"/><ellipse fill="#fff9ed" rx="1" ry="1" transform="matrix(-40.70776 33.41858 -13.60835 -16.57658 111.3 98)"/></g></svg>