<svg xmlns="http://www.w3.org/2000/svg" viewBox="0 0 900 602"><filter id="b"><feGaussianBlur stdDeviation="12" /></filter><path fill="#a9958d" d="M0 0h900v601H0z"/><g filter="url(#b)" transform="translate(1.8 1.8) scale(3.51563)" fill-opacity=".5"><ellipse fill="#fff" rx="1" ry="1" transform="matrix(-31.2929 53.55138 -63.29887 -36.98887 66.2 31.6)"/><ellipse fill="#8b6d51" cx="216" cy="123" rx="111" ry="111"/><ellipse fill="#7d384c" rx="1" ry="1" transform="matrix(-21.10317 18.90133 -57.82244 -64.55825 19.7 115.6)"/><ellipse fill="#fff" rx="1" ry="1" transform="matrix(21.57632 -13.45978 22.20947 35.60225 106 34.2)"/><ellipse fill="#72315c" cx="107" cy="85" rx="19" ry="19"/><ellipse fill="#f3ffff" rx="1" ry="1" transform="matrix(-6.4278 .67141 -3.3899 -32.45344 192.2 9)"/><ellipse fill="#706472" cx="158" cy="31" rx="24" ry="79"/><ellipse fill="#d2e1f4" rx="1" ry="1" transform="matrix(25.20319 -19.7075 54.02635 69.0923 31.2 33.5)"/></g></svg>