<svg xmlns="http://www.w3.org/2000/svg" viewBox="0 0 900 602"><filter id="b"><feGaussianBlur stdDeviation="12" /></filter><path fill="#9a8e8b" d="M0 0h900v601H0z"/><g filter="url(#b)" transform="translate(1.8 1.8) scale(3.51563)" fill-opacity=".5"><path fill="#f7ffff" d="M-16 19l179-35 8 113z"/><path fill="#5c3841" d="M249 67l22 103-287 4z"/><ellipse fill="#f8ffff" rx="1" ry="1" transform="matrix(6.71875 62.86892 -24.53443 2.62197 242.7 13.2)"/><ellipse fill="#653f1f" rx="1" ry="1" transform="matrix(-63.83878 3.61117 -1.60752 -28.41795 52.3 113.2)"/><ellipse fill="#f0efe3" cx="46" cy="65" rx="43" ry="23"/><ellipse fill="#6b5a61" rx="1" ry="1" transform="matrix(-11.78675 90.36025 -28.67608 -3.74056 190.6 93.5)"/><path fill="#fff8e2" d="M209.5 136.9L130.9 125l105.3.2 27.3-.2z"/><path fill="#eceed9" d="M80 162l-66-27-15 23z"/></g></svg>