<svg xmlns="http://www.w3.org/2000/svg" viewBox="0 0 900 602"><filter id="c"><feGaussianBlur stdDeviation="55" /></filter><path fill="#6d6e7c" d="M0 0h900v601H0z"/><g filter='url(#c)' fill-opacity='.5'><ellipse fill="#b0bedf" fill-opacity=".5" rx="1" ry="1" transform="matrix(-69.31126 231.02645 -300.3605 -90.11247 432.6 144.6)"/><ellipse fill="#3d1c10" fill-opacity=".5" rx="1" ry="1" transform="rotate(-97.5 545.9 18) scale(165.59595 896.48438)"/><ellipse fill="#182a48" fill-opacity=".5" rx="1" ry="1" transform="matrix(-54.16104 371.26044 -105.11775 -15.33502 841.7 373.6)"/><ellipse fill="#5e3a1d" fill-opacity=".5" rx="1" ry="1" transform="matrix(-162.1987 -17.73883 10.25952 -93.81003 55.5 427.3)"/><ellipse fill="#4b77ac" fill-opacity=".5" rx="1" ry="1" transform="matrix(131.24248 -27.3721 28.31117 135.74504 760 88.2)"/><ellipse fill="#a8977c" fill-opacity=".5" rx="1" ry="1" transform="matrix(163.25925 -79.53373 40.27657 82.6759 563.2 317.5)"/><ellipse fill="#9faacd" fill-opacity=".5" rx="1" ry="1" transform="rotate(-25.8 413.2 -865.3) scale(152.35573 229.89472)"/><ellipse fill="#7380a2" fill-opacity=".5" rx="1" ry="1" transform="matrix(126.6714 207.52107 -94.65335 57.77665 202.5 180.7)"/></g></svg>