<svg xmlns="http://www.w3.org/2000/svg" viewBox="0 0 900 600"><filter id="b"><feGaussianBlur stdDeviation="12" /></filter><path fill="#b1aea8" d="M0 0h900v597H0z"/><g filter="url(#b)" transform="translate(1.8 1.8) scale(3.51563)" fill-opacity=".5"><ellipse fill="#000001" rx="1" ry="1" transform="rotate(-176.4 56.2 60.3) scale(51.4061 15.96774)"/><ellipse fill="#031445" rx="1" ry="1" transform="matrix(-42.18004 -19.04502 5.9413 -13.15854 59.5 4)"/><path d="M98.2 39.9L17.8 25.8 5.6 44.9 55 43.2z"/><ellipse fill="#eef" cx="111" cy="161" rx="182" ry="25"/><ellipse fill="#285d61" rx="1" ry="1" transform="matrix(-15.9438 -8.8983 11.30472 -20.25557 18 103.8)"/><ellipse fill="#f0d4bf" rx="1" ry="1" transform="rotate(-40.7 156.6 -76.7) scale(145.26042 14.81114)"/><path fill="#130d03" d="M168 36l17 64-18 7z"/><ellipse fill="#000007" cx="146" cy="38" rx="64" ry="3"/></g></svg>