<svg xmlns="http://www.w3.org/2000/svg" viewBox="0 0 600 900"><filter id="b"><feGaussianBlur stdDeviation="12" /></filter><path fill="#93664f" d="M0 0h597v900H0z"/><g filter="url(#b)" transform="translate(1.8 1.8) scale(3.51563)" fill-opacity=".5"><ellipse fill="#000018" rx="1" ry="1" transform="rotate(-50.9 312.1 -25.3) scale(91.21877 46.90042)"/><ellipse fill="#e3b27b" cx="91" rx="106" ry="106"/><ellipse fill="#20272f" rx="1" ry="1" transform="matrix(24.84195 -41.8386 36.58188 21.72073 30.3 240.7)"/><path fill="#ff7b49" d="M38 168l1-91 96 110z"/><path fill="#000b26" d="M120.4 44.7L117 40l14 32-45.7 91.4z"/><ellipse fill="#000c2f" rx="1" ry="1" transform="matrix(3.17965 34.50512 -60.27315 5.55417 152.3 232.7)"/><path fill="#fff" d="M66 203h27v17H66z"/><ellipse fill="#9d1624" rx="1" ry="1" transform="matrix(12.31159 -9.4 17.23036 22.56736 85.7 50.3)"/></g></svg>