<svg xmlns="http://www.w3.org/2000/svg" viewBox="0 0 600 900"><filter id="b"><feGaussianBlur stdDeviation="12" /></filter><path fill="#574440" d="M0 0h597v900H0z"/><g filter="url(#b)" transform="translate(1.8 1.8) scale(3.51563)" fill-opacity=".5"><ellipse fill="#ffaf6f" rx="1" ry="1" transform="matrix(-79.64111 47.88466 -17.27525 -28.73196 67.5 162.2)"/><ellipse fill="#000928" rx="1" ry="1" transform="matrix(-166.9291 26.37568 -9.92074 -62.78741 40.4 58.2)"/><ellipse fill="#b9885f" rx="1" ry="1" transform="matrix(6.56478 20.57017 -78.1303 24.93456 79.5 244.6)"/><ellipse fill="#ffb068" rx="1" ry="1" transform="rotate(-73.1 131.7 44.4) scale(20.21961 29.3951)"/><ellipse fill="#b02d2d" rx="1" ry="1" transform="matrix(11.96732 19.07754 -51.41842 32.25471 91.6 178.4)"/><ellipse fill="#002031" cx="106" rx="107" ry="107"/><path fill="#ffb272" d="M11 207l80-102 60 10z"/><path fill="#768373" d="M56.3 138.7l-8.2 3.8-30.4-65.2 8.2-3.8z"/></g></svg>