<svg xmlns="http://www.w3.org/2000/svg" viewBox="0 0 820 547"><filter id="c"><feGaussianBlur stdDeviation="55" /></filter><path fill="#5f4c46" d="M0 0h820v544H0z"/><g filter='url(#c)' fill-opacity='.5'><ellipse fill="#ffb57c" fill-opacity=".5" rx="1" ry="1" transform="matrix(35.28931 99.49179 -377.98548 134.06982 258.6 360)"/><ellipse fill="#000f2b" fill-opacity=".5" rx="1" ry="1" transform="matrix(18.952 144.52883 -809.86377 106.19702 448.6 61)"/><ellipse fill="#000f27" fill-opacity=".5" rx="1" ry="1" transform="matrix(-6.53568 -289.88424 105.58136 -2.38042 738.3 188)"/><ellipse fill="#ce795a" fill-opacity=".5" rx="1" ry="1" transform="matrix(-129.44207 -227.20773 176.56146 -100.58848 381.2 462.5)"/><path fill="#001832" fill-opacity=".5" d="M-3.3 327.5L.3 225l230.4 8-3.5 102.5z"/><ellipse fill="#d5d4b4" fill-opacity=".5" rx="1" ry="1" transform="matrix(66.71748 137.09823 -13.1295 6.38934 279.2 157.2)"/><path fill="#ffc27f" fill-opacity=".5" d="M594.2 170.2L166.5 461.5l89.7-34.4L223.4 272z"/><ellipse fill="#daa784" fill-opacity=".5" rx="1" ry="1" transform="rotate(-134.2 98.8 224) scale(122.69657 141.79198)"/></g></svg>