<svg xmlns="http://www.w3.org/2000/svg" viewBox="0 0 600 900"><filter id="b"><feGaussianBlur stdDeviation="12" /></filter><path fill="#d9ae77" d="M0 0h597v900H0z"/><g filter="url(#b)" transform="translate(1.8 1.8) scale(3.51563)" fill-opacity=".5"><ellipse fill="#7a1a00" rx="1" ry="1" transform="matrix(67.28983 -7.0538 9.78187 93.31427 105.8 224.8)"/><ellipse fill="#fff" rx="1" ry="1" transform="rotate(65.4 -11.8 60.1) scale(63.18191 169)"/><ellipse fill="#f3a006" cx="103" cy="108" rx="54" ry="54"/><ellipse fill="#fff" rx="1" ry="1" transform="matrix(2.09293 -31.51051 166.83946 11.08146 121.7 27)"/><path fill="#723300" d="M0 201h160v33H0z"/><ellipse fill="#ffe" rx="1" ry="1" transform="rotate(-26.8 116 -1.2) scale(45.96936 89.25214)"/><ellipse fill="#fff" rx="1" ry="1" transform="matrix(-100.7161 -59.08979 18.1522 -30.93968 131.8 23.4)"/><path fill="#ca7710" d="M29 223l39-117 85 58z"/></g></svg>