<svg xmlns="http://www.w3.org/2000/svg" viewBox="0 0 600 702"><filter id="c"><feGaussianBlur stdDeviation="55" /></filter><path fill="#e7c381" d="M0 0h600v702H0z"/><g filter='url(#c)' fill-opacity='.5'><ellipse fill="#a86000" fill-opacity=".5" rx="1" ry="1" transform="rotate(-126.5 152.7 134.9) scale(272.23198 190.69523)"/><ellipse fill="#fff" fill-opacity=".5" rx="1" ry="1" transform="matrix(-11.09174 -95.54002 593.80867 -68.93835 302 652.6)"/><ellipse fill="#fff" fill-opacity=".5" rx="1" ry="1" transform="matrix(-9.87572 73.04238 -592.40672 -80.09653 416.4 49.5)"/><path fill="#1b6700" fill-opacity=".5" d="M34.8 80.5L161 134.1 22.8 459.7l-126.2-53.6z"/><ellipse fill="#f80" fill-opacity=".5" rx="1" ry="1" transform="matrix(19.535 -70.12938 119.28587 33.22786 278.5 547.2)"/><ellipse fill="#fff" fill-opacity=".5" rx="1" ry="1" transform="matrix(517.602 264.77294 -33.71213 65.9035 95.8 615.7)"/><ellipse fill="#ffc144" fill-opacity=".5" rx="1" ry="1" transform="matrix(172.00497 152.71316 -98.97953 111.48333 327.3 256.8)"/><ellipse fill="#fff" fill-opacity=".5" rx="1" ry="1" transform="matrix(-17.43848 68.43973 -342.34872 -87.23065 461.7 60.7)"/></g></svg>