<svg xmlns="http://www.w3.org/2000/svg" viewBox="0 0 521 782"><filter id="b"><feGaussianBlur stdDeviation="12" /></filter><path fill="#eaece3" d="M0 0h519v782H0z"/><g filter="url(#b)" transform="translate(1.5 1.5) scale(3.05469)" fill-opacity=".5"><path fill="#700000" d="M96.2 172.5L62.8 179l-5-25.5 33.4-6.5z"/><ellipse fill="#8fbd75" cx="39" cy="49" rx="28" ry="28"/><path fill="#caa65a" d="M48.8 142.2l61.8-12 4.6 23.6-61.8 12z"/><path fill="#933c00" d="M61.8 146.5L98 170.8l-27.6 9.8-6.5-4.3z"/><path fill="#958870" d="M112 237l13-44v68z"/><path fill="#9aa893" d="M162-16l-63 5 25 36z"/><path fill="#72a342" d="M13.2 65.4l26.7-40-17 51.2 35.9-5.4z"/><ellipse fill="#fafffe" rx="1" ry="1" transform="matrix(-.86472 27.47451 -129.64019 -4.08024 31.9 104)"/></g></svg>