<svg xmlns="http://www.w3.org/2000/svg" viewBox="0 0 600 900"><filter id="c"><feGaussianBlur stdDeviation="55" /></filter><path fill="#f6a480" d="M0 0h597v900H0z"/><g filter='url(#c)' fill-opacity='.5'><ellipse fill="#fb8e11" fill-opacity=".5" rx="1" ry="1" transform="matrix(-105.61307 4.09648 -9.11608 -235.02515 239.6 553.2)"/><ellipse fill="#ffc6be" fill-opacity=".5" rx="1" ry="1" transform="matrix(-64.74381 342.64695 -115.15633 -21.75902 494.5 779.4)"/><ellipse fill="#fff2ad" fill-opacity=".5" rx="1" ry="1" transform="matrix(-11.05694 54.41 -232.34522 -47.21609 364.5 320.1)"/><ellipse fill="#dd654a" fill-opacity=".5" rx="1" ry="1" transform="rotate(-166 131.2 373.7) scale(198.19087 64.11239)"/><path fill="#a20608" fill-opacity=".5" d="M504.8 432l-73.5-10.6 8 38.6 54.7 22.5z"/><ellipse fill="#ffdc7d" fill-opacity=".5" rx="1" ry="1" transform="matrix(53.62716 7.5368 -29.51607 210.01773 364.5 543.2)"/><path fill="#f69913" fill-opacity=".5" d="M134.3 433.7l243.4-81L121.3 320l-2.6 7.5z"/><path fill="#b3001a" fill-opacity=".5" d="M93.2 167h59.7v45.7H93.2z"/></g></svg>