<svg xmlns="http://www.w3.org/2000/svg" viewBox="0 0 900 1350"><filter id="b"><feGaussianBlur stdDeviation="12" /></filter><path fill="#c7c3bb" d="M0 0h896v1350H0z"/><g filter="url(#b)" transform="translate(2.6 2.6) scale(5.27344)" fill-opacity=".5"><ellipse fill="#8f3705" rx="1" ry="1" transform="matrix(16.03717 29.29249 -59.16327 32.39095 108.3 171.8)"/><ellipse fill="#274d22" rx="1" ry="1" transform="matrix(-73.45356 55.89798 -16.02188 -21.05378 147.9 4)"/><path fill="#fff" d="M-80.3 47.5L31.2-24.9l93.1 143.4-111.5 72.4z"/><path fill="#0e2200" d="M177 49l8-27-85-38z"/><path fill="#ebfaff" d="M118.5 37l22.3-16.8L183.5 77l-22.3 16.9z"/><ellipse fill="#c2f0f4" rx="1" ry="1" transform="rotate(-61.9 184.6 -67.6) scale(46.23971 9.56392)"/><ellipse fill="#dff5ff" cx="71" cy="255" rx="71" ry="32"/><path fill="#000d00" d="M96.2 32.9l6.2 10.3-26.6 16-6.2-10.4z"/></g></svg>