<svg xmlns="http://www.w3.org/2000/svg" viewBox="0 0 820 547"><filter id="b"><feGaussianBlur stdDeviation="12" /></filter><path fill="#926754" d="M0 0h820v544H0z"/><g filter="url(#b)" transform="translate(1.6 1.6) scale(3.20313)" fill-opacity=".5"><ellipse fill="#ffffe8" rx="1" ry="1" transform="matrix(28.01511 74.66918 -31.46304 11.80461 233 41.4)"/><ellipse fill="#ffe96e" cx="40" cy="77" rx="31" ry="32"/><ellipse fill="#000020" rx="1" ry="1" transform="matrix(27.43207 52.92183 -20.58033 10.66783 56.9 13.9)"/><ellipse fill="#2e1d27" rx="1" ry="1" transform="matrix(2.85927 26.32 -101.69073 11.04715 92.1 147.1)"/><ellipse fill="#ff8f56" rx="1" ry="1" transform="rotate(89.9 38.9 110.6) scale(23.63574 29.76627)"/><ellipse fill="#ffd56e" rx="1" ry="1" transform="matrix(9.69047 -5.5928 24.61056 42.642 48 111)"/><ellipse fill="#fff" rx="1" ry="1" transform="matrix(11.13767 28.794 -22.52346 8.7122 219.3 15.3)"/><ellipse fill="#00001b" rx="1" ry="1" transform="matrix(10.90464 -6.17645 16.08972 28.40673 185.4 49.7)"/></g></svg>