<svg xmlns="http://www.w3.org/2000/svg" viewBox="0 0 820 547"><filter id="c"><feGaussianBlur stdDeviation="55" /></filter><path fill="#8a4f44" d="M0 0h820v544H0z"/><g filter='url(#c)' fill-opacity='.5'><path fill="#ffeeae" fill-opacity=".5" d="M728.7 305.9l-554.1-99.3 547.7-76.9z"/><ellipse fill="#00000e" fill-opacity=".5" rx="1" ry="1" transform="matrix(-30.98653 -145.78016 156.99915 -33.3712 71.5 124.1)"/><ellipse fill="#000013" fill-opacity=".5" rx="1" ry="1" transform="matrix(-6.2984 -62.00658 639.77389 -64.98586 477.4 528.8)"/><ellipse fill="#f9ce8a" fill-opacity=".5" rx="1" ry="1" transform="matrix(-223.09124 -51.92187 14.27459 -61.33322 312.7 404)"/><ellipse fill="#ffffc0" fill-opacity=".5" rx="1" ry="1" transform="matrix(-14.0129 -17.95158 61.14858 -47.7322 665.2 338.4)"/><ellipse fill="#dd1429" fill-opacity=".5" rx="1" ry="1" transform="matrix(47.26092 110.72443 -69.9928 29.87529 68 412)"/><ellipse fill="#e34243" fill-opacity=".5" rx="1" ry="1" transform="matrix(53.75971 -39.69897 143.15059 193.85223 795.7 280.9)"/><ellipse fill="#1f1023" fill-opacity=".5" rx="1" ry="1" transform="matrix(-42.051 -83.60912 143.47838 -72.1621 739.4 481.8)"/></g></svg>