<svg xmlns="http://www.w3.org/2000/svg" viewBox="0 0 820 547"><filter id="b"><feGaussianBlur stdDeviation="12" /></filter><path fill="#935537" d="M0 0h820v544H0z"/><g filter="url(#b)" transform="translate(1.6 1.6) scale(3.20313)" fill-opacity=".5"><ellipse fill="#001e34" rx="1" ry="1" transform="rotate(65.3 -14.4 236.5) scale(36.6636 155.74057)"/><ellipse fill="#e09843" cx="140" cy="76" rx="66" ry="66"/><ellipse fill="#630a2d" rx="1" ry="1" transform="matrix(131.25192 -11.71392 4.61484 51.70823 46.3 0)"/><path fill="#ffb049" d="M58 103L14 72 189 9z"/><ellipse fill="#ff9433" rx="1" ry="1" transform="matrix(-42.25944 25.37933 -10.07342 -16.77337 220 69.3)"/><ellipse fill="#222a35" rx="1" ry="1" transform="rotate(67.5 25.8 148.3) scale(8.40438 133.0431)"/><ellipse fill="#332e36" rx="1" ry="1" transform="rotate(-143.4 72.5 56.7) scale(135.15949 12.99102)"/><ellipse fill="#f69c41" rx="1" ry="1" transform="matrix(7.78212 13.03966 -103.32197 61.66291 224.5 6.9)"/></g></svg>