<svg xmlns="http://www.w3.org/2000/svg" viewBox="0 0 820 547"><filter id="b"><feGaussianBlur stdDeviation="12" /></filter><path fill="#ab8763" d="M0 0h820v544H0z"/><g filter="url(#b)" transform="translate(1.6 1.6) scale(3.20313)" fill-opacity=".5"><path fill="#ffeec1" d="M167 126L1 1l217-17z"/><ellipse rx="1" ry="1" transform="rotate(-169.5 123.3 -1.4) scale(36.93853 44.00966)"/><ellipse fill="#59281c" cx="10" cy="105" rx="65" ry="65"/><ellipse fill="#a05826" rx="1" ry="1" transform="matrix(75.94191 40.42015 -11.01885 20.70236 181.2 57.6)"/><ellipse fill="#fffffa" rx="1" ry="1" transform="matrix(-6.98168 -20.0894 45.41994 -15.78482 97 0)"/><ellipse fill="#6e5f3d" rx="1" ry="1" transform="matrix(31.10403 -2.5194 6.67016 82.3487 244.2 132.2)"/><path fill="#f7e6b8" d="M209.3 108.3L173 134.8l-18.2-25.1L191 83.2z"/><ellipse fill="#000123" rx="1" ry="1" transform="matrix(33.2084 -7.30134 7.82098 35.57188 246 8)"/></g></svg>