<svg xmlns="http://www.w3.org/2000/svg" viewBox="0 0 820 547"><filter id="b"><feGaussianBlur stdDeviation="12" /></filter><path fill="#c3a381" d="M0 0h820v544H0z"/><g filter="url(#b)" transform="translate(1.6 1.6) scale(3.20313)" fill-opacity=".5"><ellipse fill="#04001b" rx="1" ry="1" transform="matrix(-45.9821 -43.09156 16.4228 -17.52442 48.7 149)"/><ellipse fill="#001b42" rx="1" ry="1" transform="rotate(55.7 -22 32.1) scale(39.50267 23.95834)"/><ellipse fill="#ffe193" cx="176" cy="157" rx="86" ry="86"/><ellipse fill="#ffefbb" cx="110" cy="40" rx="49" ry="49"/><ellipse fill="#1b030d" rx="1" ry="1" transform="rotate(-43.6 139.8 -236.4) scale(29.98633 15.24204)"/><path fill="#fff" d="M89 150.5l14.2-27.6 83.7 42.6-14 27.6z"/><ellipse fill="#fd913c" rx="1" ry="1" transform="matrix(-13.11744 27.0143 -94.61545 -45.9428 145.3 109.8)"/><path fill="#000008" d="M256.5 101.8l-51.2-25 6.2-12.6 51.2 25z"/></g></svg>