<svg xmlns="http://www.w3.org/2000/svg" viewBox="0 0 820 547"><filter id="b"><feGaussianBlur stdDeviation="12" /></filter><path fill="#a55c51" d="M0 0h820v544H0z"/><g filter="url(#b)" transform="translate(1.6 1.6) scale(3.20313)" fill-opacity=".5"><ellipse fill="#fbffcc" rx="1" ry="1" transform="rotate(161.7 59 39.6) scale(68.97132 36.17738)"/><ellipse fill="#480013" rx="1" ry="1" transform="matrix(57.64955 -10.12395 41.68468 237.36825 4.4 103)"/><ellipse fill="#ecf0be" rx="1" ry="1" transform="matrix(49.13152 27.71484 -9.4624 16.77448 115.4 38.2)"/><ellipse fill="#920b1b" rx="1" ry="1" transform="rotate(13 -566.3 1120.7) scale(60.3335 88.23304)"/><ellipse fill="#ff9f64" rx="1" ry="1" transform="matrix(-.4816 21.2224 -48.66003 -1.10425 231 50.7)"/><ellipse fill="#ca7860" cx="161" cy="104" rx="44" ry="32"/><ellipse fill="#e3ffdf" rx="1" ry="1" transform="rotate(-117.2 108.4 14.3) scale(7.86671 19.97487)"/><ellipse fill="#ab3c3c" cx="53" cy="72" rx="31" ry="44"/></g></svg>