<svg xmlns="http://www.w3.org/2000/svg" viewBox="0 0 820 547"><filter id="b"><feGaussianBlur stdDeviation="12" /></filter><path fill="#7c5140" d="M0 0h820v544H0z"/><g filter="url(#b)" transform="translate(1.6 1.6) scale(3.20313)" fill-opacity=".5"><ellipse fill="#ffd46f" rx="1" ry="1" transform="matrix(42.46527 -27.367 18.12234 28.12037 97.4 90.8)"/><ellipse fill="#ffcc71" rx="1" ry="1" transform="matrix(-21.86843 -24.28736 26.71459 -24.05392 183.5 53.7)"/><path fill="#ffb670" d="M260.5 151.4L212.3 209l-52.8-44.3 48.2-57.5z"/><ellipse fill="#090a1d" rx="1" ry="1" transform="matrix(.2235 -33.58402 114.21528 .7601 47 158.7)"/><ellipse fill="#00051d" cx="255" cy="25" rx="37" ry="113"/><ellipse fill="#0d0a20" rx="1" ry="1" transform="matrix(-5.65631 14.31882 -39.96512 -15.78727 152.6 107.1)"/><ellipse fill="#19192a" rx="1" ry="1" transform="matrix(66.8603 -19.42471 5.87626 20.22622 16 88)"/><ellipse fill="#fe3340" rx="1" ry="1" transform="matrix(-4.98723 -15.21177 35.19767 -11.53967 37.4 47.5)"/></g></svg>