<svg xmlns="http://www.w3.org/2000/svg" viewBox="0 0 600 900"><filter id="b"><feGaussianBlur stdDeviation="12" /></filter><path fill="#e4ded2" d="M0 0h597v900H0z"/><g filter="url(#b)" transform="translate(1.8 1.8) scale(3.51563)" fill-opacity=".5"><ellipse fill="#78613c" rx="1" ry="1" transform="matrix(-73.61417 6.4412 -2.9147 -33.31112 165.5 14.5)"/><path fill="#001900" d="M185 54l-41-44 1 25z"/><ellipse fill="#fafcff" cx="30" cy="195" rx="76" ry="76"/><ellipse fill="#473c3b" rx="1" ry="1" transform="matrix(-7.65921 -8.7535 7.17493 -6.27798 144.3 237.5)"/><ellipse fill="#ffe274" rx="1" ry="1" transform="rotate(87.9 -11.1 99.9) scale(19.25056 40.72314)"/><ellipse fill="#887772" rx="1" ry="1" transform="matrix(-9.64338 -15.92189 7.34176 -4.44667 128.5 198)"/><ellipse fill="#f8f6f1" cx="28" cy="79" rx="164" ry="18"/><path fill="#e0d7bd" d="M112.8 72.3L132-16l38.3 53-7-44.8z"/></g></svg>