<svg xmlns="http://www.w3.org/2000/svg" viewBox="0 0 900 600"><filter id="c"><feGaussianBlur stdDeviation="55" /></filter><path fill="#b89476" d="M0 0h900v597H0z"/><g filter='url(#c)' fill-opacity='.5'><ellipse fill="#000005" fill-opacity=".5" rx="1" ry="1" transform="matrix(-21.52065 -138.23356 178.24008 -27.749 426 341)"/><path fill-opacity=".5" d="M242.4-90l20.9 131.9-326.4 51.7-20.9-132z"/><path fill="#ffe" fill-opacity=".5" d="M597.2 17.3l38.9 113L74.3 323.7l-38.9-113z"/><ellipse fill="#fff" fill-opacity=".5" rx="1" ry="1" transform="matrix(-209.89127 -3.77144 1.0157 -56.5267 420.1 542.9)"/><path fill="#fffccc" fill-opacity=".5" d="M954.5 290L592.4 26.4 792.8 420z"/><ellipse fill="#fff" fill-opacity=".5" rx="1" ry="1" transform="matrix(-33.73105 42.4265 -101.31692 -80.55167 1.8 408)"/><ellipse fill="#ffffed" fill-opacity=".5" rx="1" ry="1" transform="rotate(48.7 -347 439.4) scale(264.55754 32.70162)"/><ellipse fill="#f97715" fill-opacity=".5" rx="1" ry="1" transform="rotate(-174.4 349.7 153) scale(86.26249 125.17137)"/></g></svg>