<svg xmlns="http://www.w3.org/2000/svg" viewBox="0 0 900 600"><filter id="b"><feGaussianBlur stdDeviation="12" /></filter><path fill="#867566" d="M0 0h900v597H0z"/><g filter="url(#b)" transform="translate(1.8 1.8) scale(3.51563)" fill-opacity=".5"><ellipse fill="#000012" cx="138" cy="112" rx="75" ry="92"/><ellipse fill="#fffff9" rx="1" ry="1" transform="matrix(-23.9704 .22032 -2.34371 -254.98923 241 94)"/><ellipse fill="#ffcc8e" cx="28" cy="45" rx="44" ry="241"/><ellipse fill="#ffffde" rx="1" ry="1" transform="rotate(-80.3 91.1 -96.9) scale(21.5373 127.74867)"/><path fill="#00132b" d="M73 31h147v58H73z"/><path fill="#3c0010" d="M19.9 120.7l12 12.9 10.5-20.7-15.6-77.4z"/><ellipse fill="#fffcbe" rx="1" ry="1" transform="matrix(111.93406 11.76474 -2.57179 24.46892 219.1 13)"/><ellipse fill="#ffe1a7" rx="1" ry="1" transform="matrix(18.70406 -87.9957 41.64031 8.85092 255 98.4)"/></g></svg>