<svg xmlns="http://www.w3.org/2000/svg" viewBox="0 0 900 600"><filter id="b"><feGaussianBlur stdDeviation="12" /></filter><path fill="#ac8469" d="M0 0h900v597H0z"/><g filter="url(#b)" transform="translate(1.8 1.8) scale(3.51563)" fill-opacity=".5"><ellipse fill="#150013" rx="1" ry="1" transform="matrix(104.31227 -27.69045 8.07771 30.42943 105.2 137.3)"/><ellipse fill="#fff" rx="1" ry="1" transform="matrix(-3.3131 -28.9307 93.22374 -10.67585 15.8 84.3)"/><ellipse fill="#fff" rx="1" ry="1" transform="matrix(-22.8951 -2.73448 5.7325 -47.9969 218.5 158.9)"/><ellipse fill="#fff597" rx="1" ry="1" transform="matrix(-24.64197 -12.26094 28.99612 -58.27623 159.7 28)"/><ellipse fill="#000003" rx="1" ry="1" transform="matrix(-1.18524 -20.2217 32.67552 -1.91518 105.2 3.2)"/><ellipse fill="#000008" rx="1" ry="1" transform="matrix(16.29779 16.1844 -11.42626 11.50631 179.6 80.4)"/><path fill="#ffffbf" d="M204 108l-12.2-82.5 22.3-5.2 8.4 94.3z"/><ellipse fill="#ffffeb" cx="183" cy="164" rx="68" ry="9"/></g></svg>