<svg xmlns="http://www.w3.org/2000/svg" viewBox="0 0 900 1350"><filter id="b"><feGaussianBlur stdDeviation="12" /></filter><path fill="#7c6649" d="M0 0h896v1350H0z"/><g filter="url(#b)" transform="translate(2.6 2.6) scale(5.27344)" fill-opacity=".5"><ellipse fill="#fff" rx="1" ry="1" transform="matrix(-25.36238 32.62544 -57.10285 -44.39064 6.7 40.5)"/><ellipse fill="#fff" rx="1" ry="1" transform="matrix(58.49224 -40.50195 25.89831 37.40191 158 40.5)"/><ellipse fill="#100" rx="1" ry="1" transform="rotate(91.1 -56 143.6) scale(91.76519 152.69188)"/><ellipse fill="#fff9bc" cx="53" cy="57" rx="169" ry="18"/><ellipse fill="#ed9b48" rx="1" ry="1" transform="matrix(37.51554 20.96673 -6.934 12.40692 165.4 169.9)"/><ellipse fill="#ffefd3" cx="2" cy="28" rx="37" ry="83"/><path fill="#c89046" d="M12 137l-28 85 73-92z"/><ellipse fill="#130800" rx="1" ry="1" transform="matrix(46.62187 -66.71692 17.12127 11.96436 36 194)"/></g></svg>