<svg xmlns="http://www.w3.org/2000/svg" viewBox="0 0 900 600"><filter id="b"><feGaussianBlur stdDeviation="12" /></filter><path fill="#517088" d="M0 0h900v597H0z"/><g filter="url(#b)" transform="translate(1.8 1.8) scale(3.51563)" fill-opacity=".5"><ellipse fill="#c1edff" cx="112" cy="43" rx="124" ry="43"/><ellipse rx="1" ry="1" transform="rotate(-89.8 133.5 19.4) scale(49.56047 255.00002)"/><ellipse fill="#c8e9ff" rx="1" ry="1" transform="matrix(61.02453 2.0244 -.86958 26.21323 140.3 37.1)"/><path fill="#0e1a1f" d="M110 60.6l42 2.9-2 28-42-3z"/><ellipse fill="#000206" rx="1" ry="1" transform="matrix(2.07743 22.69637 -65.64666 6.00873 218.1 154.8)"/><path fill="#00050a" d="M-17.8 121.4l119.5 19-9.9 62.2-119.5-19z"/><ellipse fill="#91bfe9" rx="1" ry="1" transform="rotate(151.5 82.5 58.8) scale(34.92205 24.93561)"/><ellipse fill="#3c535d" cx="124" cy="110" rx="34" ry="34"/></g></svg>