<svg xmlns="http://www.w3.org/2000/svg" viewBox="0 0 900 600"><filter id="b"><feGaussianBlur stdDeviation="12" /></filter><path fill="#967d58" d="M0 0h900v597H0z"/><g filter="url(#b)" transform="translate(1.8 1.8) scale(3.51563)" fill-opacity=".5"><ellipse fill="#fff" rx="1" ry="1" transform="rotate(-66.7 222.1 -103.8) scale(71.18526 50.08645)"/><ellipse fill="#270400" cx="69" cy="169" rx="93" ry="107"/><ellipse fill="#fff" rx="1" ry="1" transform="matrix(81.6636 20.60687 -8.5446 33.86162 83.8 0)"/><ellipse rx="1" ry="1" transform="matrix(-1.1309 32.38448 -88.51677 -3.09107 252.6 0)"/><ellipse fill="#fff" rx="1" ry="1" transform="matrix(41.6972 1.96664 -2.83213 60.04736 242.2 147)"/><path d="M166.3 64l-1.8 26.1-40.5 3.3 4.8-30.4zM32 136l117-26L6 185z"/><path fill="#ffffeb" d="M173 45l-24-61L-16 7z"/></g></svg>