<svg xmlns="http://www.w3.org/2000/svg" viewBox="0 0 900 1350"><filter id="b"><feGaussianBlur stdDeviation="12" /></filter><path fill="#8e643b" d="M0 0h896v1350H0z"/><g filter="url(#b)" transform="translate(2.6 2.6) scale(5.27344)" fill-opacity=".5"><ellipse fill="#eedcc5" rx="1" ry="1" transform="rotate(-43.8 197.2 63.8) scale(64.65399 47.86451)"/><ellipse fill="#311203" cx="159" cy="161" rx="76" ry="43"/><ellipse fill="#381100" rx="1" ry="1" transform="matrix(11.63569 40.3128 -59.16757 17.07784 74.6 0)"/><ellipse fill="#f5be69" rx="1" ry="1" transform="rotate(-18.1 287 -339.7) scale(89.61492 15.28892)"/><ellipse fill="#542300" rx="1" ry="1" transform="rotate(-144.4 50 117.4) scale(41.47155 35.14111)"/><ellipse fill="#d2a568" rx="1" ry="1" transform="rotate(-158.4 66.6 91.3) scale(165.24136 14.73379)"/><path d="M28.5 46.3l-32-9.8L-16 78.8l18.2-10z"/><ellipse fill="#54311d" rx="1" ry="1" transform="matrix(-9.67325 -17.38115 66.83588 -37.19663 129 111.5)"/></g></svg>