<svg xmlns="http://www.w3.org/2000/svg" viewBox="0 0 900 1350"><filter id="b"><feGaussianBlur stdDeviation="12" /></filter><path fill="#9b7045" d="M0 0h896v1350H0z"/><g filter="url(#b)" transform="translate(2.6 2.6) scale(5.27344)" fill-opacity=".5"><ellipse fill="#fff" rx="1" ry="1" transform="rotate(-100.1 96.7 33.7) scale(84.97176 31.65887)"/><ellipse fill="#220100" rx="1" ry="1" transform="matrix(35.06337 -28.4959 26.81336 32.99304 127.4 240.4)"/><ellipse fill="#180000" rx="1" ry="1" transform="rotate(-66.8 28.2 5.4) scale(145.00731 24.99015)"/><ellipse fill="#511600" cx="156" cy="91" rx="27" ry="101"/><ellipse fill="#8d3900" cx="9" cy="173" rx="51" ry="80"/><ellipse fill="#faffff" rx="1" ry="1" transform="matrix(-20.07473 -6.71691 15.82701 -47.30196 78 178)"/><ellipse fill="#ffffb8" rx="1" ry="1" transform="matrix(-33.92919 1.3762 -.89101 -21.96733 99 3.3)"/><ellipse fill="#f8d787" rx="1" ry="1" transform="matrix(-10.91371 41.01675 -13.62776 -3.62607 32.9 96.3)"/></g></svg>