<svg xmlns="http://www.w3.org/2000/svg" viewBox="0 0 900 1350"><filter id="b"><feGaussianBlur stdDeviation="12" /></filter><path fill="#745835" d="M0 0h896v1350H0z"/><g filter="url(#b)" transform="translate(2.6 2.6) scale(5.27344)" fill-opacity=".5"><ellipse rx="1" ry="1" transform="rotate(176.1 72.3 84.1) scale(40.319 65.89577)"/><ellipse fill="#faffff" rx="1" ry="1" transform="matrix(-1.57757 -12.21038 28.39877 -3.6691 152 68.9)"/><ellipse fill="#ffd774" rx="1" ry="1" transform="matrix(-1.18347 10.38722 -68.2588 -7.7771 81.9 229.1)"/><ellipse fill="#c6b198" rx="1" ry="1" transform="matrix(2.4049 23.47465 -87.09724 8.92285 73.5 13.4)"/><path d="M97.1 141.9l-43-.8.8-41 43 .8z"/><path fill="#ffec62" d="M96.2 70.1l15-.2 2.6 152-15 .2z"/><ellipse fill="#cfd2cc" cx="29" cy="156" rx="50" ry="14"/><ellipse rx="1" ry="1" transform="matrix(-19.10297 54.15504 -21.77086 -7.67958 140.5 171.9)"/></g></svg>