<svg xmlns="http://www.w3.org/2000/svg" viewBox="0 0 600 900"><filter id="c"><feGaussianBlur stdDeviation="55" /></filter><path fill="#d8cabc" d="M0 0h597v900H0z"/><g filter='url(#c)' fill-opacity='.5'><ellipse fill="#c35c00" fill-opacity=".5" rx="1" ry="1" transform="matrix(-120.56204 47.97746 -48.52518 -121.9384 360.3 405.3)"/><ellipse fill="#7b3d00" fill-opacity=".5" rx="1" ry="1" transform="matrix(-113.10215 -53.46314 31.09957 -65.79164 483.7 772)"/><ellipse fill="#8b4e0e" fill-opacity=".5" rx="1" ry="1" transform="rotate(110.7 82.9 111.5) scale(64.35325 107.89805)"/><path fill="#feffff" fill-opacity=".5" d="M325.2 617L36.9-54.5l-91.4 857.8z"/><ellipse fill="#fff" fill-opacity=".5" rx="1" ry="1" transform="matrix(-187.79591 132.8993 -50.93406 -71.97336 394 156.4)"/><path fill="#bf3e00" fill-opacity=".5" d="M55.8 792.8L99 704.3l94.8 46.3-43.2 88.4z"/><path fill-opacity=".5" d="M346 801.3L215.8 1010l-23.9-14.9 130.4-208.7z"/><path fill="#574d46" fill-opacity=".5" d="M524.3 561.8l-98.9-11.5 146-122.5 15.4 44.7z"/></g></svg>