<svg xmlns="http://www.w3.org/2000/svg" viewBox="0 0 582 873"><filter id="b"><feGaussianBlur stdDeviation="12" /></filter><path fill="#c0b3b1" d="M0 0h579v873H0z"/><g filter="url(#b)" transform="translate(1.7 1.7) scale(3.41016)" fill-opacity=".5"><ellipse fill="#353242" rx="1" ry="1" transform="matrix(162.8068 37.88633 -9.80528 42.1357 70.6 238)"/><ellipse fill="#fff" rx="1" ry="1" transform="rotate(70.1 31.2 111.3) scale(126.8334 67.01928)"/><ellipse fill="#3e0e17" rx="1" ry="1" transform="matrix(-25.84281 18.36553 -6.36417 -8.95526 139.3 194)"/><ellipse fill="#5d556b" rx="1" ry="1" transform="matrix(-20.4451 -23.5194 35.08761 -30.5012 12.1 54.5)"/><ellipse fill="#fbf6ef" rx="1" ry="1" transform="matrix(-18.31415 -23.0598 126.2965 -100.30503 98.3 59.4)"/><path fill="#fff" d="M81.6 231.4L167 202l18 11.9-57.9 18.1z"/><path fill="#000324" d="M101 239l53 11 31-36z"/><ellipse fill="#ffc9a9" cx="79" cy="148" rx="52" ry="52"/></g></svg>