<svg xmlns="http://www.w3.org/2000/svg" viewBox="0 0 600 665"><filter id="c"><feGaussianBlur stdDeviation="55" /></filter><path fill="#b38b6b" d="M0 0h600v665H0z"/><g filter='url(#c)' fill-opacity='.5'><ellipse fill-opacity=".5" rx="1" ry="1" transform="matrix(152.89326 -269.67366 51.04865 28.94237 598.8 587.2)"/><ellipse fill="#fbf4eb" fill-opacity=".5" rx="1" ry="1" transform="matrix(-67.08617 43.56627 -260.77037 -401.55116 92.5 616.2)"/><ellipse fill="#fff" fill-opacity=".5" rx="1" ry="1" transform="rotate(-48.3 353.2 -48.7) scale(229.85487 38.24226)"/><ellipse fill="#651400" fill-opacity=".5" rx="1" ry="1" transform="rotate(84.3 -165.8 438.8) scale(52.44862 160.42924)"/><ellipse fill="#fcfaef" fill-opacity=".5" rx="1" ry="1" transform="matrix(-224.03355 -28.97455 5.33003 -41.21224 487 387.5)"/><ellipse fill="#692e01" fill-opacity=".5" rx="1" ry="1" transform="matrix(271.2486 168.93528 -37.94202 60.92108 472.3 1.3)"/><path fill="#761f00" fill-opacity=".5" d="M624.7 318.2l-244.1 36.4L640.3 152z"/><path fill="#fdfaf3" fill-opacity=".5" d="M381.1 365.6L197.3 160.8l-130.6 138 335.1 52.8z"/></g></svg>