<svg xmlns="http://www.w3.org/2000/svg" viewBox="0 0 900 600"><filter id="b"><feGaussianBlur stdDeviation="12" /></filter><path fill="#c19e8a" d="M0 0h900v597H0z"/><g filter="url(#b)" transform="translate(1.8 1.8) scale(3.51563)" fill-opacity=".5"><ellipse fill="#451a19" cx="58" cy="24" rx="87" ry="31"/><ellipse fill="#ffffed" rx="1" ry="1" transform="matrix(-4.75388 31.80898 -134.1095 -20.0428 187 98.2)"/><ellipse fill="#371917" rx="1" ry="1" transform="matrix(-75.17376 10.45149 -2.84409 -20.4565 104.7 144.9)"/><ellipse fill="#fffff9" rx="1" ry="1" transform="matrix(32.81439 -2.0645 11.70258 186.00716 246 92.1)"/><path fill="#fff" d="M52 94l-1 44 71-19z"/><ellipse fill="#7a3828" rx="1" ry="1" transform="matrix(-12.07367 -5.01318 22.27765 -53.65323 31.1 135.2)"/><ellipse fill="#9f3328" rx="1" ry="1" transform="rotate(167 92.8 18.3) scale(11.39535 67.11905)"/><path fill="#fcfaf3" d="M74.7 52.5l-27.8.7-18.1 49.7 56.6-49.5z"/></g></svg>