<svg xmlns="http://www.w3.org/2000/svg" viewBox="0 0 900 600"><filter id="b"><feGaussianBlur stdDeviation="12" /></filter><path fill="#d6a88f" d="M0 0h900v597H0z"/><g filter="url(#b)" transform="translate(1.8 1.8) scale(3.51563)" fill-opacity=".5"><path fill="#501107" d="M22 125l15 60 171-71z"/><ellipse fill="#9a2e20" rx="1" ry="1" transform="matrix(-8.96726 18.1272 -121.1895 -59.95068 46 34.9)"/><ellipse fill="#fff" cx="233" cy="5" rx="67" ry="49"/><ellipse fill="#fff" rx="1" ry="1" transform="matrix(-148.22474 86.61555 -16.25489 -27.8169 221.3 160)"/><ellipse fill="#fff" rx="1" ry="1" transform="matrix(40.59735 18.08352 -8.78707 19.7269 115 23.1)"/><path fill="#ffffeb" d="M16 86l-32 43 177-17z"/><ellipse fill="#9d2615" cx="173" cy="55" rx="20" ry="23"/><ellipse fill="#fffffa" rx="1" ry="1" transform="matrix(1.96513 -10.30156 59.09519 11.27301 196.8 107.3)"/></g></svg>