<svg xmlns="http://www.w3.org/2000/svg" viewBox="0 0 900 600"><filter id="b"><feGaussianBlur stdDeviation="12" /></filter><path fill="#c49f84" d="M0 0h900v597H0z"/><g filter="url(#b)" transform="translate(1.8 1.8) scale(3.51563)" fill-opacity=".5"><ellipse fill="#5e2c26" rx="1" ry="1" transform="matrix(-125.73259 199.00138 -51.36816 -32.45531 27.6 66.6)"/><ellipse fill="#fffffd" rx="1" ry="1" transform="matrix(31.0709 79.26195 -47.8522 18.7582 229.2 52.6)"/><ellipse fill="#ffffd8" rx="1" ry="1" transform="matrix(77.70833 10.70677 -4.62886 33.59566 121.7 152.8)"/><ellipse fill="#00223e" cx="82" rx="56" ry="25"/><ellipse fill="#ffffe0" rx="1" ry="1" transform="rotate(80.3 23 75.7) scale(7.47215 44.86854)"/><ellipse fill="#fff" rx="1" ry="1" transform="matrix(23.48508 -55.8688 34.69402 14.58402 223.5 17)"/><ellipse fill="#9a4533" rx="1" ry="1" transform="matrix(10.86144 11.38034 -44.66918 42.63246 114.2 72)"/><ellipse fill="#fff" cy="66" rx="6" ry="35"/></g></svg>