<svg xmlns="http://www.w3.org/2000/svg" viewBox="0 0 900 600"><filter id="b"><feGaussianBlur stdDeviation="12" /></filter><path fill="#e1c0aa" d="M0 0h900v597H0z"/><g filter="url(#b)" transform="translate(1.8 1.8) scale(3.51563)" fill-opacity=".5"><ellipse fill="#9b3e12" rx="1" ry="1" transform="matrix(-46.45958 -6.2581 15.10836 -112.16306 16 116.4)"/><ellipse fill="#fff" rx="1" ry="1" transform="matrix(-39.85455 58.17826 -85.62074 -58.65381 235.8 43.4)"/><ellipse fill="#582015" rx="1" ry="1" transform="matrix(36.77509 7.92899 -2.6802 12.43088 126.2 166.8)"/><ellipse fill="#d65328" rx="1" ry="1" transform="matrix(5.5354 21.00527 -37.2195 9.80826 79.8 54.4)"/><ellipse fill="#ffffef" rx="1" ry="1" transform="matrix(-14.57458 -33.67987 63.18646 -27.34322 105.6 100.2)"/><ellipse fill="#fff" cx="197" cy="6" rx="65" ry="46"/><ellipse fill="#814736" rx="1" ry="1" transform="matrix(21.7901 -13.24858 4.3519 7.15761 200.8 123)"/><path fill="#462520" d="M59 172.8l-69.7-58.5 7.7-9.1 69.7 58.5z"/></g></svg>