<svg xmlns="http://www.w3.org/2000/svg" viewBox="0 0 900 600"><filter id="b"><feGaussianBlur stdDeviation="12" /></filter><path fill="#aa8a78" d="M0 0h900v597H0z"/><g filter="url(#b)" transform="translate(1.8 1.8) scale(3.51563)" fill-opacity=".5"><ellipse fill="#fffff3" cx="114" cy="103" rx="37" ry="49"/><ellipse fill="#00001b" rx="1" ry="1" transform="matrix(-37.41557 -13.05918 6.7154 -19.24017 156.5 12)"/><ellipse fill="#002035" rx="1" ry="1" transform="matrix(-2.72955 18.71062 -43.342 -6.32284 174.4 72.2)"/><ellipse fill="#fff" rx="1" ry="1" transform="matrix(25.80224 15.2594 -12.08724 20.4384 246.4 144.1)"/><ellipse fill="#221713" rx="1" ry="1" transform="matrix(-54.4398 -5.81992 1.25099 -11.70178 56.2 77)"/><ellipse fill="#fff7a6" cx="36" cy="116" rx="42" ry="29"/><ellipse fill="#ffffec" rx="1" ry="1" transform="matrix(-37.16164 33.11135 -13.68515 -15.35917 255 12.8)"/><path fill="#633025" d="M-16 173l84-41 78 32z"/></g></svg>