<svg xmlns="http://www.w3.org/2000/svg" viewBox="0 0 600 900"><filter id="b"><feGaussianBlur stdDeviation="12" /></filter><path fill="#ded2c0" d="M0 0h597v900H0z"/><g filter="url(#b)" transform="translate(1.8 1.8) scale(3.51563)" fill-opacity=".5"><ellipse fill="#de4f00" rx="1" ry="1" transform="matrix(-42.2629 -39.35746 38.1469 -40.96298 66.1 144.3)"/><ellipse fill="#2a7d7c" rx="1" ry="1" transform="rotate(6.2 -2039 484.8) scale(83.02238 17.14209)"/><ellipse fill="#fff" rx="1" ry="1" transform="matrix(168.12673 17.15815 -5.2804 51.74079 123.4 46.3)"/><ellipse fill="#f4ffff" rx="1" ry="1" transform="matrix(-20.59592 -167.7403 32.73411 -4.01924 155.2 113.7)"/><ellipse fill="#ed6909" rx="1" ry="1" transform="matrix(-7.53958 27.34938 -39.43844 -10.87224 59 143.9)"/><ellipse fill="#fcffff" rx="1" ry="1" transform="matrix(-151.80043 32.82041 -9.35347 -43.26152 38.9 45.6)"/><ellipse fill="#9cbcbc" cx="95" cy="201" rx="65" ry="18"/><path fill="#537869" d="M36 216l-52-34.4 32 56.3 99.9-22.9z"/></g></svg>