<svg xmlns="http://www.w3.org/2000/svg" viewBox="0 0 600 900"><filter id="b"><feGaussianBlur stdDeviation="12" /></filter><path fill="#b9aca9" d="M0 0h597v900H0z"/><g filter="url(#b)" transform="translate(1.8 1.8) scale(3.51563)" fill-opacity=".5"><ellipse fill="#001235" rx="1" ry="1" transform="rotate(94.5 -71.6 160.8) scale(25.34607 168.99997)"/><ellipse fill="#fff" rx="1" ry="1" transform="rotate(136.1 59 44.3) scale(54.11043 168.6102)"/><ellipse fill="#453039" cx="142" cy="197" rx="77" ry="14"/><ellipse fill="#fff5f0" rx="1" ry="1" transform="matrix(111.4809 -65.14418 13.1163 22.44585 111.7 60)"/><ellipse fill="#78616c" rx="1" ry="1" transform="matrix(-37.08544 26.55056 -12.54058 -17.5165 34 59.9)"/><ellipse fill="#fcc18f" rx="1" ry="1" transform="rotate(93.6 -.7 121.6) scale(20.8673 102.18639)"/><ellipse fill="#8f5f4c" cx="39" cy="151" rx="93" ry="9"/><ellipse fill="#2c4259" rx="1" ry="1" transform="matrix(2.02311 -6.32953 109.10315 34.87274 37.1 213.2)"/></g></svg>