<svg xmlns="http://www.w3.org/2000/svg" viewBox="0 0 900 600"><filter id="c"><feGaussianBlur stdDeviation="55" /></filter><path fill="#bd9a84" d="M0 0h900v597H0z"/><g filter='url(#c)' fill-opacity='.5'><ellipse fill="#361616" fill-opacity=".5" rx="1" ry="1" transform="rotate(-176.8 86.5 59.4) scale(220.11511 97.65405)"/><ellipse fill="#fff1df" fill-opacity=".5" rx="1" ry="1" transform="rotate(120.3 355.6 385.8) scale(407.5874 192.10409)"/><path fill="#04051b" fill-opacity=".5" d="M399-1.8l330.5 211-21.1-225z"/><ellipse fill="#000504" fill-opacity=".5" rx="1" ry="1" transform="matrix(-81.98133 161.59402 -33.50412 -16.99761 83.4 380.8)"/><ellipse fill="#ffe6b6" fill-opacity=".5" rx="1" ry="1" transform="matrix(260.59289 -19.1239 9.54426 130.05538 496.6 367.3)"/><ellipse fill="#672b1c" fill-opacity=".5" rx="1" ry="1" transform="rotate(172.7 109.8 294.2) scale(333.4777 52.52048)"/><path fill="#fffcf1" fill-opacity=".5" d="M269 124.8l-232 429 203.8-28.2z"/><ellipse fill="#b6745f" fill-opacity=".5" rx="1" ry="1" transform="matrix(-73.48928 63.43424 -87.02527 -100.81975 691.8 195.1)"/></g></svg>