<svg xmlns="http://www.w3.org/2000/svg" viewBox="0 0 900 600"><filter id="c"><feGaussianBlur stdDeviation="55" /></filter><path fill="#b98c6e" d="M0 0h900v597H0z"/><g filter='url(#c)' fill-opacity='.5'><ellipse fill="#000014" fill-opacity=".5" rx="1" ry="1" transform="matrix(-1.66043 79.69414 -221.22738 -4.6093 688.9 20.2)"/><path fill="#ffefce" fill-opacity=".5" d="M669.7 529.1l-91.4-457L-5.3 360.4z"/><ellipse fill="#64251d" fill-opacity=".5" rx="1" ry="1" transform="rotate(-167 115 271) scale(324.65636 139.76966)"/><ellipse fill="#170002" fill-opacity=".5" rx="1" ry="1" transform="matrix(-163.23646 -7.12706 2.58607 -59.23084 227.8 37)"/><path fill="#fff" fill-opacity=".5" d="M51.2-54.5L-54.5 74.6l69 80.8 55.7-36.5z"/><ellipse fill="#071b2d" fill-opacity=".5" rx="1" ry="1" transform="matrix(40.00483 33.57249 -88.16706 105.05948 754.8 70.3)"/><ellipse fill="#ffeace" fill-opacity=".5" rx="1" ry="1" transform="matrix(-41.9501 -23.92791 94.38296 -165.47094 898.3 154.2)"/><path fill="#ffd13a" fill-opacity=".5" d="M406.9 118L184 75.8l-238.5 166 39.3 62.3z"/></g></svg>