<svg xmlns="http://www.w3.org/2000/svg" viewBox="0 0 821 547"><filter id="b"><feGaussianBlur stdDeviation="12" /></filter><path fill="#e9e2d7" d="M0 0h821v545H0z"/><g filter="url(#b)" transform="translate(1.6 1.6) scale(3.20703)" fill-opacity=".5"><ellipse fill="#663a00" rx="1" ry="1" transform="matrix(8.97258 -25.19793 59.09974 21.04447 119.7 95.7)"/><path fill="#5a3000" d="M57.3 95l44.1-53.5 28.4 7.8-37.2 46.9z"/><path fill="#fff" d="M174 67L67 118l81-79z"/><ellipse fill="#fff" cx="159" cy="17" rx="255" ry="28"/><ellipse fill="#5a3b00" rx="1" ry="1" transform="matrix(-3.76945 10.52766 -32.81821 -11.75062 136.7 105.2)"/><ellipse fill="#fff" cx="214" cy="94" rx="42" ry="255"/><ellipse fill="#fff" rx="1" ry="1" transform="matrix(107.38729 2.59257 -.7257 30.05945 55.8 169)"/><path fill="#889f00" d="M62.8 45l-.8.7-3-23.9 18-8.7z"/></g></svg>