<svg xmlns="http://www.w3.org/2000/svg" viewBox="0 0 600 860"><filter id="b"><feGaussianBlur stdDeviation="12" /></filter><path fill="#d9c196" d="M0 0h601v860H0z"/><g filter="url(#b)" transform="translate(1.7 1.7) scale(3.35938)" fill-opacity=".5"><ellipse fill="#b55b12" rx="1" ry="1" transform="rotate(-19.2 460.4 -7.7) scale(42.71554 84.91456)"/><ellipse fill="#fff" rx="1" ry="1" transform="matrix(29.95739 -23.56913 65.72577 83.5403 126.8 128)"/><ellipse fill="#760000" rx="1" ry="1" transform="matrix(-2.54877 -16.2761 45.26162 -7.08778 155 18.7)"/><ellipse fill="#f7ffff" rx="1" ry="1" transform="matrix(98.32266 3.3833 -.4581 13.31312 47.4 246)"/><ellipse fill="#c99048" rx="1" ry="1" transform="rotate(23.6 -419.6 285.7) scale(82.06902 40.21134)"/><ellipse fill="#fafffd" cx="155" cy="133" rx="55" ry="55"/><ellipse fill="#e5ffc2" rx="1" ry="1" transform="matrix(-52.3019 -3.67915 2.90954 -41.36124 8.8 32)"/><ellipse fill="#862a06" rx="1" ry="1" transform="matrix(-5.87906 5.55955 -25.1583 -26.60416 27.4 133.3)"/></g></svg>