<svg xmlns="http://www.w3.org/2000/svg" viewBox="0 0 820 606"><filter id="b"><feGaussianBlur stdDeviation="12" /></filter><path fill="#d3bc71" d="M0 0h820v605H0z"/><g filter="url(#b)" transform="translate(1.6 1.6) scale(3.20313)" fill-opacity=".5"><ellipse fill="#d28c09" cx="105" cy="93" rx="91" ry="91"/><ellipse fill="#e0feee" rx="1" ry="1" transform="matrix(-39.4503 -10.12912 44.84033 -174.64155 216.5 163.8)"/><ellipse fill="#ebffff" rx="1" ry="1" transform="matrix(-10.43497 -7.77513 64.97749 -87.20606 21.7 39.3)"/><ellipse fill="#edffff" rx="1" ry="1" transform="matrix(-15.67833 5.94582 -31.63156 -83.40813 191.9 18.3)"/><ellipse fill="#d6f7ff" rx="1" ry="1" transform="matrix(9.00034 -6.8553 55.81446 73.27903 23.6 153.9)"/><ellipse fill="#fff" rx="1" ry="1" transform="rotate(139.5 50.6 118.4) scale(71.88089 16.4971)"/><path fill="#7ca000" d="M226 39h12v150h-12z"/><ellipse fill="#ad812d" rx="1" ry="1" transform="matrix(12.96691 -68.7487 29.89308 5.63823 141.7 79.5)"/></g></svg>