<svg xmlns="http://www.w3.org/2000/svg" viewBox="0 0 900 600"><filter id="b"><feGaussianBlur stdDeviation="12" /></filter><path fill="#dfd6d3" d="M0 0h900v597H0z"/><g filter="url(#b)" transform="translate(1.8 1.8) scale(3.51563)" fill-opacity=".5"><ellipse fill="#a40000" rx="1" ry="1" transform="rotate(106.9 67.8 175.1) scale(17.73668 70.95646)"/><path d="M-9.8 5.3l-6.2-12L67.1-16 28.8 17.8z"/><ellipse fill="#797866" rx="1" ry="1" transform="matrix(.88352 15.45566 -54.24465 3.10089 134.4 144.5)"/><ellipse fill="#fff" rx="1" ry="1" transform="matrix(-4.91037 29.95168 -205.04478 -33.61569 88.6 53.1)"/><ellipse fill="#825f2e" rx="1" ry="1" transform="matrix(-11.64896 -9.7078 18.0997 -21.7189 104.3 0)"/><ellipse fill="red" cx="17" cy="79" rx="35" ry="4"/><ellipse fill="#d50000" cx="255" cy="147" rx="48" ry="9"/><ellipse fill="#f6fbfb" rx="1" ry="1" transform="rotate(101.7 97 119.7) scale(94.54068 62.08294)"/></g></svg>