<svg xmlns="http://www.w3.org/2000/svg" viewBox="0 0 600 900"><filter id="b"><feGaussianBlur stdDeviation="12" /></filter><path fill="#e5d8c6" d="M0 0h597v900H0z"/><g filter="url(#b)" transform="translate(1.8 1.8) scale(3.51563)" fill-opacity=".5"><ellipse fill="#d68a00" cx="89" cy="146" rx="54" ry="35"/><ellipse fill="#eb4454" rx="1" ry="1" transform="rotate(11.1 -182.5 755.1) scale(64.52981 14.58773)"/><ellipse fill="#da9a00" rx="1" ry="1" transform="matrix(-13.27735 -23.67187 41.94809 -23.52833 88 150.1)"/><ellipse fill="#f8ffff" rx="1" ry="1" transform="matrix(-34.10561 10.36208 -49.12868 -161.70151 19.2 192.7)"/><ellipse fill="#fcffff" rx="1" ry="1" transform="matrix(-5.56642 24.70013 -107.59292 -24.24711 102 91.6)"/><ellipse fill="#edf4ff" rx="1" ry="1" transform="rotate(-87.2 56 -49.4) scale(25.0402 168.95495)"/><ellipse fill="#e6f3ff" cx="101" cy="200" rx="48" ry="26"/><ellipse fill="#744829" rx="1" ry="1" transform="matrix(-36.59403 15.45792 -3.04177 -7.20089 105.5 162.6)"/></g></svg>