<svg xmlns="http://www.w3.org/2000/svg" viewBox="0 0 820 267"><filter id="c"><feGaussianBlur stdDeviation="55" /></filter><path fill="#9ba79d" d="M0 0h820v265H0z"/><g filter='url(#c)' fill-opacity='.5'><ellipse fill-opacity=".5" rx="1" ry="1" transform="matrix(72.33271 8.99475 -35.3797 284.51137 818.4 130)"/><ellipse fill-opacity=".5" rx="1" ry="1" transform="matrix(98.23561 126.55672 -74.83658 58.0895 40 216.7)"/><ellipse fill="#fff" fill-opacity=".5" rx="1" ry="1" transform="rotate(6.5 -188.5 4002) scale(312.69757 129.59934)"/><path fill-opacity=".5" d="M529.2 330l-10.6-121.3 114.9-10.1 10.6 121.3z"/><ellipse fill="#e8ffff" fill-opacity=".5" rx="1" ry="1" transform="matrix(101.1448 -1.76549 1.12874 64.66552 137.3 41.1)"/><ellipse fill="#706e4e" fill-opacity=".5" rx="1" ry="1" transform="matrix(-16.86409 165.61722 -108.3092 -11.02866 293.7 264.3)"/><ellipse fill="#dcffff" fill-opacity=".5" rx="1" ry="1" transform="rotate(-173.1 241.4 -13.7) scale(276.37577 119.29532)"/><ellipse fill="#0e1a16" fill-opacity=".5" rx="1" ry="1" transform="rotate(-136.2 436.3 -44.5) scale(56.7614 79.85901)"/></g></svg>