<svg xmlns="http://www.w3.org/2000/svg" viewBox="0 0 900 600"><filter id="b"><feGaussianBlur stdDeviation="12" /></filter><path fill="#716c69" d="M0 0h900v597H0z"/><g filter="url(#b)" transform="translate(1.8 1.8) scale(3.51563)" fill-opacity=".5"><ellipse fill="#fff" rx="1" ry="1" transform="matrix(-1.64228 30.14997 -79.29753 -4.31936 179 160.4)"/><ellipse cx="32" cy="118" rx="53" ry="59"/><ellipse fill="#e6e1d9" rx="1" ry="1" transform="rotate(-35.6 137.4 -109.7) scale(51.359 72.90702)"/><ellipse cx="250" cy="65" rx="29" ry="86"/><ellipse rx="1" ry="1" transform="matrix(14.94908 8.44728 -24.28324 42.97381 184.3 96.6)"/><ellipse rx="1" ry="1" transform="matrix(-17.4633 -10.75993 21.14981 -34.32604 155.3 24.3)"/><ellipse rx="1" ry="1" transform="matrix(1.64142 58.76391 -11.51608 .32167 65.7 87.2)"/><ellipse rx="1" ry="1" transform="rotate(89.3 -18.8 35.4) scale(118.27572 15.60494)"/></g></svg>