<svg xmlns="http://www.w3.org/2000/svg" viewBox="0 0 900 600"><filter id="b"><feGaussianBlur stdDeviation="12" /></filter><path fill="#a3a0a2" d="M0 0h900v597H0z"/><g filter="url(#b)" transform="translate(1.8 1.8) scale(3.51563)" fill-opacity=".5"><ellipse cx="148" cy="24" rx="33" ry="33"/><ellipse rx="1" ry="1" transform="matrix(26.29288 16.28131 -66.11776 106.77431 228 98.1)"/><ellipse fill="#fff" rx="1" ry="1" transform="rotate(149.7 27.3 78.4) scale(109.65854 57.18024)"/><ellipse fill="#fff" rx="1" ry="1" transform="matrix(-8.61721 -5.2137 35.6289 -58.8875 225.8 103.1)"/><ellipse rx="1" ry="1" transform="matrix(26.78747 31.2793 -15.55103 13.31784 152 29.3)"/><ellipse fill="#fff" cx="133" cy="105" rx="36" ry="55"/><ellipse rx="1" ry="1" transform="matrix(8.4546 6.14263 -42.89544 59.0405 228.7 64.7)"/><ellipse rx="1" ry="1" transform="matrix(27.62482 -22.27341 14.73127 18.2706 145.5 22)"/></g></svg>