<svg xmlns="http://www.w3.org/2000/svg" viewBox="0 0 900 600"><filter id="b"><feGaussianBlur stdDeviation="12" /></filter><path fill="#9a9ea0" d="M0 0h900v597H0z"/><g filter="url(#b)" transform="translate(1.8 1.8) scale(3.51563)" fill-opacity=".5"><ellipse rx="1" ry="1" transform="matrix(6.69752 45.35551 -110.69676 16.34628 148.2 112.5)"/><ellipse fill="#fff" rx="1" ry="1" transform="matrix(-3.76098 50.19065 -191.10636 -14.32035 117.5 10.7)"/><ellipse rx="1" ry="1" transform="matrix(21.10737 -5.31675 12.1932 48.40672 47.2 85.5)"/><ellipse fill="#fff" rx="1" ry="1" transform="rotate(172.2 2.6 66.8) scale(21.83869 96.52791)"/><ellipse fill="#fff" cx="117" cy="94" rx="60" ry="14"/><ellipse fill="#fff" rx="1" ry="1" transform="matrix(-15.63842 -22.9568 57.10655 -38.90163 220.8 169)"/><ellipse rx="1" ry="1" transform="matrix(-1.53184 -18.51192 68.26172 -5.64859 129.4 126.4)"/><ellipse fill="#fff" rx="1" ry="1" transform="matrix(-195.24424 3.408 -.70013 -40.1106 179 12.8)"/></g></svg>