<svg xmlns="http://www.w3.org/2000/svg" viewBox="0 0 900 600"><filter id="b"><feGaussianBlur stdDeviation="12" /></filter><path fill="#d0c6b8" d="M0 0h900v597H0z"/><g filter="url(#b)" transform="translate(1.8 1.8) scale(3.51563)" fill-opacity=".5"><ellipse fill="#310000" rx="1" ry="1" transform="matrix(86.96122 7.30234 -1.63838 19.511 229.7 109)"/><ellipse fill="#352900" rx="1" ry="1" transform="matrix(-51.21027 8.386 -2.19231 -13.38766 53.8 120.2)"/><ellipse fill="#fff" cx="58" rx="108" ry="108"/><ellipse fill="#4e2000" rx="1" ry="1" transform="matrix(-40.05236 -9.34855 2.82465 -12.10176 161.4 65)"/><ellipse fill="#fff" cx="194" cy="18" rx="252" ry="35"/><ellipse fill="#200" rx="1" ry="1" transform="matrix(-.67168 10.76155 -32.52152 -2.02982 182.5 107.9)"/><path fill="#3a2400" d="M281.6 135.9L257.1 153l-28.7-41 24.5-17z"/><path fill="#a77333" d="M154 51l32-3-55 98z"/></g></svg>