<svg xmlns="http://www.w3.org/2000/svg" viewBox="0 0 900 600"><filter id="b"><feGaussianBlur stdDeviation="12" /></filter><path fill="#cdc3b6" d="M0 0h900v597H0z"/><g filter="url(#b)" transform="translate(1.8 1.8) scale(3.51563)" fill-opacity=".5"><ellipse fill="#7b512c" cx="205" cy="95" rx="93" ry="39"/><path fill="#fff" d="M-16 121L271 4 2-16z"/><ellipse fill="#2f2200" rx="1" ry="1" transform="matrix(53.85224 -8.62573 2.1492 13.4179 55.3 120.2)"/><path fill="#3c0c00" d="M231 66l-65 29 45-56z"/><ellipse fill="#fff" rx="1" ry="1" transform="matrix(4.12647 11.21903 -55.01353 20.2345 244.2 75)"/><ellipse fill="#fff3ee" rx="1" ry="1" transform="matrix(-27.36173 -22.79693 16.45996 -19.75586 180.4 139.1)"/><path fill="#3e2314" d="M238 139l5-44-75 8z"/><ellipse fill="#feffff" rx="1" ry="1" transform="matrix(94.67767 5.2933 -4.40019 78.70314 69.8 19)"/></g></svg>