<svg xmlns="http://www.w3.org/2000/svg" viewBox="0 0 900 600"><filter id="b"><feGaussianBlur stdDeviation="12" /></filter><path fill="#cabdab" d="M0 0h900v597H0z"/><g filter="url(#b)" transform="translate(1.8 1.8) scale(3.51563)" fill-opacity=".5"><ellipse fill="#241600" rx="1" ry="1" transform="matrix(-47.41008 7.08548 -2.23674 -14.96636 60.3 120.3)"/><ellipse fill="#7f3f0b" cx="255" cy="106" rx="97" ry="31"/><ellipse fill="#fff" rx="1" ry="1" transform="matrix(99.74109 -60.88222 27.85585 45.63521 51.2 39.5)"/><ellipse fill="#6d3c00" rx="1" ry="1" transform="matrix(-26.23806 24.51648 -18.43569 -19.73027 154.5 59.2)"/><path fill="#4b0a00" d="M212.2 4.6l12.3 15.7-34.7 27.1-12.3-15.7z"/><ellipse fill="#fffaf4" cx="217" cy="137" rx="10" ry="65"/><ellipse fill="#fff" cx="63" cy="14" rx="68" ry="68"/><ellipse fill="#390400" rx="1" ry="1" transform="matrix(11.96458 -7.38288 19.40452 31.44665 248.5 120.3)"/></g></svg>