<svg xmlns="http://www.w3.org/2000/svg" viewBox="0 0 900 1350"><filter id="b"><feGaussianBlur stdDeviation="12" /></filter><path fill="#715f46" d="M0 0h896v1350H0z"/><g filter="url(#b)" transform="translate(2.6 2.6) scale(5.27344)" fill-opacity=".5"><ellipse fill="#fff" rx="1" ry="1" transform="matrix(-51.23702 -14.58732 32.53036 -114.26076 31 58)"/><ellipse rx="1" ry="1" transform="matrix(-36.60918 -60.12733 144.19312 -87.79356 105.3 214.7)"/><ellipse fill="#fff" rx="1" ry="1" transform="matrix(-38.34908 -9.13604 14.84804 -62.32557 27.6 34)"/><path d="M86.9 87.1l36.3-24L-16 110.5l3 8.1z"/><ellipse rx="1" ry="1" transform="matrix(-118.87096 -14.68933 6.52762 -52.82363 54.8 255)"/><ellipse fill="#764907" cx="134" cy="67" rx="36" ry="168"/><ellipse fill="#130800" rx="1" ry="1" transform="matrix(-7.70698 -168.82418 15.3108 -.69895 169 87.7)"/><ellipse fill="#c39040" rx="1" ry="1" transform="matrix(-53.0947 24.1468 -7.24633 -15.93344 100.9 107)"/></g></svg>