<svg xmlns="http://www.w3.org/2000/svg" viewBox="0 0 900 600"><filter id="b"><feGaussianBlur stdDeviation="12" /></filter><path fill="#817660" d="M0 0h900v597H0z"/><g filter="url(#b)" transform="translate(1.8 1.8) scale(3.51563)" fill-opacity=".5"><ellipse fill="#1d1200" cx="60" cy="80" rx="100" ry="32"/><path fill="#d7c8b2" d="M210 165L49 152 271-16z"/><path d="M-5.2 162.3l-15.7-63 30-7.6 15.8 63z"/><ellipse fill="#fff" cx="41" cy="82" rx="4" ry="124"/><ellipse fill="#251100" rx="1" ry="1" transform="matrix(67.2106 .20702 -.09313 30.23659 124.8 0)"/><ellipse fill="#faffff" rx="1" ry="1" transform="matrix(.5889 11.83175 -33.2985 1.65739 12.5 40)"/><ellipse fill="#adb6b9" rx="1" ry="1" transform="matrix(32.4198 58.3296 -30.31076 16.84682 235 69.9)"/><ellipse fill="#fffff1" rx="1" ry="1" transform="rotate(-109 127.2 4.8) scale(27.17097 17.70302)"/></g></svg>