<svg xmlns="http://www.w3.org/2000/svg" viewBox="0 0 900 600"><filter id="b"><feGaussianBlur stdDeviation="12" /></filter><path fill="#301c07" d="M0 0h900v597H0z"/><g filter="url(#b)" transform="translate(1.8 1.8) scale(3.51563)" fill-opacity=".5"><ellipse fill="#ffc334" rx="1" ry="1" transform="matrix(8.539 52.28105 -37.00934 6.04469 64.4 117.9)"/><ellipse cx="159" cy="34" rx="102" ry="76"/><ellipse fill="#ffcf4b" rx="1" ry="1" transform="matrix(5.89243 -34.3746 20.82306 3.56945 70.3 119.5)"/><ellipse fill="#8e5010" rx="1" ry="1" transform="rotate(-15 581.5 -497.4) scale(90.79132 17.67904)"/><ellipse rx="1" ry="1" transform="matrix(25.90596 6.57707 -52.0729 205.1064 0 87.1)"/><ellipse fill="#7d815d" cx="53" cy="62" rx="23" ry="20"/><ellipse rx="1" ry="1" transform="matrix(3.00074 -34.29862 119.63831 10.467 108.9 16.4)"/><path fill="#de925e" d="M223.2 31.6L271 46l-31 3.4-7-8z"/></g></svg>