<svg xmlns="http://www.w3.org/2000/svg" viewBox="0 0 900 600"><filter id="b"><feGaussianBlur stdDeviation="12" /></filter><path fill="#958a81" d="M0 0h900v597H0z"/><g filter="url(#b)" transform="translate(1.8 1.8) scale(3.51563)" fill-opacity=".5"><ellipse fill="#000016" cx="160" cy="169" rx="36" ry="100"/><ellipse fill="#e1eeff" rx="1" ry="1" transform="matrix(-7.05296 -103.45662 35.3798 -2.41195 227.2 71.5)"/><ellipse fill="#0d0000" rx="1" ry="1" transform="rotate(-5 338.7 -1280.7) scale(29.14037 41.3744)"/><ellipse fill="#f8ffff" rx="1" ry="1" transform="matrix(-3.93314 -44.5664 21.50293 -1.8977 32.3 98)"/><path fill="#000009" d="M161 0h30v69h-30z"/><path fill="#ff8900" d="M47 155L65 7l64 140z"/><ellipse fill="#fff" rx="1" ry="1" transform="matrix(.51396 49.0781 -9.9964 .10469 150.7 31.1)"/><path fill="#f1ffff" d="M41 6l1 98L73-14z"/></g></svg>