<svg xmlns="http://www.w3.org/2000/svg" viewBox="0 0 900 600"><filter id="b"><feGaussianBlur stdDeviation="12" /></filter><path fill="#d0c1b2" d="M0 0h900v597H0z"/><g filter="url(#b)" transform="translate(1.8 1.8) scale(3.51563)" fill-opacity=".5"><ellipse fill="#4a2501" cx="135" cy="129" rx="23" ry="91"/><ellipse fill="#7b3e00" rx="1" ry="1" transform="matrix(40.79964 -27.71211 20.7503 30.54999 49.6 97.5)"/><ellipse fill="#fff" rx="1" ry="1" transform="rotate(103.8 68.3 71.5) scale(46.56047 254.99998)"/><ellipse fill="#43280d" rx="1" ry="1" transform="matrix(-17.1492 37.32447 -20.60617 -9.46776 135.4 79.6)"/><ellipse fill="#fff" rx="1" ry="1" transform="rotate(156.5 16.3 15) scale(189.17399 31.47066)"/><ellipse fill="#fff" cx="216" cy="41" rx="60" ry="60"/><ellipse fill="#a89075" rx="1" ry="1" transform="matrix(2.0608 33.11925 -69.61847 4.33191 179.8 134.9)"/><path fill="#2b0000" d="M63 91l-45 6 60-57z"/></g></svg>