<svg xmlns="http://www.w3.org/2000/svg" viewBox="0 0 900 600"><filter id="b"><feGaussianBlur stdDeviation="12" /></filter><path fill="#d7d4cc" d="M0 0h900v597H0z"/><g filter="url(#b)" transform="translate(1.8 1.8) scale(3.51563)" fill-opacity=".5"><ellipse fill="#190000" cx="139" cy="143" rx="36" ry="25"/><ellipse fill="#612800" rx="1" ry="1" transform="matrix(-15.60542 -34.56218 22.5091 -10.16324 151.1 73.6)"/><ellipse fill="#fff" rx="1" ry="1" transform="matrix(41.35058 60.45299 -83.10145 56.8424 39 58.7)"/><ellipse fill="#564936" rx="1" ry="1" transform="rotate(-91.6 136.7 -45.7) scale(15.84159 26.00412)"/><ellipse fill="#f9ffff" cx="211" cy="22" rx="59" ry="59"/><path fill="#513700" d="M111 117l49.8 5.2-3.9 36.8-49.7-5.2z"/><ellipse fill="#450c04" rx="1" ry="1" transform="matrix(9.94384 21.3393 -8.10288 3.77584 149 48.2)"/><ellipse fill="#ffeaa4" rx="1" ry="1" transform="matrix(16.97543 -21.23918 21.40284 17.10623 88.9 128.3)"/></g></svg>