<svg xmlns="http://www.w3.org/2000/svg" viewBox="0 0 900 1350"><filter id="c"><feGaussianBlur stdDeviation="55" /></filter><path fill="#756153" d="M0 0h896v1350H0z"/><g filter='url(#c)' fill-opacity='.5'><ellipse fill="#fff7f3" fill-opacity=".5" rx="1" ry="1" transform="rotate(175.1 214.4 155) scale(403.67421 156.32212)"/><path fill-opacity=".5" d="M97.6 1015.1l226.7-516.8L487.8 1031z"/><ellipse fill-opacity=".5" rx="1" ry="1" transform="rotate(-127.9 734.2 369) scale(173.61617 850.67139)"/><ellipse fill="#fff" fill-opacity=".5" rx="1" ry="1" transform="matrix(-97.61232 -322.16106 79.07959 -23.9605 133.3 29.5)"/><ellipse fill="#0e0900" fill-opacity=".5" rx="1" ry="1" transform="rotate(-68.1 911.9 -161.7) scale(127.59644 211.4611)"/><path fill="#fffbe7" fill-opacity=".5" d="M224.1 614.4l-269-195.2 195.2 369.2z"/><ellipse fill="#120000" fill-opacity=".5" rx="1" ry="1" transform="matrix(71.71756 13.53462 -138.61518 734.49717 212.3 1219.9)"/><ellipse fill="#e5d2ca" fill-opacity=".5" rx="1" ry="1" transform="matrix(75.16887 1.68797 -6.1452 273.6581 470 534.4)"/></g></svg>