<svg xmlns="http://www.w3.org/2000/svg" viewBox="0 0 900 1350"><filter id="b"><feGaussianBlur stdDeviation="12" /></filter><path fill="#837264" d="M0 0h896v1350H0z"/><g filter="url(#b)" transform="translate(2.6 2.6) scale(5.27344)" fill-opacity=".5"><ellipse cx="76" cy="205" rx="169" ry="26"/><path fill="#e0e9ea" d="M185 170l-96-6 66-180z"/><ellipse fill="#ffefda" rx="1" ry="1" transform="matrix(-17.53906 .14316 -.84233 -103.19885 42 73.2)"/><path fill="#fff1d4" d="M169.3 30.5L27.7 40.4l-3-42.9 141.6-9.9z"/><ellipse fill="#4d130b" rx="1" ry="1" transform="matrix(-1.10356 -17.54053 75.56713 -4.75428 104.8 49.8)"/><ellipse fill="#330900" cy="195" rx="27" ry="107"/><ellipse rx="1" ry="1" transform="rotate(106.8 -2.1 165.3) scale(29.89848 79.32853)"/><ellipse fill="#1d201a" rx="1" ry="1" transform="matrix(-14.0602 36.24937 -15.47425 -6.00207 82.5 105.9)"/></g></svg>