<svg xmlns="http://www.w3.org/2000/svg" viewBox="0 0 600 900"><filter id="b"><feGaussianBlur stdDeviation="12" /></filter><path fill="#c7bfb8" d="M0 0h597v900H0z"/><g filter="url(#b)" transform="translate(1.8 1.8) scale(3.51563)" fill-opacity=".5"><ellipse fill="#240000" rx="1" ry="1" transform="matrix(-49.79349 -7.08666 11.14644 -78.31897 135.7 204.2)"/><ellipse fill="#fff" rx="1" ry="1" transform="matrix(51.24649 77.40279 -102.10712 67.60262 53.7 89.3)"/><ellipse fill="#d33100" rx="1" ry="1" transform="rotate(-4 1426.6 -1398.4) scale(14.40956 20.37358)"/><ellipse fill="#700000" rx="1" ry="1" transform="rotate(-117 113.1 65) scale(24.28967 26.66155)"/><ellipse fill="#622c00" rx="1" ry="1" transform="matrix(-20.52057 9.80621 -12.94596 -27.09083 136.4 149.3)"/><path fill="#c2d7cf" d="M156.8 211.2l-26 2.8 3.6-37.5 50.6-11.6z"/><ellipse fill="#081c11" rx="1" ry="1" transform="matrix(-48.4146 -.68224 .26686 -18.93742 150.4 239.7)"/><ellipse fill="#fdffff" cx="32" cy="99" rx="55" ry="55"/></g></svg>