<svg xmlns="http://www.w3.org/2000/svg" viewBox="0 0 600 900"><filter id="b"><feGaussianBlur stdDeviation="12" /></filter><path fill="#c4b6a9" d="M0 0h597v900H0z"/><g filter="url(#b)" transform="translate(1.8 1.8) scale(3.51563)" fill-opacity=".5"><path fill="#7b5136" d="M185 200l-22 71-145-26z"/><ellipse fill="#f8f6e2" rx="1" ry="1" transform="matrix(37.70542 76.76805 -40.58177 19.93216 118.2 129.3)"/><path fill="#784a30" d="M-16 227L-4 99l54 141z"/><path fill="#dbebf8" d="M45 229L1 96l87 132z"/><path fill="#938a79" d="M160 182.1l-3.5-44.4-10.8 32.1-33.1 25.2z"/><ellipse fill="#e4eff7" rx="1" ry="1" transform="matrix(-1.8664 -10.20868 66.4497 -12.1486 120.4 205.2)"/><ellipse fill="#b39285" rx="1" ry="1" transform="rotate(-111.3 97.3 -18.1) scale(58.47078 16.42093)"/><ellipse fill="#e4e7f8" cx="134" rx="85" ry="13"/></g></svg>