<svg xmlns="http://www.w3.org/2000/svg" viewBox="0 0 600 900"><filter id="b"><feGaussianBlur stdDeviation="12" /></filter><path fill="#dacecc" d="M0 0h597v900H0z"/><g filter="url(#b)" transform="translate(1.8 1.8) scale(3.51563)" fill-opacity=".5"><ellipse fill="#95575b" cx="80" cy="193" rx="14" ry="36"/><ellipse fill="#fff" rx="1" ry="1" transform="matrix(140.71405 -93.59785 18.33889 27.5705 138.5 233.2)"/><path fill="#4e000b" d="M4.8 92l30-1 .4 13-30 1z"/><ellipse fill="#fbf5ec" rx="1" ry="1" transform="rotate(171.4 17.5 101.4) scale(79.97129 12.95646)"/><ellipse fill="#992740" rx="1" ry="1" transform="rotate(-102.1 115 53.6) scale(5.92809 23.13131)"/><ellipse fill="#c6b8bb" rx="1" ry="1" transform="matrix(26.44122 -36.39322 59.17833 42.99557 46.8 28.2)"/><ellipse fill="#fffcfa" cx="73" cy="248" rx="160" ry="10"/><path fill="#fffdf9" d="M36 79l36 75-39 3z"/></g></svg>