<svg xmlns="http://www.w3.org/2000/svg" viewBox="0 0 600 900"><filter id="b"><feGaussianBlur stdDeviation="12" /></filter><path fill="#dabfbf" d="M0 0h597v900H0z"/><g filter="url(#b)" transform="translate(1.8 1.8) scale(3.51563)" fill-opacity=".5"><ellipse fill="#9e2f3b" cx="98" cy="143" rx="53" ry="53"/><ellipse fill="#faffff" rx="1" ry="1" transform="rotate(96.1 -36.8 53.8) scale(169 33.61264)"/><ellipse fill="#881a2e" rx="1" ry="1" transform="matrix(-4.26192 -16.7202 41.6291 -10.61112 83.7 160.5)"/><ellipse fill="#fefdf0" rx="1" ry="1" transform="rotate(12.3 -869.5 850.2) scale(64.77199 31.92604)"/><ellipse fill="#f0fbfb" rx="1" ry="1" transform="matrix(-63.65521 -2.18556 1.14496 -33.34738 105.4 21.1)"/><path fill="#922337" d="M137 96h17v68h-17z"/><path fill="#ffceca" d="M94 80l46 8-11 85z"/><ellipse fill="#fff" rx="1" ry="1" transform="matrix(-16.97455 98.62043 -17.77317 -3.05912 154.8 239.7)"/></g></svg>