<svg xmlns="http://www.w3.org/2000/svg" viewBox="0 0 1350 900"><filter id="b"><feGaussianBlur stdDeviation="12" /></filter><path fill="#5c5b13" d="M0 0h1350v896H0z"/><g filter="url(#b)" transform="translate(2.6 2.6) scale(5.27344)" fill-opacity=".5"><ellipse fill="#d8b623" rx="1" ry="1" transform="matrix(3.35811 42.2221 -218.6194 17.38777 115 136)"/><ellipse rx="1" ry="1" transform="matrix(123.82865 -33.07725 14.54907 54.4662 148.1 31)"/><ellipse fill="#67420c" rx="1" ry="1" transform="matrix(3.39561 -23.05955 63.8705 9.40519 240.2 141.3)"/><ellipse fill="#071c0a" cx="33" cy="75" rx="103" ry="22"/><ellipse fill="#030904" rx="1" ry="1" transform="rotate(154.4 111 43.5) scale(35.99273 39.56593)"/><ellipse fill="#8eb547" cx="19" cy="42" rx="8" ry="31"/><ellipse fill="#bea828" rx="1" ry="1" transform="matrix(-55.4305 -7.5082 4.57749 -33.79406 112 127.2)"/><ellipse fill="#355e1a" rx="1" ry="1" transform="matrix(66.78805 26.14436 -13.42877 34.30497 53.2 1.4)"/></g></svg>