<svg xmlns="http://www.w3.org/2000/svg" viewBox="0 0 1350 900"><filter id="b"><feGaussianBlur stdDeviation="12" /></filter><path fill="#253f4a" d="M0 0h1350v896H0z"/><g filter="url(#b)" transform="translate(2.6 2.6) scale(5.27344)" fill-opacity=".5"><ellipse fill="#008eff" rx="1" ry="1" transform="matrix(-218.84928 78.42604 -15.3551 -42.84868 42.4 19)"/><ellipse fill="#201902" cx="119" cy="119" rx="87" ry="87"/><ellipse fill="#fff78c" rx="1" ry="1" transform="rotate(90.5 -47.8 64) scale(12.34349 25.01524)"/><ellipse fill="#74e1ff" rx="1" ry="1" transform="rotate(-72.8 46.5 17.7) scale(22.13844 28.15004)"/><ellipse fill="#040000" cx="209" cy="44" rx="63" ry="16"/><ellipse fill="#0068fe" rx="1" ry="1" transform="matrix(-93.81753 6.63119 -1.4036 -19.858 33.2 27.4)"/><ellipse fill="#5b96b6" rx="1" ry="1" transform="matrix(-.2317 -5.76872 52.43741 -2.1061 122.4 65.2)"/><ellipse fill="#ae9c78" rx="1" ry="1" transform="matrix(21.75786 -19.24973 6.64385 7.5095 236.1 126.5)"/></g></svg>