<svg xmlns="http://www.w3.org/2000/svg" viewBox="0 0 900 1350"><filter id="c"><feGaussianBlur stdDeviation="55" /></filter><path fill="#65482e" d="M0 0h896v1350H0z"/><g filter='url(#c)' fill-opacity='.5'><ellipse fill="#fff7da" fill-opacity=".5" rx="1" ry="1" transform="matrix(-417.00232 -155.08177 35.5292 -95.53515 528.2 267.6)"/><ellipse fill-opacity=".5" rx="1" ry="1" transform="matrix(-6.02458 575.28399 -353.60604 -3.70309 821.2 1224.6)"/><path fill="#ffd694" fill-opacity=".5" d="M2.6 218.8H203v495.8H2.6z"/><path fill-opacity=".5" d="M13.2 614.4l-95 733 321.7 84.3z"/><path fill="#d9a378" fill-opacity=".5" d="M334.9 450.9h184.5V841H335z"/><ellipse fill="#1b0200" fill-opacity=".5" rx="1" ry="1" transform="rotate(-120.2 723.2 322.1) scale(326.41862 598.06565)"/><ellipse fill="#ffefc4" fill-opacity=".5" rx="1" ry="1" transform="matrix(-46.64533 -112.61179 74.64226 -30.91784 82 561.6)"/><ellipse fill="#faf1e2" fill-opacity=".5" rx="1" ry="1" transform="matrix(21.48889 -55.14207 244.07384 95.11567 633.7 319.8)"/></g></svg>