<svg xmlns="http://www.w3.org/2000/svg" viewBox="0 0 1350 900"><filter id="b"><feGaussianBlur stdDeviation="12" /></filter><path fill="#174b6a" d="M0 0h1350v896H0z"/><g filter="url(#b)" transform="translate(2.6 2.6) scale(5.27344)" fill-opacity=".5"><ellipse fill="#0060ff" rx="1" ry="1" transform="rotate(1.1 -2451 5794.7) scale(251.73675 40.22278)"/><ellipse fill="#503e00" rx="1" ry="1" transform="matrix(-.47768 -43.93696 254.98493 -2.7722 155.5 134.3)"/><ellipse fill="#0079ff" rx="1" ry="1" transform="matrix(-5.02145 -19.69992 129.4792 -33.00384 30 72)"/><ellipse fill="#384800" cx="142" cy="139" rx="248" ry="46"/><ellipse fill="#000800" rx="1" ry="1" transform="matrix(-2.66841 -14.44841 47.68062 -8.80592 59.7 98.5)"/><ellipse cx="216" cy="100" rx="100" ry="12"/><path fill="#008bff" d="M227.3 68.3L124.8 98.5 51 62.4l79.4-10z"/><ellipse fill="#002399" rx="1" ry="1" transform="matrix(254.9803 3.16977 -.42396 34.10392 191.8 7.3)"/></g></svg>