<svg xmlns="http://www.w3.org/2000/svg" viewBox="0 0 1350 900"><filter id="c"><feGaussianBlur stdDeviation="55" /></filter><path fill="#61732f" d="M0 0h1350v896H0z"/><g filter='url(#c)' fill-opacity='.5'><ellipse fill="#ecffff" fill-opacity=".5" rx="1" ry="1" transform="matrix(-50.75878 148.48304 -444.77979 -152.04753 302.5 21.7)"/><ellipse fill="#030a00" fill-opacity=".5" rx="1" ry="1" transform="rotate(-24.8 1755.5 82.2) scale(275.57244 687.27544)"/><ellipse fill="#c9ffff" fill-opacity=".5" rx="1" ry="1" transform="matrix(-251.72448 -38.17905 23.42626 -154.45545 449.5 49.7)"/><ellipse fill="#bcbc5f" fill-opacity=".5" rx="1" ry="1" transform="matrix(-131.33409 .33344 -.9738 -383.5558 633.1 676.1)"/><ellipse fill="#314700" fill-opacity=".5" rx="1" ry="1" transform="matrix(34.33753 503.6811 -116.90592 7.96985 872.5 502.8)"/><path fill="#8adaff" fill-opacity=".5" d="M-70.3 46.3l1202.5-128-853.3 229.2-309-.8z"/><path fill="#121c00" fill-opacity=".5" d="M1161-100.6l218-38.4 154.8 877.6-218.1 38.5z"/><ellipse fill="#576100" fill-opacity=".5" rx="1" ry="1" transform="matrix(-137.56627 -199.8529 155.07482 -106.74383 323.8 382.3)"/></g></svg>