<svg xmlns="http://www.w3.org/2000/svg" viewBox="0 0 900 1350"><filter id="b"><feGaussianBlur stdDeviation="12" /></filter><path fill="#614e46" d="M0 0h896v1350H0z"/><g filter="url(#b)" transform="translate(2.6 2.6) scale(5.27344)" fill-opacity=".5"><ellipse fill="#ede1e3" rx="1" ry="1" transform="matrix(22.83983 1.39694 -3.9636 64.80416 63.5 135.7)"/><ellipse cx="9" cy="30" rx="36" ry="147"/><ellipse fill="#9d7762" rx="1" ry="1" transform="matrix(-26.68285 -1.52849 4.74012 -82.74851 153.9 127.7)"/><path fill="#201208" d="M67 31h57v32H67z"/><ellipse fill="#ba9a8b" rx="1" ry="1" transform="matrix(10.97885 3.1274 -7.78749 27.33819 61 30.4)"/><ellipse fill="#0f0000" rx="1" ry="1" transform="rotate(-158.6 9.8 13) scale(30.47091 166.45998)"/><path fill="#230800" d="M130.1 31.2l-14-38.5 65.8-24 14 38.6z"/><ellipse fill="#c6baba" rx="1" ry="1" transform="rotate(-72.7 134.3 34.3) scale(55.92523 12.1731)"/></g></svg>