<svg xmlns="http://www.w3.org/2000/svg" viewBox="0 0 1350 900"><filter id="b"><feGaussianBlur stdDeviation="12" /></filter><path fill="#48525c" d="M0 0h1350v896H0z"/><g filter="url(#b)" transform="translate(2.6 2.6) scale(5.27344)" fill-opacity=".5"><ellipse fill="#cbffff" cx="133" cy="6" rx="109" ry="36"/><path d="M128 77L1 185-16-16z"/><ellipse fill="#0a0703" rx="1" ry="1" transform="matrix(-52.9606 -78.8137 23.9383 -16.08587 230.6 115.3)"/><ellipse fill="#8995a3" rx="1" ry="1" transform="matrix(-62.0739 28.62567 -11.31683 -24.5402 138 148.3)"/><path fill="#8cbfff" d="M55 0h177v36H55z"/><ellipse rx="1" ry="1" transform="matrix(.43249 -30.31948 99.0455 1.41281 0 86.6)"/><ellipse fill="#dfedff" rx="1" ry="1" transform="rotate(85 34 76.8) scale(5.15973 44.86241)"/><path fill="#635756" d="M168 95L21 6l19 56z"/></g></svg>