<svg xmlns="http://www.w3.org/2000/svg" viewBox="0 0 900 1350"><filter id="c"><feGaussianBlur stdDeviation="55" /></filter><path fill="#345572" d="M0 0h896v1350H0z"/><g filter='url(#c)' fill-opacity='.5'><ellipse fill="#ffd085" fill-opacity=".5" rx="1" ry="1" transform="rotate(-63.6 1117.4 347) scale(228.5321 99.88165)"/><ellipse fill="#562900" fill-opacity=".5" rx="1" ry="1" transform="matrix(255.87275 628.71366 -222.06286 90.37474 521.2 893.8)"/><path fill="#00a6ff" fill-opacity=".5" d="M245.2 1215.5L55.4-81.7-81.7 762z"/><path fill="#0076ff" fill-opacity=".5" d="M925.5 371.8L456.2-81.7l369 1160.1z"/><ellipse fill="#006eff" fill-opacity=".5" rx="1" ry="1" transform="matrix(75.92118 150.29838 -428.33872 216.36945 152.3 155.8)"/><ellipse fill-opacity=".5" rx="1" ry="1" transform="matrix(128.3189 -91.22213 105.64576 148.60808 19.4 1224.5)"/><ellipse fill="#5cdfff" fill-opacity=".5" rx="1" ry="1" transform="matrix(-112.96074 85.74187 -44.93523 -59.19998 817.6 960.4)"/><ellipse fill="#000700" fill-opacity=".5" rx="1" ry="1" transform="matrix(-224.24602 92.5289 -62.13865 -150.59452 776 1242.2)"/></g></svg>