<svg xmlns="http://www.w3.org/2000/svg" viewBox="0 0 1200 800"><filter id="c"><feGaussianBlur stdDeviation="55" /></filter><path fill="#6e7807" d="M0 0h1200v796H0z"/><g filter='url(#c)' fill-opacity='.5'><ellipse fill="#fffffc" fill-opacity=".5" rx="1" ry="1" transform="matrix(115.72009 -169.13245 40.45982 27.68253 399.9 793.4)"/><ellipse fill="#330017" fill-opacity=".5" rx="1" ry="1" transform="matrix(86.09394 172.67774 -89.72542 44.73544 695 393.6)"/><path fill="#c190a3" fill-opacity=".5" d="M475.8 607L818 583.6 485.2 475.8z"/><ellipse fill="#7e8b00" fill-opacity=".5" rx="1" ry="1" transform="matrix(218.05558 -80.6612 182.47234 493.28683 992.8 321.6)"/><path fill="#e5faf6" fill-opacity=".5" d="M695.7 869.5L547.5 653.2l105.6 105.3-18-22.6z"/><path fill="#b5ce00" fill-opacity=".5" d="M347 629.4l74.4 64.6-116.9 134.4-74.3-64.6z"/><path fill="#ffffb2" fill-opacity=".5" d="M316.4 808.6l131.3 14 56.2-196.8z"/><path fill="#4a3802" fill-opacity=".5" d="M358.6 616.4L743 269.5l-375 70.3z"/></g></svg>