<svg xmlns="http://www.w3.org/2000/svg" viewBox="0 0 900 1350"><filter id="b"><feGaussianBlur stdDeviation="12" /></filter><path fill="#3d2011" d="M0 0h896v1350H0z"/><g filter="url(#b)" transform="translate(2.6 2.6) scale(5.27344)" fill-opacity=".5"><ellipse fill="#664121" rx="1" ry="1" transform="rotate(146.4 9.3 54.8) scale(73.32226 95.24147)"/><path d="M185 47L90-16l80 279z"/><ellipse cx="91" cy="245" rx="84" ry="18"/><path fill="#ffdea2" d="M150.1 223.2l-9.2-16.6 7-3.8 9.2 16.6z"/><ellipse rx="1" ry="1" transform="matrix(11.06918 -17.78338 68.81324 42.83247 83.1 0)"/><ellipse fill="#6e4523" cx="83" cy="81" rx="41" ry="41"/><path fill="#7e4a26" d="M2.1 129.6l30 92.2-14.2 4.6-30-92.2z"/><ellipse fill="#5b3f21" rx="1" ry="1" transform="matrix(-20.26972 -33.3477 18.93093 -11.50678 111.2 196.2)"/></g></svg>