<svg xmlns="http://www.w3.org/2000/svg" viewBox="0 0 1350 900"><filter id="b"><feGaussianBlur stdDeviation="12" /></filter><path fill="#163043" d="M0 0h1350v896H0z"/><g filter="url(#b)" transform="translate(2.6 2.6) scale(5.27344)" fill-opacity=".5"><ellipse fill="#47cdff" rx="1" ry="1" transform="rotate(-21 95 -285.8) scale(81.13031 50.66245)"/><ellipse fill="#080000" rx="1" ry="1" transform="matrix(254.65176 13.32214 -3.41446 65.26724 195.2 138.5)"/><ellipse fill="#4397ff" rx="1" ry="1" transform="matrix(39.41142 -27.6988 29.20647 41.5566 115.3 21)"/><ellipse fill="#006dfc" cx="37" cy="4" rx="146" ry="21"/><ellipse fill="#010000" cx="225" cy="96" rx="55" ry="123"/><path fill="#243100" d="M15 22h29v116H15z"/><ellipse fill="#298dff" rx="1" ry="1" transform="matrix(6.45339 -24.2536 15.18952 4.04162 59.5 55.8)"/><path fill="#78acff" d="M132.3 72.8l-10-46.3L177.4-16l-33.6 91z"/></g></svg>