<svg xmlns="http://www.w3.org/2000/svg" viewBox="0 0 900 1350"><filter id="c"><feGaussianBlur stdDeviation="55" /></filter><path fill="#534438" d="M0 0h896v1350H0z"/><g filter='url(#c)' fill-opacity='.5'><ellipse fill="#bfab9b" fill-opacity=".5" rx="1" ry="1" transform="matrix(347.14662 -7.87786 11.75267 517.89431 673.2 307.1)"/><ellipse fill-opacity=".5" rx="1" ry="1" transform="rotate(111 -258.8 643) scale(262.9004 891.21103)"/><ellipse fill-opacity=".5" rx="1" ry="1" transform="matrix(-131.16013 5.35993 -30.36854 -743.13354 2.6 434.6)"/><path fill="#070000" fill-opacity=".5" d="M458.8 314l109.5-82.5 85.6 113.7-109.5 82.5z"/><ellipse fill="#c4bdb5" fill-opacity=".5" rx="1" ry="1" transform="matrix(-24.21211 123.41017 -224.10864 -43.96837 813.6 181.1)"/><ellipse fill="#7e6349" fill-opacity=".5" rx="1" ry="1" transform="rotate(3.2 -14749.4 7964.5) scale(94.65352 317.28915)"/><path fill-opacity=".5" d="M597.9 1176l-71.5 367.5L19.1 1445l71.5-367.5z"/><path fill="#f9ffff" fill-opacity=".5" d="M762 1062.6l-73.8-137.1 31.6-110.8z"/></g></svg>