<svg xmlns="http://www.w3.org/2000/svg" viewBox="0 0 1350 900"><filter id="b"><feGaussianBlur stdDeviation="12" /></filter><path fill="#244141" d="M0 0h1350v896H0z"/><g filter="url(#b)" transform="translate(2.6 2.6) scale(5.27344)" fill-opacity=".5"><ellipse fill="#6ee9ff" rx="1" ry="1" transform="rotate(141.5 64.6 31.8) scale(67.76441 37.77321)"/><ellipse fill="#45aaf8" rx="1" ry="1" transform="rotate(-45 134.8 -244.1) scale(39.13808 29.72671)"/><ellipse fill="#0b0d00" rx="1" ry="1" transform="rotate(99.8 19.8 129.4) scale(62.47205 254.99998)"/><ellipse fill="#6ec7ff" rx="1" ry="1" transform="matrix(-16.2627 5.22138 -12.90473 -40.19354 24.5 11.2)"/><ellipse fill="#c5dcff" rx="1" ry="1" transform="rotate(97.1 34.8 73.5) scale(14.65656 37.16474)"/><ellipse fill="#0077e0" cx="138" rx="73" ry="26"/><ellipse fill="#30412e" rx="1" ry="1" transform="rotate(-127.9 100.2 -23.7) scale(20.2241 25.85279)"/><ellipse fill="#070000" rx="1" ry="1" transform="rotate(-141.4 122.6 1.9) scale(16.21964 49.73621)"/></g></svg>