<svg xmlns="http://www.w3.org/2000/svg" viewBox="0 0 1350 900"><filter id="b"><feGaussianBlur stdDeviation="12" /></filter><path fill="#4d453f" d="M0 0h1350v896H0z"/><g filter="url(#b)" transform="translate(2.6 2.6) scale(5.27344)" fill-opacity=".5"><ellipse fill="#fff" rx="1" ry="1" transform="matrix(100.2066 -1.03044 .44824 43.58997 83.3 18.7)"/><ellipse rx="1" ry="1" transform="matrix(-5.3175 53.69575 -184.3331 -18.25457 165.3 113.9)"/><ellipse fill="#fff" cx="77" cy="13" rx="103" ry="16"/><ellipse fill="#080000" rx="1" ry="1" transform="matrix(15.8058 -84.70423 35.9186 6.7024 255 22.1)"/><path fill="#d1d8df" d="M215.5 50.2l-76-13 60.7-10.5 17-42.7z"/><ellipse rx="1" ry="1" transform="matrix(-28.2877 2.56927 -4.8908 -53.84773 170.9 120.5)"/><path fill="#807a79" d="M166.1 42.4L162.6 71l-44.7-5.5 3.5-28.7z"/><ellipse cx="96" rx="3" ry="30"/></g></svg>