<svg xmlns="http://www.w3.org/2000/svg" viewBox="0 0 1348 900"><filter id="c"><feGaussianBlur stdDeviation="55" /></filter><path fill="#333609" d="M0 0h1348v895H0z"/><g filter='url(#c)' fill-opacity='.5'><ellipse fill="#c7ff77" fill-opacity=".5" rx="1" ry="1" transform="rotate(-113.2 677.6 -187) scale(46.96305 318.61932)"/><ellipse fill-opacity=".5" rx="1" ry="1" transform="matrix(-628.3612 77.511 -25.0613 -203.1654 425.2 78.5)"/><ellipse fill="#bda83a" fill-opacity=".5" rx="1" ry="1" transform="matrix(-206.4156 161.11053 -27.17543 -34.81729 525.7 759.2)"/><path fill="#fcff54" fill-opacity=".5" d="M798.6 673.4L1181.3 385l15.8 21-382.7 288.4z"/><ellipse fill="#a80e00" fill-opacity=".5" rx="1" ry="1" transform="matrix(141.29935 -101.25268 61.9954 86.51534 682.4 405.5)"/><path fill="#dfb404" fill-opacity=".5" d="M1353.5 113L1027 231.7l-16.3-44.6 326.6-118.8z"/><ellipse fill="#ffffd4" fill-opacity=".5" rx="1" ry="1" transform="matrix(-88.04316 80.1743 -17.8324 -19.5826 1101.7 350)"/><ellipse fill="#001702" fill-opacity=".5" rx="1" ry="1" transform="matrix(-328.76013 -116.82002 86.77371 -244.20245 1285.1 758)"/></g></svg>