<svg xmlns="http://www.w3.org/2000/svg" viewBox="0 0 1350 900"><filter id="b"><feGaussianBlur stdDeviation="12" /></filter><path fill="#8d8179" d="M0 0h1350v896H0z"/><g filter="url(#b)" transform="translate(2.6 2.6) scale(5.27344)" fill-opacity=".5"><ellipse rx="1" ry="1" transform="matrix(-129.11903 20.45045 -4.58144 -28.92604 173.3 101)"/><ellipse fill="#fff" rx="1" ry="1" transform="matrix(-62.41063 -9.37758 32.53171 -216.50836 0 56.2)"/><ellipse rx="1" ry="1" transform="matrix(-2.54287 -27.17316 44.28377 -4.14408 204.3 23.9)"/><ellipse fill="#ffe9d3" rx="1" ry="1" transform="rotate(86.2 -18.8 146.9) scale(16.64236 141.09761)"/><ellipse fill="#e7effc" rx="1" ry="1" transform="matrix(-107.43672 22.12052 -2.98346 -14.4903 84.6 74)"/><ellipse fill="#170000" rx="1" ry="1" transform="matrix(-3.3112 -21.22797 143.7369 -22.42051 188.8 103.4)"/><ellipse fill="#000205" rx="1" ry="1" transform="rotate(-58.3 132 -2.2) scale(14.32776 20.33449)"/><ellipse fill="#f5ffff" cx="97" cy="83" rx="16" ry="10"/></g></svg>