<svg xmlns="http://www.w3.org/2000/svg" viewBox="0 0 900 600"><filter id="b"><feGaussianBlur stdDeviation="12" /></filter><path fill="#6e8384" d="M0 0h900v597H0z"/><g filter="url(#b)" transform="translate(1.8 1.8) scale(3.51563)" fill-opacity=".5"><ellipse fill="#160000" rx="1" ry="1" transform="matrix(2.6913 39.57628 -209.05638 14.21642 166.2 153.9)"/><ellipse fill="#a6f0ff" rx="1" ry="1" transform="matrix(247.70497 60.5578 -10.54126 43.11785 177.4 28)"/><ellipse fill="#e5ffff" cx="12" cy="59" rx="26" ry="50"/><ellipse fill="#bce8ff" rx="1" ry="1" transform="matrix(44.39028 17.84478 -10.10775 25.14382 224.4 67.4)"/><ellipse fill="#342f00" rx="1" ry="1" transform="matrix(-5.83194 29.72566 -168.54958 -33.06811 70.4 150.2)"/><ellipse fill="#748486" cx="119" cy="122" rx="91" ry="16"/><path fill="#5a3f28" d="M106.4-16l6.8 72.4L212.6 88 79.4 57.2z"/><ellipse rx="1" ry="1" transform="rotate(105.6 70.8 141) scale(15.02812 26.08602)"/></g></svg>