<svg xmlns="http://www.w3.org/2000/svg" viewBox="0 0 900 600"><filter id="b"><feGaussianBlur stdDeviation="12" /></filter><path fill="#9f4e0b" d="M0 0h900v597H0z"/><g filter="url(#b)" transform="translate(1.8 1.8) scale(3.51563)" fill-opacity=".5"><ellipse rx="1" ry="1" transform="matrix(7.92329 -37.584 249.51564 52.60174 99.6 153.5)"/><ellipse fill="#ffc229" cx="164" cy="21" rx="152" ry="40"/><ellipse fill="#ff7910" cx="235" cy="48" rx="27" ry="89"/><path d="M210 168l2-52-190 53z"/><ellipse fill="#ff790f" rx="1" ry="1" transform="matrix(20.61416 6.46009 -10.86002 34.65436 110.4 104)"/><path d="M-5.5 23.2l28-.4 1 54-28 .4z"/><ellipse fill="#200000" rx="1" ry="1" transform="matrix(31.87413 5.04837 -2.71707 17.15491 179.1 68.1)"/><ellipse fill="#f60" rx="1" ry="1" transform="matrix(-15.60268 -96.37152 22.1589 -3.58756 49.7 49)"/></g></svg>