<svg xmlns="http://www.w3.org/2000/svg" viewBox="0 0 900 1350"><filter id="b"><feGaussianBlur stdDeviation="12" /></filter><path fill="#5f5f53" d="M0 0h896v1350H0z"/><g filter="url(#b)" transform="translate(2.6 2.6) scale(5.27344)" fill-opacity=".5"><ellipse fill="#daffff" rx="1" ry="1" transform="rotate(-56.3 94.2 -55) scale(50.70406 67.35048)"/><ellipse rx="1" ry="1" transform="matrix(-131.39804 -19.40973 5.3756 -36.39124 139.8 149)"/><ellipse cy="35" rx="29" ry="74"/><ellipse cx="135" cy="51" rx="26" ry="12"/><ellipse fill="#6f3e0f" rx="1" ry="1" transform="matrix(-14.87552 68.98502 -165.20283 -35.62337 68.7 236)"/><ellipse fill="#ddf1fe" rx="1" ry="1" transform="matrix(40.4719 .51084 -.37677 29.84963 85.9 80)"/><path d="M118.6 111.9l76 30.7-23.2 57.5-76-30.7z"/><ellipse fill="#140d08" rx="1" ry="1" transform="matrix(16.65735 -.50671 1.73945 57.18123 101.4 242.1)"/></g></svg>