<svg xmlns="http://www.w3.org/2000/svg" viewBox="0 0 600 900"><filter id="b"><feGaussianBlur stdDeviation="12" /></filter><path fill="#784c28" d="M0 0h597v900H0z"/><g filter="url(#b)" transform="translate(1.8 1.8) scale(3.51563)" fill-opacity=".5"><ellipse fill="#ffffda" rx="1" ry="1" transform="matrix(1.13854 -130.46395 33.35645 .2911 24.2 112)"/><ellipse fill="#210000" rx="1" ry="1" transform="rotate(174.5 58.9 58) scale(61.57948 168.99999)"/><ellipse fill="#fff" cx="34" cy="131" rx="15" ry="108"/><ellipse fill="#de6500" rx="1" ry="1" transform="rotate(3.4 -2286 1675.8) scale(18.98372 86.0018)"/><ellipse fill="#100" rx="1" ry="1" transform="rotate(-115.7 134.6 74) scale(34.3507 110.39042)"/><ellipse fill="#da5200" rx="1" ry="1" transform="matrix(-28.15059 -10.91024 3.96448 -10.22914 31.1 14.9)"/><path d="M162.2 237.2l-30 .5-4.4-255 30-.4z"/><ellipse fill="#de7701" rx="1" ry="1" transform="rotate(-87.6 92.9 36.8) scale(111.04606 9.86341)"/></g></svg>