<svg xmlns="http://www.w3.org/2000/svg" viewBox="0 0 900 600"><filter id="b"><feGaussianBlur stdDeviation="12" /></filter><path fill="#8b613a" d="M0 0h900v597H0z"/><g filter="url(#b)" transform="translate(1.8 1.8) scale(3.51563)" fill-opacity=".5"><ellipse fill="#fff" rx="1" ry="1" transform="matrix(3.68079 14.87338 -118.2711 29.26914 30 57.4)"/><ellipse fill="#250700" rx="1" ry="1" transform="rotate(-176 42 74) scale(133.04084 58.95744)"/><ellipse fill="#fff" cx="255" cy="30" rx="128" ry="20"/><ellipse fill="#ffe57f" rx="1" ry="1" transform="rotate(7 -599.1 983.2) scale(93.45784 12.96166)"/><ellipse fill="#590000" cx="110" cy="55" rx="50" ry="13"/><ellipse fill="#f7ffff" rx="1" ry="1" transform="matrix(2.72957 -21.0165 34.36661 4.46344 26 62.4)"/><ellipse fill="#220800" rx="1" ry="1" transform="matrix(20.47587 19.22812 -12.36983 13.17253 231.7 118.5)"/><ellipse rx="1" ry="1" transform="matrix(61.64296 -1.15026 .42243 22.63812 77.7 169)"/></g></svg>