<svg xmlns="http://www.w3.org/2000/svg" viewBox="0 0 900 1350"><filter id="b"><feGaussianBlur stdDeviation="12" /></filter><path fill="#343629" d="M0 0h896v1350H0z"/><g filter="url(#b)" transform="translate(2.6 2.6) scale(5.27344)" fill-opacity=".5"><ellipse fill="#e5fdf4" rx="1" ry="1" transform="matrix(-22.81553 7.58972 -25.81639 -77.60692 43.7 75)"/><path d="M10 69.5L-14.5 43 14 16.5 38.5 43z"/><ellipse fill="#070200" cx="111" cy="199" rx="79" ry="79"/><path fill="#dff" d="M120.6 50.2L152.4 67l-9 16.7L111.6 67z"/><ellipse fill="#fff" rx="1" ry="1" transform="rotate(-77 87.5 21.9) scale(15.67049 27.96791)"/><path fill="#fff539" d="M108 217.8l.7 9-106.8 7.4-.6-9z"/><ellipse rx="1" ry="1" transform="rotate(-125.7 58 -16.5) scale(36.98814 56.59471)"/><ellipse fill="#c4ded4" cx="40" cy="72" rx="37" ry="12"/></g></svg>