<svg xmlns="http://www.w3.org/2000/svg" viewBox="0 0 900 600"><filter id="b"><feGaussianBlur stdDeviation="12" /></filter><path fill="#777a67" d="M0 0h900v597H0z"/><g filter="url(#b)" transform="translate(1.8 1.8) scale(3.51563)" fill-opacity=".5"><ellipse fill="#0d0000" rx="1" ry="1" transform="matrix(-46.96664 54.47651 -43.69223 -37.66903 43.7 106.4)"/><ellipse fill="#49d2ff" rx="1" ry="1" transform="rotate(-88.4 69.9 -55.4) scale(30.64757 184.89752)"/><ellipse fill="#ffda84" rx="1" ry="1" transform="matrix(-4.5244 35.318 -65.61661 -8.4058 218.1 119.6)"/><ellipse fill="#ffdda3" cx="115" cy="166" rx="54" ry="23"/><ellipse fill="#7b4f0e" rx="1" ry="1" transform="matrix(-117.08327 18.33475 -3.2988 -21.0657 139.6 80)"/><path fill="#ffe495" d="M59 97h97v13H59z"/><ellipse fill="#181a00" rx="1" ry="1" transform="matrix(-30.68542 -64.91551 35.40821 -16.73739 24.2 111.7)"/><path fill="#0f0f00" d="M98 67h60v31H98z"/></g></svg>