<svg xmlns="http://www.w3.org/2000/svg" viewBox="0 0 600 900"><filter id="b"><feGaussianBlur stdDeviation="12" /></filter><path fill="#8f5117" d="M0 0h597v900H0z"/><g filter="url(#b)" transform="translate(1.8 1.8) scale(3.51563)" fill-opacity=".5"><ellipse fill="#ffe275" rx="1" ry="1" transform="matrix(27.01992 166.82603 -23.88891 3.86916 164 114.3)"/><ellipse fill="#090000" rx="1" ry="1" transform="matrix(-116.74095 -37.84592 6.73905 -20.78753 79.6 226.3)"/><ellipse fill="#180000" rx="1" ry="1" transform="rotate(103.8 4.3 114.7) scale(47.56924 27.5173)"/><ellipse fill="#ffaf45" rx="1" ry="1" transform="matrix(6.67774 -23.9688 66.4934 18.52515 133 43.6)"/><path fill="#f68819" d="M78.8 53L81 181l-35.7-7.3 9-135z"/><ellipse fill="#4b2000" cx="5" cy="73" rx="21" ry="167"/><ellipse fill="#1a0300" rx="1" ry="1" transform="matrix(-7.27386 -65.53463 11.40459 -1.26583 123.8 170.3)"/><path fill="#fbac60" d="M185 245l-43-37 24-145z"/></g></svg>