<svg xmlns="http://www.w3.org/2000/svg" viewBox="0 0 900 600"><filter id="b"><feGaussianBlur stdDeviation="12" /></filter><path fill="#8c6942" d="M0 0h900v597H0z"/><g filter="url(#b)" transform="translate(1.8 1.8) scale(3.51563)" fill-opacity=".5"><ellipse fill="#fff" rx="1" ry="1" transform="rotate(1 78 9252) scale(85.58343 32.02746)"/><ellipse fill="#fff" rx="1" ry="1" transform="rotate(-49.9 288.2 -144.5) scale(55.43624 31.92113)"/><ellipse fill="#360f00" rx="1" ry="1" transform="rotate(94.9 -34.1 57) scale(75.17603 99.85045)"/><path fill="#fff" d="M228 127.8l24.2 27.9-58.1 50.5-24.3-27.9z"/><ellipse fill="#c59f7e" rx="1" ry="1" transform="matrix(116.27248 -26.41646 5.89102 25.9294 243.3 25.2)"/><ellipse fill="#fff" rx="1" ry="1" transform="rotate(-75.6 89.2 -99.3) scale(11.70874 44.31874)"/><ellipse fill="#351f00" cx="10" cy="107" rx="77" ry="45"/><ellipse fill="#714c12" cx="122" cy="115" rx="65" ry="42"/></g></svg>