<svg xmlns="http://www.w3.org/2000/svg" viewBox="0 0 900 600"><filter id="c"><feGaussianBlur stdDeviation="55" /></filter><path fill="#959e9e" d="M0 0h900v597H0z"/><g filter='url(#c)' fill-opacity='.5'><ellipse fill="#fff" fill-opacity=".5" rx="1" ry="1" transform="rotate(-127.1 77.8 12.8) scale(186.21793 542.17454)"/><ellipse fill="#312f2d" fill-opacity=".5" rx="1" ry="1" transform="matrix(-51.8519 -73.96566 429.46656 -301.06748 709.2 146.6)"/><ellipse fill="#dce7e9" fill-opacity=".5" rx="1" ry="1" transform="matrix(-88.14138 -117.55198 109.1946 -81.87495 105.9 477.4)"/><ellipse fill="#020000" fill-opacity=".5" rx="1" ry="1" transform="matrix(-31.14329 5.8657 -36.1359 -191.85932 808 117.3)"/><ellipse fill="#495c5b" fill-opacity=".5" rx="1" ry="1" transform="matrix(-409.54057 161.11974 -17.41762 -44.2728 898.2 424)"/><ellipse fill-opacity=".5" rx="1" ry="1" transform="matrix(-13.09388 -129.56999 20.7919 -2.10116 716.5 187)"/><path fill="#c6e0f0" fill-opacity=".5" d="M840.7 130.7l113.8 506.7L865-11.5l-49.5-6.1z"/><path fill="#d5f3ff" fill-opacity=".5" d="M751.6 235.2L715 27.5l34.6-6.1 36.6 207.7z"/></g></svg>