<svg xmlns="http://www.w3.org/2000/svg" viewBox="0 0 900 600"><filter id="b"><feGaussianBlur stdDeviation="12" /></filter><path fill="#436a91" d="M0 0h900v597H0z"/><g filter="url(#b)" transform="translate(1.8 1.8) scale(3.51563)" fill-opacity=".5"><ellipse fill="#d7a061" rx="1" ry="1" transform="rotate(-69 191 -73.5) scale(50.62586 127.04776)"/><ellipse fill="#0053e6" rx="1" ry="1" transform="rotate(-90.6 77.3 -44.2) scale(38.76527 255.00002)"/><ellipse fill="#200900" rx="1" ry="1" transform="matrix(1.88312 25.64317 -127.18002 9.33952 52.4 153.7)"/><ellipse fill="#efad5d" cx="127" cy="75" rx="29" ry="28"/><ellipse fill="#007ee8" rx="1" ry="1" transform="matrix(-47.82983 20.97826 -17.26763 -39.3697 219.3 56.6)"/><ellipse fill="#160100" rx="1" ry="1" transform="matrix(-16.19766 -4.61736 11.96904 -41.98726 18.4 139.8)"/><ellipse fill="#0080e8" rx="1" ry="1" transform="matrix(-57.1783 9.6662 -4.99394 -29.5406 34.6 65.6)"/><path fill="#dfbb96" d="M44 103.6l-8.3 26.2 15.6 1 180.8-12z"/></g></svg>