<svg xmlns="http://www.w3.org/2000/svg" viewBox="0 0 900 600"><filter id="b"><feGaussianBlur stdDeviation="12" /></filter><path fill="#877a4e" d="M0 0h900v597H0z"/><g filter="url(#b)" transform="translate(1.8 1.8) scale(3.51563)" fill-opacity=".5"><ellipse fill="#fff" rx="1" ry="1" transform="matrix(-98.17403 -12.40226 8.35145 -66.1085 164 0)"/><ellipse fill="#291c00" cx="204" cy="153" rx="105" ry="67"/><ellipse fill="#402100" rx="1" ry="1" transform="matrix(75.91929 44.89816 -28.67798 48.49223 18.6 54)"/><ellipse fill="#fff" rx="1" ry="1" transform="matrix(2.31186 -31.87341 120.17749 8.71679 172.5 0)"/><ellipse fill="#c27d00" rx="1" ry="1" transform="matrix(92.62657 -57.65496 26.05407 41.85762 44.2 145.7)"/><ellipse fill="#6b7e5f" rx="1" ry="1" transform="matrix(-21.77248 20.95212 -39.71957 -41.27474 164.6 71)"/><ellipse fill="#040000" rx="1" ry="1" transform="matrix(-24.2976 12.76566 -28.68293 -54.59384 0 40.8)"/><path fill="#fbffff" d="M105 0h16v77h-16z"/></g></svg>