<svg xmlns="http://www.w3.org/2000/svg" viewBox="0 0 900 600"><filter id="b"><feGaussianBlur stdDeviation="12" /></filter><path fill="#ac967c" d="M0 0h900v597H0z"/><g filter="url(#b)" transform="translate(1.8 1.8) scale(3.51563)" fill-opacity=".5"><ellipse rx="1" ry="1" transform="matrix(50.61477 38.83808 -28.41988 37.0375 63.9 77)"/><ellipse fill="#fff" rx="1" ry="1" transform="matrix(-48.30076 88.58986 -24.09085 -13.13476 231.2 104.5)"/><path fill="#fff" d="M-9.7 96.5l63 1-1.6 90-63-1z"/><ellipse fill="#fffff6" rx="1" ry="1" transform="matrix(-132.12254 -6.23074 1.203 -25.50954 133.2 0)"/><ellipse fill="#ffffe8" cx="124" cy="138" rx="36" ry="28"/><ellipse cx="56" cy="66" rx="48" ry="29"/><path d="M230.5 134.1l40.5 7.1V173l-30.6 1z"/><path fill="#471500" d="M59 163.9l88.7-111.2-28-34.3L57 55.3z"/></g></svg>