<svg xmlns="http://www.w3.org/2000/svg" viewBox="0 0 900 600"><filter id="b"><feGaussianBlur stdDeviation="12" /></filter><path fill="#b29474" d="M0 0h900v597H0z"/><g filter="url(#b)" transform="translate(1.8 1.8) scale(3.51563)" fill-opacity=".5"><ellipse fill="#4b1200" rx="1" ry="1" transform="rotate(-156.9 38.2 60.9) scale(117.36421 62.04604)"/><ellipse fill="#e4ffff" cx="64" rx="69" ry="69"/><ellipse fill="#fdd9a8" rx="1" ry="1" transform="rotate(-179.4 102.9 38.2) scale(48.61498 131.73104)"/><ellipse fill="#8c4511" cx="127" cy="51" rx="30" ry="21"/><ellipse fill="#380400" rx="1" ry="1" transform="matrix(33.71847 20.63998 -10.75108 17.56348 4.1 64.1)"/><ellipse rx="1" ry="1" transform="matrix(-13.87965 -2.82434 5.13074 -25.21396 135.6 131)"/><ellipse fill="#dc9e69" rx="1" ry="1" transform="matrix(5.86748 45.48385 -11.79443 1.5215 108.5 104.9)"/><ellipse fill="#ffa140" rx="1" ry="1" transform="rotate(-173.4 18 77.4) scale(8.18365 65.89441)"/></g></svg>