<svg xmlns="http://www.w3.org/2000/svg" viewBox="0 0 900 600"><filter id="b"><feGaussianBlur stdDeviation="12" /></filter><path fill="#63604b" d="M0 0h900v597H0z"/><g filter="url(#b)" transform="translate(1.8 1.8) scale(3.51563)" fill-opacity=".5"><ellipse fill="#fff" rx="1" ry="1" transform="matrix(-20.96483 -65.2978 44.50813 -14.29 50.5 104.9)"/><ellipse fill="#130000" rx="1" ry="1" transform="matrix(-19.40201 -85.39828 140.02765 -31.8135 237.7 82.6)"/><ellipse fill="#ecf6ea" rx="1" ry="1" transform="matrix(18.43583 -.61743 7.29176 217.72387 74 42.7)"/><ellipse fill="#fffff8" rx="1" ry="1" transform="rotate(-8.4 513.2 -282.2) scale(80.29394 13.18418)"/><ellipse fill="#d58f06" cx="184" cy="162" rx="49" ry="16"/><ellipse fill="#225f4a" rx="1" ry="1" transform="rotate(-5.7 367.3 -181.8) scale(53.62854 24.39549)"/><ellipse cx="248" cy="80" rx="54" ry="54"/><ellipse fill="#4a7143" rx="1" ry="1" transform="rotate(44.3 -174.3 111) scale(38.91478 25.03162)"/></g></svg>