<svg xmlns="http://www.w3.org/2000/svg" viewBox="0 0 600 900"><filter id="b"><feGaussianBlur stdDeviation="12" /></filter><path fill="#9c754b" d="M0 0h597v900H0z"/><g filter="url(#b)" transform="translate(1.8 1.8) scale(3.51563)" fill-opacity=".5"><ellipse fill="#ffe589" rx="1" ry="1" transform="matrix(-22.57647 87.93956 -17.57368 -4.51164 36.5 206.7)"/><ellipse fill="#fbe7cf" rx="1" ry="1" transform="matrix(16.246 -5.66798 30.70787 88.01727 140.8 0)"/><path fill="#421100" d="M65 78l41 61-29 132z"/><path d="M-20.4 159.1l10-95.5L20.4 67l-10 95.5z"/><path fill="#3c2414" d="M133.3 74.1L29.1-16.4l27.6-31.7 104.2 90.5z"/><ellipse fill="#eedbc3" cx="162" cy="122" rx="12" ry="89"/><path fill="#fff3b6" d="M102 166h25v54h-25z"/><ellipse fill="#883d00" rx="1" ry="1" transform="rotate(-179.4 36.4 113.2) scale(29.00769 33.88916)"/></g></svg>