<svg xmlns="http://www.w3.org/2000/svg" viewBox="0 0 600 900"><filter id="b"><feGaussianBlur stdDeviation="12" /></filter><path fill="#65401f" d="M0 0h597v900H0z"/><g filter="url(#b)" transform="translate(1.8 1.8) scale(3.51563)" fill-opacity=".5"><path fill="#ffbf5b" d="M185 11L10 95l91 25z"/><ellipse cx="83" cy="222" rx="118" ry="65"/><ellipse fill="#eeab4c" rx="1" ry="1" transform="rotate(166 63.4 81.4) scale(42.39187 17.77037)"/><ellipse fill="#ebb973" rx="1" ry="1" transform="matrix(37.91161 9.02067 -8.83026 37.11137 169 33.4)"/><path fill="#fff" d="M8.8 125.3l18-.6.4 10-18 .6z"/><path fill="#fffbf0" d="M60 111.4L74 137 39.6-16 38 6.3z"/><ellipse fill="#bd6219" cx="101" cy="206" rx="10" ry="37"/><ellipse fill="#872500" rx="1" ry="1" transform="rotate(13.3 -121.9 386.4) scale(32.69033 42.19499)"/></g></svg>