<svg xmlns="http://www.w3.org/2000/svg" viewBox="0 0 900 427"><filter id="b"><feGaussianBlur stdDeviation="12" /></filter><path fill="#506f81" d="M0 0h900v425H0z"/><g filter="url(#b)" transform="translate(1.8 1.8) scale(3.51563)" fill-opacity=".5"><ellipse fill="#c1feff" rx="1" ry="1" transform="matrix(193.4498 13.18808 -1.96233 28.7845 0 28.5)"/><ellipse fill="#2c0d00" rx="1" ry="1" transform="matrix(179.36366 5.19692 -.94835 32.7307 161.6 92)"/><ellipse fill="#0082f0" rx="1" ry="1" transform="matrix(4.00412 -27.24693 169.49907 24.90904 174.5 14.8)"/><ellipse fill="#fffbff" rx="1" ry="1" transform="matrix(-86.69877 -11.21695 2.39402 -18.50405 0 39.2)"/><ellipse fill="#a1bac4" cx="185" cy="48" rx="135" ry="13"/><ellipse fill="#252005" rx="1" ry="1" transform="matrix(-3.87114 32.95346 -117.71988 -13.8289 212.2 119)"/><ellipse fill="#0067c3" rx="1" ry="1" transform="rotate(-86.8 102.5 -97) scale(18.75654 99.06315)"/><path fill="#a8fbff" d="M20.6 89.9l12.7 2.4-1.9 9.8-12.7-2.4z"/></g></svg>