<svg xmlns="http://www.w3.org/2000/svg" viewBox="0 0 900 600"><filter id="c"><feGaussianBlur stdDeviation="55" /></filter><path fill="#363323" d="M0 0h900v597H0z"/><g filter='url(#c)' fill-opacity='.5'><ellipse fill="#fffabd" fill-opacity=".5" rx="1" ry="1" transform="rotate(-112.8 393.5 63.5) scale(259.74994 68.20065)"/><path fill-opacity=".5" d="M954.5-1.8L827.9 356.8 68.6 1.8z"/><path fill="#ddd2a1" fill-opacity=".5" d="M692 425.3l85.5-27-351.5-205L539 311z"/><path fill="#fff9da" fill-opacity=".5" d="M300.6 378L202 349.7l81-73.8z"/><ellipse fill-opacity=".5" rx="1" ry="1" transform="matrix(145.65266 -96.27556 109.40652 165.51812 53.6 534.1)"/><ellipse fill="#9ca696" fill-opacity=".5" rx="1" ry="1" transform="matrix(53.57079 -65.21689 81.47546 66.92599 1.8 242)"/><path fill="#fff" fill-opacity=".5" d="M427.1 409.6l-31.6-253.2 116 239.1z"/><path fill="#aeae97" fill-opacity=".5" d="M123.5 173.2l31.6-90 12.6 75-20 276.6z"/></g></svg>