<svg xmlns="http://www.w3.org/2000/svg" viewBox="0 0 900 600"><filter id="b"><feGaussianBlur stdDeviation="12" /></filter><path fill="#b49e78" d="M0 0h900v597H0z"/><g filter="url(#b)" transform="translate(1.8 1.8) scale(3.51563)" fill-opacity=".5"><ellipse fill="#231c18" cx="39" cy="157" rx="136" ry="28"/><ellipse fill="#ffe" rx="1" ry="1" transform="matrix(-30.84055 24.53168 -40.27135 -50.62803 122.3 14)"/><path d="M174.5 42.7l52.9 3.7-2 27-52.8-3.8z"/><ellipse fill="#fcfff8" rx="1" ry="1" transform="matrix(-23.59987 6.81175 -15.683 -54.335 181.7 116.7)"/><ellipse rx="1" ry="1" transform="matrix(7.47707 39.63814 -15.4231 2.9093 225.1 158.1)"/><path fill="#be5f00" d="M55 135.5H-45v-79H55z"/><ellipse fill="#ffffef" cx="80" cy="93" rx="23" ry="45"/><ellipse fill="#720000" rx="1" ry="1" transform="matrix(-28.56885 .35503 -.22277 -17.9261 124 85)"/></g></svg>