<svg xmlns="http://www.w3.org/2000/svg" viewBox="0 0 900 600"><filter id="b"><feGaussianBlur stdDeviation="12" /></filter><path fill="#744a23" d="M0 0h900v597H0z"/><g filter="url(#b)" transform="translate(1.8 1.8) scale(3.51563)" fill-opacity=".5"><ellipse fill="#ffc755" cx="110" cy="25" rx="175" ry="49"/><ellipse fill="#000004" rx="1" ry="1" transform="matrix(-254.17861 20.45073 -4.82884 -60.01682 147 138.1)"/><ellipse fill="#ff7d00" rx="1" ry="1" transform="matrix(22.15412 31.7572 -23.53654 16.41932 128.8 74.7)"/><ellipse cx="240" cy="127" rx="64" ry="64"/><path fill="#ffceac" d="M66.9 131.3L-16 148.6 11.9 131 94 119z"/><ellipse fill="#ff7b00" rx="1" ry="1" transform="matrix(-26.8311 19.85397 -13.36372 -18.06004 66.7 61)"/><ellipse fill="#ae9780" rx="1" ry="1" transform="matrix(-168.60143 -3.23731 .55208 -28.75247 180 6.7)"/><ellipse fill="#070000" rx="1" ry="1" transform="matrix(23.83836 -36.71758 13.77709 8.94458 11.5 102.5)"/></g></svg>