<svg xmlns="http://www.w3.org/2000/svg" viewBox="0 0 900 600"><filter id="b"><feGaussianBlur stdDeviation="12" /></filter><path fill="#6e7e86" d="M0 0h900v597H0z"/><g filter="url(#b)" transform="translate(1.8 1.8) scale(3.51563)" fill-opacity=".5"><ellipse fill="#9e611f" rx="1" ry="1" transform="matrix(-3.4607 -86.16392 109.16987 -4.38471 90.7 154.1)"/><path fill="#fadaa4" d="M108 123L71 50l114 6z"/><ellipse fill="#267ed1" cx="155" cy="25" rx="255" ry="33"/><ellipse fill="#facc8b" rx="1" ry="1" transform="matrix(-16.4596 1.87398 -5.97958 -52.52002 161.2 72.9)"/><ellipse fill="#4798dd" rx="1" ry="1" transform="matrix(-32.40238 23.79163 -32.2569 -43.93143 222.2 87)"/><ellipse fill="#ffc575" rx="1" ry="1" transform="rotate(-144.8 133.5 42.2) scale(40.80163 16.97386)"/><path fill="#4f3d29" d="M164 164L139 20l-19 137z"/><path fill="#248be0" d="M6 32l-22 79 81-49z"/></g></svg>