<svg xmlns="http://www.w3.org/2000/svg" viewBox="0 0 900 600"><filter id="b"><feGaussianBlur stdDeviation="12" /></filter><path fill="#7d8d99" d="M0 0h900v597H0z"/><g filter="url(#b)" transform="translate(1.8 1.8) scale(3.51563)" fill-opacity=".5"><ellipse fill="#b7dfff" rx="1" ry="1" transform="matrix(30.15436 20.95868 -46.12326 66.35999 25.8 102.1)"/><ellipse fill="#483a2e" rx="1" ry="1" transform="matrix(-32.97488 76.52976 -37.27594 -16.06133 228 127.2)"/><ellipse fill="#85bff0" cx="179" cy="21" rx="255" ry="32"/><path fill="#5c584b" d="M67 44h97v126H67z"/><ellipse fill="#fff5bc" rx="1" ry="1" transform="matrix(12.54805 -9.49918 14.7152 19.43822 179.9 112)"/><ellipse fill="#beccd9" rx="1" ry="1" transform="rotate(56.8 75.8 209.9) scale(30.90753 47.39169)"/><path fill="#021b16" d="M92.5 80L80 53.1l52.9 14-15.7 26z"/><path fill="#6da4d4" d="M0 0h86v95H0z"/></g></svg>