<svg xmlns="http://www.w3.org/2000/svg" viewBox="0 0 900 600"><filter id="b"><feGaussianBlur stdDeviation="12" /></filter><path fill="#744312" d="M0 0h900v597H0z"/><g filter="url(#b)" transform="translate(1.8 1.8) scale(3.51563)" fill-opacity=".5"><ellipse fill="#ffb234" rx="1" ry="1" transform="matrix(-109.999 -9.35911 2.3371 -27.46836 172.6 88.2)"/><ellipse rx="1" ry="1" transform="matrix(-1.0687 -23.92451 237.65195 -10.6159 171.3 6)"/><ellipse cx="240" cy="154" rx="35" ry="27"/><ellipse fill="#341d0a" rx="1" ry="1" transform="matrix(7.34467 69.30082 -50.35912 5.33718 48.3 169)"/><ellipse fill="#f5d89a" rx="1" ry="1" transform="matrix(-22.69919 -2.82733 1.84055 -14.77684 103.4 80.4)"/><ellipse fill="#3a0100" rx="1" ry="1" transform="matrix(-6.69192 -14.7359 20.11078 -9.1328 150.2 61.4)"/><ellipse fill="#ffde73" cx="224" cy="83" rx="15" ry="22"/><ellipse fill="#e37700" rx="1" ry="1" transform="rotate(-88.3 126.4 -13.8) scale(46.55062 13.60897)"/></g></svg>