<svg xmlns="http://www.w3.org/2000/svg" viewBox="0 0 900 600"><filter id="b"><feGaussianBlur stdDeviation="12" /></filter><path fill="#87775e" d="M0 0h900v597H0z"/><g filter="url(#b)" transform="translate(1.8 1.8) scale(3.51563)" fill-opacity=".5"><ellipse fill="#fff" rx="1" ry="1" transform="matrix(-108.89872 4.61846 -1.56762 -36.96305 157.1 14.7)"/><path fill="#000006" d="M128 176L6-16l-22 186z"/><ellipse cx="239" cy="130" rx="32" ry="85"/><ellipse fill="#ffb43b" cx="161" cy="132" rx="51" ry="51"/><path fill="#fff" d="M55-16l216 51L53 60z"/><ellipse fill="#3f1900" rx="1" ry="1" transform="matrix(.17966 18.3353 -92.76779 .909 179 67.3)"/><ellipse fill="#141412" rx="1" ry="1" transform="matrix(16.09886 41.1982 -25.49242 9.96157 24.3 14.8)"/><path fill="#92aeb8" d="M13.5 113.4l48-6.3-39.7-20.9-37.8-38z"/></g></svg>