<svg xmlns="http://www.w3.org/2000/svg" viewBox="0 0 900 600"><filter id="b"><feGaussianBlur stdDeviation="12" /></filter><path fill="#684320" d="M0 0h900v597H0z"/><g filter="url(#b)" transform="translate(1.8 1.8) scale(3.51563)" fill-opacity=".5"><ellipse fill="#ffec9d" rx="1" ry="1" transform="matrix(-36.2032 13.31678 -31.0846 -84.50708 154.7 115.8)"/><ellipse rx="1" ry="1" transform="matrix(-79.22839 -31.04927 30.97007 -79.0263 19.6 38.3)"/><ellipse rx="1" ry="1" transform="rotate(-14.4 292 -885) scale(43.90308 177.21127)"/><ellipse fill="#ef8420" rx="1" ry="1" transform="rotate(-100.4 101.9 37.5) scale(32.72359 70.18858)"/><path fill="#f5d6c6" d="M195 185L147 19l-11 116z"/><ellipse fill="#cd6400" rx="1" ry="1" transform="rotate(-95 90.4 -20.4) scale(79.35738 15.55323)"/><path fill="#c48954" d="M131 17l71 95-34-100z"/><ellipse fill="#070000" cx="233" cy="150" rx="31" ry="83"/></g></svg>