<svg xmlns="http://www.w3.org/2000/svg" viewBox="0 0 900 600"><filter id="b"><feGaussianBlur stdDeviation="12" /></filter><path fill="#7c4e2e" d="M0 0h900v597H0z"/><g filter="url(#b)" transform="translate(1.8 1.8) scale(3.51563)" fill-opacity=".5"><ellipse fill="#85c8ff" rx="1" ry="1" transform="matrix(21.2183 4.43099 -12.8891 61.721 241.6 124.1)"/><ellipse cx="99" cy="136" rx="33" ry="92"/><ellipse fill="#ff9605" cx="99" cy="31" rx="134" ry="18"/><ellipse fill="#8aa2dd" rx="1" ry="1" transform="matrix(11.83869 2.30568 -10.27894 52.77808 16 143.2)"/><path fill="#120708" d="M180 185l-8-99L9 173z"/><ellipse fill="#f4853a" rx="1" ry="1" transform="rotate(7.2 -519.6 1585.2) scale(13.05378 62.62085)"/><ellipse fill="#6a1800" rx="1" ry="1" transform="matrix(36.66525 -14.45541 10.17445 25.80686 47.5 10.7)"/><ellipse fill="#ffc735" rx="1" ry="1" transform="matrix(40.0561 -.86704 .33947 15.68293 132.7 30)"/></g></svg>