<svg xmlns="http://www.w3.org/2000/svg" viewBox="0 0 600 900"><filter id="b"><feGaussianBlur stdDeviation="12" /></filter><path fill="#b38752" d="M0 0h597v900H0z"/><g filter="url(#b)" transform="translate(1.8 1.8) scale(3.51563)" fill-opacity=".5"><path d="M180 264l-196-65 5 72z"/><ellipse rx="1" ry="1" transform="matrix(-33.01295 11.8601 -11.51309 -32.04705 18.9 40.4)"/><ellipse fill="#fff" rx="1" ry="1" transform="matrix(28.12407 9.48624 -19.69224 58.38204 148 189.8)"/><ellipse fill="#fff" rx="1" ry="1" transform="rotate(92.3 -49.7 61) scale(42.43199 25.43444)"/><path fill="#fffff7" d="M181.2 42.8l.6 35-85 1.4-.6-35z"/><ellipse fill="#f39107" rx="1" ry="1" transform="rotate(-87.9 122.7 40) scale(59.86703 63.76135)"/><ellipse fill="#000005" rx="1" ry="1" transform="matrix(-34.19436 -14.65572 4.11843 -9.60903 95.9 24)"/><ellipse fill="#fff" cx="100" cy="217" rx="66" ry="8"/></g></svg>