<svg xmlns="http://www.w3.org/2000/svg" viewBox="0 0 900 600"><filter id="b"><feGaussianBlur stdDeviation="12" /></filter><path fill="#332918" d="M0 0h900v597H0z"/><g filter="url(#b)" transform="translate(1.8 1.8) scale(3.51563)" fill-opacity=".5"><ellipse fill="#fff" rx="1" ry="1" transform="matrix(15.2484 -26.51778 40.11217 23.06552 146.4 165.5)"/><ellipse fill="#ffffb8" rx="1" ry="1" transform="rotate(-4.7 668.6 -1588) scale(14.13005 234.92485)"/><ellipse rx="1" ry="1" transform="rotate(169.5 102.9 45.6) scale(54.13142 112.99933)"/><ellipse cx="20" cy="85" rx="88" ry="88"/><ellipse fill="#ffffb8" rx="1" ry="1" transform="matrix(-14.61665 20.83536 -46.78662 -32.82225 155.8 169)"/><path fill="#fff0b8" d="M138 51l-1-63-33 25z"/><path fill="#544f26" d="M114 88h49v43h-49z"/><ellipse fill="#c17916" rx="1" ry="1" transform="matrix(-7.5145 -38.30155 10.89025 -2.1366 111 169)"/></g></svg>