<svg xmlns="http://www.w3.org/2000/svg" viewBox="0 0 900 600"><filter id="b"><feGaussianBlur stdDeviation="12" /></filter><path fill="#3f4a44" d="M0 0h900v597H0z"/><g filter="url(#b)" transform="translate(1.8 1.8) scale(3.51563)" fill-opacity=".5"><ellipse fill="#3d93bf" rx="1" ry="1" transform="matrix(3.8267 -34.5219 210.43568 23.3265 141.8 23.3)"/><ellipse fill="#602600" cx="81" cy="93" rx="149" ry="44"/><ellipse fill="#bedbd2" rx="1" ry="1" transform="matrix(34.89734 19.06644 -5.81914 10.65077 104.3 49.8)"/><ellipse fill="#0a0000" cx="255" cy="91" rx="32" ry="41"/><path fill="#a8c4c0" d="M223.4 75.5l-47.9-14.6 11.1-36.4 47.9 14.6z"/><ellipse fill="#8d2900" rx="1" ry="1" transform="matrix(-30.529 -1.66534 .68153 -12.49385 149.5 45.8)"/><ellipse fill="#151100" rx="1" ry="1" transform="matrix(-22.79163 1.57755 -5.50991 -79.60412 50.2 110)"/><path fill="#00477c" d="M271-16l-64 51L36 2z"/></g></svg>