<svg xmlns="http://www.w3.org/2000/svg" viewBox="0 0 600 900"><filter id="b"><feGaussianBlur stdDeviation="12" /></filter><path fill="#371501" d="M0 0h597v900H0z"/><g filter="url(#b)" transform="translate(1.8 1.8) scale(3.51563)" fill-opacity=".5"><ellipse fill="#b15c06" rx="1" ry="1" transform="matrix(33.77897 -31.07532 47.52455 51.65934 74.7 183.7)"/><ellipse fill="#050001" cx="124" rx="130" ry="130"/><path fill="#de7f08" d="M59 98.7l15.1-5 35 107.6-15.2 5z"/><path fill="#ff9b00" d="M145 230.3l-20.1-9 6.1-13.6 20.1 9z"/><ellipse fill="#050000" rx="1" ry="1" transform="matrix(28.5133 -17.90277 35.2278 56.10645 129.6 146.9)"/><path fill="#ffc43a" d="M41 130h15v21H41z"/><path fill="#1b0e01" d="M59.4 144.3l25.8 88-32.6-19.1-2-61.6z"/><path fill="#ff881d" d="M52 164l-8 60-7-51z"/></g></svg>