<svg xmlns="http://www.w3.org/2000/svg" viewBox="0 0 600 900"><filter id="b"><feGaussianBlur stdDeviation="12" /></filter><path fill="#9a682b" d="M0 0h597v900H0z"/><g filter="url(#b)" transform="translate(1.8 1.8) scale(3.51563)" fill-opacity=".5"><ellipse fill="#fff" rx="1" ry="1" transform="matrix(12.00468 3.94576 -40.6737 123.7467 146.8 92.9)"/><ellipse rx="1" ry="1" transform="matrix(32.18818 .45016 -1.63915 117.20452 86.2 53)"/><path fill="#ffc87a" d="M63 167h73v51H63z"/><ellipse fill="#e3a745" rx="1" ry="1" transform="matrix(-36.28599 6.08996 -12.79248 -76.22176 24.9 83.8)"/><ellipse fill="#5a1f00" rx="1" ry="1" transform="matrix(14.22285 -22.04018 101.23087 65.32578 10 231.2)"/><ellipse fill="#c06800" rx="1" ry="1" transform="matrix(-67.60082 -70.49348 21.65515 -20.76654 24.9 180.8)"/><ellipse fill="#fff" cx="103" cy="178" rx="22" ry="8"/><path fill="#fffff4" d="M123 176l62-148-50 58z"/></g></svg>