<svg xmlns="http://www.w3.org/2000/svg" viewBox="0 0 900 600"><filter id="b"><feGaussianBlur stdDeviation="12" /></filter><path fill="#68776f" d="M0 0h900v597H0z"/><g filter="url(#b)" transform="translate(1.8 1.8) scale(3.51563)" fill-opacity=".5"><ellipse fill="#6ed2ff" rx="1" ry="1" transform="matrix(.57965 43.53892 -177.81179 2.36727 135 35.5)"/><ellipse fill="#511b00" rx="1" ry="1" transform="rotate(85.1 27.7 171.2) scale(50.67933 202.21216)"/><path fill="#ffde81" d="M65.5 58.7l-5.2 58.8-47.8-4.2 5.2-58.8z"/><path fill="#0063c1" d="M.8 35.8l-4.1-46.9 122.5-10.7 4.1 46.9z"/><ellipse fill="#cad0cd" rx="1" ry="1" transform="matrix(106.47502 -4.27648 .81741 20.35181 167.8 60)"/><ellipse fill="#0060b8" cx="226" cy="14" rx="51" ry="18"/><ellipse fill="#30280b" cx="255" cy="153" rx="93" ry="85"/><ellipse fill="#8f671a" rx="1" ry="1" transform="matrix(28.63498 -22.20747 37.77922 48.71366 99.7 135.8)"/></g></svg>