<svg xmlns="http://www.w3.org/2000/svg" viewBox="0 0 600 900"><filter id="b"><feGaussianBlur stdDeviation="12" /></filter><path fill="#766a4a" d="M0 0h597v900H0z"/><g filter="url(#b)" transform="translate(1.8 1.8) scale(3.51563)" fill-opacity=".5"><ellipse fill="#fff" rx="1" ry="1" transform="rotate(116.5 -8 30.9) scale(165.38011 39.93402)"/><path d="M128.5 302.7l-152-74.1 25-51.3 152 74.1z"/><ellipse fill="azure" rx="1" ry="1" transform="matrix(18.04071 61.98586 -23.008 6.69638 20.3 110.5)"/><ellipse fill="#280f00" rx="1" ry="1" transform="matrix(86.32098 -53.1418 14.5173 23.5812 117.3 47)"/><ellipse fill="#370a00" rx="1" ry="1" transform="matrix(-38.3032 -64 22.198 -13.28522 151.3 108.2)"/><path fill="#afdbff" d="M0 0h110v41H0z"/><ellipse fill="#ded7b9" cx="115" cy="140" rx="22" ry="32"/><ellipse fill="#f2be23" cx="106" cy="208" rx="44" ry="16"/></g></svg>