<svg xmlns="http://www.w3.org/2000/svg" viewBox="0 0 900 600"><filter id="b"><feGaussianBlur stdDeviation="12" /></filter><path fill="#95857b" d="M0 0h900v597H0z"/><g filter="url(#b)" transform="translate(1.8 1.8) scale(3.51563)" fill-opacity=".5"><ellipse fill="#f9ffff" rx="1" ry="1" transform="matrix(-78.03487 -141.88982 43.75086 -24.06157 216 50.4)"/><ellipse fill="#401a00" rx="1" ry="1" transform="matrix(3.75868 -44.76092 131.18272 11.01572 82.2 138.2)"/><ellipse fill="#fff" rx="1" ry="1" transform="matrix(2.78012 -15.28277 173.0841 31.4861 59.2 0)"/><ellipse fill="#603714" rx="1" ry="1" transform="matrix(3.33601 -29.54674 91.41606 10.32144 67.7 45.4)"/><ellipse fill="#1c0f00" cx="42" cy="134" rx="99" ry="16"/><ellipse fill="#3e1900" rx="1" ry="1" transform="matrix(-38.30062 -13.0386 3.47635 -10.21171 148.3 79)"/><ellipse fill="#d3b699" cx="125" cy="158" rx="181" ry="5"/><path fill="#f0d9c4" d="M134.2 104.6l41.8-.7-52.4-21.2L-16 79z"/></g></svg>