<svg xmlns="http://www.w3.org/2000/svg" viewBox="0 0 900 600"><filter id="b"><feGaussianBlur stdDeviation="12" /></filter><path fill="#cab594" d="M0 0h900v597H0z"/><g filter="url(#b)" transform="translate(1.8 1.8) scale(3.51563)" fill-opacity=".5"><ellipse fill="#290000" cx="162" cy="4" rx="57" ry="15"/><ellipse fill="#5f1e00" rx="1" ry="1" transform="rotate(157.9 -6.4 55) scale(116.11578 14.48772)"/><ellipse fill="#fff" cx="92" cy="39" rx="255" ry="21"/><path fill="#7b2800" d="M165 68l67 9 39 58z"/><ellipse fill="#fff" rx="1" ry="1" transform="matrix(-3.6222 17.79532 -43.21494 -8.79632 178.8 104.1)"/><ellipse fill="#fffffc" rx="1" ry="1" transform="matrix(76.92132 -2.9961 1.22493 31.4486 247.3 41)"/><path fill="#9d762b" d="M70.3 126.6l24.2-40.3 65.2 39.1-24.2 40.3z"/><ellipse fill="#fcfbf3" rx="1" ry="1" transform="matrix(-19.6301 43.98156 -32.97222 -14.71635 69 28.5)"/></g></svg>