<svg xmlns="http://www.w3.org/2000/svg" viewBox="0 0 900 600"><filter id="b"><feGaussianBlur stdDeviation="12" /></filter><path fill="#999a8a" d="M0 0h900v597H0z"/><g filter="url(#b)" transform="translate(1.8 1.8) scale(3.51563)" fill-opacity=".5"><path fill="#efffff" d="M226 70H-14v-88h240z"/><ellipse fill="#67490f" rx="1" ry="1" transform="matrix(192.6235 -19.39256 5.3047 52.69088 200.2 123.7)"/><ellipse rx="1" ry="1" transform="matrix(151.76435 1.32443 -.04686 5.36994 152.4 136.2)"/><ellipse fill="#fff" rx="1" ry="1" transform="matrix(-69.95278 -21.23436 10.33475 -34.04597 9.9 32.5)"/><ellipse fill="#e9a755" rx="1" ry="1" transform="rotate(-87.6 167.2 -12.3) scale(12.98596 121.03867)"/><ellipse fill="#609da7" cx="59" cy="102" rx="69" ry="29"/><ellipse cx="131" cy="109" rx="4" ry="70"/><ellipse fill="#9abde2" rx="1" ry="1" transform="matrix(156.43033 5.21244 -.7125 21.38288 186 17)"/></g></svg>