<svg xmlns="http://www.w3.org/2000/svg" viewBox="0 0 900 600"><filter id="c"><feGaussianBlur stdDeviation="55" /></filter><path fill="#846d55" d="M0 0h900v597H0z"/><g filter='url(#c)' fill-opacity='.5'><ellipse fill="#fff" fill-opacity=".5" rx="1" ry="1" transform="matrix(5.10337 99.16848 -746.69862 38.42628 360 39.4)"/><ellipse fill="#351f08" fill-opacity=".5" rx="1" ry="1" transform="matrix(-47.48585 -162.92083 550.6338 -160.49092 304.7 331.5)"/><ellipse fill="#fcffff" fill-opacity=".5" rx="1" ry="1" transform="matrix(5.32187 77.72385 -579.23939 39.6614 323.5 49.4)"/><path fill="#300d00" fill-opacity=".5" d="M960.5 323.6l-270 251.8-100.6-108 270-251.8z"/><path fill="#fdffff" fill-opacity=".5" d="M669.7 86.1L782.2 139l80.9-102z"/><ellipse fill="#ffb34f" fill-opacity=".5" rx="1" ry="1" transform="matrix(-2.9819 -63.77824 389.37207 -18.20473 319.5 595.9)"/><ellipse fill="#000001" fill-opacity=".5" rx="1" ry="1" transform="matrix(-30.25193 -71.26908 114.67495 -48.67663 75 478.5)"/><path fill="#b67f4e" fill-opacity=".5" d="M191.6 437.7l520.3 3.5-344.5-182.8z"/></g></svg>