<svg xmlns="http://www.w3.org/2000/svg" viewBox="0 0 600 900"><filter id="b"><feGaussianBlur stdDeviation="12" /></filter><path fill="#451d01" d="M0 0h597v900H0z"/><g filter="url(#b)" transform="translate(1.8 1.8) scale(3.51563)" fill-opacity=".5"><ellipse fill="#ffd624" cx="25" cy="111" rx="17" ry="32"/><ellipse fill="#a04f00" rx="1" ry="1" transform="matrix(-34.21882 -59.73529 43.23865 -24.76887 72 87)"/><path d="M182.6 156l7.3 104.7L-.6 274-8 169.3z"/><path fill="#ffffba" d="M40 116.7l-12.2 8.8-11.7-16.2 12-8.8z"/><ellipse rx="1" ry="1" transform="rotate(-17.6 179.8 -484.4) scale(24.48361 168.99999)"/><path fill="#ffb41b" d="M104 99l-19.3 40.2 12.4 13.7-.7-27.9z"/><ellipse fill="#ffff93" cx="125" cy="137" rx="5" ry="5"/><path fill="#ffa800" d="M25.3 86.8L3.5 123l32-17-8-24.2z"/></g></svg>