<svg xmlns="http://www.w3.org/2000/svg" viewBox="0 0 900 600"><filter id="b"><feGaussianBlur stdDeviation="12" /></filter><path fill="#b59d7e" d="M0 0h900v597H0z"/><g filter="url(#b)" transform="translate(1.8 1.8) scale(3.51563)" fill-opacity=".5"><ellipse fill="#fff" rx="1" ry="1" transform="rotate(-84 119.1 -22.2) scale(48.63901 191.41289)"/><ellipse cx="86" cy="167" rx="199" ry="21"/><ellipse fill="#6e3900" rx="1" ry="1" transform="matrix(4.79081 -54.00524 254.00252 22.5326 188.4 0)"/><ellipse rx="1" ry="1" transform="matrix(-3.29636 18.92297 -152.23137 -26.5185 207.2 0)"/><ellipse fill="#aa5d00" rx="1" ry="1" transform="matrix(16.51429 -4.11747 14.17172 56.83967 255.2 90.2)"/><ellipse fill="#3c0100" cx="55" cy="154" rx="133" ry="10"/><ellipse fill="#fff" rx="1" ry="1" transform="matrix(2.01709 -14.53635 79.90025 11.08708 30 125.5)"/><ellipse fill="#e6b152" rx="1" ry="1" transform="rotate(167.9 53.6 24.6) scale(82.27884 20.39789)"/></g></svg>