<svg xmlns="http://www.w3.org/2000/svg" viewBox="0 0 900 600"><filter id="b"><feGaussianBlur stdDeviation="12" /></filter><path fill="#dfd3c8" d="M0 0h900v597H0z"/><g filter="url(#b)" transform="translate(1.8 1.8) scale(3.51563)" fill-opacity=".5"><ellipse fill="#9e7247" rx="1" ry="1" transform="matrix(1.00196 38.26322 -202.10943 5.29242 142.4 165)"/><ellipse fill="#fff" rx="1" ry="1" transform="rotate(-41.9 53.6 -60.6) scale(115.67416 75.78017)"/><ellipse fill="#fff" rx="1" ry="1" transform="rotate(141 108 46) scale(34.17783 179.804)"/><ellipse fill="#2c0304" rx="1" ry="1" transform="matrix(-18.27568 -20.74738 10.75637 -9.47492 72.4 169)"/><ellipse fill="#fff" cx="40" cy="37" rx="92" ry="64"/><ellipse fill="#c0a38d" rx="1" ry="1" transform="rotate(138.3 87.6 77) scale(20.59839 70.93105)"/><path fill="#d8cfe0" d="M9 116h37v48H9z"/><ellipse fill="#fff" rx="1" ry="1" transform="rotate(-14.5 268 -950) scale(30.75927 79.5409)"/></g></svg>