<svg xmlns="http://www.w3.org/2000/svg" viewBox="0 0 900 600"><filter id="b"><feGaussianBlur stdDeviation="12" /></filter><path fill="#9ea7a8" d="M0 0h900v597H0z"/><g filter="url(#b)" transform="translate(1.8 1.8) scale(3.51563)" fill-opacity=".5"><ellipse rx="1" ry="1" transform="matrix(252.99706 31.89807 -4.76925 37.82694 138 169)"/><ellipse fill="#edffff" rx="1" ry="1" transform="matrix(141.50877 33.59265 -14.95411 62.99407 111.5 67.5)"/><ellipse fill="#3b0a00" cx="178" cy="155" rx="255" ry="20"/><ellipse fill="#070100" cx="14" cy="143" rx="35" ry="35"/><ellipse fill="#6ba9d1" rx="1" ry="1" transform="rotate(21.6 37.4 686.2) scale(232.15487 40.69419)"/><ellipse fill="#fef7f4" rx="1" ry="1" transform="matrix(-27.01562 21.88726 -31.77674 -39.2223 99.2 66.3)"/><ellipse fill="#c99b59" rx="1" ry="1" transform="rotate(27.8 -195.8 458) scale(23.69533 7.64981)"/><ellipse fill="#327199" rx="1" ry="1" transform="matrix(70.68352 37.90017 -8.83944 16.4855 240.2 7)"/></g></svg>