<svg xmlns="http://www.w3.org/2000/svg" viewBox="0 0 900 600"><filter id="b"><feGaussianBlur stdDeviation="12" /></filter><path fill="#413a24" d="M0 0h900v597H0z"/><g filter="url(#b)" transform="translate(1.8 1.8) scale(3.51563)" fill-opacity=".5"><ellipse fill="#b4944d" rx="1" ry="1" transform="rotate(-80.8 103.3 -79.2) scale(45.17546 82.5935)"/><ellipse fill="#00010b" rx="1" ry="1" transform="rotate(169.7 13.5 49.8) scale(65.36261 90.02444)"/><path fill="#00020b" d="M229.1 225.7L123.3 167l43.6-78.7L272.7 147z"/><path fill="#aa8742" d="M90 130L209 22l-26-38z"/><ellipse fill="#846833" rx="1" ry="1" transform="rotate(82.4 68.4 186.8) scale(41.65496 28.33599)"/><ellipse fill="#5c6767" rx="1" ry="1" transform="matrix(31.11408 -17.7069 15.88333 27.90974 221.2 11.5)"/><ellipse fill="#8f9794" cx="65" cy="148" rx="118" ry="3"/><path fill="#5e491f" d="M137 40l-36 33 155 21z"/></g></svg>