<svg xmlns="http://www.w3.org/2000/svg" viewBox="0 0 821 337"><filter id="b"><feGaussianBlur stdDeviation="12" /></filter><path fill="#c9c3b7" d="M0 0h821v336H0z"/><g filter="url(#b)" transform="translate(1.6 1.6) scale(3.20703)" fill-opacity=".5"><ellipse rx="1" ry="1" transform="rotate(-26.8 165.8 -148.7) scale(23.523 43.61699)"/><ellipse fill="#3d0d00" cx="34" cy="32" rx="24" ry="21"/><ellipse fill="#a15c00" rx="1" ry="1" transform="matrix(16.03383 21.85299 -25.01899 18.35677 151.8 45.1)"/><ellipse fill="#fff" rx="1" ry="1" transform="matrix(-90.45731 17.26373 -5.53862 -29.02088 191.4 93.2)"/><ellipse fill="#fff" rx="1" ry="1" transform="rotate(137.5 -7 51.4) scale(57.51289 33.7003)"/><path fill="#406462" d="M237 77.1l-41 .8-1-65 41-.8z"/><path fill="#070100" d="M70 35h39v62H70z"/><ellipse fill="#fff" rx="1" ry="1" transform="matrix(8.31417 -22.78597 68.33212 24.9331 68 0)"/></g></svg>