<svg xmlns="http://www.w3.org/2000/svg" viewBox="0 0 1200 800"><filter id="c"><feGaussianBlur stdDeviation="55" /></filter><path fill="#7c6856" d="M0 0h1200v796H0z"/><g filter='url(#c)' fill-opacity='.5'><ellipse fill="#000034" fill-opacity=".5" rx="1" ry="1" transform="matrix(840.89533 -849.50987 157.8247 156.22426 1085.3 593.9)"/><path fill="#f6c77f" fill-opacity=".5" d="M599.5 764.7l-220.1 7.7L352-10l220.2-7.7z"/><path fill="#ffec5d" fill-opacity=".5" d="M-120.4 782.3L-53.7 617l469.4 189.7L349 971.9z"/><ellipse fill="#000034" fill-opacity=".5" rx="1" ry="1" transform="matrix(233.62932 109.43997 -55.82205 119.16731 1127.7 2.8)"/><ellipse fill="#ffa96f" fill-opacity=".5" rx="1" ry="1" transform="matrix(-223.99427 -111.67942 37.64021 -75.49459 938.9 136.5)"/><path fill="#e5b269" fill-opacity=".5" d="M114.8 49.2l351.6 581.3-267.2 9.3z"/><ellipse fill="#ffeb9c" fill-opacity=".5" rx="1" ry="1" transform="matrix(237.0884 46.40812 -6.77871 34.6309 777.4 444.6)"/><path fill="#00103c" fill-opacity=".5" d="M1129.9 869.5l-211.3-281-659 281 1013-184.8z"/></g></svg>