<svg xmlns="http://www.w3.org/2000/svg" viewBox="0 0 1200 800"><filter id="b"><feGaussianBlur stdDeviation="12" /></filter><path fill="#5e474e" d="M0 0h1200v796H0z"/><g filter="url(#b)" transform="translate(2.3 2.3) scale(4.6875)" fill-opacity=".5"><ellipse fill="#ff5e52" rx="1" ry="1" transform="matrix(-2.33804 -27.52159 61.44849 -5.22022 53.2 40.5)"/><ellipse fill="#001437" rx="1" ry="1" transform="rotate(-80.3 184.6 -50) scale(52.70547 37.61126)"/><ellipse fill="#7890f9" rx="1" ry="1" transform="matrix(37.9148 -3.55606 1.623 17.30445 76.7 81)"/><ellipse fill="#000034" rx="1" ry="1" transform="matrix(60.01488 117.27936 -26.0549 13.33297 254.8 33.8)"/><ellipse fill="#d3a46b" cx="149" cy="127" rx="21" ry="26"/><ellipse fill="#00133b" rx="1" ry="1" transform="rotate(-64.4 152.4 55.6) scale(24.75619 64.90574)"/><ellipse fill="#001033" cx="197" cy="41" rx="23" ry="23"/><path fill="#000b3b" d="M143 64.5l-30.5 14.9L99 51.5l30.6-14.9z"/></g></svg>