<svg xmlns="http://www.w3.org/2000/svg" viewBox="0 0 1200 800"><filter id="b"><feGaussianBlur stdDeviation="12" /></filter><path fill="#8b7260" d="M0 0h1200v796H0z"/><g filter="url(#b)" transform="translate(2.3 2.3) scale(4.6875)" fill-opacity=".5"><ellipse fill="#fddca6" rx="1" ry="1" transform="matrix(-38.89748 11.30076 -22.73093 -78.24039 70.6 130.6)"/><ellipse fill="#00002f" rx="1" ry="1" transform="matrix(45.2159 31.09946 -15.70559 22.83456 255 46.7)"/><ellipse fill="#101236" rx="1" ry="1" transform="matrix(12.18225 48.86033 -27.31922 6.81145 153.9 64.4)"/><path fill="#001a3c" d="M200 85l71 38V65z"/><ellipse fill="#ffd859" cx="89" cy="169" rx="88" ry="14"/><path fill="#40292b" d="M122.6 135l-26.1 21.9-30.2-14.4 56.2-16.7z"/><path fill="#edbf89" d="M138 92l-36-1 51 90z"/><ellipse fill="#e7e4d3" rx="1" ry="1" transform="matrix(29.25957 27.6694 -10.55936 11.16621 63.8 92.2)"/></g></svg>