<svg xmlns="http://www.w3.org/2000/svg" viewBox="0 0 1200 800"><filter id="b"><feGaussianBlur stdDeviation="12" /></filter><path fill="#785652" d="M0 0h1200v796H0z"/><g filter="url(#b)" transform="translate(2.3 2.3) scale(4.6875)" fill-opacity=".5"><ellipse fill="#00003e" cx="187" cy="17" rx="97" ry="53"/><ellipse fill="#e3be6b" rx="1" ry="1" transform="rotate(-94.1 127.6 -12.9) scale(33.9171 112.71143)"/><ellipse fill="#b82d46" rx="1" ry="1" transform="matrix(-46.5146 -12.0295 9.7947 -37.8733 75.6 50)"/><ellipse fill="#09244c" rx="1" ry="1" transform="matrix(72.05334 56.78337 -24.25321 30.7753 201.8 18.4)"/><path fill="#ffe182" d="M14 107h108v14H14z"/><ellipse fill="#242748" rx="1" ry="1" transform="matrix(-.92715 9.97191 -31.63522 -2.94133 99.9 131.4)"/><ellipse fill="#543240" rx="1" ry="1" transform="rotate(162.4 69.5 48.5) scale(37.72893 25.37954)"/><path fill="#000933" d="M54.6 100.5l3.8 7.2-9 7.3L-16 89.5z"/></g></svg>