<svg xmlns="http://www.w3.org/2000/svg" viewBox="0 0 1200 800"><filter id="b"><feGaussianBlur stdDeviation="12" /></filter><path fill="#605451" d="M0 0h1200v796H0z"/><g filter="url(#b)" transform="translate(2.3 2.3) scale(4.6875)" fill-opacity=".5"><ellipse fill="#ffffc9" rx="1" ry="1" transform="matrix(-72.70648 -5.6944 1.15785 -14.78354 141 164.9)"/><ellipse fill="#000936" rx="1" ry="1" transform="matrix(-51.54206 56.74967 -21.91026 -19.89967 66.4 109.4)"/><ellipse fill="#c69e6f" rx="1" ry="1" transform="rotate(-84.2 121.6 -24.3) scale(103.63439 13.86623)"/><path fill="#ffbc76" d="M-16 44l47-2-29 65z"/><ellipse fill="#291338" rx="1" ry="1" transform="matrix(50.83882 249.8808 -24.71312 5.02794 255 87.1)"/><ellipse fill="#fffba1" cx="176" cy="122" rx="37" ry="5"/><ellipse fill="#d9c588" cx="4" cy="125" rx="7" ry="50"/><ellipse fill="#b29565" rx="1" ry="1" transform="matrix(27.4575 -18.63988 10.6132 15.63378 53.2 40.6)"/></g></svg>