<svg xmlns="http://www.w3.org/2000/svg" viewBox="0 0 900 600"><filter id="c"><feGaussianBlur stdDeviation="55" /></filter><path fill="#b99a85" d="M0 0h900v597H0z"/><g filter='url(#c)' fill-opacity='.5'><ellipse fill="#0b0000" fill-opacity=".5" rx="1" ry="1" transform="rotate(-164.2 464.2 170.6) scale(95.6774 340.68911)"/><ellipse fill-opacity=".5" rx="1" ry="1" transform="matrix(5.84258 -60.46215 285.7475 27.61238 150.1 595.9)"/><ellipse fill="#0a0009" fill-opacity=".5" rx="1" ry="1" transform="matrix(7.52172 -68.13088 155.10527 17.12378 104.3 70.5)"/><ellipse fill="#fff" fill-opacity=".5" rx="1" ry="1" transform="rotate(18.7 -1393.7 1616) scale(435.31714 74.29031)"/><ellipse fill="#ffe" fill-opacity=".5" rx="1" ry="1" transform="matrix(606.57773 112.22197 -13.17193 71.19639 559.7 1.8)"/><path fill="#3a060a" fill-opacity=".5" d="M-5.3 276l225-133.6-274.2 404.3z"/><ellipse fill="#fffcdc" fill-opacity=".5" rx="1" ry="1" transform="matrix(21.21212 93.41662 -136.93652 31.09418 151.4 438)"/><ellipse fill="#000023" fill-opacity=".5" rx="1" ry="1" transform="matrix(-293.27485 -27.13953 4.08681 -44.16284 130.4 580.8)"/></g></svg>