<svg xmlns="http://www.w3.org/2000/svg" viewBox="0 0 900 600"><filter id="b"><feGaussianBlur stdDeviation="12" /></filter><path fill="#865b57" d="M0 0h900v597H0z"/><g filter="url(#b)" transform="translate(1.8 1.8) scale(3.51563)" fill-opacity=".5"><ellipse fill="#000c1d" rx="1" ry="1" transform="matrix(62.9393 -5.1674 8.24565 100.43264 36.7 143.5)"/><ellipse fill="#e17468" cx="206" cy="21" rx="132" ry="132"/><ellipse fill="#fff4d5" rx="1" ry="1" transform="matrix(42.88811 -41.4848 16.82018 17.38916 30.3 7.5)"/><ellipse fill="#ca082f" cx="179" cy="6" rx="68" ry="68"/><path fill="#d4eba9" d="M164 73l107 87L41 78z"/><path fill="#000023" d="M208.5 85.2l34.3 11.1-9.3 28.5-34.3-11.1z"/><ellipse fill="#00142e" rx="1" ry="1" transform="rotate(28.4 -248.9 76) scale(106.76045 44.78333)"/><ellipse fill="#00122e" rx="1" ry="1" transform="rotate(150.3 11 35.5) scale(41.87875 22.61)"/></g></svg>