<svg xmlns="http://www.w3.org/2000/svg" viewBox="0 0 900 600"><filter id="c"><feGaussianBlur stdDeviation="55" /></filter><path fill="#a79e92" d="M0 0h900v597H0z"/><g filter='url(#c)' fill-opacity='.5'><ellipse fill="#000001" fill-opacity=".5" rx="1" ry="1" transform="rotate(-86.3 115.7 -121.6) scale(117.64184 565.61508)"/><ellipse fill="#fff" fill-opacity=".5" rx="1" ry="1" transform="matrix(326.55678 -672.51715 144.48996 70.16055 738.2 493.6)"/><ellipse fill="#000a24" fill-opacity=".5" rx="1" ry="1" transform="matrix(-20.12207 68.54352 -287.04066 -84.26546 282.9 570.4)"/><ellipse fill="#ffe4a8" fill-opacity=".5" rx="1" ry="1" transform="matrix(-225.26943 153.24918 -77.43803 -113.83043 323 300.4)"/><ellipse fill="#111c2d" fill-opacity=".5" rx="1" ry="1" transform="matrix(362.3442 -177.4276 46.72257 95.41724 107.1 84.7)"/><ellipse fill="#fff" fill-opacity=".5" rx="1" ry="1" transform="matrix(-46.90037 19.9163 -55.31241 -130.2537 501 510.4)"/><path fill="#fffffc" fill-opacity=".5" d="M15.8 536.1h147.7v49.3H15.8z"/><ellipse fill="#000021" fill-opacity=".5" rx="1" ry="1" transform="matrix(84.79867 58.83088 -46.25827 66.67655 687 33)"/></g></svg>