<svg xmlns="http://www.w3.org/2000/svg" viewBox="0 0 900 600"><filter id="c"><feGaussianBlur stdDeviation="55" /></filter><path fill="#957c64" d="M0 0h900v597H0z"/><g filter='url(#c)' fill-opacity='.5'><ellipse fill="#000017" fill-opacity=".5" rx="1" ry="1" transform="rotate(140.5 241 353.8) scale(227.27002 158.83346)"/><ellipse fill="#ffe7a8" fill-opacity=".5" rx="1" ry="1" transform="matrix(-24.68287 -107.77109 337.5791 -77.31593 301 194.5)"/><ellipse fill="#00001b" fill-opacity=".5" rx="1" ry="1" transform="rotate(-154.4 188.4 238.6) scale(332.96121 81.99499)"/><path fill="#fffff3" fill-opacity=".5" d="M736.7-10l184 69.8L954.4 486 791.5 289z"/><ellipse fill="#00011b" fill-opacity=".5" rx="1" ry="1" transform="matrix(-151.09912 -47.18737 16.44594 -52.6617 586.1 336.8)"/><path fill="#ffb46a" fill-opacity=".5" d="M395.5 525.6l-450-397.3L596 399z"/><ellipse fill="#ffffc5" fill-opacity=".5" rx="1" ry="1" transform="matrix(64.72633 -72.87945 58.51963 51.97296 255.6 20)"/><ellipse fill="#fffaff" fill-opacity=".5" rx="1" ry="1" transform="rotate(62.3 -74 985.8) scale(57.02087 275.98691)"/></g></svg>