<svg xmlns="http://www.w3.org/2000/svg" viewBox="0 0 900 600"><filter id="b"><feGaussianBlur stdDeviation="12" /></filter><path fill="#a48480" d="M0 0h900v597H0z"/><g filter="url(#b)" transform="translate(1.8 1.8) scale(3.51563)" fill-opacity=".5"><ellipse fill="#200013" rx="1" ry="1" transform="matrix(-46.1056 28.03265 -132.47737 -217.887 8.2 97.7)"/><ellipse fill="#fff" rx="1" ry="1" transform="rotate(132.5 110.2 66.3) scale(43.06569 39.83332)"/><ellipse fill="#fff" rx="1" ry="1" transform="rotate(78.3 19.5 216.3) scale(19.02774 109.48386)"/><ellipse fill="#fffffc" rx="1" ry="1" transform="matrix(15.14845 65.56107 -24.99433 5.77516 132.7 9.8)"/><ellipse fill="#331b21" rx="1" ry="1" transform="matrix(-53.49946 .3735 -.1836 -26.29838 240.4 102.2)"/><ellipse fill="#ffba9e" cx="130" cy="112" rx="41" ry="41"/><ellipse fill="#c67a9a" rx="1" ry="1" transform="matrix(-17.25032 -44.70524 21.83052 -8.4237 55.4 82.4)"/><ellipse fill="#fffff3" rx="1" ry="1" transform="matrix(7.23883 -44.90535 41.1427 6.63229 237.3 21.8)"/></g></svg>