<svg xmlns="http://www.w3.org/2000/svg" viewBox="0 0 1236 534"><filter id="b"><feGaussianBlur stdDeviation="12" /></filter><path fill="#9c7d69" d="M0 0h1236v531H0z"/><g filter="url(#b)" transform="translate(2.4 2.4) scale(4.82813)" fill-opacity=".5"><ellipse fill="#ffc59f" rx="1" ry="1" transform="rotate(-40.8 52.9 -27.1) scale(58.68457 35.87263)"/><path fill="#423837" d="M126 93L271 0v100z"/><path fill="#003459" d="M80.4 95.7L36.2 77l-5.4 46.4 49.6 1.6z"/><ellipse fill="#fff48b" cx="145" cy="99" rx="56" ry="4"/><ellipse fill="#b89c9d" rx="1" ry="1" transform="matrix(5.6103 -18.0685 55.24189 17.15267 156.4 36.7)"/><ellipse fill="#d8bab2" rx="1" ry="1" transform="matrix(-10.4326 20.45923 -10.90854 -5.5625 65.1 65.4)"/><ellipse fill="#3e678c" rx="1" ry="1" transform="matrix(-21.68164 -6.16403 2.2129 -7.78378 50 65.5)"/><path fill="#574a48" d="M212.8-6.9l51 1.8-2.6 74-51-1.8z"/></g></svg>